G75*
%MOIN*%
%OFA0B0*%
%FSLAX24Y24*%
%IPPOS*%
%LPD*%
%AMOC8*
5,1,8,0,0,1.08239X$1,22.5*
%
%ADD10C,0.0000*%
%ADD11R,0.0118X0.0748*%
%ADD12C,0.0768*%
%ADD13R,0.0157X0.0197*%
%ADD14R,0.0118X0.0256*%
%ADD15R,0.0571X0.0106*%
%ADD16R,0.0106X0.0571*%
%ADD17R,0.0531X0.0157*%
%ADD18R,0.0748X0.0709*%
%ADD19R,0.0748X0.0748*%
%ADD20R,0.0630X0.0827*%
%ADD21R,0.0394X0.0354*%
%ADD22R,0.0197X0.0157*%
%ADD23R,0.0500X0.0220*%
%ADD24R,0.0315X0.0197*%
%ADD25R,0.0197X0.0315*%
%ADD26R,0.0315X0.0315*%
%ADD27C,0.1581*%
%ADD28C,0.1778*%
%ADD29R,0.0630X0.0335*%
%ADD30R,0.0236X0.0197*%
%ADD31R,0.0600X0.0600*%
%ADD32C,0.0600*%
%ADD33R,0.0540X0.0540*%
%ADD34C,0.0540*%
%ADD35R,0.1378X0.0394*%
%ADD36R,0.0236X0.0236*%
%ADD37C,0.0236*%
%ADD38R,0.0394X0.0394*%
%ADD39R,0.0630X0.0118*%
%ADD40R,0.0118X0.0630*%
%ADD41R,0.0217X0.0531*%
%ADD42R,0.0827X0.0500*%
%ADD43R,0.0748X0.0118*%
%ADD44R,0.0256X0.0118*%
%ADD45C,0.0394*%
%ADD46R,0.1339X0.1969*%
%ADD47R,0.0394X0.1063*%
%ADD48C,0.0100*%
%ADD49C,0.0270*%
%ADD50C,0.0060*%
%ADD51C,0.0160*%
D10*
X000873Y004647D02*
X000873Y027246D01*
X033550Y027246D01*
X033550Y004647D01*
X000873Y004647D01*
X001213Y005612D02*
X001215Y005662D01*
X001221Y005711D01*
X001231Y005760D01*
X001244Y005807D01*
X001262Y005854D01*
X001283Y005899D01*
X001307Y005942D01*
X001335Y005983D01*
X001366Y006022D01*
X001400Y006058D01*
X001437Y006092D01*
X001477Y006122D01*
X001518Y006149D01*
X001562Y006173D01*
X001607Y006193D01*
X001654Y006209D01*
X001702Y006222D01*
X001751Y006231D01*
X001801Y006236D01*
X001850Y006237D01*
X001900Y006234D01*
X001949Y006227D01*
X001998Y006216D01*
X002045Y006202D01*
X002091Y006183D01*
X002136Y006161D01*
X002179Y006136D01*
X002219Y006107D01*
X002257Y006075D01*
X002293Y006041D01*
X002326Y006003D01*
X002355Y005963D01*
X002381Y005921D01*
X002404Y005877D01*
X002423Y005831D01*
X002439Y005784D01*
X002451Y005735D01*
X002459Y005686D01*
X002463Y005637D01*
X002463Y005587D01*
X002459Y005538D01*
X002451Y005489D01*
X002439Y005440D01*
X002423Y005393D01*
X002404Y005347D01*
X002381Y005303D01*
X002355Y005261D01*
X002326Y005221D01*
X002293Y005183D01*
X002257Y005149D01*
X002219Y005117D01*
X002179Y005088D01*
X002136Y005063D01*
X002091Y005041D01*
X002045Y005022D01*
X001998Y005008D01*
X001949Y004997D01*
X001900Y004990D01*
X001850Y004987D01*
X001801Y004988D01*
X001751Y004993D01*
X001702Y005002D01*
X001654Y005015D01*
X001607Y005031D01*
X001562Y005051D01*
X001518Y005075D01*
X001477Y005102D01*
X001437Y005132D01*
X001400Y005166D01*
X001366Y005202D01*
X001335Y005241D01*
X001307Y005282D01*
X001283Y005325D01*
X001262Y005370D01*
X001244Y005417D01*
X001231Y005464D01*
X001221Y005513D01*
X001215Y005562D01*
X001213Y005612D01*
X001213Y026281D02*
X001215Y026331D01*
X001221Y026380D01*
X001231Y026429D01*
X001244Y026476D01*
X001262Y026523D01*
X001283Y026568D01*
X001307Y026611D01*
X001335Y026652D01*
X001366Y026691D01*
X001400Y026727D01*
X001437Y026761D01*
X001477Y026791D01*
X001518Y026818D01*
X001562Y026842D01*
X001607Y026862D01*
X001654Y026878D01*
X001702Y026891D01*
X001751Y026900D01*
X001801Y026905D01*
X001850Y026906D01*
X001900Y026903D01*
X001949Y026896D01*
X001998Y026885D01*
X002045Y026871D01*
X002091Y026852D01*
X002136Y026830D01*
X002179Y026805D01*
X002219Y026776D01*
X002257Y026744D01*
X002293Y026710D01*
X002326Y026672D01*
X002355Y026632D01*
X002381Y026590D01*
X002404Y026546D01*
X002423Y026500D01*
X002439Y026453D01*
X002451Y026404D01*
X002459Y026355D01*
X002463Y026306D01*
X002463Y026256D01*
X002459Y026207D01*
X002451Y026158D01*
X002439Y026109D01*
X002423Y026062D01*
X002404Y026016D01*
X002381Y025972D01*
X002355Y025930D01*
X002326Y025890D01*
X002293Y025852D01*
X002257Y025818D01*
X002219Y025786D01*
X002179Y025757D01*
X002136Y025732D01*
X002091Y025710D01*
X002045Y025691D01*
X001998Y025677D01*
X001949Y025666D01*
X001900Y025659D01*
X001850Y025656D01*
X001801Y025657D01*
X001751Y025662D01*
X001702Y025671D01*
X001654Y025684D01*
X001607Y025700D01*
X001562Y025720D01*
X001518Y025744D01*
X001477Y025771D01*
X001437Y025801D01*
X001400Y025835D01*
X001366Y025871D01*
X001335Y025910D01*
X001307Y025951D01*
X001283Y025994D01*
X001262Y026039D01*
X001244Y026086D01*
X001231Y026133D01*
X001221Y026182D01*
X001215Y026231D01*
X001213Y026281D01*
X031961Y026281D02*
X031963Y026331D01*
X031969Y026380D01*
X031979Y026429D01*
X031992Y026476D01*
X032010Y026523D01*
X032031Y026568D01*
X032055Y026611D01*
X032083Y026652D01*
X032114Y026691D01*
X032148Y026727D01*
X032185Y026761D01*
X032225Y026791D01*
X032266Y026818D01*
X032310Y026842D01*
X032355Y026862D01*
X032402Y026878D01*
X032450Y026891D01*
X032499Y026900D01*
X032549Y026905D01*
X032598Y026906D01*
X032648Y026903D01*
X032697Y026896D01*
X032746Y026885D01*
X032793Y026871D01*
X032839Y026852D01*
X032884Y026830D01*
X032927Y026805D01*
X032967Y026776D01*
X033005Y026744D01*
X033041Y026710D01*
X033074Y026672D01*
X033103Y026632D01*
X033129Y026590D01*
X033152Y026546D01*
X033171Y026500D01*
X033187Y026453D01*
X033199Y026404D01*
X033207Y026355D01*
X033211Y026306D01*
X033211Y026256D01*
X033207Y026207D01*
X033199Y026158D01*
X033187Y026109D01*
X033171Y026062D01*
X033152Y026016D01*
X033129Y025972D01*
X033103Y025930D01*
X033074Y025890D01*
X033041Y025852D01*
X033005Y025818D01*
X032967Y025786D01*
X032927Y025757D01*
X032884Y025732D01*
X032839Y025710D01*
X032793Y025691D01*
X032746Y025677D01*
X032697Y025666D01*
X032648Y025659D01*
X032598Y025656D01*
X032549Y025657D01*
X032499Y025662D01*
X032450Y025671D01*
X032402Y025684D01*
X032355Y025700D01*
X032310Y025720D01*
X032266Y025744D01*
X032225Y025771D01*
X032185Y025801D01*
X032148Y025835D01*
X032114Y025871D01*
X032083Y025910D01*
X032055Y025951D01*
X032031Y025994D01*
X032010Y026039D01*
X031992Y026086D01*
X031979Y026133D01*
X031969Y026182D01*
X031963Y026231D01*
X031961Y026281D01*
X031961Y005612D02*
X031963Y005662D01*
X031969Y005711D01*
X031979Y005760D01*
X031992Y005807D01*
X032010Y005854D01*
X032031Y005899D01*
X032055Y005942D01*
X032083Y005983D01*
X032114Y006022D01*
X032148Y006058D01*
X032185Y006092D01*
X032225Y006122D01*
X032266Y006149D01*
X032310Y006173D01*
X032355Y006193D01*
X032402Y006209D01*
X032450Y006222D01*
X032499Y006231D01*
X032549Y006236D01*
X032598Y006237D01*
X032648Y006234D01*
X032697Y006227D01*
X032746Y006216D01*
X032793Y006202D01*
X032839Y006183D01*
X032884Y006161D01*
X032927Y006136D01*
X032967Y006107D01*
X033005Y006075D01*
X033041Y006041D01*
X033074Y006003D01*
X033103Y005963D01*
X033129Y005921D01*
X033152Y005877D01*
X033171Y005831D01*
X033187Y005784D01*
X033199Y005735D01*
X033207Y005686D01*
X033211Y005637D01*
X033211Y005587D01*
X033207Y005538D01*
X033199Y005489D01*
X033187Y005440D01*
X033171Y005393D01*
X033152Y005347D01*
X033129Y005303D01*
X033103Y005261D01*
X033074Y005221D01*
X033041Y005183D01*
X033005Y005149D01*
X032967Y005117D01*
X032927Y005088D01*
X032884Y005063D01*
X032839Y005041D01*
X032793Y005022D01*
X032746Y005008D01*
X032697Y004997D01*
X032648Y004990D01*
X032598Y004987D01*
X032549Y004988D01*
X032499Y004993D01*
X032450Y005002D01*
X032402Y005015D01*
X032355Y005031D01*
X032310Y005051D01*
X032266Y005075D01*
X032225Y005102D01*
X032185Y005132D01*
X032148Y005166D01*
X032114Y005202D01*
X032083Y005241D01*
X032055Y005282D01*
X032031Y005325D01*
X032010Y005370D01*
X031992Y005417D01*
X031979Y005464D01*
X031969Y005513D01*
X031963Y005562D01*
X031961Y005612D01*
D11*
X025538Y007954D03*
X025342Y007954D03*
X025145Y007954D03*
X024948Y007954D03*
X024751Y007954D03*
X024554Y007954D03*
X024357Y007954D03*
X024160Y007954D03*
X023964Y007954D03*
X023767Y007954D03*
X023570Y007954D03*
X023373Y007954D03*
X023176Y007954D03*
X022979Y007954D03*
X022782Y007954D03*
X022586Y007954D03*
X022389Y007954D03*
X022192Y007954D03*
X021995Y007954D03*
X022034Y023939D03*
X021838Y023939D03*
X021641Y023939D03*
X021444Y023939D03*
X021247Y023939D03*
X021050Y023939D03*
X020853Y023939D03*
X020656Y023939D03*
X022231Y023939D03*
X022428Y023939D03*
X022625Y023939D03*
X022822Y023939D03*
X023019Y023939D03*
X023216Y023939D03*
X023412Y023939D03*
X023609Y023939D03*
X023806Y023939D03*
X024003Y023939D03*
X024200Y023939D03*
D12*
X025381Y024293D03*
X025617Y026242D03*
X019672Y024293D03*
X019436Y026242D03*
X030597Y019903D03*
X032546Y020139D03*
X030597Y014194D03*
X032546Y013958D03*
X026523Y007600D03*
X026759Y005651D03*
X020814Y007600D03*
X020578Y005651D03*
D13*
X021129Y009647D03*
X021483Y009647D03*
X028767Y008427D03*
X029121Y008427D03*
X029160Y012639D03*
X028806Y012639D03*
X029121Y015317D03*
X029475Y015317D03*
X024712Y022206D03*
X024357Y022206D03*
X024436Y023151D03*
X024790Y023151D03*
X018058Y021734D03*
X017704Y021734D03*
X017704Y021380D03*
X018058Y021380D03*
X016838Y026222D03*
X016483Y026222D03*
X008964Y020356D03*
X008964Y020002D03*
X008609Y020002D03*
X008609Y020356D03*
X008609Y019647D03*
X008964Y019647D03*
X007428Y018269D03*
X007074Y018269D03*
X005971Y018899D03*
X005617Y018899D03*
X005853Y016458D03*
X006208Y016458D03*
X006247Y015198D03*
X005893Y015198D03*
X005893Y014765D03*
X006247Y014765D03*
X012664Y015198D03*
X013019Y015198D03*
X013019Y016261D03*
X012664Y016261D03*
D14*
X023491Y009716D03*
X023688Y009716D03*
X023885Y009716D03*
X024082Y009716D03*
X024082Y009263D03*
X023885Y009263D03*
X023688Y009263D03*
X023491Y009263D03*
X024771Y009263D03*
X024968Y009263D03*
X025164Y009263D03*
X025361Y009263D03*
X025361Y009716D03*
X025164Y009716D03*
X024968Y009716D03*
X024771Y009716D03*
D15*
X011513Y014431D03*
X011513Y014628D03*
X011513Y014824D03*
X011513Y015021D03*
X011513Y015218D03*
X011513Y015415D03*
X011513Y015612D03*
X011513Y015809D03*
X011513Y016006D03*
X011513Y016202D03*
X011513Y016399D03*
X011513Y016596D03*
X011513Y016793D03*
X011513Y016990D03*
X011513Y017187D03*
X011513Y017383D03*
X007084Y017383D03*
X007084Y017187D03*
X007084Y016990D03*
X007084Y016793D03*
X007084Y016596D03*
X007084Y016399D03*
X007084Y016202D03*
X007084Y016006D03*
X007084Y015809D03*
X007084Y015612D03*
X007084Y015415D03*
X007084Y015218D03*
X007084Y015021D03*
X007084Y014824D03*
X007084Y014628D03*
X007084Y014431D03*
D16*
X007822Y013693D03*
X008019Y013693D03*
X008216Y013693D03*
X008412Y013693D03*
X008609Y013693D03*
X008806Y013693D03*
X009003Y013693D03*
X009200Y013693D03*
X009397Y013693D03*
X009594Y013693D03*
X009790Y013693D03*
X009987Y013693D03*
X010184Y013693D03*
X010381Y013693D03*
X010578Y013693D03*
X010775Y013693D03*
X010775Y018122D03*
X010578Y018122D03*
X010381Y018122D03*
X010184Y018122D03*
X009987Y018122D03*
X009790Y018122D03*
X009594Y018122D03*
X009397Y018122D03*
X009200Y018122D03*
X009003Y018122D03*
X008806Y018122D03*
X008609Y018122D03*
X008412Y018122D03*
X008216Y018122D03*
X008019Y018122D03*
X007822Y018122D03*
D17*
X002517Y016498D03*
X002517Y016242D03*
X002517Y015986D03*
X002517Y015730D03*
X002517Y015474D03*
D18*
X001464Y014490D03*
X001464Y017482D03*
D19*
X001464Y016458D03*
X001464Y015513D03*
D20*
X002468Y014765D03*
X002468Y017206D03*
D21*
X005164Y017718D03*
X006031Y017718D03*
X006031Y018387D03*
X005164Y018387D03*
D22*
X004613Y018131D03*
X004613Y017777D03*
X004771Y017029D03*
X004771Y016675D03*
X003786Y016675D03*
X003786Y017029D03*
X003786Y015651D03*
X003786Y015297D03*
X004771Y015297D03*
X004771Y015651D03*
X008432Y012935D03*
X008432Y012580D03*
X010558Y012580D03*
X010558Y012935D03*
X016031Y015927D03*
X016031Y016281D03*
X016109Y020139D03*
X016464Y020139D03*
X016464Y020494D03*
X016109Y020494D03*
X016109Y021557D03*
X016109Y021911D03*
X012172Y021911D03*
X012172Y021557D03*
X012172Y020494D03*
X011818Y020494D03*
X011818Y020139D03*
X012172Y020139D03*
X010046Y019313D03*
X009692Y019313D03*
X009692Y018958D03*
X010046Y018958D03*
X006070Y019903D03*
X005716Y019903D03*
X005716Y020257D03*
X006070Y020257D03*
X021936Y009076D03*
X021936Y008722D03*
X025952Y011124D03*
X025952Y011478D03*
X028550Y014509D03*
X028550Y014864D03*
X026031Y021084D03*
X025597Y021084D03*
X025597Y021439D03*
X026031Y021439D03*
X025164Y021439D03*
X025164Y021084D03*
D23*
X008046Y020372D03*
X008046Y020002D03*
X008046Y019632D03*
X007086Y019632D03*
X007086Y020002D03*
X007086Y020372D03*
D24*
X004298Y017265D03*
X004298Y016675D03*
X004298Y015651D03*
X004298Y015061D03*
D25*
X010578Y018820D03*
X011168Y018820D03*
X011168Y018309D03*
X011759Y018309D03*
X013058Y019293D03*
X013649Y019293D03*
X014042Y019805D03*
X014633Y019805D03*
X014633Y019293D03*
X015223Y019293D03*
X015223Y022639D03*
X014633Y022639D03*
X013649Y022639D03*
X013058Y022639D03*
D26*
X016365Y026694D03*
X016956Y026694D03*
D27*
X003235Y023309D03*
D28*
X005597Y023309D03*
D29*
X010912Y022728D03*
X010912Y021527D03*
D30*
X016601Y016320D03*
X016601Y016045D03*
X017034Y016045D03*
X017034Y016320D03*
D31*
X017546Y009242D03*
X008546Y009242D03*
X002231Y012915D03*
X007330Y023769D03*
X010326Y025080D03*
X010326Y026104D03*
D32*
X009326Y026104D03*
X008326Y026104D03*
X007326Y026104D03*
X007326Y025080D03*
X008326Y025080D03*
X009326Y025080D03*
X007330Y022769D03*
X007231Y012915D03*
X006231Y012915D03*
X005231Y012915D03*
X004231Y012915D03*
X003231Y012915D03*
X003546Y009242D03*
X004546Y009242D03*
X005546Y009242D03*
X006546Y009242D03*
X007546Y009242D03*
X007546Y008242D03*
X006546Y008242D03*
X005546Y008242D03*
X004546Y008242D03*
X003546Y008242D03*
X008546Y008242D03*
X012546Y008242D03*
X013546Y008242D03*
X014546Y008242D03*
X015546Y008242D03*
X016546Y008242D03*
X017546Y008242D03*
X016546Y009242D03*
X015546Y009242D03*
X014546Y009242D03*
X013546Y009242D03*
X012546Y009242D03*
D33*
X011527Y010356D03*
X002527Y010356D03*
X009849Y023836D03*
D34*
X009849Y022836D03*
X009849Y021836D03*
X012527Y010356D03*
X013527Y010356D03*
X004527Y010356D03*
X003527Y010356D03*
D35*
X012428Y025041D03*
X015066Y025041D03*
D36*
X027802Y009372D03*
D37*
X027802Y009844D03*
X027802Y010317D03*
X027802Y010789D03*
X027802Y011261D03*
X028275Y011261D03*
X028747Y011261D03*
X029219Y011261D03*
X029692Y011261D03*
X029692Y010789D03*
X029692Y010317D03*
X029219Y010317D03*
X028747Y010317D03*
X028747Y010789D03*
X028275Y010789D03*
X028275Y010317D03*
X028275Y009844D03*
X028747Y009844D03*
X029219Y009844D03*
X029692Y009844D03*
X029692Y009372D03*
X029219Y009372D03*
X028747Y009372D03*
X028275Y009372D03*
X029219Y010789D03*
X030164Y010789D03*
X030164Y010317D03*
X030637Y010317D03*
X030637Y010789D03*
X031109Y010789D03*
X031109Y010317D03*
X031582Y010317D03*
X031582Y010789D03*
X031582Y011261D03*
X031109Y011261D03*
X030637Y011261D03*
X030164Y011261D03*
X030164Y011734D03*
X030637Y011734D03*
X031109Y011734D03*
X031582Y011734D03*
X032527Y011734D03*
X032999Y011734D03*
X031582Y009844D03*
X031109Y009844D03*
X030637Y009844D03*
X030164Y009844D03*
X030164Y009372D03*
X030637Y009372D03*
X031109Y009372D03*
X031582Y009372D03*
X032527Y009372D03*
X032999Y009372D03*
X029692Y011734D03*
X029219Y011734D03*
X028747Y011734D03*
X028275Y011734D03*
X027802Y011734D03*
D38*
X026936Y011655D03*
X026936Y011104D03*
D39*
X026542Y012502D03*
X026542Y012698D03*
X026542Y012895D03*
X026542Y013092D03*
X026542Y013289D03*
X026542Y013486D03*
X026542Y013683D03*
X026542Y013880D03*
X026542Y014076D03*
X026542Y014273D03*
X026542Y014470D03*
X026542Y014667D03*
X026542Y014864D03*
X026542Y015061D03*
X026542Y015257D03*
X026542Y015454D03*
X026542Y015651D03*
X026542Y015848D03*
X026542Y016045D03*
X026542Y016242D03*
X026542Y016439D03*
X026542Y016635D03*
X026542Y016832D03*
X026542Y017029D03*
X026542Y017226D03*
X026542Y017423D03*
X026542Y017620D03*
X026542Y017817D03*
X026542Y018013D03*
X026542Y018210D03*
X026542Y018407D03*
X026542Y018604D03*
X026542Y018801D03*
X026542Y018998D03*
X026542Y019194D03*
X026542Y019391D03*
X017802Y019391D03*
X017802Y019194D03*
X017802Y018998D03*
X017802Y018801D03*
X017802Y018604D03*
X017802Y018407D03*
X017802Y018210D03*
X017802Y018013D03*
X017802Y017817D03*
X017802Y017620D03*
X017802Y017423D03*
X017802Y017226D03*
X017802Y017029D03*
X017802Y016832D03*
X017802Y016635D03*
X017802Y016439D03*
X017802Y016242D03*
X017802Y016045D03*
X017802Y015848D03*
X017802Y015651D03*
X017802Y015454D03*
X017802Y015257D03*
X017802Y015061D03*
X017802Y014864D03*
X017802Y014667D03*
X017802Y014470D03*
X017802Y014273D03*
X017802Y014076D03*
X017802Y013880D03*
X017802Y013683D03*
X017802Y013486D03*
X017802Y013289D03*
X017802Y013092D03*
X017802Y012895D03*
X017802Y012698D03*
X017802Y012502D03*
X015243Y020248D03*
X015243Y020504D03*
X015243Y020759D03*
X015243Y021015D03*
X015243Y021271D03*
X015243Y021527D03*
X015243Y021783D03*
X015243Y022039D03*
X013038Y022039D03*
X013038Y021783D03*
X013038Y021527D03*
X013038Y021271D03*
X013038Y021015D03*
X013038Y020759D03*
X013038Y020504D03*
X013038Y020248D03*
D40*
X018727Y020317D03*
X018924Y020317D03*
X019121Y020317D03*
X019318Y020317D03*
X019515Y020317D03*
X019712Y020317D03*
X019908Y020317D03*
X020105Y020317D03*
X020302Y020317D03*
X020499Y020317D03*
X020696Y020317D03*
X020893Y020317D03*
X021090Y020317D03*
X021286Y020317D03*
X021483Y020317D03*
X021680Y020317D03*
X021877Y020317D03*
X022074Y020317D03*
X022271Y020317D03*
X022468Y020317D03*
X022664Y020317D03*
X022861Y020317D03*
X023058Y020317D03*
X023255Y020317D03*
X023452Y020317D03*
X023649Y020317D03*
X023845Y020317D03*
X024042Y020317D03*
X024239Y020317D03*
X024436Y020317D03*
X024633Y020317D03*
X024830Y020317D03*
X025027Y020317D03*
X025223Y020317D03*
X025420Y020317D03*
X025617Y020317D03*
X025617Y011576D03*
X025420Y011576D03*
X025223Y011576D03*
X025027Y011576D03*
X024830Y011576D03*
X024633Y011576D03*
X024436Y011576D03*
X024239Y011576D03*
X024042Y011576D03*
X023845Y011576D03*
X023649Y011576D03*
X023452Y011576D03*
X023255Y011576D03*
X023058Y011576D03*
X022861Y011576D03*
X022664Y011576D03*
X022468Y011576D03*
X022271Y011576D03*
X022074Y011576D03*
X021877Y011576D03*
X021680Y011576D03*
X021483Y011576D03*
X021286Y011576D03*
X021090Y011576D03*
X020893Y011576D03*
X020696Y011576D03*
X020499Y011576D03*
X020302Y011576D03*
X020105Y011576D03*
X019908Y011576D03*
X019712Y011576D03*
X019515Y011576D03*
X019318Y011576D03*
X019121Y011576D03*
X018924Y011576D03*
X018727Y011576D03*
D41*
X018710Y022521D03*
X018210Y022521D03*
X017710Y022521D03*
X017210Y022521D03*
X017210Y024569D03*
X017710Y024569D03*
X018210Y024569D03*
X018710Y024569D03*
D42*
X008590Y024049D03*
X008590Y022490D03*
D43*
X030243Y018919D03*
X030243Y018722D03*
X030243Y018525D03*
X030243Y018328D03*
X030243Y018131D03*
X030243Y017935D03*
X030243Y017738D03*
X030243Y017541D03*
X030243Y017344D03*
X030243Y017147D03*
X030243Y016950D03*
X030243Y016754D03*
X030243Y016557D03*
X030243Y016360D03*
X030243Y016163D03*
X030243Y015966D03*
X030243Y015769D03*
X030243Y015572D03*
X030243Y015376D03*
D44*
X028934Y016872D03*
X028934Y017069D03*
X028934Y017265D03*
X028934Y017462D03*
X028481Y017462D03*
X028481Y017265D03*
X028481Y017069D03*
X028481Y016872D03*
X028481Y018151D03*
X028481Y018348D03*
X028481Y018545D03*
X028481Y018742D03*
X028934Y018742D03*
X028934Y018545D03*
X028934Y018348D03*
X028934Y018151D03*
D45*
X031070Y026222D03*
X003353Y026222D03*
X003511Y005671D03*
X031070Y005671D03*
D46*
X014141Y021143D03*
D47*
X014613Y018387D03*
X015401Y018387D03*
X013668Y018387D03*
X012881Y018387D03*
D48*
X012881Y018663D01*
X012999Y018634D02*
X012290Y018634D01*
X012290Y018624D02*
X012290Y018702D01*
X012369Y018781D01*
X012999Y018781D01*
X012999Y018545D01*
X012369Y018545D01*
X012290Y018624D01*
X012321Y018733D02*
X012999Y018733D01*
X013228Y018733D02*
X013311Y018733D01*
X013311Y018831D02*
X013228Y018831D01*
X013228Y018930D02*
X013311Y018930D01*
X013228Y018981D02*
X013140Y019069D01*
X012622Y019069D01*
X012534Y018981D01*
X012286Y018981D01*
X012208Y018902D01*
X012090Y018785D01*
X012090Y018541D01*
X012169Y018462D01*
X012286Y018345D01*
X012534Y018345D01*
X012534Y017794D01*
X012622Y017706D01*
X013140Y017706D01*
X013228Y017794D01*
X013228Y018981D01*
X013181Y019028D02*
X013311Y019028D01*
X013311Y019127D02*
X010870Y019127D01*
X010882Y019157D02*
X010839Y019053D01*
X010826Y019040D01*
X010826Y018601D01*
X010782Y018557D01*
X010890Y018557D01*
X010920Y018527D01*
X010920Y018528D01*
X011008Y018616D01*
X011329Y018616D01*
X011417Y018528D01*
X011417Y018089D01*
X011329Y018001D01*
X011008Y018001D01*
X010978Y018031D01*
X010978Y017947D01*
X011014Y017911D01*
X011338Y017587D01*
X011860Y017587D01*
X011948Y017499D01*
X011948Y017268D01*
X011909Y017229D01*
X014932Y017229D01*
X015063Y017360D01*
X015169Y017465D01*
X016940Y017465D01*
X017112Y017637D01*
X016497Y017637D01*
X016481Y017630D01*
X016368Y017630D01*
X016263Y017673D01*
X016183Y017754D01*
X016139Y017858D01*
X016139Y017972D01*
X016183Y018076D01*
X016263Y018157D01*
X016368Y018200D01*
X016375Y018200D01*
X016375Y018287D01*
X016419Y018391D01*
X016499Y018472D01*
X016604Y018515D01*
X016612Y018515D01*
X016612Y018602D01*
X016655Y018706D01*
X016735Y018786D01*
X016840Y018830D01*
X016848Y018830D01*
X016848Y018917D01*
X016891Y019021D01*
X016971Y019101D01*
X017076Y019145D01*
X017190Y019145D01*
X017294Y019101D01*
X017337Y019059D01*
X017337Y019316D01*
X017425Y019404D01*
X018179Y019404D01*
X018267Y019316D01*
X018267Y019019D01*
X018271Y019023D01*
X018375Y019066D01*
X018489Y019066D01*
X018594Y019023D01*
X018674Y018943D01*
X018717Y018838D01*
X018717Y018724D01*
X018674Y018620D01*
X018594Y018539D01*
X018489Y018496D01*
X018375Y018496D01*
X018271Y018539D01*
X018209Y018601D01*
X018195Y018601D01*
X018267Y018528D01*
X018267Y017090D01*
X018271Y017094D01*
X018375Y017137D01*
X018489Y017137D01*
X018594Y017094D01*
X018674Y017013D01*
X018717Y016909D01*
X018717Y016795D01*
X018674Y016691D01*
X018594Y016610D01*
X018489Y016567D01*
X018375Y016567D01*
X018271Y016610D01*
X018267Y016614D01*
X018267Y016501D01*
X018751Y016501D01*
X018902Y016350D01*
X018961Y016350D01*
X019066Y016306D01*
X019146Y016226D01*
X019190Y016121D01*
X019190Y016008D01*
X019146Y015903D01*
X019066Y015823D01*
X018961Y015780D01*
X018848Y015780D01*
X018743Y015823D01*
X018682Y015884D01*
X018674Y015864D01*
X018594Y015784D01*
X018489Y015740D01*
X018375Y015740D01*
X018271Y015784D01*
X018209Y015845D01*
X018195Y015845D01*
X018267Y015772D01*
X018267Y014939D01*
X018191Y014864D01*
X018267Y014788D01*
X018267Y013744D01*
X018271Y013747D01*
X018375Y013791D01*
X018489Y013791D01*
X018594Y013747D01*
X018674Y013667D01*
X018717Y013562D01*
X018717Y013449D01*
X018674Y013344D01*
X018594Y013264D01*
X018489Y013221D01*
X018375Y013221D01*
X018271Y013264D01*
X018267Y013267D01*
X018267Y013075D01*
X018448Y013075D01*
X018664Y012859D01*
X018770Y012753D01*
X018770Y012229D01*
X018900Y012229D01*
X019006Y012123D01*
X019088Y012041D01*
X019439Y012041D01*
X019515Y011966D01*
X019590Y012041D01*
X020871Y012041D01*
X020868Y012045D01*
X020824Y012150D01*
X020824Y012263D01*
X020868Y012368D01*
X020948Y012448D01*
X021053Y012491D01*
X021166Y012491D01*
X021271Y012448D01*
X021351Y012368D01*
X021394Y012263D01*
X021394Y012204D01*
X021486Y012112D01*
X021486Y012041D01*
X021659Y012041D01*
X021655Y012045D01*
X021612Y012150D01*
X021612Y012263D01*
X021655Y012368D01*
X021735Y012448D01*
X021840Y012491D01*
X021953Y012491D01*
X022058Y012448D01*
X022138Y012368D01*
X022182Y012263D01*
X022182Y012150D01*
X022138Y012045D01*
X022135Y012041D01*
X022208Y012041D01*
X022208Y012476D01*
X022167Y012517D01*
X022123Y012622D01*
X022123Y012735D01*
X022167Y012840D01*
X022247Y012920D01*
X022352Y012964D01*
X022465Y012964D01*
X022570Y012920D01*
X022650Y012840D01*
X022693Y012735D01*
X022693Y012622D01*
X022650Y012517D01*
X022622Y012489D01*
X022627Y012491D01*
X022741Y012491D01*
X022845Y012448D01*
X022926Y012368D01*
X022969Y012263D01*
X022969Y012150D01*
X022926Y012045D01*
X022864Y011984D01*
X022864Y011969D01*
X022937Y012041D01*
X023588Y012041D01*
X023584Y012045D01*
X023541Y012150D01*
X023541Y012263D01*
X023584Y012368D01*
X023664Y012448D01*
X023769Y012491D01*
X023882Y012491D01*
X023987Y012448D01*
X024067Y012368D01*
X024111Y012263D01*
X024111Y012150D01*
X024067Y012045D01*
X024045Y012023D01*
X024045Y011969D01*
X024118Y012041D01*
X025738Y012041D01*
X025826Y011953D01*
X025826Y011756D01*
X025928Y011756D01*
X025978Y011707D01*
X026112Y011707D01*
X026200Y011619D01*
X026200Y011337D01*
X026164Y011301D01*
X026200Y011264D01*
X026200Y010983D01*
X026197Y010980D01*
X026237Y010885D01*
X026237Y010772D01*
X026193Y010667D01*
X026113Y010587D01*
X026008Y010543D01*
X025895Y010543D01*
X025790Y010587D01*
X025710Y010667D01*
X025667Y010772D01*
X025667Y010885D01*
X025706Y010980D01*
X025703Y010983D01*
X025703Y011111D01*
X025569Y011111D01*
X025620Y011060D01*
X025620Y010264D01*
X025682Y010202D01*
X025725Y010098D01*
X025725Y009984D01*
X025682Y009880D01*
X025630Y009828D01*
X025630Y009730D01*
X025570Y009671D01*
X025570Y009526D01*
X025534Y009490D01*
X025556Y009468D01*
X025598Y009463D01*
X025670Y009463D01*
X025679Y009455D01*
X025691Y009454D01*
X025736Y009397D01*
X025788Y009346D01*
X025788Y009342D01*
X025812Y009342D01*
X025916Y009298D01*
X025997Y009218D01*
X026040Y009113D01*
X026040Y009000D01*
X025997Y008895D01*
X025916Y008815D01*
X025812Y008772D01*
X025726Y008772D01*
X025764Y008680D01*
X025764Y008567D01*
X025721Y008462D01*
X025718Y008460D01*
X025718Y008420D01*
X025747Y008390D01*
X028068Y008390D01*
X028068Y008370D02*
X028112Y008265D01*
X028192Y008185D01*
X028297Y008142D01*
X028410Y008142D01*
X028515Y008185D01*
X028567Y008237D01*
X028626Y008178D01*
X028908Y008178D01*
X028995Y008266D01*
X028995Y008587D01*
X033400Y008587D01*
X033400Y008489D02*
X028995Y008489D01*
X028995Y008587D02*
X028927Y008656D01*
X028927Y009172D01*
X028972Y009218D01*
X029058Y009132D01*
X029097Y009093D01*
X030287Y009093D01*
X030404Y009210D01*
X030443Y009249D01*
X030443Y009494D01*
X030326Y009611D01*
X030318Y009619D01*
X030392Y009692D01*
X030401Y009714D01*
X030410Y009692D01*
X030485Y009617D01*
X030583Y009576D01*
X030690Y009576D01*
X030789Y009617D01*
X030864Y009692D01*
X030873Y009714D01*
X030882Y009692D01*
X030957Y009617D01*
X030979Y009608D01*
X030957Y009599D01*
X030882Y009524D01*
X030841Y009425D01*
X030841Y009318D01*
X030882Y009220D01*
X030957Y009144D01*
X031056Y009104D01*
X031163Y009104D01*
X031261Y009144D01*
X031337Y009220D01*
X031377Y009318D01*
X031377Y009425D01*
X031337Y009524D01*
X031261Y009599D01*
X031240Y009608D01*
X031261Y009617D01*
X031337Y009692D01*
X031345Y009714D01*
X031354Y009692D01*
X031430Y009617D01*
X031528Y009576D01*
X031635Y009576D01*
X031734Y009617D01*
X031809Y009692D01*
X031850Y009791D01*
X031850Y009897D01*
X031809Y009996D01*
X031734Y010071D01*
X031635Y010112D01*
X031528Y010112D01*
X031430Y010071D01*
X031354Y009996D01*
X031345Y009974D01*
X031337Y009996D01*
X031261Y010071D01*
X031163Y010112D01*
X031056Y010112D01*
X030957Y010071D01*
X030882Y009996D01*
X030873Y009974D01*
X030864Y009996D01*
X030789Y010071D01*
X030767Y010080D01*
X030789Y010089D01*
X030864Y010165D01*
X030905Y010263D01*
X030905Y010370D01*
X030864Y010468D01*
X030789Y010544D01*
X030690Y010585D01*
X030583Y010585D01*
X030485Y010544D01*
X030410Y010468D01*
X030401Y010447D01*
X030392Y010468D01*
X030316Y010544D01*
X030295Y010553D01*
X030316Y010562D01*
X030392Y010637D01*
X030432Y010736D01*
X030432Y010842D01*
X030392Y010941D01*
X030316Y011016D01*
X030295Y011025D01*
X030316Y011034D01*
X030392Y011110D01*
X030401Y011131D01*
X030410Y011110D01*
X030485Y011034D01*
X030583Y010993D01*
X030690Y010993D01*
X030789Y011034D01*
X030864Y011110D01*
X030905Y011208D01*
X030905Y011315D01*
X030864Y011413D01*
X030789Y011489D01*
X030767Y011498D01*
X030789Y011507D01*
X030864Y011582D01*
X030873Y011604D01*
X030882Y011582D01*
X030957Y011507D01*
X031056Y011466D01*
X031163Y011466D01*
X031261Y011507D01*
X031337Y011582D01*
X031377Y011681D01*
X031377Y011787D01*
X031337Y011886D01*
X031289Y011933D01*
X031289Y012163D01*
X031184Y012268D01*
X029196Y014256D01*
X027007Y014256D01*
X027007Y014428D01*
X027933Y014428D01*
X027995Y014366D01*
X028100Y014323D01*
X028213Y014323D01*
X028318Y014366D01*
X028398Y014446D01*
X028441Y014551D01*
X028441Y014635D01*
X028711Y014635D01*
X028799Y014723D01*
X028799Y015005D01*
X028711Y015093D01*
X028437Y015093D01*
X028441Y015102D01*
X028441Y015216D01*
X028398Y015320D01*
X028318Y015401D01*
X028236Y015435D01*
X028318Y015469D01*
X028398Y015549D01*
X028441Y015654D01*
X028441Y015767D01*
X028398Y015872D01*
X028318Y015952D01*
X028213Y015995D01*
X028100Y015995D01*
X027995Y015952D01*
X027933Y015890D01*
X027007Y015890D01*
X027007Y016633D01*
X027618Y016633D01*
X027680Y016571D01*
X027785Y016528D01*
X027898Y016528D01*
X028003Y016571D01*
X028035Y016603D01*
X028428Y016603D01*
X028487Y016663D01*
X028671Y016663D01*
X028708Y016699D01*
X028744Y016663D01*
X029036Y016663D01*
X029057Y016612D01*
X029137Y016532D01*
X029242Y016488D01*
X029355Y016488D01*
X029460Y016532D01*
X029502Y016574D01*
X029719Y016574D01*
X029719Y016436D01*
X029795Y016360D01*
X029719Y016284D01*
X029719Y015845D01*
X029795Y015769D01*
X029719Y015694D01*
X029719Y015556D01*
X029626Y015556D01*
X029616Y015565D01*
X029335Y015565D01*
X029301Y015531D01*
X029301Y015835D01*
X029308Y015850D01*
X029308Y015964D01*
X029264Y016069D01*
X029184Y016149D01*
X029079Y016192D01*
X028966Y016192D01*
X028861Y016149D01*
X028781Y016069D01*
X028738Y015964D01*
X028738Y015850D01*
X028781Y015746D01*
X028861Y015665D01*
X028941Y015632D01*
X028941Y015526D01*
X028892Y015477D01*
X028892Y015156D01*
X028980Y015068D01*
X029262Y015068D01*
X029298Y015104D01*
X029335Y015068D01*
X029616Y015068D01*
X029704Y015156D01*
X029704Y015196D01*
X029778Y015196D01*
X029807Y015167D01*
X030679Y015167D01*
X030767Y015254D01*
X030767Y015392D01*
X030867Y015392D01*
X030908Y015351D01*
X031013Y015307D01*
X031127Y015307D01*
X031231Y015351D01*
X031311Y015431D01*
X031355Y015535D01*
X031355Y015649D01*
X031311Y015754D01*
X031255Y015810D01*
X031328Y015780D01*
X031442Y015780D01*
X031546Y015823D01*
X031626Y015903D01*
X031670Y016008D01*
X031670Y016067D01*
X032294Y016690D01*
X032294Y017840D01*
X032176Y017957D01*
X031585Y018549D01*
X031585Y020035D01*
X031626Y020076D01*
X031670Y020181D01*
X031670Y020294D01*
X031626Y020399D01*
X031546Y020479D01*
X031442Y020523D01*
X031328Y020523D01*
X031223Y020479D01*
X031143Y020399D01*
X031100Y020294D01*
X031100Y020181D01*
X031143Y020076D01*
X031185Y020035D01*
X031185Y018383D01*
X031894Y017675D01*
X031894Y017494D01*
X031861Y017527D01*
X031756Y017570D01*
X031670Y017570D01*
X031670Y017578D01*
X031626Y017683D01*
X031546Y017763D01*
X031442Y017806D01*
X031328Y017806D01*
X031223Y017763D01*
X031162Y017701D01*
X031035Y017701D01*
X030838Y017504D01*
X030767Y017434D01*
X030767Y017465D01*
X030691Y017541D01*
X030767Y017617D01*
X030767Y018056D01*
X030691Y018131D01*
X030767Y018207D01*
X030767Y018646D01*
X030691Y018722D01*
X030767Y018798D01*
X030767Y019040D01*
X030679Y019128D01*
X029807Y019128D01*
X029778Y019099D01*
X029738Y019099D01*
X029735Y019101D01*
X029631Y019145D01*
X029517Y019145D01*
X029426Y019107D01*
X029426Y019192D01*
X029382Y019297D01*
X029302Y019377D01*
X029197Y019420D01*
X029084Y019420D01*
X028979Y019377D01*
X028899Y019297D01*
X028856Y019192D01*
X028856Y019133D01*
X028734Y019012D01*
X028734Y018941D01*
X028708Y018914D01*
X028671Y018951D01*
X028487Y018951D01*
X028428Y019010D01*
X028370Y019010D01*
X028318Y019062D01*
X028213Y019105D01*
X028100Y019105D01*
X027995Y019062D01*
X027933Y019000D01*
X027007Y019000D01*
X027007Y019513D01*
X026919Y019600D01*
X026165Y019600D01*
X026156Y019591D01*
X026096Y019591D01*
X026074Y019613D01*
X025969Y019657D01*
X025856Y019657D01*
X025751Y019613D01*
X025671Y019533D01*
X025627Y019428D01*
X025627Y019315D01*
X025671Y019210D01*
X025751Y019130D01*
X025856Y019087D01*
X025969Y019087D01*
X026074Y019130D01*
X026077Y019134D01*
X026077Y018625D01*
X026074Y018629D01*
X025969Y018672D01*
X025856Y018672D01*
X025751Y018629D01*
X025671Y018549D01*
X025627Y018444D01*
X025627Y018331D01*
X025671Y018226D01*
X025751Y018146D01*
X025856Y018102D01*
X025969Y018102D01*
X026074Y018146D01*
X026077Y018149D01*
X026077Y018017D01*
X025623Y018017D01*
X025601Y018038D01*
X025497Y018082D01*
X025383Y018082D01*
X025279Y018038D01*
X025198Y017958D01*
X025155Y017854D01*
X025155Y017740D01*
X025198Y017635D01*
X025279Y017555D01*
X025383Y017512D01*
X025497Y017512D01*
X025601Y017555D01*
X025663Y017617D01*
X026077Y017617D01*
X026077Y017302D01*
X026153Y017226D01*
X026077Y017150D01*
X026077Y016539D01*
X026074Y016542D01*
X025969Y016586D01*
X025856Y016586D01*
X025751Y016542D01*
X025671Y016462D01*
X025627Y016357D01*
X025627Y016245D01*
X025623Y016245D01*
X025601Y016267D01*
X025497Y016310D01*
X025383Y016310D01*
X025279Y016267D01*
X025198Y016187D01*
X025155Y016082D01*
X025155Y015969D01*
X025198Y015864D01*
X025279Y015784D01*
X025383Y015740D01*
X025497Y015740D01*
X025601Y015784D01*
X025627Y015810D01*
X025627Y015732D01*
X025671Y015628D01*
X025751Y015547D01*
X025856Y015504D01*
X025969Y015504D01*
X026074Y015547D01*
X026077Y015551D01*
X026077Y014939D01*
X026153Y014864D01*
X026077Y014788D01*
X026077Y013350D01*
X026074Y013353D01*
X025969Y013397D01*
X025856Y013397D01*
X025751Y013353D01*
X025671Y013273D01*
X025627Y013169D01*
X025627Y013055D01*
X025671Y012950D01*
X025751Y012870D01*
X025856Y012827D01*
X025969Y012827D01*
X026074Y012870D01*
X026096Y012892D01*
X026150Y012892D01*
X026077Y012820D01*
X026077Y012380D01*
X026165Y012293D01*
X026880Y012293D01*
X026932Y012240D01*
X027037Y012197D01*
X027150Y012197D01*
X027255Y012240D01*
X027335Y012320D01*
X027379Y012425D01*
X027379Y012539D01*
X027335Y012643D01*
X027255Y012724D01*
X027150Y012767D01*
X027037Y012767D01*
X027007Y012755D01*
X027007Y012820D01*
X026932Y012895D01*
X027007Y012971D01*
X027007Y013109D01*
X028732Y013109D01*
X028986Y012854D01*
X028983Y012852D01*
X028947Y012888D01*
X028665Y012888D01*
X028662Y012885D01*
X028568Y012924D01*
X028454Y012924D01*
X028349Y012881D01*
X028269Y012801D01*
X028226Y012696D01*
X028226Y012583D01*
X028269Y012478D01*
X028349Y012398D01*
X028454Y012354D01*
X028568Y012354D01*
X028662Y012394D01*
X028665Y012391D01*
X028947Y012391D01*
X028983Y012427D01*
X029020Y012391D01*
X029039Y012391D01*
X029039Y011933D01*
X028992Y011886D01*
X028983Y011864D01*
X028974Y011886D01*
X028899Y011961D01*
X028800Y012002D01*
X028694Y012002D01*
X028595Y011961D01*
X028520Y011886D01*
X028511Y011864D01*
X028502Y011886D01*
X028426Y011961D01*
X028328Y012002D01*
X028221Y012002D01*
X028123Y011961D01*
X028047Y011886D01*
X028006Y011787D01*
X028006Y011681D01*
X028008Y011678D01*
X027283Y011678D01*
X027283Y011914D01*
X027195Y012002D01*
X026677Y012002D01*
X026589Y011914D01*
X026589Y011396D01*
X026606Y011380D01*
X026589Y011363D01*
X026589Y010845D01*
X026677Y010757D01*
X027195Y010757D01*
X027283Y010845D01*
X027283Y011081D01*
X027603Y011081D01*
X027650Y011034D01*
X027672Y011025D01*
X027650Y011016D01*
X027575Y010941D01*
X027534Y010842D01*
X027534Y010736D01*
X027575Y010637D01*
X027650Y010562D01*
X027672Y010553D01*
X027650Y010544D01*
X027575Y010468D01*
X027534Y010370D01*
X027534Y010263D01*
X027575Y010165D01*
X027650Y010089D01*
X027672Y010080D01*
X027650Y010071D01*
X027575Y009996D01*
X027534Y009897D01*
X027534Y009791D01*
X027575Y009692D01*
X027650Y009617D01*
X027749Y009576D01*
X027855Y009576D01*
X027954Y009617D01*
X028029Y009692D01*
X028038Y009714D01*
X028047Y009692D01*
X028123Y009617D01*
X028144Y009608D01*
X028123Y009599D01*
X028047Y009524D01*
X028006Y009425D01*
X028006Y009318D01*
X028047Y009220D01*
X028123Y009144D01*
X028221Y009104D01*
X028328Y009104D01*
X028426Y009144D01*
X028502Y009220D01*
X028511Y009241D01*
X028520Y009220D01*
X028567Y009172D01*
X028567Y008616D01*
X028515Y008668D01*
X028410Y008712D01*
X028297Y008712D01*
X028192Y008668D01*
X028112Y008588D01*
X028068Y008483D01*
X028068Y008370D01*
X028101Y008292D02*
X025747Y008292D01*
X025747Y008390D02*
X025747Y007518D01*
X025660Y007430D01*
X025417Y007430D01*
X025342Y007506D01*
X025266Y007430D01*
X024827Y007430D01*
X024751Y007506D01*
X024675Y007430D01*
X024236Y007430D01*
X024160Y007506D01*
X024085Y007430D01*
X024053Y007430D01*
X024215Y007268D01*
X024321Y007163D01*
X024321Y007036D01*
X024382Y006974D01*
X024426Y006869D01*
X024426Y006756D01*
X024382Y006651D01*
X024302Y006571D01*
X024197Y006528D01*
X024190Y006528D01*
X024190Y006441D01*
X024146Y006336D01*
X024066Y006256D01*
X023961Y006213D01*
X023848Y006213D01*
X023743Y006256D01*
X023663Y006336D01*
X023620Y006441D01*
X023620Y006528D01*
X023572Y006528D01*
X023467Y006571D01*
X023387Y006651D01*
X023346Y006751D01*
X023121Y006751D01*
X023050Y006748D01*
X023047Y006751D01*
X023043Y006751D01*
X022992Y006801D01*
X022969Y006822D01*
X022969Y006756D01*
X022926Y006651D01*
X022845Y006571D01*
X022741Y006528D01*
X022627Y006528D01*
X022523Y006571D01*
X022481Y006613D01*
X017690Y006613D01*
X017649Y006571D01*
X017544Y006528D01*
X017431Y006528D01*
X017326Y006571D01*
X017246Y006651D01*
X017202Y006756D01*
X017202Y006869D01*
X017246Y006974D01*
X017326Y007054D01*
X017431Y007098D01*
X017544Y007098D01*
X017649Y007054D01*
X017690Y007013D01*
X021911Y007013D01*
X021887Y007071D01*
X021887Y007184D01*
X021931Y007289D01*
X022011Y007369D01*
X022012Y007370D01*
X022012Y007430D01*
X021874Y007430D01*
X021786Y007518D01*
X021786Y008390D01*
X017972Y008390D01*
X017963Y008412D02*
X018782Y009231D01*
X019333Y009231D01*
X020876Y010773D01*
X020876Y011111D01*
X020965Y011111D01*
X021047Y011029D01*
X021047Y010264D01*
X020986Y010202D01*
X020942Y010098D01*
X020942Y009984D01*
X020986Y009880D01*
X021066Y009799D01*
X021171Y009756D01*
X021255Y009756D01*
X021255Y009487D01*
X021342Y009399D01*
X021624Y009399D01*
X021712Y009487D01*
X021712Y009760D01*
X021722Y009756D01*
X021835Y009756D01*
X021940Y009799D01*
X022020Y009880D01*
X022054Y009962D01*
X022088Y009880D01*
X022168Y009799D01*
X022273Y009756D01*
X022386Y009756D01*
X022491Y009799D01*
X022571Y009880D01*
X022615Y009984D01*
X022615Y010098D01*
X022571Y010202D01*
X022510Y010264D01*
X022510Y011111D01*
X022786Y011111D01*
X022861Y011187D01*
X022937Y011111D01*
X023252Y011111D01*
X023252Y010579D01*
X023190Y010517D01*
X023147Y010413D01*
X023147Y010299D01*
X023190Y010194D01*
X023223Y010162D01*
X023223Y009770D01*
X023282Y009710D01*
X023282Y009526D01*
X023318Y009490D01*
X023282Y009453D01*
X023282Y009162D01*
X023231Y009141D01*
X023151Y009061D01*
X023108Y008956D01*
X023108Y008843D01*
X023151Y008738D01*
X023193Y008696D01*
X023193Y008478D01*
X023055Y008478D01*
X022979Y008403D01*
X022904Y008478D01*
X022464Y008478D01*
X022389Y008403D01*
X022313Y008478D01*
X022175Y008478D01*
X022175Y008572D01*
X022184Y008581D01*
X022184Y008863D01*
X022151Y008896D01*
X022363Y008896D01*
X022365Y008894D01*
X022470Y008850D01*
X022583Y008850D01*
X022688Y008894D01*
X022768Y008974D01*
X022812Y009079D01*
X022812Y009192D01*
X022768Y009297D01*
X022688Y009377D01*
X022583Y009420D01*
X022470Y009420D01*
X022365Y009377D01*
X022285Y009297D01*
X022268Y009256D01*
X022145Y009256D01*
X022097Y009305D01*
X021775Y009305D01*
X021688Y009217D01*
X021688Y008936D01*
X021724Y008899D01*
X021688Y008863D01*
X021688Y008581D01*
X021775Y008493D01*
X021815Y008493D01*
X021815Y008420D01*
X021786Y008390D01*
X021786Y008292D02*
X017996Y008292D01*
X017996Y008331D02*
X017996Y008152D01*
X017928Y007987D01*
X017801Y007860D01*
X017636Y007792D01*
X017457Y007792D01*
X017291Y007860D01*
X017165Y007987D01*
X017096Y008152D01*
X017096Y008331D01*
X017165Y008497D01*
X017291Y008623D01*
X017457Y008692D01*
X017636Y008692D01*
X017705Y008663D01*
X017834Y008792D01*
X017234Y008792D01*
X017234Y008675D01*
X017129Y008570D01*
X017129Y008570D01*
X016965Y008406D01*
X016996Y008331D01*
X016996Y008152D01*
X016928Y007987D01*
X016801Y007860D01*
X016636Y007792D01*
X016457Y007792D01*
X016291Y007860D01*
X016165Y007987D01*
X016096Y008152D01*
X016096Y008331D01*
X016165Y008497D01*
X016291Y008623D01*
X016457Y008692D01*
X016636Y008692D01*
X016711Y008661D01*
X016874Y008824D01*
X016874Y008933D01*
X016801Y008860D01*
X016636Y008792D01*
X016457Y008792D01*
X016291Y008860D01*
X016250Y008902D01*
X016250Y008691D01*
X015965Y008406D01*
X015996Y008331D01*
X015996Y008152D01*
X015928Y007987D01*
X015801Y007860D01*
X015636Y007792D01*
X015457Y007792D01*
X015291Y007860D01*
X015165Y007987D01*
X015096Y008152D01*
X015096Y008331D01*
X015165Y008497D01*
X015291Y008623D01*
X015457Y008692D01*
X015636Y008692D01*
X015711Y008661D01*
X015890Y008840D01*
X015890Y008949D01*
X015801Y008860D01*
X015636Y008792D01*
X015457Y008792D01*
X015291Y008860D01*
X015226Y008925D01*
X015226Y008667D01*
X015121Y008562D01*
X014965Y008406D01*
X014996Y008331D01*
X014996Y008152D01*
X014928Y007987D01*
X014801Y007860D01*
X014636Y007792D01*
X014547Y007792D01*
X015241Y007098D01*
X015300Y007098D01*
X015405Y007054D01*
X015485Y006974D01*
X015528Y006869D01*
X015528Y006756D01*
X015485Y006651D01*
X015405Y006571D01*
X015300Y006528D01*
X015186Y006528D01*
X015082Y006571D01*
X015001Y006651D01*
X014958Y006756D01*
X014958Y006815D01*
X013979Y007794D01*
X013862Y007911D01*
X013862Y010097D01*
X013764Y010000D01*
X013610Y009936D01*
X013443Y009936D01*
X013289Y010000D01*
X013171Y010118D01*
X013107Y010272D01*
X013107Y010439D01*
X013171Y010594D01*
X013289Y010712D01*
X013297Y010715D01*
X013297Y010716D01*
X012754Y010716D01*
X012764Y010712D01*
X012883Y010594D01*
X012947Y010439D01*
X012947Y010272D01*
X012883Y010118D01*
X012764Y010000D01*
X012757Y009997D01*
X012757Y009642D01*
X012801Y009623D01*
X012928Y009497D01*
X012996Y009331D01*
X012996Y009152D01*
X012928Y008987D01*
X012801Y008860D01*
X012776Y008850D01*
X012776Y008634D01*
X012801Y008623D01*
X012928Y008497D01*
X012996Y008331D01*
X012996Y008152D01*
X012928Y007987D01*
X012801Y007860D01*
X012636Y007792D01*
X012457Y007792D01*
X012291Y007860D01*
X012165Y007987D01*
X012096Y008152D01*
X012096Y008331D01*
X012165Y008497D01*
X012291Y008623D01*
X012316Y008634D01*
X012316Y008850D01*
X012291Y008860D01*
X012165Y008987D01*
X012096Y009152D01*
X012096Y009331D01*
X012165Y009497D01*
X012291Y009623D01*
X012297Y009625D01*
X012297Y009997D01*
X012289Y010000D01*
X012171Y010118D01*
X012107Y010272D01*
X012107Y010439D01*
X012171Y010594D01*
X012289Y010712D01*
X012300Y010716D01*
X011918Y010716D01*
X011947Y010688D01*
X011947Y010024D01*
X011859Y009936D01*
X011194Y009936D01*
X011107Y010024D01*
X011107Y010688D01*
X011135Y010716D01*
X005212Y010716D01*
X004943Y010447D01*
X004947Y010439D01*
X004947Y010272D01*
X004883Y010118D01*
X004764Y010000D01*
X004610Y009936D01*
X004443Y009936D01*
X004289Y010000D01*
X004171Y010118D01*
X004107Y010272D01*
X004107Y010439D01*
X004171Y010594D01*
X004289Y010712D01*
X004443Y010776D01*
X004610Y010776D01*
X004618Y010773D01*
X005022Y011176D01*
X013889Y011176D01*
X013901Y011188D01*
X014005Y011231D01*
X014119Y011231D01*
X014223Y011188D01*
X014304Y011108D01*
X014347Y011003D01*
X014347Y010890D01*
X014304Y010785D01*
X014262Y010743D01*
X014262Y009594D01*
X014291Y009623D01*
X014457Y009692D01*
X014636Y009692D01*
X014694Y009668D01*
X015720Y010693D01*
X018358Y010693D01*
X018776Y011111D01*
X018606Y011111D01*
X018518Y011199D01*
X018518Y011396D01*
X006783Y011396D01*
X005956Y012223D01*
X004669Y012223D01*
X004396Y012496D01*
X004321Y012465D01*
X004142Y012465D01*
X003976Y012533D01*
X003850Y012660D01*
X003781Y012825D01*
X003781Y013004D01*
X003850Y013170D01*
X003976Y013296D01*
X004142Y013365D01*
X004321Y013365D01*
X004396Y013334D01*
X004669Y013607D01*
X005444Y013607D01*
X005602Y013764D01*
X006350Y013764D01*
X006813Y014228D01*
X006736Y014228D01*
X006648Y014315D01*
X006648Y014546D01*
X006730Y014628D01*
X006713Y014644D01*
X006476Y014644D01*
X006476Y014605D01*
X006388Y014517D01*
X006106Y014517D01*
X006070Y014553D01*
X006034Y014517D01*
X005752Y014517D01*
X005749Y014520D01*
X005654Y014480D01*
X005541Y014480D01*
X005436Y014524D01*
X005356Y014604D01*
X005312Y014709D01*
X005312Y014822D01*
X005356Y014927D01*
X005436Y015007D01*
X005541Y015050D01*
X005654Y015050D01*
X005749Y015011D01*
X005752Y015014D01*
X006034Y015014D01*
X006070Y014977D01*
X006074Y014982D01*
X006018Y015038D01*
X006018Y015359D01*
X006106Y015447D01*
X006388Y015447D01*
X006417Y015418D01*
X006733Y015418D01*
X006736Y015421D01*
X007189Y015421D01*
X007189Y015606D01*
X006839Y015606D01*
X006821Y015588D01*
X006704Y015471D01*
X004980Y015471D01*
X004931Y015422D01*
X004610Y015422D01*
X004581Y015451D01*
X004566Y015451D01*
X004518Y015403D01*
X004079Y015403D01*
X004030Y015451D01*
X004021Y015451D01*
X004035Y015438D01*
X004035Y015156D01*
X004015Y015136D01*
X004028Y015124D01*
X004071Y015019D01*
X004071Y014906D01*
X004028Y014801D01*
X003948Y014721D01*
X003843Y014677D01*
X003730Y014677D01*
X003625Y014721D01*
X003545Y014801D01*
X003501Y014906D01*
X003501Y015019D01*
X003545Y015124D01*
X003558Y015136D01*
X003538Y015156D01*
X003538Y015438D01*
X003574Y015474D01*
X003538Y015510D01*
X003538Y015792D01*
X003571Y015826D01*
X002932Y015826D01*
X002932Y015589D01*
X002845Y015501D01*
X002189Y015501D01*
X002101Y015589D01*
X002101Y016639D01*
X002105Y016643D01*
X002090Y016643D01*
X002003Y016731D01*
X002003Y017682D01*
X002090Y017770D01*
X002845Y017770D01*
X002848Y017767D01*
X002848Y018766D01*
X002836Y018777D01*
X002793Y018882D01*
X002793Y018995D01*
X002836Y019100D01*
X002916Y019180D01*
X003021Y019224D01*
X003134Y019224D01*
X003239Y019180D01*
X003319Y019100D01*
X003363Y018995D01*
X003363Y018882D01*
X003319Y018777D01*
X003308Y018766D01*
X003308Y016599D01*
X003173Y016464D01*
X003091Y016382D01*
X005979Y016382D01*
X005979Y016619D01*
X006067Y016707D01*
X006326Y016707D01*
X006323Y016710D01*
X006302Y016731D01*
X005838Y016731D01*
X005582Y016475D01*
X004960Y016475D01*
X004931Y016446D01*
X004610Y016446D01*
X004581Y016475D01*
X004566Y016475D01*
X004518Y016426D01*
X004079Y016426D01*
X004030Y016475D01*
X003976Y016475D01*
X003947Y016446D01*
X003626Y016446D01*
X003538Y016534D01*
X003538Y016816D01*
X003574Y016852D01*
X003538Y016888D01*
X003538Y017170D01*
X003541Y017173D01*
X003501Y017268D01*
X003501Y017381D01*
X003545Y017486D01*
X003625Y017566D01*
X003730Y017609D01*
X003843Y017609D01*
X003948Y017566D01*
X004028Y017486D01*
X004071Y017381D01*
X004071Y017268D01*
X004032Y017173D01*
X004035Y017170D01*
X004035Y016888D01*
X004021Y016875D01*
X004030Y016875D01*
X004079Y016923D01*
X004518Y016923D01*
X004566Y016875D01*
X004581Y016875D01*
X004610Y016904D01*
X004931Y016904D01*
X004960Y016875D01*
X005416Y016875D01*
X005555Y017014D01*
X005672Y017131D01*
X006245Y017131D01*
X006232Y017144D01*
X005444Y017144D01*
X005339Y017250D01*
X005198Y017391D01*
X004905Y017391D01*
X004818Y017479D01*
X004818Y017592D01*
X004774Y017548D01*
X004453Y017548D01*
X004365Y017636D01*
X004365Y017918D01*
X004453Y018006D01*
X004774Y018006D01*
X004820Y017960D01*
X004905Y018045D01*
X005423Y018045D01*
X005511Y017957D01*
X005511Y017586D01*
X005593Y017504D01*
X006381Y017504D01*
X006441Y017444D01*
X006441Y017722D01*
X006103Y018060D01*
X005772Y018060D01*
X005684Y018148D01*
X005684Y018627D01*
X005769Y018712D01*
X005743Y018739D01*
X005743Y019060D01*
X005831Y019148D01*
X006112Y019148D01*
X006200Y019060D01*
X006200Y018739D01*
X006176Y018715D01*
X006289Y018715D01*
X006377Y018627D01*
X006377Y018295D01*
X006801Y017871D01*
X006801Y017399D01*
X006810Y017390D01*
X007189Y017390D01*
X007189Y017517D01*
X007295Y017623D01*
X007295Y017623D01*
X007619Y017947D01*
X007619Y018069D01*
X007617Y018069D01*
X007569Y018021D01*
X007287Y018021D01*
X007199Y018109D01*
X007199Y018430D01*
X007287Y018518D01*
X007569Y018518D01*
X007617Y018469D01*
X007619Y018469D01*
X007707Y018557D01*
X007839Y018557D01*
X007839Y019002D01*
X007465Y019376D01*
X007465Y019438D01*
X007398Y019372D01*
X006774Y019372D01*
X006722Y019424D01*
X006704Y019406D01*
X006599Y019362D01*
X006486Y019362D01*
X006381Y019406D01*
X006319Y019467D01*
X006251Y019467D01*
X006044Y019674D01*
X005909Y019674D01*
X005893Y019691D01*
X005876Y019674D01*
X005555Y019674D01*
X005552Y019677D01*
X005457Y019638D01*
X005344Y019638D01*
X005239Y019681D01*
X005159Y019761D01*
X005116Y019866D01*
X005116Y019980D01*
X005159Y020084D01*
X005239Y020164D01*
X005344Y020208D01*
X005457Y020208D01*
X005467Y020204D01*
X005467Y020398D01*
X005555Y020486D01*
X005876Y020486D01*
X005893Y020470D01*
X005909Y020486D01*
X006044Y020486D01*
X006109Y020552D01*
X006694Y020552D01*
X006774Y020632D01*
X007398Y020632D01*
X007486Y020544D01*
X007486Y020199D01*
X007398Y020112D01*
X007646Y020112D01*
X007646Y020100D02*
X007622Y020076D01*
X007465Y019919D01*
X007465Y019825D01*
X007398Y019892D01*
X006774Y019892D01*
X006737Y019855D01*
X006704Y019889D01*
X006599Y019932D01*
X006486Y019932D01*
X006381Y019889D01*
X006360Y019868D01*
X006318Y019909D01*
X006318Y020044D01*
X006282Y020080D01*
X006318Y020117D01*
X006318Y020192D01*
X006694Y020192D01*
X006774Y020112D01*
X006313Y020112D01*
X006318Y020013D02*
X007559Y020013D01*
X007622Y020076D02*
X007622Y020076D01*
X007646Y020100D02*
X007646Y020174D01*
X007659Y020187D01*
X007646Y020199D01*
X007646Y020544D01*
X007734Y020632D01*
X008305Y020632D01*
X008305Y020728D01*
X008348Y020832D01*
X008428Y020912D01*
X008533Y020956D01*
X008646Y020956D01*
X008751Y020912D01*
X008831Y020832D01*
X008875Y020728D01*
X008875Y020614D01*
X008835Y020519D01*
X008838Y020516D01*
X008838Y020250D01*
X009104Y020250D01*
X009192Y020162D01*
X009192Y019841D01*
X009176Y019824D01*
X009192Y019808D01*
X009192Y019581D01*
X009281Y019617D01*
X009394Y019617D01*
X009499Y019574D01*
X009532Y019541D01*
X009852Y019541D01*
X009940Y019453D01*
X009940Y019187D01*
X010207Y019187D01*
X010295Y019099D01*
X010295Y018817D01*
X010207Y018730D01*
X009886Y018730D01*
X009869Y018746D01*
X009852Y018730D01*
X009642Y018730D01*
X009662Y018680D01*
X009662Y018567D01*
X009658Y018557D01*
X010299Y018557D01*
X010378Y018479D01*
X010378Y018552D01*
X010329Y018601D01*
X010329Y019040D01*
X010352Y019063D01*
X010312Y019157D01*
X010312Y019271D01*
X010356Y019376D01*
X010436Y019456D01*
X010541Y019499D01*
X010654Y019499D01*
X010759Y019456D01*
X010839Y019376D01*
X010882Y019271D01*
X010882Y019157D01*
X010882Y019225D02*
X013311Y019225D01*
X013311Y019324D02*
X011365Y019324D01*
X011363Y019323D02*
X011468Y019366D01*
X011548Y019446D01*
X011591Y019551D01*
X011591Y019665D01*
X011548Y019769D01*
X011468Y019849D01*
X011386Y019883D01*
X011468Y019917D01*
X011509Y019959D01*
X011609Y019959D01*
X011657Y019911D01*
X011978Y019911D01*
X012066Y019998D01*
X012066Y020265D01*
X012333Y020265D01*
X012391Y020324D01*
X012632Y020324D01*
X012661Y020294D01*
X013321Y020294D01*
X013321Y020097D01*
X013409Y020009D01*
X014384Y020009D01*
X014384Y019611D01*
X014373Y019611D01*
X014256Y019494D01*
X014256Y017557D01*
X014373Y017439D01*
X014491Y017321D01*
X014735Y017321D01*
X014853Y017438D01*
X014971Y017557D01*
X014971Y019376D01*
X015062Y019467D01*
X015436Y019467D01*
X015541Y019573D01*
X015914Y019945D01*
X015949Y019911D01*
X016270Y019911D01*
X016358Y019998D01*
X016358Y020265D01*
X016624Y020265D01*
X016712Y020353D01*
X016712Y020635D01*
X016624Y020722D01*
X016303Y020722D01*
X016286Y020706D01*
X016270Y020722D01*
X016013Y020722D01*
X016075Y020785D01*
X016119Y020890D01*
X016119Y021003D01*
X016075Y021108D01*
X015995Y021188D01*
X015890Y021231D01*
X015777Y021231D01*
X015690Y021195D01*
X015649Y021195D01*
X015620Y021224D01*
X014960Y021224D01*
X014960Y021318D01*
X015127Y021318D01*
X015148Y021297D01*
X016261Y021297D01*
X016263Y021295D01*
X016368Y021252D01*
X016481Y021252D01*
X016586Y021295D01*
X016666Y021376D01*
X016709Y021480D01*
X016709Y021594D01*
X016666Y021698D01*
X016586Y021779D01*
X016481Y021822D01*
X016368Y021822D01*
X016358Y021818D01*
X016358Y022052D01*
X016270Y022140D01*
X016206Y022140D01*
X016205Y022141D01*
X015719Y022141D01*
X015708Y022130D01*
X015708Y022152D01*
X016310Y022754D01*
X016310Y022754D01*
X016427Y022871D01*
X016427Y024680D01*
X016469Y024722D01*
X016512Y024827D01*
X016512Y024940D01*
X016469Y025045D01*
X016389Y025125D01*
X016284Y025168D01*
X016171Y025168D01*
X016066Y025125D01*
X015986Y025045D01*
X015942Y024940D01*
X015942Y024827D01*
X015986Y024722D01*
X016027Y024680D01*
X016027Y023037D01*
X015515Y022524D01*
X015473Y022524D01*
X015473Y022715D01*
X015472Y022716D01*
X015472Y022859D01*
X015384Y022947D01*
X015063Y022947D01*
X014975Y022859D01*
X014975Y022554D01*
X013306Y022554D01*
X013306Y022859D01*
X013219Y022947D01*
X013174Y022947D01*
X013106Y023015D01*
X013120Y023029D01*
X013120Y023187D01*
X013515Y023187D01*
X013632Y023305D01*
X013868Y023541D01*
X013868Y027096D01*
X033400Y027096D01*
X033400Y011687D01*
X032307Y011687D01*
X032219Y011599D01*
X032219Y009506D01*
X032307Y009419D01*
X033400Y009419D01*
X033400Y004797D01*
X001023Y004797D01*
X001023Y013990D01*
X001027Y013985D01*
X001900Y013985D01*
X001988Y014073D01*
X001988Y014906D01*
X001902Y014992D01*
X001988Y015077D01*
X001988Y015950D01*
X001951Y015986D01*
X001988Y016022D01*
X001988Y016894D01*
X001902Y016980D01*
X001988Y017065D01*
X001988Y017898D01*
X001900Y017986D01*
X001027Y017986D01*
X001023Y017982D01*
X001023Y027096D01*
X007642Y027096D01*
X007642Y024927D01*
X007483Y024769D01*
X005593Y024769D01*
X005476Y024651D01*
X004972Y024147D01*
X004959Y024140D01*
X004867Y024047D01*
X004857Y024046D01*
X004832Y024012D01*
X004766Y023947D01*
X004751Y023921D01*
X004750Y023921D01*
X004743Y023907D01*
X004709Y023847D01*
X004679Y023808D01*
X004681Y023798D01*
X004672Y023784D01*
X004665Y023781D01*
X004658Y023759D01*
X004629Y023710D01*
X004618Y023669D01*
X004612Y023658D01*
X001023Y023658D01*
X001023Y023756D02*
X004656Y023756D01*
X004612Y023658D02*
X004614Y023653D01*
X004609Y023633D01*
X004603Y023629D01*
X004594Y023578D01*
X004584Y023542D01*
X004570Y023499D01*
X004572Y023495D01*
X004565Y023470D01*
X004565Y023470D01*
X004565Y023469D01*
X004558Y023445D01*
X004558Y023370D01*
X004553Y023336D01*
X004558Y023328D01*
X004558Y023314D01*
X004552Y023306D01*
X004558Y023265D01*
X004558Y023172D01*
X004566Y023143D01*
X004566Y023143D01*
X004570Y023128D01*
X004588Y023061D01*
X004595Y023012D01*
X004603Y023007D01*
X004607Y022991D01*
X004604Y022983D01*
X004615Y022963D01*
X004629Y022908D01*
X004650Y022871D01*
X004654Y022859D01*
X004659Y022857D01*
X004669Y022839D01*
X004667Y022832D01*
X004697Y022790D01*
X004716Y022757D01*
X004736Y022717D01*
X004740Y022716D01*
X004754Y022692D01*
X004766Y022671D01*
X004820Y022617D01*
X004839Y022590D01*
X004849Y022588D01*
X004859Y022578D01*
X004860Y022568D01*
X004894Y022543D01*
X004959Y022477D01*
X004985Y022463D01*
X004985Y022462D01*
X004999Y022455D01*
X005059Y022420D01*
X005099Y022390D01*
X005108Y022392D01*
X005122Y022384D01*
X005125Y022376D01*
X005147Y022369D01*
X005196Y022340D01*
X005237Y022330D01*
X005248Y022324D01*
X005253Y022325D01*
X005273Y022320D01*
X005277Y022314D01*
X005328Y022305D01*
X005364Y022295D01*
X005407Y022281D01*
X005411Y022283D01*
X005436Y022276D01*
X005437Y022276D01*
X005461Y022270D01*
X005536Y022270D01*
X005570Y022264D01*
X005578Y022270D01*
X005592Y022270D01*
X005600Y022264D01*
X005642Y022270D01*
X005734Y022270D01*
X005763Y022277D01*
X005764Y022277D01*
X005778Y022281D01*
X005845Y022299D01*
X005894Y022307D01*
X005899Y022314D01*
X005915Y022318D01*
X005923Y022316D01*
X005943Y022326D01*
X005998Y022340D01*
X006035Y022361D01*
X006047Y022365D01*
X006050Y022370D01*
X006067Y022380D01*
X006074Y022379D01*
X006116Y022408D01*
X006149Y022427D01*
X006189Y022447D01*
X006191Y022451D01*
X006214Y022465D01*
X006235Y022477D01*
X006289Y022531D01*
X006317Y022550D01*
X006318Y022560D01*
X006429Y022671D01*
X006436Y022683D01*
X006940Y023187D01*
X009607Y023187D01*
X009493Y023074D01*
X009429Y022920D01*
X009429Y022753D01*
X009493Y022598D01*
X009611Y022480D01*
X009766Y022416D01*
X009933Y022416D01*
X010087Y022480D01*
X010205Y022598D01*
X010209Y022606D01*
X010447Y022606D01*
X010447Y022498D01*
X010535Y022411D01*
X011289Y022411D01*
X011377Y022498D01*
X011377Y022598D01*
X011381Y022595D01*
X011486Y022551D01*
X011599Y022551D01*
X011704Y022595D01*
X011715Y022606D01*
X012808Y022606D01*
X012808Y022248D01*
X012661Y022248D01*
X012573Y022160D01*
X012573Y022130D01*
X012563Y022141D01*
X012077Y022141D01*
X012076Y022140D01*
X012012Y022140D01*
X011924Y022052D01*
X011924Y021802D01*
X011875Y021822D01*
X011761Y021822D01*
X011656Y021779D01*
X011576Y021698D01*
X011533Y021594D01*
X011533Y021480D01*
X011576Y021376D01*
X011656Y021295D01*
X011761Y021252D01*
X011875Y021252D01*
X011979Y021295D01*
X011981Y021297D01*
X013134Y021297D01*
X013155Y021318D01*
X013321Y021318D01*
X013321Y021224D01*
X012661Y021224D01*
X012632Y021195D01*
X012600Y021195D01*
X012494Y021090D01*
X012491Y021087D01*
X011135Y021087D01*
X011074Y021149D01*
X010969Y021192D01*
X010856Y021192D01*
X010751Y021149D01*
X010671Y021069D01*
X010627Y020964D01*
X010627Y020850D01*
X010671Y020746D01*
X010682Y020734D01*
X010682Y019906D01*
X010817Y019772D01*
X011021Y019568D01*
X011021Y019551D01*
X011064Y019446D01*
X011145Y019366D01*
X011249Y019323D01*
X011363Y019323D01*
X011247Y019324D02*
X010861Y019324D01*
X010792Y019422D02*
X011089Y019422D01*
X011034Y019521D02*
X009873Y019521D01*
X009940Y019422D02*
X010402Y019422D01*
X010334Y019324D02*
X009940Y019324D01*
X009940Y019225D02*
X010312Y019225D01*
X010325Y019127D02*
X010267Y019127D01*
X010295Y019028D02*
X010329Y019028D01*
X010329Y018930D02*
X010295Y018930D01*
X010295Y018831D02*
X010329Y018831D01*
X010329Y018733D02*
X010210Y018733D01*
X010329Y018634D02*
X009662Y018634D01*
X009856Y018733D02*
X009882Y018733D01*
X009397Y018604D02*
X009377Y018624D01*
X009397Y018604D02*
X009397Y018122D01*
X010381Y018122D02*
X010381Y018486D01*
X010322Y018545D01*
X010321Y018536D02*
X010378Y018536D01*
X010578Y018820D02*
X010578Y018122D01*
X010775Y018122D02*
X010775Y018289D01*
X010794Y018309D01*
X011168Y018309D01*
X011417Y018339D02*
X012534Y018339D01*
X012534Y018240D02*
X011417Y018240D01*
X011417Y018142D02*
X012534Y018142D01*
X012534Y018043D02*
X011371Y018043D01*
X011078Y017846D02*
X012534Y017846D01*
X012534Y017945D02*
X010980Y017945D01*
X011177Y017748D02*
X012580Y017748D01*
X011948Y017452D02*
X013415Y017452D01*
X013428Y017439D02*
X013546Y017321D01*
X013791Y017321D01*
X013908Y017438D01*
X014026Y017557D01*
X014026Y019494D01*
X013909Y019611D01*
X013428Y019611D01*
X013311Y019494D01*
X013311Y017557D01*
X013428Y017439D01*
X013514Y017354D02*
X011948Y017354D01*
X011975Y017324D02*
X011838Y017187D01*
X011513Y017187D01*
X011935Y017255D02*
X014959Y017255D01*
X015057Y017354D02*
X014768Y017354D01*
X014866Y017452D02*
X015156Y017452D01*
X014965Y017551D02*
X017026Y017551D01*
X016321Y017649D02*
X014971Y017649D01*
X014971Y017748D02*
X015100Y017748D01*
X015142Y017706D02*
X015054Y017794D01*
X015054Y018981D01*
X015142Y019069D01*
X015660Y019069D01*
X015747Y018981D01*
X015956Y018981D01*
X016073Y018864D01*
X016152Y018785D01*
X016152Y018541D01*
X016035Y018424D01*
X015956Y018345D01*
X015747Y018345D01*
X015747Y017794D01*
X015660Y017706D01*
X015142Y017706D01*
X015054Y017846D02*
X014971Y017846D01*
X014971Y017945D02*
X015054Y017945D01*
X015054Y018043D02*
X014971Y018043D01*
X014971Y018142D02*
X015054Y018142D01*
X015054Y018240D02*
X014971Y018240D01*
X014971Y018339D02*
X015054Y018339D01*
X015054Y018437D02*
X014971Y018437D01*
X014971Y018536D02*
X015054Y018536D01*
X015054Y018634D02*
X014971Y018634D01*
X014971Y018733D02*
X015054Y018733D01*
X015054Y018831D02*
X014971Y018831D01*
X014971Y018930D02*
X015054Y018930D01*
X015101Y019028D02*
X014971Y019028D01*
X014971Y019127D02*
X017033Y019127D01*
X016898Y019028D02*
X015700Y019028D01*
X015873Y018781D02*
X015282Y018781D01*
X015282Y018545D01*
X015873Y018545D01*
X015952Y018624D01*
X015952Y018702D01*
X015873Y018781D01*
X015921Y018733D02*
X015282Y018733D01*
X015282Y018634D02*
X015952Y018634D01*
X015834Y018663D02*
X015401Y018663D01*
X015401Y018387D01*
X015747Y018339D02*
X016397Y018339D01*
X016375Y018240D02*
X015747Y018240D01*
X015747Y018142D02*
X016248Y018142D01*
X016169Y018043D02*
X015747Y018043D01*
X015747Y017945D02*
X016139Y017945D01*
X016144Y017846D02*
X015747Y017846D01*
X015701Y017748D02*
X016188Y017748D01*
X016048Y018437D02*
X016465Y018437D01*
X016612Y018536D02*
X016147Y018536D01*
X016152Y018634D02*
X016625Y018634D01*
X016682Y018733D02*
X016152Y018733D01*
X016106Y018831D02*
X016848Y018831D01*
X016853Y018930D02*
X016007Y018930D01*
X015489Y019521D02*
X018580Y019521D01*
X018678Y019422D02*
X015017Y019422D01*
X014971Y019324D02*
X017345Y019324D01*
X017337Y019225D02*
X014971Y019225D01*
X014771Y019225D02*
X014456Y019225D01*
X014456Y019127D02*
X014771Y019127D01*
X014771Y019028D02*
X014456Y019028D01*
X014456Y018930D02*
X014771Y018930D01*
X014771Y018831D02*
X014456Y018831D01*
X014456Y018733D02*
X014771Y018733D01*
X014771Y018634D02*
X014456Y018634D01*
X014456Y018536D02*
X014771Y018536D01*
X014771Y018437D02*
X014456Y018437D01*
X014456Y018339D02*
X014771Y018339D01*
X014771Y018240D02*
X014456Y018240D01*
X014456Y018142D02*
X014771Y018142D01*
X014771Y018043D02*
X014456Y018043D01*
X014456Y017945D02*
X014771Y017945D01*
X014771Y017846D02*
X014456Y017846D01*
X014456Y017748D02*
X014771Y017748D01*
X014771Y017649D02*
X014456Y017649D01*
X014456Y017639D02*
X014456Y019411D01*
X014771Y019411D01*
X014771Y017639D01*
X014653Y017521D01*
X014574Y017521D01*
X014456Y017639D01*
X014544Y017551D02*
X014682Y017551D01*
X014458Y017354D02*
X013823Y017354D01*
X013922Y017452D02*
X014360Y017452D01*
X014261Y017551D02*
X014020Y017551D01*
X014026Y017649D02*
X014256Y017649D01*
X014256Y017748D02*
X014026Y017748D01*
X014026Y017846D02*
X014256Y017846D01*
X014256Y017945D02*
X014026Y017945D01*
X014026Y018043D02*
X014256Y018043D01*
X014256Y018142D02*
X014026Y018142D01*
X014026Y018240D02*
X014256Y018240D01*
X014256Y018339D02*
X014026Y018339D01*
X014026Y018437D02*
X014256Y018437D01*
X014256Y018536D02*
X014026Y018536D01*
X014026Y018634D02*
X014256Y018634D01*
X014256Y018733D02*
X014026Y018733D01*
X014026Y018831D02*
X014256Y018831D01*
X014256Y018930D02*
X014026Y018930D01*
X014026Y019028D02*
X014256Y019028D01*
X014256Y019127D02*
X014026Y019127D01*
X014026Y019225D02*
X014256Y019225D01*
X014256Y019324D02*
X014026Y019324D01*
X014026Y019422D02*
X014256Y019422D01*
X014283Y019521D02*
X013999Y019521D01*
X013826Y019411D02*
X013511Y019411D01*
X013511Y017639D01*
X013629Y017521D01*
X013708Y017521D01*
X013826Y017639D01*
X013826Y019411D01*
X013826Y019324D02*
X013511Y019324D01*
X013511Y019225D02*
X013826Y019225D01*
X013826Y019127D02*
X013511Y019127D01*
X013511Y019028D02*
X013826Y019028D01*
X013826Y018930D02*
X013511Y018930D01*
X013511Y018831D02*
X013826Y018831D01*
X013826Y018733D02*
X013511Y018733D01*
X013511Y018634D02*
X013826Y018634D01*
X013826Y018536D02*
X013511Y018536D01*
X013511Y018437D02*
X013826Y018437D01*
X013826Y018339D02*
X013511Y018339D01*
X013511Y018240D02*
X013826Y018240D01*
X013826Y018142D02*
X013511Y018142D01*
X013511Y018043D02*
X013826Y018043D01*
X013826Y017945D02*
X013511Y017945D01*
X013511Y017846D02*
X013826Y017846D01*
X013826Y017748D02*
X013511Y017748D01*
X013511Y017649D02*
X013826Y017649D01*
X013737Y017551D02*
X013599Y017551D01*
X013317Y017551D02*
X011896Y017551D01*
X011275Y017649D02*
X013311Y017649D01*
X013311Y017748D02*
X013182Y017748D01*
X013228Y017846D02*
X013311Y017846D01*
X013311Y017945D02*
X013228Y017945D01*
X013228Y018043D02*
X013311Y018043D01*
X013311Y018142D02*
X013228Y018142D01*
X013228Y018240D02*
X013311Y018240D01*
X013311Y018339D02*
X013228Y018339D01*
X013228Y018437D02*
X013311Y018437D01*
X013311Y018536D02*
X013228Y018536D01*
X013228Y018634D02*
X013311Y018634D01*
X013311Y019422D02*
X011524Y019422D01*
X011579Y019521D02*
X013338Y019521D01*
X013405Y020013D02*
X012066Y020013D01*
X012066Y020112D02*
X013321Y020112D01*
X013321Y020210D02*
X012066Y020210D01*
X011983Y019915D02*
X014384Y019915D01*
X014384Y019816D02*
X011501Y019816D01*
X011461Y019915D02*
X011653Y019915D01*
X011569Y019718D02*
X014384Y019718D01*
X014384Y019619D02*
X011591Y019619D01*
X010969Y019619D02*
X009192Y019619D01*
X009192Y019718D02*
X010871Y019718D01*
X010772Y019816D02*
X009184Y019816D01*
X009192Y019915D02*
X010682Y019915D01*
X010682Y020013D02*
X009192Y020013D01*
X009192Y020112D02*
X010682Y020112D01*
X010682Y020210D02*
X009144Y020210D01*
X008838Y020309D02*
X010682Y020309D01*
X010682Y020407D02*
X008838Y020407D01*
X008838Y020506D02*
X010682Y020506D01*
X010682Y020604D02*
X008870Y020604D01*
X008875Y020703D02*
X010682Y020703D01*
X010648Y020801D02*
X008844Y020801D01*
X008764Y020900D02*
X010627Y020900D01*
X010642Y020998D02*
X001023Y020998D01*
X001023Y020900D02*
X008415Y020900D01*
X008335Y020801D02*
X001023Y020801D01*
X001023Y020703D02*
X008305Y020703D01*
X008590Y020671D02*
X008609Y020651D01*
X008609Y020356D01*
X008594Y020372D01*
X008046Y020372D01*
X007646Y020407D02*
X007486Y020407D01*
X007486Y020309D02*
X007646Y020309D01*
X007646Y020210D02*
X007486Y020210D01*
X007398Y020112D02*
X006774Y020112D01*
X006641Y019915D02*
X007465Y019915D01*
X007449Y019422D02*
X007465Y019422D01*
X007517Y019324D02*
X001023Y019324D01*
X001023Y019422D02*
X006364Y019422D01*
X006198Y019521D02*
X001023Y019521D01*
X001023Y019619D02*
X006099Y019619D01*
X006318Y019915D02*
X006443Y019915D01*
X006720Y019422D02*
X006723Y019422D01*
X006200Y019028D02*
X007812Y019028D01*
X007839Y018930D02*
X006200Y018930D01*
X006200Y018831D02*
X007839Y018831D01*
X007839Y018733D02*
X006194Y018733D01*
X006370Y018634D02*
X007839Y018634D01*
X007685Y018536D02*
X006377Y018536D01*
X006377Y018437D02*
X007207Y018437D01*
X007199Y018339D02*
X006377Y018339D01*
X006432Y018240D02*
X007199Y018240D01*
X007199Y018142D02*
X006531Y018142D01*
X006629Y018043D02*
X007265Y018043D01*
X007428Y018269D02*
X007822Y018269D01*
X007822Y018122D01*
X007619Y018043D02*
X007591Y018043D01*
X007617Y017945D02*
X006728Y017945D01*
X006801Y017846D02*
X007518Y017846D01*
X007420Y017748D02*
X006801Y017748D01*
X006801Y017649D02*
X007321Y017649D01*
X007223Y017551D02*
X006801Y017551D01*
X006801Y017452D02*
X007189Y017452D01*
X007084Y016793D02*
X006523Y016793D01*
X006385Y016931D01*
X005755Y016931D01*
X005499Y016675D01*
X004771Y016675D01*
X004298Y016675D01*
X003786Y016675D01*
X003538Y016664D02*
X003308Y016664D01*
X003308Y016763D02*
X003538Y016763D01*
X003565Y016861D02*
X003308Y016861D01*
X003308Y016960D02*
X003538Y016960D01*
X003538Y017058D02*
X003308Y017058D01*
X003308Y017157D02*
X003538Y017157D01*
X003507Y017255D02*
X003308Y017255D01*
X003308Y017354D02*
X003501Y017354D01*
X003531Y017452D02*
X003308Y017452D01*
X003308Y017551D02*
X003610Y017551D01*
X003786Y017324D02*
X003786Y017029D01*
X004035Y017058D02*
X005600Y017058D01*
X005501Y016960D02*
X004035Y016960D01*
X004035Y017157D02*
X005432Y017157D01*
X005333Y017255D02*
X004066Y017255D01*
X004071Y017354D02*
X005235Y017354D01*
X005547Y017551D02*
X006441Y017551D01*
X006441Y017649D02*
X005511Y017649D01*
X005511Y017748D02*
X006416Y017748D01*
X006317Y017846D02*
X005511Y017846D01*
X005511Y017945D02*
X006219Y017945D01*
X006120Y018043D02*
X005425Y018043D01*
X005690Y018142D02*
X003308Y018142D01*
X003308Y018240D02*
X005684Y018240D01*
X005684Y018339D02*
X003308Y018339D01*
X003308Y018437D02*
X005684Y018437D01*
X005684Y018536D02*
X003308Y018536D01*
X003308Y018634D02*
X005691Y018634D01*
X005749Y018733D02*
X003308Y018733D01*
X003342Y018831D02*
X005743Y018831D01*
X005743Y018930D02*
X003363Y018930D01*
X003349Y019028D02*
X005743Y019028D01*
X005810Y019127D02*
X003293Y019127D01*
X002863Y019127D02*
X001023Y019127D01*
X001023Y019225D02*
X007615Y019225D01*
X007714Y019127D02*
X006133Y019127D01*
X005203Y019718D02*
X001023Y019718D01*
X001023Y019816D02*
X005136Y019816D01*
X005116Y019915D02*
X001023Y019915D01*
X001023Y020013D02*
X005130Y020013D01*
X005186Y020112D02*
X001023Y020112D01*
X001023Y020210D02*
X005467Y020210D01*
X005467Y020309D02*
X001023Y020309D01*
X001023Y020407D02*
X005476Y020407D01*
X006064Y020506D02*
X001023Y020506D01*
X001023Y020604D02*
X006747Y020604D01*
X007425Y020604D02*
X007707Y020604D01*
X007646Y020506D02*
X007486Y020506D01*
X009493Y021598D02*
X009429Y021753D01*
X009429Y021920D01*
X009493Y022074D01*
X009611Y022192D01*
X009766Y022256D01*
X009933Y022256D01*
X010087Y022192D01*
X010205Y022074D01*
X010269Y021920D01*
X010269Y021753D01*
X010205Y021598D01*
X010087Y021480D01*
X009933Y021416D01*
X009766Y021416D01*
X009611Y021480D01*
X009493Y021598D01*
X009502Y021589D02*
X001023Y021589D01*
X001023Y021491D02*
X009601Y021491D01*
X009456Y021688D02*
X001023Y021688D01*
X001023Y021786D02*
X009429Y021786D01*
X009429Y021885D02*
X001023Y021885D01*
X001023Y021983D02*
X009456Y021983D01*
X009501Y022082D02*
X001023Y022082D01*
X001023Y022180D02*
X009600Y022180D01*
X009622Y022476D02*
X006233Y022476D01*
X006214Y022465D02*
X006214Y022465D01*
X006214Y022465D01*
X006332Y022574D02*
X009517Y022574D01*
X009462Y022673D02*
X006430Y022673D01*
X006524Y022771D02*
X009429Y022771D01*
X009429Y022870D02*
X006623Y022870D01*
X006721Y022968D02*
X009450Y022968D01*
X009490Y023067D02*
X006820Y023067D01*
X006918Y023165D02*
X009585Y023165D01*
X010181Y022574D02*
X010447Y022574D01*
X010470Y022476D02*
X010077Y022476D01*
X010099Y022180D02*
X012594Y022180D01*
X012808Y022279D02*
X005770Y022279D01*
X005783Y022492D02*
X005653Y022473D01*
X005522Y022475D01*
X005392Y022497D01*
X005268Y022539D01*
X005152Y022600D01*
X005046Y022679D01*
X004955Y022773D01*
X004879Y022880D01*
X004820Y022998D01*
X004781Y023123D01*
X004762Y023253D01*
X004764Y023384D01*
X004786Y023514D01*
X004828Y023638D01*
X004889Y023755D01*
X004968Y023860D01*
X005676Y024569D01*
X007566Y024569D01*
X007842Y024844D01*
X007842Y027096D01*
X013668Y027096D01*
X013668Y023624D01*
X013432Y023387D01*
X006857Y023387D01*
X006227Y022757D01*
X006133Y022666D01*
X006026Y022590D01*
X005908Y022532D01*
X005783Y022492D01*
X005669Y022476D02*
X005518Y022476D01*
X005437Y022276D02*
X005437Y022276D01*
X005427Y022279D02*
X001023Y022279D01*
X001023Y022377D02*
X005125Y022377D01*
X004962Y022476D02*
X001023Y022476D01*
X001023Y022574D02*
X004859Y022574D01*
X004765Y022673D02*
X001023Y022673D01*
X001023Y022771D02*
X004708Y022771D01*
X004754Y022692D02*
X004754Y022692D01*
X004754Y022692D01*
X004651Y022870D02*
X001023Y022870D01*
X001023Y022968D02*
X004612Y022968D01*
X004587Y023067D02*
X001023Y023067D01*
X001023Y023165D02*
X004560Y023165D01*
X004558Y023264D02*
X001023Y023264D01*
X001023Y023362D02*
X004557Y023362D01*
X004563Y023461D02*
X001023Y023461D01*
X001023Y023559D02*
X004589Y023559D01*
X004777Y023461D02*
X013505Y023461D01*
X013604Y023559D02*
X004801Y023559D01*
X004838Y023658D02*
X013668Y023658D01*
X013668Y023756D02*
X004890Y023756D01*
X004964Y023855D02*
X013668Y023855D01*
X013668Y023953D02*
X005061Y023953D01*
X005159Y024052D02*
X013668Y024052D01*
X013668Y024150D02*
X005258Y024150D01*
X005356Y024249D02*
X013668Y024249D01*
X013668Y024347D02*
X005455Y024347D01*
X005553Y024446D02*
X013668Y024446D01*
X013668Y024544D02*
X005652Y024544D01*
X005468Y024643D02*
X001023Y024643D01*
X001023Y024741D02*
X005566Y024741D01*
X005369Y024544D02*
X001023Y024544D01*
X001023Y024446D02*
X005271Y024446D01*
X005172Y024347D02*
X001023Y024347D01*
X001023Y024249D02*
X005074Y024249D01*
X004975Y024150D02*
X001023Y024150D01*
X001023Y024052D02*
X004871Y024052D01*
X004773Y023953D02*
X001023Y023953D01*
X001023Y023855D02*
X004713Y023855D01*
X004764Y023362D02*
X006832Y023362D01*
X006734Y023264D02*
X004762Y023264D01*
X004775Y023165D02*
X006635Y023165D01*
X006537Y023067D02*
X004799Y023067D01*
X004835Y022968D02*
X006438Y022968D01*
X006340Y022870D02*
X004886Y022870D01*
X004956Y022771D02*
X006241Y022771D01*
X006141Y022673D02*
X005054Y022673D01*
X005201Y022574D02*
X005995Y022574D01*
X006062Y022377D02*
X012808Y022377D01*
X012808Y022476D02*
X011355Y022476D01*
X011377Y022574D02*
X011430Y022574D01*
X011655Y022574D02*
X012808Y022574D01*
X013306Y022574D02*
X014975Y022574D01*
X014975Y022673D02*
X013306Y022673D01*
X013306Y022771D02*
X014975Y022771D01*
X014986Y022870D02*
X013296Y022870D01*
X013153Y022968D02*
X015958Y022968D01*
X016027Y023067D02*
X013120Y023067D01*
X013120Y023165D02*
X016027Y023165D01*
X016027Y023264D02*
X013591Y023264D01*
X013690Y023362D02*
X016027Y023362D01*
X016027Y023461D02*
X013788Y023461D01*
X013868Y023559D02*
X016027Y023559D01*
X016027Y023658D02*
X013868Y023658D01*
X013868Y023756D02*
X016027Y023756D01*
X016027Y023855D02*
X013868Y023855D01*
X013868Y023953D02*
X016027Y023953D01*
X016027Y024052D02*
X013868Y024052D01*
X013868Y024150D02*
X016027Y024150D01*
X016027Y024249D02*
X013868Y024249D01*
X013868Y024347D02*
X016027Y024347D01*
X016027Y024446D02*
X013868Y024446D01*
X013868Y024544D02*
X016027Y024544D01*
X016027Y024643D02*
X013868Y024643D01*
X013868Y024741D02*
X015978Y024741D01*
X015942Y024840D02*
X013868Y024840D01*
X013868Y024938D02*
X015942Y024938D01*
X015982Y025037D02*
X013868Y025037D01*
X013868Y025135D02*
X016091Y025135D01*
X016364Y025135D02*
X021769Y025135D01*
X021769Y025137D02*
X021769Y025024D01*
X021813Y024919D01*
X021874Y024857D01*
X021874Y024730D01*
X021980Y024625D01*
X022142Y024463D01*
X022110Y024463D01*
X022034Y024387D01*
X021959Y024463D01*
X021520Y024463D01*
X021444Y024387D01*
X021368Y024463D01*
X020929Y024463D01*
X020853Y024387D01*
X020778Y024463D01*
X020535Y024463D01*
X020447Y024375D01*
X020447Y023502D01*
X020476Y023473D01*
X020476Y023433D01*
X020474Y023431D01*
X020431Y023326D01*
X020431Y023213D01*
X020474Y023108D01*
X020554Y023028D01*
X020659Y022984D01*
X020746Y022984D01*
X020746Y022937D01*
X020789Y022832D01*
X020869Y022752D01*
X020974Y022709D01*
X021087Y022709D01*
X021192Y022752D01*
X021272Y022832D01*
X021316Y022937D01*
X021316Y022984D01*
X021336Y022984D01*
X021336Y022937D01*
X021379Y022832D01*
X021460Y022752D01*
X021564Y022709D01*
X021678Y022709D01*
X021783Y022752D01*
X021863Y022832D01*
X021906Y022937D01*
X021906Y022984D01*
X021927Y022984D01*
X021927Y022937D01*
X021970Y022832D01*
X022050Y022752D01*
X022155Y022709D01*
X022268Y022709D01*
X022373Y022752D01*
X022453Y022832D01*
X022497Y022937D01*
X022497Y022984D01*
X022517Y022984D01*
X022517Y022937D01*
X022561Y022832D01*
X022641Y022752D01*
X022745Y022709D01*
X022859Y022709D01*
X022964Y022752D01*
X023044Y022832D01*
X023058Y022867D01*
X023072Y022832D01*
X023153Y022752D01*
X023257Y022709D01*
X023371Y022709D01*
X023475Y022752D01*
X023556Y022832D01*
X023599Y022937D01*
X023599Y022951D01*
X024247Y022951D01*
X024295Y022903D01*
X024577Y022903D01*
X024665Y022991D01*
X024665Y023312D01*
X024577Y023400D01*
X024295Y023400D01*
X024247Y023351D01*
X024203Y023351D01*
X024203Y023415D01*
X024321Y023415D01*
X024409Y023502D01*
X024409Y024375D01*
X024380Y024404D01*
X024380Y024601D01*
X024422Y024643D01*
X024465Y024748D01*
X024465Y024861D01*
X024457Y024880D01*
X026339Y024880D01*
X026381Y024839D01*
X026486Y024795D01*
X026599Y024795D01*
X026704Y024839D01*
X026784Y024919D01*
X026827Y025024D01*
X026827Y025137D01*
X026784Y025242D01*
X026704Y025322D01*
X026599Y025365D01*
X026486Y025365D01*
X026381Y025322D01*
X026339Y025280D01*
X023690Y025280D01*
X023674Y025320D01*
X023594Y025401D01*
X023489Y025444D01*
X023430Y025444D01*
X022885Y025989D01*
X020682Y025989D01*
X020641Y026031D01*
X020536Y026074D01*
X020423Y026074D01*
X020318Y026031D01*
X020238Y025950D01*
X020194Y025846D01*
X020194Y025732D01*
X020238Y025628D01*
X013868Y025628D01*
X013868Y025726D02*
X019285Y025726D01*
X019330Y025708D02*
X019542Y025708D01*
X019738Y025789D01*
X019889Y025939D01*
X019970Y026136D01*
X019970Y026348D01*
X019889Y026544D01*
X019738Y026694D01*
X019542Y026776D01*
X019330Y026776D01*
X019134Y026694D01*
X018983Y026544D01*
X018902Y026348D01*
X018902Y026136D01*
X018983Y025939D01*
X019134Y025789D01*
X019330Y025708D01*
X019587Y025726D02*
X020197Y025726D01*
X020194Y025825D02*
X019774Y025825D01*
X019873Y025923D02*
X020226Y025923D01*
X020309Y026022D02*
X019923Y026022D01*
X019964Y026120D02*
X025090Y026120D01*
X025083Y026136D02*
X025165Y025939D01*
X025315Y025789D01*
X025511Y025708D01*
X025723Y025708D01*
X025920Y025789D01*
X026070Y025939D01*
X026151Y026136D01*
X026151Y026348D01*
X026070Y026544D01*
X025920Y026694D01*
X025723Y026776D01*
X025511Y026776D01*
X025315Y026694D01*
X025165Y026544D01*
X025083Y026348D01*
X025083Y026136D01*
X025083Y026219D02*
X019970Y026219D01*
X019970Y026317D02*
X025083Y026317D01*
X025111Y026416D02*
X019942Y026416D01*
X019901Y026514D02*
X025152Y026514D01*
X025233Y026613D02*
X019820Y026613D01*
X019697Y026711D02*
X025356Y026711D01*
X025879Y026711D02*
X031925Y026711D01*
X031929Y026720D02*
X031811Y026435D01*
X031811Y026127D01*
X031929Y025842D01*
X032147Y025624D01*
X032431Y025506D01*
X032740Y025506D01*
X033025Y025624D01*
X033243Y025842D01*
X033361Y026127D01*
X033361Y026435D01*
X033243Y026720D01*
X033025Y026938D01*
X032740Y027056D01*
X032431Y027056D01*
X032147Y026938D01*
X031929Y026720D01*
X031884Y026613D02*
X026001Y026613D01*
X026082Y026514D02*
X030872Y026514D01*
X030873Y026516D02*
X030776Y026419D01*
X030723Y026291D01*
X030723Y026153D01*
X030776Y026026D01*
X030873Y025928D01*
X031001Y025875D01*
X031139Y025875D01*
X031266Y025928D01*
X031364Y026026D01*
X031417Y026153D01*
X031417Y026291D01*
X031364Y026419D01*
X031266Y026516D01*
X031139Y026569D01*
X031001Y026569D01*
X030873Y026516D01*
X030775Y026416D02*
X026123Y026416D01*
X026151Y026317D02*
X030734Y026317D01*
X030723Y026219D02*
X026151Y026219D01*
X026145Y026120D02*
X030737Y026120D01*
X030780Y026022D02*
X026104Y026022D01*
X026054Y025923D02*
X030885Y025923D01*
X031255Y025923D02*
X031895Y025923D01*
X031854Y026022D02*
X031360Y026022D01*
X031403Y026120D02*
X031813Y026120D01*
X031811Y026219D02*
X031417Y026219D01*
X031406Y026317D02*
X031811Y026317D01*
X031811Y026416D02*
X031365Y026416D01*
X031268Y026514D02*
X031843Y026514D01*
X032018Y026810D02*
X016673Y026810D01*
X016673Y026908D02*
X032117Y026908D01*
X032312Y027007D02*
X013868Y027007D01*
X013868Y026908D02*
X016058Y026908D01*
X016058Y026914D02*
X016058Y026475D01*
X016146Y026387D01*
X016259Y026387D01*
X016255Y026383D01*
X016255Y026061D01*
X016342Y025974D01*
X016624Y025974D01*
X016660Y026010D01*
X016697Y025974D01*
X016978Y025974D01*
X016998Y025993D01*
X017011Y025980D01*
X017116Y025937D01*
X017229Y025937D01*
X017334Y025980D01*
X017414Y026061D01*
X017457Y026165D01*
X017457Y026279D01*
X017414Y026383D01*
X017334Y026464D01*
X017229Y026507D01*
X017116Y026507D01*
X017011Y026464D01*
X016998Y026451D01*
X016978Y026470D01*
X016697Y026470D01*
X016663Y026437D01*
X016663Y026466D01*
X016673Y026475D01*
X016673Y026914D01*
X016585Y027002D01*
X016146Y027002D01*
X016058Y026914D01*
X016058Y026810D02*
X013868Y026810D01*
X013868Y026711D02*
X016058Y026711D01*
X016058Y026613D02*
X013868Y026613D01*
X013868Y026514D02*
X016058Y026514D01*
X016117Y026416D02*
X013868Y026416D01*
X013868Y026317D02*
X016255Y026317D01*
X016255Y026219D02*
X013868Y026219D01*
X013868Y026120D02*
X016255Y026120D01*
X016294Y026022D02*
X013868Y026022D01*
X013868Y025923D02*
X018999Y025923D01*
X018949Y026022D02*
X017375Y026022D01*
X017439Y026120D02*
X018908Y026120D01*
X018902Y026219D02*
X017457Y026219D01*
X017441Y026317D02*
X018902Y026317D01*
X018930Y026416D02*
X017382Y026416D01*
X016673Y026514D02*
X018971Y026514D01*
X019052Y026613D02*
X016673Y026613D01*
X016673Y026711D02*
X019175Y026711D01*
X019098Y025825D02*
X013868Y025825D01*
X013668Y025825D02*
X009683Y025825D01*
X009707Y025849D02*
X009776Y026014D01*
X009776Y026193D01*
X009707Y026359D01*
X009581Y026485D01*
X009415Y026554D01*
X009236Y026554D01*
X009071Y026485D01*
X008944Y026359D01*
X008876Y026193D01*
X008876Y026014D01*
X008944Y025849D01*
X009071Y025722D01*
X009236Y025654D01*
X009415Y025654D01*
X009581Y025722D01*
X009707Y025849D01*
X009738Y025923D02*
X013668Y025923D01*
X013668Y026022D02*
X009776Y026022D01*
X009776Y026120D02*
X013668Y026120D01*
X013668Y026219D02*
X009765Y026219D01*
X009724Y026317D02*
X013668Y026317D01*
X013668Y026416D02*
X009650Y026416D01*
X009511Y026514D02*
X013668Y026514D01*
X013668Y026613D02*
X007842Y026613D01*
X007842Y026711D02*
X013668Y026711D01*
X013668Y026810D02*
X007842Y026810D01*
X007842Y026908D02*
X013668Y026908D01*
X013668Y027007D02*
X007842Y027007D01*
X007642Y027007D02*
X002111Y027007D01*
X001992Y027056D02*
X001683Y027056D01*
X001399Y026938D01*
X001181Y026720D01*
X001063Y026435D01*
X001063Y026127D01*
X001181Y025842D01*
X001399Y025624D01*
X001683Y025506D01*
X001992Y025506D01*
X002277Y025624D01*
X002495Y025842D01*
X002613Y026127D01*
X002613Y026435D01*
X002495Y026720D01*
X002277Y026938D01*
X001992Y027056D01*
X002306Y026908D02*
X007642Y026908D01*
X007642Y026810D02*
X002405Y026810D01*
X002498Y026711D02*
X007642Y026711D01*
X007642Y026613D02*
X002539Y026613D01*
X002580Y026514D02*
X003155Y026514D01*
X003157Y026516D02*
X003059Y026419D01*
X003006Y026291D01*
X003006Y026153D01*
X003059Y026026D01*
X003157Y025928D01*
X003284Y025875D01*
X003422Y025875D01*
X003550Y025928D01*
X003647Y026026D01*
X003700Y026153D01*
X003700Y026291D01*
X003647Y026419D01*
X003550Y026516D01*
X003422Y026569D01*
X003284Y026569D01*
X003157Y026516D01*
X003058Y026416D02*
X002613Y026416D01*
X002613Y026317D02*
X003017Y026317D01*
X003006Y026219D02*
X002613Y026219D01*
X002610Y026120D02*
X003020Y026120D01*
X003063Y026022D02*
X002569Y026022D01*
X002528Y025923D02*
X003168Y025923D01*
X003538Y025923D02*
X007642Y025923D01*
X007642Y025825D02*
X002477Y025825D01*
X002379Y025726D02*
X007642Y025726D01*
X007642Y025628D02*
X002280Y025628D01*
X002048Y025529D02*
X007642Y025529D01*
X007642Y025431D02*
X001023Y025431D01*
X001023Y025529D02*
X001627Y025529D01*
X001395Y025628D02*
X001023Y025628D01*
X001023Y025726D02*
X001296Y025726D01*
X001198Y025825D02*
X001023Y025825D01*
X001023Y025923D02*
X001147Y025923D01*
X001106Y026022D02*
X001023Y026022D01*
X001023Y026120D02*
X001065Y026120D01*
X001063Y026219D02*
X001023Y026219D01*
X001023Y026317D02*
X001063Y026317D01*
X001063Y026416D02*
X001023Y026416D01*
X001023Y026514D02*
X001095Y026514D01*
X001136Y026613D02*
X001023Y026613D01*
X001023Y026711D02*
X001177Y026711D01*
X001270Y026810D02*
X001023Y026810D01*
X001023Y026908D02*
X001369Y026908D01*
X001564Y027007D02*
X001023Y027007D01*
X001023Y025332D02*
X007642Y025332D01*
X007642Y025234D02*
X001023Y025234D01*
X001023Y025135D02*
X007642Y025135D01*
X007642Y025037D02*
X001023Y025037D01*
X001023Y024938D02*
X007642Y024938D01*
X007554Y024840D02*
X001023Y024840D01*
X003644Y026022D02*
X007642Y026022D01*
X007642Y026120D02*
X003687Y026120D01*
X003700Y026219D02*
X007642Y026219D01*
X007642Y026317D02*
X003689Y026317D01*
X003649Y026416D02*
X007642Y026416D01*
X007642Y026514D02*
X003552Y026514D01*
X007842Y026514D02*
X008141Y026514D01*
X008071Y026485D02*
X007944Y026359D01*
X007876Y026193D01*
X007876Y026014D01*
X007944Y025849D01*
X008071Y025722D01*
X008236Y025654D01*
X008415Y025654D01*
X008581Y025722D01*
X008707Y025849D01*
X008776Y026014D01*
X008776Y026193D01*
X008707Y026359D01*
X008581Y026485D01*
X008415Y026554D01*
X008236Y026554D01*
X008071Y026485D01*
X008001Y026416D02*
X007842Y026416D01*
X007842Y026317D02*
X007927Y026317D01*
X007886Y026219D02*
X007842Y026219D01*
X007842Y026120D02*
X007876Y026120D01*
X007876Y026022D02*
X007842Y026022D01*
X007842Y025923D02*
X007914Y025923D01*
X007969Y025825D02*
X007842Y025825D01*
X007842Y025726D02*
X008067Y025726D01*
X007842Y025628D02*
X013668Y025628D01*
X013668Y025726D02*
X009585Y025726D01*
X009418Y025529D02*
X013668Y025529D01*
X013668Y025431D02*
X009612Y025431D01*
X009581Y025462D02*
X009415Y025530D01*
X009236Y025530D01*
X009071Y025462D01*
X008944Y025335D01*
X008876Y025170D01*
X008876Y024991D01*
X008944Y024825D01*
X009071Y024699D01*
X009236Y024630D01*
X009415Y024630D01*
X009581Y024699D01*
X009707Y024825D01*
X009776Y024991D01*
X009776Y025170D01*
X009707Y025335D01*
X009581Y025462D01*
X009708Y025332D02*
X013668Y025332D01*
X013668Y025234D02*
X009749Y025234D01*
X009776Y025135D02*
X013668Y025135D01*
X013668Y025037D02*
X009776Y025037D01*
X009754Y024938D02*
X013668Y024938D01*
X013668Y024840D02*
X009713Y024840D01*
X009623Y024741D02*
X013668Y024741D01*
X013668Y024643D02*
X009445Y024643D01*
X009206Y024643D02*
X008445Y024643D01*
X008415Y024630D02*
X008581Y024699D01*
X008707Y024825D01*
X008776Y024991D01*
X008776Y025170D01*
X008707Y025335D01*
X008581Y025462D01*
X008415Y025530D01*
X008236Y025530D01*
X008071Y025462D01*
X007944Y025335D01*
X007876Y025170D01*
X007876Y024991D01*
X007944Y024825D01*
X008071Y024699D01*
X008236Y024630D01*
X008415Y024630D01*
X008206Y024643D02*
X007640Y024643D01*
X007739Y024741D02*
X008028Y024741D01*
X007938Y024840D02*
X007837Y024840D01*
X007842Y024938D02*
X007898Y024938D01*
X007876Y025037D02*
X007842Y025037D01*
X007842Y025135D02*
X007876Y025135D01*
X007902Y025234D02*
X007842Y025234D01*
X007842Y025332D02*
X007943Y025332D01*
X008040Y025431D02*
X007842Y025431D01*
X007842Y025529D02*
X008234Y025529D01*
X008418Y025529D02*
X009234Y025529D01*
X009040Y025431D02*
X008612Y025431D01*
X008708Y025332D02*
X008943Y025332D01*
X008902Y025234D02*
X008749Y025234D01*
X008776Y025135D02*
X008876Y025135D01*
X008876Y025037D02*
X008776Y025037D01*
X008754Y024938D02*
X008898Y024938D01*
X008938Y024840D02*
X008713Y024840D01*
X008623Y024741D02*
X009028Y024741D01*
X009067Y025726D02*
X008585Y025726D01*
X008683Y025825D02*
X008969Y025825D01*
X008914Y025923D02*
X008738Y025923D01*
X008776Y026022D02*
X008876Y026022D01*
X008876Y026120D02*
X008776Y026120D01*
X008765Y026219D02*
X008886Y026219D01*
X008927Y026317D02*
X008724Y026317D01*
X008650Y026416D02*
X009001Y026416D01*
X009141Y026514D02*
X008511Y026514D01*
X013868Y025529D02*
X020362Y025529D01*
X020318Y025547D02*
X020423Y025504D01*
X020536Y025504D01*
X020641Y025547D01*
X020682Y025589D01*
X022081Y025589D01*
X022049Y025557D01*
X022005Y025452D01*
X022005Y025365D01*
X021997Y025365D01*
X021893Y025322D01*
X021813Y025242D01*
X021769Y025137D01*
X021769Y025037D02*
X016472Y025037D01*
X016512Y024938D02*
X017493Y024938D01*
X017451Y024896D02*
X017451Y024241D01*
X017517Y024175D01*
X017482Y024139D01*
X017438Y024035D01*
X017438Y023921D01*
X017482Y023817D01*
X017562Y023736D01*
X017667Y023693D01*
X017780Y023693D01*
X017885Y023736D01*
X017965Y023817D01*
X017979Y023851D01*
X017994Y023817D01*
X018074Y023736D01*
X018179Y023693D01*
X018292Y023693D01*
X018397Y023736D01*
X018423Y023763D01*
X018466Y023659D01*
X018546Y023579D01*
X018651Y023535D01*
X018764Y023535D01*
X018869Y023579D01*
X018949Y023659D01*
X018993Y023764D01*
X018993Y023877D01*
X018949Y023982D01*
X018890Y024042D01*
X018890Y024162D01*
X018968Y024241D01*
X018968Y024896D01*
X018880Y024984D01*
X018539Y024984D01*
X018460Y024905D01*
X018380Y024984D01*
X018039Y024984D01*
X017960Y024905D01*
X017880Y024984D01*
X017539Y024984D01*
X017451Y024896D01*
X017451Y024840D02*
X016512Y024840D01*
X016477Y024741D02*
X017451Y024741D01*
X017451Y024643D02*
X016427Y024643D01*
X016427Y024544D02*
X017451Y024544D01*
X017451Y024446D02*
X016427Y024446D01*
X016427Y024347D02*
X017451Y024347D01*
X017451Y024249D02*
X016427Y024249D01*
X016427Y024150D02*
X017493Y024150D01*
X017446Y024052D02*
X016427Y024052D01*
X016427Y023953D02*
X017438Y023953D01*
X017466Y023855D02*
X016427Y023855D01*
X016427Y023756D02*
X017542Y023756D01*
X017905Y023756D02*
X018054Y023756D01*
X018417Y023756D02*
X018426Y023756D01*
X018467Y023658D02*
X016427Y023658D01*
X016427Y023559D02*
X018593Y023559D01*
X018822Y023559D02*
X020447Y023559D01*
X020447Y023658D02*
X018948Y023658D01*
X018990Y023756D02*
X020447Y023756D01*
X020447Y023855D02*
X019989Y023855D01*
X019975Y023840D02*
X020125Y023991D01*
X020206Y024187D01*
X020206Y024399D01*
X020125Y024595D01*
X019975Y024745D01*
X019778Y024827D01*
X019566Y024827D01*
X019370Y024745D01*
X019220Y024595D01*
X019138Y024399D01*
X019138Y024187D01*
X019220Y023991D01*
X019370Y023840D01*
X019566Y023759D01*
X019778Y023759D01*
X019975Y023840D01*
X020088Y023953D02*
X020447Y023953D01*
X020447Y024052D02*
X020150Y024052D01*
X020191Y024150D02*
X020447Y024150D01*
X020447Y024249D02*
X020206Y024249D01*
X020206Y024347D02*
X020447Y024347D01*
X020519Y024446D02*
X020187Y024446D01*
X020146Y024544D02*
X022060Y024544D01*
X022093Y024446D02*
X021976Y024446D01*
X021962Y024643D02*
X020077Y024643D01*
X019979Y024741D02*
X021874Y024741D01*
X021874Y024840D02*
X018968Y024840D01*
X018968Y024741D02*
X019366Y024741D01*
X019267Y024643D02*
X018968Y024643D01*
X018968Y024544D02*
X019199Y024544D01*
X019158Y024446D02*
X018968Y024446D01*
X018968Y024347D02*
X019138Y024347D01*
X019138Y024249D02*
X018968Y024249D01*
X018890Y024150D02*
X019153Y024150D01*
X019194Y024052D02*
X018890Y024052D01*
X018961Y023953D02*
X019257Y023953D01*
X019355Y023855D02*
X018993Y023855D01*
X018437Y023273D02*
X018357Y023353D01*
X018253Y023397D01*
X018139Y023397D01*
X018034Y023353D01*
X017954Y023273D01*
X017911Y023169D01*
X017911Y023055D01*
X017954Y022950D01*
X018003Y022901D01*
X017960Y022857D01*
X017880Y022937D01*
X017539Y022937D01*
X017460Y022857D01*
X017380Y022937D01*
X017039Y022937D01*
X016951Y022849D01*
X016951Y022193D01*
X017030Y022115D01*
X017030Y021071D01*
X017135Y020965D01*
X018869Y019231D01*
X019845Y019231D01*
X019951Y019336D01*
X020237Y019623D01*
X020277Y019525D01*
X020357Y019445D01*
X020462Y019402D01*
X020575Y019402D01*
X020680Y019445D01*
X020760Y019525D01*
X020804Y019630D01*
X020804Y019743D01*
X020760Y019848D01*
X020757Y019852D01*
X021014Y019852D01*
X021090Y019927D01*
X021165Y019852D01*
X022195Y019852D01*
X022262Y019919D01*
X022262Y019904D01*
X022206Y019848D01*
X022163Y019743D01*
X022163Y019630D01*
X022206Y019525D01*
X022286Y019445D01*
X022391Y019402D01*
X022505Y019402D01*
X022510Y019404D01*
X022482Y019376D01*
X022438Y019271D01*
X022438Y019157D01*
X022482Y019053D01*
X022562Y018973D01*
X022667Y018929D01*
X022780Y018929D01*
X022885Y018973D01*
X022965Y019053D01*
X023008Y019157D01*
X023008Y019271D01*
X022965Y019376D01*
X022923Y019417D01*
X022923Y019852D01*
X023179Y019852D01*
X023255Y019927D01*
X023331Y019852D01*
X024375Y019852D01*
X024372Y019848D01*
X024328Y019743D01*
X024328Y019630D01*
X024372Y019525D01*
X024452Y019445D01*
X024556Y019402D01*
X024670Y019402D01*
X024775Y019445D01*
X024855Y019525D01*
X024869Y019560D01*
X024883Y019525D01*
X024964Y019445D01*
X025068Y019402D01*
X025182Y019402D01*
X025286Y019445D01*
X025367Y019525D01*
X025410Y019630D01*
X025410Y019717D01*
X025545Y019852D01*
X025738Y019852D01*
X025826Y019939D01*
X025826Y020369D01*
X026211Y020754D01*
X026211Y020875D01*
X026279Y020943D01*
X026279Y021225D01*
X026243Y021261D01*
X026279Y021298D01*
X026279Y021579D01*
X026276Y021582D01*
X026316Y021677D01*
X026316Y021791D01*
X026272Y021895D01*
X026192Y021975D01*
X026087Y022019D01*
X025974Y022019D01*
X025869Y021975D01*
X025789Y021895D01*
X025746Y021791D01*
X025746Y021677D01*
X025750Y021667D01*
X025437Y021667D01*
X025388Y021619D01*
X025374Y021619D01*
X025325Y021667D01*
X025004Y021667D01*
X024916Y021579D01*
X024916Y021298D01*
X024952Y021261D01*
X024916Y021225D01*
X024916Y020943D01*
X025004Y020856D01*
X025043Y020856D01*
X025043Y020781D01*
X024793Y020781D01*
X024793Y021629D01*
X024855Y021691D01*
X024898Y021795D01*
X024898Y021909D01*
X024855Y022013D01*
X024775Y022094D01*
X024670Y022137D01*
X024586Y022137D01*
X024586Y022367D01*
X024498Y022455D01*
X024216Y022455D01*
X024129Y022367D01*
X024129Y022133D01*
X024119Y022137D01*
X024005Y022137D01*
X023901Y022094D01*
X023820Y022013D01*
X023786Y021931D01*
X023752Y022013D01*
X023672Y022094D01*
X023568Y022137D01*
X023454Y022137D01*
X023349Y022094D01*
X023269Y022013D01*
X023226Y021909D01*
X023226Y021795D01*
X023269Y021691D01*
X023331Y021629D01*
X023331Y020781D01*
X023331Y020781D01*
X023255Y020706D01*
X023238Y020723D01*
X023238Y020844D01*
X023133Y020949D01*
X022943Y021139D01*
X022943Y021314D01*
X023004Y021376D01*
X023048Y021480D01*
X023048Y021594D01*
X023004Y021698D01*
X022924Y021779D01*
X022819Y021822D01*
X022812Y021822D01*
X022812Y021909D01*
X022768Y022013D01*
X022688Y022094D01*
X022583Y022137D01*
X022470Y022137D01*
X022365Y022094D01*
X022285Y022013D01*
X022271Y021979D01*
X022256Y022013D01*
X022176Y022094D01*
X022071Y022137D01*
X021958Y022137D01*
X021853Y022094D01*
X021773Y022013D01*
X021730Y021909D01*
X021730Y021795D01*
X021773Y021691D01*
X021835Y021629D01*
X021835Y021021D01*
X021759Y020945D01*
X021755Y020949D01*
X021683Y021021D01*
X021683Y021314D01*
X021745Y021376D01*
X021788Y021480D01*
X021788Y021594D01*
X021745Y021698D01*
X021664Y021779D01*
X021560Y021822D01*
X021552Y021822D01*
X021552Y021909D01*
X021508Y022013D01*
X021428Y022094D01*
X021323Y022137D01*
X021210Y022137D01*
X021105Y022094D01*
X021025Y022013D01*
X021011Y021979D01*
X020997Y022013D01*
X020916Y022094D01*
X020812Y022137D01*
X020698Y022137D01*
X020593Y022094D01*
X020513Y022013D01*
X020470Y021909D01*
X020470Y021795D01*
X020513Y021691D01*
X020575Y021629D01*
X020575Y020942D01*
X020516Y020883D01*
X020516Y020781D01*
X020358Y020781D01*
X020371Y020811D01*
X020371Y020924D01*
X020327Y021029D01*
X020247Y021109D01*
X020142Y021153D01*
X020029Y021153D01*
X019924Y021109D01*
X019844Y021029D01*
X019801Y020924D01*
X019801Y020811D01*
X019813Y020781D01*
X019590Y020781D01*
X019515Y020706D01*
X019439Y020781D01*
X019245Y020781D01*
X019196Y020831D01*
X018927Y021100D01*
X018822Y021205D01*
X018582Y021205D01*
X018595Y021218D01*
X018638Y021323D01*
X018638Y021436D01*
X018595Y021541D01*
X018515Y021621D01*
X018410Y021665D01*
X018297Y021665D01*
X018202Y021625D01*
X018199Y021628D01*
X017932Y021628D01*
X017932Y021894D01*
X017884Y021943D01*
X017884Y022109D01*
X017960Y022185D01*
X018039Y022106D01*
X018380Y022106D01*
X018460Y022185D01*
X018539Y022106D01*
X018880Y022106D01*
X018968Y022193D01*
X018968Y022252D01*
X019005Y022236D01*
X019119Y022236D01*
X019223Y022280D01*
X019304Y022360D01*
X019347Y022465D01*
X019347Y022578D01*
X019304Y022683D01*
X019223Y022763D01*
X019119Y022806D01*
X019005Y022806D01*
X018968Y022791D01*
X018968Y022849D01*
X018880Y022937D01*
X018539Y022937D01*
X018460Y022857D01*
X018402Y022915D01*
X018437Y022950D01*
X018481Y023055D01*
X018481Y023169D01*
X018437Y023273D01*
X018441Y023264D02*
X020431Y023264D01*
X020446Y023362D02*
X018336Y023362D01*
X018481Y023165D02*
X020450Y023165D01*
X020515Y023067D02*
X018481Y023067D01*
X018445Y022968D02*
X020746Y022968D01*
X020773Y022870D02*
X018947Y022870D01*
X019203Y022771D02*
X020850Y022771D01*
X021211Y022771D02*
X021440Y022771D01*
X021364Y022870D02*
X021288Y022870D01*
X021316Y022968D02*
X021336Y022968D01*
X021802Y022771D02*
X022031Y022771D01*
X021954Y022870D02*
X021878Y022870D01*
X021906Y022968D02*
X021927Y022968D01*
X022392Y022771D02*
X022622Y022771D01*
X022545Y022870D02*
X022469Y022870D01*
X022497Y022968D02*
X022517Y022968D01*
X022983Y022771D02*
X023133Y022771D01*
X023314Y022994D02*
X023471Y023151D01*
X024023Y023151D01*
X024003Y023171D01*
X024003Y023939D01*
X023806Y023939D02*
X023806Y023446D01*
X023786Y023427D01*
X023777Y023461D02*
X023803Y023461D01*
X023803Y023487D02*
X023803Y023351D01*
X023389Y023351D01*
X023316Y023279D01*
X023257Y023279D01*
X023153Y023235D01*
X023072Y023155D01*
X023058Y023121D01*
X023044Y023155D01*
X023002Y023197D01*
X023002Y023415D01*
X023140Y023415D01*
X023216Y023490D01*
X023291Y023415D01*
X023730Y023415D01*
X023803Y023487D01*
X023803Y023362D02*
X023002Y023362D01*
X023002Y023264D02*
X023221Y023264D01*
X023083Y023165D02*
X023034Y023165D01*
X023186Y023461D02*
X023245Y023461D01*
X023571Y022870D02*
X033400Y022870D01*
X033400Y022968D02*
X024642Y022968D01*
X024665Y023067D02*
X033400Y023067D01*
X033400Y023165D02*
X024665Y023165D01*
X024665Y023264D02*
X033400Y023264D01*
X033400Y023362D02*
X024614Y023362D01*
X024367Y023461D02*
X033400Y023461D01*
X033400Y023559D02*
X024409Y023559D01*
X024409Y023658D02*
X033400Y023658D01*
X033400Y023756D02*
X024409Y023756D01*
X024409Y023855D02*
X025064Y023855D01*
X025078Y023840D02*
X025275Y023759D01*
X025487Y023759D01*
X025683Y023840D01*
X025833Y023991D01*
X025915Y024187D01*
X025915Y024399D01*
X025833Y024595D01*
X025683Y024745D01*
X025487Y024827D01*
X025275Y024827D01*
X025078Y024745D01*
X024928Y024595D01*
X024847Y024399D01*
X024847Y024187D01*
X024928Y023991D01*
X025078Y023840D01*
X024966Y023953D02*
X024409Y023953D01*
X024409Y024052D02*
X024903Y024052D01*
X024862Y024150D02*
X024409Y024150D01*
X024409Y024249D02*
X024847Y024249D01*
X024847Y024347D02*
X024409Y024347D01*
X024380Y024446D02*
X024866Y024446D01*
X024907Y024544D02*
X024380Y024544D01*
X024421Y024643D02*
X024976Y024643D01*
X025074Y024741D02*
X024462Y024741D01*
X024465Y024840D02*
X026380Y024840D01*
X026542Y025080D02*
X023511Y025080D01*
X023432Y025159D01*
X022802Y025789D01*
X020479Y025789D01*
X020597Y025529D02*
X022037Y025529D01*
X022005Y025431D02*
X013868Y025431D01*
X013868Y025332D02*
X021918Y025332D01*
X021809Y025234D02*
X013868Y025234D01*
X016227Y024883D02*
X016227Y022954D01*
X015597Y022324D01*
X015243Y022324D01*
X015473Y022574D02*
X015564Y022574D01*
X015473Y022673D02*
X015663Y022673D01*
X015761Y022771D02*
X015472Y022771D01*
X015461Y022870D02*
X015860Y022870D01*
X016130Y022574D02*
X016951Y022574D01*
X016951Y022476D02*
X016032Y022476D01*
X015933Y022377D02*
X016951Y022377D01*
X016951Y022279D02*
X015835Y022279D01*
X015736Y022180D02*
X016964Y022180D01*
X017030Y022082D02*
X016328Y022082D01*
X016358Y021983D02*
X017030Y021983D01*
X017030Y021885D02*
X016358Y021885D01*
X016567Y021786D02*
X017030Y021786D01*
X017030Y021688D02*
X016670Y021688D01*
X016709Y021589D02*
X017030Y021589D01*
X017030Y021491D02*
X016709Y021491D01*
X016673Y021392D02*
X017030Y021392D01*
X017030Y021294D02*
X016582Y021294D01*
X016267Y021294D02*
X014960Y021294D01*
X015978Y021195D02*
X017030Y021195D01*
X017030Y021097D02*
X016080Y021097D01*
X016119Y020998D02*
X017102Y020998D01*
X017201Y020900D02*
X016119Y020900D01*
X016082Y020801D02*
X017299Y020801D01*
X017398Y020703D02*
X016644Y020703D01*
X016712Y020604D02*
X017496Y020604D01*
X017595Y020506D02*
X016712Y020506D01*
X016712Y020407D02*
X017693Y020407D01*
X017792Y020309D02*
X016668Y020309D01*
X016358Y020210D02*
X017890Y020210D01*
X017989Y020112D02*
X016358Y020112D01*
X016358Y020013D02*
X018087Y020013D01*
X018186Y019915D02*
X016274Y019915D01*
X015945Y019915D02*
X015883Y019915D01*
X015785Y019816D02*
X018284Y019816D01*
X018383Y019718D02*
X015686Y019718D01*
X015588Y019619D02*
X018481Y019619D01*
X018259Y019324D02*
X018777Y019324D01*
X018580Y019028D02*
X022506Y019028D01*
X022451Y019127D02*
X018267Y019127D01*
X018267Y019225D02*
X022438Y019225D01*
X022460Y019324D02*
X019938Y019324D01*
X020036Y019422D02*
X020412Y019422D01*
X020281Y019521D02*
X020135Y019521D01*
X020233Y019619D02*
X020238Y019619D01*
X020499Y019706D02*
X020519Y019687D01*
X020499Y019706D02*
X020499Y020317D01*
X020516Y020801D02*
X020367Y020801D01*
X020371Y020900D02*
X020532Y020900D01*
X020575Y020998D02*
X020340Y020998D01*
X020260Y021097D02*
X020575Y021097D01*
X020575Y021195D02*
X018832Y021195D01*
X018930Y021097D02*
X019912Y021097D01*
X019831Y020998D02*
X019029Y020998D01*
X019127Y020900D02*
X019801Y020900D01*
X019805Y020801D02*
X019226Y020801D01*
X019456Y020828D02*
X019515Y020769D01*
X019515Y020317D01*
X019318Y020317D02*
X019318Y019706D01*
X019338Y019687D01*
X018679Y018930D02*
X022665Y018930D01*
X022782Y018930D02*
X026077Y018930D01*
X026077Y019028D02*
X022941Y019028D01*
X022996Y019127D02*
X025759Y019127D01*
X025665Y019225D02*
X023008Y019225D01*
X022987Y019324D02*
X025627Y019324D01*
X025627Y019422D02*
X025232Y019422D01*
X025362Y019521D02*
X025666Y019521D01*
X025765Y019619D02*
X025406Y019619D01*
X025411Y019718D02*
X030096Y019718D01*
X030064Y019797D02*
X030145Y019601D01*
X030295Y019451D01*
X030491Y019369D01*
X030704Y019369D01*
X030900Y019451D01*
X031050Y019601D01*
X031131Y019797D01*
X031131Y020009D01*
X031050Y020206D01*
X030900Y020356D01*
X030704Y020437D01*
X030491Y020437D01*
X030295Y020356D01*
X030145Y020206D01*
X030064Y020009D01*
X030064Y019797D01*
X030064Y019816D02*
X025509Y019816D01*
X025802Y019915D02*
X030064Y019915D01*
X030065Y020013D02*
X025826Y020013D01*
X025826Y020112D02*
X030106Y020112D01*
X030150Y020210D02*
X025826Y020210D01*
X025826Y020309D02*
X030248Y020309D01*
X030419Y020407D02*
X025864Y020407D01*
X025963Y020506D02*
X031287Y020506D01*
X031151Y020407D02*
X030775Y020407D01*
X030947Y020309D02*
X031106Y020309D01*
X031100Y020210D02*
X031045Y020210D01*
X031089Y020112D02*
X031129Y020112D01*
X031130Y020013D02*
X031185Y020013D01*
X031185Y019915D02*
X031131Y019915D01*
X031131Y019816D02*
X031185Y019816D01*
X031185Y019718D02*
X031099Y019718D01*
X031058Y019619D02*
X031185Y019619D01*
X031185Y019521D02*
X030970Y019521D01*
X030832Y019422D02*
X031185Y019422D01*
X031185Y019324D02*
X029355Y019324D01*
X029412Y019225D02*
X031185Y019225D01*
X031185Y019127D02*
X030680Y019127D01*
X030767Y019028D02*
X031185Y019028D01*
X031185Y018930D02*
X030767Y018930D01*
X030767Y018831D02*
X031185Y018831D01*
X031185Y018733D02*
X030702Y018733D01*
X030767Y018634D02*
X031185Y018634D01*
X031185Y018536D02*
X030767Y018536D01*
X030767Y018437D02*
X031185Y018437D01*
X031229Y018339D02*
X030767Y018339D01*
X030767Y018240D02*
X031328Y018240D01*
X031426Y018142D02*
X030702Y018142D01*
X030767Y018043D02*
X031525Y018043D01*
X031623Y017945D02*
X030767Y017945D01*
X030767Y017846D02*
X031722Y017846D01*
X031820Y017748D02*
X031561Y017748D01*
X031640Y017649D02*
X031894Y017649D01*
X031894Y017551D02*
X031803Y017551D01*
X032094Y017757D02*
X032094Y016773D01*
X031385Y016065D01*
X031656Y015975D02*
X033400Y015975D01*
X033400Y016073D02*
X031676Y016073D01*
X031775Y016172D02*
X033400Y016172D01*
X033400Y016270D02*
X031873Y016270D01*
X031972Y016369D02*
X033400Y016369D01*
X033400Y016467D02*
X032070Y016467D01*
X032169Y016566D02*
X033400Y016566D01*
X033400Y016664D02*
X032267Y016664D01*
X032294Y016763D02*
X033400Y016763D01*
X033400Y016861D02*
X032294Y016861D01*
X032294Y016960D02*
X033400Y016960D01*
X033400Y017058D02*
X032294Y017058D01*
X032294Y017157D02*
X033400Y017157D01*
X033400Y017255D02*
X032294Y017255D01*
X032294Y017354D02*
X033400Y017354D01*
X033400Y017452D02*
X032294Y017452D01*
X032294Y017551D02*
X033400Y017551D01*
X033400Y017649D02*
X032294Y017649D01*
X032294Y017748D02*
X033400Y017748D01*
X033400Y017846D02*
X032288Y017846D01*
X032189Y017945D02*
X033400Y017945D01*
X033400Y018043D02*
X032091Y018043D01*
X031992Y018142D02*
X033400Y018142D01*
X033400Y018240D02*
X031894Y018240D01*
X031795Y018339D02*
X033400Y018339D01*
X033400Y018437D02*
X031697Y018437D01*
X031598Y018536D02*
X033400Y018536D01*
X033400Y018634D02*
X031585Y018634D01*
X031585Y018733D02*
X033400Y018733D01*
X033400Y018831D02*
X031585Y018831D01*
X031585Y018930D02*
X033400Y018930D01*
X033400Y019028D02*
X031585Y019028D01*
X031585Y019127D02*
X033400Y019127D01*
X033400Y019225D02*
X031585Y019225D01*
X031585Y019324D02*
X033400Y019324D01*
X033400Y019422D02*
X031585Y019422D01*
X031585Y019521D02*
X033400Y019521D01*
X033400Y019619D02*
X032686Y019619D01*
X032652Y019606D02*
X032849Y019687D01*
X032999Y019837D01*
X033080Y020033D01*
X033080Y020246D01*
X032999Y020442D01*
X032849Y020592D01*
X032652Y020673D01*
X032440Y020673D01*
X032244Y020592D01*
X032094Y020442D01*
X032012Y020246D01*
X032012Y020033D01*
X032094Y019837D01*
X032244Y019687D01*
X032440Y019606D01*
X032652Y019606D01*
X032407Y019619D02*
X031585Y019619D01*
X031585Y019718D02*
X032213Y019718D01*
X032114Y019816D02*
X031585Y019816D01*
X031585Y019915D02*
X032061Y019915D01*
X032021Y020013D02*
X031585Y020013D01*
X031641Y020112D02*
X032012Y020112D01*
X032012Y020210D02*
X031670Y020210D01*
X031664Y020309D02*
X032039Y020309D01*
X032079Y020407D02*
X031618Y020407D01*
X031483Y020506D02*
X032158Y020506D01*
X032274Y020604D02*
X026061Y020604D01*
X026160Y020703D02*
X033400Y020703D01*
X033400Y020801D02*
X026211Y020801D01*
X026235Y020900D02*
X033400Y020900D01*
X033400Y020998D02*
X026279Y020998D01*
X026279Y021097D02*
X033400Y021097D01*
X033400Y021195D02*
X026279Y021195D01*
X026275Y021294D02*
X033400Y021294D01*
X033400Y021392D02*
X026279Y021392D01*
X026279Y021491D02*
X033400Y021491D01*
X033400Y021589D02*
X026279Y021589D01*
X026316Y021688D02*
X033400Y021688D01*
X033400Y021786D02*
X026316Y021786D01*
X026276Y021885D02*
X033400Y021885D01*
X033400Y021983D02*
X026173Y021983D01*
X025888Y021983D02*
X024867Y021983D01*
X024898Y021885D02*
X025785Y021885D01*
X025746Y021786D02*
X024894Y021786D01*
X024852Y021688D02*
X025746Y021688D01*
X024926Y021589D02*
X024793Y021589D01*
X024793Y021491D02*
X024916Y021491D01*
X024916Y021392D02*
X024793Y021392D01*
X024793Y021294D02*
X024920Y021294D01*
X024916Y021195D02*
X024793Y021195D01*
X024793Y021097D02*
X024916Y021097D01*
X024916Y020998D02*
X024793Y020998D01*
X024793Y020900D02*
X024960Y020900D01*
X025043Y020801D02*
X024793Y020801D01*
X024633Y020317D02*
X024633Y019706D01*
X024613Y019687D01*
X024507Y019422D02*
X022923Y019422D01*
X022923Y019521D02*
X024376Y019521D01*
X024333Y019619D02*
X022923Y019619D01*
X022923Y019718D02*
X024328Y019718D01*
X024358Y019816D02*
X022923Y019816D01*
X022723Y019923D02*
X022723Y019214D01*
X022341Y019422D02*
X020625Y019422D01*
X020756Y019521D02*
X022211Y019521D01*
X022167Y019619D02*
X020799Y019619D01*
X020804Y019718D02*
X022163Y019718D01*
X022193Y019816D02*
X020773Y019816D01*
X021070Y019805D02*
X021090Y019824D01*
X021090Y020317D01*
X021077Y019915D02*
X021102Y019915D01*
X022172Y019844D02*
X022271Y019943D01*
X022271Y020317D01*
X022468Y020317D02*
X022460Y019698D01*
X022448Y019687D01*
X022262Y019915D02*
X022258Y019915D01*
X022664Y019982D02*
X022723Y019923D01*
X022664Y019982D02*
X022664Y020317D01*
X023255Y020317D02*
X023255Y020730D01*
X023275Y020750D01*
X023238Y020801D02*
X023331Y020801D01*
X023331Y020900D02*
X023182Y020900D01*
X023084Y020998D02*
X023331Y020998D01*
X023331Y021097D02*
X022985Y021097D01*
X022943Y021195D02*
X023331Y021195D01*
X023331Y021294D02*
X022943Y021294D01*
X023011Y021392D02*
X023331Y021392D01*
X023331Y021491D02*
X023048Y021491D01*
X023048Y021589D02*
X023331Y021589D01*
X023272Y021688D02*
X023009Y021688D01*
X022906Y021786D02*
X023230Y021786D01*
X023226Y021885D02*
X022812Y021885D01*
X022781Y021983D02*
X023257Y021983D01*
X023338Y022082D02*
X022700Y022082D01*
X022353Y022082D02*
X022188Y022082D01*
X022269Y021983D02*
X022272Y021983D01*
X021842Y022082D02*
X021440Y022082D01*
X021521Y021983D02*
X021761Y021983D01*
X021730Y021885D02*
X021552Y021885D01*
X021646Y021786D02*
X021733Y021786D01*
X021749Y021688D02*
X021776Y021688D01*
X021788Y021589D02*
X021835Y021589D01*
X021835Y021491D02*
X021788Y021491D01*
X021751Y021392D02*
X021835Y021392D01*
X021835Y021294D02*
X021683Y021294D01*
X021683Y021195D02*
X021835Y021195D01*
X021835Y021097D02*
X021683Y021097D01*
X021706Y020998D02*
X021812Y020998D01*
X023255Y020317D02*
X023255Y019864D01*
X023235Y019844D01*
X023242Y019915D02*
X023267Y019915D01*
X024720Y019422D02*
X025018Y019422D01*
X024888Y019521D02*
X024850Y019521D01*
X025912Y019372D02*
X025932Y019391D01*
X026542Y019391D01*
X027007Y019422D02*
X030363Y019422D01*
X030225Y019521D02*
X026999Y019521D01*
X027007Y019324D02*
X028926Y019324D01*
X028869Y019225D02*
X027007Y019225D01*
X027007Y019127D02*
X028849Y019127D01*
X028751Y019028D02*
X028352Y019028D01*
X028692Y018930D02*
X028723Y018930D01*
X028934Y018929D02*
X029141Y019135D01*
X029426Y019127D02*
X029474Y019127D01*
X029674Y019127D02*
X029806Y019127D01*
X030137Y019619D02*
X026059Y019619D01*
X026066Y019127D02*
X026077Y019127D01*
X026077Y018831D02*
X018717Y018831D01*
X018717Y018733D02*
X026077Y018733D01*
X026077Y018634D02*
X026061Y018634D01*
X025932Y018407D02*
X025912Y018387D01*
X025932Y018407D02*
X026542Y018407D01*
X026077Y018142D02*
X026064Y018142D01*
X026077Y018043D02*
X025590Y018043D01*
X025761Y018142D02*
X018267Y018142D01*
X018267Y018240D02*
X025665Y018240D01*
X025627Y018339D02*
X018267Y018339D01*
X018267Y018437D02*
X025627Y018437D01*
X025665Y018536D02*
X018585Y018536D01*
X018680Y018634D02*
X025764Y018634D01*
X025290Y018043D02*
X018267Y018043D01*
X018267Y017945D02*
X025193Y017945D01*
X025155Y017846D02*
X018267Y017846D01*
X018267Y017748D02*
X025155Y017748D01*
X025193Y017649D02*
X018267Y017649D01*
X018267Y017551D02*
X025289Y017551D01*
X025440Y017797D02*
X025460Y017817D01*
X026542Y017817D01*
X026077Y017551D02*
X025591Y017551D01*
X026077Y017452D02*
X018267Y017452D01*
X018267Y017354D02*
X026077Y017354D01*
X026124Y017255D02*
X018267Y017255D01*
X018267Y017157D02*
X026084Y017157D01*
X026129Y017226D02*
X026109Y017246D01*
X026129Y017226D02*
X026542Y017226D01*
X026077Y017058D02*
X018629Y017058D01*
X018696Y016960D02*
X026077Y016960D01*
X026077Y016861D02*
X018717Y016861D01*
X018704Y016763D02*
X026077Y016763D01*
X026077Y016664D02*
X018647Y016664D01*
X018785Y016467D02*
X025676Y016467D01*
X025632Y016369D02*
X018883Y016369D01*
X018668Y016301D02*
X018905Y016065D01*
X019169Y016172D02*
X025192Y016172D01*
X025155Y016073D02*
X019190Y016073D01*
X019176Y015975D02*
X025155Y015975D01*
X025193Y015876D02*
X019119Y015876D01*
X019102Y016270D02*
X025287Y016270D01*
X025460Y016045D02*
X025440Y016025D01*
X025460Y016045D02*
X026542Y016045D01*
X026542Y016242D02*
X025971Y016242D01*
X025912Y016301D01*
X025807Y016566D02*
X018267Y016566D01*
X018196Y016301D02*
X018668Y016301D01*
X018412Y016045D02*
X018432Y016025D01*
X018412Y016045D02*
X017802Y016045D01*
X017802Y016242D02*
X018137Y016242D01*
X018196Y016301D01*
X018176Y015848D02*
X017802Y015848D01*
X017389Y015848D01*
X017369Y015868D01*
X017385Y015876D02*
X016861Y015876D01*
X016869Y015884D02*
X016869Y016072D01*
X017215Y016072D01*
X017303Y016160D01*
X017303Y016255D01*
X017337Y016290D01*
X017337Y016166D01*
X017337Y015924D01*
X017413Y015848D01*
X017396Y015831D01*
X017314Y015831D01*
X017255Y015772D01*
X013979Y015772D01*
X013625Y016126D01*
X012893Y016126D01*
X012893Y016396D01*
X015318Y016396D01*
X015554Y016633D01*
X017171Y016633D01*
X017107Y016569D01*
X016854Y016569D01*
X016818Y016533D01*
X016782Y016569D01*
X016421Y016569D01*
X016333Y016481D01*
X016220Y016481D01*
X016191Y016510D01*
X015870Y016510D01*
X015850Y016490D01*
X015838Y016503D01*
X015733Y016546D01*
X015619Y016546D01*
X015515Y016503D01*
X015435Y016423D01*
X015391Y016318D01*
X015391Y016205D01*
X015435Y016100D01*
X015515Y016020D01*
X015619Y015976D01*
X015733Y015976D01*
X015838Y016020D01*
X015870Y016052D01*
X016191Y016052D01*
X016220Y016081D01*
X016333Y016081D01*
X016333Y015884D01*
X016421Y015796D01*
X016782Y015796D01*
X016869Y015884D01*
X016869Y015975D02*
X017337Y015975D01*
X017337Y016073D02*
X017216Y016073D01*
X017303Y016172D02*
X017337Y016172D01*
X017337Y016270D02*
X017318Y016270D01*
X016851Y016566D02*
X016785Y016566D01*
X016601Y016320D02*
X016562Y016281D01*
X016031Y016281D01*
X015696Y016281D01*
X015676Y016261D01*
X015391Y016270D02*
X012893Y016270D01*
X012893Y016172D02*
X015405Y016172D01*
X015461Y016073D02*
X013678Y016073D01*
X013776Y015975D02*
X016333Y015975D01*
X016333Y016073D02*
X016212Y016073D01*
X016341Y015876D02*
X013875Y015876D01*
X013973Y015778D02*
X017261Y015778D01*
X018176Y015848D02*
X018275Y015750D01*
X018285Y015778D02*
X018262Y015778D01*
X018267Y015679D02*
X025649Y015679D01*
X025627Y015778D02*
X025587Y015778D01*
X025718Y015581D02*
X018267Y015581D01*
X018267Y015482D02*
X026077Y015482D01*
X026077Y015384D02*
X018267Y015384D01*
X018267Y015285D02*
X026077Y015285D01*
X026077Y015187D02*
X018267Y015187D01*
X018267Y015088D02*
X026077Y015088D01*
X026077Y014990D02*
X018267Y014990D01*
X018219Y014891D02*
X026126Y014891D01*
X026090Y014864D02*
X026070Y014883D01*
X026090Y014864D02*
X026542Y014864D01*
X026082Y014793D02*
X018262Y014793D01*
X018216Y014864D02*
X018235Y014883D01*
X018216Y014864D02*
X017802Y014864D01*
X018267Y014694D02*
X026077Y014694D01*
X026077Y014596D02*
X018267Y014596D01*
X018267Y014497D02*
X026077Y014497D01*
X026077Y014399D02*
X018267Y014399D01*
X018267Y014300D02*
X026077Y014300D01*
X026077Y014202D02*
X018267Y014202D01*
X018267Y014103D02*
X026077Y014103D01*
X026077Y014005D02*
X018267Y014005D01*
X018267Y013906D02*
X026077Y013906D01*
X026077Y013808D02*
X018267Y013808D01*
X018432Y013506D02*
X018412Y013486D01*
X017802Y013486D01*
X018267Y013217D02*
X025647Y013217D01*
X025627Y013118D02*
X018267Y013118D01*
X018503Y013020D02*
X025642Y013020D01*
X025700Y012921D02*
X022568Y012921D01*
X022657Y012823D02*
X026081Y012823D01*
X026031Y012797D02*
X026129Y012895D01*
X026542Y012895D01*
X026956Y012895D01*
X026975Y012876D01*
X026958Y012921D02*
X028447Y012921D01*
X028575Y012921D02*
X028919Y012921D01*
X028821Y013020D02*
X027007Y013020D01*
X027004Y012823D02*
X028291Y012823D01*
X028238Y012724D02*
X027253Y012724D01*
X027342Y012626D02*
X028226Y012626D01*
X028249Y012527D02*
X027379Y012527D01*
X027379Y012429D02*
X028318Y012429D01*
X028451Y011936D02*
X028570Y011936D01*
X028924Y011936D02*
X029039Y011936D01*
X029039Y012035D02*
X025745Y012035D01*
X025826Y011936D02*
X026611Y011936D01*
X026589Y011838D02*
X025826Y011838D01*
X025945Y011739D02*
X026589Y011739D01*
X026589Y011641D02*
X026178Y011641D01*
X026200Y011542D02*
X026589Y011542D01*
X026589Y011444D02*
X026200Y011444D01*
X026200Y011345D02*
X026589Y011345D01*
X026589Y011247D02*
X026200Y011247D01*
X026200Y011148D02*
X026589Y011148D01*
X026589Y011050D02*
X026200Y011050D01*
X026209Y010951D02*
X026589Y010951D01*
X026589Y010853D02*
X026237Y010853D01*
X026230Y010754D02*
X027534Y010754D01*
X027538Y010853D02*
X027283Y010853D01*
X027283Y010951D02*
X027585Y010951D01*
X027635Y011050D02*
X027283Y011050D01*
X027567Y010656D02*
X026182Y010656D01*
X026042Y010557D02*
X027661Y010557D01*
X027571Y010459D02*
X025620Y010459D01*
X025620Y010557D02*
X025861Y010557D01*
X025721Y010656D02*
X025620Y010656D01*
X025620Y010754D02*
X025674Y010754D01*
X025667Y010853D02*
X025620Y010853D01*
X025620Y010951D02*
X025694Y010951D01*
X025703Y011050D02*
X025620Y011050D01*
X025620Y010360D02*
X027534Y010360D01*
X027535Y010262D02*
X025622Y010262D01*
X025698Y010163D02*
X027576Y010163D01*
X027644Y010065D02*
X025725Y010065D01*
X025718Y009966D02*
X027563Y009966D01*
X027534Y009868D02*
X025670Y009868D01*
X025630Y009769D02*
X027543Y009769D01*
X027596Y009671D02*
X025570Y009671D01*
X025570Y009572D02*
X028096Y009572D01*
X028069Y009671D02*
X028008Y009671D01*
X028027Y009474D02*
X025550Y009474D01*
X025588Y009263D02*
X025361Y009263D01*
X025164Y009263D01*
X024968Y009263D01*
X024771Y009263D01*
X024082Y009263D01*
X023885Y009263D01*
X023688Y009263D01*
X023491Y009263D01*
X023282Y009277D02*
X022777Y009277D01*
X022812Y009178D02*
X023282Y009178D01*
X023170Y009080D02*
X022812Y009080D01*
X022771Y008981D02*
X023118Y008981D01*
X023108Y008883D02*
X022661Y008883D01*
X022392Y008883D02*
X022165Y008883D01*
X022184Y008784D02*
X023132Y008784D01*
X023193Y008686D02*
X022184Y008686D01*
X022184Y008587D02*
X023193Y008587D01*
X023193Y008489D02*
X022175Y008489D01*
X022389Y008446D02*
X022408Y008466D01*
X022389Y008446D02*
X022389Y007954D01*
X021786Y007996D02*
X021173Y007996D01*
X021116Y008053D02*
X021267Y007902D01*
X021348Y007706D01*
X021348Y007494D01*
X021267Y007298D01*
X021116Y007147D01*
X020920Y007066D01*
X020708Y007066D01*
X020512Y007147D01*
X020361Y007298D01*
X020280Y007494D01*
X020280Y007706D01*
X020361Y007902D01*
X020512Y008053D01*
X020708Y008134D01*
X020920Y008134D01*
X021116Y008053D01*
X021015Y008095D02*
X021786Y008095D01*
X021786Y008193D02*
X017996Y008193D01*
X017972Y008095D02*
X020613Y008095D01*
X020455Y007996D02*
X017932Y007996D01*
X017839Y007898D02*
X020359Y007898D01*
X020319Y007799D02*
X017654Y007799D01*
X017439Y007799D02*
X016654Y007799D01*
X016839Y007898D02*
X017254Y007898D01*
X017161Y007996D02*
X016932Y007996D01*
X016972Y008095D02*
X017120Y008095D01*
X017096Y008193D02*
X016996Y008193D01*
X016996Y008292D02*
X017096Y008292D01*
X017121Y008390D02*
X016972Y008390D01*
X017048Y008489D02*
X017162Y008489D01*
X017146Y008587D02*
X017255Y008587D01*
X017234Y008686D02*
X017442Y008686D01*
X017650Y008686D02*
X017728Y008686D01*
X017826Y008784D02*
X017234Y008784D01*
X016874Y008883D02*
X016824Y008883D01*
X016834Y008784D02*
X016250Y008784D01*
X016245Y008686D02*
X016442Y008686D01*
X016650Y008686D02*
X016736Y008686D01*
X016255Y008587D02*
X016146Y008587D01*
X016162Y008489D02*
X016048Y008489D01*
X016121Y008390D02*
X015972Y008390D01*
X015996Y008292D02*
X016096Y008292D01*
X016096Y008193D02*
X015996Y008193D01*
X015972Y008095D02*
X016120Y008095D01*
X016161Y007996D02*
X015932Y007996D01*
X015839Y007898D02*
X016254Y007898D01*
X016439Y007799D02*
X015654Y007799D01*
X015439Y007799D02*
X014654Y007799D01*
X014638Y007701D02*
X020280Y007701D01*
X020280Y007602D02*
X014736Y007602D01*
X014835Y007504D02*
X020280Y007504D01*
X020317Y007405D02*
X014933Y007405D01*
X015032Y007307D02*
X020358Y007307D01*
X020451Y007208D02*
X015130Y007208D01*
X015229Y007110D02*
X020603Y007110D01*
X021025Y007110D02*
X021887Y007110D01*
X021897Y007208D02*
X021177Y007208D01*
X021270Y007307D02*
X021948Y007307D01*
X022012Y007405D02*
X021311Y007405D01*
X021348Y007504D02*
X021800Y007504D01*
X021786Y007602D02*
X021348Y007602D01*
X021348Y007701D02*
X021786Y007701D01*
X021786Y007799D02*
X021309Y007799D01*
X021268Y007898D02*
X021786Y007898D01*
X021815Y008489D02*
X018040Y008489D01*
X017963Y008412D02*
X017996Y008331D01*
X018138Y008587D02*
X021688Y008587D01*
X021688Y008686D02*
X018237Y008686D01*
X018335Y008784D02*
X021688Y008784D01*
X021707Y008883D02*
X018434Y008883D01*
X018532Y008981D02*
X021688Y008981D01*
X021688Y009080D02*
X018631Y009080D01*
X018729Y009178D02*
X021688Y009178D01*
X021747Y009277D02*
X019379Y009277D01*
X019478Y009375D02*
X022363Y009375D01*
X022277Y009277D02*
X022125Y009277D01*
X021699Y009474D02*
X023302Y009474D01*
X023282Y009572D02*
X021712Y009572D01*
X021712Y009671D02*
X023282Y009671D01*
X023223Y009769D02*
X022419Y009769D01*
X022560Y009868D02*
X023223Y009868D01*
X023223Y009966D02*
X022607Y009966D01*
X022615Y010065D02*
X023223Y010065D01*
X023222Y010163D02*
X022588Y010163D01*
X022512Y010262D02*
X023163Y010262D01*
X023147Y010360D02*
X022510Y010360D01*
X022510Y010459D02*
X023166Y010459D01*
X023230Y010557D02*
X022510Y010557D01*
X022510Y010656D02*
X023252Y010656D01*
X023252Y010754D02*
X022510Y010754D01*
X022510Y010853D02*
X023252Y010853D01*
X023252Y010951D02*
X022510Y010951D01*
X022510Y011050D02*
X023252Y011050D01*
X022900Y011148D02*
X022822Y011148D01*
X022842Y011143D02*
X022861Y011163D01*
X022861Y011576D01*
X022861Y011990D01*
X022960Y012088D01*
X022962Y012133D02*
X023548Y012133D01*
X023541Y012232D02*
X022969Y012232D01*
X022941Y012330D02*
X023569Y012330D01*
X023645Y012429D02*
X022865Y012429D01*
X022654Y012527D02*
X026077Y012527D01*
X026077Y012429D02*
X024006Y012429D01*
X024083Y012330D02*
X026127Y012330D01*
X026077Y012626D02*
X022693Y012626D01*
X022693Y012724D02*
X026077Y012724D01*
X025932Y013092D02*
X025912Y013112D01*
X025932Y013092D02*
X026542Y013092D01*
X026077Y013414D02*
X018703Y013414D01*
X018717Y013512D02*
X026077Y013512D01*
X026077Y013611D02*
X018697Y013611D01*
X018631Y013709D02*
X026077Y013709D01*
X025713Y013315D02*
X018645Y013315D01*
X018602Y012921D02*
X022249Y012921D01*
X022160Y012823D02*
X018700Y012823D01*
X018770Y012724D02*
X022123Y012724D01*
X022123Y012626D02*
X018770Y012626D01*
X018770Y012527D02*
X022163Y012527D01*
X022208Y012429D02*
X022077Y012429D01*
X022154Y012330D02*
X022208Y012330D01*
X022208Y012232D02*
X022182Y012232D01*
X022175Y012133D02*
X022208Y012133D01*
X022408Y011970D02*
X022408Y012679D01*
X022684Y012206D02*
X022664Y012187D01*
X022664Y011576D01*
X022468Y011576D02*
X022468Y011911D01*
X022408Y011970D01*
X021897Y012206D02*
X021877Y012187D01*
X021877Y011576D01*
X021286Y011576D02*
X021286Y012029D01*
X021109Y012206D01*
X020852Y012330D02*
X018770Y012330D01*
X018770Y012232D02*
X020824Y012232D01*
X020831Y012133D02*
X018996Y012133D01*
X018770Y012429D02*
X020929Y012429D01*
X021290Y012429D02*
X021716Y012429D01*
X021640Y012330D02*
X021366Y012330D01*
X021394Y012232D02*
X021612Y012232D01*
X021618Y012133D02*
X021465Y012133D01*
X021027Y011050D02*
X020876Y011050D01*
X020876Y010951D02*
X021047Y010951D01*
X021047Y010853D02*
X020876Y010853D01*
X020857Y010754D02*
X021047Y010754D01*
X021047Y010656D02*
X020758Y010656D01*
X020660Y010557D02*
X021047Y010557D01*
X021047Y010459D02*
X020561Y010459D01*
X020463Y010360D02*
X021047Y010360D01*
X021045Y010262D02*
X020364Y010262D01*
X020266Y010163D02*
X020970Y010163D01*
X020942Y010065D02*
X020167Y010065D01*
X020069Y009966D02*
X020950Y009966D01*
X020997Y009868D02*
X019970Y009868D01*
X019872Y009769D02*
X021139Y009769D01*
X021255Y009671D02*
X019773Y009671D01*
X019675Y009572D02*
X021255Y009572D01*
X021267Y009474D02*
X019576Y009474D01*
X018418Y010754D02*
X014273Y010754D01*
X014262Y010656D02*
X015682Y010656D01*
X015584Y010557D02*
X014262Y010557D01*
X014262Y010459D02*
X015485Y010459D01*
X015387Y010360D02*
X014262Y010360D01*
X014262Y010262D02*
X015288Y010262D01*
X015190Y010163D02*
X014262Y010163D01*
X014262Y010065D02*
X015091Y010065D01*
X014993Y009966D02*
X014262Y009966D01*
X014262Y009868D02*
X014894Y009868D01*
X014796Y009769D02*
X014262Y009769D01*
X014262Y009671D02*
X014406Y009671D01*
X014686Y009671D02*
X014697Y009671D01*
X013862Y009671D02*
X012757Y009671D01*
X012757Y009769D02*
X013862Y009769D01*
X013862Y009868D02*
X012757Y009868D01*
X012757Y009966D02*
X013370Y009966D01*
X013224Y010065D02*
X012829Y010065D01*
X012901Y010163D02*
X013152Y010163D01*
X013111Y010262D02*
X012942Y010262D01*
X012947Y010360D02*
X013107Y010360D01*
X013115Y010459D02*
X012939Y010459D01*
X012898Y010557D02*
X013155Y010557D01*
X013232Y010656D02*
X012821Y010656D01*
X012232Y010656D02*
X011947Y010656D01*
X011947Y010557D02*
X012155Y010557D01*
X012115Y010459D02*
X011947Y010459D01*
X011947Y010360D02*
X012107Y010360D01*
X012111Y010262D02*
X011947Y010262D01*
X011947Y010163D02*
X012152Y010163D01*
X012224Y010065D02*
X011947Y010065D01*
X011889Y009966D02*
X012297Y009966D01*
X012297Y009868D02*
X003757Y009868D01*
X003757Y009966D02*
X004370Y009966D01*
X004224Y010065D02*
X003829Y010065D01*
X003883Y010118D02*
X003947Y010272D01*
X003947Y010439D01*
X003883Y010594D01*
X003764Y010712D01*
X003610Y010776D01*
X003443Y010776D01*
X003289Y010712D01*
X003171Y010594D01*
X003107Y010439D01*
X003107Y010272D01*
X003171Y010118D01*
X003289Y010000D01*
X003297Y009997D01*
X003297Y009625D01*
X003291Y009623D01*
X003165Y009497D01*
X003096Y009331D01*
X003096Y009152D01*
X003165Y008987D01*
X003291Y008860D01*
X003316Y008850D01*
X003316Y008634D01*
X003291Y008623D01*
X003165Y008497D01*
X003096Y008331D01*
X003096Y008152D01*
X003165Y007987D01*
X003291Y007860D01*
X003457Y007792D01*
X003636Y007792D01*
X003801Y007860D01*
X003928Y007987D01*
X003996Y008152D01*
X003996Y008331D01*
X003928Y008497D01*
X003801Y008623D01*
X003776Y008634D01*
X003776Y008850D01*
X003801Y008860D01*
X003928Y008987D01*
X003996Y009152D01*
X003996Y009331D01*
X003928Y009497D01*
X003801Y009623D01*
X003757Y009642D01*
X003757Y009997D01*
X003764Y010000D01*
X003883Y010118D01*
X003901Y010163D02*
X004152Y010163D01*
X004111Y010262D02*
X003942Y010262D01*
X003947Y010360D02*
X004107Y010360D01*
X004115Y010459D02*
X003939Y010459D01*
X003898Y010557D02*
X004155Y010557D01*
X004232Y010656D02*
X003821Y010656D01*
X003662Y010754D02*
X004391Y010754D01*
X004698Y010853D02*
X001023Y010853D01*
X001023Y010951D02*
X004797Y010951D01*
X004895Y011050D02*
X001023Y011050D01*
X001023Y011148D02*
X004994Y011148D01*
X005152Y010656D02*
X011107Y010656D01*
X011107Y010557D02*
X005053Y010557D01*
X004955Y010459D02*
X011107Y010459D01*
X011107Y010360D02*
X004947Y010360D01*
X004942Y010262D02*
X011107Y010262D01*
X011107Y010163D02*
X004901Y010163D01*
X004829Y010065D02*
X011107Y010065D01*
X011164Y009966D02*
X004683Y009966D01*
X005165Y009497D02*
X005096Y009331D01*
X005096Y009152D01*
X005165Y008987D01*
X005291Y008860D01*
X005457Y008792D01*
X005636Y008792D01*
X005801Y008860D01*
X005928Y008987D01*
X005996Y009152D01*
X005996Y009331D01*
X005928Y009497D01*
X005801Y009623D01*
X005636Y009692D01*
X005457Y009692D01*
X005291Y009623D01*
X005165Y009497D01*
X005155Y009474D02*
X003937Y009474D01*
X003978Y009375D02*
X005114Y009375D01*
X005096Y009277D02*
X003996Y009277D01*
X003996Y009178D02*
X005096Y009178D01*
X005126Y009080D02*
X003966Y009080D01*
X003922Y008981D02*
X005170Y008981D01*
X005269Y008883D02*
X003824Y008883D01*
X003776Y008784D02*
X012316Y008784D01*
X012316Y008686D02*
X008650Y008686D01*
X008636Y008692D02*
X008457Y008692D01*
X008291Y008623D01*
X008165Y008497D01*
X008096Y008331D01*
X008096Y008152D01*
X008165Y007987D01*
X008291Y007860D01*
X008457Y007792D01*
X008636Y007792D01*
X008801Y007860D01*
X008928Y007987D01*
X008996Y008152D01*
X008996Y008331D01*
X008928Y008497D01*
X008801Y008623D01*
X008636Y008692D01*
X008442Y008686D02*
X007650Y008686D01*
X007636Y008692D02*
X007457Y008692D01*
X007291Y008623D01*
X007165Y008497D01*
X007096Y008331D01*
X007096Y008152D01*
X007165Y007987D01*
X007291Y007860D01*
X007457Y007792D01*
X007636Y007792D01*
X007801Y007860D01*
X007928Y007987D01*
X007996Y008152D01*
X007996Y008331D01*
X007928Y008497D01*
X007801Y008623D01*
X007636Y008692D01*
X007636Y008792D02*
X007801Y008860D01*
X007928Y008987D01*
X007996Y009152D01*
X007996Y009331D01*
X007928Y009497D01*
X007801Y009623D01*
X007636Y009692D01*
X007457Y009692D01*
X007291Y009623D01*
X007165Y009497D01*
X007096Y009331D01*
X007096Y009152D01*
X007165Y008987D01*
X007291Y008860D01*
X007457Y008792D01*
X007636Y008792D01*
X007824Y008883D02*
X008096Y008883D01*
X008096Y008880D02*
X008184Y008792D01*
X008908Y008792D01*
X008996Y008880D01*
X008996Y009604D01*
X008908Y009692D01*
X008184Y009692D01*
X008096Y009604D01*
X008096Y008880D01*
X008096Y008981D02*
X007922Y008981D01*
X007966Y009080D02*
X008096Y009080D01*
X008096Y009178D02*
X007996Y009178D01*
X007996Y009277D02*
X008096Y009277D01*
X008096Y009375D02*
X007978Y009375D01*
X007937Y009474D02*
X008096Y009474D01*
X008096Y009572D02*
X007852Y009572D01*
X007686Y009671D02*
X008163Y009671D01*
X007406Y009671D02*
X006686Y009671D01*
X006636Y009692D02*
X006457Y009692D01*
X006291Y009623D01*
X006165Y009497D01*
X006096Y009331D01*
X006096Y009152D01*
X006165Y008987D01*
X006291Y008860D01*
X006457Y008792D01*
X006636Y008792D01*
X006801Y008860D01*
X006928Y008987D01*
X006996Y009152D01*
X006996Y009331D01*
X006928Y009497D01*
X006801Y009623D01*
X006636Y009692D01*
X006406Y009671D02*
X005686Y009671D01*
X005852Y009572D02*
X006240Y009572D01*
X006155Y009474D02*
X005937Y009474D01*
X005978Y009375D02*
X006114Y009375D01*
X006096Y009277D02*
X005996Y009277D01*
X005996Y009178D02*
X006096Y009178D01*
X006126Y009080D02*
X005966Y009080D01*
X005922Y008981D02*
X006170Y008981D01*
X006269Y008883D02*
X005824Y008883D01*
X005801Y008623D02*
X005636Y008692D01*
X005457Y008692D01*
X005291Y008623D01*
X005165Y008497D01*
X005096Y008331D01*
X005096Y008152D01*
X005165Y007987D01*
X005291Y007860D01*
X005457Y007792D01*
X005636Y007792D01*
X005801Y007860D01*
X005928Y007987D01*
X005996Y008152D01*
X005996Y008331D01*
X005928Y008497D01*
X005801Y008623D01*
X005837Y008587D02*
X006255Y008587D01*
X006291Y008623D02*
X006165Y008497D01*
X006096Y008331D01*
X006096Y008152D01*
X006165Y007987D01*
X006291Y007860D01*
X006457Y007792D01*
X006636Y007792D01*
X006801Y007860D01*
X006928Y007987D01*
X006996Y008152D01*
X006996Y008331D01*
X006928Y008497D01*
X006801Y008623D01*
X006636Y008692D01*
X006457Y008692D01*
X006291Y008623D01*
X006442Y008686D02*
X005650Y008686D01*
X005442Y008686D02*
X003776Y008686D01*
X003837Y008587D02*
X005255Y008587D01*
X005162Y008489D02*
X003931Y008489D01*
X003972Y008390D02*
X005121Y008390D01*
X005096Y008292D02*
X003996Y008292D01*
X003996Y008193D02*
X005096Y008193D01*
X005120Y008095D02*
X003972Y008095D01*
X003932Y007996D02*
X005161Y007996D01*
X005254Y007898D02*
X003839Y007898D01*
X003654Y007799D02*
X005439Y007799D01*
X005654Y007799D02*
X006439Y007799D01*
X006254Y007898D02*
X005839Y007898D01*
X005932Y007996D02*
X006161Y007996D01*
X006120Y008095D02*
X005972Y008095D01*
X005996Y008193D02*
X006096Y008193D01*
X006096Y008292D02*
X005996Y008292D01*
X005972Y008390D02*
X006121Y008390D01*
X006162Y008489D02*
X005931Y008489D01*
X006650Y008686D02*
X007442Y008686D01*
X007255Y008587D02*
X006837Y008587D01*
X006931Y008489D02*
X007162Y008489D01*
X007121Y008390D02*
X006972Y008390D01*
X006996Y008292D02*
X007096Y008292D01*
X007096Y008193D02*
X006996Y008193D01*
X006972Y008095D02*
X007120Y008095D01*
X007161Y007996D02*
X006932Y007996D01*
X006839Y007898D02*
X007254Y007898D01*
X007439Y007799D02*
X006654Y007799D01*
X007654Y007799D02*
X008439Y007799D01*
X008254Y007898D02*
X007839Y007898D01*
X007932Y007996D02*
X008161Y007996D01*
X008120Y008095D02*
X007972Y008095D01*
X007996Y008193D02*
X008096Y008193D01*
X008096Y008292D02*
X007996Y008292D01*
X007972Y008390D02*
X008121Y008390D01*
X008162Y008489D02*
X007931Y008489D01*
X007837Y008587D02*
X008255Y008587D01*
X008837Y008587D02*
X012255Y008587D01*
X012162Y008489D02*
X008931Y008489D01*
X008972Y008390D02*
X012121Y008390D01*
X012096Y008292D02*
X008996Y008292D01*
X008996Y008193D02*
X012096Y008193D01*
X012120Y008095D02*
X008972Y008095D01*
X008932Y007996D02*
X012161Y007996D01*
X012254Y007898D02*
X008839Y007898D01*
X008654Y007799D02*
X012439Y007799D01*
X012654Y007799D02*
X013974Y007799D01*
X014072Y007701D02*
X001023Y007701D01*
X001023Y007799D02*
X003439Y007799D01*
X003254Y007898D02*
X001023Y007898D01*
X001023Y007996D02*
X003161Y007996D01*
X003120Y008095D02*
X001023Y008095D01*
X001023Y008193D02*
X003096Y008193D01*
X003096Y008292D02*
X001023Y008292D01*
X001023Y008390D02*
X003121Y008390D01*
X003162Y008489D02*
X001023Y008489D01*
X001023Y008587D02*
X003255Y008587D01*
X003316Y008686D02*
X001023Y008686D01*
X001023Y008784D02*
X003316Y008784D01*
X003269Y008883D02*
X001023Y008883D01*
X001023Y008981D02*
X003170Y008981D01*
X003126Y009080D02*
X001023Y009080D01*
X001023Y009178D02*
X003096Y009178D01*
X003096Y009277D02*
X001023Y009277D01*
X001023Y009375D02*
X003114Y009375D01*
X003155Y009474D02*
X001023Y009474D01*
X001023Y009572D02*
X003240Y009572D01*
X003297Y009671D02*
X001023Y009671D01*
X001023Y009769D02*
X003297Y009769D01*
X003297Y009868D02*
X001023Y009868D01*
X001023Y009966D02*
X002164Y009966D01*
X002194Y009936D02*
X002859Y009936D01*
X002947Y010024D01*
X002947Y010688D01*
X002859Y010776D01*
X002194Y010776D01*
X002107Y010688D01*
X002107Y010024D01*
X002194Y009936D01*
X002107Y010065D02*
X001023Y010065D01*
X001023Y010163D02*
X002107Y010163D01*
X002107Y010262D02*
X001023Y010262D01*
X001023Y010360D02*
X002107Y010360D01*
X002107Y010459D02*
X001023Y010459D01*
X001023Y010557D02*
X002107Y010557D01*
X002107Y010656D02*
X001023Y010656D01*
X001023Y010754D02*
X002173Y010754D01*
X002880Y010754D02*
X003391Y010754D01*
X003232Y010656D02*
X002947Y010656D01*
X002947Y010557D02*
X003155Y010557D01*
X003115Y010459D02*
X002947Y010459D01*
X002947Y010360D02*
X003107Y010360D01*
X003111Y010262D02*
X002947Y010262D01*
X002947Y010163D02*
X003152Y010163D01*
X003224Y010065D02*
X002947Y010065D01*
X002889Y009966D02*
X003297Y009966D01*
X003757Y009769D02*
X012297Y009769D01*
X012297Y009671D02*
X008929Y009671D01*
X008996Y009572D02*
X012240Y009572D01*
X012155Y009474D02*
X008996Y009474D01*
X008996Y009375D02*
X012114Y009375D01*
X012096Y009277D02*
X008996Y009277D01*
X008996Y009178D02*
X012096Y009178D01*
X012126Y009080D02*
X008996Y009080D01*
X008996Y008981D02*
X012170Y008981D01*
X012269Y008883D02*
X008996Y008883D01*
X007269Y008883D02*
X006824Y008883D01*
X006922Y008981D02*
X007170Y008981D01*
X007126Y009080D02*
X006966Y009080D01*
X006996Y009178D02*
X007096Y009178D01*
X007096Y009277D02*
X006996Y009277D01*
X006978Y009375D02*
X007114Y009375D01*
X007155Y009474D02*
X006937Y009474D01*
X006852Y009572D02*
X007240Y009572D01*
X005406Y009671D02*
X003757Y009671D01*
X003852Y009572D02*
X005240Y009572D01*
X006735Y011444D02*
X001023Y011444D01*
X001023Y011542D02*
X006637Y011542D01*
X006538Y011641D02*
X001023Y011641D01*
X001023Y011739D02*
X006440Y011739D01*
X006341Y011838D02*
X001023Y011838D01*
X001023Y011936D02*
X006243Y011936D01*
X006144Y012035D02*
X001023Y012035D01*
X001023Y012133D02*
X006046Y012133D01*
X004660Y012232D02*
X001023Y012232D01*
X001023Y012330D02*
X004561Y012330D01*
X004463Y012429D02*
X001023Y012429D01*
X001023Y012527D02*
X001807Y012527D01*
X001781Y012553D02*
X001869Y012465D01*
X002593Y012465D01*
X002681Y012553D01*
X002681Y013277D01*
X002593Y013365D01*
X001869Y013365D01*
X001781Y013277D01*
X001781Y012553D01*
X001781Y012626D02*
X001023Y012626D01*
X001023Y012724D02*
X001781Y012724D01*
X001781Y012823D02*
X001023Y012823D01*
X001023Y012921D02*
X001781Y012921D01*
X001781Y013020D02*
X001023Y013020D01*
X001023Y013118D02*
X001781Y013118D01*
X001781Y013217D02*
X001023Y013217D01*
X001023Y013315D02*
X001819Y013315D01*
X001023Y013414D02*
X004476Y013414D01*
X004574Y013512D02*
X001023Y013512D01*
X001023Y013611D02*
X005448Y013611D01*
X005547Y013709D02*
X001023Y013709D01*
X001023Y013808D02*
X006393Y013808D01*
X006492Y013906D02*
X001023Y013906D01*
X001919Y014005D02*
X006590Y014005D01*
X006689Y014103D02*
X001988Y014103D01*
X001988Y014202D02*
X006787Y014202D01*
X006663Y014300D02*
X002932Y014300D01*
X002932Y014290D02*
X002932Y015241D01*
X002845Y015329D01*
X002090Y015329D01*
X002003Y015241D01*
X002003Y014290D01*
X002090Y014202D01*
X002845Y014202D01*
X002932Y014290D01*
X002932Y014399D02*
X006648Y014399D01*
X006648Y014497D02*
X005695Y014497D01*
X005500Y014497D02*
X002932Y014497D01*
X002932Y014596D02*
X005364Y014596D01*
X005318Y014694D02*
X003884Y014694D01*
X004020Y014793D02*
X005312Y014793D01*
X005341Y014891D02*
X004066Y014891D01*
X004071Y014990D02*
X005419Y014990D01*
X006018Y015088D02*
X004043Y015088D01*
X004035Y015187D02*
X006018Y015187D01*
X006018Y015285D02*
X004035Y015285D01*
X004035Y015384D02*
X006043Y015384D01*
X006247Y015198D02*
X006267Y015218D01*
X007084Y015218D01*
X007084Y015021D02*
X007428Y015021D01*
X007527Y014923D01*
X007519Y014940D02*
X007480Y014979D01*
X011077Y014979D01*
X011077Y014906D01*
X011159Y014824D01*
X011077Y014743D01*
X011077Y014315D01*
X011165Y014228D01*
X011860Y014228D01*
X011948Y014315D01*
X011948Y014743D01*
X011867Y014824D01*
X011948Y014906D01*
X011948Y015018D01*
X012455Y015018D01*
X012523Y014950D01*
X012805Y014950D01*
X012893Y015038D01*
X012893Y015294D01*
X013239Y015294D01*
X013594Y014940D01*
X016431Y014940D01*
X016415Y014901D01*
X016415Y014787D01*
X016458Y014683D01*
X016538Y014602D01*
X016620Y014569D01*
X016538Y014535D01*
X016458Y014454D01*
X016415Y014350D01*
X016415Y014236D01*
X016458Y014131D01*
X016538Y014051D01*
X016620Y014017D01*
X016538Y013983D01*
X016458Y013903D01*
X016415Y013798D01*
X016415Y013685D01*
X016458Y013580D01*
X016538Y013500D01*
X016573Y013486D01*
X016538Y013472D01*
X016458Y013391D01*
X016415Y013287D01*
X016415Y013173D01*
X016458Y013068D01*
X016538Y012988D01*
X016643Y012945D01*
X016756Y012945D01*
X016769Y012950D01*
X016769Y012898D01*
X016813Y012793D01*
X016893Y012713D01*
X016997Y012669D01*
X017111Y012669D01*
X017216Y012713D01*
X017277Y012774D01*
X017289Y012774D01*
X017189Y012675D01*
X017189Y012241D01*
X017176Y012229D01*
X014251Y012229D01*
X014304Y012281D01*
X014347Y012386D01*
X014347Y012499D01*
X014304Y012604D01*
X014223Y012684D01*
X014119Y012728D01*
X014102Y012728D01*
X012678Y014152D01*
X012678Y014317D01*
X012689Y014328D01*
X012733Y014433D01*
X012733Y014546D01*
X012689Y014651D01*
X012609Y014731D01*
X012505Y014775D01*
X012391Y014775D01*
X012286Y014731D01*
X012206Y014651D01*
X012163Y014546D01*
X012163Y014433D01*
X012206Y014328D01*
X012218Y014317D01*
X012218Y013961D01*
X013777Y012402D01*
X013777Y012386D01*
X013820Y012281D01*
X013873Y012229D01*
X007483Y012229D01*
X007411Y012301D01*
X007411Y012502D01*
X007486Y012533D01*
X007613Y012660D01*
X007644Y012735D01*
X007877Y012735D01*
X007982Y012840D01*
X008184Y013042D01*
X008184Y012794D01*
X008272Y012706D01*
X008593Y012706D01*
X008595Y012709D01*
X008690Y012669D01*
X008804Y012669D01*
X008908Y012713D01*
X008989Y012793D01*
X009032Y012898D01*
X009032Y013011D01*
X008989Y013116D01*
X008908Y013196D01*
X008804Y013239D01*
X008690Y013239D01*
X008612Y013207D01*
X008612Y013257D01*
X009315Y013257D01*
X009397Y013339D01*
X009478Y013257D01*
X010378Y013257D01*
X010378Y013207D01*
X010300Y013239D01*
X010186Y013239D01*
X010082Y013196D01*
X010001Y013116D01*
X009958Y013011D01*
X009958Y012898D01*
X010001Y012793D01*
X010082Y012713D01*
X010186Y012669D01*
X010300Y012669D01*
X010395Y012709D01*
X010398Y012706D01*
X010719Y012706D01*
X010806Y012794D01*
X010806Y013076D01*
X010778Y013104D01*
X010778Y013257D01*
X010890Y013257D01*
X010978Y013345D01*
X010978Y014040D01*
X010890Y014128D01*
X009478Y014128D01*
X009397Y014046D01*
X009315Y014128D01*
X008143Y014128D01*
X008100Y014171D01*
X007995Y014276D01*
X007609Y014276D01*
X007504Y014171D01*
X007504Y014171D01*
X007255Y013922D01*
X007016Y013922D01*
X007264Y014169D01*
X007264Y014228D01*
X007431Y014228D01*
X007519Y014315D01*
X007519Y014546D01*
X007438Y014628D01*
X007519Y014709D01*
X007519Y014940D01*
X007519Y014891D02*
X011092Y014891D01*
X011090Y014824D02*
X011070Y014805D01*
X011090Y014824D02*
X011513Y014824D01*
X011916Y014824D01*
X011936Y014805D01*
X011898Y014793D02*
X016415Y014793D01*
X016415Y014891D02*
X011934Y014891D01*
X011948Y014990D02*
X012484Y014990D01*
X012664Y015198D02*
X012645Y015218D01*
X011513Y015218D01*
X011127Y014793D02*
X007519Y014793D01*
X007504Y014694D02*
X011077Y014694D01*
X011077Y014596D02*
X007469Y014596D01*
X007468Y014628D02*
X007487Y014647D01*
X007468Y014628D02*
X007084Y014628D01*
X006680Y014628D01*
X006660Y014608D01*
X006698Y014596D02*
X006467Y014596D01*
X006066Y014990D02*
X006058Y014990D01*
X006715Y015482D02*
X007189Y015482D01*
X007189Y015581D02*
X006814Y015581D01*
X006621Y015671D02*
X004790Y015671D01*
X004771Y015651D01*
X004298Y015651D01*
X003786Y015651D01*
X003538Y015679D02*
X002932Y015679D01*
X002924Y015581D02*
X003538Y015581D01*
X003566Y015482D02*
X001988Y015482D01*
X001988Y015384D02*
X003538Y015384D01*
X003538Y015285D02*
X002888Y015285D01*
X002932Y015187D02*
X003538Y015187D01*
X003530Y015088D02*
X002932Y015088D01*
X002932Y014990D02*
X003501Y014990D01*
X003507Y014891D02*
X002932Y014891D01*
X002932Y014793D02*
X003553Y014793D01*
X003689Y014694D02*
X002932Y014694D01*
X003786Y014962D02*
X003786Y015297D01*
X003538Y015778D02*
X002932Y015778D01*
X002101Y015778D02*
X001988Y015778D01*
X001988Y015876D02*
X002101Y015876D01*
X002101Y015975D02*
X001962Y015975D01*
X001988Y016073D02*
X002101Y016073D01*
X002101Y016172D02*
X001988Y016172D01*
X001988Y016270D02*
X002101Y016270D01*
X002101Y016369D02*
X001988Y016369D01*
X001988Y016467D02*
X002101Y016467D01*
X002101Y016566D02*
X001988Y016566D01*
X001988Y016664D02*
X002069Y016664D01*
X002003Y016763D02*
X001988Y016763D01*
X001988Y016861D02*
X002003Y016861D01*
X002003Y016960D02*
X001922Y016960D01*
X001980Y017058D02*
X002003Y017058D01*
X002003Y017157D02*
X001988Y017157D01*
X001988Y017255D02*
X002003Y017255D01*
X002003Y017354D02*
X001988Y017354D01*
X001988Y017452D02*
X002003Y017452D01*
X002003Y017551D02*
X001988Y017551D01*
X001988Y017649D02*
X002003Y017649D01*
X001988Y017748D02*
X002069Y017748D01*
X001988Y017846D02*
X002848Y017846D01*
X002848Y017945D02*
X001941Y017945D01*
X002848Y018043D02*
X001023Y018043D01*
X001023Y018142D02*
X002848Y018142D01*
X002848Y018240D02*
X001023Y018240D01*
X001023Y018339D02*
X002848Y018339D01*
X002848Y018437D02*
X001023Y018437D01*
X001023Y018536D02*
X002848Y018536D01*
X002848Y018634D02*
X001023Y018634D01*
X001023Y018733D02*
X002848Y018733D01*
X002814Y018831D02*
X001023Y018831D01*
X001023Y018930D02*
X002793Y018930D01*
X002806Y019028D02*
X001023Y019028D01*
X003308Y018043D02*
X004903Y018043D01*
X004818Y017551D02*
X004776Y017551D01*
X004844Y017452D02*
X004042Y017452D01*
X003963Y017551D02*
X004450Y017551D01*
X004365Y017649D02*
X003308Y017649D01*
X003308Y017748D02*
X004365Y017748D01*
X004365Y017846D02*
X003308Y017846D01*
X003308Y017945D02*
X004392Y017945D01*
X005771Y016664D02*
X006024Y016664D01*
X006031Y016734D02*
X005853Y016557D01*
X005853Y016458D01*
X005979Y016467D02*
X004952Y016467D01*
X004589Y016467D02*
X004559Y016467D01*
X004038Y016467D02*
X003968Y016467D01*
X003605Y016467D02*
X003176Y016467D01*
X003274Y016566D02*
X003538Y016566D01*
X002101Y015679D02*
X001988Y015679D01*
X001988Y015581D02*
X002109Y015581D01*
X002047Y015285D02*
X001988Y015285D01*
X001988Y015187D02*
X002003Y015187D01*
X002003Y015088D02*
X001988Y015088D01*
X002003Y014990D02*
X001904Y014990D01*
X001988Y014891D02*
X002003Y014891D01*
X002003Y014793D02*
X001988Y014793D01*
X001988Y014694D02*
X002003Y014694D01*
X002003Y014596D02*
X001988Y014596D01*
X001988Y014497D02*
X002003Y014497D01*
X002003Y014399D02*
X001988Y014399D01*
X001988Y014300D02*
X002003Y014300D01*
X002643Y013315D02*
X004022Y013315D01*
X003897Y013217D02*
X002681Y013217D01*
X002681Y013118D02*
X003828Y013118D01*
X003788Y013020D02*
X002681Y013020D01*
X002681Y012921D02*
X003781Y012921D01*
X003782Y012823D02*
X002681Y012823D01*
X002681Y012724D02*
X003823Y012724D01*
X003884Y012626D02*
X002681Y012626D01*
X002656Y012527D02*
X003991Y012527D01*
X001023Y011345D02*
X018518Y011345D01*
X018518Y011247D02*
X001023Y011247D01*
X001023Y007602D02*
X014171Y007602D01*
X014269Y007504D02*
X001023Y007504D01*
X001023Y007405D02*
X014368Y007405D01*
X014466Y007307D02*
X001023Y007307D01*
X001023Y007208D02*
X014565Y007208D01*
X014663Y007110D02*
X001023Y007110D01*
X001023Y007011D02*
X014762Y007011D01*
X014860Y006913D02*
X001023Y006913D01*
X001023Y006814D02*
X014958Y006814D01*
X014975Y006716D02*
X001023Y006716D01*
X001023Y006617D02*
X015035Y006617D01*
X015243Y006813D02*
X014062Y007994D01*
X014062Y010946D01*
X014347Y010951D02*
X018615Y010951D01*
X018517Y010853D02*
X014332Y010853D01*
X014328Y011050D02*
X018714Y011050D01*
X018569Y011148D02*
X014263Y011148D01*
X014254Y012232D02*
X017179Y012232D01*
X017189Y012330D02*
X014324Y012330D01*
X014347Y012429D02*
X017189Y012429D01*
X017189Y012527D02*
X014335Y012527D01*
X014282Y012626D02*
X017189Y012626D01*
X017227Y012724D02*
X017239Y012724D01*
X016881Y012724D02*
X014127Y012724D01*
X014007Y012823D02*
X016800Y012823D01*
X016769Y012921D02*
X013909Y012921D01*
X013810Y013020D02*
X016507Y013020D01*
X016438Y013118D02*
X013712Y013118D01*
X013613Y013217D02*
X016415Y013217D01*
X016427Y013315D02*
X013515Y013315D01*
X013416Y013414D02*
X016481Y013414D01*
X016526Y013512D02*
X013318Y013512D01*
X013219Y013611D02*
X016446Y013611D01*
X016415Y013709D02*
X013121Y013709D01*
X013022Y013808D02*
X016419Y013808D01*
X016461Y013906D02*
X012924Y013906D01*
X012825Y014005D02*
X016590Y014005D01*
X016486Y014103D02*
X012727Y014103D01*
X012678Y014202D02*
X016429Y014202D01*
X016415Y014300D02*
X012678Y014300D01*
X012719Y014399D02*
X016435Y014399D01*
X016501Y014497D02*
X012733Y014497D01*
X012712Y014596D02*
X016555Y014596D01*
X016453Y014694D02*
X012646Y014694D01*
X012845Y014990D02*
X013544Y014990D01*
X013445Y015088D02*
X012893Y015088D01*
X012893Y015187D02*
X013347Y015187D01*
X013248Y015285D02*
X012893Y015285D01*
X012249Y014694D02*
X011948Y014694D01*
X011948Y014596D02*
X012183Y014596D01*
X012163Y014497D02*
X011948Y014497D01*
X011948Y014399D02*
X012177Y014399D01*
X012218Y014300D02*
X011933Y014300D01*
X012218Y014202D02*
X008069Y014202D01*
X007535Y014202D02*
X007264Y014202D01*
X007198Y014103D02*
X007437Y014103D01*
X007338Y014005D02*
X007099Y014005D01*
X007504Y014300D02*
X011093Y014300D01*
X011077Y014399D02*
X007519Y014399D01*
X007519Y014497D02*
X011077Y014497D01*
X010915Y014103D02*
X012218Y014103D01*
X012218Y014005D02*
X010978Y014005D01*
X010978Y013906D02*
X012273Y013906D01*
X012371Y013808D02*
X010978Y013808D01*
X010978Y013709D02*
X012470Y013709D01*
X012568Y013611D02*
X010978Y013611D01*
X010978Y013512D02*
X012667Y013512D01*
X012765Y013414D02*
X010978Y013414D01*
X010948Y013315D02*
X012864Y013315D01*
X012962Y013217D02*
X010778Y013217D01*
X010778Y013118D02*
X013061Y013118D01*
X013159Y013020D02*
X010806Y013020D01*
X010806Y012921D02*
X013258Y012921D01*
X013356Y012823D02*
X010806Y012823D01*
X010737Y012724D02*
X013455Y012724D01*
X013553Y012626D02*
X007578Y012626D01*
X007639Y012724D02*
X008253Y012724D01*
X008184Y012823D02*
X007965Y012823D01*
X008063Y012921D02*
X008184Y012921D01*
X008184Y013020D02*
X008162Y013020D01*
X008412Y012954D02*
X008432Y012935D01*
X008727Y012935D01*
X008747Y012954D01*
X008636Y013217D02*
X008612Y013217D01*
X008858Y013217D02*
X010132Y013217D01*
X010004Y013118D02*
X008986Y013118D01*
X009028Y013020D02*
X009962Y013020D01*
X009958Y012921D02*
X009032Y012921D01*
X009001Y012823D02*
X009989Y012823D01*
X010070Y012724D02*
X008920Y012724D01*
X008412Y012954D02*
X008412Y013693D01*
X009397Y013693D02*
X009397Y013289D01*
X009416Y013269D01*
X009420Y013315D02*
X009373Y013315D01*
X009397Y013693D02*
X009397Y014076D01*
X009416Y014096D01*
X009454Y014103D02*
X009340Y014103D01*
X010578Y013693D02*
X010578Y012954D01*
X010558Y012935D01*
X010263Y012935D01*
X010243Y012954D01*
X010354Y013217D02*
X010378Y013217D01*
X007471Y012527D02*
X013652Y012527D01*
X013750Y012429D02*
X007411Y012429D01*
X007411Y012330D02*
X013800Y012330D01*
X013870Y012232D02*
X007480Y012232D01*
X006621Y015671D02*
X006759Y015809D01*
X007084Y015809D01*
X007084Y016596D02*
X006444Y016596D01*
X006306Y016734D01*
X006031Y016734D01*
X005979Y016566D02*
X005673Y016566D01*
X006433Y017452D02*
X006441Y017452D01*
X010578Y018820D02*
X010578Y019194D01*
X010597Y019214D01*
X010826Y019028D02*
X012581Y019028D01*
X012235Y018930D02*
X010826Y018930D01*
X010826Y018831D02*
X012136Y018831D01*
X012090Y018733D02*
X010826Y018733D01*
X010826Y018634D02*
X012090Y018634D01*
X012095Y018536D02*
X011409Y018536D01*
X011417Y018437D02*
X012194Y018437D01*
X010927Y018536D02*
X010911Y018536D01*
X012377Y020309D02*
X012647Y020309D01*
X012501Y021097D02*
X011126Y021097D01*
X010699Y021097D02*
X001023Y021097D01*
X001023Y021195D02*
X012600Y021195D01*
X011975Y021294D02*
X013321Y021294D01*
X011924Y021885D02*
X010269Y021885D01*
X010269Y021786D02*
X011675Y021786D01*
X011572Y021688D02*
X010243Y021688D01*
X010196Y021589D02*
X011533Y021589D01*
X011533Y021491D02*
X010098Y021491D01*
X010243Y021983D02*
X011924Y021983D01*
X011954Y022082D02*
X010198Y022082D01*
X011569Y021392D02*
X001023Y021392D01*
X001023Y021294D02*
X011660Y021294D01*
X014456Y019324D02*
X014771Y019324D01*
X014800Y019805D02*
X015243Y020248D01*
X014800Y019805D02*
X014633Y019805D01*
X017233Y019127D02*
X017337Y019127D01*
X017802Y018801D02*
X018412Y018801D01*
X018432Y018781D01*
X018284Y019028D02*
X018267Y019028D01*
X018176Y018604D02*
X017802Y018604D01*
X018176Y018604D02*
X018275Y018506D01*
X018280Y018536D02*
X018260Y018536D01*
X018432Y016852D02*
X018412Y016832D01*
X017802Y016832D01*
X018679Y015876D02*
X018690Y015876D01*
X018579Y015778D02*
X025293Y015778D01*
X025912Y015789D02*
X025971Y015848D01*
X026542Y015848D01*
X027007Y015975D02*
X028050Y015975D01*
X028263Y015975D02*
X028742Y015975D01*
X028738Y015876D02*
X028394Y015876D01*
X028437Y015778D02*
X028768Y015778D01*
X028847Y015679D02*
X028441Y015679D01*
X028411Y015581D02*
X028941Y015581D01*
X028898Y015482D02*
X028332Y015482D01*
X028335Y015384D02*
X028892Y015384D01*
X028892Y015285D02*
X028413Y015285D01*
X028441Y015187D02*
X028892Y015187D01*
X028960Y015088D02*
X028715Y015088D01*
X028799Y014990D02*
X033400Y014990D01*
X033400Y015088D02*
X029636Y015088D01*
X029704Y015187D02*
X029787Y015187D01*
X030295Y014647D02*
X030491Y014728D01*
X030704Y014728D01*
X030900Y014647D01*
X031050Y014497D01*
X031131Y014301D01*
X031131Y014088D01*
X031050Y013892D01*
X030900Y013742D01*
X030704Y013661D01*
X030491Y013661D01*
X030295Y013742D01*
X030145Y013892D01*
X030064Y014088D01*
X030064Y014301D01*
X030145Y014497D01*
X030295Y014647D01*
X030244Y014596D02*
X028441Y014596D01*
X028419Y014497D02*
X030145Y014497D01*
X030104Y014399D02*
X028350Y014399D01*
X027963Y014399D02*
X027007Y014399D01*
X027007Y014300D02*
X030064Y014300D01*
X030064Y014202D02*
X029250Y014202D01*
X029349Y014103D02*
X030064Y014103D01*
X030098Y014005D02*
X029447Y014005D01*
X029546Y013906D02*
X030139Y013906D01*
X030229Y013808D02*
X029644Y013808D01*
X029743Y013709D02*
X030374Y013709D01*
X030821Y013709D02*
X032072Y013709D01*
X032094Y013656D02*
X032244Y013506D01*
X032440Y013424D01*
X032652Y013424D01*
X032849Y013506D01*
X032999Y013656D01*
X033080Y013852D01*
X033080Y014064D01*
X032999Y014261D01*
X032849Y014411D01*
X032652Y014492D01*
X032440Y014492D01*
X032244Y014411D01*
X032094Y014261D01*
X032012Y014064D01*
X032012Y013852D01*
X032094Y013656D01*
X032139Y013611D02*
X029841Y013611D01*
X029940Y013512D02*
X032237Y013512D01*
X032031Y013808D02*
X030966Y013808D01*
X031056Y013906D02*
X032012Y013906D01*
X032012Y014005D02*
X031097Y014005D01*
X031131Y014103D02*
X032028Y014103D01*
X032069Y014202D02*
X031131Y014202D01*
X031131Y014300D02*
X032133Y014300D01*
X032232Y014399D02*
X031091Y014399D01*
X031050Y014497D02*
X033400Y014497D01*
X033400Y014399D02*
X032861Y014399D01*
X032959Y014300D02*
X033400Y014300D01*
X033400Y014202D02*
X033023Y014202D01*
X033064Y014103D02*
X033400Y014103D01*
X033400Y014005D02*
X033080Y014005D01*
X033080Y013906D02*
X033400Y013906D01*
X033400Y013808D02*
X033062Y013808D01*
X033021Y013709D02*
X033400Y013709D01*
X033400Y013611D02*
X032954Y013611D01*
X032855Y013512D02*
X033400Y013512D01*
X033400Y013414D02*
X030038Y013414D01*
X030137Y013315D02*
X033400Y013315D01*
X033400Y013217D02*
X030235Y013217D01*
X030334Y013118D02*
X033400Y013118D01*
X033400Y013020D02*
X030432Y013020D01*
X030531Y012921D02*
X033400Y012921D01*
X033400Y012823D02*
X030629Y012823D01*
X030728Y012724D02*
X033400Y012724D01*
X033400Y012626D02*
X030826Y012626D01*
X030925Y012527D02*
X033400Y012527D01*
X033400Y012429D02*
X031023Y012429D01*
X031122Y012330D02*
X033400Y012330D01*
X033400Y012232D02*
X031220Y012232D01*
X031289Y012133D02*
X033400Y012133D01*
X033400Y012035D02*
X031289Y012035D01*
X031289Y011936D02*
X033400Y011936D01*
X033400Y011838D02*
X031356Y011838D01*
X031377Y011739D02*
X033400Y011739D01*
X032261Y011641D02*
X031361Y011641D01*
X031297Y011542D02*
X032219Y011542D01*
X032219Y011444D02*
X030834Y011444D01*
X030824Y011542D02*
X030922Y011542D01*
X030892Y011345D02*
X032219Y011345D01*
X032219Y011247D02*
X030905Y011247D01*
X030880Y011148D02*
X032219Y011148D01*
X032219Y011050D02*
X031653Y011050D01*
X031635Y011057D02*
X031528Y011057D01*
X031430Y011016D01*
X031354Y010941D01*
X031314Y010842D01*
X031314Y010736D01*
X031354Y010637D01*
X031430Y010562D01*
X031528Y010521D01*
X031635Y010521D01*
X031734Y010562D01*
X031809Y010637D01*
X031850Y010736D01*
X031850Y010842D01*
X031809Y010941D01*
X031734Y011016D01*
X031635Y011057D01*
X031511Y011050D02*
X030804Y011050D01*
X030469Y011050D02*
X030332Y011050D01*
X030381Y010951D02*
X031365Y010951D01*
X031318Y010853D02*
X030428Y010853D01*
X030432Y010754D02*
X031314Y010754D01*
X031347Y010656D02*
X030399Y010656D01*
X030306Y010557D02*
X030517Y010557D01*
X030406Y010459D02*
X030396Y010459D01*
X030756Y010557D02*
X031441Y010557D01*
X031723Y010557D02*
X032219Y010557D01*
X032219Y010459D02*
X030868Y010459D01*
X030905Y010360D02*
X032219Y010360D01*
X032219Y010262D02*
X030904Y010262D01*
X030863Y010163D02*
X032219Y010163D01*
X032219Y010065D02*
X031740Y010065D01*
X031821Y009966D02*
X032219Y009966D01*
X032219Y009868D02*
X031850Y009868D01*
X031841Y009769D02*
X032219Y009769D01*
X032219Y009671D02*
X031788Y009671D01*
X031376Y009671D02*
X031315Y009671D01*
X031288Y009572D02*
X032219Y009572D01*
X032252Y009474D02*
X031357Y009474D01*
X031377Y009375D02*
X033400Y009375D01*
X033400Y009277D02*
X031360Y009277D01*
X031295Y009178D02*
X033400Y009178D01*
X033400Y009080D02*
X028927Y009080D01*
X028933Y009178D02*
X029012Y009178D01*
X029141Y009332D02*
X029141Y009411D01*
X029377Y009647D01*
X029377Y009679D01*
X029448Y009750D01*
X029448Y009939D01*
X029377Y010009D01*
X029377Y010120D01*
X029653Y010395D01*
X029731Y010395D01*
X030007Y010120D01*
X030007Y010009D01*
X029936Y009939D01*
X029936Y009750D01*
X030007Y009679D01*
X030007Y009647D01*
X030243Y009411D01*
X030243Y009332D01*
X030204Y009293D01*
X029180Y009293D01*
X029141Y009332D01*
X029141Y009375D02*
X030243Y009375D01*
X030180Y009474D02*
X029203Y009474D01*
X029302Y009572D02*
X030082Y009572D01*
X030007Y009671D02*
X029377Y009671D01*
X029448Y009769D02*
X029936Y009769D01*
X029936Y009868D02*
X029448Y009868D01*
X029420Y009966D02*
X029964Y009966D01*
X030007Y010065D02*
X029377Y010065D01*
X029421Y010163D02*
X029963Y010163D01*
X029865Y010262D02*
X029519Y010262D01*
X029618Y010360D02*
X029766Y010360D01*
X030795Y010065D02*
X030951Y010065D01*
X031268Y010065D02*
X031423Y010065D01*
X030903Y009671D02*
X030843Y009671D01*
X030931Y009572D02*
X030365Y009572D01*
X030370Y009671D02*
X030431Y009671D01*
X030443Y009474D02*
X030861Y009474D01*
X030841Y009375D02*
X030443Y009375D01*
X030443Y009277D02*
X030858Y009277D01*
X030923Y009178D02*
X030372Y009178D01*
X028927Y008981D02*
X033400Y008981D01*
X033400Y008883D02*
X028927Y008883D01*
X028927Y008784D02*
X033400Y008784D01*
X033400Y008686D02*
X028927Y008686D01*
X028995Y008390D02*
X033400Y008390D01*
X033400Y008292D02*
X028995Y008292D01*
X028923Y008193D02*
X033400Y008193D01*
X033400Y008095D02*
X026723Y008095D01*
X026629Y008134D02*
X026825Y008053D01*
X026975Y007902D01*
X027056Y007706D01*
X027056Y007494D01*
X026975Y007298D01*
X026825Y007147D01*
X026629Y007066D01*
X026416Y007066D01*
X026220Y007147D01*
X026070Y007298D01*
X025989Y007494D01*
X025989Y007706D01*
X026070Y007902D01*
X026220Y008053D01*
X026416Y008134D01*
X026629Y008134D01*
X026881Y007996D02*
X033400Y007996D01*
X033400Y007898D02*
X026977Y007898D01*
X027018Y007799D02*
X033400Y007799D01*
X033400Y007701D02*
X027056Y007701D01*
X027056Y007602D02*
X033400Y007602D01*
X033400Y007504D02*
X027056Y007504D01*
X027020Y007405D02*
X033400Y007405D01*
X033400Y007307D02*
X026979Y007307D01*
X026886Y007208D02*
X033400Y007208D01*
X033400Y007110D02*
X026734Y007110D01*
X026311Y007110D02*
X024321Y007110D01*
X024345Y007011D02*
X033400Y007011D01*
X033400Y006913D02*
X024408Y006913D01*
X024426Y006814D02*
X033400Y006814D01*
X033400Y006716D02*
X024409Y006716D01*
X024348Y006617D02*
X033400Y006617D01*
X033400Y006519D02*
X024190Y006519D01*
X024181Y006420D02*
X033400Y006420D01*
X033400Y006322D02*
X032897Y006322D01*
X033025Y006269D02*
X032740Y006387D01*
X032431Y006387D01*
X032147Y006269D01*
X031929Y006051D01*
X031811Y005766D01*
X031811Y005458D01*
X031929Y005173D01*
X032147Y004955D01*
X032431Y004837D01*
X032740Y004837D01*
X033025Y004955D01*
X033243Y005173D01*
X033361Y005458D01*
X033361Y005766D01*
X033243Y006051D01*
X033025Y006269D01*
X033070Y006223D02*
X033400Y006223D01*
X033400Y006125D02*
X033169Y006125D01*
X033253Y006026D02*
X033400Y006026D01*
X033400Y005928D02*
X033294Y005928D01*
X033334Y005829D02*
X033400Y005829D01*
X033400Y005731D02*
X033361Y005731D01*
X033361Y005632D02*
X033400Y005632D01*
X033400Y005534D02*
X033361Y005534D01*
X033351Y005435D02*
X033400Y005435D01*
X033400Y005337D02*
X033311Y005337D01*
X033270Y005238D02*
X033400Y005238D01*
X033400Y005140D02*
X033210Y005140D01*
X033111Y005041D02*
X033400Y005041D01*
X033400Y004943D02*
X032996Y004943D01*
X032758Y004844D02*
X033400Y004844D01*
X032414Y004844D02*
X002010Y004844D01*
X001992Y004837D02*
X002277Y004955D01*
X002495Y005173D01*
X002613Y005458D01*
X002613Y005766D01*
X002495Y006051D01*
X002277Y006269D01*
X001992Y006387D01*
X001683Y006387D01*
X001399Y006269D01*
X001181Y006051D01*
X001063Y005766D01*
X001063Y005458D01*
X001181Y005173D01*
X001399Y004955D01*
X001683Y004837D01*
X001992Y004837D01*
X002248Y004943D02*
X032176Y004943D01*
X032060Y005041D02*
X002363Y005041D01*
X002462Y005140D02*
X020417Y005140D01*
X020472Y005117D02*
X020684Y005117D01*
X020880Y005199D01*
X021030Y005349D01*
X021112Y005545D01*
X021112Y005757D01*
X021030Y005954D01*
X020880Y006104D01*
X020684Y006185D01*
X020472Y006185D01*
X020275Y006104D01*
X020125Y005954D01*
X020044Y005757D01*
X020044Y005545D01*
X020125Y005349D01*
X020275Y005199D01*
X020472Y005117D01*
X020236Y005238D02*
X002522Y005238D01*
X002563Y005337D02*
X003411Y005337D01*
X003442Y005324D02*
X003314Y005377D01*
X003217Y005474D01*
X003164Y005602D01*
X003164Y005740D01*
X003217Y005867D01*
X003314Y005965D01*
X003442Y006018D01*
X003580Y006018D01*
X003707Y005965D01*
X003805Y005867D01*
X003858Y005740D01*
X003858Y005602D01*
X003805Y005474D01*
X003707Y005377D01*
X003580Y005324D01*
X003442Y005324D01*
X003611Y005337D02*
X020137Y005337D01*
X020089Y005435D02*
X003766Y005435D01*
X003829Y005534D02*
X020049Y005534D01*
X020044Y005632D02*
X003858Y005632D01*
X003858Y005731D02*
X020044Y005731D01*
X020074Y005829D02*
X003821Y005829D01*
X003744Y005928D02*
X020114Y005928D01*
X020198Y006026D02*
X002505Y006026D01*
X002546Y005928D02*
X003277Y005928D01*
X003201Y005829D02*
X002586Y005829D01*
X002613Y005731D02*
X003164Y005731D01*
X003164Y005632D02*
X002613Y005632D01*
X002613Y005534D02*
X003192Y005534D01*
X003256Y005435D02*
X002603Y005435D01*
X001665Y004844D02*
X001023Y004844D01*
X001023Y004943D02*
X001428Y004943D01*
X001312Y005041D02*
X001023Y005041D01*
X001023Y005140D02*
X001214Y005140D01*
X001153Y005238D02*
X001023Y005238D01*
X001023Y005337D02*
X001113Y005337D01*
X001072Y005435D02*
X001023Y005435D01*
X001023Y005534D02*
X001063Y005534D01*
X001063Y005632D02*
X001023Y005632D01*
X001023Y005731D02*
X001063Y005731D01*
X001089Y005829D02*
X001023Y005829D01*
X001023Y005928D02*
X001130Y005928D01*
X001170Y006026D02*
X001023Y006026D01*
X001023Y006125D02*
X001255Y006125D01*
X001353Y006223D02*
X001023Y006223D01*
X001023Y006322D02*
X001526Y006322D01*
X001023Y006420D02*
X023628Y006420D01*
X023620Y006519D02*
X001023Y006519D01*
X002149Y006322D02*
X023677Y006322D01*
X023822Y006223D02*
X002322Y006223D01*
X002421Y006125D02*
X020326Y006125D01*
X020830Y006125D02*
X026507Y006125D01*
X026456Y006104D02*
X026653Y006185D01*
X026865Y006185D01*
X027061Y006104D01*
X027211Y005954D01*
X027293Y005757D01*
X027293Y005545D01*
X027211Y005349D01*
X027061Y005199D01*
X026865Y005117D01*
X026653Y005117D01*
X026456Y005199D01*
X026306Y005349D01*
X026225Y005545D01*
X026225Y005757D01*
X026306Y005954D01*
X026456Y006104D01*
X026379Y006026D02*
X020958Y006026D01*
X021041Y005928D02*
X026296Y005928D01*
X026255Y005829D02*
X021082Y005829D01*
X021112Y005731D02*
X026225Y005731D01*
X026225Y005632D02*
X021112Y005632D01*
X021107Y005534D02*
X026230Y005534D01*
X026270Y005435D02*
X021066Y005435D01*
X021018Y005337D02*
X026318Y005337D01*
X026417Y005238D02*
X020920Y005238D01*
X020738Y005140D02*
X026599Y005140D01*
X026919Y005140D02*
X031962Y005140D01*
X031902Y005238D02*
X027101Y005238D01*
X027199Y005337D02*
X030970Y005337D01*
X031001Y005324D02*
X031139Y005324D01*
X031266Y005377D01*
X031364Y005474D01*
X031417Y005602D01*
X031417Y005740D01*
X031364Y005867D01*
X031266Y005965D01*
X031139Y006018D01*
X031001Y006018D01*
X030873Y005965D01*
X030776Y005867D01*
X030723Y005740D01*
X030723Y005602D01*
X030776Y005474D01*
X030873Y005377D01*
X031001Y005324D01*
X031170Y005337D02*
X031861Y005337D01*
X031820Y005435D02*
X031325Y005435D01*
X031389Y005534D02*
X031811Y005534D01*
X031811Y005632D02*
X031417Y005632D01*
X031417Y005731D02*
X031811Y005731D01*
X031837Y005829D02*
X031380Y005829D01*
X031304Y005928D02*
X031878Y005928D01*
X031918Y006026D02*
X027139Y006026D01*
X027222Y005928D02*
X030836Y005928D01*
X030760Y005829D02*
X027263Y005829D01*
X027293Y005731D02*
X030723Y005731D01*
X030723Y005632D02*
X027293Y005632D01*
X027288Y005534D02*
X030751Y005534D01*
X030815Y005435D02*
X027247Y005435D01*
X027011Y006125D02*
X032003Y006125D01*
X032101Y006223D02*
X023987Y006223D01*
X024132Y006322D02*
X032274Y006322D01*
X028611Y008193D02*
X028523Y008193D01*
X028184Y008193D02*
X025747Y008193D01*
X025747Y008095D02*
X026322Y008095D01*
X026164Y007996D02*
X025747Y007996D01*
X025747Y007898D02*
X026068Y007898D01*
X026027Y007799D02*
X025747Y007799D01*
X025747Y007701D02*
X025989Y007701D01*
X025989Y007602D02*
X025747Y007602D01*
X025733Y007504D02*
X025989Y007504D01*
X026025Y007405D02*
X024078Y007405D01*
X024158Y007504D02*
X024163Y007504D01*
X024177Y007307D02*
X026066Y007307D01*
X026159Y007208D02*
X024275Y007208D01*
X024749Y007504D02*
X024753Y007504D01*
X025339Y007504D02*
X025344Y007504D01*
X025732Y008489D02*
X028071Y008489D01*
X028111Y008587D02*
X025764Y008587D01*
X025762Y008686D02*
X028234Y008686D01*
X028473Y008686D02*
X028567Y008686D01*
X028567Y008616D02*
X028567Y008616D01*
X028567Y008784D02*
X025842Y008784D01*
X025984Y008883D02*
X028567Y008883D01*
X028567Y008981D02*
X026032Y008981D01*
X026040Y009080D02*
X028567Y009080D01*
X028561Y009178D02*
X028460Y009178D01*
X028089Y009178D02*
X026013Y009178D01*
X025938Y009277D02*
X028024Y009277D01*
X028006Y009375D02*
X025759Y009375D01*
X025588Y009263D02*
X025755Y009057D01*
X023282Y009375D02*
X022690Y009375D01*
X022241Y009769D02*
X021867Y009769D01*
X022008Y009868D02*
X022100Y009868D01*
X023845Y011576D02*
X023845Y012187D01*
X023826Y012206D01*
X024111Y012232D02*
X026953Y012232D01*
X027234Y012232D02*
X029039Y012232D01*
X029039Y012330D02*
X027339Y012330D01*
X027261Y011936D02*
X028098Y011936D01*
X028027Y011838D02*
X027283Y011838D01*
X027283Y011739D02*
X028006Y011739D01*
X029039Y012133D02*
X024104Y012133D01*
X024141Y012088D02*
X024042Y011990D01*
X024042Y011576D01*
X024057Y012035D02*
X024111Y012035D01*
X022930Y012035D02*
X022916Y012035D01*
X019584Y012035D02*
X019446Y012035D01*
X019515Y011990D02*
X019574Y012049D01*
X019515Y011990D02*
X019515Y011576D01*
X018410Y012320D02*
X018161Y012071D01*
X017528Y012071D01*
X017549Y012092D01*
X017549Y012489D01*
X018179Y012489D01*
X018267Y012577D01*
X018267Y012715D01*
X018298Y012715D01*
X018410Y012604D01*
X018410Y012320D01*
X018410Y012330D02*
X017549Y012330D01*
X017549Y012232D02*
X018321Y012232D01*
X018223Y012133D02*
X017549Y012133D01*
X017549Y012429D02*
X018410Y012429D01*
X018410Y012527D02*
X018217Y012527D01*
X018267Y012626D02*
X018388Y012626D01*
X013862Y010065D02*
X013829Y010065D01*
X013862Y009966D02*
X013683Y009966D01*
X013862Y009572D02*
X012852Y009572D01*
X012937Y009474D02*
X013862Y009474D01*
X013862Y009375D02*
X012978Y009375D01*
X012996Y009277D02*
X013862Y009277D01*
X013862Y009178D02*
X012996Y009178D01*
X012966Y009080D02*
X013862Y009080D01*
X013862Y008981D02*
X012922Y008981D01*
X012824Y008883D02*
X013862Y008883D01*
X013862Y008784D02*
X012776Y008784D01*
X012776Y008686D02*
X013862Y008686D01*
X013862Y008587D02*
X012837Y008587D01*
X012931Y008489D02*
X013862Y008489D01*
X013862Y008390D02*
X012972Y008390D01*
X012996Y008292D02*
X013862Y008292D01*
X013862Y008193D02*
X012996Y008193D01*
X012972Y008095D02*
X013862Y008095D01*
X013862Y007996D02*
X012932Y007996D01*
X012839Y007898D02*
X013875Y007898D01*
X014839Y007898D02*
X015254Y007898D01*
X015161Y007996D02*
X014932Y007996D01*
X014972Y008095D02*
X015120Y008095D01*
X015096Y008193D02*
X014996Y008193D01*
X014996Y008292D02*
X015096Y008292D01*
X015121Y008390D02*
X014972Y008390D01*
X015048Y008489D02*
X015162Y008489D01*
X015146Y008587D02*
X015255Y008587D01*
X015226Y008686D02*
X015442Y008686D01*
X015650Y008686D02*
X015736Y008686D01*
X015834Y008784D02*
X015226Y008784D01*
X015226Y008883D02*
X015269Y008883D01*
X015824Y008883D02*
X015890Y008883D01*
X016250Y008883D02*
X016269Y008883D01*
X015448Y007011D02*
X017283Y007011D01*
X017220Y006913D02*
X015510Y006913D01*
X015528Y006814D02*
X017202Y006814D01*
X017219Y006716D02*
X015511Y006716D01*
X015451Y006617D02*
X017280Y006617D01*
X017487Y006813D02*
X022684Y006813D01*
X022969Y006814D02*
X022978Y006814D01*
X022952Y006716D02*
X023361Y006716D01*
X023421Y006617D02*
X022892Y006617D01*
X030164Y011734D02*
X030164Y012088D01*
X031799Y010951D02*
X032219Y010951D01*
X032219Y010853D02*
X031845Y010853D01*
X031850Y010754D02*
X032219Y010754D01*
X032219Y010656D02*
X031817Y010656D01*
X030951Y014596D02*
X033400Y014596D01*
X033400Y014694D02*
X030786Y014694D01*
X030409Y014694D02*
X028770Y014694D01*
X028799Y014793D02*
X033400Y014793D01*
X033400Y014891D02*
X028799Y014891D01*
X029282Y015088D02*
X029314Y015088D01*
X029301Y015581D02*
X029719Y015581D01*
X029719Y015679D02*
X029301Y015679D01*
X029301Y015778D02*
X029786Y015778D01*
X029751Y015769D02*
X029731Y015750D01*
X029751Y015769D02*
X030243Y015769D01*
X030767Y015384D02*
X030875Y015384D01*
X030767Y015285D02*
X033400Y015285D01*
X033400Y015187D02*
X030699Y015187D01*
X031265Y015384D02*
X033400Y015384D01*
X033400Y015482D02*
X031333Y015482D01*
X031355Y015581D02*
X033400Y015581D01*
X033400Y015679D02*
X031342Y015679D01*
X031287Y015778D02*
X033400Y015778D01*
X033400Y015876D02*
X031600Y015876D01*
X029786Y016369D02*
X027007Y016369D01*
X027007Y016467D02*
X029719Y016467D01*
X029719Y016566D02*
X029494Y016566D01*
X029719Y016270D02*
X027007Y016270D01*
X027007Y016172D02*
X028917Y016172D01*
X028786Y016073D02*
X027007Y016073D01*
X027007Y016566D02*
X027693Y016566D01*
X027990Y016566D02*
X029103Y016566D01*
X028934Y016872D02*
X028934Y017069D01*
X028934Y017265D01*
X028934Y017462D01*
X028934Y018151D01*
X028934Y018348D01*
X028934Y018545D01*
X028934Y018742D01*
X028934Y018929D01*
X027961Y019028D02*
X027007Y019028D01*
X028673Y016664D02*
X028742Y016664D01*
X029128Y016172D02*
X029719Y016172D01*
X029719Y016073D02*
X029260Y016073D01*
X029303Y015975D02*
X029719Y015975D01*
X029719Y015876D02*
X029308Y015876D01*
X030767Y017452D02*
X030786Y017452D01*
X030701Y017551D02*
X030884Y017551D01*
X030983Y017649D02*
X030767Y017649D01*
X030767Y017748D02*
X031208Y017748D01*
X031385Y018466D02*
X032094Y017757D01*
X031385Y018466D02*
X031385Y020238D01*
X032819Y020604D02*
X033400Y020604D01*
X033400Y020506D02*
X032935Y020506D01*
X033013Y020407D02*
X033400Y020407D01*
X033400Y020309D02*
X033054Y020309D01*
X033080Y020210D02*
X033400Y020210D01*
X033400Y020112D02*
X033080Y020112D01*
X033072Y020013D02*
X033400Y020013D01*
X033400Y019915D02*
X033031Y019915D01*
X032978Y019816D02*
X033400Y019816D01*
X033400Y019718D02*
X032880Y019718D01*
X033400Y022082D02*
X024786Y022082D01*
X024586Y022180D02*
X033400Y022180D01*
X033400Y022279D02*
X024586Y022279D01*
X024576Y022377D02*
X033400Y022377D01*
X033400Y022476D02*
X019347Y022476D01*
X019347Y022574D02*
X033400Y022574D01*
X033400Y022673D02*
X019308Y022673D01*
X019062Y022521D02*
X018710Y022521D01*
X018472Y022870D02*
X018447Y022870D01*
X017972Y022870D02*
X017947Y022870D01*
X017947Y022968D02*
X016427Y022968D01*
X016426Y022870D02*
X016972Y022870D01*
X016951Y022771D02*
X016327Y022771D01*
X016229Y022673D02*
X016951Y022673D01*
X017447Y022870D02*
X017472Y022870D01*
X017911Y023067D02*
X016427Y023067D01*
X016427Y023165D02*
X017911Y023165D01*
X017950Y023264D02*
X016427Y023264D01*
X016427Y023362D02*
X018056Y023362D01*
X019221Y022279D02*
X024129Y022279D01*
X024129Y022180D02*
X018955Y022180D01*
X019311Y022377D02*
X024139Y022377D01*
X023889Y022082D02*
X023684Y022082D01*
X023765Y021983D02*
X023808Y021983D01*
X023495Y022771D02*
X033400Y022771D01*
X033400Y023855D02*
X025698Y023855D01*
X025796Y023953D02*
X033400Y023953D01*
X033400Y024052D02*
X025859Y024052D01*
X025900Y024150D02*
X033400Y024150D01*
X033400Y024249D02*
X025915Y024249D01*
X025915Y024347D02*
X033400Y024347D01*
X033400Y024446D02*
X025895Y024446D01*
X025855Y024544D02*
X033400Y024544D01*
X033400Y024643D02*
X025786Y024643D01*
X025688Y024741D02*
X033400Y024741D01*
X033400Y024840D02*
X026705Y024840D01*
X026792Y024938D02*
X033400Y024938D01*
X033400Y025037D02*
X026827Y025037D01*
X026827Y025135D02*
X033400Y025135D01*
X033400Y025234D02*
X026787Y025234D01*
X026679Y025332D02*
X033400Y025332D01*
X033400Y025431D02*
X023521Y025431D01*
X023662Y025332D02*
X026406Y025332D01*
X025955Y025825D02*
X031946Y025825D01*
X032044Y025726D02*
X025768Y025726D01*
X025466Y025726D02*
X023148Y025726D01*
X023246Y025628D02*
X032143Y025628D01*
X032375Y025529D02*
X023345Y025529D01*
X023049Y025825D02*
X025279Y025825D01*
X025181Y025923D02*
X022951Y025923D01*
X021804Y024938D02*
X018926Y024938D01*
X018493Y024938D02*
X018426Y024938D01*
X017993Y024938D02*
X017926Y024938D01*
X016427Y023461D02*
X020476Y023461D01*
X020794Y024446D02*
X020912Y024446D01*
X021385Y024446D02*
X021503Y024446D01*
X020318Y025547D02*
X020238Y025628D01*
X020650Y026022D02*
X025130Y026022D01*
X024258Y023362D02*
X024203Y023362D01*
X024023Y023151D02*
X024436Y023151D01*
X021094Y022082D02*
X020928Y022082D01*
X021009Y021983D02*
X021013Y021983D01*
X020582Y022082D02*
X017884Y022082D01*
X017884Y021983D02*
X020501Y021983D01*
X020470Y021885D02*
X017932Y021885D01*
X017932Y021786D02*
X020474Y021786D01*
X020516Y021688D02*
X017932Y021688D01*
X017955Y022180D02*
X017964Y022180D01*
X018455Y022180D02*
X018464Y022180D01*
X018547Y021589D02*
X020575Y021589D01*
X020575Y021491D02*
X018616Y021491D01*
X018638Y021392D02*
X020575Y021392D01*
X020575Y021294D02*
X018626Y021294D01*
X016418Y016566D02*
X015487Y016566D01*
X015479Y016467D02*
X015389Y016467D01*
X015412Y016369D02*
X012893Y016369D01*
X012664Y016261D02*
X012625Y016222D01*
X012212Y016222D01*
X012192Y016202D01*
X011513Y016202D01*
X025593Y016270D02*
X025627Y016270D01*
X026017Y016566D02*
X026077Y016566D01*
X032796Y025529D02*
X033400Y025529D01*
X033400Y025628D02*
X033028Y025628D01*
X033127Y025726D02*
X033400Y025726D01*
X033400Y025825D02*
X033225Y025825D01*
X033276Y025923D02*
X033400Y025923D01*
X033400Y026022D02*
X033317Y026022D01*
X033358Y026120D02*
X033400Y026120D01*
X033400Y026219D02*
X033361Y026219D01*
X033361Y026317D02*
X033400Y026317D01*
X033400Y026416D02*
X033361Y026416D01*
X033328Y026514D02*
X033400Y026514D01*
X033400Y026613D02*
X033287Y026613D01*
X033246Y026711D02*
X033400Y026711D01*
X033400Y026810D02*
X033153Y026810D01*
X033054Y026908D02*
X033400Y026908D01*
X033400Y027007D02*
X032859Y027007D01*
D49*
X026542Y025080D03*
X024180Y024805D03*
X023432Y025159D03*
X023432Y025710D03*
X022566Y025080D03*
X022290Y025395D03*
X022054Y025080D03*
X021621Y025080D03*
X020479Y025789D03*
X018235Y023978D03*
X017723Y023978D03*
X018196Y023112D03*
X018708Y023820D03*
X020007Y023072D03*
X020716Y023269D03*
X021031Y022994D03*
X021306Y023269D03*
X021621Y022994D03*
X021897Y023269D03*
X022212Y022994D03*
X022487Y023269D03*
X022802Y022994D03*
X023314Y022994D03*
X023511Y021852D03*
X023786Y021537D03*
X024062Y021852D03*
X024338Y021537D03*
X024613Y021852D03*
X026031Y021734D03*
X025125Y019687D03*
X024613Y019687D03*
X024495Y019175D03*
X025401Y018506D03*
X025912Y018387D03*
X025440Y017797D03*
X025007Y017324D03*
X024731Y016104D03*
X025440Y016025D03*
X025912Y015789D03*
X025912Y016301D03*
X025401Y015080D03*
X025322Y014057D03*
X025912Y013112D03*
X024534Y012718D03*
X023826Y012206D03*
X023393Y012718D03*
X022684Y012206D03*
X022408Y012679D03*
X022251Y013230D03*
X021503Y012954D03*
X020912Y012797D03*
X021109Y012206D03*
X021897Y012206D03*
X023156Y010710D03*
X023432Y010356D03*
X023668Y010041D03*
X023944Y010356D03*
X024180Y010041D03*
X024692Y010356D03*
X024928Y010041D03*
X025204Y010356D03*
X025440Y010041D03*
X025952Y010828D03*
X025755Y009057D03*
X025479Y008624D03*
X025164Y008899D03*
X024889Y008624D03*
X024574Y008899D03*
X024298Y008624D03*
X023983Y008899D03*
X023708Y008624D03*
X023393Y008899D03*
X022527Y009135D03*
X022330Y010041D03*
X022054Y010356D03*
X021779Y010041D03*
X021503Y010356D03*
X021227Y010041D03*
X023156Y010041D03*
X026582Y009057D03*
X028353Y008427D03*
X029456Y009608D03*
X029928Y009608D03*
X029928Y010080D03*
X029456Y010080D03*
X030164Y008663D03*
X030164Y012088D03*
X030716Y012876D03*
X028511Y012639D03*
X027094Y012482D03*
X028156Y014608D03*
X027842Y014883D03*
X028156Y015159D03*
X027842Y015435D03*
X028156Y015710D03*
X028156Y016537D03*
X027842Y016813D03*
X028156Y017049D03*
X027842Y017324D03*
X028156Y017561D03*
X027842Y018072D03*
X028156Y018309D03*
X027842Y018584D03*
X028156Y018820D03*
X029141Y019135D03*
X029574Y018860D03*
X029298Y018545D03*
X029574Y018269D03*
X029298Y017954D03*
X029574Y017679D03*
X029298Y017364D03*
X029574Y017088D03*
X029298Y016773D03*
X029023Y015907D03*
X027487Y016537D03*
X031070Y015592D03*
X031385Y016065D03*
X032015Y016065D03*
X031385Y017009D03*
X031700Y017285D03*
X031385Y017521D03*
X031385Y017954D03*
X029062Y019883D03*
X027094Y019687D03*
X025912Y019372D03*
X023432Y018663D03*
X022723Y019214D03*
X022448Y019687D03*
X021739Y019175D03*
X020637Y019175D03*
X020519Y019687D03*
X019574Y019096D03*
X019338Y019687D03*
X018432Y018781D03*
X019023Y018545D03*
X017133Y018860D03*
X016897Y018545D03*
X016660Y018230D03*
X016424Y017915D03*
X015834Y018663D03*
X014613Y017639D03*
X013668Y017639D03*
X012408Y018663D03*
X011306Y019608D03*
X011306Y020159D03*
X010912Y020907D03*
X011818Y021537D03*
X011542Y022836D03*
X014259Y023624D03*
X016227Y024883D03*
X017172Y026222D03*
X014062Y025631D03*
X019062Y022521D03*
X018353Y021380D03*
X020086Y020868D03*
X020991Y021537D03*
X020755Y021852D03*
X021267Y021852D03*
X021503Y021537D03*
X021779Y021183D03*
X022251Y021537D03*
X022015Y021852D03*
X022527Y021852D03*
X022763Y021537D03*
X023038Y021183D03*
X020086Y016813D03*
X018944Y016773D03*
X018432Y016852D03*
X018432Y016025D03*
X018905Y016065D03*
X019023Y015238D03*
X018944Y013624D03*
X018432Y013506D03*
X017054Y013506D03*
X016700Y013742D03*
X017054Y014017D03*
X016700Y014293D03*
X017054Y014569D03*
X016700Y014844D03*
X015676Y016261D03*
X014023Y016104D03*
X012212Y016222D03*
X013275Y014962D03*
X012448Y014490D03*
X010243Y012954D03*
X008747Y012954D03*
X005597Y014765D03*
X003786Y014962D03*
X003786Y017324D03*
X003078Y018939D03*
X005401Y019923D03*
X006542Y019647D03*
X008511Y018663D03*
X008944Y019332D03*
X009338Y019332D03*
X009377Y018624D03*
X010597Y019214D03*
X008590Y020671D03*
X005597Y025868D03*
X015834Y020946D03*
X016424Y021537D03*
X016700Y013230D03*
X017054Y012954D03*
X017684Y012206D03*
X017684Y011261D03*
X014062Y010946D03*
X014062Y012443D03*
X015243Y006813D03*
X017487Y006813D03*
X022172Y007128D03*
X022684Y006813D03*
X022684Y006183D03*
X023629Y006813D03*
X023905Y006498D03*
X024141Y006813D03*
X024574Y006813D03*
X031385Y020238D03*
D50*
X030243Y018919D02*
X029633Y018919D01*
X029574Y018860D01*
X029613Y018899D01*
X029298Y018545D02*
X029318Y018525D01*
X030243Y018525D01*
X030243Y018328D02*
X029633Y018328D01*
X029574Y018269D01*
X029613Y018309D01*
X029298Y017954D02*
X029318Y017935D01*
X030243Y017935D01*
X030243Y018131D02*
X030696Y018131D01*
X030716Y018151D01*
X030696Y018722D02*
X030243Y018722D01*
X030696Y018722D02*
X030716Y018742D01*
X030243Y017738D02*
X029633Y017738D01*
X029574Y017679D01*
X029613Y017718D01*
X029298Y017364D02*
X029318Y017344D01*
X030243Y017344D01*
X030243Y017147D02*
X029633Y017147D01*
X029574Y017088D01*
X029613Y017128D01*
X029298Y016773D02*
X029318Y016754D01*
X030243Y016754D01*
X030243Y016950D02*
X030656Y016950D01*
X030755Y017049D01*
X030755Y017521D01*
X030716Y017561D01*
X030696Y017541D01*
X030243Y017541D01*
X030912Y017324D02*
X030912Y016734D01*
X030735Y016557D01*
X030243Y016557D01*
X030243Y016360D02*
X029790Y016360D01*
X029771Y016340D01*
X030243Y016163D02*
X030656Y016163D01*
X031070Y016576D01*
X031070Y017098D01*
X031257Y017285D01*
X031700Y017285D01*
X031385Y017521D02*
X031109Y017521D01*
X030912Y017324D01*
X031267Y016891D02*
X031385Y017009D01*
X031267Y016891D02*
X031267Y016458D01*
X030775Y015966D01*
X030243Y015966D01*
X030243Y015572D02*
X031050Y015572D01*
X031070Y015592D01*
X030243Y015376D02*
X029534Y015376D01*
X029475Y015317D01*
X029515Y015356D01*
X029121Y015317D02*
X029121Y015809D01*
X029023Y015907D01*
X029042Y015887D01*
X028156Y015710D02*
X026936Y015710D01*
X026877Y015651D01*
X026542Y015651D01*
X026542Y015454D02*
X027113Y015454D01*
X027133Y015435D01*
X027842Y015435D01*
X028156Y015159D02*
X027094Y015159D01*
X026995Y015257D01*
X026542Y015257D01*
X026542Y015061D02*
X026877Y015061D01*
X027054Y014883D01*
X027842Y014883D01*
X028531Y014883D01*
X028550Y014864D01*
X028156Y014608D02*
X026936Y014608D01*
X026877Y014667D01*
X026542Y014667D01*
X026542Y014076D02*
X029121Y014076D01*
X031109Y012088D01*
X031109Y011734D01*
X030637Y011734D02*
X030637Y012285D01*
X029042Y013880D01*
X026542Y013880D01*
X026542Y013683D02*
X028964Y013683D01*
X029928Y012718D01*
X029928Y011498D01*
X030164Y011261D01*
X029692Y011734D02*
X029692Y012679D01*
X028885Y013486D01*
X026542Y013486D01*
X026542Y013289D02*
X028806Y013289D01*
X029219Y012876D01*
X029219Y012639D01*
X029160Y012639D01*
X029219Y012639D02*
X029219Y011734D01*
X028275Y011261D02*
X028038Y011498D01*
X027094Y011498D01*
X026936Y011655D01*
X027094Y011261D02*
X026936Y011104D01*
X027094Y011261D02*
X027802Y011261D01*
X027094Y012482D02*
X027074Y012502D01*
X026542Y012502D01*
X025853Y011576D02*
X025952Y011478D01*
X025853Y011576D02*
X025617Y011576D01*
X025223Y011576D02*
X025223Y011202D01*
X025440Y010986D01*
X025440Y010041D01*
X025450Y010031D01*
X025450Y009805D01*
X025361Y009716D01*
X025164Y009716D02*
X025164Y009815D01*
X025194Y009844D01*
X025194Y010346D01*
X025204Y010356D01*
X025204Y010907D01*
X025027Y011084D01*
X025027Y011576D01*
X024830Y011576D02*
X024830Y010966D01*
X024928Y010868D01*
X024928Y010041D01*
X024938Y010031D01*
X024938Y009844D01*
X024968Y009815D01*
X024968Y009716D01*
X024771Y009716D02*
X024771Y009756D01*
X024682Y009844D01*
X024682Y010346D01*
X024692Y010356D01*
X024692Y010789D01*
X024633Y010848D01*
X024633Y011576D01*
X024436Y011576D02*
X024436Y011124D01*
X024180Y010868D01*
X024180Y010041D01*
X024170Y010031D01*
X024170Y009844D01*
X024082Y009756D01*
X024082Y009716D01*
X023914Y009765D02*
X023914Y010326D01*
X023944Y010356D01*
X023944Y010946D01*
X024239Y011242D01*
X024239Y011576D01*
X023668Y011183D02*
X023649Y011202D01*
X023649Y011576D01*
X023452Y011576D02*
X023452Y011242D01*
X023432Y011222D01*
X023432Y010356D01*
X023403Y010326D01*
X023403Y009844D01*
X023491Y009756D01*
X023491Y009716D01*
X023658Y009805D02*
X023658Y010031D01*
X023668Y010041D01*
X023668Y011183D01*
X022330Y011143D02*
X022330Y010041D01*
X022054Y010356D02*
X022054Y011183D01*
X022074Y011202D01*
X022074Y011576D01*
X022271Y011576D02*
X022271Y011202D01*
X022330Y011143D01*
X021779Y011143D02*
X021779Y010041D01*
X021503Y010356D02*
X021503Y009667D01*
X021483Y009647D01*
X021227Y010041D02*
X021227Y011104D01*
X021090Y011242D01*
X021090Y011576D01*
X021483Y011576D02*
X021483Y011124D01*
X021503Y011104D01*
X021503Y010356D01*
X020696Y010848D02*
X019259Y009411D01*
X018708Y009411D01*
X017546Y008250D01*
X017546Y008242D01*
X017054Y008750D02*
X017054Y009569D01*
X017212Y009726D01*
X019023Y009726D01*
X020302Y011006D01*
X020302Y011576D01*
X020105Y011576D02*
X020105Y011084D01*
X018905Y009883D01*
X017094Y009883D01*
X016546Y009336D01*
X016546Y009242D01*
X016070Y009490D02*
X016070Y008765D01*
X015546Y008242D01*
X015046Y008742D02*
X015046Y009450D01*
X015952Y010356D01*
X018550Y010356D01*
X019318Y011124D01*
X019318Y011576D01*
X019121Y011576D02*
X019121Y011202D01*
X018432Y010513D01*
X015794Y010513D01*
X014546Y009265D01*
X014546Y009242D01*
X015046Y008742D02*
X014546Y008242D01*
X015546Y009242D02*
X016503Y010198D01*
X018668Y010198D01*
X019712Y011242D01*
X019712Y011576D01*
X019908Y011576D02*
X019908Y011163D01*
X018786Y010041D01*
X016621Y010041D01*
X016070Y009490D01*
X017054Y008750D02*
X016546Y008242D01*
X017546Y009242D02*
X017546Y009273D01*
X017842Y009569D01*
X019141Y009569D01*
X020499Y010927D01*
X020499Y011576D01*
X020696Y011576D02*
X020696Y010848D01*
X021680Y011242D02*
X021680Y011576D01*
X021680Y011242D02*
X021779Y011143D01*
X023658Y009805D02*
X023688Y009775D01*
X023688Y009716D01*
X023885Y009716D02*
X023885Y009736D01*
X023914Y009765D01*
X023983Y008899D02*
X023964Y008880D01*
X023964Y007954D01*
X024160Y007954D02*
X024160Y007502D01*
X024101Y007443D01*
X023668Y007443D01*
X023570Y007541D01*
X023570Y007954D01*
X023767Y007954D02*
X023767Y008565D01*
X023708Y008624D01*
X023747Y008584D01*
X023393Y008899D02*
X023373Y008880D01*
X023373Y007954D01*
X023176Y007954D02*
X023176Y007462D01*
X023353Y007285D01*
X023944Y007285D01*
X024141Y007088D01*
X024141Y006813D01*
X023905Y006931D02*
X023905Y006498D01*
X023629Y006813D02*
X023511Y006931D01*
X023117Y006931D01*
X022605Y007403D01*
X022586Y007423D01*
X022586Y007954D01*
X022782Y007954D02*
X022782Y007541D01*
X023196Y007128D01*
X023708Y007128D01*
X023905Y006931D01*
X024731Y007482D02*
X024751Y007502D01*
X024751Y007954D01*
X024948Y007954D02*
X024948Y008565D01*
X024889Y008624D01*
X024928Y008584D01*
X025145Y008880D02*
X025164Y008899D01*
X025145Y008880D02*
X025145Y007954D01*
X025342Y007954D02*
X025342Y007502D01*
X025322Y007482D01*
X025538Y007954D02*
X025538Y008565D01*
X025479Y008624D01*
X025519Y008584D01*
X024574Y008899D02*
X024554Y008880D01*
X024554Y007954D01*
X024357Y007954D02*
X024357Y008565D01*
X024298Y008624D01*
X024338Y008584D01*
X022979Y008407D02*
X022979Y007954D01*
X022979Y008407D02*
X022960Y008427D01*
X022468Y009076D02*
X022527Y009135D01*
X022468Y009076D02*
X021936Y009076D01*
X021936Y008722D02*
X021995Y008663D01*
X021995Y007954D01*
X022192Y007954D02*
X022192Y007147D01*
X022172Y007128D01*
X025952Y010828D02*
X025952Y011124D01*
X028511Y012639D02*
X028806Y012639D01*
X028747Y009372D02*
X028747Y008446D01*
X028767Y008427D01*
X028353Y008427D01*
X018924Y011576D02*
X018924Y011950D01*
X018826Y012049D01*
X018629Y012049D01*
X018314Y011734D01*
X006936Y011734D01*
X006231Y012439D01*
X006231Y012915D01*
X006231Y012919D01*
X006897Y013584D01*
X007822Y013584D01*
X007822Y013693D01*
X008019Y013693D02*
X008019Y013368D01*
X007920Y013269D01*
X007684Y013269D01*
X007527Y013427D01*
X006975Y013427D01*
X006739Y013191D01*
X006739Y012167D01*
X007015Y011891D01*
X018235Y011891D01*
X018590Y012246D01*
X018590Y012679D01*
X018373Y012895D01*
X017802Y012895D01*
X017802Y012698D02*
X017468Y012698D01*
X017369Y012600D01*
X017369Y012167D01*
X017251Y012049D01*
X007408Y012049D01*
X007231Y012226D01*
X007231Y012915D01*
X007802Y012915D01*
X008216Y013328D01*
X008216Y013693D01*
X008019Y013693D02*
X008019Y013998D01*
X007920Y014096D01*
X007684Y014096D01*
X007330Y013742D01*
X006818Y013742D01*
X006503Y013427D01*
X005743Y013427D01*
X005231Y012915D01*
X005519Y013427D02*
X004743Y013427D01*
X004231Y012915D01*
X004743Y012403D01*
X006031Y012403D01*
X006857Y011576D01*
X018727Y011576D01*
X017330Y012954D02*
X017054Y012954D01*
X017330Y012954D02*
X017468Y013092D01*
X017802Y013092D01*
X017802Y013289D02*
X017389Y013289D01*
X017330Y013230D01*
X016700Y013230D01*
X017054Y013506D02*
X017290Y013506D01*
X017468Y013683D01*
X017802Y013683D01*
X017802Y013880D02*
X017389Y013880D01*
X017251Y013742D01*
X016700Y013742D01*
X017054Y014017D02*
X017251Y014017D01*
X017310Y014076D01*
X017802Y014076D01*
X017802Y014273D02*
X017310Y014273D01*
X017290Y014293D01*
X016700Y014293D01*
X017054Y014569D02*
X017290Y014569D01*
X017389Y014470D01*
X017802Y014470D01*
X017802Y014667D02*
X017468Y014667D01*
X017290Y014844D01*
X016700Y014844D01*
X017330Y015120D02*
X013668Y015120D01*
X013314Y015474D01*
X011936Y015474D01*
X011877Y015415D01*
X011513Y015415D01*
X011513Y015612D02*
X011838Y015612D01*
X011857Y015631D01*
X013393Y015631D01*
X013747Y015277D01*
X017408Y015277D01*
X017428Y015257D01*
X017802Y015257D01*
X017802Y015061D02*
X017389Y015061D01*
X017330Y015120D01*
X017408Y015435D02*
X013826Y015435D01*
X013471Y015789D01*
X011857Y015789D01*
X011838Y015809D01*
X011513Y015809D01*
X011513Y016006D02*
X011877Y016006D01*
X011936Y015946D01*
X013550Y015946D01*
X013905Y015592D01*
X017330Y015592D01*
X017389Y015651D01*
X017802Y015651D01*
X017802Y015454D02*
X017428Y015454D01*
X017408Y015435D01*
X016601Y016045D02*
X016601Y016320D01*
X017034Y016320D02*
X017113Y016320D01*
X017428Y016635D01*
X017802Y016635D01*
X017468Y017029D02*
X017251Y016813D01*
X015479Y016813D01*
X015243Y016576D01*
X012133Y016576D01*
X011956Y016399D01*
X011513Y016399D01*
X011513Y016596D02*
X011916Y016596D01*
X012054Y016734D01*
X015164Y016734D01*
X015401Y016970D01*
X017172Y016970D01*
X017428Y017226D01*
X017802Y017226D01*
X017802Y017423D02*
X017389Y017423D01*
X017094Y017128D01*
X015322Y017128D01*
X015086Y016891D01*
X011975Y016891D01*
X011877Y016793D01*
X011513Y016793D01*
X011513Y016990D02*
X011838Y016990D01*
X011897Y017049D01*
X015007Y017049D01*
X015243Y017285D01*
X017015Y017285D01*
X017349Y017620D01*
X017802Y017620D01*
X017802Y017817D02*
X016523Y017817D01*
X016424Y017915D01*
X016660Y018230D02*
X016877Y018013D01*
X017802Y018013D01*
X017802Y018210D02*
X017231Y018210D01*
X016897Y018545D01*
X017133Y018860D02*
X017290Y018702D01*
X017290Y018584D01*
X017468Y018407D01*
X017802Y018407D01*
X018944Y019411D02*
X017210Y021145D01*
X017210Y022521D01*
X017704Y022515D02*
X017710Y022521D01*
X017704Y022515D02*
X017704Y021734D01*
X017704Y021380D01*
X017704Y021320D01*
X017999Y021025D01*
X018747Y021025D01*
X019121Y020651D01*
X019121Y020317D01*
X020105Y020317D02*
X020105Y020848D01*
X020086Y020868D01*
X020097Y020856D01*
X020302Y020317D02*
X020302Y019943D01*
X019771Y019411D01*
X018944Y019411D01*
X020696Y020317D02*
X020696Y020809D01*
X020755Y020868D01*
X020755Y021852D01*
X020991Y021537D02*
X020991Y020789D01*
X020893Y020691D01*
X020893Y020317D01*
X021483Y020317D02*
X021483Y020651D01*
X021267Y020868D01*
X021267Y021852D01*
X021503Y021537D02*
X021503Y020946D01*
X021680Y020769D01*
X021680Y020317D01*
X021877Y020317D02*
X021877Y020809D01*
X022015Y020946D01*
X022015Y021852D01*
X022251Y021537D02*
X022251Y020868D01*
X022074Y020691D01*
X022074Y020317D01*
X022861Y020317D02*
X022861Y020651D01*
X022527Y020986D01*
X022527Y021852D01*
X022763Y021537D02*
X022763Y021065D01*
X023058Y020769D01*
X023058Y020317D01*
X023649Y020317D02*
X023649Y020651D01*
X023511Y020789D01*
X023511Y021852D01*
X023786Y021537D02*
X023786Y020828D01*
X023845Y020769D01*
X023845Y020317D01*
X024042Y020317D02*
X024042Y020887D01*
X024062Y020907D01*
X024062Y021852D01*
X024338Y021537D02*
X024338Y022187D01*
X024357Y022206D01*
X024613Y021852D02*
X024613Y020828D01*
X024436Y020651D01*
X024436Y020317D01*
X024239Y020317D02*
X024239Y020769D01*
X024338Y020868D01*
X024338Y021537D01*
X025164Y021439D02*
X025597Y021439D01*
X026031Y021439D01*
X026031Y021734D01*
X026031Y021084D02*
X026031Y020828D01*
X025617Y020415D01*
X025617Y020317D01*
X025420Y020317D02*
X025420Y020651D01*
X025597Y020828D01*
X025597Y021084D01*
X025223Y021025D02*
X025164Y021084D01*
X025223Y021025D02*
X025223Y020317D01*
X025420Y020317D02*
X025420Y019982D01*
X025125Y019687D01*
X026542Y018801D02*
X026877Y018801D01*
X026897Y018820D01*
X028156Y018820D01*
X028166Y018830D01*
X028353Y018830D01*
X028442Y018742D01*
X028481Y018742D01*
X028393Y018574D02*
X027851Y018574D01*
X027842Y018584D01*
X026897Y018584D01*
X026877Y018604D01*
X026542Y018604D01*
X026542Y018210D02*
X026877Y018210D01*
X026975Y018309D01*
X028156Y018309D01*
X028166Y018319D01*
X028393Y018319D01*
X028422Y018348D01*
X028481Y018348D01*
X028481Y018151D02*
X028442Y018151D01*
X028353Y018063D01*
X027851Y018063D01*
X027842Y018072D01*
X027054Y018072D01*
X026995Y018013D01*
X026542Y018013D01*
X026542Y017620D02*
X026995Y017620D01*
X027054Y017561D01*
X028156Y017561D01*
X028166Y017551D01*
X028353Y017551D01*
X028442Y017462D01*
X028481Y017462D01*
X028393Y017295D02*
X027871Y017295D01*
X027842Y017324D01*
X026975Y017324D01*
X026877Y017423D01*
X026542Y017423D01*
X026542Y017029D02*
X026916Y017029D01*
X026936Y017049D01*
X028156Y017049D01*
X028166Y017039D01*
X028393Y017039D01*
X028422Y017069D01*
X028481Y017069D01*
X028481Y017265D02*
X028422Y017265D01*
X028393Y017295D01*
X028442Y016872D02*
X028353Y016783D01*
X027871Y016783D01*
X027842Y016813D01*
X026897Y016813D01*
X026877Y016832D01*
X026542Y016832D01*
X028442Y016872D02*
X028481Y016872D01*
X028481Y018545D02*
X028422Y018545D01*
X028393Y018574D01*
X023058Y022777D02*
X023058Y023250D01*
X023216Y023407D01*
X023216Y023939D01*
X023412Y023939D02*
X023412Y024352D01*
X022999Y024765D01*
X022487Y024765D01*
X022290Y024962D01*
X022290Y025395D01*
X022054Y025080D02*
X022054Y024805D01*
X022251Y024608D01*
X022842Y024608D01*
X023019Y024431D01*
X023019Y023939D01*
X022822Y023939D02*
X022822Y023013D01*
X022802Y022994D01*
X022487Y023269D02*
X022428Y023328D01*
X022428Y023939D01*
X022231Y023939D02*
X022231Y023013D01*
X022212Y022994D01*
X022487Y023269D02*
X022448Y023309D01*
X021897Y023269D02*
X021838Y023328D01*
X021838Y023939D01*
X022034Y023939D02*
X022034Y024391D01*
X022094Y024450D01*
X022527Y024450D01*
X022625Y024352D01*
X022625Y023939D01*
X022034Y024391D02*
X022015Y024411D01*
X021444Y024391D02*
X021444Y023939D01*
X021641Y023939D02*
X021641Y023013D01*
X021621Y022994D01*
X021897Y023269D02*
X021857Y023309D01*
X021306Y023269D02*
X021247Y023328D01*
X021247Y023939D01*
X021050Y023939D02*
X021050Y023013D01*
X021031Y022994D01*
X021306Y023269D02*
X021267Y023309D01*
X020716Y023269D02*
X020656Y023328D01*
X020656Y023939D01*
X020853Y023939D02*
X020853Y024391D01*
X020834Y024411D01*
X021424Y024411D02*
X021444Y024391D01*
X022566Y025080D02*
X022684Y024962D01*
X023117Y024962D01*
X023609Y024470D01*
X023609Y023939D01*
X024200Y023939D02*
X024200Y024785D01*
X024180Y024805D01*
X020716Y023269D02*
X020676Y023309D01*
X018710Y023822D02*
X018710Y024569D01*
X018210Y024569D02*
X018210Y024004D01*
X018235Y023978D01*
X017723Y023978D02*
X017710Y023992D01*
X017710Y024569D01*
X018708Y023820D02*
X018710Y023822D01*
X018196Y023112D02*
X018210Y023098D01*
X018210Y022521D01*
X018353Y021380D02*
X018058Y021380D01*
X016464Y020494D02*
X016109Y020494D01*
X016099Y020504D01*
X015243Y020504D01*
X015243Y021015D02*
X015765Y021015D01*
X015834Y020946D01*
X015853Y020139D02*
X015361Y019647D01*
X014987Y019647D01*
X014633Y019293D01*
X015853Y020139D02*
X016109Y020139D01*
X013038Y020504D02*
X012182Y020504D01*
X012172Y020494D01*
X011818Y020494D01*
X011818Y020139D02*
X011326Y020139D01*
X011306Y020159D01*
X010912Y020907D02*
X012566Y020907D01*
X012674Y021015D01*
X013038Y021015D01*
X010046Y018958D02*
X009692Y018958D01*
X009239Y018958D01*
X008806Y018525D01*
X008806Y018122D01*
X008412Y018122D02*
X008412Y018565D01*
X008511Y018663D01*
X008019Y019076D02*
X007645Y019450D01*
X007645Y019844D01*
X007802Y020002D01*
X008046Y020002D01*
X008609Y020002D01*
X008964Y020002D02*
X008964Y019352D01*
X008944Y019332D01*
X008964Y019647D02*
X008964Y020002D01*
X008609Y019647D02*
X008062Y019647D01*
X008046Y019632D01*
X008133Y019632D01*
X008216Y019549D01*
X008216Y018122D01*
X008019Y018122D02*
X008019Y019076D01*
X007086Y019632D02*
X007070Y019647D01*
X006542Y019647D01*
X006326Y019647D01*
X006070Y019903D01*
X005716Y019903D02*
X005420Y019903D01*
X005401Y019923D01*
X005716Y020257D02*
X006070Y020257D01*
X006184Y020372D01*
X007086Y020372D01*
X005971Y018899D02*
X005971Y018446D01*
X006031Y018387D01*
X006621Y017797D01*
X006621Y017324D01*
X006759Y017187D01*
X007084Y017187D01*
X007084Y016990D02*
X006641Y016990D01*
X006306Y017324D01*
X005519Y017324D01*
X005125Y017718D01*
X005164Y017718D01*
X005105Y017777D01*
X004613Y017777D01*
X006208Y016458D02*
X006267Y016399D01*
X007084Y016399D01*
X007084Y016202D02*
X002556Y016202D01*
X002517Y016242D01*
X002536Y016006D02*
X002517Y015986D01*
X002536Y016006D02*
X007084Y016006D01*
X007499Y015996D02*
X011097Y015996D01*
X011097Y015938D02*
X007499Y015938D01*
X007499Y015879D02*
X011097Y015879D01*
X011097Y015821D02*
X007499Y015821D01*
X007499Y015762D02*
X011097Y015762D01*
X011097Y015704D02*
X007499Y015704D01*
X007499Y015645D02*
X011097Y015645D01*
X011097Y015587D02*
X007499Y015587D01*
X007499Y015528D02*
X011097Y015528D01*
X011097Y015470D02*
X007499Y015470D01*
X007499Y015411D02*
X011097Y015411D01*
X011097Y015353D02*
X007499Y015353D01*
X007499Y015308D02*
X007499Y017490D01*
X007458Y017531D01*
X007763Y017836D01*
X007836Y017836D01*
X007836Y017782D01*
X007912Y017706D01*
X010685Y017706D01*
X010761Y017782D01*
X010761Y017836D01*
X010834Y017836D01*
X011138Y017531D01*
X011097Y017490D01*
X011097Y015308D01*
X011174Y015232D01*
X011227Y015232D01*
X011227Y015204D01*
X011174Y015204D01*
X011128Y015159D01*
X007545Y015159D01*
X007503Y015201D01*
X007426Y015201D01*
X007423Y015204D01*
X007369Y015204D01*
X007369Y015232D01*
X007423Y015232D01*
X007499Y015308D01*
X007485Y015294D02*
X011111Y015294D01*
X011170Y015236D02*
X007427Y015236D01*
X007527Y015177D02*
X011146Y015177D01*
X011097Y016055D02*
X007499Y016055D01*
X007499Y016113D02*
X011097Y016113D01*
X011097Y016172D02*
X007499Y016172D01*
X007499Y016230D02*
X011097Y016230D01*
X011097Y016289D02*
X007499Y016289D01*
X007499Y016347D02*
X011097Y016347D01*
X011097Y016406D02*
X007499Y016406D01*
X007499Y016464D02*
X011097Y016464D01*
X011097Y016523D02*
X007499Y016523D01*
X007499Y016581D02*
X011097Y016581D01*
X011097Y016640D02*
X007499Y016640D01*
X007499Y016698D02*
X011097Y016698D01*
X011097Y016757D02*
X007499Y016757D01*
X007499Y016815D02*
X011097Y016815D01*
X011097Y016874D02*
X007499Y016874D01*
X007499Y016932D02*
X011097Y016932D01*
X011097Y016991D02*
X007499Y016991D01*
X007499Y017049D02*
X011097Y017049D01*
X011097Y017108D02*
X007499Y017108D01*
X007499Y017166D02*
X011097Y017166D01*
X011097Y017225D02*
X007499Y017225D01*
X007499Y017283D02*
X011097Y017283D01*
X011097Y017342D02*
X007499Y017342D01*
X007499Y017400D02*
X011097Y017400D01*
X011097Y017459D02*
X007499Y017459D01*
X007472Y017517D02*
X011124Y017517D01*
X011094Y017576D02*
X007502Y017576D01*
X007561Y017634D02*
X011036Y017634D01*
X010977Y017693D02*
X007619Y017693D01*
X007678Y017751D02*
X007867Y017751D01*
X007836Y017810D02*
X007736Y017810D01*
X009338Y019332D02*
X009357Y019313D01*
X009692Y019313D01*
X010761Y017810D02*
X010860Y017810D01*
X010919Y017751D02*
X010730Y017751D01*
X007084Y014824D02*
X006306Y014824D01*
X006247Y014765D01*
X005893Y014765D02*
X005597Y014765D01*
X006424Y013584D02*
X007084Y014244D01*
X007084Y014431D01*
X006424Y013584D02*
X005676Y013584D01*
X005519Y013427D01*
X017468Y017029D02*
X017802Y017029D01*
X017172Y026222D02*
X016838Y026222D01*
X016483Y026222D02*
X016483Y026576D01*
X016365Y026694D01*
D51*
X012960Y022836D02*
X011542Y022836D01*
X010834Y022836D01*
X010912Y022728D01*
X010834Y022836D02*
X009849Y022836D01*
X011818Y021537D02*
X011828Y021527D01*
X012202Y021527D01*
X012172Y021557D01*
X012202Y021527D02*
X013038Y021527D01*
X013038Y021783D02*
X012595Y021783D01*
X012468Y021911D01*
X012172Y021911D01*
X013038Y022039D02*
X013038Y022324D01*
X013038Y022620D01*
X013058Y022639D01*
X013058Y022738D01*
X012960Y022836D01*
X013038Y022324D02*
X015243Y022324D01*
X015243Y022620D01*
X015223Y022639D01*
X015243Y022324D02*
X015243Y022039D01*
X015243Y021783D02*
X015686Y021783D01*
X015814Y021911D01*
X016109Y021911D01*
X016109Y021557D02*
X016080Y021527D01*
X016414Y021527D01*
X016424Y021537D01*
X016080Y021527D02*
X015243Y021527D01*
X011306Y019608D02*
X010912Y020002D01*
X010912Y020907D01*
X003078Y018939D02*
X003078Y016694D01*
X002881Y016498D01*
X002517Y016498D01*
X005117Y010946D02*
X004527Y010356D01*
X005117Y010946D02*
X013527Y010946D01*
X013527Y010356D01*
X013527Y010946D02*
X014062Y010946D01*
X012527Y010356D02*
X012527Y009261D01*
X012546Y009242D01*
X012546Y008242D01*
X014062Y012443D02*
X012448Y014057D01*
X012448Y014490D01*
X003527Y010356D02*
X003527Y009261D01*
X003546Y009242D01*
X003546Y008242D01*
M02*
