G75*
%MOIN*%
%OFA0B0*%
%FSLAX24Y24*%
%IPPOS*%
%LPD*%
%AMOC8*
5,1,8,0,0,1.08239X$1,22.5*
%
%ADD10C,0.0000*%
%ADD11R,0.0078X0.0708*%
%ADD12R,0.0117X0.0157*%
%ADD13R,0.0078X0.0216*%
%ADD14R,0.0531X0.0066*%
%ADD15R,0.0066X0.0531*%
%ADD16R,0.0491X0.0117*%
%ADD17R,0.0708X0.0669*%
%ADD18R,0.0708X0.0708*%
%ADD19R,0.0590X0.0787*%
%ADD20R,0.0354X0.0314*%
%ADD21R,0.0157X0.0117*%
%ADD22R,0.0460X0.0180*%
%ADD23R,0.0275X0.0157*%
%ADD24R,0.0157X0.0275*%
%ADD25R,0.0275X0.0275*%
%ADD26R,0.0590X0.0295*%
%ADD27R,0.0196X0.0157*%
%ADD28R,0.1338X0.0354*%
%ADD29R,0.0196X0.0196*%
%ADD30C,0.0196*%
%ADD31R,0.0590X0.0078*%
%ADD32R,0.0078X0.0590*%
%ADD33R,0.0177X0.0491*%
%ADD34R,0.0787X0.0460*%
%ADD35R,0.0708X0.0078*%
%ADD36R,0.0216X0.0078*%
%ADD37R,0.0969X0.0909*%
%ADD38R,0.0354X0.1023*%
D10*
X000873Y004647D02*
X000873Y027246D01*
X033550Y027246D01*
X033550Y004647D01*
X000873Y004647D01*
X001213Y005612D02*
X001215Y005662D01*
X001221Y005711D01*
X001231Y005760D01*
X001244Y005807D01*
X001262Y005854D01*
X001283Y005899D01*
X001307Y005942D01*
X001335Y005983D01*
X001366Y006022D01*
X001400Y006058D01*
X001437Y006092D01*
X001477Y006122D01*
X001518Y006149D01*
X001562Y006173D01*
X001607Y006193D01*
X001654Y006209D01*
X001702Y006222D01*
X001751Y006231D01*
X001801Y006236D01*
X001850Y006237D01*
X001900Y006234D01*
X001949Y006227D01*
X001998Y006216D01*
X002045Y006202D01*
X002091Y006183D01*
X002136Y006161D01*
X002179Y006136D01*
X002219Y006107D01*
X002257Y006075D01*
X002293Y006041D01*
X002326Y006003D01*
X002355Y005963D01*
X002381Y005921D01*
X002404Y005877D01*
X002423Y005831D01*
X002439Y005784D01*
X002451Y005735D01*
X002459Y005686D01*
X002463Y005637D01*
X002463Y005587D01*
X002459Y005538D01*
X002451Y005489D01*
X002439Y005440D01*
X002423Y005393D01*
X002404Y005347D01*
X002381Y005303D01*
X002355Y005261D01*
X002326Y005221D01*
X002293Y005183D01*
X002257Y005149D01*
X002219Y005117D01*
X002179Y005088D01*
X002136Y005063D01*
X002091Y005041D01*
X002045Y005022D01*
X001998Y005008D01*
X001949Y004997D01*
X001900Y004990D01*
X001850Y004987D01*
X001801Y004988D01*
X001751Y004993D01*
X001702Y005002D01*
X001654Y005015D01*
X001607Y005031D01*
X001562Y005051D01*
X001518Y005075D01*
X001477Y005102D01*
X001437Y005132D01*
X001400Y005166D01*
X001366Y005202D01*
X001335Y005241D01*
X001307Y005282D01*
X001283Y005325D01*
X001262Y005370D01*
X001244Y005417D01*
X001231Y005464D01*
X001221Y005513D01*
X001215Y005562D01*
X001213Y005612D01*
X001213Y026281D02*
X001215Y026331D01*
X001221Y026380D01*
X001231Y026429D01*
X001244Y026476D01*
X001262Y026523D01*
X001283Y026568D01*
X001307Y026611D01*
X001335Y026652D01*
X001366Y026691D01*
X001400Y026727D01*
X001437Y026761D01*
X001477Y026791D01*
X001518Y026818D01*
X001562Y026842D01*
X001607Y026862D01*
X001654Y026878D01*
X001702Y026891D01*
X001751Y026900D01*
X001801Y026905D01*
X001850Y026906D01*
X001900Y026903D01*
X001949Y026896D01*
X001998Y026885D01*
X002045Y026871D01*
X002091Y026852D01*
X002136Y026830D01*
X002179Y026805D01*
X002219Y026776D01*
X002257Y026744D01*
X002293Y026710D01*
X002326Y026672D01*
X002355Y026632D01*
X002381Y026590D01*
X002404Y026546D01*
X002423Y026500D01*
X002439Y026453D01*
X002451Y026404D01*
X002459Y026355D01*
X002463Y026306D01*
X002463Y026256D01*
X002459Y026207D01*
X002451Y026158D01*
X002439Y026109D01*
X002423Y026062D01*
X002404Y026016D01*
X002381Y025972D01*
X002355Y025930D01*
X002326Y025890D01*
X002293Y025852D01*
X002257Y025818D01*
X002219Y025786D01*
X002179Y025757D01*
X002136Y025732D01*
X002091Y025710D01*
X002045Y025691D01*
X001998Y025677D01*
X001949Y025666D01*
X001900Y025659D01*
X001850Y025656D01*
X001801Y025657D01*
X001751Y025662D01*
X001702Y025671D01*
X001654Y025684D01*
X001607Y025700D01*
X001562Y025720D01*
X001518Y025744D01*
X001477Y025771D01*
X001437Y025801D01*
X001400Y025835D01*
X001366Y025871D01*
X001335Y025910D01*
X001307Y025951D01*
X001283Y025994D01*
X001262Y026039D01*
X001244Y026086D01*
X001231Y026133D01*
X001221Y026182D01*
X001215Y026231D01*
X001213Y026281D01*
X031961Y026281D02*
X031963Y026331D01*
X031969Y026380D01*
X031979Y026429D01*
X031992Y026476D01*
X032010Y026523D01*
X032031Y026568D01*
X032055Y026611D01*
X032083Y026652D01*
X032114Y026691D01*
X032148Y026727D01*
X032185Y026761D01*
X032225Y026791D01*
X032266Y026818D01*
X032310Y026842D01*
X032355Y026862D01*
X032402Y026878D01*
X032450Y026891D01*
X032499Y026900D01*
X032549Y026905D01*
X032598Y026906D01*
X032648Y026903D01*
X032697Y026896D01*
X032746Y026885D01*
X032793Y026871D01*
X032839Y026852D01*
X032884Y026830D01*
X032927Y026805D01*
X032967Y026776D01*
X033005Y026744D01*
X033041Y026710D01*
X033074Y026672D01*
X033103Y026632D01*
X033129Y026590D01*
X033152Y026546D01*
X033171Y026500D01*
X033187Y026453D01*
X033199Y026404D01*
X033207Y026355D01*
X033211Y026306D01*
X033211Y026256D01*
X033207Y026207D01*
X033199Y026158D01*
X033187Y026109D01*
X033171Y026062D01*
X033152Y026016D01*
X033129Y025972D01*
X033103Y025930D01*
X033074Y025890D01*
X033041Y025852D01*
X033005Y025818D01*
X032967Y025786D01*
X032927Y025757D01*
X032884Y025732D01*
X032839Y025710D01*
X032793Y025691D01*
X032746Y025677D01*
X032697Y025666D01*
X032648Y025659D01*
X032598Y025656D01*
X032549Y025657D01*
X032499Y025662D01*
X032450Y025671D01*
X032402Y025684D01*
X032355Y025700D01*
X032310Y025720D01*
X032266Y025744D01*
X032225Y025771D01*
X032185Y025801D01*
X032148Y025835D01*
X032114Y025871D01*
X032083Y025910D01*
X032055Y025951D01*
X032031Y025994D01*
X032010Y026039D01*
X031992Y026086D01*
X031979Y026133D01*
X031969Y026182D01*
X031963Y026231D01*
X031961Y026281D01*
X031961Y005612D02*
X031963Y005662D01*
X031969Y005711D01*
X031979Y005760D01*
X031992Y005807D01*
X032010Y005854D01*
X032031Y005899D01*
X032055Y005942D01*
X032083Y005983D01*
X032114Y006022D01*
X032148Y006058D01*
X032185Y006092D01*
X032225Y006122D01*
X032266Y006149D01*
X032310Y006173D01*
X032355Y006193D01*
X032402Y006209D01*
X032450Y006222D01*
X032499Y006231D01*
X032549Y006236D01*
X032598Y006237D01*
X032648Y006234D01*
X032697Y006227D01*
X032746Y006216D01*
X032793Y006202D01*
X032839Y006183D01*
X032884Y006161D01*
X032927Y006136D01*
X032967Y006107D01*
X033005Y006075D01*
X033041Y006041D01*
X033074Y006003D01*
X033103Y005963D01*
X033129Y005921D01*
X033152Y005877D01*
X033171Y005831D01*
X033187Y005784D01*
X033199Y005735D01*
X033207Y005686D01*
X033211Y005637D01*
X033211Y005587D01*
X033207Y005538D01*
X033199Y005489D01*
X033187Y005440D01*
X033171Y005393D01*
X033152Y005347D01*
X033129Y005303D01*
X033103Y005261D01*
X033074Y005221D01*
X033041Y005183D01*
X033005Y005149D01*
X032967Y005117D01*
X032927Y005088D01*
X032884Y005063D01*
X032839Y005041D01*
X032793Y005022D01*
X032746Y005008D01*
X032697Y004997D01*
X032648Y004990D01*
X032598Y004987D01*
X032549Y004988D01*
X032499Y004993D01*
X032450Y005002D01*
X032402Y005015D01*
X032355Y005031D01*
X032310Y005051D01*
X032266Y005075D01*
X032225Y005102D01*
X032185Y005132D01*
X032148Y005166D01*
X032114Y005202D01*
X032083Y005241D01*
X032055Y005282D01*
X032031Y005325D01*
X032010Y005370D01*
X031992Y005417D01*
X031979Y005464D01*
X031969Y005513D01*
X031963Y005562D01*
X031961Y005612D01*
D11*
X025538Y007954D03*
X025342Y007954D03*
X025145Y007954D03*
X024948Y007954D03*
X024751Y007954D03*
X024554Y007954D03*
X024357Y007954D03*
X024160Y007954D03*
X023964Y007954D03*
X023767Y007954D03*
X023570Y007954D03*
X023373Y007954D03*
X023176Y007954D03*
X022979Y007954D03*
X022782Y007954D03*
X022586Y007954D03*
X022389Y007954D03*
X022192Y007954D03*
X021995Y007954D03*
X022034Y023939D03*
X021838Y023939D03*
X021641Y023939D03*
X021444Y023939D03*
X021247Y023939D03*
X021050Y023939D03*
X020853Y023939D03*
X020656Y023939D03*
X022231Y023939D03*
X022428Y023939D03*
X022625Y023939D03*
X022822Y023939D03*
X023019Y023939D03*
X023216Y023939D03*
X023412Y023939D03*
X023609Y023939D03*
X023806Y023939D03*
X024003Y023939D03*
X024200Y023939D03*
D12*
X024436Y023151D03*
X024790Y023151D03*
X024712Y022206D03*
X024357Y022206D03*
X018058Y021734D03*
X017704Y021734D03*
X017704Y021380D03*
X018058Y021380D03*
X016838Y026222D03*
X016483Y026222D03*
X008964Y020356D03*
X008964Y020002D03*
X008609Y020002D03*
X008609Y020356D03*
X008609Y019647D03*
X008964Y019647D03*
X007428Y018269D03*
X007074Y018269D03*
X005971Y018899D03*
X005617Y018899D03*
X005853Y016458D03*
X006208Y016458D03*
X006247Y015198D03*
X005893Y015198D03*
X005893Y014765D03*
X006247Y014765D03*
X012664Y015198D03*
X013019Y015198D03*
X013019Y016261D03*
X012664Y016261D03*
X021129Y009647D03*
X021483Y009647D03*
X028767Y008427D03*
X029121Y008427D03*
X029160Y012639D03*
X028806Y012639D03*
X029121Y015317D03*
X029475Y015317D03*
D13*
X025361Y009716D03*
X025164Y009716D03*
X024968Y009716D03*
X024771Y009716D03*
X024771Y009263D03*
X024968Y009263D03*
X025164Y009263D03*
X025361Y009263D03*
X024082Y009263D03*
X023885Y009263D03*
X023688Y009263D03*
X023491Y009263D03*
X023491Y009716D03*
X023688Y009716D03*
X023885Y009716D03*
X024082Y009716D03*
D14*
X011513Y014431D03*
X011513Y014628D03*
X011513Y014824D03*
X011513Y015021D03*
X011513Y015218D03*
X011513Y015415D03*
X011513Y015612D03*
X011513Y015809D03*
X011513Y016006D03*
X011513Y016202D03*
X011513Y016399D03*
X011513Y016596D03*
X011513Y016793D03*
X011513Y016990D03*
X011513Y017187D03*
X011513Y017383D03*
X007084Y017383D03*
X007084Y017187D03*
X007084Y016990D03*
X007084Y016793D03*
X007084Y016596D03*
X007084Y016399D03*
X007084Y016202D03*
X007084Y016006D03*
X007084Y015809D03*
X007084Y015612D03*
X007084Y015415D03*
X007084Y015218D03*
X007084Y015021D03*
X007084Y014824D03*
X007084Y014628D03*
X007084Y014431D03*
D15*
X007822Y013693D03*
X008019Y013693D03*
X008216Y013693D03*
X008412Y013693D03*
X008609Y013693D03*
X008806Y013693D03*
X009003Y013693D03*
X009200Y013693D03*
X009397Y013693D03*
X009594Y013693D03*
X009790Y013693D03*
X009987Y013693D03*
X010184Y013693D03*
X010381Y013693D03*
X010578Y013693D03*
X010775Y013693D03*
X010775Y018122D03*
X010578Y018122D03*
X010381Y018122D03*
X010184Y018122D03*
X009987Y018122D03*
X009790Y018122D03*
X009594Y018122D03*
X009397Y018122D03*
X009200Y018122D03*
X009003Y018122D03*
X008806Y018122D03*
X008609Y018122D03*
X008412Y018122D03*
X008216Y018122D03*
X008019Y018122D03*
X007822Y018122D03*
D16*
X002517Y016498D03*
X002517Y016242D03*
X002517Y015986D03*
X002517Y015730D03*
X002517Y015474D03*
D17*
X001464Y014490D03*
X001464Y017482D03*
D18*
X001464Y016458D03*
X001464Y015513D03*
D19*
X002468Y014765D03*
X002468Y017206D03*
D20*
X005164Y017718D03*
X006031Y017718D03*
X006031Y018387D03*
X005164Y018387D03*
D21*
X004613Y018131D03*
X004613Y017777D03*
X004771Y017029D03*
X004771Y016675D03*
X003786Y016675D03*
X003786Y017029D03*
X003786Y015651D03*
X003786Y015297D03*
X004771Y015297D03*
X004771Y015651D03*
X008432Y012935D03*
X008432Y012580D03*
X010558Y012580D03*
X010558Y012935D03*
X016031Y015927D03*
X016031Y016281D03*
X016109Y020139D03*
X016464Y020139D03*
X016464Y020494D03*
X016109Y020494D03*
X016109Y021557D03*
X016109Y021911D03*
X012172Y021911D03*
X012172Y021557D03*
X012172Y020494D03*
X011818Y020494D03*
X011818Y020139D03*
X012172Y020139D03*
X010046Y019313D03*
X009692Y019313D03*
X009692Y018958D03*
X010046Y018958D03*
X006070Y019903D03*
X005716Y019903D03*
X005716Y020257D03*
X006070Y020257D03*
X021936Y009076D03*
X021936Y008722D03*
X025952Y011124D03*
X025952Y011478D03*
X028550Y014509D03*
X028550Y014864D03*
X026031Y021084D03*
X025597Y021084D03*
X025597Y021439D03*
X026031Y021439D03*
X025164Y021439D03*
X025164Y021084D03*
D22*
X008046Y020372D03*
X008046Y020002D03*
X008046Y019632D03*
X007086Y019632D03*
X007086Y020002D03*
X007086Y020372D03*
D23*
X004298Y017265D03*
X004298Y016675D03*
X004298Y015651D03*
X004298Y015061D03*
D24*
X010578Y018820D03*
X011168Y018820D03*
X011168Y018309D03*
X011759Y018309D03*
X013058Y019293D03*
X013649Y019293D03*
X014042Y019805D03*
X014633Y019805D03*
X014633Y019293D03*
X015223Y019293D03*
X015223Y022639D03*
X014633Y022639D03*
X013649Y022639D03*
X013058Y022639D03*
D25*
X016365Y026694D03*
X016956Y026694D03*
D26*
X010912Y022728D03*
X010912Y021527D03*
D27*
X016601Y016320D03*
X016601Y016045D03*
X017034Y016045D03*
X017034Y016320D03*
D28*
X015066Y025041D03*
X012428Y025041D03*
D29*
X027802Y009372D03*
D30*
X027802Y009844D03*
X027802Y010317D03*
X027802Y010789D03*
X027802Y011261D03*
X028275Y011261D03*
X028747Y011261D03*
X029219Y011261D03*
X029692Y011261D03*
X029692Y010789D03*
X029692Y010317D03*
X029219Y010317D03*
X028747Y010317D03*
X028747Y010789D03*
X028275Y010789D03*
X028275Y010317D03*
X028275Y009844D03*
X028747Y009844D03*
X029219Y009844D03*
X029692Y009844D03*
X029692Y009372D03*
X029219Y009372D03*
X028747Y009372D03*
X028275Y009372D03*
X029219Y010789D03*
X030164Y010789D03*
X030164Y010317D03*
X030637Y010317D03*
X030637Y010789D03*
X031109Y010789D03*
X031109Y010317D03*
X031582Y010317D03*
X031582Y010789D03*
X031582Y011261D03*
X031109Y011261D03*
X030637Y011261D03*
X030164Y011261D03*
X030164Y011734D03*
X030637Y011734D03*
X031109Y011734D03*
X031582Y011734D03*
X032527Y011734D03*
X032999Y011734D03*
X031582Y009844D03*
X031109Y009844D03*
X030637Y009844D03*
X030164Y009844D03*
X030164Y009372D03*
X030637Y009372D03*
X031109Y009372D03*
X031582Y009372D03*
X032527Y009372D03*
X032999Y009372D03*
X029692Y011734D03*
X029219Y011734D03*
X028747Y011734D03*
X028275Y011734D03*
X027802Y011734D03*
D31*
X026542Y012502D03*
X026542Y012698D03*
X026542Y012895D03*
X026542Y013092D03*
X026542Y013289D03*
X026542Y013486D03*
X026542Y013683D03*
X026542Y013880D03*
X026542Y014076D03*
X026542Y014273D03*
X026542Y014470D03*
X026542Y014667D03*
X026542Y014864D03*
X026542Y015061D03*
X026542Y015257D03*
X026542Y015454D03*
X026542Y015651D03*
X026542Y015848D03*
X026542Y016045D03*
X026542Y016242D03*
X026542Y016439D03*
X026542Y016635D03*
X026542Y016832D03*
X026542Y017029D03*
X026542Y017226D03*
X026542Y017423D03*
X026542Y017620D03*
X026542Y017817D03*
X026542Y018013D03*
X026542Y018210D03*
X026542Y018407D03*
X026542Y018604D03*
X026542Y018801D03*
X026542Y018998D03*
X026542Y019194D03*
X026542Y019391D03*
X017802Y019391D03*
X017802Y019194D03*
X017802Y018998D03*
X017802Y018801D03*
X017802Y018604D03*
X017802Y018407D03*
X017802Y018210D03*
X017802Y018013D03*
X017802Y017817D03*
X017802Y017620D03*
X017802Y017423D03*
X017802Y017226D03*
X017802Y017029D03*
X017802Y016832D03*
X017802Y016635D03*
X017802Y016439D03*
X017802Y016242D03*
X017802Y016045D03*
X017802Y015848D03*
X017802Y015651D03*
X017802Y015454D03*
X017802Y015257D03*
X017802Y015061D03*
X017802Y014864D03*
X017802Y014667D03*
X017802Y014470D03*
X017802Y014273D03*
X017802Y014076D03*
X017802Y013880D03*
X017802Y013683D03*
X017802Y013486D03*
X017802Y013289D03*
X017802Y013092D03*
X017802Y012895D03*
X017802Y012698D03*
X017802Y012502D03*
X015243Y020248D03*
X015243Y020504D03*
X015243Y020759D03*
X015243Y021015D03*
X015243Y021271D03*
X015243Y021527D03*
X015243Y021783D03*
X015243Y022039D03*
X013038Y022039D03*
X013038Y021783D03*
X013038Y021527D03*
X013038Y021271D03*
X013038Y021015D03*
X013038Y020759D03*
X013038Y020504D03*
X013038Y020248D03*
D32*
X018727Y020317D03*
X018924Y020317D03*
X019121Y020317D03*
X019318Y020317D03*
X019515Y020317D03*
X019712Y020317D03*
X019908Y020317D03*
X020105Y020317D03*
X020302Y020317D03*
X020499Y020317D03*
X020696Y020317D03*
X020893Y020317D03*
X021090Y020317D03*
X021286Y020317D03*
X021483Y020317D03*
X021680Y020317D03*
X021877Y020317D03*
X022074Y020317D03*
X022271Y020317D03*
X022468Y020317D03*
X022664Y020317D03*
X022861Y020317D03*
X023058Y020317D03*
X023255Y020317D03*
X023452Y020317D03*
X023649Y020317D03*
X023845Y020317D03*
X024042Y020317D03*
X024239Y020317D03*
X024436Y020317D03*
X024633Y020317D03*
X024830Y020317D03*
X025027Y020317D03*
X025223Y020317D03*
X025420Y020317D03*
X025617Y020317D03*
X025617Y011576D03*
X025420Y011576D03*
X025223Y011576D03*
X025027Y011576D03*
X024830Y011576D03*
X024633Y011576D03*
X024436Y011576D03*
X024239Y011576D03*
X024042Y011576D03*
X023845Y011576D03*
X023649Y011576D03*
X023452Y011576D03*
X023255Y011576D03*
X023058Y011576D03*
X022861Y011576D03*
X022664Y011576D03*
X022468Y011576D03*
X022271Y011576D03*
X022074Y011576D03*
X021877Y011576D03*
X021680Y011576D03*
X021483Y011576D03*
X021286Y011576D03*
X021090Y011576D03*
X020893Y011576D03*
X020696Y011576D03*
X020499Y011576D03*
X020302Y011576D03*
X020105Y011576D03*
X019908Y011576D03*
X019712Y011576D03*
X019515Y011576D03*
X019318Y011576D03*
X019121Y011576D03*
X018924Y011576D03*
X018727Y011576D03*
D33*
X018710Y022521D03*
X018210Y022521D03*
X017710Y022521D03*
X017210Y022521D03*
X017210Y024569D03*
X017710Y024569D03*
X018210Y024569D03*
X018710Y024569D03*
D34*
X008590Y024049D03*
X008590Y022490D03*
D35*
X030243Y018919D03*
X030243Y018722D03*
X030243Y018525D03*
X030243Y018328D03*
X030243Y018131D03*
X030243Y017935D03*
X030243Y017738D03*
X030243Y017541D03*
X030243Y017344D03*
X030243Y017147D03*
X030243Y016950D03*
X030243Y016754D03*
X030243Y016557D03*
X030243Y016360D03*
X030243Y016163D03*
X030243Y015966D03*
X030243Y015769D03*
X030243Y015572D03*
X030243Y015376D03*
D36*
X028934Y016872D03*
X028934Y017069D03*
X028934Y017265D03*
X028934Y017462D03*
X028481Y017462D03*
X028481Y017265D03*
X028481Y017069D03*
X028481Y016872D03*
X028481Y018151D03*
X028481Y018348D03*
X028481Y018545D03*
X028481Y018742D03*
X028934Y018742D03*
X028934Y018545D03*
X028934Y018348D03*
X028934Y018151D03*
D37*
X014141Y021143D03*
D38*
X014613Y018387D03*
X015401Y018387D03*
X013668Y018387D03*
X012881Y018387D03*
M02*
