G75*
%MOIN*%
%OFA0B0*%
%FSLAX24Y24*%
%IPPOS*%
%LPD*%
%AMOC8*
5,1,8,0,0,1.08239X$1,22.5*
%
%ADD10C,0.0000*%
%ADD11C,0.0050*%
%ADD12C,0.0157*%
D10*
X000873Y004647D02*
X000873Y027246D01*
X033550Y027246D01*
X033550Y004647D01*
X000873Y004647D01*
X001213Y005612D02*
X001215Y005662D01*
X001221Y005711D01*
X001231Y005760D01*
X001244Y005807D01*
X001262Y005854D01*
X001283Y005899D01*
X001307Y005942D01*
X001335Y005983D01*
X001366Y006022D01*
X001400Y006058D01*
X001437Y006092D01*
X001477Y006122D01*
X001518Y006149D01*
X001562Y006173D01*
X001607Y006193D01*
X001654Y006209D01*
X001702Y006222D01*
X001751Y006231D01*
X001801Y006236D01*
X001850Y006237D01*
X001900Y006234D01*
X001949Y006227D01*
X001998Y006216D01*
X002045Y006202D01*
X002091Y006183D01*
X002136Y006161D01*
X002179Y006136D01*
X002219Y006107D01*
X002257Y006075D01*
X002293Y006041D01*
X002326Y006003D01*
X002355Y005963D01*
X002381Y005921D01*
X002404Y005877D01*
X002423Y005831D01*
X002439Y005784D01*
X002451Y005735D01*
X002459Y005686D01*
X002463Y005637D01*
X002463Y005587D01*
X002459Y005538D01*
X002451Y005489D01*
X002439Y005440D01*
X002423Y005393D01*
X002404Y005347D01*
X002381Y005303D01*
X002355Y005261D01*
X002326Y005221D01*
X002293Y005183D01*
X002257Y005149D01*
X002219Y005117D01*
X002179Y005088D01*
X002136Y005063D01*
X002091Y005041D01*
X002045Y005022D01*
X001998Y005008D01*
X001949Y004997D01*
X001900Y004990D01*
X001850Y004987D01*
X001801Y004988D01*
X001751Y004993D01*
X001702Y005002D01*
X001654Y005015D01*
X001607Y005031D01*
X001562Y005051D01*
X001518Y005075D01*
X001477Y005102D01*
X001437Y005132D01*
X001400Y005166D01*
X001366Y005202D01*
X001335Y005241D01*
X001307Y005282D01*
X001283Y005325D01*
X001262Y005370D01*
X001244Y005417D01*
X001231Y005464D01*
X001221Y005513D01*
X001215Y005562D01*
X001213Y005612D01*
X001213Y026281D02*
X001215Y026331D01*
X001221Y026380D01*
X001231Y026429D01*
X001244Y026476D01*
X001262Y026523D01*
X001283Y026568D01*
X001307Y026611D01*
X001335Y026652D01*
X001366Y026691D01*
X001400Y026727D01*
X001437Y026761D01*
X001477Y026791D01*
X001518Y026818D01*
X001562Y026842D01*
X001607Y026862D01*
X001654Y026878D01*
X001702Y026891D01*
X001751Y026900D01*
X001801Y026905D01*
X001850Y026906D01*
X001900Y026903D01*
X001949Y026896D01*
X001998Y026885D01*
X002045Y026871D01*
X002091Y026852D01*
X002136Y026830D01*
X002179Y026805D01*
X002219Y026776D01*
X002257Y026744D01*
X002293Y026710D01*
X002326Y026672D01*
X002355Y026632D01*
X002381Y026590D01*
X002404Y026546D01*
X002423Y026500D01*
X002439Y026453D01*
X002451Y026404D01*
X002459Y026355D01*
X002463Y026306D01*
X002463Y026256D01*
X002459Y026207D01*
X002451Y026158D01*
X002439Y026109D01*
X002423Y026062D01*
X002404Y026016D01*
X002381Y025972D01*
X002355Y025930D01*
X002326Y025890D01*
X002293Y025852D01*
X002257Y025818D01*
X002219Y025786D01*
X002179Y025757D01*
X002136Y025732D01*
X002091Y025710D01*
X002045Y025691D01*
X001998Y025677D01*
X001949Y025666D01*
X001900Y025659D01*
X001850Y025656D01*
X001801Y025657D01*
X001751Y025662D01*
X001702Y025671D01*
X001654Y025684D01*
X001607Y025700D01*
X001562Y025720D01*
X001518Y025744D01*
X001477Y025771D01*
X001437Y025801D01*
X001400Y025835D01*
X001366Y025871D01*
X001335Y025910D01*
X001307Y025951D01*
X001283Y025994D01*
X001262Y026039D01*
X001244Y026086D01*
X001231Y026133D01*
X001221Y026182D01*
X001215Y026231D01*
X001213Y026281D01*
X031961Y026281D02*
X031963Y026331D01*
X031969Y026380D01*
X031979Y026429D01*
X031992Y026476D01*
X032010Y026523D01*
X032031Y026568D01*
X032055Y026611D01*
X032083Y026652D01*
X032114Y026691D01*
X032148Y026727D01*
X032185Y026761D01*
X032225Y026791D01*
X032266Y026818D01*
X032310Y026842D01*
X032355Y026862D01*
X032402Y026878D01*
X032450Y026891D01*
X032499Y026900D01*
X032549Y026905D01*
X032598Y026906D01*
X032648Y026903D01*
X032697Y026896D01*
X032746Y026885D01*
X032793Y026871D01*
X032839Y026852D01*
X032884Y026830D01*
X032927Y026805D01*
X032967Y026776D01*
X033005Y026744D01*
X033041Y026710D01*
X033074Y026672D01*
X033103Y026632D01*
X033129Y026590D01*
X033152Y026546D01*
X033171Y026500D01*
X033187Y026453D01*
X033199Y026404D01*
X033207Y026355D01*
X033211Y026306D01*
X033211Y026256D01*
X033207Y026207D01*
X033199Y026158D01*
X033187Y026109D01*
X033171Y026062D01*
X033152Y026016D01*
X033129Y025972D01*
X033103Y025930D01*
X033074Y025890D01*
X033041Y025852D01*
X033005Y025818D01*
X032967Y025786D01*
X032927Y025757D01*
X032884Y025732D01*
X032839Y025710D01*
X032793Y025691D01*
X032746Y025677D01*
X032697Y025666D01*
X032648Y025659D01*
X032598Y025656D01*
X032549Y025657D01*
X032499Y025662D01*
X032450Y025671D01*
X032402Y025684D01*
X032355Y025700D01*
X032310Y025720D01*
X032266Y025744D01*
X032225Y025771D01*
X032185Y025801D01*
X032148Y025835D01*
X032114Y025871D01*
X032083Y025910D01*
X032055Y025951D01*
X032031Y025994D01*
X032010Y026039D01*
X031992Y026086D01*
X031979Y026133D01*
X031969Y026182D01*
X031963Y026231D01*
X031961Y026281D01*
X031961Y005612D02*
X031963Y005662D01*
X031969Y005711D01*
X031979Y005760D01*
X031992Y005807D01*
X032010Y005854D01*
X032031Y005899D01*
X032055Y005942D01*
X032083Y005983D01*
X032114Y006022D01*
X032148Y006058D01*
X032185Y006092D01*
X032225Y006122D01*
X032266Y006149D01*
X032310Y006173D01*
X032355Y006193D01*
X032402Y006209D01*
X032450Y006222D01*
X032499Y006231D01*
X032549Y006236D01*
X032598Y006237D01*
X032648Y006234D01*
X032697Y006227D01*
X032746Y006216D01*
X032793Y006202D01*
X032839Y006183D01*
X032884Y006161D01*
X032927Y006136D01*
X032967Y006107D01*
X033005Y006075D01*
X033041Y006041D01*
X033074Y006003D01*
X033103Y005963D01*
X033129Y005921D01*
X033152Y005877D01*
X033171Y005831D01*
X033187Y005784D01*
X033199Y005735D01*
X033207Y005686D01*
X033211Y005637D01*
X033211Y005587D01*
X033207Y005538D01*
X033199Y005489D01*
X033187Y005440D01*
X033171Y005393D01*
X033152Y005347D01*
X033129Y005303D01*
X033103Y005261D01*
X033074Y005221D01*
X033041Y005183D01*
X033005Y005149D01*
X032967Y005117D01*
X032927Y005088D01*
X032884Y005063D01*
X032839Y005041D01*
X032793Y005022D01*
X032746Y005008D01*
X032697Y004997D01*
X032648Y004990D01*
X032598Y004987D01*
X032549Y004988D01*
X032499Y004993D01*
X032450Y005002D01*
X032402Y005015D01*
X032355Y005031D01*
X032310Y005051D01*
X032266Y005075D01*
X032225Y005102D01*
X032185Y005132D01*
X032148Y005166D01*
X032114Y005202D01*
X032083Y005241D01*
X032055Y005282D01*
X032031Y005325D01*
X032010Y005370D01*
X031992Y005417D01*
X031979Y005464D01*
X031969Y005513D01*
X031963Y005562D01*
X031961Y005612D01*
D11*
X029411Y008570D02*
X029230Y008570D01*
X029185Y008615D01*
X029185Y008705D01*
X029230Y008750D01*
X029230Y008865D02*
X029185Y008910D01*
X029185Y009000D01*
X029230Y009045D01*
X029321Y009045D01*
X029366Y009000D01*
X029366Y008955D01*
X029321Y008865D01*
X029456Y008865D01*
X029456Y009045D01*
X029411Y009159D02*
X029456Y009204D01*
X029456Y009294D01*
X029411Y009339D01*
X029366Y009339D01*
X029185Y009159D01*
X029185Y009339D01*
X029411Y008750D02*
X029456Y008705D01*
X029456Y008615D01*
X029411Y008570D01*
X026306Y009717D02*
X026261Y009672D01*
X026081Y009672D01*
X026036Y009717D01*
X026036Y009807D01*
X026081Y009852D01*
X026081Y009967D02*
X026036Y010012D01*
X026036Y010102D01*
X026081Y010147D01*
X026126Y010147D01*
X026171Y010102D01*
X026171Y010057D01*
X026171Y010102D02*
X026216Y010147D01*
X026261Y010147D01*
X026306Y010102D01*
X026306Y010012D01*
X026261Y009967D01*
X026261Y009852D02*
X026306Y009807D01*
X026306Y009717D01*
X025814Y009214D02*
X025814Y007639D01*
X024549Y008064D02*
X024504Y008019D01*
X024414Y008019D01*
X024369Y008064D01*
X024369Y008289D01*
X024254Y008289D02*
X024254Y008154D01*
X024164Y008199D01*
X024119Y008199D01*
X024074Y008154D01*
X024074Y008064D01*
X024119Y008019D01*
X024209Y008019D01*
X024254Y008064D01*
X024254Y008289D02*
X024074Y008289D01*
X024549Y008289D02*
X024549Y008064D01*
X022782Y007639D02*
X022782Y009214D01*
X021615Y011326D02*
X021435Y011326D01*
X021390Y011371D01*
X021390Y011461D01*
X021435Y011506D01*
X021435Y011620D02*
X021390Y011665D01*
X021390Y011756D01*
X021435Y011801D01*
X021480Y011801D01*
X021525Y011756D01*
X021525Y011711D01*
X021525Y011756D02*
X021570Y011801D01*
X021615Y011801D01*
X021660Y011756D01*
X021660Y011665D01*
X021615Y011620D01*
X021615Y011506D02*
X021660Y011461D01*
X021660Y011371D01*
X021615Y011326D01*
X021615Y011915D02*
X021660Y011960D01*
X021660Y012050D01*
X021615Y012095D01*
X021570Y012095D01*
X021390Y011915D01*
X021390Y012095D01*
X020263Y012158D02*
X020218Y012113D01*
X020038Y012113D01*
X019993Y012158D01*
X019993Y012248D01*
X020038Y012293D01*
X020038Y012408D02*
X019993Y012453D01*
X019993Y012543D01*
X020038Y012588D01*
X020083Y012588D01*
X020128Y012543D01*
X020128Y012498D01*
X020128Y012543D02*
X020173Y012588D01*
X020218Y012588D01*
X020263Y012543D01*
X020263Y012453D01*
X020218Y012408D01*
X020218Y012293D02*
X020263Y012248D01*
X020263Y012158D01*
X020173Y012702D02*
X020263Y012793D01*
X019993Y012793D01*
X019993Y012883D02*
X019993Y012702D01*
X021823Y013457D02*
X021823Y013548D01*
X021868Y013593D01*
X021823Y013707D02*
X021823Y013887D01*
X021823Y013797D02*
X022093Y013797D01*
X022003Y013707D01*
X022048Y013593D02*
X022093Y013548D01*
X022093Y013457D01*
X022048Y013412D01*
X021868Y013412D01*
X021823Y013457D01*
X021958Y014002D02*
X021958Y014182D01*
X021823Y014137D02*
X022093Y014137D01*
X021958Y014002D01*
X023364Y012489D02*
X023319Y012444D01*
X023319Y012354D01*
X023364Y012309D01*
X023454Y012309D02*
X023499Y012399D01*
X023499Y012444D01*
X023454Y012489D01*
X023364Y012489D01*
X023454Y012309D02*
X023590Y012309D01*
X023590Y012489D01*
X023590Y012104D02*
X023319Y012104D01*
X023319Y012014D02*
X023319Y012194D01*
X023499Y012014D02*
X023590Y012104D01*
X023544Y011900D02*
X023590Y011855D01*
X023590Y011765D01*
X023544Y011719D01*
X023364Y011719D01*
X023319Y011765D01*
X023319Y011855D01*
X023364Y011900D01*
X024461Y011855D02*
X024506Y011900D01*
X024461Y011855D02*
X024461Y011765D01*
X024506Y011719D01*
X024686Y011719D01*
X024731Y011765D01*
X024731Y011855D01*
X024686Y011900D01*
X024686Y012014D02*
X024731Y012059D01*
X024731Y012149D01*
X024686Y012194D01*
X024641Y012194D01*
X024596Y012149D01*
X024551Y012194D01*
X024506Y012194D01*
X024461Y012149D01*
X024461Y012059D01*
X024506Y012014D01*
X024596Y012104D02*
X024596Y012149D01*
X024506Y012309D02*
X024461Y012354D01*
X024461Y012444D01*
X024506Y012489D01*
X024551Y012489D01*
X024596Y012444D01*
X024596Y012399D01*
X024596Y012444D02*
X024641Y012489D01*
X024686Y012489D01*
X024731Y012444D01*
X024731Y012354D01*
X024686Y012309D01*
X025771Y014003D02*
X025771Y014048D01*
X025590Y014228D01*
X025590Y014273D01*
X025771Y014273D01*
X025930Y014273D02*
X026065Y014138D01*
X025885Y014138D01*
X025930Y014003D02*
X025930Y014273D01*
X026180Y014228D02*
X026225Y014273D01*
X026315Y014273D01*
X026360Y014228D01*
X026360Y014048D01*
X026315Y014003D01*
X026225Y014003D01*
X026180Y014048D01*
X026264Y014889D02*
X026219Y014934D01*
X026264Y014889D02*
X026354Y014889D01*
X026399Y014934D01*
X026399Y015114D01*
X026354Y015159D01*
X026264Y015159D01*
X026219Y015114D01*
X026105Y015024D02*
X025924Y015024D01*
X025810Y015069D02*
X025810Y015114D01*
X025765Y015159D01*
X025675Y015159D01*
X025630Y015114D01*
X025630Y015069D01*
X025675Y015024D01*
X025765Y015024D01*
X025810Y015069D01*
X025765Y015024D02*
X025810Y014979D01*
X025810Y014934D01*
X025765Y014889D01*
X025675Y014889D01*
X025630Y014934D01*
X025630Y014979D01*
X025675Y015024D01*
X025969Y014889D02*
X025969Y015159D01*
X026105Y015024D01*
X024509Y016410D02*
X024464Y016365D01*
X024374Y016365D01*
X024329Y016410D01*
X024215Y016365D02*
X024035Y016365D01*
X024125Y016365D02*
X024125Y016635D01*
X024215Y016545D01*
X024329Y016590D02*
X024374Y016635D01*
X024464Y016635D01*
X024509Y016590D01*
X024509Y016410D01*
X023920Y016410D02*
X023875Y016365D01*
X023785Y016365D01*
X023740Y016410D01*
X023740Y016590D01*
X023920Y016410D01*
X023920Y016590D01*
X023875Y016635D01*
X023785Y016635D01*
X023740Y016590D01*
X025688Y017850D02*
X025868Y017670D01*
X025868Y017625D01*
X025983Y017670D02*
X026028Y017625D01*
X026118Y017625D01*
X026163Y017670D01*
X026163Y017850D01*
X026118Y017895D01*
X026028Y017895D01*
X025983Y017850D01*
X025868Y017895D02*
X025688Y017895D01*
X025688Y017850D01*
X025685Y019062D02*
X025595Y019062D01*
X025550Y019107D01*
X025685Y019062D02*
X025730Y019107D01*
X025730Y019287D01*
X025685Y019332D01*
X025595Y019332D01*
X025550Y019287D01*
X025435Y019197D02*
X025255Y019197D01*
X025141Y019242D02*
X025096Y019197D01*
X024960Y019197D01*
X024960Y019107D02*
X024960Y019287D01*
X025006Y019332D01*
X025096Y019332D01*
X025141Y019287D01*
X025141Y019242D01*
X025141Y019107D02*
X025096Y019062D01*
X025006Y019062D01*
X024960Y019107D01*
X025300Y019062D02*
X025300Y019332D01*
X025435Y019197D01*
X023944Y019099D02*
X023944Y019009D01*
X023899Y018964D01*
X023719Y018964D01*
X023674Y019009D01*
X023674Y019099D01*
X023719Y019144D01*
X023809Y019258D02*
X023809Y019438D01*
X023944Y019393D02*
X023809Y019258D01*
X023899Y019144D02*
X023944Y019099D01*
X023944Y019393D02*
X023674Y019393D01*
X023674Y019553D02*
X023854Y019733D01*
X023899Y019733D01*
X023944Y019688D01*
X023944Y019598D01*
X023899Y019553D01*
X023674Y019553D02*
X023674Y019733D01*
X023235Y019663D02*
X022965Y019663D01*
X022965Y019573D02*
X022965Y019753D01*
X022965Y019868D02*
X023145Y020048D01*
X023190Y020048D01*
X023235Y020003D01*
X023235Y019913D01*
X023190Y019868D01*
X023235Y019663D02*
X023145Y019573D01*
X023190Y019459D02*
X023235Y019414D01*
X023235Y019324D01*
X023190Y019279D01*
X023010Y019279D01*
X022965Y019324D01*
X022965Y019414D01*
X023010Y019459D01*
X022965Y019868D02*
X022965Y020048D01*
X022167Y018985D02*
X022121Y018985D01*
X022076Y018940D01*
X022031Y018985D01*
X021986Y018985D01*
X021941Y018940D01*
X021941Y018850D01*
X021986Y018805D01*
X021941Y018690D02*
X021941Y018510D01*
X021941Y018600D02*
X022212Y018600D01*
X022121Y018510D01*
X022167Y018396D02*
X022212Y018351D01*
X022212Y018261D01*
X022167Y018216D01*
X021986Y018216D01*
X021941Y018261D01*
X021941Y018351D01*
X021986Y018396D01*
X022167Y018805D02*
X022212Y018850D01*
X022212Y018940D01*
X022167Y018985D01*
X022076Y018940D02*
X022076Y018895D01*
X021109Y018850D02*
X021109Y018940D01*
X021064Y018985D01*
X021019Y018985D01*
X020974Y018940D01*
X020929Y018985D01*
X020884Y018985D01*
X020839Y018940D01*
X020839Y018850D01*
X020884Y018805D01*
X020974Y018895D02*
X020974Y018940D01*
X021064Y018805D02*
X021109Y018850D01*
X021109Y018645D02*
X020974Y018510D01*
X020974Y018690D01*
X020839Y018645D02*
X021109Y018645D01*
X021064Y018396D02*
X021109Y018351D01*
X021109Y018261D01*
X021064Y018216D01*
X020884Y018216D01*
X020839Y018261D01*
X020839Y018351D01*
X020884Y018396D01*
X020066Y018527D02*
X019931Y018392D01*
X019931Y018572D01*
X019976Y018687D02*
X020066Y018777D01*
X019796Y018777D01*
X019796Y018687D02*
X019796Y018867D01*
X019796Y018527D02*
X020066Y018527D01*
X020021Y018278D02*
X020066Y018233D01*
X020066Y018142D01*
X020021Y018097D01*
X019841Y018097D01*
X019796Y018142D01*
X019796Y018233D01*
X019841Y018278D01*
X019116Y017850D02*
X019116Y017670D01*
X019071Y017625D01*
X018981Y017625D01*
X018936Y017670D01*
X018821Y017670D02*
X018776Y017625D01*
X018686Y017625D01*
X018641Y017670D01*
X018641Y017715D01*
X018686Y017760D01*
X018731Y017760D01*
X018686Y017760D02*
X018641Y017805D01*
X018641Y017850D01*
X018686Y017895D01*
X018776Y017895D01*
X018821Y017850D01*
X018936Y017850D02*
X018981Y017895D01*
X019071Y017895D01*
X019116Y017850D01*
X018526Y017760D02*
X018391Y017760D01*
X018346Y017715D01*
X018346Y017670D01*
X018391Y017625D01*
X018481Y017625D01*
X018526Y017670D01*
X018526Y017760D01*
X018436Y017850D01*
X018346Y017895D01*
X018283Y016576D02*
X018328Y016531D01*
X018328Y016351D01*
X018283Y016306D01*
X018193Y016306D01*
X018148Y016351D01*
X018034Y016351D02*
X017989Y016306D01*
X017899Y016306D01*
X017854Y016351D01*
X017854Y016396D01*
X017899Y016441D01*
X017944Y016441D01*
X017899Y016441D02*
X017854Y016486D01*
X017854Y016531D01*
X017899Y016576D01*
X017989Y016576D01*
X018034Y016531D01*
X018148Y016531D02*
X018193Y016576D01*
X018283Y016576D01*
X017739Y016576D02*
X017559Y016576D01*
X017559Y016531D01*
X017739Y016351D01*
X017739Y016306D01*
X018082Y015336D02*
X018082Y015066D01*
X018172Y015066D02*
X017992Y015066D01*
X018172Y015246D02*
X018082Y015336D01*
X018377Y015336D02*
X018377Y015066D01*
X018467Y015066D02*
X018287Y015066D01*
X018467Y015246D02*
X018377Y015336D01*
X018581Y015291D02*
X018626Y015336D01*
X018716Y015336D01*
X018761Y015291D01*
X018761Y015111D01*
X018716Y015066D01*
X018626Y015066D01*
X018581Y015111D01*
X018647Y014450D02*
X018602Y014405D01*
X018602Y014360D01*
X018647Y014315D01*
X018602Y014270D01*
X018602Y014225D01*
X018647Y014180D01*
X018737Y014180D01*
X018782Y014225D01*
X018896Y014225D02*
X018941Y014180D01*
X019031Y014180D01*
X019076Y014225D01*
X019076Y014405D01*
X019031Y014450D01*
X018941Y014450D01*
X018896Y014405D01*
X018782Y014405D02*
X018737Y014450D01*
X018647Y014450D01*
X018647Y014315D02*
X018692Y014315D01*
X018487Y014270D02*
X018442Y014315D01*
X018352Y014315D01*
X018307Y014270D01*
X018307Y014225D01*
X018352Y014180D01*
X018442Y014180D01*
X018487Y014225D01*
X018487Y014270D01*
X018442Y014315D02*
X018487Y014360D01*
X018487Y014405D01*
X018442Y014450D01*
X018352Y014450D01*
X018307Y014405D01*
X018307Y014360D01*
X018352Y014315D01*
X020038Y016090D02*
X019993Y016135D01*
X019993Y016225D01*
X020038Y016270D01*
X020038Y016384D02*
X020083Y016384D01*
X020128Y016429D01*
X020128Y016519D01*
X020083Y016564D01*
X020038Y016564D01*
X019993Y016519D01*
X019993Y016429D01*
X020038Y016384D01*
X020128Y016429D02*
X020173Y016384D01*
X020218Y016384D01*
X020263Y016429D01*
X020263Y016519D01*
X020218Y016564D01*
X020173Y016564D01*
X020128Y016519D01*
X020218Y016270D02*
X020263Y016225D01*
X020263Y016135D01*
X020218Y016090D01*
X020038Y016090D01*
X026554Y020387D02*
X026554Y020567D01*
X026599Y020612D01*
X026689Y020612D01*
X026734Y020567D01*
X026734Y020522D01*
X026689Y020477D01*
X026554Y020477D01*
X026554Y020387D02*
X026599Y020342D01*
X026689Y020342D01*
X026734Y020387D01*
X026849Y020387D02*
X026894Y020342D01*
X026984Y020342D01*
X027029Y020387D01*
X027029Y020567D01*
X026984Y020612D01*
X026894Y020612D01*
X026849Y020567D01*
X028121Y020080D02*
X028121Y019810D01*
X028211Y019810D02*
X028031Y019810D01*
X028211Y019990D02*
X028121Y020080D01*
X028326Y020080D02*
X028506Y020080D01*
X028506Y019945D01*
X028416Y019990D01*
X028371Y019990D01*
X028326Y019945D01*
X028326Y019855D01*
X028371Y019810D01*
X028461Y019810D01*
X028506Y019855D01*
X028621Y019855D02*
X028666Y019810D01*
X028756Y019810D01*
X028801Y019855D01*
X028801Y020035D01*
X028756Y020080D01*
X028666Y020080D01*
X028621Y020035D01*
X028983Y019194D02*
X030558Y019194D01*
X030139Y018079D02*
X029959Y017899D01*
X029914Y017944D01*
X029914Y018034D01*
X029959Y018079D01*
X030139Y018079D01*
X030184Y018034D01*
X030184Y017944D01*
X030139Y017899D01*
X029959Y017899D01*
X029914Y017785D02*
X029914Y017605D01*
X029914Y017695D02*
X030184Y017695D01*
X030094Y017605D01*
X030184Y017490D02*
X029959Y017490D01*
X029914Y017445D01*
X029914Y017355D01*
X029959Y017310D01*
X030184Y017310D01*
X031575Y016925D02*
X031755Y016745D01*
X031710Y016700D01*
X031620Y016700D01*
X031575Y016745D01*
X031575Y016925D01*
X031620Y016970D01*
X031710Y016970D01*
X031755Y016925D01*
X031755Y016745D01*
X031869Y016745D02*
X031914Y016700D01*
X032004Y016700D01*
X032049Y016745D01*
X032049Y016835D02*
X031959Y016880D01*
X031914Y016880D01*
X031869Y016835D01*
X031869Y016745D01*
X032049Y016835D02*
X032049Y016970D01*
X031869Y016970D01*
X032164Y016925D02*
X032209Y016970D01*
X032299Y016970D01*
X032344Y016925D01*
X032344Y016745D01*
X032299Y016700D01*
X032209Y016700D01*
X032164Y016745D01*
X030558Y016163D02*
X028983Y016163D01*
X029730Y013033D02*
X029685Y012988D01*
X029685Y012943D01*
X029730Y012898D01*
X029685Y012853D01*
X029685Y012808D01*
X029730Y012763D01*
X029820Y012763D01*
X029865Y012808D01*
X029980Y012808D02*
X030025Y012763D01*
X030115Y012763D01*
X030160Y012808D01*
X030160Y012898D02*
X030070Y012943D01*
X030025Y012943D01*
X029980Y012898D01*
X029980Y012808D01*
X030160Y012898D02*
X030160Y013033D01*
X029980Y013033D01*
X029865Y012988D02*
X029820Y013033D01*
X029730Y013033D01*
X029730Y012898D02*
X029775Y012898D01*
X030274Y012988D02*
X030319Y013033D01*
X030409Y013033D01*
X030454Y012988D01*
X030454Y012808D01*
X030409Y012763D01*
X030319Y012763D01*
X030274Y012808D01*
X026306Y010442D02*
X026306Y010262D01*
X026171Y010262D01*
X026216Y010352D01*
X026216Y010397D01*
X026171Y010442D01*
X026081Y010442D01*
X026036Y010397D01*
X026036Y010307D01*
X026081Y010262D01*
X023590Y006578D02*
X023454Y006443D01*
X023454Y006623D01*
X023319Y006578D02*
X023590Y006578D01*
X023544Y006328D02*
X023499Y006328D01*
X023454Y006283D01*
X023409Y006328D01*
X023364Y006328D01*
X023319Y006283D01*
X023319Y006193D01*
X023364Y006148D01*
X023364Y006034D02*
X023319Y005988D01*
X023319Y005898D01*
X023364Y005853D01*
X023544Y005853D01*
X023590Y005898D01*
X023590Y005988D01*
X023544Y006034D01*
X023544Y006148D02*
X023590Y006193D01*
X023590Y006283D01*
X023544Y006328D01*
X023454Y006283D02*
X023454Y006238D01*
X019726Y022231D02*
X019545Y022231D01*
X019500Y022276D01*
X019500Y022366D01*
X019545Y022411D01*
X019636Y022526D02*
X019636Y022706D01*
X019636Y022821D02*
X019681Y022911D01*
X019681Y022956D01*
X019636Y023001D01*
X019545Y023001D01*
X019500Y022956D01*
X019500Y022866D01*
X019545Y022821D01*
X019636Y022821D02*
X019771Y022821D01*
X019771Y023001D01*
X019771Y022661D02*
X019636Y022526D01*
X019726Y022411D02*
X019771Y022366D01*
X019771Y022276D01*
X019726Y022231D01*
X019771Y022661D02*
X019500Y022661D01*
X020381Y022679D02*
X020381Y024254D01*
X021633Y023834D02*
X021633Y023789D01*
X021678Y023744D01*
X021768Y023744D01*
X021813Y023789D01*
X021813Y023834D01*
X021768Y023879D01*
X021678Y023879D01*
X021633Y023834D01*
X021678Y023744D02*
X021633Y023699D01*
X021633Y023654D01*
X021678Y023609D01*
X021768Y023609D01*
X021813Y023654D01*
X021813Y023699D01*
X021768Y023744D01*
X021928Y023654D02*
X021928Y023879D01*
X022108Y023879D02*
X022108Y023654D01*
X022063Y023609D01*
X021973Y023609D01*
X021928Y023654D01*
X023412Y024254D02*
X023412Y022679D01*
X022836Y025302D02*
X022656Y025302D01*
X022611Y025347D01*
X022611Y025437D01*
X022656Y025482D01*
X022746Y025597D02*
X022746Y025777D01*
X022746Y025891D02*
X022746Y026072D01*
X022881Y026027D02*
X022746Y025891D01*
X022611Y026027D02*
X022881Y026027D01*
X022881Y025732D02*
X022746Y025597D01*
X022836Y025482D02*
X022881Y025437D01*
X022881Y025347D01*
X022836Y025302D01*
X022881Y025732D02*
X022611Y025732D01*
X014574Y025356D02*
X012842Y025356D01*
X012842Y025317D01*
X012998Y025834D02*
X012953Y025879D01*
X012953Y026059D01*
X012998Y026104D01*
X013088Y026104D01*
X013133Y026059D01*
X013133Y026014D01*
X013088Y025969D01*
X012953Y025969D01*
X012998Y025834D02*
X013088Y025834D01*
X013133Y025879D01*
X013247Y025879D02*
X013292Y025834D01*
X013382Y025834D01*
X013427Y025879D01*
X013542Y025879D02*
X013587Y025834D01*
X013677Y025834D01*
X013722Y025879D01*
X013722Y026059D01*
X013677Y026104D01*
X013587Y026104D01*
X013542Y026059D01*
X013427Y026059D02*
X013382Y026104D01*
X013292Y026104D01*
X013247Y026059D01*
X013247Y026014D01*
X013292Y025969D01*
X013247Y025924D01*
X013247Y025879D01*
X013292Y025969D02*
X013337Y025969D01*
X013424Y025061D02*
X013424Y025016D01*
X013605Y024835D01*
X013605Y024790D01*
X013719Y024835D02*
X013719Y025061D01*
X013605Y025061D02*
X013424Y025061D01*
X013719Y024835D02*
X013764Y024790D01*
X013854Y024790D01*
X013899Y024835D01*
X013899Y025061D01*
X014574Y025317D02*
X014574Y025356D01*
X014574Y023427D02*
X014574Y023387D01*
X012842Y023387D01*
X012842Y023427D01*
X006540Y026168D02*
X006540Y026439D01*
X006405Y026439D01*
X006360Y026394D01*
X006360Y026303D01*
X006405Y026258D01*
X006540Y026258D01*
X006450Y026258D02*
X006360Y026168D01*
X006246Y026168D02*
X006246Y026439D01*
X006066Y026168D01*
X006066Y026439D01*
X005951Y026394D02*
X005906Y026439D01*
X005816Y026439D01*
X005771Y026394D01*
X005771Y026348D01*
X005816Y026303D01*
X005771Y026258D01*
X005771Y026213D01*
X005816Y026168D01*
X005906Y026168D01*
X005951Y026213D01*
X005861Y026303D02*
X005816Y026303D01*
X005968Y026025D02*
X006362Y026025D01*
X006362Y025159D02*
X005968Y025159D01*
D12*
X014219Y025080D03*
X020597Y024096D03*
X030401Y018978D03*
X025597Y007797D03*
M02*
