%
M48
M72
T01C0.0130
T02C0.0360
T03C0.0400
T04C0.0512
T05C0.1181
T06C0.1250
T07C0.1378
%
T01
X8747Y12954
X10243Y12954
X12448Y14490
X13275Y14962
X14023Y16104
X12212Y16222
X13668Y17639
X14613Y17639
X15834Y18663
X16660Y18230
X16424Y17915
X16897Y18545
X17133Y18860
X18432Y18781
X19023Y18545
X19574Y19096
X19338Y19687
X20519Y19687
X20637Y19175
X21739Y19175
X22448Y19687
X22723Y19214
X23432Y18663
X24495Y19175
X24613Y19687
X25125Y19687
X25912Y19372
X25912Y18387
X25401Y18506
X25440Y17797
X25007Y17324
X24731Y16104
X25440Y16025
X25912Y15789
X25912Y16301
X25401Y15080
X25322Y14057
X25912Y13112
X24534Y12718
X23826Y12206
X23393Y12718
X22684Y12206
X22408Y12679
X22251Y13230
X21503Y12954
X20912Y12797
X21109Y12206
X21897Y12206
X23156Y10710
X23432Y10356
X23668Y10041
X23944Y10356
X24180Y10041
X24692Y10356
X24928Y10041
X25204Y10356
X25440Y10041
X25952Y10828
X25755Y9057
X25479Y8624
X25164Y8899
X24889Y8624
X24574Y8899
X24298Y8624
X23983Y8899
X23708Y8624
X23393Y8899
X22527Y9135
X22330Y10041
X22054Y10356
X21779Y10041
X21503Y10356
X21227Y10041
X23156Y10041
X26582Y9057
X28353Y8427
X29456Y9608
X29928Y9608
X29928Y10080
X29456Y10080
X30164Y8663
X24574Y6813
X24141Y6813
X23905Y6498
X23629Y6813
X22684Y6813
X22172Y7128
X22684Y6183
X17487Y6813
X15243Y6813
X14062Y10946
X14062Y12443
X16700Y13230
X17054Y13506
X16700Y13742
X17054Y14017
X16700Y14293
X17054Y14569
X16700Y14844
X15676Y16261
X18432Y16025
X18905Y16065
X18944Y16773
X18432Y16852
X20086Y16813
X19023Y15238
X18944Y13624
X18432Y13506
X17054Y12954
X17684Y12206
X17684Y11261
X27094Y12482
X28511Y12639
X30164Y12088
X30716Y12876
X28156Y14608
X27842Y14883
X28156Y15159
X27842Y15435
X28156Y15710
X28156Y16537
X27842Y16813
X28156Y17049
X27842Y17324
X28156Y17561
X27842Y18072
X28156Y18309
X27842Y18584
X28156Y18820
X29141Y19135
X29574Y18860
X29298Y18545
X29574Y18269
X29298Y17954
X29574Y17679
X29298Y17364
X29574Y17088
X29298Y16773
X29023Y15907
X27487Y16537
X31070Y15592
X31385Y16065
X32015Y16065
X31385Y17009
X31700Y17285
X31385Y17521
X31385Y17954
X29062Y19883
X27094Y19687
X26031Y21734
X24613Y21852
X24338Y21537
X24062Y21852
X23786Y21537
X23511Y21852
X22763Y21537
X22527Y21852
X22251Y21537
X22015Y21852
X21503Y21537
X21267Y21852
X20991Y21537
X20755Y21852
X20086Y20868
X18353Y21380
X19062Y22521
X18196Y23112
X18708Y23820
X18235Y23978
X17723Y23978
X16227Y24883
X17172Y26222
X20479Y25789
X21621Y25080
X22054Y25080
X22290Y25395
X22566Y25080
X23432Y25159
X23432Y25710
X24180Y24805
X22487Y23269
X22212Y22994
X21897Y23269
X21621Y22994
X21306Y23269
X21031Y22994
X20716Y23269
X20007Y23072
X21779Y21183
X23038Y21183
X22802Y22994
X23314Y22994
X26542Y25080
X31385Y20238
X16424Y21537
X15834Y20946
X12408Y18663
X11306Y19608
X11306Y20159
X10912Y20907
X11818Y21537
X11542Y22836
X14259Y23624
X14062Y25631
X8590Y20671
X8944Y19332
X9338Y19332
X9377Y18624
X8511Y18663
X10597Y19214
X6542Y19647
X5401Y19923
X3078Y18939
X3786Y17324
X3786Y14962
X5597Y14765
X5597Y25868
T02
X9849Y23836
X9849Y22836
X9849Y21836
X11527Y10356
X12527Y10356
X13527Y10356
X4527Y10356
X3527Y10356
X2527Y10356
T03
X7326Y26104
X8326Y26104
X9326Y26104
X10326Y26104
X10326Y25080
X9326Y25080
X8326Y25080
X7326Y25080
X7330Y23769
X7330Y22769
X7231Y12915
X6231Y12915
X5231Y12915
X4231Y12915
X3231Y12915
X2231Y12915
X3546Y9242
X4546Y9242
X5546Y9242
X6546Y9242
X7546Y9242
X8546Y9242
X8546Y8242
X7546Y8242
X6546Y8242
X5546Y8242
X4546Y8242
X3546Y8242
X12546Y8242
X13546Y8242
X14546Y8242
X15546Y8242
X16546Y8242
X17546Y8242
X17546Y9242
X16546Y9242
X15546Y9242
X14546Y9242
X13546Y9242
X12546Y9242
T04
X19436Y26242
X19672Y24293
X25381Y24293
X25617Y26242
X32546Y20139
X30597Y19903
X30597Y14194
X32546Y13958
X26523Y7600
X26759Y5651
X20814Y7600
X20578Y5651
T05
X3235Y23309
T06
X1838Y5612
X1838Y26281
X32586Y26281
X32586Y5612
T07
X5597Y23309
M30
