G75*
%MOIN*%
%OFA0B0*%
%FSLAX24Y24*%
%IPPOS*%
%LPD*%
%AMOC8*
5,1,8,0,0,1.08239X$1,22.5*
%
%ADD10C,0.0000*%
%ADD11C,0.1290*%
%ADD12R,0.0237X0.0355*%
%ADD13R,0.0197X0.0237*%
%ADD14R,0.0355X0.0237*%
%ADD15R,0.0237X0.0197*%
%ADD16C,0.0808*%
%ADD17R,0.0197X0.0512*%
%ADD18C,0.1621*%
%ADD19C,0.1818*%
%ADD20R,0.0640X0.0640*%
%ADD21C,0.0640*%
%ADD22R,0.0580X0.0580*%
%ADD23C,0.0580*%
%ADD24R,0.0670X0.0178*%
%ADD25R,0.0296X0.0158*%
%ADD26R,0.0512X0.0197*%
%ADD27C,0.0434*%
D10*
X000873Y004647D02*
X000873Y027246D01*
X033550Y027246D01*
X033550Y004647D01*
X000873Y004647D01*
X001213Y005612D02*
X001215Y005662D01*
X001221Y005711D01*
X001231Y005760D01*
X001244Y005807D01*
X001262Y005854D01*
X001283Y005899D01*
X001307Y005942D01*
X001335Y005983D01*
X001366Y006022D01*
X001400Y006058D01*
X001437Y006092D01*
X001477Y006122D01*
X001518Y006149D01*
X001562Y006173D01*
X001607Y006193D01*
X001654Y006209D01*
X001702Y006222D01*
X001751Y006231D01*
X001801Y006236D01*
X001850Y006237D01*
X001900Y006234D01*
X001949Y006227D01*
X001998Y006216D01*
X002045Y006202D01*
X002091Y006183D01*
X002136Y006161D01*
X002179Y006136D01*
X002219Y006107D01*
X002257Y006075D01*
X002293Y006041D01*
X002326Y006003D01*
X002355Y005963D01*
X002381Y005921D01*
X002404Y005877D01*
X002423Y005831D01*
X002439Y005784D01*
X002451Y005735D01*
X002459Y005686D01*
X002463Y005637D01*
X002463Y005587D01*
X002459Y005538D01*
X002451Y005489D01*
X002439Y005440D01*
X002423Y005393D01*
X002404Y005347D01*
X002381Y005303D01*
X002355Y005261D01*
X002326Y005221D01*
X002293Y005183D01*
X002257Y005149D01*
X002219Y005117D01*
X002179Y005088D01*
X002136Y005063D01*
X002091Y005041D01*
X002045Y005022D01*
X001998Y005008D01*
X001949Y004997D01*
X001900Y004990D01*
X001850Y004987D01*
X001801Y004988D01*
X001751Y004993D01*
X001702Y005002D01*
X001654Y005015D01*
X001607Y005031D01*
X001562Y005051D01*
X001518Y005075D01*
X001477Y005102D01*
X001437Y005132D01*
X001400Y005166D01*
X001366Y005202D01*
X001335Y005241D01*
X001307Y005282D01*
X001283Y005325D01*
X001262Y005370D01*
X001244Y005417D01*
X001231Y005464D01*
X001221Y005513D01*
X001215Y005562D01*
X001213Y005612D01*
X001213Y026281D02*
X001215Y026331D01*
X001221Y026380D01*
X001231Y026429D01*
X001244Y026476D01*
X001262Y026523D01*
X001283Y026568D01*
X001307Y026611D01*
X001335Y026652D01*
X001366Y026691D01*
X001400Y026727D01*
X001437Y026761D01*
X001477Y026791D01*
X001518Y026818D01*
X001562Y026842D01*
X001607Y026862D01*
X001654Y026878D01*
X001702Y026891D01*
X001751Y026900D01*
X001801Y026905D01*
X001850Y026906D01*
X001900Y026903D01*
X001949Y026896D01*
X001998Y026885D01*
X002045Y026871D01*
X002091Y026852D01*
X002136Y026830D01*
X002179Y026805D01*
X002219Y026776D01*
X002257Y026744D01*
X002293Y026710D01*
X002326Y026672D01*
X002355Y026632D01*
X002381Y026590D01*
X002404Y026546D01*
X002423Y026500D01*
X002439Y026453D01*
X002451Y026404D01*
X002459Y026355D01*
X002463Y026306D01*
X002463Y026256D01*
X002459Y026207D01*
X002451Y026158D01*
X002439Y026109D01*
X002423Y026062D01*
X002404Y026016D01*
X002381Y025972D01*
X002355Y025930D01*
X002326Y025890D01*
X002293Y025852D01*
X002257Y025818D01*
X002219Y025786D01*
X002179Y025757D01*
X002136Y025732D01*
X002091Y025710D01*
X002045Y025691D01*
X001998Y025677D01*
X001949Y025666D01*
X001900Y025659D01*
X001850Y025656D01*
X001801Y025657D01*
X001751Y025662D01*
X001702Y025671D01*
X001654Y025684D01*
X001607Y025700D01*
X001562Y025720D01*
X001518Y025744D01*
X001477Y025771D01*
X001437Y025801D01*
X001400Y025835D01*
X001366Y025871D01*
X001335Y025910D01*
X001307Y025951D01*
X001283Y025994D01*
X001262Y026039D01*
X001244Y026086D01*
X001231Y026133D01*
X001221Y026182D01*
X001215Y026231D01*
X001213Y026281D01*
X031961Y026281D02*
X031963Y026331D01*
X031969Y026380D01*
X031979Y026429D01*
X031992Y026476D01*
X032010Y026523D01*
X032031Y026568D01*
X032055Y026611D01*
X032083Y026652D01*
X032114Y026691D01*
X032148Y026727D01*
X032185Y026761D01*
X032225Y026791D01*
X032266Y026818D01*
X032310Y026842D01*
X032355Y026862D01*
X032402Y026878D01*
X032450Y026891D01*
X032499Y026900D01*
X032549Y026905D01*
X032598Y026906D01*
X032648Y026903D01*
X032697Y026896D01*
X032746Y026885D01*
X032793Y026871D01*
X032839Y026852D01*
X032884Y026830D01*
X032927Y026805D01*
X032967Y026776D01*
X033005Y026744D01*
X033041Y026710D01*
X033074Y026672D01*
X033103Y026632D01*
X033129Y026590D01*
X033152Y026546D01*
X033171Y026500D01*
X033187Y026453D01*
X033199Y026404D01*
X033207Y026355D01*
X033211Y026306D01*
X033211Y026256D01*
X033207Y026207D01*
X033199Y026158D01*
X033187Y026109D01*
X033171Y026062D01*
X033152Y026016D01*
X033129Y025972D01*
X033103Y025930D01*
X033074Y025890D01*
X033041Y025852D01*
X033005Y025818D01*
X032967Y025786D01*
X032927Y025757D01*
X032884Y025732D01*
X032839Y025710D01*
X032793Y025691D01*
X032746Y025677D01*
X032697Y025666D01*
X032648Y025659D01*
X032598Y025656D01*
X032549Y025657D01*
X032499Y025662D01*
X032450Y025671D01*
X032402Y025684D01*
X032355Y025700D01*
X032310Y025720D01*
X032266Y025744D01*
X032225Y025771D01*
X032185Y025801D01*
X032148Y025835D01*
X032114Y025871D01*
X032083Y025910D01*
X032055Y025951D01*
X032031Y025994D01*
X032010Y026039D01*
X031992Y026086D01*
X031979Y026133D01*
X031969Y026182D01*
X031963Y026231D01*
X031961Y026281D01*
X031961Y005612D02*
X031963Y005662D01*
X031969Y005711D01*
X031979Y005760D01*
X031992Y005807D01*
X032010Y005854D01*
X032031Y005899D01*
X032055Y005942D01*
X032083Y005983D01*
X032114Y006022D01*
X032148Y006058D01*
X032185Y006092D01*
X032225Y006122D01*
X032266Y006149D01*
X032310Y006173D01*
X032355Y006193D01*
X032402Y006209D01*
X032450Y006222D01*
X032499Y006231D01*
X032549Y006236D01*
X032598Y006237D01*
X032648Y006234D01*
X032697Y006227D01*
X032746Y006216D01*
X032793Y006202D01*
X032839Y006183D01*
X032884Y006161D01*
X032927Y006136D01*
X032967Y006107D01*
X033005Y006075D01*
X033041Y006041D01*
X033074Y006003D01*
X033103Y005963D01*
X033129Y005921D01*
X033152Y005877D01*
X033171Y005831D01*
X033187Y005784D01*
X033199Y005735D01*
X033207Y005686D01*
X033211Y005637D01*
X033211Y005587D01*
X033207Y005538D01*
X033199Y005489D01*
X033187Y005440D01*
X033171Y005393D01*
X033152Y005347D01*
X033129Y005303D01*
X033103Y005261D01*
X033074Y005221D01*
X033041Y005183D01*
X033005Y005149D01*
X032967Y005117D01*
X032927Y005088D01*
X032884Y005063D01*
X032839Y005041D01*
X032793Y005022D01*
X032746Y005008D01*
X032697Y004997D01*
X032648Y004990D01*
X032598Y004987D01*
X032549Y004988D01*
X032499Y004993D01*
X032450Y005002D01*
X032402Y005015D01*
X032355Y005031D01*
X032310Y005051D01*
X032266Y005075D01*
X032225Y005102D01*
X032185Y005132D01*
X032148Y005166D01*
X032114Y005202D01*
X032083Y005241D01*
X032055Y005282D01*
X032031Y005325D01*
X032010Y005370D01*
X031992Y005417D01*
X031979Y005464D01*
X031969Y005513D01*
X031963Y005562D01*
X031961Y005612D01*
D11*
X032586Y005612D03*
X032586Y026281D03*
X001838Y026281D03*
X001838Y005612D03*
D12*
X018412Y015592D03*
X019003Y015592D03*
X019003Y018191D03*
X018412Y018191D03*
X024751Y016498D03*
X025342Y016498D03*
X025342Y017324D03*
X025932Y017324D03*
X026523Y020041D03*
X027113Y020041D03*
X025932Y013702D03*
X025342Y013702D03*
D13*
X025460Y015395D03*
X025814Y015395D03*
X025814Y018820D03*
X025460Y018820D03*
X028727Y019569D03*
X029082Y019569D03*
X031562Y016458D03*
X031916Y016458D03*
X030617Y012521D03*
X030263Y012521D03*
X018885Y013939D03*
X018531Y013939D03*
X018531Y016458D03*
X018885Y016458D03*
X013531Y025631D03*
X013176Y025631D03*
D14*
X019928Y019706D03*
X019928Y019116D03*
X019731Y016793D03*
X019731Y016202D03*
X020558Y012777D03*
X020558Y012187D03*
D15*
X021503Y012305D03*
X021503Y012659D03*
X021936Y012817D03*
X021936Y013171D03*
X023078Y012659D03*
X023078Y012305D03*
X024219Y012305D03*
X024219Y012659D03*
X026188Y009470D03*
X026188Y009116D03*
X029692Y009155D03*
X029692Y008801D03*
X023078Y006635D03*
X023078Y006281D03*
X023117Y018722D03*
X023117Y019076D03*
X022054Y019234D03*
X022054Y019588D03*
X020952Y019588D03*
X020952Y019234D03*
X024180Y019234D03*
X024180Y019588D03*
X020007Y022423D03*
X020007Y022777D03*
X023117Y025257D03*
X023117Y025612D03*
D16*
X025381Y024293D03*
X025617Y026242D03*
X019672Y024293D03*
X019436Y026242D03*
X030597Y019903D03*
X032546Y020139D03*
X030597Y014194D03*
X032546Y013958D03*
X026523Y007600D03*
X026759Y005651D03*
X020814Y007600D03*
X020578Y005651D03*
D17*
X022891Y007285D03*
X023147Y007285D03*
X023403Y007285D03*
X023658Y007285D03*
X023914Y007285D03*
X024170Y007285D03*
X024426Y007285D03*
X024682Y007285D03*
X024938Y007285D03*
X025194Y007285D03*
X025450Y007285D03*
X025706Y007285D03*
X025706Y009569D03*
X025450Y009569D03*
X025194Y009569D03*
X024938Y009569D03*
X024682Y009569D03*
X024426Y009569D03*
X024170Y009569D03*
X023914Y009569D03*
X023658Y009569D03*
X023403Y009569D03*
X023147Y009569D03*
X022891Y009569D03*
X022792Y022324D03*
X022536Y022324D03*
X022281Y022324D03*
X022025Y022324D03*
X021769Y022324D03*
X021513Y022324D03*
X021257Y022324D03*
X021001Y022324D03*
X020745Y022324D03*
X020489Y022324D03*
X023048Y022324D03*
X023304Y022324D03*
X023304Y024608D03*
X023048Y024608D03*
X022792Y024608D03*
X022536Y024608D03*
X022281Y024608D03*
X022025Y024608D03*
X021769Y024608D03*
X021513Y024608D03*
X021257Y024608D03*
X021001Y024608D03*
X020745Y024608D03*
X020489Y024608D03*
D18*
X003235Y023309D03*
D19*
X005597Y023309D03*
D20*
X007330Y023769D03*
X010326Y025080D03*
X010326Y026104D03*
X002231Y012915D03*
X008546Y009242D03*
X017546Y009242D03*
D21*
X016546Y009242D03*
X015546Y009242D03*
X014546Y009242D03*
X013546Y009242D03*
X012546Y009242D03*
X012546Y008242D03*
X013546Y008242D03*
X014546Y008242D03*
X015546Y008242D03*
X016546Y008242D03*
X017546Y008242D03*
X008546Y008242D03*
X007546Y008242D03*
X006546Y008242D03*
X005546Y008242D03*
X004546Y008242D03*
X003546Y008242D03*
X003546Y009242D03*
X004546Y009242D03*
X005546Y009242D03*
X006546Y009242D03*
X007546Y009242D03*
X007231Y012915D03*
X006231Y012915D03*
X005231Y012915D03*
X004231Y012915D03*
X003231Y012915D03*
X007330Y022769D03*
X007326Y025080D03*
X008326Y025080D03*
X009326Y025080D03*
X009326Y026104D03*
X008326Y026104D03*
X007326Y026104D03*
D22*
X009849Y023836D03*
X011527Y010356D03*
X002527Y010356D03*
D23*
X003527Y010356D03*
X004527Y010356D03*
X012527Y010356D03*
X013527Y010356D03*
X009849Y021836D03*
X009849Y022836D03*
D24*
X012605Y023604D03*
X012605Y023860D03*
X012605Y024116D03*
X012605Y024372D03*
X012605Y024628D03*
X012605Y024883D03*
X012605Y025139D03*
X014810Y025139D03*
X014810Y024883D03*
X014810Y024628D03*
X014810Y024372D03*
X014810Y024116D03*
X014810Y023860D03*
X014810Y023604D03*
D25*
X006391Y025297D03*
X006391Y025494D03*
X006391Y025691D03*
X006391Y025887D03*
X005939Y025887D03*
X005939Y025691D03*
X005939Y025494D03*
X005939Y025297D03*
D26*
X028629Y019086D03*
X028629Y018830D03*
X028629Y018574D03*
X028629Y018319D03*
X028629Y018063D03*
X028629Y017807D03*
X028629Y017551D03*
X028629Y017295D03*
X028629Y017039D03*
X028629Y016783D03*
X028629Y016527D03*
X028629Y016271D03*
X030912Y016271D03*
X030912Y016527D03*
X030912Y016783D03*
X030912Y017039D03*
X030912Y017295D03*
X030912Y017551D03*
X030912Y017807D03*
X030912Y018063D03*
X030912Y018319D03*
X030912Y018574D03*
X030912Y018830D03*
X030912Y019086D03*
D27*
X031070Y026222D03*
X003353Y026222D03*
X003511Y005671D03*
X031070Y005671D03*
M02*
