G75*
%MOIN*%
%OFA0B0*%
%FSLAX24Y24*%
%IPPOS*%
%LPD*%
%AMOC8*
5,1,8,0,0,1.08239X$1,22.5*
%
%ADD10C,0.0000*%
%ADD11R,0.0197X0.0315*%
%ADD12R,0.0157X0.0197*%
%ADD13R,0.0315X0.0197*%
%ADD14R,0.0197X0.0157*%
%ADD15C,0.0768*%
%ADD16R,0.0157X0.0472*%
%ADD17C,0.1581*%
%ADD18C,0.1778*%
%ADD19R,0.0600X0.0600*%
%ADD20C,0.0600*%
%ADD21R,0.0540X0.0540*%
%ADD22C,0.0540*%
%ADD23R,0.0630X0.0138*%
%ADD24R,0.0256X0.0118*%
%ADD25R,0.0472X0.0157*%
%ADD26C,0.0394*%
%ADD27C,0.0100*%
%ADD28C,0.0270*%
%ADD29C,0.0060*%
%ADD30C,0.0160*%
D10*
X000873Y004647D02*
X000873Y027246D01*
X033550Y027246D01*
X033550Y004647D01*
X000873Y004647D01*
X001213Y005612D02*
X001215Y005662D01*
X001221Y005711D01*
X001231Y005760D01*
X001244Y005807D01*
X001262Y005854D01*
X001283Y005899D01*
X001307Y005942D01*
X001335Y005983D01*
X001366Y006022D01*
X001400Y006058D01*
X001437Y006092D01*
X001477Y006122D01*
X001518Y006149D01*
X001562Y006173D01*
X001607Y006193D01*
X001654Y006209D01*
X001702Y006222D01*
X001751Y006231D01*
X001801Y006236D01*
X001850Y006237D01*
X001900Y006234D01*
X001949Y006227D01*
X001998Y006216D01*
X002045Y006202D01*
X002091Y006183D01*
X002136Y006161D01*
X002179Y006136D01*
X002219Y006107D01*
X002257Y006075D01*
X002293Y006041D01*
X002326Y006003D01*
X002355Y005963D01*
X002381Y005921D01*
X002404Y005877D01*
X002423Y005831D01*
X002439Y005784D01*
X002451Y005735D01*
X002459Y005686D01*
X002463Y005637D01*
X002463Y005587D01*
X002459Y005538D01*
X002451Y005489D01*
X002439Y005440D01*
X002423Y005393D01*
X002404Y005347D01*
X002381Y005303D01*
X002355Y005261D01*
X002326Y005221D01*
X002293Y005183D01*
X002257Y005149D01*
X002219Y005117D01*
X002179Y005088D01*
X002136Y005063D01*
X002091Y005041D01*
X002045Y005022D01*
X001998Y005008D01*
X001949Y004997D01*
X001900Y004990D01*
X001850Y004987D01*
X001801Y004988D01*
X001751Y004993D01*
X001702Y005002D01*
X001654Y005015D01*
X001607Y005031D01*
X001562Y005051D01*
X001518Y005075D01*
X001477Y005102D01*
X001437Y005132D01*
X001400Y005166D01*
X001366Y005202D01*
X001335Y005241D01*
X001307Y005282D01*
X001283Y005325D01*
X001262Y005370D01*
X001244Y005417D01*
X001231Y005464D01*
X001221Y005513D01*
X001215Y005562D01*
X001213Y005612D01*
X001213Y026281D02*
X001215Y026331D01*
X001221Y026380D01*
X001231Y026429D01*
X001244Y026476D01*
X001262Y026523D01*
X001283Y026568D01*
X001307Y026611D01*
X001335Y026652D01*
X001366Y026691D01*
X001400Y026727D01*
X001437Y026761D01*
X001477Y026791D01*
X001518Y026818D01*
X001562Y026842D01*
X001607Y026862D01*
X001654Y026878D01*
X001702Y026891D01*
X001751Y026900D01*
X001801Y026905D01*
X001850Y026906D01*
X001900Y026903D01*
X001949Y026896D01*
X001998Y026885D01*
X002045Y026871D01*
X002091Y026852D01*
X002136Y026830D01*
X002179Y026805D01*
X002219Y026776D01*
X002257Y026744D01*
X002293Y026710D01*
X002326Y026672D01*
X002355Y026632D01*
X002381Y026590D01*
X002404Y026546D01*
X002423Y026500D01*
X002439Y026453D01*
X002451Y026404D01*
X002459Y026355D01*
X002463Y026306D01*
X002463Y026256D01*
X002459Y026207D01*
X002451Y026158D01*
X002439Y026109D01*
X002423Y026062D01*
X002404Y026016D01*
X002381Y025972D01*
X002355Y025930D01*
X002326Y025890D01*
X002293Y025852D01*
X002257Y025818D01*
X002219Y025786D01*
X002179Y025757D01*
X002136Y025732D01*
X002091Y025710D01*
X002045Y025691D01*
X001998Y025677D01*
X001949Y025666D01*
X001900Y025659D01*
X001850Y025656D01*
X001801Y025657D01*
X001751Y025662D01*
X001702Y025671D01*
X001654Y025684D01*
X001607Y025700D01*
X001562Y025720D01*
X001518Y025744D01*
X001477Y025771D01*
X001437Y025801D01*
X001400Y025835D01*
X001366Y025871D01*
X001335Y025910D01*
X001307Y025951D01*
X001283Y025994D01*
X001262Y026039D01*
X001244Y026086D01*
X001231Y026133D01*
X001221Y026182D01*
X001215Y026231D01*
X001213Y026281D01*
X031961Y026281D02*
X031963Y026331D01*
X031969Y026380D01*
X031979Y026429D01*
X031992Y026476D01*
X032010Y026523D01*
X032031Y026568D01*
X032055Y026611D01*
X032083Y026652D01*
X032114Y026691D01*
X032148Y026727D01*
X032185Y026761D01*
X032225Y026791D01*
X032266Y026818D01*
X032310Y026842D01*
X032355Y026862D01*
X032402Y026878D01*
X032450Y026891D01*
X032499Y026900D01*
X032549Y026905D01*
X032598Y026906D01*
X032648Y026903D01*
X032697Y026896D01*
X032746Y026885D01*
X032793Y026871D01*
X032839Y026852D01*
X032884Y026830D01*
X032927Y026805D01*
X032967Y026776D01*
X033005Y026744D01*
X033041Y026710D01*
X033074Y026672D01*
X033103Y026632D01*
X033129Y026590D01*
X033152Y026546D01*
X033171Y026500D01*
X033187Y026453D01*
X033199Y026404D01*
X033207Y026355D01*
X033211Y026306D01*
X033211Y026256D01*
X033207Y026207D01*
X033199Y026158D01*
X033187Y026109D01*
X033171Y026062D01*
X033152Y026016D01*
X033129Y025972D01*
X033103Y025930D01*
X033074Y025890D01*
X033041Y025852D01*
X033005Y025818D01*
X032967Y025786D01*
X032927Y025757D01*
X032884Y025732D01*
X032839Y025710D01*
X032793Y025691D01*
X032746Y025677D01*
X032697Y025666D01*
X032648Y025659D01*
X032598Y025656D01*
X032549Y025657D01*
X032499Y025662D01*
X032450Y025671D01*
X032402Y025684D01*
X032355Y025700D01*
X032310Y025720D01*
X032266Y025744D01*
X032225Y025771D01*
X032185Y025801D01*
X032148Y025835D01*
X032114Y025871D01*
X032083Y025910D01*
X032055Y025951D01*
X032031Y025994D01*
X032010Y026039D01*
X031992Y026086D01*
X031979Y026133D01*
X031969Y026182D01*
X031963Y026231D01*
X031961Y026281D01*
X031961Y005612D02*
X031963Y005662D01*
X031969Y005711D01*
X031979Y005760D01*
X031992Y005807D01*
X032010Y005854D01*
X032031Y005899D01*
X032055Y005942D01*
X032083Y005983D01*
X032114Y006022D01*
X032148Y006058D01*
X032185Y006092D01*
X032225Y006122D01*
X032266Y006149D01*
X032310Y006173D01*
X032355Y006193D01*
X032402Y006209D01*
X032450Y006222D01*
X032499Y006231D01*
X032549Y006236D01*
X032598Y006237D01*
X032648Y006234D01*
X032697Y006227D01*
X032746Y006216D01*
X032793Y006202D01*
X032839Y006183D01*
X032884Y006161D01*
X032927Y006136D01*
X032967Y006107D01*
X033005Y006075D01*
X033041Y006041D01*
X033074Y006003D01*
X033103Y005963D01*
X033129Y005921D01*
X033152Y005877D01*
X033171Y005831D01*
X033187Y005784D01*
X033199Y005735D01*
X033207Y005686D01*
X033211Y005637D01*
X033211Y005587D01*
X033207Y005538D01*
X033199Y005489D01*
X033187Y005440D01*
X033171Y005393D01*
X033152Y005347D01*
X033129Y005303D01*
X033103Y005261D01*
X033074Y005221D01*
X033041Y005183D01*
X033005Y005149D01*
X032967Y005117D01*
X032927Y005088D01*
X032884Y005063D01*
X032839Y005041D01*
X032793Y005022D01*
X032746Y005008D01*
X032697Y004997D01*
X032648Y004990D01*
X032598Y004987D01*
X032549Y004988D01*
X032499Y004993D01*
X032450Y005002D01*
X032402Y005015D01*
X032355Y005031D01*
X032310Y005051D01*
X032266Y005075D01*
X032225Y005102D01*
X032185Y005132D01*
X032148Y005166D01*
X032114Y005202D01*
X032083Y005241D01*
X032055Y005282D01*
X032031Y005325D01*
X032010Y005370D01*
X031992Y005417D01*
X031979Y005464D01*
X031969Y005513D01*
X031963Y005562D01*
X031961Y005612D01*
D11*
X025932Y013702D03*
X025342Y013702D03*
X025342Y016498D03*
X024751Y016498D03*
X025342Y017324D03*
X025932Y017324D03*
X026523Y020041D03*
X027113Y020041D03*
X019003Y018191D03*
X018412Y018191D03*
X018412Y015592D03*
X019003Y015592D03*
D12*
X018885Y016458D03*
X018531Y016458D03*
X018531Y013939D03*
X018885Y013939D03*
X025460Y015395D03*
X025814Y015395D03*
X025814Y018820D03*
X025460Y018820D03*
X028727Y019569D03*
X029082Y019569D03*
X031562Y016458D03*
X031916Y016458D03*
X030617Y012521D03*
X030263Y012521D03*
X013531Y025631D03*
X013176Y025631D03*
D13*
X019928Y019706D03*
X019928Y019116D03*
X019731Y016793D03*
X019731Y016202D03*
X020558Y012777D03*
X020558Y012187D03*
D14*
X021503Y012305D03*
X021503Y012659D03*
X021936Y012817D03*
X021936Y013171D03*
X023078Y012659D03*
X023078Y012305D03*
X024219Y012305D03*
X024219Y012659D03*
X026188Y009470D03*
X026188Y009116D03*
X029692Y009155D03*
X029692Y008801D03*
X023078Y006635D03*
X023078Y006281D03*
X023117Y018722D03*
X023117Y019076D03*
X022054Y019234D03*
X022054Y019588D03*
X020952Y019588D03*
X020952Y019234D03*
X024180Y019234D03*
X024180Y019588D03*
X020007Y022423D03*
X020007Y022777D03*
X023117Y025257D03*
X023117Y025612D03*
D15*
X025381Y024293D03*
X025617Y026242D03*
X019672Y024293D03*
X019436Y026242D03*
X030597Y019903D03*
X032546Y020139D03*
X030597Y014194D03*
X032546Y013958D03*
X026523Y007600D03*
X026759Y005651D03*
X020814Y007600D03*
X020578Y005651D03*
D16*
X022891Y007285D03*
X023147Y007285D03*
X023403Y007285D03*
X023658Y007285D03*
X023914Y007285D03*
X024170Y007285D03*
X024426Y007285D03*
X024682Y007285D03*
X024938Y007285D03*
X025194Y007285D03*
X025450Y007285D03*
X025706Y007285D03*
X025706Y009569D03*
X025450Y009569D03*
X025194Y009569D03*
X024938Y009569D03*
X024682Y009569D03*
X024426Y009569D03*
X024170Y009569D03*
X023914Y009569D03*
X023658Y009569D03*
X023403Y009569D03*
X023147Y009569D03*
X022891Y009569D03*
X022792Y022324D03*
X022536Y022324D03*
X022281Y022324D03*
X022025Y022324D03*
X021769Y022324D03*
X021513Y022324D03*
X021257Y022324D03*
X021001Y022324D03*
X020745Y022324D03*
X020489Y022324D03*
X023048Y022324D03*
X023304Y022324D03*
X023304Y024608D03*
X023048Y024608D03*
X022792Y024608D03*
X022536Y024608D03*
X022281Y024608D03*
X022025Y024608D03*
X021769Y024608D03*
X021513Y024608D03*
X021257Y024608D03*
X021001Y024608D03*
X020745Y024608D03*
X020489Y024608D03*
D17*
X003235Y023309D03*
D18*
X005597Y023309D03*
D19*
X007330Y023769D03*
X010326Y025080D03*
X010326Y026104D03*
X002231Y012915D03*
X008546Y009242D03*
X017546Y009242D03*
D20*
X016546Y009242D03*
X015546Y009242D03*
X014546Y009242D03*
X013546Y009242D03*
X012546Y009242D03*
X012546Y008242D03*
X013546Y008242D03*
X014546Y008242D03*
X015546Y008242D03*
X016546Y008242D03*
X017546Y008242D03*
X008546Y008242D03*
X007546Y008242D03*
X006546Y008242D03*
X005546Y008242D03*
X004546Y008242D03*
X003546Y008242D03*
X003546Y009242D03*
X004546Y009242D03*
X005546Y009242D03*
X006546Y009242D03*
X007546Y009242D03*
X007231Y012915D03*
X006231Y012915D03*
X005231Y012915D03*
X004231Y012915D03*
X003231Y012915D03*
X007330Y022769D03*
X007326Y025080D03*
X008326Y025080D03*
X009326Y025080D03*
X009326Y026104D03*
X008326Y026104D03*
X007326Y026104D03*
D21*
X009849Y023836D03*
X011527Y010356D03*
X002527Y010356D03*
D22*
X003527Y010356D03*
X004527Y010356D03*
X012527Y010356D03*
X013527Y010356D03*
X009849Y021836D03*
X009849Y022836D03*
D23*
X012605Y023604D03*
X012605Y023860D03*
X012605Y024116D03*
X012605Y024372D03*
X012605Y024628D03*
X012605Y024883D03*
X012605Y025139D03*
X014810Y025139D03*
X014810Y024883D03*
X014810Y024628D03*
X014810Y024372D03*
X014810Y024116D03*
X014810Y023860D03*
X014810Y023604D03*
D24*
X006391Y025297D03*
X006391Y025494D03*
X006391Y025691D03*
X006391Y025887D03*
X005939Y025887D03*
X005939Y025691D03*
X005939Y025494D03*
X005939Y025297D03*
D25*
X028629Y019086D03*
X028629Y018830D03*
X028629Y018574D03*
X028629Y018319D03*
X028629Y018063D03*
X028629Y017807D03*
X028629Y017551D03*
X028629Y017295D03*
X028629Y017039D03*
X028629Y016783D03*
X028629Y016527D03*
X028629Y016271D03*
X030912Y016271D03*
X030912Y016527D03*
X030912Y016783D03*
X030912Y017039D03*
X030912Y017295D03*
X030912Y017551D03*
X030912Y017807D03*
X030912Y018063D03*
X030912Y018319D03*
X030912Y018574D03*
X030912Y018830D03*
X030912Y019086D03*
D26*
X031070Y026222D03*
X003353Y026222D03*
X003511Y005671D03*
X031070Y005671D03*
D27*
X031389Y005534D02*
X031811Y005534D01*
X031811Y005458D02*
X031929Y005173D01*
X032147Y004955D01*
X032431Y004837D01*
X032740Y004837D01*
X033025Y004955D01*
X033243Y005173D01*
X033361Y005458D01*
X033361Y005766D01*
X033243Y006051D01*
X033025Y006269D01*
X032740Y006387D01*
X032431Y006387D01*
X032147Y006269D01*
X031929Y006051D01*
X031811Y005766D01*
X031811Y005458D01*
X031820Y005435D02*
X031325Y005435D01*
X031364Y005474D02*
X031417Y005602D01*
X031417Y005740D01*
X031364Y005867D01*
X031266Y005965D01*
X031139Y006018D01*
X031001Y006018D01*
X030873Y005965D01*
X030776Y005867D01*
X030723Y005740D01*
X030723Y005602D01*
X030776Y005474D01*
X030873Y005377D01*
X031001Y005324D01*
X031139Y005324D01*
X031266Y005377D01*
X031364Y005474D01*
X031417Y005632D02*
X031811Y005632D01*
X031811Y005731D02*
X031417Y005731D01*
X031380Y005829D02*
X031837Y005829D01*
X031878Y005928D02*
X031304Y005928D01*
X031918Y006026D02*
X027139Y006026D01*
X027211Y005954D02*
X027061Y006104D01*
X026865Y006185D01*
X026653Y006185D01*
X026456Y006104D01*
X026306Y005954D01*
X026225Y005757D01*
X026225Y005545D01*
X026306Y005349D01*
X026456Y005199D01*
X026653Y005117D01*
X026865Y005117D01*
X027061Y005199D01*
X027211Y005349D01*
X027293Y005545D01*
X027293Y005757D01*
X027211Y005954D01*
X027222Y005928D02*
X030836Y005928D01*
X030760Y005829D02*
X027263Y005829D01*
X027293Y005731D02*
X030723Y005731D01*
X030723Y005632D02*
X027293Y005632D01*
X027288Y005534D02*
X030751Y005534D01*
X030815Y005435D02*
X027247Y005435D01*
X027199Y005337D02*
X030970Y005337D01*
X031170Y005337D02*
X031861Y005337D01*
X031902Y005238D02*
X027101Y005238D01*
X026919Y005140D02*
X031962Y005140D01*
X032060Y005041D02*
X002363Y005041D01*
X002277Y004955D02*
X002495Y005173D01*
X002613Y005458D01*
X002613Y005766D01*
X002495Y006051D01*
X002277Y006269D01*
X001992Y006387D01*
X001683Y006387D01*
X001399Y006269D01*
X001181Y006051D01*
X001063Y005766D01*
X001063Y005458D01*
X001181Y005173D01*
X001399Y004955D01*
X001683Y004837D01*
X001992Y004837D01*
X002277Y004955D01*
X002248Y004943D02*
X032176Y004943D01*
X032414Y004844D02*
X002010Y004844D01*
X001665Y004844D02*
X001023Y004844D01*
X001023Y004797D02*
X001023Y027096D01*
X006835Y027096D01*
X006835Y027005D01*
X006756Y026927D01*
X006211Y026382D01*
X006211Y026096D01*
X006201Y026096D01*
X006165Y026060D01*
X006129Y026096D01*
X005772Y026096D01*
X005759Y026109D01*
X005654Y026153D01*
X005541Y026153D01*
X005436Y026109D01*
X005356Y026029D01*
X005312Y025924D01*
X005312Y025811D01*
X005356Y025706D01*
X005436Y025626D01*
X005541Y025583D01*
X005654Y025583D01*
X005661Y025585D01*
X005661Y025176D01*
X005748Y025088D01*
X006129Y025088D01*
X006165Y025124D01*
X006201Y025088D01*
X006211Y025088D01*
X006211Y025039D01*
X006756Y024494D01*
X006861Y024389D01*
X007783Y024389D01*
X007786Y024386D01*
X007857Y024389D01*
X007928Y024389D01*
X007931Y024391D01*
X007935Y024392D01*
X007983Y024444D01*
X008033Y024494D01*
X008033Y024498D01*
X008178Y024655D01*
X008236Y024630D01*
X008415Y024630D01*
X008490Y024661D01*
X008999Y024152D01*
X009148Y024152D01*
X009429Y024152D01*
X009429Y023504D01*
X009517Y023416D01*
X010182Y023416D01*
X010269Y023504D01*
X010269Y024091D01*
X010424Y023936D01*
X012140Y023936D01*
X012140Y023729D01*
X012228Y023641D01*
X012976Y023641D01*
X012976Y023411D01*
X012601Y023036D01*
X011745Y023036D01*
X011704Y023078D01*
X011599Y023121D01*
X011486Y023121D01*
X011381Y023078D01*
X011301Y022998D01*
X011257Y022893D01*
X011257Y022876D01*
X010682Y022302D01*
X010682Y021080D01*
X010671Y021069D01*
X010627Y020964D01*
X010627Y020850D01*
X010671Y020746D01*
X010751Y020665D01*
X010856Y020622D01*
X010969Y020622D01*
X011074Y020665D01*
X011154Y020746D01*
X011197Y020850D01*
X011197Y020964D01*
X011154Y021069D01*
X011142Y021080D01*
X011142Y022111D01*
X011583Y022551D01*
X011599Y022551D01*
X011704Y022595D01*
X011745Y022636D01*
X012767Y022636D01*
X012884Y022753D01*
X013376Y023246D01*
X013376Y025397D01*
X013390Y025383D01*
X013671Y025383D01*
X013720Y025431D01*
X013859Y025431D01*
X013901Y025390D01*
X014005Y025346D01*
X014119Y025346D01*
X014223Y025390D01*
X014304Y025470D01*
X014347Y025575D01*
X014347Y025688D01*
X014304Y025793D01*
X014223Y025873D01*
X014119Y025916D01*
X014005Y025916D01*
X013901Y025873D01*
X013859Y025831D01*
X013720Y025831D01*
X013671Y025880D01*
X013390Y025880D01*
X013353Y025844D01*
X013317Y025880D01*
X013035Y025880D01*
X012947Y025792D01*
X012947Y025471D01*
X012976Y025442D01*
X012976Y025358D01*
X012228Y025358D01*
X012140Y025270D01*
X012140Y025091D01*
X012037Y025194D01*
X012037Y025549D01*
X011932Y025654D01*
X010896Y026690D01*
X010790Y026796D01*
X009763Y026796D01*
X009490Y026523D01*
X009415Y026554D01*
X009236Y026554D01*
X009161Y026523D01*
X008691Y026993D01*
X008691Y027096D01*
X033400Y027096D01*
X033400Y011687D01*
X032307Y011687D01*
X032219Y011599D01*
X032219Y009506D01*
X032307Y009419D01*
X033400Y009419D01*
X033400Y004797D01*
X001023Y004797D01*
X001023Y004943D02*
X001428Y004943D01*
X001312Y005041D02*
X001023Y005041D01*
X001023Y005140D02*
X001214Y005140D01*
X001153Y005238D02*
X001023Y005238D01*
X001023Y005337D02*
X001113Y005337D01*
X001072Y005435D02*
X001023Y005435D01*
X001023Y005534D02*
X001063Y005534D01*
X001063Y005632D02*
X001023Y005632D01*
X001023Y005731D02*
X001063Y005731D01*
X001089Y005829D02*
X001023Y005829D01*
X001023Y005928D02*
X001130Y005928D01*
X001170Y006026D02*
X001023Y006026D01*
X001023Y006125D02*
X001255Y006125D01*
X001353Y006223D02*
X001023Y006223D01*
X001023Y006322D02*
X001526Y006322D01*
X001023Y006420D02*
X021798Y006420D01*
X021897Y006322D02*
X002149Y006322D01*
X002322Y006223D02*
X021995Y006223D01*
X022094Y006125D02*
X020830Y006125D01*
X020880Y006104D02*
X020684Y006185D01*
X020472Y006185D01*
X020275Y006104D01*
X020125Y005954D01*
X020044Y005757D01*
X020044Y005545D01*
X020125Y005349D01*
X020275Y005199D01*
X020472Y005117D01*
X020684Y005117D01*
X020880Y005199D01*
X021030Y005349D01*
X021112Y005545D01*
X021112Y005757D01*
X021030Y005954D01*
X020880Y006104D01*
X020958Y006026D02*
X022192Y006026D01*
X022291Y005928D02*
X021041Y005928D01*
X021082Y005829D02*
X022389Y005829D01*
X022488Y005731D02*
X021112Y005731D01*
X021112Y005632D02*
X026225Y005632D01*
X026230Y005534D02*
X021107Y005534D01*
X021066Y005435D02*
X026270Y005435D01*
X026318Y005337D02*
X021018Y005337D01*
X020920Y005238D02*
X026417Y005238D01*
X026599Y005140D02*
X020738Y005140D01*
X020417Y005140D02*
X002462Y005140D01*
X002522Y005238D02*
X020236Y005238D01*
X020137Y005337D02*
X003611Y005337D01*
X003580Y005324D02*
X003707Y005377D01*
X003805Y005474D01*
X003858Y005602D01*
X003858Y005740D01*
X003805Y005867D01*
X003707Y005965D01*
X003580Y006018D01*
X003442Y006018D01*
X003314Y005965D01*
X003217Y005867D01*
X003164Y005740D01*
X003164Y005602D01*
X003217Y005474D01*
X003314Y005377D01*
X003442Y005324D01*
X003580Y005324D01*
X003411Y005337D02*
X002563Y005337D01*
X002603Y005435D02*
X003256Y005435D01*
X003192Y005534D02*
X002613Y005534D01*
X002613Y005632D02*
X003164Y005632D01*
X003164Y005731D02*
X002613Y005731D01*
X002586Y005829D02*
X003201Y005829D01*
X003277Y005928D02*
X002546Y005928D01*
X002505Y006026D02*
X020198Y006026D01*
X020114Y005928D02*
X003744Y005928D01*
X003821Y005829D02*
X020074Y005829D01*
X020044Y005731D02*
X003858Y005731D01*
X003858Y005632D02*
X020044Y005632D01*
X020049Y005534D02*
X003829Y005534D01*
X003766Y005435D02*
X020089Y005435D01*
X020326Y006125D02*
X002421Y006125D01*
X001023Y006519D02*
X021700Y006519D01*
X021601Y006617D02*
X017695Y006617D01*
X017729Y006651D02*
X017772Y006756D01*
X017772Y006869D01*
X017729Y006974D01*
X017649Y007054D01*
X017544Y007098D01*
X017431Y007098D01*
X017326Y007054D01*
X017284Y007013D01*
X015446Y007013D01*
X015405Y007054D01*
X015300Y007098D01*
X015186Y007098D01*
X015082Y007054D01*
X015001Y006974D01*
X014958Y006869D01*
X014958Y006756D01*
X015001Y006651D01*
X015082Y006571D01*
X015186Y006528D01*
X015300Y006528D01*
X015405Y006571D01*
X015446Y006613D01*
X017284Y006613D01*
X017326Y006571D01*
X017431Y006528D01*
X017544Y006528D01*
X017649Y006571D01*
X017729Y006651D01*
X017756Y006716D02*
X021503Y006716D01*
X021468Y006751D02*
X022491Y005727D01*
X024215Y005727D01*
X024321Y005833D01*
X025118Y006630D01*
X025118Y006899D01*
X025847Y006899D01*
X025934Y006987D01*
X025934Y007583D01*
X025886Y007632D01*
X025886Y007999D01*
X025699Y008186D01*
X025593Y008292D01*
X022483Y008292D01*
X022352Y008423D01*
X022352Y008907D01*
X022365Y008894D01*
X022470Y008850D01*
X022583Y008850D01*
X022688Y008894D01*
X022768Y008974D01*
X022812Y009079D01*
X022812Y009166D01*
X022828Y009182D01*
X023213Y009182D01*
X023213Y009122D01*
X023151Y009061D01*
X023108Y008956D01*
X023108Y008843D01*
X023151Y008738D01*
X023231Y008658D01*
X023336Y008614D01*
X023423Y008614D01*
X023423Y008567D01*
X023466Y008462D01*
X023546Y008382D01*
X023651Y008339D01*
X023764Y008339D01*
X023869Y008382D01*
X023949Y008462D01*
X023993Y008567D01*
X023993Y008614D01*
X024013Y008614D01*
X024013Y008567D01*
X024057Y008462D01*
X024137Y008382D01*
X024242Y008339D01*
X024355Y008339D01*
X024460Y008382D01*
X024540Y008462D01*
X024583Y008567D01*
X024583Y008614D01*
X024604Y008614D01*
X024604Y008567D01*
X024647Y008462D01*
X024727Y008382D01*
X024832Y008339D01*
X024945Y008339D01*
X025050Y008382D01*
X025130Y008462D01*
X025174Y008567D01*
X025174Y008614D01*
X025194Y008614D01*
X025194Y008567D01*
X025238Y008462D01*
X025318Y008382D01*
X025423Y008339D01*
X025536Y008339D01*
X025641Y008382D01*
X025721Y008462D01*
X025764Y008567D01*
X025764Y008680D01*
X025721Y008785D01*
X025659Y008847D01*
X025659Y009249D01*
X025659Y009250D01*
X025679Y009270D01*
X025679Y009867D01*
X025674Y009872D01*
X025682Y009880D01*
X025725Y009984D01*
X025725Y010098D01*
X025682Y010202D01*
X025601Y010283D01*
X025497Y010326D01*
X025489Y010326D01*
X025489Y010413D01*
X025445Y010517D01*
X025365Y010598D01*
X025260Y010641D01*
X025147Y010641D01*
X025042Y010598D01*
X024962Y010517D01*
X024948Y010483D01*
X024934Y010517D01*
X024853Y010598D01*
X024749Y010641D01*
X024635Y010641D01*
X024577Y010617D01*
X024577Y010636D01*
X024380Y010832D01*
X024263Y010950D01*
X023320Y010950D01*
X023318Y010952D01*
X023213Y010995D01*
X023100Y010995D01*
X022995Y010952D01*
X022915Y010872D01*
X022871Y010767D01*
X022871Y010654D01*
X022915Y010549D01*
X022995Y010469D01*
X023100Y010425D01*
X023152Y010425D01*
X023147Y010413D01*
X023147Y010326D01*
X023100Y010326D01*
X022995Y010283D01*
X022915Y010202D01*
X022871Y010098D01*
X022871Y009984D01*
X022884Y009955D01*
X022750Y009955D01*
X022662Y009867D01*
X022662Y009525D01*
X022557Y009420D01*
X022470Y009420D01*
X022365Y009377D01*
X022352Y009364D01*
X022352Y009756D01*
X022386Y009756D01*
X022491Y009799D01*
X022571Y009880D01*
X022615Y009984D01*
X022615Y010098D01*
X022571Y010202D01*
X022491Y010283D01*
X022386Y010326D01*
X022339Y010326D01*
X022339Y010413D01*
X022296Y010517D01*
X022216Y010598D01*
X022111Y010641D01*
X021997Y010641D01*
X021893Y010598D01*
X021813Y010517D01*
X021779Y010435D01*
X021745Y010517D01*
X021664Y010598D01*
X021560Y010641D01*
X021446Y010641D01*
X021342Y010598D01*
X021261Y010517D01*
X021218Y010413D01*
X021218Y010326D01*
X021171Y010326D01*
X021066Y010283D01*
X020986Y010202D01*
X020942Y010098D01*
X020942Y009984D01*
X020986Y009880D01*
X021047Y009818D01*
X021047Y009730D01*
X021362Y009415D01*
X021362Y006856D01*
X021468Y006751D01*
X021404Y006814D02*
X017772Y006814D01*
X017754Y006913D02*
X021362Y006913D01*
X021362Y007011D02*
X017692Y007011D01*
X017487Y006813D02*
X015243Y006813D01*
X015039Y007011D02*
X001023Y007011D01*
X001023Y006913D02*
X014976Y006913D01*
X014958Y006814D02*
X001023Y006814D01*
X001023Y006716D02*
X014975Y006716D01*
X015035Y006617D02*
X001023Y006617D01*
X001023Y007110D02*
X020603Y007110D01*
X020512Y007147D02*
X020708Y007066D01*
X020920Y007066D01*
X021116Y007147D01*
X021267Y007298D01*
X021348Y007494D01*
X021348Y007706D01*
X021267Y007902D01*
X021116Y008053D01*
X020920Y008134D01*
X020708Y008134D01*
X020512Y008053D01*
X020361Y007902D01*
X020280Y007706D01*
X020280Y007494D01*
X020361Y007298D01*
X020512Y007147D01*
X020451Y007208D02*
X001023Y007208D01*
X001023Y007307D02*
X020358Y007307D01*
X020317Y007405D02*
X001023Y007405D01*
X001023Y007504D02*
X020280Y007504D01*
X020280Y007602D02*
X001023Y007602D01*
X001023Y007701D02*
X020280Y007701D01*
X020319Y007799D02*
X017654Y007799D01*
X017636Y007792D02*
X017801Y007860D01*
X017928Y007987D01*
X017996Y008152D01*
X017996Y008331D01*
X017928Y008497D01*
X017801Y008623D01*
X017636Y008692D01*
X017457Y008692D01*
X017291Y008623D01*
X017165Y008497D01*
X017096Y008331D01*
X017096Y008152D01*
X017165Y007987D01*
X017291Y007860D01*
X017457Y007792D01*
X017636Y007792D01*
X017439Y007799D02*
X016654Y007799D01*
X016636Y007792D02*
X016801Y007860D01*
X016928Y007987D01*
X016996Y008152D01*
X016996Y008331D01*
X016928Y008497D01*
X016801Y008623D01*
X016636Y008692D01*
X016457Y008692D01*
X016291Y008623D01*
X016165Y008497D01*
X016096Y008331D01*
X016096Y008152D01*
X016165Y007987D01*
X016291Y007860D01*
X016457Y007792D01*
X016636Y007792D01*
X016439Y007799D02*
X015654Y007799D01*
X015636Y007792D02*
X015801Y007860D01*
X015928Y007987D01*
X015996Y008152D01*
X015996Y008331D01*
X015928Y008497D01*
X015801Y008623D01*
X015636Y008692D01*
X015457Y008692D01*
X015291Y008623D01*
X015165Y008497D01*
X015096Y008331D01*
X015096Y008152D01*
X015165Y007987D01*
X015291Y007860D01*
X015457Y007792D01*
X015636Y007792D01*
X015439Y007799D02*
X014654Y007799D01*
X014636Y007792D02*
X014801Y007860D01*
X014928Y007987D01*
X014996Y008152D01*
X014996Y008331D01*
X014928Y008497D01*
X014801Y008623D01*
X014636Y008692D01*
X014457Y008692D01*
X014291Y008623D01*
X014165Y008497D01*
X014096Y008331D01*
X014096Y008152D01*
X014165Y007987D01*
X014291Y007860D01*
X014457Y007792D01*
X014636Y007792D01*
X014439Y007799D02*
X013654Y007799D01*
X013636Y007792D02*
X013801Y007860D01*
X013928Y007987D01*
X013996Y008152D01*
X013996Y008331D01*
X013928Y008497D01*
X013801Y008623D01*
X013636Y008692D01*
X013457Y008692D01*
X013291Y008623D01*
X013165Y008497D01*
X013096Y008331D01*
X013096Y008152D01*
X013165Y007987D01*
X013291Y007860D01*
X013457Y007792D01*
X013636Y007792D01*
X013439Y007799D02*
X012654Y007799D01*
X012636Y007792D02*
X012801Y007860D01*
X012928Y007987D01*
X012996Y008152D01*
X012996Y008331D01*
X012928Y008497D01*
X012801Y008623D01*
X012636Y008692D01*
X012457Y008692D01*
X012291Y008623D01*
X012165Y008497D01*
X012096Y008331D01*
X012096Y008152D01*
X012165Y007987D01*
X012291Y007860D01*
X012457Y007792D01*
X012636Y007792D01*
X012439Y007799D02*
X008654Y007799D01*
X008636Y007792D02*
X008801Y007860D01*
X008928Y007987D01*
X008996Y008152D01*
X008996Y008331D01*
X008965Y008406D01*
X009242Y008683D01*
X009242Y010754D01*
X009412Y010924D01*
X012011Y010924D01*
X012116Y011029D01*
X013861Y012774D01*
X016831Y012774D01*
X016893Y012713D01*
X016997Y012669D01*
X017111Y012669D01*
X017216Y012713D01*
X017296Y012793D01*
X017339Y012898D01*
X017339Y013011D01*
X017296Y013116D01*
X017216Y013196D01*
X017134Y013230D01*
X017216Y013264D01*
X017296Y013344D01*
X017339Y013449D01*
X017339Y013562D01*
X017296Y013667D01*
X017216Y013747D01*
X017181Y013761D01*
X017216Y013776D01*
X017296Y013856D01*
X017339Y013961D01*
X017339Y014074D01*
X017296Y014179D01*
X017216Y014259D01*
X017134Y014293D01*
X017216Y014327D01*
X017296Y014407D01*
X017339Y014512D01*
X017339Y014625D01*
X017296Y014730D01*
X017216Y014810D01*
X017111Y014854D01*
X016997Y014854D01*
X016985Y014848D01*
X016985Y014901D01*
X016941Y015006D01*
X016861Y015086D01*
X016756Y015129D01*
X016643Y015129D01*
X016538Y015086D01*
X016477Y015024D01*
X013672Y015024D01*
X013560Y014911D01*
X013560Y014964D01*
X014223Y015627D01*
X014223Y015901D01*
X014264Y015942D01*
X014308Y016047D01*
X014308Y016161D01*
X014264Y016265D01*
X014184Y016346D01*
X014079Y016389D01*
X013966Y016389D01*
X013861Y016346D01*
X013781Y016265D01*
X013738Y016161D01*
X013738Y016047D01*
X013781Y015942D01*
X013823Y015901D01*
X013823Y015793D01*
X013277Y015247D01*
X013218Y015247D01*
X013113Y015204D01*
X013033Y015124D01*
X012990Y015019D01*
X012990Y014906D01*
X013033Y014801D01*
X013113Y014721D01*
X013218Y014677D01*
X013326Y014677D01*
X011035Y012386D01*
X008436Y012386D01*
X005711Y009661D01*
X005636Y009692D01*
X005457Y009692D01*
X005291Y009623D01*
X005165Y009497D01*
X005096Y009331D01*
X005096Y009152D01*
X005165Y008987D01*
X005291Y008860D01*
X005457Y008792D01*
X005636Y008792D01*
X005801Y008860D01*
X005890Y008949D01*
X005890Y008840D01*
X005711Y008661D01*
X005636Y008692D01*
X005457Y008692D01*
X005291Y008623D01*
X005165Y008497D01*
X005096Y008331D01*
X005096Y008152D01*
X005165Y007987D01*
X005291Y007860D01*
X005457Y007792D01*
X005636Y007792D01*
X005801Y007860D01*
X005928Y007987D01*
X005996Y008152D01*
X005996Y008331D01*
X005965Y008406D01*
X006250Y008691D01*
X006250Y008902D01*
X006291Y008860D01*
X006457Y008792D01*
X006636Y008792D01*
X006801Y008860D01*
X006874Y008933D01*
X006874Y008824D01*
X006711Y008661D01*
X006636Y008692D01*
X006457Y008692D01*
X006291Y008623D01*
X006165Y008497D01*
X006096Y008331D01*
X006096Y008152D01*
X006165Y007987D01*
X006291Y007860D01*
X006457Y007792D01*
X006636Y007792D01*
X006801Y007860D01*
X006928Y007987D01*
X006996Y008152D01*
X006996Y008331D01*
X006965Y008406D01*
X007234Y008675D01*
X007234Y008917D01*
X007291Y008860D01*
X007457Y008792D01*
X007636Y008792D01*
X007801Y008860D01*
X007858Y008917D01*
X007858Y008808D01*
X007711Y008661D01*
X007636Y008692D01*
X007457Y008692D01*
X007291Y008623D01*
X007165Y008497D01*
X007096Y008331D01*
X007096Y008152D01*
X007165Y007987D01*
X007291Y007860D01*
X007457Y007792D01*
X007636Y007792D01*
X007801Y007860D01*
X007928Y007987D01*
X007996Y008152D01*
X007996Y008331D01*
X007965Y008406D01*
X008218Y008659D01*
X008218Y008792D01*
X008842Y008792D01*
X008711Y008661D01*
X008636Y008692D01*
X008457Y008692D01*
X008291Y008623D01*
X008165Y008497D01*
X008096Y008331D01*
X008096Y008152D01*
X008165Y007987D01*
X008291Y007860D01*
X008457Y007792D01*
X008636Y007792D01*
X008439Y007799D02*
X007654Y007799D01*
X007839Y007898D02*
X008254Y007898D01*
X008161Y007996D02*
X007932Y007996D01*
X007972Y008095D02*
X008120Y008095D01*
X008096Y008193D02*
X007996Y008193D01*
X007996Y008292D02*
X008096Y008292D01*
X008121Y008390D02*
X007972Y008390D01*
X008048Y008489D02*
X008162Y008489D01*
X008146Y008587D02*
X008255Y008587D01*
X008218Y008686D02*
X008442Y008686D01*
X008650Y008686D02*
X008736Y008686D01*
X008834Y008784D02*
X008218Y008784D01*
X007858Y008883D02*
X007824Y008883D01*
X007834Y008784D02*
X007234Y008784D01*
X007234Y008686D02*
X007442Y008686D01*
X007650Y008686D02*
X007736Y008686D01*
X007255Y008587D02*
X007146Y008587D01*
X007162Y008489D02*
X007048Y008489D01*
X007121Y008390D02*
X006972Y008390D01*
X006996Y008292D02*
X007096Y008292D01*
X007096Y008193D02*
X006996Y008193D01*
X006972Y008095D02*
X007120Y008095D01*
X007161Y007996D02*
X006932Y007996D01*
X006839Y007898D02*
X007254Y007898D01*
X007439Y007799D02*
X006654Y007799D01*
X006439Y007799D02*
X005654Y007799D01*
X005839Y007898D02*
X006254Y007898D01*
X006161Y007996D02*
X005932Y007996D01*
X005972Y008095D02*
X006120Y008095D01*
X006096Y008193D02*
X005996Y008193D01*
X005996Y008292D02*
X006096Y008292D01*
X006121Y008390D02*
X005972Y008390D01*
X006048Y008489D02*
X006162Y008489D01*
X006146Y008587D02*
X006255Y008587D01*
X006245Y008686D02*
X006442Y008686D01*
X006650Y008686D02*
X006736Y008686D01*
X006834Y008784D02*
X006250Y008784D01*
X006250Y008883D02*
X006269Y008883D01*
X005890Y008883D02*
X005824Y008883D01*
X005834Y008784D02*
X001023Y008784D01*
X001023Y008686D02*
X003442Y008686D01*
X003457Y008692D02*
X003291Y008623D01*
X003165Y008497D01*
X003096Y008331D01*
X003096Y008152D01*
X003165Y007987D01*
X003291Y007860D01*
X003457Y007792D01*
X003636Y007792D01*
X003801Y007860D01*
X003928Y007987D01*
X003996Y008152D01*
X003996Y008331D01*
X003928Y008497D01*
X003801Y008623D01*
X003636Y008692D01*
X003457Y008692D01*
X003457Y008792D02*
X003636Y008792D01*
X003801Y008860D01*
X003928Y008987D01*
X003996Y009152D01*
X003996Y009331D01*
X003928Y009497D01*
X003801Y009623D01*
X003636Y009692D01*
X003457Y009692D01*
X003291Y009623D01*
X003165Y009497D01*
X003096Y009331D01*
X003096Y009152D01*
X003165Y008987D01*
X003291Y008860D01*
X003457Y008792D01*
X003269Y008883D02*
X001023Y008883D01*
X001023Y008981D02*
X003170Y008981D01*
X003126Y009080D02*
X001023Y009080D01*
X001023Y009178D02*
X003096Y009178D01*
X003096Y009277D02*
X001023Y009277D01*
X001023Y009375D02*
X003114Y009375D01*
X003155Y009474D02*
X001023Y009474D01*
X001023Y009572D02*
X003240Y009572D01*
X003406Y009671D02*
X001023Y009671D01*
X001023Y009769D02*
X005819Y009769D01*
X005721Y009671D02*
X005686Y009671D01*
X005406Y009671D02*
X004686Y009671D01*
X004636Y009692D02*
X004457Y009692D01*
X004291Y009623D01*
X004165Y009497D01*
X004096Y009331D01*
X004096Y009152D01*
X004165Y008987D01*
X004291Y008860D01*
X004457Y008792D01*
X004636Y008792D01*
X004801Y008860D01*
X004928Y008987D01*
X004996Y009152D01*
X004996Y009331D01*
X004928Y009497D01*
X004801Y009623D01*
X004636Y009692D01*
X004406Y009671D02*
X003686Y009671D01*
X003852Y009572D02*
X004240Y009572D01*
X004155Y009474D02*
X003937Y009474D01*
X003978Y009375D02*
X004114Y009375D01*
X004096Y009277D02*
X003996Y009277D01*
X003996Y009178D02*
X004096Y009178D01*
X004126Y009080D02*
X003966Y009080D01*
X003922Y008981D02*
X004170Y008981D01*
X004269Y008883D02*
X003824Y008883D01*
X003650Y008686D02*
X004442Y008686D01*
X004457Y008692D02*
X004291Y008623D01*
X004165Y008497D01*
X004096Y008331D01*
X004096Y008152D01*
X004165Y007987D01*
X004291Y007860D01*
X004457Y007792D01*
X004636Y007792D01*
X004801Y007860D01*
X004928Y007987D01*
X004996Y008152D01*
X004996Y008331D01*
X004928Y008497D01*
X004801Y008623D01*
X004636Y008692D01*
X004457Y008692D01*
X004650Y008686D02*
X005442Y008686D01*
X005650Y008686D02*
X005736Y008686D01*
X005255Y008587D02*
X004837Y008587D01*
X004931Y008489D02*
X005162Y008489D01*
X005121Y008390D02*
X004972Y008390D01*
X004996Y008292D02*
X005096Y008292D01*
X005096Y008193D02*
X004996Y008193D01*
X004972Y008095D02*
X005120Y008095D01*
X005161Y007996D02*
X004932Y007996D01*
X004839Y007898D02*
X005254Y007898D01*
X005439Y007799D02*
X004654Y007799D01*
X004439Y007799D02*
X003654Y007799D01*
X003839Y007898D02*
X004254Y007898D01*
X004161Y007996D02*
X003932Y007996D01*
X003972Y008095D02*
X004120Y008095D01*
X004096Y008193D02*
X003996Y008193D01*
X003996Y008292D02*
X004096Y008292D01*
X004121Y008390D02*
X003972Y008390D01*
X003931Y008489D02*
X004162Y008489D01*
X004255Y008587D02*
X003837Y008587D01*
X003255Y008587D02*
X001023Y008587D01*
X001023Y008489D02*
X003162Y008489D01*
X003121Y008390D02*
X001023Y008390D01*
X001023Y008292D02*
X003096Y008292D01*
X003096Y008193D02*
X001023Y008193D01*
X001023Y008095D02*
X003120Y008095D01*
X003161Y007996D02*
X001023Y007996D01*
X001023Y007898D02*
X003254Y007898D01*
X003439Y007799D02*
X001023Y007799D01*
X001023Y009868D02*
X005918Y009868D01*
X006016Y009966D02*
X004683Y009966D01*
X004610Y009936D02*
X004764Y010000D01*
X004883Y010118D01*
X004947Y010272D01*
X004947Y010439D01*
X004883Y010594D01*
X004764Y010712D01*
X004610Y010776D01*
X004443Y010776D01*
X004289Y010712D01*
X004171Y010594D01*
X004107Y010439D01*
X004107Y010272D01*
X004171Y010118D01*
X004289Y010000D01*
X004443Y009936D01*
X004610Y009936D01*
X004370Y009966D02*
X003683Y009966D01*
X003610Y009936D02*
X003764Y010000D01*
X003883Y010118D01*
X003947Y010272D01*
X003947Y010439D01*
X003883Y010594D01*
X003764Y010712D01*
X003610Y010776D01*
X003443Y010776D01*
X003289Y010712D01*
X003171Y010594D01*
X003107Y010439D01*
X003107Y010272D01*
X003171Y010118D01*
X003289Y010000D01*
X003443Y009936D01*
X003610Y009936D01*
X003370Y009966D02*
X001023Y009966D01*
X001023Y010065D02*
X003224Y010065D01*
X003152Y010163D02*
X001023Y010163D01*
X001023Y010262D02*
X003111Y010262D01*
X003107Y010360D02*
X001023Y010360D01*
X001023Y010459D02*
X003115Y010459D01*
X003155Y010557D02*
X001023Y010557D01*
X001023Y010656D02*
X003232Y010656D01*
X003391Y010754D02*
X001023Y010754D01*
X001023Y010853D02*
X006903Y010853D01*
X007001Y010951D02*
X001023Y010951D01*
X001023Y011050D02*
X007100Y011050D01*
X007198Y011148D02*
X001023Y011148D01*
X001023Y011247D02*
X007297Y011247D01*
X007395Y011345D02*
X001023Y011345D01*
X001023Y011444D02*
X007494Y011444D01*
X007592Y011542D02*
X001023Y011542D01*
X001023Y011641D02*
X007691Y011641D01*
X007789Y011739D02*
X001023Y011739D01*
X001023Y011838D02*
X007888Y011838D01*
X007986Y011936D02*
X001023Y011936D01*
X001023Y012035D02*
X008085Y012035D01*
X008183Y012133D02*
X001023Y012133D01*
X001023Y012232D02*
X008282Y012232D01*
X008380Y012330D02*
X001023Y012330D01*
X001023Y012429D02*
X011077Y012429D01*
X011176Y012527D02*
X007471Y012527D01*
X007486Y012533D02*
X007613Y012660D01*
X007681Y012825D01*
X007681Y013004D01*
X007613Y013170D01*
X007486Y013296D01*
X007321Y013365D01*
X007142Y013365D01*
X006976Y013296D01*
X006850Y013170D01*
X006781Y013004D01*
X006781Y012825D01*
X006850Y012660D01*
X006976Y012533D01*
X007142Y012465D01*
X007321Y012465D01*
X007486Y012533D01*
X007578Y012626D02*
X011274Y012626D01*
X011373Y012724D02*
X007639Y012724D01*
X007680Y012823D02*
X011471Y012823D01*
X011570Y012921D02*
X007681Y012921D01*
X007675Y013020D02*
X011668Y013020D01*
X011767Y013118D02*
X007634Y013118D01*
X007566Y013217D02*
X011865Y013217D01*
X011964Y013315D02*
X007441Y013315D01*
X007022Y013315D02*
X006441Y013315D01*
X006486Y013296D02*
X006321Y013365D01*
X006142Y013365D01*
X005976Y013296D01*
X005850Y013170D01*
X005781Y013004D01*
X005781Y012825D01*
X005850Y012660D01*
X005976Y012533D01*
X006142Y012465D01*
X006321Y012465D01*
X006486Y012533D01*
X006613Y012660D01*
X006681Y012825D01*
X006681Y013004D01*
X006613Y013170D01*
X006486Y013296D01*
X006566Y013217D02*
X006897Y013217D01*
X006828Y013118D02*
X006634Y013118D01*
X006675Y013020D02*
X006788Y013020D01*
X006781Y012921D02*
X006681Y012921D01*
X006680Y012823D02*
X006782Y012823D01*
X006823Y012724D02*
X006639Y012724D01*
X006578Y012626D02*
X006884Y012626D01*
X006991Y012527D02*
X006471Y012527D01*
X005991Y012527D02*
X005471Y012527D01*
X005486Y012533D02*
X005613Y012660D01*
X005681Y012825D01*
X005681Y013004D01*
X005613Y013170D01*
X005486Y013296D01*
X005321Y013365D01*
X005142Y013365D01*
X004976Y013296D01*
X004850Y013170D01*
X004781Y013004D01*
X004781Y012825D01*
X004850Y012660D01*
X004976Y012533D01*
X005142Y012465D01*
X005321Y012465D01*
X005486Y012533D01*
X005578Y012626D02*
X005884Y012626D01*
X005823Y012724D02*
X005639Y012724D01*
X005680Y012823D02*
X005782Y012823D01*
X005781Y012921D02*
X005681Y012921D01*
X005675Y013020D02*
X005788Y013020D01*
X005828Y013118D02*
X005634Y013118D01*
X005566Y013217D02*
X005897Y013217D01*
X006022Y013315D02*
X005441Y013315D01*
X005022Y013315D02*
X004441Y013315D01*
X004486Y013296D02*
X004321Y013365D01*
X004142Y013365D01*
X003976Y013296D01*
X003850Y013170D01*
X003781Y013004D01*
X003781Y012825D01*
X003850Y012660D01*
X003976Y012533D01*
X004142Y012465D01*
X004321Y012465D01*
X004486Y012533D01*
X004613Y012660D01*
X004681Y012825D01*
X004681Y013004D01*
X004613Y013170D01*
X004486Y013296D01*
X004566Y013217D02*
X004897Y013217D01*
X004828Y013118D02*
X004634Y013118D01*
X004675Y013020D02*
X004788Y013020D01*
X004781Y012921D02*
X004681Y012921D01*
X004680Y012823D02*
X004782Y012823D01*
X004823Y012724D02*
X004639Y012724D01*
X004578Y012626D02*
X004884Y012626D01*
X004991Y012527D02*
X004471Y012527D01*
X003991Y012527D02*
X003471Y012527D01*
X003486Y012533D02*
X003613Y012660D01*
X003681Y012825D01*
X003681Y013004D01*
X003613Y013170D01*
X003486Y013296D01*
X003321Y013365D01*
X003142Y013365D01*
X002976Y013296D01*
X002850Y013170D01*
X002781Y013004D01*
X002781Y012825D01*
X002850Y012660D01*
X002976Y012533D01*
X003142Y012465D01*
X003321Y012465D01*
X003486Y012533D01*
X003578Y012626D02*
X003884Y012626D01*
X003823Y012724D02*
X003639Y012724D01*
X003680Y012823D02*
X003782Y012823D01*
X003781Y012921D02*
X003681Y012921D01*
X003675Y013020D02*
X003788Y013020D01*
X003828Y013118D02*
X003634Y013118D01*
X003566Y013217D02*
X003897Y013217D01*
X004022Y013315D02*
X003441Y013315D01*
X003022Y013315D02*
X001023Y013315D01*
X001023Y013217D02*
X002897Y013217D01*
X002828Y013118D02*
X001023Y013118D01*
X001023Y013020D02*
X002788Y013020D01*
X002781Y012921D02*
X001023Y012921D01*
X001023Y012823D02*
X002782Y012823D01*
X002823Y012724D02*
X001023Y012724D01*
X001023Y012626D02*
X002884Y012626D01*
X002991Y012527D02*
X001023Y012527D01*
X001023Y013414D02*
X012062Y013414D01*
X012161Y013512D02*
X001023Y013512D01*
X001023Y013611D02*
X012259Y013611D01*
X012358Y013709D02*
X001023Y013709D01*
X001023Y013808D02*
X012456Y013808D01*
X012555Y013906D02*
X001023Y013906D01*
X001023Y014005D02*
X012653Y014005D01*
X012752Y014103D02*
X001023Y014103D01*
X001023Y014202D02*
X012850Y014202D01*
X012949Y014300D02*
X012661Y014300D01*
X012689Y014328D02*
X012733Y014433D01*
X012733Y014546D01*
X012689Y014651D01*
X012609Y014731D01*
X012505Y014775D01*
X012488Y014775D01*
X011536Y015727D01*
X011536Y019435D01*
X011548Y019446D01*
X011591Y019551D01*
X011591Y019665D01*
X011548Y019769D01*
X011468Y019849D01*
X011363Y019893D01*
X011249Y019893D01*
X011145Y019849D01*
X011064Y019769D01*
X011021Y019665D01*
X011021Y019551D01*
X011064Y019446D01*
X011076Y019435D01*
X011076Y015536D01*
X012163Y014449D01*
X012163Y014433D01*
X012206Y014328D01*
X012286Y014248D01*
X012391Y014205D01*
X012505Y014205D01*
X012609Y014248D01*
X012689Y014328D01*
X012719Y014399D02*
X013047Y014399D01*
X013146Y014497D02*
X012733Y014497D01*
X012712Y014596D02*
X013244Y014596D01*
X013177Y014694D02*
X012646Y014694D01*
X012470Y014793D02*
X013041Y014793D01*
X012996Y014891D02*
X012372Y014891D01*
X012273Y014990D02*
X012990Y014990D01*
X013018Y015088D02*
X012175Y015088D01*
X012076Y015187D02*
X013096Y015187D01*
X013315Y015285D02*
X011978Y015285D01*
X011879Y015384D02*
X013413Y015384D01*
X013512Y015482D02*
X011781Y015482D01*
X011682Y015581D02*
X013610Y015581D01*
X013709Y015679D02*
X011584Y015679D01*
X011536Y015778D02*
X013807Y015778D01*
X013823Y015876D02*
X011536Y015876D01*
X011536Y015975D02*
X013768Y015975D01*
X013738Y016073D02*
X011536Y016073D01*
X011536Y016172D02*
X013742Y016172D01*
X013786Y016270D02*
X011536Y016270D01*
X011536Y016369D02*
X013917Y016369D01*
X014128Y016369D02*
X018547Y016369D01*
X018547Y016467D02*
X011536Y016467D01*
X011536Y016566D02*
X018547Y016566D01*
X018547Y016664D02*
X011536Y016664D01*
X011536Y016763D02*
X015797Y016763D01*
X015830Y016731D02*
X017176Y016731D01*
X017294Y016848D01*
X017413Y016967D01*
X018547Y016967D01*
X018547Y012438D01*
X018664Y012321D01*
X025680Y012321D01*
X025797Y012438D01*
X025797Y019454D01*
X025680Y019572D01*
X025386Y019572D01*
X025410Y019630D01*
X025410Y019743D01*
X025367Y019848D01*
X025286Y019928D01*
X025182Y019972D01*
X025095Y019972D01*
X024570Y020497D01*
X021184Y020497D01*
X020278Y021402D01*
X019924Y021402D01*
X018888Y022438D01*
X018888Y023597D01*
X018949Y023659D01*
X018993Y023764D01*
X018993Y023877D01*
X018949Y023982D01*
X018869Y024062D01*
X018764Y024105D01*
X018651Y024105D01*
X018546Y024062D01*
X018520Y024036D01*
X018477Y024139D01*
X018397Y024220D01*
X018292Y024263D01*
X018179Y024263D01*
X018074Y024220D01*
X017994Y024139D01*
X017950Y024035D01*
X017950Y023921D01*
X017994Y023817D01*
X018074Y023736D01*
X018179Y023693D01*
X018266Y023693D01*
X018291Y023667D01*
X018291Y022250D01*
X018397Y022144D01*
X019748Y020793D01*
X019854Y020688D01*
X019863Y020688D01*
X019924Y020626D01*
X020029Y020583D01*
X020142Y020583D01*
X020247Y020626D01*
X020327Y020706D01*
X020368Y020804D01*
X020929Y020242D01*
X021035Y020137D01*
X024421Y020137D01*
X024840Y019717D01*
X024840Y019630D01*
X024864Y019572D01*
X018664Y019572D01*
X018547Y019454D01*
X018547Y017603D01*
X017129Y017603D01*
X017012Y017486D01*
X016893Y017367D01*
X016113Y017367D01*
X015640Y017840D01*
X015640Y017840D01*
X015523Y017957D01*
X014491Y017957D01*
X014374Y017840D01*
X014295Y017762D01*
X014295Y017517D01*
X014412Y017400D01*
X014491Y017321D01*
X015239Y017321D01*
X015830Y016731D01*
X015699Y016861D02*
X011536Y016861D01*
X011536Y016960D02*
X015600Y016960D01*
X015502Y017058D02*
X011536Y017058D01*
X011536Y017157D02*
X015403Y017157D01*
X015305Y017255D02*
X011536Y017255D01*
X011536Y017354D02*
X014458Y017354D01*
X014360Y017452D02*
X011536Y017452D01*
X011536Y017551D02*
X014295Y017551D01*
X014295Y017649D02*
X011536Y017649D01*
X011536Y017748D02*
X014295Y017748D01*
X014380Y017846D02*
X011536Y017846D01*
X011536Y017945D02*
X014478Y017945D01*
X014574Y017757D02*
X014495Y017679D01*
X014495Y017600D01*
X014574Y017521D01*
X015322Y017521D01*
X015912Y016931D01*
X017094Y016931D01*
X017330Y017167D01*
X018747Y017167D01*
X018747Y016979D01*
X018782Y017015D01*
X018887Y017058D01*
X019001Y017058D01*
X019105Y017015D01*
X019186Y016935D01*
X019229Y016830D01*
X019229Y016717D01*
X019186Y016612D01*
X019114Y016540D01*
X019114Y016298D01*
X019026Y016210D01*
X018747Y016210D01*
X018747Y015317D01*
X018765Y015362D01*
X018755Y015373D01*
X018755Y015812D01*
X018842Y015900D01*
X019164Y015900D01*
X019251Y015812D01*
X019251Y015412D01*
X019264Y015399D01*
X019308Y015294D01*
X019308Y015181D01*
X019264Y015076D01*
X019184Y014996D01*
X019079Y014953D01*
X018966Y014953D01*
X018861Y014996D01*
X018781Y015076D01*
X018747Y015158D01*
X018747Y014187D01*
X019026Y014187D01*
X019114Y014099D01*
X019114Y013857D01*
X019186Y013785D01*
X019229Y013680D01*
X019229Y013567D01*
X019186Y013462D01*
X019105Y013382D01*
X019001Y013339D01*
X018887Y013339D01*
X018782Y013382D01*
X018747Y013417D01*
X018747Y012521D01*
X020833Y012521D01*
X020789Y012540D01*
X020778Y012529D01*
X020338Y012529D01*
X020251Y012617D01*
X020251Y012938D01*
X020338Y013026D01*
X020738Y013026D01*
X020751Y013038D01*
X020856Y013082D01*
X020969Y013082D01*
X021074Y013038D01*
X021154Y012958D01*
X021197Y012854D01*
X021197Y012740D01*
X021154Y012635D01*
X021074Y012555D01*
X020992Y012521D01*
X021255Y012521D01*
X021255Y012800D01*
X021257Y012803D01*
X021218Y012898D01*
X021218Y013011D01*
X021261Y013116D01*
X021342Y013196D01*
X021446Y013239D01*
X021560Y013239D01*
X021664Y013196D01*
X021688Y013173D01*
X021688Y013312D01*
X021775Y013400D01*
X022018Y013400D01*
X022090Y013472D01*
X022194Y013515D01*
X022308Y013515D01*
X022412Y013472D01*
X022493Y013391D01*
X022536Y013287D01*
X022536Y013173D01*
X022493Y013068D01*
X022412Y012988D01*
X022308Y012945D01*
X022194Y012945D01*
X022132Y012971D01*
X022125Y012971D01*
X022097Y012942D01*
X021788Y012942D01*
X021788Y012898D01*
X021749Y012803D01*
X021751Y012800D01*
X021751Y012521D01*
X022829Y012521D01*
X022829Y012800D01*
X022917Y012888D01*
X023159Y012888D01*
X023231Y012960D01*
X023336Y013003D01*
X023449Y013003D01*
X023554Y012960D01*
X023634Y012880D01*
X023678Y012775D01*
X023678Y012661D01*
X023634Y012557D01*
X023599Y012521D01*
X023971Y012521D01*
X023971Y012800D01*
X024059Y012888D01*
X024301Y012888D01*
X024373Y012960D01*
X024478Y013003D01*
X024591Y013003D01*
X024696Y012960D01*
X024776Y012880D01*
X024819Y012775D01*
X024819Y012661D01*
X024776Y012557D01*
X024741Y012521D01*
X025597Y012521D01*
X025597Y013977D01*
X025579Y013933D01*
X025590Y013922D01*
X025590Y013483D01*
X025502Y013395D01*
X025181Y013395D01*
X025093Y013483D01*
X025093Y013882D01*
X025080Y013895D01*
X025037Y014000D01*
X025037Y014113D01*
X025080Y014218D01*
X025160Y014298D01*
X025265Y014342D01*
X025379Y014342D01*
X025483Y014298D01*
X025563Y014218D01*
X025597Y014136D01*
X025597Y014874D01*
X025562Y014839D01*
X025457Y014795D01*
X025344Y014795D01*
X025239Y014839D01*
X025159Y014919D01*
X025116Y015024D01*
X025116Y015137D01*
X025159Y015242D01*
X025231Y015314D01*
X025231Y015556D01*
X025319Y015644D01*
X025597Y015644D01*
X025597Y018299D01*
X025562Y018264D01*
X025457Y018221D01*
X025344Y018221D01*
X025239Y018264D01*
X025159Y018344D01*
X025116Y018449D01*
X025116Y018562D01*
X025159Y018667D01*
X025231Y018739D01*
X025231Y018981D01*
X025319Y019069D01*
X025597Y019069D01*
X025597Y019372D01*
X024701Y019372D01*
X024737Y019336D01*
X024780Y019231D01*
X024780Y019118D01*
X024737Y019013D01*
X024657Y018933D01*
X024552Y018890D01*
X024438Y018890D01*
X024334Y018933D01*
X024262Y019005D01*
X024020Y019005D01*
X023932Y019093D01*
X023932Y019372D01*
X022303Y019372D01*
X022303Y019093D01*
X022215Y019005D01*
X021973Y019005D01*
X021901Y018933D01*
X021796Y018890D01*
X021682Y018890D01*
X021578Y018933D01*
X021498Y019013D01*
X021454Y019118D01*
X021454Y019231D01*
X021498Y019336D01*
X021533Y019372D01*
X021200Y019372D01*
X021200Y019093D01*
X021112Y019005D01*
X020870Y019005D01*
X020798Y018933D01*
X020694Y018890D01*
X020580Y018890D01*
X020475Y018933D01*
X020395Y019013D01*
X020352Y019118D01*
X020352Y019231D01*
X020395Y019336D01*
X020431Y019372D01*
X019653Y019372D01*
X019698Y019353D01*
X019709Y019364D01*
X020148Y019364D01*
X020236Y019276D01*
X020236Y018955D01*
X020148Y018867D01*
X019748Y018867D01*
X019735Y018854D01*
X019631Y018811D01*
X019517Y018811D01*
X019412Y018854D01*
X019332Y018935D01*
X019289Y019039D01*
X019289Y019153D01*
X019332Y019258D01*
X019412Y019338D01*
X019494Y019372D01*
X018747Y019372D01*
X018747Y018624D01*
X018781Y018706D01*
X018861Y018786D01*
X018966Y018830D01*
X019079Y018830D01*
X019184Y018786D01*
X019264Y018706D01*
X019308Y018602D01*
X019308Y018488D01*
X019264Y018383D01*
X019251Y018371D01*
X019251Y017971D01*
X019164Y017883D01*
X018842Y017883D01*
X018755Y017971D01*
X018755Y018410D01*
X018765Y018421D01*
X018747Y018465D01*
X018747Y017403D01*
X017212Y017403D01*
X016975Y017167D01*
X016031Y017167D01*
X015440Y017757D01*
X014574Y017757D01*
X014564Y017748D02*
X015450Y017748D01*
X015548Y017649D02*
X014495Y017649D01*
X014544Y017551D02*
X015647Y017551D01*
X015745Y017452D02*
X015391Y017452D01*
X015489Y017354D02*
X015844Y017354D01*
X015942Y017255D02*
X015588Y017255D01*
X015686Y017157D02*
X017320Y017157D01*
X017221Y017058D02*
X015785Y017058D01*
X015883Y016960D02*
X017123Y016960D01*
X017307Y016861D02*
X018547Y016861D01*
X018547Y016763D02*
X017208Y016763D01*
X017405Y016960D02*
X018547Y016960D01*
X018747Y017058D02*
X019934Y017058D01*
X019924Y017054D02*
X019911Y017041D01*
X019512Y017041D01*
X019424Y016953D01*
X019424Y016632D01*
X019512Y016544D01*
X019951Y016544D01*
X019962Y016555D01*
X020029Y016528D01*
X020142Y016528D01*
X020247Y016571D01*
X020327Y016651D01*
X020371Y016756D01*
X020371Y016869D01*
X020327Y016974D01*
X020247Y017054D01*
X020142Y017098D01*
X020029Y017098D01*
X019924Y017054D01*
X020086Y016813D02*
X020066Y016793D01*
X019731Y016793D01*
X019424Y016763D02*
X019229Y016763D01*
X019216Y016861D02*
X019424Y016861D01*
X019430Y016960D02*
X019160Y016960D01*
X018944Y016773D02*
X018885Y016714D01*
X018885Y016458D01*
X019114Y016467D02*
X024503Y016467D01*
X024503Y016369D02*
X019114Y016369D01*
X019086Y016270D02*
X024495Y016270D01*
X024490Y016265D02*
X024446Y016161D01*
X024446Y016047D01*
X024490Y015942D01*
X024570Y015862D01*
X024675Y015819D01*
X024788Y015819D01*
X024893Y015862D01*
X024973Y015942D01*
X025016Y016047D01*
X025016Y016161D01*
X024977Y016256D01*
X024999Y016278D01*
X024999Y016717D01*
X024912Y016805D01*
X024590Y016805D01*
X024503Y016717D01*
X024503Y016278D01*
X024490Y016265D01*
X024451Y016172D02*
X018747Y016172D01*
X018747Y016073D02*
X024446Y016073D01*
X024476Y015975D02*
X018747Y015975D01*
X018747Y015876D02*
X018819Y015876D01*
X018755Y015778D02*
X018747Y015778D01*
X018747Y015679D02*
X018755Y015679D01*
X018747Y015581D02*
X018755Y015581D01*
X018747Y015482D02*
X018755Y015482D01*
X018747Y015384D02*
X018755Y015384D01*
X018547Y015384D02*
X013979Y015384D01*
X014078Y015482D02*
X018547Y015482D01*
X018547Y015581D02*
X014176Y015581D01*
X014223Y015679D02*
X018547Y015679D01*
X018547Y015778D02*
X014223Y015778D01*
X014223Y015876D02*
X018547Y015876D01*
X018547Y015975D02*
X014278Y015975D01*
X014308Y016073D02*
X018547Y016073D01*
X018547Y016172D02*
X014303Y016172D01*
X014259Y016270D02*
X018547Y016270D01*
X019139Y016566D02*
X019490Y016566D01*
X019424Y016664D02*
X019207Y016664D01*
X018747Y017157D02*
X024771Y017157D01*
X024765Y017163D02*
X024845Y017083D01*
X024950Y017039D01*
X025064Y017039D01*
X025131Y017067D01*
X025181Y017017D01*
X025502Y017017D01*
X025590Y017105D01*
X025590Y017544D01*
X025502Y017632D01*
X025181Y017632D01*
X025131Y017582D01*
X025064Y017609D01*
X024950Y017609D01*
X024845Y017566D01*
X024765Y017486D01*
X024722Y017381D01*
X024722Y017268D01*
X024765Y017163D01*
X024727Y017255D02*
X017064Y017255D01*
X017162Y017354D02*
X024722Y017354D01*
X024751Y017452D02*
X018747Y017452D01*
X018747Y017551D02*
X024830Y017551D01*
X025007Y017324D02*
X025342Y017324D01*
X025590Y017354D02*
X025597Y017354D01*
X025590Y017452D02*
X025597Y017452D01*
X025583Y017551D02*
X025597Y017551D01*
X025597Y017649D02*
X018747Y017649D01*
X018747Y017748D02*
X025597Y017748D01*
X025597Y017846D02*
X018747Y017846D01*
X018747Y017945D02*
X018781Y017945D01*
X018755Y018043D02*
X018747Y018043D01*
X018747Y018142D02*
X018755Y018142D01*
X018747Y018240D02*
X018755Y018240D01*
X018747Y018339D02*
X018755Y018339D01*
X018747Y018437D02*
X018759Y018437D01*
X018747Y018634D02*
X018751Y018634D01*
X018747Y018733D02*
X018807Y018733D01*
X018747Y018831D02*
X019468Y018831D01*
X019337Y018930D02*
X018747Y018930D01*
X018747Y019028D02*
X019293Y019028D01*
X019289Y019127D02*
X018747Y019127D01*
X018747Y019225D02*
X019319Y019225D01*
X019398Y019324D02*
X018747Y019324D01*
X018547Y019324D02*
X017549Y019324D01*
X017549Y019422D02*
X018547Y019422D01*
X018613Y019521D02*
X017549Y019521D01*
X017549Y019619D02*
X024844Y019619D01*
X024839Y019718D02*
X017549Y019718D01*
X017549Y019816D02*
X024741Y019816D01*
X024642Y019915D02*
X017549Y019915D01*
X017549Y020013D02*
X024544Y020013D01*
X024445Y020112D02*
X017549Y020112D01*
X017549Y020210D02*
X020961Y020210D01*
X020862Y020309D02*
X017549Y020309D01*
X017549Y020407D02*
X020764Y020407D01*
X020665Y020506D02*
X017549Y020506D01*
X017549Y020604D02*
X019977Y020604D01*
X019839Y020703D02*
X017549Y020703D01*
X017549Y020801D02*
X019740Y020801D01*
X019642Y020900D02*
X017549Y020900D01*
X017549Y020998D02*
X019543Y020998D01*
X019445Y021097D02*
X017549Y021097D01*
X017549Y021195D02*
X019346Y021195D01*
X019248Y021294D02*
X017549Y021294D01*
X017549Y021392D02*
X019149Y021392D01*
X019051Y021491D02*
X017549Y021491D01*
X017549Y021589D02*
X018952Y021589D01*
X018854Y021688D02*
X017549Y021688D01*
X017549Y021786D02*
X018755Y021786D01*
X018657Y021885D02*
X017549Y021885D01*
X017549Y021983D02*
X018558Y021983D01*
X018460Y022082D02*
X017549Y022082D01*
X017549Y022180D02*
X018361Y022180D01*
X018291Y022279D02*
X017549Y022279D01*
X017549Y022377D02*
X018291Y022377D01*
X018291Y022476D02*
X017549Y022476D01*
X017549Y022574D02*
X018291Y022574D01*
X018291Y022673D02*
X017549Y022673D01*
X017549Y022771D02*
X018291Y022771D01*
X018291Y022870D02*
X017511Y022870D01*
X017549Y022832D02*
X017444Y022937D01*
X017444Y022937D01*
X015423Y024958D01*
X015423Y024958D01*
X015318Y025063D01*
X015226Y025063D01*
X015187Y025102D01*
X014433Y025102D01*
X014345Y025014D01*
X014345Y023896D01*
X014316Y023909D01*
X014202Y023909D01*
X014097Y023865D01*
X014017Y023785D01*
X013974Y023680D01*
X013974Y023567D01*
X014017Y023462D01*
X014097Y023382D01*
X014202Y023339D01*
X014316Y023339D01*
X014420Y023382D01*
X014428Y023390D01*
X014433Y023385D01*
X015187Y023385D01*
X015275Y023473D01*
X015275Y023770D01*
X016599Y022447D01*
X016599Y021803D01*
X016546Y021855D01*
X016302Y021855D01*
X016223Y021776D01*
X016106Y021659D01*
X016106Y019691D01*
X015633Y019217D01*
X015516Y019100D01*
X015516Y018541D01*
X015594Y018462D01*
X015711Y018345D01*
X015956Y018345D01*
X016035Y018424D01*
X016152Y018541D01*
X016152Y018856D01*
X016205Y018909D01*
X016205Y018099D01*
X016183Y018076D01*
X016139Y017972D01*
X016139Y017858D01*
X016183Y017754D01*
X016263Y017673D01*
X016368Y017630D01*
X016481Y017630D01*
X016586Y017673D01*
X016666Y017754D01*
X016709Y017858D01*
X016709Y017945D01*
X016717Y017945D01*
X016822Y017988D01*
X016902Y018068D01*
X016945Y018173D01*
X016945Y018260D01*
X016953Y018260D01*
X017058Y018303D01*
X017138Y018383D01*
X017182Y018488D01*
X017182Y018575D01*
X017190Y018575D01*
X017294Y018618D01*
X017374Y018698D01*
X017418Y018803D01*
X017418Y018917D01*
X017391Y018981D01*
X017444Y019034D01*
X017549Y019140D01*
X017549Y022832D01*
X017413Y022968D02*
X018291Y022968D01*
X018291Y023067D02*
X017314Y023067D01*
X017216Y023165D02*
X018291Y023165D01*
X018291Y023264D02*
X017117Y023264D01*
X017019Y023362D02*
X018291Y023362D01*
X018291Y023461D02*
X016920Y023461D01*
X016822Y023559D02*
X018291Y023559D01*
X018291Y023658D02*
X016723Y023658D01*
X016625Y023756D02*
X018054Y023756D01*
X017978Y023855D02*
X016526Y023855D01*
X016428Y023953D02*
X017950Y023953D01*
X017957Y024052D02*
X016329Y024052D01*
X016231Y024150D02*
X018005Y024150D01*
X018144Y024249D02*
X016132Y024249D01*
X016034Y024347D02*
X019138Y024347D01*
X019138Y024399D02*
X019138Y024187D01*
X019220Y023991D01*
X019370Y023840D01*
X019566Y023759D01*
X019778Y023759D01*
X019975Y023840D01*
X020125Y023991D01*
X020206Y024187D01*
X020206Y024399D01*
X020125Y024595D01*
X019975Y024745D01*
X019778Y024827D01*
X019566Y024827D01*
X019370Y024745D01*
X019220Y024595D01*
X019138Y024399D01*
X019158Y024446D02*
X015935Y024446D01*
X015837Y024544D02*
X019199Y024544D01*
X019267Y024643D02*
X016390Y024643D01*
X016389Y024642D02*
X016469Y024722D01*
X016512Y024827D01*
X016512Y024886D01*
X016743Y025117D01*
X020090Y025117D01*
X020207Y025234D01*
X021077Y025234D01*
X021077Y025303D02*
X021077Y024994D01*
X020348Y024994D01*
X020260Y024906D01*
X020260Y024310D01*
X020309Y024261D01*
X020309Y023894D01*
X020496Y023707D01*
X020602Y023601D01*
X023279Y023601D01*
X023410Y023470D01*
X023410Y023263D01*
X023371Y023279D01*
X023257Y023279D01*
X023153Y023235D01*
X023072Y023155D01*
X023058Y023121D01*
X023044Y023155D01*
X022964Y023235D01*
X022859Y023279D01*
X022772Y023279D01*
X022772Y023326D01*
X022729Y023431D01*
X022649Y023511D01*
X022544Y023554D01*
X022431Y023554D01*
X022326Y023511D01*
X022246Y023431D01*
X022202Y023326D01*
X022202Y023279D01*
X022182Y023279D01*
X022182Y023326D01*
X022138Y023431D01*
X022058Y023511D01*
X021953Y023554D01*
X021840Y023554D01*
X021735Y023511D01*
X021655Y023431D01*
X021612Y023326D01*
X021612Y023279D01*
X021591Y023279D01*
X021591Y023326D01*
X021548Y023431D01*
X021468Y023511D01*
X021363Y023554D01*
X021249Y023554D01*
X021145Y023511D01*
X021064Y023431D01*
X021021Y023326D01*
X021021Y023279D01*
X021001Y023279D01*
X021001Y023326D01*
X020957Y023431D01*
X020877Y023511D01*
X020772Y023554D01*
X020659Y023554D01*
X020554Y023511D01*
X020474Y023431D01*
X020431Y023326D01*
X020431Y023213D01*
X020474Y023108D01*
X020536Y023046D01*
X020536Y022644D01*
X020536Y022643D01*
X020516Y022623D01*
X020516Y022026D01*
X020521Y022021D01*
X020513Y022013D01*
X020470Y021909D01*
X020470Y021795D01*
X020513Y021691D01*
X020593Y021610D01*
X020698Y021567D01*
X020706Y021567D01*
X020706Y021480D01*
X020750Y021376D01*
X020830Y021295D01*
X020934Y021252D01*
X021048Y021252D01*
X021153Y021295D01*
X021233Y021376D01*
X021247Y021410D01*
X021261Y021376D01*
X021342Y021295D01*
X021446Y021252D01*
X021499Y021252D01*
X021494Y021239D01*
X021494Y021126D01*
X021537Y021021D01*
X021617Y020941D01*
X021722Y020898D01*
X021835Y020898D01*
X021940Y020941D01*
X022020Y021021D01*
X022064Y021126D01*
X022064Y021239D01*
X022020Y021344D01*
X022018Y021346D01*
X022018Y021367D01*
X022090Y021295D01*
X022194Y021252D01*
X022308Y021252D01*
X022412Y021295D01*
X022493Y021376D01*
X022507Y021410D01*
X022521Y021376D01*
X022601Y021295D01*
X022706Y021252D01*
X022759Y021252D01*
X022753Y021239D01*
X022753Y021126D01*
X022797Y021021D01*
X022877Y020941D01*
X022982Y020898D01*
X023095Y020898D01*
X023200Y020941D01*
X023280Y021021D01*
X023323Y021126D01*
X023323Y021239D01*
X023280Y021344D01*
X023241Y021383D01*
X023247Y021745D01*
X023269Y021691D01*
X023349Y021610D01*
X023454Y021567D01*
X023501Y021567D01*
X023501Y021480D01*
X023545Y021376D01*
X023625Y021295D01*
X023730Y021252D01*
X023843Y021252D01*
X023948Y021295D01*
X024028Y021376D01*
X024062Y021458D01*
X024096Y021376D01*
X024176Y021295D01*
X024281Y021252D01*
X024394Y021252D01*
X024499Y021295D01*
X024579Y021376D01*
X024623Y021480D01*
X024623Y021567D01*
X024670Y021567D01*
X024775Y021610D01*
X024855Y021691D01*
X024898Y021795D01*
X024898Y021909D01*
X024855Y022013D01*
X024793Y022075D01*
X024793Y022123D01*
X024399Y022517D01*
X024399Y023628D01*
X024714Y023943D01*
X024714Y025155D01*
X024609Y025260D01*
X023703Y026166D01*
X021940Y026166D01*
X021835Y026060D01*
X021077Y025303D01*
X021107Y025332D02*
X020305Y025332D01*
X020207Y025234D02*
X020477Y025504D01*
X020536Y025504D01*
X020641Y025547D01*
X020721Y025628D01*
X021402Y025628D01*
X021501Y025726D02*
X020762Y025726D01*
X020764Y025732D02*
X020764Y025846D01*
X020721Y025950D01*
X020641Y026031D01*
X020536Y026074D01*
X020423Y026074D01*
X020318Y026031D01*
X020238Y025950D01*
X020194Y025846D01*
X020194Y025787D01*
X019924Y025517D01*
X017352Y025517D01*
X017352Y025999D01*
X017414Y026061D01*
X017457Y026165D01*
X017457Y026279D01*
X017414Y026383D01*
X017334Y026464D01*
X017229Y026507D01*
X017116Y026507D01*
X017011Y026464D01*
X016931Y026383D01*
X016887Y026279D01*
X016887Y026165D01*
X016931Y026061D01*
X016992Y025999D01*
X016992Y025517D01*
X016578Y025517D01*
X016230Y025168D01*
X016171Y025168D01*
X016066Y025125D01*
X015986Y025045D01*
X015942Y024940D01*
X015942Y024827D01*
X015986Y024722D01*
X016066Y024642D01*
X016171Y024598D01*
X016284Y024598D01*
X016389Y024642D01*
X016477Y024741D02*
X019366Y024741D01*
X019138Y024249D02*
X018326Y024249D01*
X018466Y024150D02*
X019153Y024150D01*
X019194Y024052D02*
X018879Y024052D01*
X018961Y023953D02*
X019257Y023953D01*
X019355Y023855D02*
X018993Y023855D01*
X018990Y023756D02*
X020446Y023756D01*
X020348Y023855D02*
X019989Y023855D01*
X020088Y023953D02*
X020309Y023953D01*
X020309Y024052D02*
X020150Y024052D01*
X020191Y024150D02*
X020309Y024150D01*
X020309Y024249D02*
X020206Y024249D01*
X020206Y024347D02*
X020260Y024347D01*
X020260Y024446D02*
X020187Y024446D01*
X020146Y024544D02*
X020260Y024544D01*
X020260Y024643D02*
X020077Y024643D01*
X019979Y024741D02*
X020260Y024741D01*
X020260Y024840D02*
X016512Y024840D01*
X016565Y024938D02*
X020293Y024938D01*
X020108Y025135D02*
X021077Y025135D01*
X021077Y025037D02*
X016664Y025037D01*
X016660Y025317D02*
X016227Y024883D01*
X015978Y024741D02*
X015640Y024741D01*
X015738Y024643D02*
X016065Y024643D01*
X015942Y024840D02*
X015541Y024840D01*
X015443Y024938D02*
X015942Y024938D01*
X015982Y025037D02*
X015344Y025037D01*
X016091Y025135D02*
X013376Y025135D01*
X013376Y025037D02*
X014367Y025037D01*
X014345Y024938D02*
X013376Y024938D01*
X013376Y024840D02*
X014345Y024840D01*
X014345Y024741D02*
X013376Y024741D01*
X013376Y024643D02*
X014345Y024643D01*
X014345Y024544D02*
X013376Y024544D01*
X013376Y024446D02*
X014345Y024446D01*
X014345Y024347D02*
X013376Y024347D01*
X013376Y024249D02*
X014345Y024249D01*
X014345Y024150D02*
X013376Y024150D01*
X013376Y024052D02*
X014345Y024052D01*
X014345Y023953D02*
X013376Y023953D01*
X013376Y023855D02*
X014087Y023855D01*
X014005Y023756D02*
X013376Y023756D01*
X013376Y023658D02*
X013974Y023658D01*
X013977Y023559D02*
X013376Y023559D01*
X013376Y023461D02*
X014019Y023461D01*
X014145Y023362D02*
X013376Y023362D01*
X013376Y023264D02*
X015781Y023264D01*
X015683Y023362D02*
X014373Y023362D01*
X014279Y023604D02*
X014259Y023624D01*
X014279Y023604D02*
X014810Y023604D01*
X015263Y023461D02*
X015584Y023461D01*
X015486Y023559D02*
X015275Y023559D01*
X015275Y023658D02*
X015387Y023658D01*
X015289Y023756D02*
X015275Y023756D01*
X015880Y023165D02*
X013296Y023165D01*
X013197Y023067D02*
X015978Y023067D01*
X016077Y022968D02*
X013099Y022968D01*
X013000Y022870D02*
X016175Y022870D01*
X016274Y022771D02*
X012902Y022771D01*
X012803Y022673D02*
X016372Y022673D01*
X016471Y022574D02*
X011655Y022574D01*
X011507Y022476D02*
X016569Y022476D01*
X016599Y022377D02*
X011409Y022377D01*
X011310Y022279D02*
X016599Y022279D01*
X016599Y022180D02*
X011212Y022180D01*
X011142Y022082D02*
X016599Y022082D01*
X016599Y021983D02*
X011142Y021983D01*
X011142Y021885D02*
X016599Y021885D01*
X016464Y021655D02*
X016385Y021655D01*
X016306Y021576D01*
X016306Y019608D01*
X015716Y019017D01*
X015716Y018624D01*
X015794Y018545D01*
X015873Y018545D01*
X015952Y018624D01*
X015952Y018939D01*
X016542Y019529D01*
X016542Y021576D01*
X016464Y021655D01*
X016529Y021589D02*
X016319Y021589D01*
X016306Y021491D02*
X016542Y021491D01*
X016542Y021392D02*
X016306Y021392D01*
X016306Y021294D02*
X016542Y021294D01*
X016542Y021195D02*
X016306Y021195D01*
X016306Y021097D02*
X016542Y021097D01*
X016542Y020998D02*
X016306Y020998D01*
X016306Y020900D02*
X016542Y020900D01*
X016542Y020801D02*
X016306Y020801D01*
X016306Y020703D02*
X016542Y020703D01*
X016542Y020604D02*
X016306Y020604D01*
X016306Y020506D02*
X016542Y020506D01*
X016542Y020407D02*
X016306Y020407D01*
X016306Y020309D02*
X016542Y020309D01*
X016542Y020210D02*
X016306Y020210D01*
X016306Y020112D02*
X016542Y020112D01*
X016542Y020013D02*
X016306Y020013D01*
X016306Y019915D02*
X016542Y019915D01*
X016542Y019816D02*
X016306Y019816D01*
X016306Y019718D02*
X016542Y019718D01*
X016542Y019619D02*
X016306Y019619D01*
X016219Y019521D02*
X016534Y019521D01*
X016435Y019422D02*
X016121Y019422D01*
X016022Y019324D02*
X016337Y019324D01*
X016238Y019225D02*
X015924Y019225D01*
X015825Y019127D02*
X016140Y019127D01*
X016041Y019028D02*
X015727Y019028D01*
X015716Y018930D02*
X015952Y018930D01*
X015952Y018831D02*
X015716Y018831D01*
X015716Y018733D02*
X015952Y018733D01*
X015952Y018634D02*
X015716Y018634D01*
X015516Y018634D02*
X012727Y018634D01*
X012727Y018541D02*
X012727Y021069D01*
X012609Y021186D01*
X011940Y021855D01*
X011774Y021855D01*
X011696Y021855D01*
X011617Y021776D01*
X011500Y021659D01*
X011500Y021415D01*
X011617Y021298D01*
X012090Y020824D01*
X012090Y018541D01*
X012208Y018424D01*
X012286Y018345D01*
X012531Y018345D01*
X012648Y018462D01*
X012727Y018541D01*
X012722Y018536D02*
X015521Y018536D01*
X015619Y018437D02*
X012623Y018437D01*
X012448Y018545D02*
X012527Y018624D01*
X012527Y020986D01*
X011857Y021655D01*
X011779Y021655D01*
X011700Y021576D01*
X011700Y021498D01*
X012290Y020907D01*
X012290Y018624D01*
X012369Y018545D01*
X012448Y018545D01*
X012527Y018634D02*
X012290Y018634D01*
X012290Y018733D02*
X012527Y018733D01*
X012527Y018831D02*
X012290Y018831D01*
X012290Y018930D02*
X012527Y018930D01*
X012527Y019028D02*
X012290Y019028D01*
X012290Y019127D02*
X012527Y019127D01*
X012527Y019225D02*
X012290Y019225D01*
X012290Y019324D02*
X012527Y019324D01*
X012527Y019422D02*
X012290Y019422D01*
X012290Y019521D02*
X012527Y019521D01*
X012527Y019619D02*
X012290Y019619D01*
X012290Y019718D02*
X012527Y019718D01*
X012527Y019816D02*
X012290Y019816D01*
X012290Y019915D02*
X012527Y019915D01*
X012527Y020013D02*
X012290Y020013D01*
X012290Y020112D02*
X012527Y020112D01*
X012527Y020210D02*
X012290Y020210D01*
X012290Y020309D02*
X012527Y020309D01*
X012527Y020407D02*
X012290Y020407D01*
X012290Y020506D02*
X012527Y020506D01*
X012527Y020604D02*
X012290Y020604D01*
X012290Y020703D02*
X012527Y020703D01*
X012527Y020801D02*
X012290Y020801D01*
X012290Y020900D02*
X012527Y020900D01*
X012514Y020998D02*
X012199Y020998D01*
X012101Y021097D02*
X012416Y021097D01*
X012317Y021195D02*
X012002Y021195D01*
X011904Y021294D02*
X012219Y021294D01*
X012120Y021392D02*
X011805Y021392D01*
X011707Y021491D02*
X012022Y021491D01*
X011923Y021589D02*
X011713Y021589D01*
X011528Y021688D02*
X011142Y021688D01*
X011142Y021786D02*
X011627Y021786D01*
X011617Y021776D02*
X011617Y021776D01*
X011500Y021589D02*
X011142Y021589D01*
X011142Y021491D02*
X011500Y021491D01*
X011522Y021392D02*
X011142Y021392D01*
X011142Y021294D02*
X011621Y021294D01*
X011719Y021195D02*
X011142Y021195D01*
X011142Y021097D02*
X011818Y021097D01*
X011916Y020998D02*
X011183Y020998D01*
X011197Y020900D02*
X012015Y020900D01*
X012090Y020801D02*
X011177Y020801D01*
X011111Y020703D02*
X012090Y020703D01*
X012090Y020604D02*
X009518Y020604D01*
X009518Y020506D02*
X012090Y020506D01*
X012090Y020407D02*
X009518Y020407D01*
X009518Y020309D02*
X012090Y020309D01*
X012090Y020210D02*
X009518Y020210D01*
X009518Y020112D02*
X012090Y020112D01*
X012090Y020013D02*
X009518Y020013D01*
X009518Y019915D02*
X012090Y019915D01*
X012090Y019816D02*
X011501Y019816D01*
X011569Y019718D02*
X012090Y019718D01*
X012090Y019619D02*
X011591Y019619D01*
X011579Y019521D02*
X012090Y019521D01*
X012090Y019422D02*
X011536Y019422D01*
X011536Y019324D02*
X012090Y019324D01*
X012090Y019225D02*
X011536Y019225D01*
X011536Y019127D02*
X012090Y019127D01*
X012090Y019028D02*
X011536Y019028D01*
X011536Y018930D02*
X012090Y018930D01*
X012090Y018831D02*
X011536Y018831D01*
X011536Y018733D02*
X012090Y018733D01*
X012090Y018634D02*
X011536Y018634D01*
X011536Y018536D02*
X012095Y018536D01*
X012194Y018437D02*
X011536Y018437D01*
X011536Y018339D02*
X016205Y018339D01*
X016205Y018437D02*
X016048Y018437D01*
X016147Y018536D02*
X016205Y018536D01*
X016205Y018634D02*
X016152Y018634D01*
X016152Y018733D02*
X016205Y018733D01*
X016205Y018831D02*
X016152Y018831D01*
X016205Y018240D02*
X011536Y018240D01*
X011536Y018142D02*
X016205Y018142D01*
X016169Y018043D02*
X011536Y018043D01*
X011076Y018043D02*
X001023Y018043D01*
X001023Y017945D02*
X011076Y017945D01*
X011076Y017846D02*
X001023Y017846D01*
X001023Y017748D02*
X011076Y017748D01*
X011076Y017649D02*
X001023Y017649D01*
X001023Y017551D02*
X011076Y017551D01*
X011076Y017452D02*
X001023Y017452D01*
X001023Y017354D02*
X011076Y017354D01*
X011076Y017255D02*
X001023Y017255D01*
X001023Y017157D02*
X011076Y017157D01*
X011076Y017058D02*
X001023Y017058D01*
X001023Y016960D02*
X011076Y016960D01*
X011076Y016861D02*
X001023Y016861D01*
X001023Y016763D02*
X011076Y016763D01*
X011076Y016664D02*
X001023Y016664D01*
X001023Y016566D02*
X011076Y016566D01*
X011076Y016467D02*
X001023Y016467D01*
X001023Y016369D02*
X011076Y016369D01*
X011076Y016270D02*
X001023Y016270D01*
X001023Y016172D02*
X011076Y016172D01*
X011076Y016073D02*
X001023Y016073D01*
X001023Y015975D02*
X011076Y015975D01*
X011076Y015876D02*
X001023Y015876D01*
X001023Y015778D02*
X011076Y015778D01*
X011076Y015679D02*
X001023Y015679D01*
X001023Y015581D02*
X011076Y015581D01*
X011130Y015482D02*
X001023Y015482D01*
X001023Y015384D02*
X011229Y015384D01*
X011327Y015285D02*
X001023Y015285D01*
X001023Y015187D02*
X011426Y015187D01*
X011524Y015088D02*
X001023Y015088D01*
X001023Y014990D02*
X011623Y014990D01*
X011721Y014891D02*
X001023Y014891D01*
X001023Y014793D02*
X011820Y014793D01*
X011918Y014694D02*
X001023Y014694D01*
X001023Y014596D02*
X012017Y014596D01*
X012115Y014497D02*
X001023Y014497D01*
X001023Y014399D02*
X012177Y014399D01*
X012234Y014300D02*
X001023Y014300D01*
X003662Y010754D02*
X004391Y010754D01*
X004232Y010656D02*
X003821Y010656D01*
X003898Y010557D02*
X004155Y010557D01*
X004115Y010459D02*
X003939Y010459D01*
X003947Y010360D02*
X004107Y010360D01*
X004111Y010262D02*
X003942Y010262D01*
X003901Y010163D02*
X004152Y010163D01*
X004224Y010065D02*
X003829Y010065D01*
X004829Y010065D02*
X006115Y010065D01*
X006213Y010163D02*
X004901Y010163D01*
X004942Y010262D02*
X006312Y010262D01*
X006410Y010360D02*
X004947Y010360D01*
X004939Y010459D02*
X006509Y010459D01*
X006607Y010557D02*
X004898Y010557D01*
X004821Y010656D02*
X006706Y010656D01*
X006804Y010754D02*
X004662Y010754D01*
X004852Y009572D02*
X005240Y009572D01*
X005155Y009474D02*
X004937Y009474D01*
X004978Y009375D02*
X005114Y009375D01*
X005096Y009277D02*
X004996Y009277D01*
X004996Y009178D02*
X005096Y009178D01*
X005126Y009080D02*
X004966Y009080D01*
X004922Y008981D02*
X005170Y008981D01*
X005269Y008883D02*
X004824Y008883D01*
X006824Y008883D02*
X006874Y008883D01*
X007234Y008883D02*
X007269Y008883D01*
X008972Y008390D02*
X012121Y008390D01*
X012096Y008292D02*
X008996Y008292D01*
X008996Y008193D02*
X012096Y008193D01*
X012120Y008095D02*
X008972Y008095D01*
X008932Y007996D02*
X012161Y007996D01*
X012254Y007898D02*
X008839Y007898D01*
X009048Y008489D02*
X012162Y008489D01*
X012255Y008587D02*
X009146Y008587D01*
X009242Y008686D02*
X012442Y008686D01*
X012457Y008792D02*
X012636Y008792D01*
X012801Y008860D01*
X012928Y008987D01*
X012996Y009152D01*
X012996Y009331D01*
X012928Y009497D01*
X012801Y009623D01*
X012636Y009692D01*
X012457Y009692D01*
X012291Y009623D01*
X012165Y009497D01*
X012096Y009331D01*
X012096Y009152D01*
X012165Y008987D01*
X012291Y008860D01*
X012457Y008792D01*
X012269Y008883D02*
X009242Y008883D01*
X009242Y008981D02*
X012170Y008981D01*
X012126Y009080D02*
X009242Y009080D01*
X009242Y009178D02*
X012096Y009178D01*
X012096Y009277D02*
X009242Y009277D01*
X009242Y009375D02*
X012114Y009375D01*
X012155Y009474D02*
X009242Y009474D01*
X009242Y009572D02*
X012240Y009572D01*
X012406Y009671D02*
X009242Y009671D01*
X009242Y009769D02*
X021047Y009769D01*
X020997Y009868D02*
X009242Y009868D01*
X009242Y009966D02*
X012370Y009966D01*
X012443Y009936D02*
X012610Y009936D01*
X012764Y010000D01*
X012883Y010118D01*
X012947Y010272D01*
X012947Y010439D01*
X012883Y010594D01*
X012764Y010712D01*
X012610Y010776D01*
X012443Y010776D01*
X012289Y010712D01*
X012171Y010594D01*
X012107Y010439D01*
X012107Y010272D01*
X012171Y010118D01*
X012289Y010000D01*
X012443Y009936D01*
X012683Y009966D02*
X013370Y009966D01*
X013443Y009936D02*
X013610Y009936D01*
X013764Y010000D01*
X013883Y010118D01*
X013947Y010272D01*
X013947Y010439D01*
X013883Y010594D01*
X013764Y010712D01*
X013610Y010776D01*
X013443Y010776D01*
X013289Y010712D01*
X013171Y010594D01*
X013107Y010439D01*
X013107Y010272D01*
X013171Y010118D01*
X013289Y010000D01*
X013443Y009936D01*
X013683Y009966D02*
X020950Y009966D01*
X020942Y010065D02*
X013829Y010065D01*
X013901Y010163D02*
X020970Y010163D01*
X021045Y010262D02*
X013942Y010262D01*
X013947Y010360D02*
X021218Y010360D01*
X021237Y010459D02*
X013939Y010459D01*
X013898Y010557D02*
X021301Y010557D01*
X021705Y010557D02*
X021852Y010557D01*
X021788Y010459D02*
X021769Y010459D01*
X022256Y010557D02*
X022911Y010557D01*
X022871Y010656D02*
X013821Y010656D01*
X013901Y010705D02*
X014005Y010661D01*
X014119Y010661D01*
X014223Y010705D01*
X014304Y010785D01*
X014347Y010890D01*
X014347Y011003D01*
X014304Y011108D01*
X014292Y011120D01*
X014292Y012269D01*
X014304Y012281D01*
X014347Y012386D01*
X014347Y012499D01*
X014304Y012604D01*
X014223Y012684D01*
X014119Y012728D01*
X014005Y012728D01*
X013901Y012684D01*
X013820Y012604D01*
X013777Y012499D01*
X013777Y012386D01*
X013820Y012281D01*
X013832Y012269D01*
X013832Y011120D01*
X013820Y011108D01*
X013777Y011003D01*
X013777Y010890D01*
X013820Y010785D01*
X013901Y010705D01*
X013851Y010754D02*
X013662Y010754D01*
X013792Y010853D02*
X009341Y010853D01*
X009242Y010754D02*
X012391Y010754D01*
X012232Y010656D02*
X009242Y010656D01*
X009242Y010557D02*
X012155Y010557D01*
X012115Y010459D02*
X009242Y010459D01*
X009242Y010360D02*
X012107Y010360D01*
X012111Y010262D02*
X009242Y010262D01*
X009242Y010163D02*
X012152Y010163D01*
X012224Y010065D02*
X009242Y010065D01*
X009242Y008784D02*
X021362Y008784D01*
X021362Y008686D02*
X017650Y008686D01*
X017442Y008686D02*
X016650Y008686D01*
X016636Y008792D02*
X016801Y008860D01*
X016928Y008987D01*
X016996Y009152D01*
X016996Y009331D01*
X016928Y009497D01*
X016801Y009623D01*
X016636Y009692D01*
X016457Y009692D01*
X016291Y009623D01*
X016165Y009497D01*
X016096Y009331D01*
X016096Y009152D01*
X016165Y008987D01*
X016291Y008860D01*
X016457Y008792D01*
X016636Y008792D01*
X016824Y008883D02*
X017096Y008883D01*
X017096Y008880D02*
X017184Y008792D01*
X017908Y008792D01*
X017996Y008880D01*
X017996Y009604D01*
X017908Y009692D01*
X017184Y009692D01*
X017096Y009604D01*
X017096Y008880D01*
X017096Y008981D02*
X016922Y008981D01*
X016966Y009080D02*
X017096Y009080D01*
X017096Y009178D02*
X016996Y009178D01*
X016996Y009277D02*
X017096Y009277D01*
X017096Y009375D02*
X016978Y009375D01*
X016937Y009474D02*
X017096Y009474D01*
X017096Y009572D02*
X016852Y009572D01*
X016686Y009671D02*
X017163Y009671D01*
X016406Y009671D02*
X015686Y009671D01*
X015636Y009692D02*
X015801Y009623D01*
X015928Y009497D01*
X015996Y009331D01*
X015996Y009152D01*
X015928Y008987D01*
X015801Y008860D01*
X015636Y008792D01*
X015457Y008792D01*
X015291Y008860D01*
X015165Y008987D01*
X015096Y009152D01*
X015096Y009331D01*
X015165Y009497D01*
X015291Y009623D01*
X015457Y009692D01*
X015636Y009692D01*
X015406Y009671D02*
X014686Y009671D01*
X014636Y009692D02*
X014457Y009692D01*
X014291Y009623D01*
X014165Y009497D01*
X014096Y009331D01*
X014096Y009152D01*
X014165Y008987D01*
X014291Y008860D01*
X014457Y008792D01*
X014636Y008792D01*
X014801Y008860D01*
X014928Y008987D01*
X014996Y009152D01*
X014996Y009331D01*
X014928Y009497D01*
X014801Y009623D01*
X014636Y009692D01*
X014406Y009671D02*
X013686Y009671D01*
X013636Y009692D02*
X013457Y009692D01*
X013291Y009623D01*
X013165Y009497D01*
X013096Y009331D01*
X013096Y009152D01*
X013165Y008987D01*
X013291Y008860D01*
X013457Y008792D01*
X013636Y008792D01*
X013801Y008860D01*
X013928Y008987D01*
X013996Y009152D01*
X013996Y009331D01*
X013928Y009497D01*
X013801Y009623D01*
X013636Y009692D01*
X013406Y009671D02*
X012686Y009671D01*
X012852Y009572D02*
X013240Y009572D01*
X013155Y009474D02*
X012937Y009474D01*
X012978Y009375D02*
X013114Y009375D01*
X013096Y009277D02*
X012996Y009277D01*
X012996Y009178D02*
X013096Y009178D01*
X013126Y009080D02*
X012966Y009080D01*
X012922Y008981D02*
X013170Y008981D01*
X013269Y008883D02*
X012824Y008883D01*
X012650Y008686D02*
X013442Y008686D01*
X013650Y008686D02*
X014442Y008686D01*
X014650Y008686D02*
X015442Y008686D01*
X015650Y008686D02*
X016442Y008686D01*
X016255Y008587D02*
X015837Y008587D01*
X015931Y008489D02*
X016162Y008489D01*
X016121Y008390D02*
X015972Y008390D01*
X015996Y008292D02*
X016096Y008292D01*
X016096Y008193D02*
X015996Y008193D01*
X015972Y008095D02*
X016120Y008095D01*
X016161Y007996D02*
X015932Y007996D01*
X015839Y007898D02*
X016254Y007898D01*
X016839Y007898D02*
X017254Y007898D01*
X017161Y007996D02*
X016932Y007996D01*
X016972Y008095D02*
X017120Y008095D01*
X017096Y008193D02*
X016996Y008193D01*
X016996Y008292D02*
X017096Y008292D01*
X017121Y008390D02*
X016972Y008390D01*
X016931Y008489D02*
X017162Y008489D01*
X017255Y008587D02*
X016837Y008587D01*
X016269Y008883D02*
X015824Y008883D01*
X015922Y008981D02*
X016170Y008981D01*
X016126Y009080D02*
X015966Y009080D01*
X015996Y009178D02*
X016096Y009178D01*
X016096Y009277D02*
X015996Y009277D01*
X015978Y009375D02*
X016114Y009375D01*
X016155Y009474D02*
X015937Y009474D01*
X015852Y009572D02*
X016240Y009572D01*
X015240Y009572D02*
X014852Y009572D01*
X014937Y009474D02*
X015155Y009474D01*
X015114Y009375D02*
X014978Y009375D01*
X014996Y009277D02*
X015096Y009277D01*
X015096Y009178D02*
X014996Y009178D01*
X014966Y009080D02*
X015126Y009080D01*
X015170Y008981D02*
X014922Y008981D01*
X014824Y008883D02*
X015269Y008883D01*
X015255Y008587D02*
X014837Y008587D01*
X014931Y008489D02*
X015162Y008489D01*
X015121Y008390D02*
X014972Y008390D01*
X014996Y008292D02*
X015096Y008292D01*
X015096Y008193D02*
X014996Y008193D01*
X014972Y008095D02*
X015120Y008095D01*
X015161Y007996D02*
X014932Y007996D01*
X014839Y007898D02*
X015254Y007898D01*
X014254Y007898D02*
X013839Y007898D01*
X013932Y007996D02*
X014161Y007996D01*
X014120Y008095D02*
X013972Y008095D01*
X013996Y008193D02*
X014096Y008193D01*
X014096Y008292D02*
X013996Y008292D01*
X013972Y008390D02*
X014121Y008390D01*
X014162Y008489D02*
X013931Y008489D01*
X013837Y008587D02*
X014255Y008587D01*
X014269Y008883D02*
X013824Y008883D01*
X013922Y008981D02*
X014170Y008981D01*
X014126Y009080D02*
X013966Y009080D01*
X013996Y009178D02*
X014096Y009178D01*
X014096Y009277D02*
X013996Y009277D01*
X013978Y009375D02*
X014114Y009375D01*
X014155Y009474D02*
X013937Y009474D01*
X013852Y009572D02*
X014240Y009572D01*
X013224Y010065D02*
X012829Y010065D01*
X012901Y010163D02*
X013152Y010163D01*
X013111Y010262D02*
X012942Y010262D01*
X012947Y010360D02*
X013107Y010360D01*
X013115Y010459D02*
X012939Y010459D01*
X012898Y010557D02*
X013155Y010557D01*
X013232Y010656D02*
X012821Y010656D01*
X012662Y010754D02*
X013391Y010754D01*
X013777Y010951D02*
X012038Y010951D01*
X012136Y011050D02*
X013796Y011050D01*
X013832Y011148D02*
X012235Y011148D01*
X012333Y011247D02*
X013832Y011247D01*
X013832Y011345D02*
X012432Y011345D01*
X012530Y011444D02*
X013832Y011444D01*
X013832Y011542D02*
X012629Y011542D01*
X012727Y011641D02*
X013832Y011641D01*
X013832Y011739D02*
X012826Y011739D01*
X012924Y011838D02*
X013832Y011838D01*
X013832Y011936D02*
X013023Y011936D01*
X013121Y012035D02*
X013832Y012035D01*
X013832Y012133D02*
X013220Y012133D01*
X013318Y012232D02*
X013832Y012232D01*
X013800Y012330D02*
X013417Y012330D01*
X013515Y012429D02*
X013777Y012429D01*
X013789Y012527D02*
X013614Y012527D01*
X013712Y012626D02*
X013842Y012626D01*
X013811Y012724D02*
X013997Y012724D01*
X014127Y012724D02*
X016881Y012724D01*
X017227Y012724D02*
X018547Y012724D01*
X018547Y012626D02*
X014282Y012626D01*
X014335Y012527D02*
X018547Y012527D01*
X018557Y012429D02*
X017865Y012429D01*
X017845Y012448D02*
X017741Y012491D01*
X017627Y012491D01*
X017523Y012448D01*
X017442Y012368D01*
X017399Y012263D01*
X017399Y012150D01*
X017442Y012045D01*
X017484Y012003D01*
X017484Y011464D01*
X017442Y011423D01*
X017399Y011318D01*
X017399Y011205D01*
X017442Y011100D01*
X017523Y011020D01*
X017627Y010976D01*
X017741Y010976D01*
X017845Y011020D01*
X017926Y011100D01*
X017969Y011205D01*
X017969Y011318D01*
X017926Y011423D01*
X017884Y011464D01*
X017884Y012003D01*
X017926Y012045D01*
X017969Y012150D01*
X017969Y012263D01*
X017926Y012368D01*
X017845Y012448D01*
X017941Y012330D02*
X018655Y012330D01*
X018747Y012527D02*
X020819Y012527D01*
X021006Y012527D02*
X021255Y012527D01*
X021255Y012626D02*
X021144Y012626D01*
X021191Y012724D02*
X021255Y012724D01*
X021249Y012823D02*
X021197Y012823D01*
X021218Y012921D02*
X021169Y012921D01*
X021222Y013020D02*
X021093Y013020D01*
X021264Y013118D02*
X018747Y013118D01*
X018747Y013020D02*
X020333Y013020D01*
X020251Y012921D02*
X018747Y012921D01*
X018747Y012823D02*
X020251Y012823D01*
X020251Y012724D02*
X018747Y012724D01*
X018747Y012626D02*
X020251Y012626D01*
X020558Y012777D02*
X020932Y012777D01*
X020912Y012797D01*
X021503Y012659D02*
X021503Y012954D01*
X021614Y013217D02*
X021688Y013217D01*
X021691Y013315D02*
X018747Y013315D01*
X018747Y013217D02*
X021392Y013217D01*
X021788Y012921D02*
X023193Y012921D01*
X023393Y012718D02*
X023334Y012659D01*
X023078Y012659D01*
X022829Y012626D02*
X021751Y012626D01*
X021751Y012724D02*
X022829Y012724D01*
X022852Y012823D02*
X021757Y012823D01*
X021751Y012527D02*
X022829Y012527D01*
X022444Y013020D02*
X025597Y013020D01*
X025597Y013118D02*
X022513Y013118D01*
X022536Y013217D02*
X025597Y013217D01*
X025597Y013315D02*
X022524Y013315D01*
X022470Y013414D02*
X025162Y013414D01*
X025093Y013512D02*
X022314Y013512D01*
X022188Y013512D02*
X019206Y013512D01*
X019229Y013611D02*
X025093Y013611D01*
X025093Y013709D02*
X019217Y013709D01*
X019163Y013808D02*
X025093Y013808D01*
X025076Y013906D02*
X019114Y013906D01*
X019114Y014005D02*
X025037Y014005D01*
X025037Y014103D02*
X019109Y014103D01*
X018885Y013939D02*
X018885Y013683D01*
X018944Y013624D01*
X019137Y013414D02*
X022032Y013414D01*
X021936Y013171D02*
X022192Y013171D01*
X022251Y013230D01*
X023593Y012921D02*
X024335Y012921D01*
X024534Y012718D02*
X024475Y012659D01*
X024219Y012659D01*
X023971Y012626D02*
X023663Y012626D01*
X023678Y012724D02*
X023971Y012724D01*
X023994Y012823D02*
X023658Y012823D01*
X023605Y012527D02*
X023971Y012527D01*
X024747Y012527D02*
X025597Y012527D01*
X025597Y012626D02*
X024805Y012626D01*
X024819Y012724D02*
X025597Y012724D01*
X025597Y012823D02*
X024800Y012823D01*
X024734Y012921D02*
X025597Y012921D01*
X025797Y012921D02*
X030431Y012921D01*
X030431Y012932D02*
X030431Y012873D01*
X030417Y012860D01*
X030417Y012711D01*
X030388Y012682D01*
X030388Y012361D01*
X030476Y012273D01*
X030758Y012273D01*
X030846Y012361D01*
X030846Y012621D01*
X030877Y012634D01*
X030957Y012714D01*
X031001Y012819D01*
X031001Y012932D01*
X030957Y013037D01*
X030877Y013117D01*
X030772Y013161D01*
X030659Y013161D01*
X030554Y013117D01*
X030474Y013037D01*
X030431Y012932D01*
X030467Y013020D02*
X025797Y013020D01*
X025797Y013118D02*
X030557Y013118D01*
X030716Y012876D02*
X030617Y012777D01*
X030617Y012521D01*
X030388Y012527D02*
X027379Y012527D01*
X027379Y012539D02*
X027335Y012643D01*
X027255Y012724D01*
X027150Y012767D01*
X027037Y012767D01*
X026932Y012724D01*
X026852Y012643D01*
X026809Y012539D01*
X026809Y012425D01*
X026852Y012320D01*
X026914Y012259D01*
X026914Y009612D01*
X028068Y008457D01*
X028068Y008370D01*
X028112Y008265D01*
X028192Y008185D01*
X028297Y008142D01*
X028410Y008142D01*
X028515Y008185D01*
X028595Y008265D01*
X028638Y008370D01*
X028638Y008483D01*
X028595Y008588D01*
X028515Y008668D01*
X028410Y008712D01*
X028323Y008712D01*
X027274Y009761D01*
X027274Y012259D01*
X027335Y012320D01*
X027379Y012425D01*
X027379Y012539D01*
X027342Y012626D02*
X030388Y012626D01*
X030417Y012724D02*
X027253Y012724D01*
X026934Y012724D02*
X025797Y012724D01*
X025797Y012626D02*
X026845Y012626D01*
X026809Y012527D02*
X025797Y012527D01*
X025788Y012429D02*
X026809Y012429D01*
X026848Y012330D02*
X025689Y012330D01*
X025797Y012823D02*
X030417Y012823D01*
X030857Y012626D02*
X033400Y012626D01*
X033400Y012724D02*
X030961Y012724D01*
X031001Y012823D02*
X033400Y012823D01*
X033400Y012921D02*
X031001Y012921D01*
X030964Y013020D02*
X033400Y013020D01*
X033400Y013118D02*
X030874Y013118D01*
X030704Y013661D02*
X030491Y013661D01*
X030295Y013742D01*
X030145Y013892D01*
X030064Y014088D01*
X030064Y014301D01*
X030145Y014497D01*
X030295Y014647D01*
X030491Y014728D01*
X030704Y014728D01*
X030900Y014647D01*
X031050Y014497D01*
X031131Y014301D01*
X031131Y014088D01*
X031050Y013892D01*
X030900Y013742D01*
X030704Y013661D01*
X030821Y013709D02*
X032072Y013709D01*
X032094Y013656D02*
X032244Y013506D01*
X032440Y013424D01*
X032652Y013424D01*
X032849Y013506D01*
X032999Y013656D01*
X033080Y013852D01*
X033080Y014064D01*
X032999Y014261D01*
X032849Y014411D01*
X032652Y014492D01*
X032440Y014492D01*
X032244Y014411D01*
X032094Y014261D01*
X032012Y014064D01*
X032012Y013852D01*
X032094Y013656D01*
X032139Y013611D02*
X025797Y013611D01*
X025797Y013709D02*
X030374Y013709D01*
X030229Y013808D02*
X025797Y013808D01*
X025797Y013906D02*
X030139Y013906D01*
X030098Y014005D02*
X025797Y014005D01*
X025797Y014103D02*
X030064Y014103D01*
X030064Y014202D02*
X025797Y014202D01*
X025797Y014300D02*
X030064Y014300D01*
X030104Y014399D02*
X028350Y014399D01*
X028380Y014428D02*
X028467Y014428D01*
X028573Y014533D01*
X028782Y014743D01*
X031341Y014743D01*
X031447Y014848D01*
X032470Y015872D01*
X032470Y017596D01*
X032365Y017701D01*
X031568Y018499D01*
X031299Y018499D01*
X031299Y019227D01*
X031211Y019315D01*
X030614Y019315D01*
X030565Y019266D01*
X030198Y019266D01*
X030011Y019079D01*
X029906Y018974D01*
X029906Y015864D01*
X029775Y015733D01*
X029251Y015733D01*
X029264Y015746D01*
X029308Y015850D01*
X029308Y015964D01*
X029264Y016069D01*
X029184Y016149D01*
X029079Y016192D01*
X029015Y016192D01*
X029015Y016593D01*
X029075Y016593D01*
X029137Y016532D01*
X029242Y016488D01*
X029355Y016488D01*
X029460Y016532D01*
X029540Y016612D01*
X029583Y016717D01*
X029583Y016803D01*
X029631Y016803D01*
X029735Y016847D01*
X029815Y016927D01*
X029859Y017031D01*
X029859Y017145D01*
X029815Y017250D01*
X029735Y017330D01*
X029631Y017373D01*
X029583Y017373D01*
X029583Y017394D01*
X029631Y017394D01*
X029735Y017437D01*
X029815Y017517D01*
X029859Y017622D01*
X029859Y017735D01*
X029815Y017840D01*
X029735Y017920D01*
X029631Y017964D01*
X029583Y017964D01*
X029583Y017984D01*
X029631Y017984D01*
X029735Y018028D01*
X029815Y018108D01*
X029859Y018213D01*
X029859Y018326D01*
X029815Y018431D01*
X029735Y018511D01*
X029631Y018554D01*
X029583Y018554D01*
X029583Y018575D01*
X029631Y018575D01*
X029735Y018618D01*
X029815Y018698D01*
X029859Y018803D01*
X029859Y018917D01*
X029815Y019021D01*
X029735Y019101D01*
X029631Y019145D01*
X029517Y019145D01*
X029412Y019101D01*
X029351Y019040D01*
X028948Y019040D01*
X028947Y019039D01*
X028927Y019059D01*
X028331Y019059D01*
X028326Y019054D01*
X028318Y019062D01*
X028213Y019105D01*
X028100Y019105D01*
X027995Y019062D01*
X027915Y018982D01*
X027871Y018877D01*
X027871Y018869D01*
X027785Y018869D01*
X027680Y018826D01*
X027600Y018746D01*
X027557Y018641D01*
X027557Y018528D01*
X027600Y018423D01*
X027680Y018343D01*
X027715Y018328D01*
X027680Y018314D01*
X027600Y018234D01*
X027557Y018129D01*
X027557Y018016D01*
X027581Y017957D01*
X027562Y017957D01*
X027365Y017761D01*
X027248Y017643D01*
X027248Y016701D01*
X027246Y016698D01*
X027202Y016594D01*
X027202Y016480D01*
X027246Y016376D01*
X027326Y016295D01*
X027431Y016252D01*
X027544Y016252D01*
X027649Y016295D01*
X027729Y016376D01*
X027772Y016480D01*
X027772Y016533D01*
X027785Y016528D01*
X027871Y016528D01*
X027871Y016480D01*
X027915Y016376D01*
X027995Y016295D01*
X028100Y016252D01*
X028213Y016252D01*
X028243Y016264D01*
X028243Y016130D01*
X028331Y016043D01*
X028633Y016043D01*
X028738Y015938D01*
X028738Y015850D01*
X028781Y015746D01*
X028794Y015733D01*
X028441Y015733D01*
X028441Y015767D01*
X028398Y015872D01*
X028318Y015952D01*
X028213Y015995D01*
X028100Y015995D01*
X027995Y015952D01*
X027915Y015872D01*
X027871Y015767D01*
X027871Y015720D01*
X027785Y015720D01*
X027680Y015676D01*
X027600Y015596D01*
X027557Y015491D01*
X027557Y015378D01*
X027600Y015273D01*
X027680Y015193D01*
X027762Y015159D01*
X027680Y015125D01*
X027600Y015045D01*
X027557Y014940D01*
X027557Y014827D01*
X027600Y014722D01*
X027680Y014642D01*
X027785Y014598D01*
X027871Y014598D01*
X027871Y014551D01*
X027915Y014446D01*
X027995Y014366D01*
X028100Y014323D01*
X028213Y014323D01*
X028318Y014366D01*
X028380Y014428D01*
X028537Y014497D02*
X030145Y014497D01*
X030244Y014596D02*
X028635Y014596D01*
X028734Y014694D02*
X030409Y014694D01*
X030786Y014694D02*
X033400Y014694D01*
X033400Y014596D02*
X030951Y014596D01*
X031050Y014497D02*
X033400Y014497D01*
X033400Y014399D02*
X032861Y014399D01*
X032959Y014300D02*
X033400Y014300D01*
X033400Y014202D02*
X033023Y014202D01*
X033064Y014103D02*
X033400Y014103D01*
X033400Y014005D02*
X033080Y014005D01*
X033080Y013906D02*
X033400Y013906D01*
X033400Y013808D02*
X033062Y013808D01*
X033021Y013709D02*
X033400Y013709D01*
X033400Y013611D02*
X032954Y013611D01*
X032855Y013512D02*
X033400Y013512D01*
X033400Y013414D02*
X025797Y013414D01*
X025797Y013512D02*
X032237Y013512D01*
X032031Y013808D02*
X030966Y013808D01*
X031056Y013906D02*
X032012Y013906D01*
X032012Y014005D02*
X031097Y014005D01*
X031131Y014103D02*
X032028Y014103D01*
X032069Y014202D02*
X031131Y014202D01*
X031131Y014300D02*
X032133Y014300D01*
X032232Y014399D02*
X031091Y014399D01*
X031391Y014793D02*
X033400Y014793D01*
X033400Y014891D02*
X031490Y014891D01*
X031588Y014990D02*
X033400Y014990D01*
X033400Y015088D02*
X031687Y015088D01*
X031785Y015187D02*
X033400Y015187D01*
X033400Y015285D02*
X031884Y015285D01*
X031982Y015384D02*
X033400Y015384D01*
X033400Y015482D02*
X032081Y015482D01*
X032179Y015581D02*
X033400Y015581D01*
X033400Y015679D02*
X032278Y015679D01*
X032376Y015778D02*
X033400Y015778D01*
X033400Y015876D02*
X032470Y015876D01*
X032470Y015975D02*
X033400Y015975D01*
X033400Y016073D02*
X032470Y016073D01*
X032470Y016172D02*
X033400Y016172D01*
X033400Y016270D02*
X032470Y016270D01*
X032470Y016369D02*
X033400Y016369D01*
X033400Y016467D02*
X032470Y016467D01*
X032470Y016566D02*
X033400Y016566D01*
X033400Y016664D02*
X032470Y016664D01*
X032470Y016763D02*
X033400Y016763D01*
X033400Y016861D02*
X032470Y016861D01*
X032470Y016960D02*
X033400Y016960D01*
X033400Y017058D02*
X032470Y017058D01*
X032470Y017157D02*
X033400Y017157D01*
X033400Y017255D02*
X032470Y017255D01*
X032470Y017354D02*
X033400Y017354D01*
X033400Y017452D02*
X032470Y017452D01*
X032470Y017551D02*
X033400Y017551D01*
X033400Y017649D02*
X032417Y017649D01*
X032318Y017748D02*
X033400Y017748D01*
X033400Y017846D02*
X032220Y017846D01*
X032121Y017945D02*
X033400Y017945D01*
X033400Y018043D02*
X032023Y018043D01*
X031924Y018142D02*
X033400Y018142D01*
X033400Y018240D02*
X031826Y018240D01*
X031727Y018339D02*
X033400Y018339D01*
X033400Y018437D02*
X031629Y018437D01*
X031299Y018536D02*
X033400Y018536D01*
X033400Y018634D02*
X031299Y018634D01*
X031299Y018733D02*
X033400Y018733D01*
X033400Y018831D02*
X031299Y018831D01*
X031299Y018930D02*
X033400Y018930D01*
X033400Y019028D02*
X031299Y019028D01*
X031299Y019127D02*
X033400Y019127D01*
X033400Y019225D02*
X031299Y019225D01*
X030970Y019521D02*
X033400Y019521D01*
X033400Y019619D02*
X032686Y019619D01*
X032652Y019606D02*
X032849Y019687D01*
X032999Y019837D01*
X033080Y020033D01*
X033080Y020246D01*
X032999Y020442D01*
X032849Y020592D01*
X032652Y020673D01*
X032440Y020673D01*
X032244Y020592D01*
X032094Y020442D01*
X032012Y020246D01*
X032012Y020033D01*
X032094Y019837D01*
X032244Y019687D01*
X032440Y019606D01*
X032652Y019606D01*
X032407Y019619D02*
X031058Y019619D01*
X031050Y019601D02*
X031131Y019797D01*
X031131Y020009D01*
X031050Y020206D01*
X030900Y020356D01*
X030704Y020437D01*
X030491Y020437D01*
X030295Y020356D01*
X030145Y020206D01*
X030064Y020009D01*
X030064Y019797D01*
X030145Y019601D01*
X030295Y019451D01*
X030491Y019369D01*
X030704Y019369D01*
X030900Y019451D01*
X031050Y019601D01*
X031099Y019718D02*
X032213Y019718D01*
X032114Y019816D02*
X031131Y019816D01*
X031131Y019915D02*
X032061Y019915D01*
X032021Y020013D02*
X031563Y020013D01*
X031546Y019996D02*
X031626Y020076D01*
X031670Y020181D01*
X031670Y020294D01*
X031626Y020399D01*
X031546Y020479D01*
X031442Y020523D01*
X031383Y020523D01*
X026827Y025078D01*
X026827Y025137D01*
X026784Y025242D01*
X026704Y025322D01*
X026599Y025365D01*
X026486Y025365D01*
X026381Y025322D01*
X026301Y025242D01*
X026257Y025137D01*
X026257Y025024D01*
X026301Y024919D01*
X026381Y024839D01*
X026486Y024795D01*
X026544Y024795D01*
X031100Y020240D01*
X031100Y020181D01*
X031143Y020076D01*
X031223Y019996D01*
X031328Y019953D01*
X031442Y019953D01*
X031546Y019996D01*
X031641Y020112D02*
X032012Y020112D01*
X032012Y020210D02*
X031670Y020210D01*
X031664Y020309D02*
X032039Y020309D01*
X032079Y020407D02*
X031618Y020407D01*
X031483Y020506D02*
X032158Y020506D01*
X032274Y020604D02*
X031301Y020604D01*
X031203Y020703D02*
X033400Y020703D01*
X033400Y020801D02*
X031104Y020801D01*
X031006Y020900D02*
X033400Y020900D01*
X033400Y020998D02*
X030907Y020998D01*
X030809Y021097D02*
X033400Y021097D01*
X033400Y021195D02*
X030710Y021195D01*
X030612Y021294D02*
X033400Y021294D01*
X033400Y021392D02*
X030513Y021392D01*
X030415Y021491D02*
X033400Y021491D01*
X033400Y021589D02*
X030316Y021589D01*
X030218Y021688D02*
X033400Y021688D01*
X033400Y021786D02*
X030119Y021786D01*
X030021Y021885D02*
X033400Y021885D01*
X033400Y021983D02*
X029922Y021983D01*
X029824Y022082D02*
X033400Y022082D01*
X033400Y022180D02*
X029725Y022180D01*
X029627Y022279D02*
X033400Y022279D01*
X033400Y022377D02*
X029528Y022377D01*
X029430Y022476D02*
X033400Y022476D01*
X033400Y022574D02*
X029331Y022574D01*
X029233Y022673D02*
X033400Y022673D01*
X033400Y022771D02*
X029134Y022771D01*
X029036Y022870D02*
X033400Y022870D01*
X033400Y022968D02*
X028937Y022968D01*
X028839Y023067D02*
X033400Y023067D01*
X033400Y023165D02*
X028740Y023165D01*
X028642Y023264D02*
X033400Y023264D01*
X033400Y023362D02*
X028543Y023362D01*
X028445Y023461D02*
X033400Y023461D01*
X033400Y023559D02*
X028346Y023559D01*
X028248Y023658D02*
X033400Y023658D01*
X033400Y023756D02*
X028149Y023756D01*
X028051Y023855D02*
X033400Y023855D01*
X033400Y023953D02*
X027952Y023953D01*
X027854Y024052D02*
X033400Y024052D01*
X033400Y024150D02*
X027755Y024150D01*
X027657Y024249D02*
X033400Y024249D01*
X033400Y024347D02*
X027558Y024347D01*
X027460Y024446D02*
X033400Y024446D01*
X033400Y024544D02*
X027361Y024544D01*
X027263Y024643D02*
X033400Y024643D01*
X033400Y024741D02*
X027164Y024741D01*
X027066Y024840D02*
X033400Y024840D01*
X033400Y024938D02*
X026967Y024938D01*
X026869Y025037D02*
X033400Y025037D01*
X033400Y025135D02*
X026827Y025135D01*
X026787Y025234D02*
X033400Y025234D01*
X033400Y025332D02*
X026679Y025332D01*
X026406Y025332D02*
X024537Y025332D01*
X024636Y025234D02*
X026297Y025234D01*
X026257Y025135D02*
X024714Y025135D01*
X024714Y025037D02*
X026257Y025037D01*
X026293Y024938D02*
X024714Y024938D01*
X024714Y024840D02*
X026380Y024840D01*
X026599Y024741D02*
X025688Y024741D01*
X025683Y024745D02*
X025487Y024827D01*
X025275Y024827D01*
X025078Y024745D01*
X024928Y024595D01*
X024847Y024399D01*
X024847Y024187D01*
X024928Y023991D01*
X025078Y023840D01*
X025275Y023759D01*
X025487Y023759D01*
X025683Y023840D01*
X025833Y023991D01*
X025915Y024187D01*
X025915Y024399D01*
X025833Y024595D01*
X025683Y024745D01*
X025786Y024643D02*
X026697Y024643D01*
X026796Y024544D02*
X025855Y024544D01*
X025895Y024446D02*
X026894Y024446D01*
X026993Y024347D02*
X025915Y024347D01*
X025915Y024249D02*
X027091Y024249D01*
X027190Y024150D02*
X025900Y024150D01*
X025859Y024052D02*
X027288Y024052D01*
X027387Y023953D02*
X025796Y023953D01*
X025698Y023855D02*
X027485Y023855D01*
X027584Y023756D02*
X024528Y023756D01*
X024429Y023658D02*
X027682Y023658D01*
X027781Y023559D02*
X024399Y023559D01*
X024399Y023461D02*
X027879Y023461D01*
X027978Y023362D02*
X024399Y023362D01*
X024399Y023264D02*
X028076Y023264D01*
X028175Y023165D02*
X024399Y023165D01*
X024399Y023067D02*
X028273Y023067D01*
X028372Y022968D02*
X024399Y022968D01*
X024399Y022870D02*
X028470Y022870D01*
X028569Y022771D02*
X024399Y022771D01*
X024399Y022673D02*
X028667Y022673D01*
X028766Y022574D02*
X024399Y022574D01*
X024441Y022476D02*
X028864Y022476D01*
X028963Y022377D02*
X024539Y022377D01*
X024638Y022279D02*
X029061Y022279D01*
X029160Y022180D02*
X024736Y022180D01*
X024793Y022082D02*
X029258Y022082D01*
X029357Y021983D02*
X024867Y021983D01*
X024898Y021885D02*
X029455Y021885D01*
X029554Y021786D02*
X024894Y021786D01*
X024852Y021688D02*
X029652Y021688D01*
X029751Y021589D02*
X024724Y021589D01*
X024623Y021491D02*
X029849Y021491D01*
X029948Y021392D02*
X024586Y021392D01*
X024495Y021294D02*
X030046Y021294D01*
X030145Y021195D02*
X023323Y021195D01*
X023311Y021097D02*
X030243Y021097D01*
X030342Y020998D02*
X023257Y020998D01*
X023100Y020900D02*
X030440Y020900D01*
X030539Y020801D02*
X020879Y020801D01*
X020978Y020703D02*
X030637Y020703D01*
X030736Y020604D02*
X021076Y020604D01*
X021175Y020506D02*
X030834Y020506D01*
X030775Y020407D02*
X030933Y020407D01*
X030947Y020309D02*
X031031Y020309D01*
X031045Y020210D02*
X031100Y020210D01*
X031089Y020112D02*
X031129Y020112D01*
X031130Y020013D02*
X031206Y020013D01*
X031385Y020238D02*
X026542Y025080D01*
X025920Y025789D02*
X026070Y025939D01*
X026151Y026136D01*
X026151Y026348D01*
X026070Y026544D01*
X025920Y026694D01*
X025723Y026776D01*
X025511Y026776D01*
X025315Y026694D01*
X025165Y026544D01*
X025083Y026348D01*
X025083Y026136D01*
X025165Y025939D01*
X025315Y025789D01*
X025511Y025708D01*
X025723Y025708D01*
X025920Y025789D01*
X025955Y025825D02*
X031946Y025825D01*
X031929Y025842D02*
X032147Y025624D01*
X032431Y025506D01*
X032740Y025506D01*
X033025Y025624D01*
X033243Y025842D01*
X033361Y026127D01*
X033361Y026435D01*
X033243Y026720D01*
X033025Y026938D01*
X032740Y027056D01*
X032431Y027056D01*
X032147Y026938D01*
X031929Y026720D01*
X031811Y026435D01*
X031811Y026127D01*
X031929Y025842D01*
X031895Y025923D02*
X031255Y025923D01*
X031266Y025928D02*
X031364Y026026D01*
X031417Y026153D01*
X031417Y026291D01*
X031364Y026419D01*
X031266Y026516D01*
X031139Y026569D01*
X031001Y026569D01*
X030873Y026516D01*
X030776Y026419D01*
X030723Y026291D01*
X030723Y026153D01*
X030776Y026026D01*
X030873Y025928D01*
X031001Y025875D01*
X031139Y025875D01*
X031266Y025928D01*
X031360Y026022D02*
X031854Y026022D01*
X031813Y026120D02*
X031403Y026120D01*
X031417Y026219D02*
X031811Y026219D01*
X031811Y026317D02*
X031406Y026317D01*
X031365Y026416D02*
X031811Y026416D01*
X031843Y026514D02*
X031268Y026514D01*
X030872Y026514D02*
X026082Y026514D01*
X026123Y026416D02*
X030775Y026416D01*
X030734Y026317D02*
X026151Y026317D01*
X026151Y026219D02*
X030723Y026219D01*
X030737Y026120D02*
X026145Y026120D01*
X026104Y026022D02*
X030780Y026022D01*
X030885Y025923D02*
X026054Y025923D01*
X025768Y025726D02*
X032044Y025726D01*
X032143Y025628D02*
X024242Y025628D01*
X024340Y025529D02*
X032375Y025529D01*
X032796Y025529D02*
X033400Y025529D01*
X033400Y025431D02*
X024439Y025431D01*
X024143Y025726D02*
X025466Y025726D01*
X025279Y025825D02*
X024045Y025825D01*
X023946Y025923D02*
X025181Y025923D01*
X025130Y026022D02*
X023848Y026022D01*
X023749Y026120D02*
X025090Y026120D01*
X025083Y026219D02*
X019970Y026219D01*
X019970Y026136D02*
X019889Y025939D01*
X019738Y025789D01*
X019542Y025708D01*
X019330Y025708D01*
X019134Y025789D01*
X018983Y025939D01*
X018902Y026136D01*
X018902Y026348D01*
X018983Y026544D01*
X019134Y026694D01*
X019330Y026776D01*
X019542Y026776D01*
X019738Y026694D01*
X019889Y026544D01*
X019970Y026348D01*
X019970Y026136D01*
X019964Y026120D02*
X021895Y026120D01*
X021796Y026022D02*
X020650Y026022D01*
X020732Y025923D02*
X021698Y025923D01*
X021599Y025825D02*
X020764Y025825D01*
X020764Y025732D02*
X020721Y025628D01*
X020597Y025529D02*
X021304Y025529D01*
X021205Y025431D02*
X020404Y025431D01*
X020479Y025789D02*
X020007Y025317D01*
X017172Y025317D01*
X016660Y025317D01*
X016492Y025431D02*
X014264Y025431D01*
X014328Y025529D02*
X016992Y025529D01*
X016992Y025628D02*
X014347Y025628D01*
X014331Y025726D02*
X016992Y025726D01*
X016992Y025825D02*
X014272Y025825D01*
X014062Y025631D02*
X013531Y025631D01*
X013719Y025431D02*
X013860Y025431D01*
X013376Y025332D02*
X016393Y025332D01*
X016295Y025234D02*
X013376Y025234D01*
X013176Y025139D02*
X013176Y023328D01*
X012684Y022836D01*
X011542Y022836D01*
X011289Y022968D02*
X010249Y022968D01*
X010269Y022920D02*
X010205Y023074D01*
X010087Y023192D01*
X009933Y023256D01*
X009766Y023256D01*
X009611Y023192D01*
X009493Y023074D01*
X009429Y022920D01*
X009429Y022753D01*
X009493Y022598D01*
X009611Y022480D01*
X009766Y022416D01*
X009933Y022416D01*
X010087Y022480D01*
X010205Y022598D01*
X010269Y022753D01*
X010269Y022920D01*
X010269Y022870D02*
X011251Y022870D01*
X011152Y022771D02*
X010269Y022771D01*
X010236Y022673D02*
X011054Y022673D01*
X010955Y022574D02*
X010181Y022574D01*
X010077Y022476D02*
X010857Y022476D01*
X010758Y022377D02*
X007559Y022377D01*
X007585Y022388D02*
X007711Y022514D01*
X007780Y022680D01*
X007780Y022859D01*
X007711Y023024D01*
X007585Y023151D01*
X007419Y023219D01*
X007240Y023219D01*
X007075Y023151D01*
X006948Y023024D01*
X006880Y022859D01*
X006880Y022680D01*
X006948Y022514D01*
X007075Y022388D01*
X007240Y022319D01*
X007419Y022319D01*
X007585Y022388D01*
X007673Y022476D02*
X009622Y022476D01*
X009517Y022574D02*
X007736Y022574D01*
X007777Y022673D02*
X009462Y022673D01*
X009429Y022771D02*
X007780Y022771D01*
X007775Y022870D02*
X009429Y022870D01*
X009450Y022968D02*
X007734Y022968D01*
X007669Y023067D02*
X009490Y023067D01*
X009585Y023165D02*
X007550Y023165D01*
X007692Y023319D02*
X007780Y023407D01*
X007780Y024131D01*
X007692Y024219D01*
X006968Y024219D01*
X006880Y024131D01*
X006880Y023407D01*
X006968Y023319D01*
X007692Y023319D01*
X007735Y023362D02*
X012927Y023362D01*
X012976Y023461D02*
X010226Y023461D01*
X010269Y023559D02*
X012976Y023559D01*
X012829Y023264D02*
X006636Y023264D01*
X006636Y023172D02*
X006566Y022908D01*
X006429Y022671D01*
X006235Y022477D01*
X005998Y022340D01*
X005734Y022270D01*
X005461Y022270D01*
X005196Y022340D01*
X004959Y022477D01*
X004766Y022671D01*
X004629Y022908D01*
X004558Y023172D01*
X004558Y023445D01*
X004629Y023710D01*
X004766Y023947D01*
X004959Y024140D01*
X005196Y024277D01*
X005461Y024348D01*
X005734Y024348D01*
X005998Y024277D01*
X006235Y024140D01*
X006429Y023947D01*
X006566Y023710D01*
X006636Y023445D01*
X006636Y023172D01*
X006635Y023165D02*
X007110Y023165D01*
X006991Y023067D02*
X006608Y023067D01*
X006582Y022968D02*
X006925Y022968D01*
X006884Y022870D02*
X006544Y022870D01*
X006487Y022771D02*
X006880Y022771D01*
X006883Y022673D02*
X006430Y022673D01*
X006332Y022574D02*
X006923Y022574D01*
X006987Y022476D02*
X006233Y022476D01*
X006062Y022377D02*
X007100Y022377D01*
X005880Y022066D02*
X003037Y019224D01*
X003021Y019224D01*
X002916Y019180D01*
X002836Y019100D01*
X002793Y018995D01*
X002793Y018882D01*
X002836Y018777D01*
X002916Y018697D01*
X003021Y018654D01*
X003134Y018654D01*
X003239Y018697D01*
X003319Y018777D01*
X003363Y018882D01*
X003363Y018898D01*
X006071Y021606D01*
X009158Y021606D01*
X009158Y019555D01*
X009096Y019494D01*
X009053Y019389D01*
X009053Y019276D01*
X009096Y019171D01*
X009176Y019091D01*
X009281Y019047D01*
X009394Y019047D01*
X009499Y019091D01*
X009579Y019171D01*
X009623Y019276D01*
X009623Y019389D01*
X009579Y019494D01*
X009518Y019555D01*
X009518Y021574D01*
X009611Y021480D01*
X009766Y021416D01*
X009933Y021416D01*
X010087Y021480D01*
X010205Y021598D01*
X010269Y021753D01*
X010269Y021920D01*
X010205Y022074D01*
X010087Y022192D01*
X009933Y022256D01*
X009766Y022256D01*
X009611Y022192D01*
X009493Y022074D01*
X009490Y022066D01*
X005880Y022066D01*
X005797Y021983D02*
X001023Y021983D01*
X001023Y021885D02*
X005699Y021885D01*
X005600Y021786D02*
X001023Y021786D01*
X001023Y021688D02*
X005502Y021688D01*
X005403Y021589D02*
X001023Y021589D01*
X001023Y021491D02*
X005305Y021491D01*
X005206Y021392D02*
X001023Y021392D01*
X001023Y021294D02*
X005108Y021294D01*
X005009Y021195D02*
X001023Y021195D01*
X001023Y021097D02*
X004911Y021097D01*
X004812Y020998D02*
X001023Y020998D01*
X001023Y020900D02*
X004714Y020900D01*
X004615Y020801D02*
X001023Y020801D01*
X001023Y020703D02*
X004517Y020703D01*
X004418Y020604D02*
X001023Y020604D01*
X001023Y020506D02*
X004320Y020506D01*
X004221Y020407D02*
X001023Y020407D01*
X001023Y020309D02*
X004123Y020309D01*
X004024Y020210D02*
X001023Y020210D01*
X001023Y020112D02*
X003926Y020112D01*
X003827Y020013D02*
X001023Y020013D01*
X001023Y019915D02*
X003729Y019915D01*
X003630Y019816D02*
X001023Y019816D01*
X001023Y019718D02*
X003532Y019718D01*
X003433Y019619D02*
X001023Y019619D01*
X001023Y019521D02*
X003335Y019521D01*
X003236Y019422D02*
X001023Y019422D01*
X001023Y019324D02*
X003138Y019324D01*
X003039Y019225D02*
X001023Y019225D01*
X001023Y019127D02*
X002863Y019127D01*
X002806Y019028D02*
X001023Y019028D01*
X001023Y018930D02*
X002793Y018930D01*
X002814Y018831D02*
X001023Y018831D01*
X001023Y018733D02*
X002881Y018733D01*
X003275Y018733D02*
X008186Y018733D01*
X008226Y018693D02*
X008226Y018606D01*
X008269Y018502D01*
X008349Y018421D01*
X008454Y018378D01*
X008568Y018378D01*
X008672Y018421D01*
X008752Y018502D01*
X008796Y018606D01*
X008796Y018720D01*
X008752Y018824D01*
X008672Y018905D01*
X008568Y018948D01*
X008480Y018948D01*
X007707Y019722D01*
X007601Y019827D01*
X006765Y019827D01*
X006704Y019889D01*
X006599Y019932D01*
X006486Y019932D01*
X006381Y019889D01*
X006301Y019809D01*
X006257Y019704D01*
X006257Y019591D01*
X006301Y019486D01*
X006381Y019406D01*
X006486Y019362D01*
X006599Y019362D01*
X006704Y019406D01*
X006765Y019467D01*
X007452Y019467D01*
X008226Y018693D01*
X008226Y018634D02*
X001023Y018634D01*
X001023Y018536D02*
X008255Y018536D01*
X008333Y018437D02*
X001023Y018437D01*
X001023Y018339D02*
X011076Y018339D01*
X011076Y018437D02*
X008688Y018437D01*
X008767Y018536D02*
X011076Y018536D01*
X011076Y018634D02*
X008796Y018634D01*
X008790Y018733D02*
X011076Y018733D01*
X011076Y018831D02*
X008746Y018831D01*
X008611Y018930D02*
X011076Y018930D01*
X011076Y019028D02*
X008400Y019028D01*
X008302Y019127D02*
X009140Y019127D01*
X009073Y019225D02*
X008203Y019225D01*
X008105Y019324D02*
X009053Y019324D01*
X009066Y019422D02*
X008006Y019422D01*
X007908Y019521D02*
X009123Y019521D01*
X009158Y019619D02*
X007809Y019619D01*
X007711Y019718D02*
X009158Y019718D01*
X009158Y019816D02*
X007612Y019816D01*
X007497Y019422D02*
X006720Y019422D01*
X006364Y019422D02*
X003887Y019422D01*
X003788Y019324D02*
X007595Y019324D01*
X007694Y019225D02*
X003690Y019225D01*
X003591Y019127D02*
X007792Y019127D01*
X007891Y019028D02*
X003493Y019028D01*
X003394Y018930D02*
X007989Y018930D01*
X008088Y018831D02*
X003342Y018831D01*
X003985Y019521D02*
X006286Y019521D01*
X006257Y019619D02*
X004084Y019619D01*
X004182Y019718D02*
X006263Y019718D01*
X006308Y019816D02*
X004281Y019816D01*
X004379Y019915D02*
X006443Y019915D01*
X006641Y019915D02*
X009158Y019915D01*
X009158Y020013D02*
X004478Y020013D01*
X004576Y020112D02*
X009158Y020112D01*
X009158Y020210D02*
X004675Y020210D01*
X004773Y020309D02*
X009158Y020309D01*
X009158Y020407D02*
X004872Y020407D01*
X004970Y020506D02*
X009158Y020506D01*
X009158Y020604D02*
X005069Y020604D01*
X005167Y020703D02*
X009158Y020703D01*
X009158Y020801D02*
X005266Y020801D01*
X005364Y020900D02*
X009158Y020900D01*
X009158Y020998D02*
X005463Y020998D01*
X005561Y021097D02*
X009158Y021097D01*
X009158Y021195D02*
X005660Y021195D01*
X005758Y021294D02*
X009158Y021294D01*
X009158Y021392D02*
X005857Y021392D01*
X005955Y021491D02*
X009158Y021491D01*
X009158Y021589D02*
X006054Y021589D01*
X005768Y022279D02*
X010682Y022279D01*
X010682Y022180D02*
X010099Y022180D01*
X010198Y022082D02*
X010682Y022082D01*
X010682Y021983D02*
X010243Y021983D01*
X010269Y021885D02*
X010682Y021885D01*
X010682Y021786D02*
X010269Y021786D01*
X010243Y021688D02*
X010682Y021688D01*
X010682Y021589D02*
X010196Y021589D01*
X010098Y021491D02*
X010682Y021491D01*
X010682Y021392D02*
X009518Y021392D01*
X009518Y021294D02*
X010682Y021294D01*
X010682Y021195D02*
X009518Y021195D01*
X009518Y021097D02*
X010682Y021097D01*
X010642Y020998D02*
X009518Y020998D01*
X009518Y020900D02*
X010627Y020900D01*
X010648Y020801D02*
X009518Y020801D01*
X009518Y020703D02*
X010714Y020703D01*
X011111Y019816D02*
X009518Y019816D01*
X009518Y019718D02*
X011043Y019718D01*
X011021Y019619D02*
X009518Y019619D01*
X009552Y019521D02*
X011034Y019521D01*
X011076Y019422D02*
X009609Y019422D01*
X009623Y019324D02*
X011076Y019324D01*
X011076Y019225D02*
X009602Y019225D01*
X009535Y019127D02*
X011076Y019127D01*
X011076Y018240D02*
X001023Y018240D01*
X001023Y018142D02*
X011076Y018142D01*
X012727Y018733D02*
X015516Y018733D01*
X015516Y018831D02*
X012727Y018831D01*
X012727Y018930D02*
X015516Y018930D01*
X015516Y019028D02*
X012727Y019028D01*
X012727Y019127D02*
X015542Y019127D01*
X015641Y019225D02*
X012727Y019225D01*
X012727Y019324D02*
X015739Y019324D01*
X015838Y019422D02*
X012727Y019422D01*
X012727Y019521D02*
X015936Y019521D01*
X016035Y019619D02*
X012727Y019619D01*
X012727Y019718D02*
X016106Y019718D01*
X016106Y019816D02*
X012727Y019816D01*
X012727Y019915D02*
X016106Y019915D01*
X016106Y020013D02*
X012727Y020013D01*
X012727Y020112D02*
X016106Y020112D01*
X016106Y020210D02*
X012727Y020210D01*
X012727Y020309D02*
X016106Y020309D01*
X016106Y020407D02*
X012727Y020407D01*
X012727Y020506D02*
X016106Y020506D01*
X016106Y020604D02*
X012727Y020604D01*
X012727Y020703D02*
X016106Y020703D01*
X016106Y020801D02*
X012727Y020801D01*
X012727Y020900D02*
X016106Y020900D01*
X016106Y020998D02*
X012727Y020998D01*
X012698Y021097D02*
X016106Y021097D01*
X016106Y021195D02*
X012600Y021195D01*
X012501Y021294D02*
X016106Y021294D01*
X016106Y021392D02*
X012403Y021392D01*
X012304Y021491D02*
X016106Y021491D01*
X016106Y021589D02*
X012206Y021589D01*
X012107Y021688D02*
X016135Y021688D01*
X016233Y021786D02*
X012009Y021786D01*
X011715Y023067D02*
X012632Y023067D01*
X012730Y023165D02*
X010114Y023165D01*
X010209Y023067D02*
X011370Y023067D01*
X012140Y023756D02*
X010269Y023756D01*
X010269Y023658D02*
X012211Y023658D01*
X012140Y023855D02*
X010269Y023855D01*
X010269Y023953D02*
X010407Y023953D01*
X010308Y024052D02*
X010269Y024052D01*
X009429Y024052D02*
X007780Y024052D01*
X007780Y023953D02*
X009429Y023953D01*
X009429Y023855D02*
X007780Y023855D01*
X007780Y023756D02*
X009429Y023756D01*
X009429Y023658D02*
X007780Y023658D01*
X007780Y023559D02*
X009429Y023559D01*
X009473Y023461D02*
X007780Y023461D01*
X007761Y024150D02*
X009429Y024150D01*
X008903Y024249D02*
X006047Y024249D01*
X006218Y024150D02*
X006899Y024150D01*
X006880Y024052D02*
X006324Y024052D01*
X006422Y023953D02*
X006880Y023953D01*
X006880Y023855D02*
X006482Y023855D01*
X006539Y023756D02*
X006880Y023756D01*
X006880Y023658D02*
X006580Y023658D01*
X006606Y023559D02*
X006880Y023559D01*
X006880Y023461D02*
X006632Y023461D01*
X006636Y023362D02*
X006925Y023362D01*
X005736Y024347D02*
X008804Y024347D01*
X008706Y024446D02*
X007985Y024446D01*
X008076Y024544D02*
X008607Y024544D01*
X008509Y024643D02*
X008445Y024643D01*
X008206Y024643D02*
X008167Y024643D01*
X006804Y024446D02*
X001023Y024446D01*
X001023Y024544D02*
X006706Y024544D01*
X006607Y024643D02*
X001023Y024643D01*
X001023Y024741D02*
X006509Y024741D01*
X006410Y024840D02*
X001023Y024840D01*
X001023Y024938D02*
X006312Y024938D01*
X006213Y025037D02*
X001023Y025037D01*
X001023Y025135D02*
X005701Y025135D01*
X005661Y025234D02*
X001023Y025234D01*
X001023Y025332D02*
X005661Y025332D01*
X005661Y025431D02*
X001023Y025431D01*
X001023Y025529D02*
X001627Y025529D01*
X001683Y025506D02*
X001992Y025506D01*
X002277Y025624D01*
X002495Y025842D01*
X002613Y026127D01*
X002613Y026435D01*
X002495Y026720D01*
X002277Y026938D01*
X001992Y027056D01*
X001683Y027056D01*
X001399Y026938D01*
X001181Y026720D01*
X001063Y026435D01*
X001063Y026127D01*
X001181Y025842D01*
X001399Y025624D01*
X001683Y025506D01*
X001395Y025628D02*
X001023Y025628D01*
X001023Y025726D02*
X001296Y025726D01*
X001198Y025825D02*
X001023Y025825D01*
X001023Y025923D02*
X001147Y025923D01*
X001106Y026022D02*
X001023Y026022D01*
X001023Y026120D02*
X001065Y026120D01*
X001063Y026219D02*
X001023Y026219D01*
X001023Y026317D02*
X001063Y026317D01*
X001063Y026416D02*
X001023Y026416D01*
X001023Y026514D02*
X001095Y026514D01*
X001136Y026613D02*
X001023Y026613D01*
X001023Y026711D02*
X001177Y026711D01*
X001270Y026810D02*
X001023Y026810D01*
X001023Y026908D02*
X001369Y026908D01*
X001564Y027007D02*
X001023Y027007D01*
X002111Y027007D02*
X006835Y027007D01*
X006738Y026908D02*
X002306Y026908D01*
X002405Y026810D02*
X006639Y026810D01*
X006541Y026711D02*
X002498Y026711D01*
X002539Y026613D02*
X006442Y026613D01*
X006344Y026514D02*
X003552Y026514D01*
X003550Y026516D02*
X003422Y026569D01*
X003284Y026569D01*
X003157Y026516D01*
X003059Y026419D01*
X003006Y026291D01*
X003006Y026153D01*
X003059Y026026D01*
X003157Y025928D01*
X003284Y025875D01*
X003422Y025875D01*
X003550Y025928D01*
X003647Y026026D01*
X003700Y026153D01*
X003700Y026291D01*
X003647Y026419D01*
X003550Y026516D01*
X003649Y026416D02*
X006245Y026416D01*
X006211Y026317D02*
X003689Y026317D01*
X003700Y026219D02*
X006211Y026219D01*
X006211Y026120D02*
X005732Y026120D01*
X005462Y026120D02*
X003687Y026120D01*
X003644Y026022D02*
X005353Y026022D01*
X005312Y025923D02*
X003538Y025923D01*
X003168Y025923D02*
X002528Y025923D01*
X002569Y026022D02*
X003063Y026022D01*
X003020Y026120D02*
X002610Y026120D01*
X002613Y026219D02*
X003006Y026219D01*
X003017Y026317D02*
X002613Y026317D01*
X002613Y026416D02*
X003058Y026416D01*
X003155Y026514D02*
X002580Y026514D01*
X002477Y025825D02*
X005312Y025825D01*
X005348Y025726D02*
X002379Y025726D01*
X002280Y025628D02*
X005434Y025628D01*
X005661Y025529D02*
X002048Y025529D01*
X001023Y024347D02*
X005459Y024347D01*
X005148Y024249D02*
X003423Y024249D01*
X003422Y024249D02*
X003048Y024249D01*
X002702Y024106D01*
X002438Y023841D01*
X002295Y023496D01*
X002295Y023122D01*
X002438Y022776D01*
X002702Y022511D01*
X003048Y022368D01*
X003422Y022368D01*
X003768Y022511D01*
X004033Y022776D01*
X004176Y023122D01*
X004176Y023496D01*
X004033Y023841D01*
X003768Y024106D01*
X003422Y024249D01*
X003661Y024150D02*
X004977Y024150D01*
X004871Y024052D02*
X003822Y024052D01*
X003921Y023953D02*
X004773Y023953D01*
X004713Y023855D02*
X004019Y023855D01*
X004068Y023756D02*
X004656Y023756D01*
X004615Y023658D02*
X004109Y023658D01*
X004149Y023559D02*
X004589Y023559D01*
X004563Y023461D02*
X004176Y023461D01*
X004176Y023362D02*
X004558Y023362D01*
X004558Y023264D02*
X004176Y023264D01*
X004176Y023165D02*
X004560Y023165D01*
X004587Y023067D02*
X004153Y023067D01*
X004112Y022968D02*
X004613Y022968D01*
X004651Y022870D02*
X004071Y022870D01*
X004028Y022771D02*
X004708Y022771D01*
X004765Y022673D02*
X003930Y022673D01*
X003831Y022574D02*
X004862Y022574D01*
X004962Y022476D02*
X003682Y022476D01*
X003444Y022377D02*
X005133Y022377D01*
X005427Y022279D02*
X001023Y022279D01*
X001023Y022377D02*
X003026Y022377D01*
X002788Y022476D02*
X001023Y022476D01*
X001023Y022574D02*
X002639Y022574D01*
X002541Y022673D02*
X001023Y022673D01*
X001023Y022771D02*
X002442Y022771D01*
X002399Y022870D02*
X001023Y022870D01*
X001023Y022968D02*
X002358Y022968D01*
X002317Y023067D02*
X001023Y023067D01*
X001023Y023165D02*
X002295Y023165D01*
X002295Y023264D02*
X001023Y023264D01*
X001023Y023362D02*
X002295Y023362D01*
X002295Y023461D02*
X001023Y023461D01*
X001023Y023559D02*
X002321Y023559D01*
X002362Y023658D02*
X001023Y023658D01*
X001023Y023756D02*
X002403Y023756D01*
X002451Y023855D02*
X001023Y023855D01*
X001023Y023953D02*
X002550Y023953D01*
X002648Y024052D02*
X001023Y024052D01*
X001023Y024150D02*
X002809Y024150D01*
X003047Y024249D02*
X001023Y024249D01*
X001023Y022180D02*
X009600Y022180D01*
X009501Y022082D02*
X001023Y022082D01*
X008691Y027007D02*
X032312Y027007D01*
X032117Y026908D02*
X008776Y026908D01*
X008874Y026810D02*
X032018Y026810D01*
X031925Y026711D02*
X025879Y026711D01*
X026001Y026613D02*
X031884Y026613D01*
X032859Y027007D02*
X033400Y027007D01*
X033400Y026908D02*
X033054Y026908D01*
X033153Y026810D02*
X033400Y026810D01*
X033400Y026711D02*
X033246Y026711D01*
X033287Y026613D02*
X033400Y026613D01*
X033400Y026514D02*
X033328Y026514D01*
X033361Y026416D02*
X033400Y026416D01*
X033400Y026317D02*
X033361Y026317D01*
X033361Y026219D02*
X033400Y026219D01*
X033400Y026120D02*
X033358Y026120D01*
X033317Y026022D02*
X033400Y026022D01*
X033400Y025923D02*
X033276Y025923D01*
X033225Y025825D02*
X033400Y025825D01*
X033400Y025726D02*
X033127Y025726D01*
X033028Y025628D02*
X033400Y025628D01*
X033400Y020604D02*
X032819Y020604D01*
X032935Y020506D02*
X033400Y020506D01*
X033400Y020407D02*
X033013Y020407D01*
X033054Y020309D02*
X033400Y020309D01*
X033400Y020210D02*
X033080Y020210D01*
X033080Y020112D02*
X033400Y020112D01*
X033400Y020013D02*
X033072Y020013D01*
X033031Y019915D02*
X033400Y019915D01*
X033400Y019816D02*
X032978Y019816D01*
X032880Y019718D02*
X033400Y019718D01*
X033400Y019422D02*
X030832Y019422D01*
X030363Y019422D02*
X029310Y019422D01*
X029310Y019408D02*
X029223Y019320D01*
X028941Y019320D01*
X028853Y019408D01*
X028853Y019689D01*
X028820Y019722D01*
X028777Y019827D01*
X028777Y019940D01*
X028820Y020045D01*
X028901Y020125D01*
X029005Y020168D01*
X029119Y020168D01*
X029223Y020125D01*
X029304Y020045D01*
X029347Y019940D01*
X029347Y019827D01*
X029308Y019732D01*
X029310Y019729D01*
X029310Y019408D01*
X029310Y019521D02*
X030225Y019521D01*
X030137Y019619D02*
X029310Y019619D01*
X029310Y019718D02*
X030096Y019718D01*
X030064Y019816D02*
X029343Y019816D01*
X029347Y019915D02*
X030064Y019915D01*
X030065Y020013D02*
X029317Y020013D01*
X029237Y020112D02*
X030106Y020112D01*
X030150Y020210D02*
X027362Y020210D01*
X027362Y020261D02*
X027274Y020348D01*
X026953Y020348D01*
X026865Y020261D01*
X026865Y019861D01*
X026852Y019848D01*
X026809Y019743D01*
X026809Y019630D01*
X026852Y019525D01*
X026932Y019445D01*
X027037Y019402D01*
X027150Y019402D01*
X027255Y019445D01*
X027335Y019525D01*
X027379Y019630D01*
X027379Y019743D01*
X027351Y019810D01*
X027362Y019821D01*
X027362Y020261D01*
X027313Y020309D02*
X030248Y020309D01*
X030419Y020407D02*
X024659Y020407D01*
X024757Y020309D02*
X026913Y020309D01*
X026865Y020210D02*
X024856Y020210D01*
X024954Y020112D02*
X026865Y020112D01*
X026865Y020013D02*
X025053Y020013D01*
X025300Y019915D02*
X026865Y019915D01*
X026839Y019816D02*
X025380Y019816D01*
X025410Y019718D02*
X026809Y019718D01*
X026813Y019619D02*
X025406Y019619D01*
X025731Y019521D02*
X026856Y019521D01*
X026987Y019422D02*
X025797Y019422D01*
X025797Y019324D02*
X028937Y019324D01*
X028853Y019422D02*
X027200Y019422D01*
X027331Y019521D02*
X028853Y019521D01*
X028853Y019619D02*
X027374Y019619D01*
X027379Y019718D02*
X028825Y019718D01*
X028781Y019816D02*
X027357Y019816D01*
X027362Y019915D02*
X028777Y019915D01*
X028807Y020013D02*
X027362Y020013D01*
X027362Y020112D02*
X028887Y020112D01*
X029062Y019883D02*
X029082Y019864D01*
X029082Y019569D01*
X029226Y019324D02*
X033400Y019324D01*
X031385Y017954D02*
X031237Y017807D01*
X030912Y017807D01*
X029906Y017846D02*
X029809Y017846D01*
X029854Y017748D02*
X029906Y017748D01*
X029906Y017649D02*
X029859Y017649D01*
X029829Y017551D02*
X029906Y017551D01*
X029906Y017452D02*
X029750Y017452D01*
X029677Y017354D02*
X029906Y017354D01*
X029906Y017255D02*
X029810Y017255D01*
X029854Y017157D02*
X029906Y017157D01*
X029906Y017058D02*
X029859Y017058D01*
X029829Y016960D02*
X029906Y016960D01*
X029906Y016861D02*
X029750Y016861D01*
X029906Y016763D02*
X029583Y016763D01*
X029562Y016664D02*
X029906Y016664D01*
X029906Y016566D02*
X029494Y016566D01*
X029103Y016566D02*
X029015Y016566D01*
X029015Y016467D02*
X029906Y016467D01*
X029906Y016369D02*
X029015Y016369D01*
X029015Y016270D02*
X029906Y016270D01*
X029906Y016172D02*
X029128Y016172D01*
X029260Y016073D02*
X029906Y016073D01*
X029906Y015975D02*
X029303Y015975D01*
X029308Y015876D02*
X029906Y015876D01*
X029820Y015778D02*
X029278Y015778D01*
X028768Y015778D02*
X028437Y015778D01*
X028394Y015876D02*
X028738Y015876D01*
X028700Y015975D02*
X028263Y015975D01*
X028300Y016073D02*
X025797Y016073D01*
X025797Y015975D02*
X028050Y015975D01*
X027919Y015876D02*
X025797Y015876D01*
X025797Y015778D02*
X027876Y015778D01*
X027687Y015679D02*
X025797Y015679D01*
X025797Y015581D02*
X027594Y015581D01*
X027557Y015482D02*
X025797Y015482D01*
X025797Y015384D02*
X027557Y015384D01*
X027595Y015285D02*
X025797Y015285D01*
X025797Y015187D02*
X027695Y015187D01*
X027643Y015088D02*
X025797Y015088D01*
X025797Y014990D02*
X027577Y014990D01*
X027557Y014891D02*
X025797Y014891D01*
X025797Y014793D02*
X027571Y014793D01*
X027628Y014694D02*
X025797Y014694D01*
X025797Y014596D02*
X027871Y014596D01*
X027894Y014497D02*
X025797Y014497D01*
X025797Y014399D02*
X027963Y014399D01*
X025597Y014399D02*
X018747Y014399D01*
X018747Y014497D02*
X025597Y014497D01*
X025597Y014596D02*
X018747Y014596D01*
X018747Y014694D02*
X025597Y014694D01*
X025597Y014793D02*
X018747Y014793D01*
X018747Y014891D02*
X025187Y014891D01*
X025130Y014990D02*
X019169Y014990D01*
X019269Y015088D02*
X025116Y015088D01*
X025136Y015187D02*
X019308Y015187D01*
X019308Y015285D02*
X025202Y015285D01*
X025231Y015384D02*
X019271Y015384D01*
X019251Y015482D02*
X025231Y015482D01*
X025256Y015581D02*
X019251Y015581D01*
X019251Y015679D02*
X025597Y015679D01*
X025597Y015778D02*
X019251Y015778D01*
X019187Y015876D02*
X024556Y015876D01*
X024731Y016104D02*
X024751Y016124D01*
X024751Y016498D01*
X024999Y016467D02*
X025597Y016467D01*
X025597Y016369D02*
X024999Y016369D01*
X024992Y016270D02*
X025597Y016270D01*
X025597Y016172D02*
X025012Y016172D01*
X025016Y016073D02*
X025597Y016073D01*
X025597Y015975D02*
X024986Y015975D01*
X024907Y015876D02*
X025597Y015876D01*
X025797Y016172D02*
X028243Y016172D01*
X028056Y016270D02*
X027588Y016270D01*
X027722Y016369D02*
X027922Y016369D01*
X027877Y016467D02*
X027767Y016467D01*
X027487Y016537D02*
X027448Y016576D01*
X027448Y017561D01*
X027645Y017757D01*
X027920Y017757D01*
X027999Y017836D01*
X028314Y017836D01*
X028344Y017807D01*
X028629Y017807D01*
X029676Y017945D02*
X029906Y017945D01*
X029906Y018043D02*
X029751Y018043D01*
X029829Y018142D02*
X029906Y018142D01*
X029906Y018240D02*
X029859Y018240D01*
X029854Y018339D02*
X029906Y018339D01*
X029906Y018437D02*
X029809Y018437D01*
X029906Y018536D02*
X029675Y018536D01*
X029751Y018634D02*
X029906Y018634D01*
X029906Y018733D02*
X029830Y018733D01*
X029859Y018831D02*
X029906Y018831D01*
X029906Y018930D02*
X029853Y018930D01*
X029808Y019028D02*
X029960Y019028D01*
X030059Y019127D02*
X029674Y019127D01*
X029474Y019127D02*
X025797Y019127D01*
X025797Y019225D02*
X030157Y019225D01*
X027961Y019028D02*
X025797Y019028D01*
X025797Y018930D02*
X027893Y018930D01*
X027693Y018831D02*
X025797Y018831D01*
X025797Y018733D02*
X027595Y018733D01*
X027557Y018634D02*
X025797Y018634D01*
X025797Y018536D02*
X027557Y018536D01*
X027594Y018437D02*
X025797Y018437D01*
X025797Y018339D02*
X027689Y018339D01*
X027606Y018240D02*
X025797Y018240D01*
X025797Y018142D02*
X027562Y018142D01*
X027557Y018043D02*
X025797Y018043D01*
X025797Y017945D02*
X027549Y017945D01*
X027451Y017846D02*
X025797Y017846D01*
X025797Y017748D02*
X027352Y017748D01*
X027254Y017649D02*
X025797Y017649D01*
X025797Y017551D02*
X027248Y017551D01*
X027248Y017452D02*
X025797Y017452D01*
X025797Y017354D02*
X027248Y017354D01*
X027248Y017255D02*
X025797Y017255D01*
X025797Y017157D02*
X027248Y017157D01*
X027248Y017058D02*
X025797Y017058D01*
X025797Y016960D02*
X027248Y016960D01*
X027248Y016861D02*
X025797Y016861D01*
X025797Y016763D02*
X027248Y016763D01*
X027231Y016664D02*
X025797Y016664D01*
X025797Y016566D02*
X027202Y016566D01*
X027208Y016467D02*
X025797Y016467D01*
X025797Y016369D02*
X027252Y016369D01*
X027386Y016270D02*
X025797Y016270D01*
X025597Y016566D02*
X024999Y016566D01*
X024999Y016664D02*
X025597Y016664D01*
X025597Y016763D02*
X024954Y016763D01*
X024905Y017058D02*
X020237Y017058D01*
X020333Y016960D02*
X025597Y016960D01*
X025597Y017058D02*
X025543Y017058D01*
X025590Y017157D02*
X025597Y017157D01*
X025590Y017255D02*
X025597Y017255D01*
X025597Y016861D02*
X020371Y016861D01*
X020371Y016763D02*
X024548Y016763D01*
X024503Y016664D02*
X020333Y016664D01*
X020234Y016566D02*
X024503Y016566D01*
X025109Y017058D02*
X025140Y017058D01*
X025597Y017945D02*
X019225Y017945D01*
X019251Y018043D02*
X025597Y018043D01*
X025597Y018142D02*
X019251Y018142D01*
X019251Y018240D02*
X025296Y018240D01*
X025164Y018339D02*
X019251Y018339D01*
X019287Y018437D02*
X023255Y018437D01*
X023271Y018421D02*
X023375Y018378D01*
X023489Y018378D01*
X023594Y018421D01*
X023674Y018502D01*
X023717Y018606D01*
X023717Y018720D01*
X023674Y018824D01*
X023594Y018905D01*
X023489Y018948D01*
X023375Y018948D01*
X023313Y018922D01*
X023306Y018922D01*
X023278Y018951D01*
X022957Y018951D01*
X022869Y018863D01*
X022869Y018581D01*
X022957Y018493D01*
X023199Y018493D01*
X023271Y018421D01*
X023432Y018663D02*
X023373Y018722D01*
X023117Y018722D01*
X022869Y018733D02*
X019238Y018733D01*
X019294Y018634D02*
X022869Y018634D01*
X022914Y018536D02*
X019308Y018536D01*
X019023Y018545D02*
X019003Y018525D01*
X019003Y018191D01*
X018547Y018142D02*
X016932Y018142D01*
X016945Y018240D02*
X018547Y018240D01*
X018547Y018339D02*
X017094Y018339D01*
X017161Y018437D02*
X018547Y018437D01*
X018547Y018536D02*
X017182Y018536D01*
X017310Y018634D02*
X018547Y018634D01*
X018547Y018733D02*
X017389Y018733D01*
X017418Y018831D02*
X018547Y018831D01*
X018547Y018930D02*
X017412Y018930D01*
X017438Y019028D02*
X018547Y019028D01*
X018547Y019127D02*
X017536Y019127D01*
X017549Y019225D02*
X018547Y019225D01*
X019574Y019096D02*
X019594Y019116D01*
X019928Y019116D01*
X020236Y019127D02*
X020352Y019127D01*
X020352Y019225D02*
X020236Y019225D01*
X020188Y019324D02*
X020390Y019324D01*
X020637Y019175D02*
X020696Y019234D01*
X020952Y019234D01*
X021200Y019225D02*
X021454Y019225D01*
X021454Y019127D02*
X021200Y019127D01*
X021135Y019028D02*
X021491Y019028D01*
X021586Y018930D02*
X020790Y018930D01*
X020484Y018930D02*
X020210Y018930D01*
X020236Y019028D02*
X020389Y019028D01*
X019679Y018831D02*
X022869Y018831D01*
X022936Y018930D02*
X021892Y018930D01*
X021739Y019175D02*
X021798Y019234D01*
X022054Y019234D01*
X022303Y019225D02*
X023932Y019225D01*
X023932Y019127D02*
X022303Y019127D01*
X022238Y019028D02*
X023996Y019028D01*
X024180Y019234D02*
X024436Y019234D01*
X024495Y019175D01*
X024743Y019028D02*
X025278Y019028D01*
X025231Y018930D02*
X024648Y018930D01*
X024780Y019127D02*
X025597Y019127D01*
X025597Y019225D02*
X024780Y019225D01*
X024742Y019324D02*
X025597Y019324D01*
X025460Y018820D02*
X025460Y018565D01*
X025401Y018506D01*
X025505Y018240D02*
X025597Y018240D01*
X025120Y018437D02*
X023609Y018437D01*
X023688Y018536D02*
X025116Y018536D01*
X025145Y018634D02*
X023717Y018634D01*
X023712Y018733D02*
X025225Y018733D01*
X025231Y018831D02*
X023667Y018831D01*
X023533Y018930D02*
X024342Y018930D01*
X023932Y019324D02*
X022303Y019324D01*
X021492Y019324D02*
X021200Y019324D01*
X020567Y020604D02*
X020194Y020604D01*
X020324Y020703D02*
X020468Y020703D01*
X020370Y020801D02*
X020367Y020801D01*
X020584Y021097D02*
X021506Y021097D01*
X021494Y021195D02*
X020485Y021195D01*
X020387Y021294D02*
X020834Y021294D01*
X020743Y021392D02*
X020288Y021392D01*
X020516Y021688D02*
X019638Y021688D01*
X019540Y021786D02*
X020474Y021786D01*
X020470Y021885D02*
X019441Y021885D01*
X019343Y021983D02*
X020501Y021983D01*
X020516Y022082D02*
X019244Y022082D01*
X019146Y022180D02*
X020516Y022180D01*
X020516Y022279D02*
X019047Y022279D01*
X018949Y022377D02*
X020516Y022377D01*
X020489Y022324D02*
X020027Y022324D01*
X020007Y022423D01*
X020167Y022548D02*
X020255Y022636D01*
X020255Y022918D01*
X020253Y022921D01*
X020292Y023016D01*
X020292Y023129D01*
X020249Y023234D01*
X020168Y023314D01*
X020064Y023357D01*
X019950Y023357D01*
X019845Y023314D01*
X019765Y023234D01*
X019722Y023129D01*
X019722Y023016D01*
X019761Y022921D01*
X019758Y022918D01*
X019758Y022636D01*
X019846Y022548D01*
X020167Y022548D01*
X020193Y022574D02*
X020516Y022574D01*
X020516Y022476D02*
X018888Y022476D01*
X018888Y022574D02*
X019820Y022574D01*
X019758Y022673D02*
X018888Y022673D01*
X018888Y022771D02*
X019758Y022771D01*
X019758Y022870D02*
X018888Y022870D01*
X018888Y022968D02*
X019742Y022968D01*
X019722Y023067D02*
X018888Y023067D01*
X018888Y023165D02*
X019737Y023165D01*
X019795Y023264D02*
X018888Y023264D01*
X018888Y023362D02*
X020446Y023362D01*
X020431Y023264D02*
X020219Y023264D01*
X020277Y023165D02*
X020450Y023165D01*
X020515Y023067D02*
X020292Y023067D01*
X020272Y022968D02*
X020536Y022968D01*
X020536Y022870D02*
X020255Y022870D01*
X020255Y022771D02*
X020536Y022771D01*
X020536Y022673D02*
X020255Y022673D01*
X020007Y022777D02*
X020007Y023072D01*
X020504Y023461D02*
X018888Y023461D01*
X018888Y023559D02*
X023321Y023559D01*
X023410Y023461D02*
X022699Y023461D01*
X022757Y023362D02*
X023410Y023362D01*
X023407Y023264D02*
X023410Y023264D01*
X023221Y023264D02*
X022895Y023264D01*
X023034Y023165D02*
X023083Y023165D01*
X023314Y022994D02*
X023314Y022334D01*
X023304Y022324D01*
X023048Y022324D02*
X023048Y021862D01*
X023038Y021183D01*
X022753Y021195D02*
X022064Y021195D01*
X022051Y021097D02*
X022765Y021097D01*
X022820Y020998D02*
X021997Y020998D01*
X021840Y020900D02*
X022977Y020900D01*
X023301Y021294D02*
X023629Y021294D01*
X023538Y021392D02*
X023241Y021392D01*
X023243Y021491D02*
X023501Y021491D01*
X023400Y021589D02*
X023244Y021589D01*
X023246Y021688D02*
X023272Y021688D01*
X022514Y021392D02*
X022500Y021392D01*
X022409Y021294D02*
X022605Y021294D01*
X022093Y021294D02*
X022041Y021294D01*
X021818Y021222D02*
X021779Y021183D01*
X021818Y021222D02*
X021818Y021616D01*
X021700Y021734D01*
X021700Y022009D01*
X021769Y022078D01*
X021769Y022324D01*
X021254Y021392D02*
X021240Y021392D01*
X021149Y021294D02*
X021345Y021294D01*
X021560Y020998D02*
X020682Y020998D01*
X020781Y020900D02*
X021717Y020900D01*
X020706Y021491D02*
X019835Y021491D01*
X019737Y021589D02*
X020644Y021589D01*
X020986Y023362D02*
X021036Y023362D01*
X021095Y023461D02*
X020927Y023461D01*
X020545Y023658D02*
X018948Y023658D01*
X018536Y024052D02*
X018513Y024052D01*
X017352Y025529D02*
X019937Y025529D01*
X020035Y025628D02*
X017352Y025628D01*
X017352Y025726D02*
X019285Y025726D01*
X019098Y025825D02*
X017352Y025825D01*
X017352Y025923D02*
X018999Y025923D01*
X018949Y026022D02*
X017375Y026022D01*
X017439Y026120D02*
X018908Y026120D01*
X018902Y026219D02*
X017457Y026219D01*
X017441Y026317D02*
X018902Y026317D01*
X018930Y026416D02*
X017382Y026416D01*
X016963Y026416D02*
X011170Y026416D01*
X011072Y026514D02*
X018971Y026514D01*
X019052Y026613D02*
X010973Y026613D01*
X010896Y026690D02*
X010896Y026690D01*
X010875Y026711D02*
X019175Y026711D01*
X019697Y026711D02*
X025356Y026711D01*
X025233Y026613D02*
X019820Y026613D01*
X019901Y026514D02*
X025152Y026514D01*
X025111Y026416D02*
X019942Y026416D01*
X019970Y026317D02*
X025083Y026317D01*
X023432Y025710D02*
X023334Y025612D01*
X023117Y025612D01*
X023117Y025257D02*
X023048Y025189D01*
X023048Y024608D01*
X023117Y025257D02*
X023334Y025257D01*
X023432Y025159D01*
X024714Y024741D02*
X025074Y024741D01*
X024976Y024643D02*
X024714Y024643D01*
X024714Y024544D02*
X024907Y024544D01*
X024866Y024446D02*
X024714Y024446D01*
X024714Y024347D02*
X024847Y024347D01*
X024847Y024249D02*
X024714Y024249D01*
X024714Y024150D02*
X024862Y024150D01*
X024903Y024052D02*
X024714Y024052D01*
X024714Y023953D02*
X024966Y023953D01*
X025064Y023855D02*
X024626Y023855D01*
X022276Y023461D02*
X022108Y023461D01*
X022167Y023362D02*
X022217Y023362D01*
X021685Y023461D02*
X021518Y023461D01*
X021576Y023362D02*
X021627Y023362D01*
X021769Y024608D02*
X021769Y024933D01*
X021621Y025080D01*
X020309Y026022D02*
X019923Y026022D01*
X019873Y025923D02*
X020226Y025923D01*
X020194Y025825D02*
X019774Y025825D01*
X019587Y025726D02*
X020134Y025726D01*
X016992Y025923D02*
X011663Y025923D01*
X011761Y025825D02*
X012980Y025825D01*
X012947Y025726D02*
X011860Y025726D01*
X011958Y025628D02*
X012947Y025628D01*
X012947Y025529D02*
X012037Y025529D01*
X012037Y025431D02*
X012976Y025431D01*
X013176Y025631D02*
X013176Y025139D01*
X012605Y025139D01*
X012202Y025332D02*
X012037Y025332D01*
X012037Y025234D02*
X012140Y025234D01*
X012140Y025135D02*
X012096Y025135D01*
X011564Y026022D02*
X016969Y026022D01*
X016906Y026120D02*
X011466Y026120D01*
X011367Y026219D02*
X016887Y026219D01*
X016903Y026317D02*
X011269Y026317D01*
X009679Y026711D02*
X008973Y026711D01*
X009071Y026613D02*
X009580Y026613D01*
X009518Y021491D02*
X009601Y021491D01*
X015536Y017945D02*
X016139Y017945D01*
X016144Y017846D02*
X015634Y017846D01*
X015733Y017748D02*
X016188Y017748D01*
X016321Y017649D02*
X015831Y017649D01*
X015930Y017551D02*
X017076Y017551D01*
X016978Y017452D02*
X016028Y017452D01*
X016528Y017649D02*
X018547Y017649D01*
X018547Y017748D02*
X016660Y017748D01*
X016704Y017846D02*
X018547Y017846D01*
X018547Y017945D02*
X016709Y017945D01*
X016877Y018043D02*
X018547Y018043D01*
X019003Y015592D02*
X019003Y015257D01*
X019023Y015238D01*
X018877Y014990D02*
X018747Y014990D01*
X018747Y015088D02*
X018776Y015088D01*
X018547Y015088D02*
X016855Y015088D01*
X016948Y014990D02*
X018547Y014990D01*
X018547Y014891D02*
X016985Y014891D01*
X017233Y014793D02*
X018547Y014793D01*
X018547Y014694D02*
X017311Y014694D01*
X017339Y014596D02*
X018547Y014596D01*
X018547Y014497D02*
X017333Y014497D01*
X017287Y014399D02*
X018547Y014399D01*
X018547Y014300D02*
X017151Y014300D01*
X017273Y014202D02*
X018547Y014202D01*
X018547Y014103D02*
X017327Y014103D01*
X017339Y014005D02*
X018547Y014005D01*
X018547Y013906D02*
X017317Y013906D01*
X017248Y013808D02*
X018547Y013808D01*
X018547Y013709D02*
X017253Y013709D01*
X017319Y013611D02*
X018547Y013611D01*
X018547Y013512D02*
X017339Y013512D01*
X017325Y013414D02*
X018547Y013414D01*
X018547Y013315D02*
X017267Y013315D01*
X017165Y013217D02*
X018547Y013217D01*
X018547Y013118D02*
X017293Y013118D01*
X017336Y013020D02*
X018547Y013020D01*
X018547Y012921D02*
X017339Y012921D01*
X017308Y012823D02*
X018547Y012823D01*
X018747Y013414D02*
X018751Y013414D01*
X018747Y014202D02*
X025073Y014202D01*
X025165Y014300D02*
X018747Y014300D01*
X018547Y015187D02*
X013782Y015187D01*
X013881Y015285D02*
X018547Y015285D01*
X016545Y015088D02*
X013684Y015088D01*
X013638Y014990D02*
X013585Y014990D01*
X013275Y014962D02*
X014023Y015710D01*
X014023Y016104D01*
X014347Y012429D02*
X017503Y012429D01*
X017427Y012330D02*
X014324Y012330D01*
X014292Y012232D02*
X017399Y012232D01*
X017406Y012133D02*
X014292Y012133D01*
X014292Y012035D02*
X017453Y012035D01*
X017484Y011936D02*
X014292Y011936D01*
X014292Y011838D02*
X017484Y011838D01*
X017484Y011739D02*
X014292Y011739D01*
X014292Y011641D02*
X017484Y011641D01*
X017484Y011542D02*
X014292Y011542D01*
X014292Y011444D02*
X017463Y011444D01*
X017410Y011345D02*
X014292Y011345D01*
X014292Y011247D02*
X017399Y011247D01*
X017422Y011148D02*
X014292Y011148D01*
X014328Y011050D02*
X017493Y011050D01*
X017684Y011261D02*
X017684Y012206D01*
X017969Y012232D02*
X026914Y012232D01*
X026914Y012133D02*
X017962Y012133D01*
X017916Y012035D02*
X026914Y012035D01*
X026914Y011936D02*
X017884Y011936D01*
X017884Y011838D02*
X026914Y011838D01*
X026914Y011739D02*
X017884Y011739D01*
X017884Y011641D02*
X026914Y011641D01*
X026914Y011542D02*
X017884Y011542D01*
X017905Y011444D02*
X026914Y011444D01*
X026914Y011345D02*
X017958Y011345D01*
X017969Y011247D02*
X026914Y011247D01*
X026914Y011148D02*
X017946Y011148D01*
X017875Y011050D02*
X026914Y011050D01*
X026914Y010951D02*
X023319Y010951D01*
X023196Y010750D02*
X023156Y010710D01*
X023196Y010750D02*
X024180Y010750D01*
X024377Y010553D01*
X024377Y010277D01*
X024456Y010198D01*
X024456Y009883D01*
X024426Y009854D01*
X024426Y009569D01*
X025679Y009572D02*
X026953Y009572D01*
X026914Y009671D02*
X025679Y009671D01*
X025679Y009769D02*
X026914Y009769D01*
X026914Y009868D02*
X025678Y009868D01*
X025718Y009966D02*
X026914Y009966D01*
X026914Y010065D02*
X025725Y010065D01*
X025698Y010163D02*
X026914Y010163D01*
X026914Y010262D02*
X025622Y010262D01*
X025489Y010360D02*
X026914Y010360D01*
X026914Y010459D02*
X025470Y010459D01*
X025405Y010557D02*
X026914Y010557D01*
X026914Y010656D02*
X024557Y010656D01*
X024458Y010754D02*
X026914Y010754D01*
X026914Y010853D02*
X024360Y010853D01*
X024894Y010557D02*
X025002Y010557D01*
X025679Y009474D02*
X027052Y009474D01*
X027150Y009375D02*
X025679Y009375D01*
X025679Y009277D02*
X025960Y009277D01*
X025940Y009257D02*
X026027Y009344D01*
X026349Y009344D01*
X026377Y009316D01*
X026462Y009316D01*
X026525Y009342D01*
X026638Y009342D01*
X026743Y009298D01*
X026823Y009218D01*
X026867Y009113D01*
X026867Y009000D01*
X026823Y008895D01*
X026743Y008815D01*
X026638Y008772D01*
X026525Y008772D01*
X026420Y008815D01*
X026348Y008887D01*
X026027Y008887D01*
X025940Y008975D01*
X025940Y009257D01*
X025940Y009178D02*
X025659Y009178D01*
X025659Y009080D02*
X025940Y009080D01*
X025940Y008981D02*
X025659Y008981D01*
X025659Y008883D02*
X026353Y008883D01*
X026495Y008784D02*
X025721Y008784D01*
X025762Y008686D02*
X027840Y008686D01*
X027741Y008784D02*
X026669Y008784D01*
X026811Y008883D02*
X027643Y008883D01*
X027544Y008981D02*
X026859Y008981D01*
X026867Y009080D02*
X027446Y009080D01*
X027347Y009178D02*
X026840Y009178D01*
X026765Y009277D02*
X027249Y009277D01*
X027462Y009572D02*
X032219Y009572D01*
X032219Y009671D02*
X027364Y009671D01*
X027274Y009769D02*
X032219Y009769D01*
X032219Y009868D02*
X027274Y009868D01*
X027274Y009966D02*
X032219Y009966D01*
X032219Y010065D02*
X027274Y010065D01*
X027274Y010163D02*
X032219Y010163D01*
X032219Y010262D02*
X027274Y010262D01*
X027274Y010360D02*
X032219Y010360D01*
X032219Y010459D02*
X027274Y010459D01*
X027274Y010557D02*
X032219Y010557D01*
X032219Y010656D02*
X027274Y010656D01*
X027274Y010754D02*
X032219Y010754D01*
X032219Y010853D02*
X027274Y010853D01*
X027274Y010951D02*
X032219Y010951D01*
X032219Y011050D02*
X027274Y011050D01*
X027274Y011148D02*
X032219Y011148D01*
X032219Y011247D02*
X027274Y011247D01*
X027274Y011345D02*
X032219Y011345D01*
X032219Y011444D02*
X027274Y011444D01*
X027274Y011542D02*
X032219Y011542D01*
X032261Y011641D02*
X027274Y011641D01*
X027274Y011739D02*
X033400Y011739D01*
X033400Y011838D02*
X027274Y011838D01*
X027274Y011936D02*
X033400Y011936D01*
X033400Y012035D02*
X027274Y012035D01*
X027274Y012133D02*
X033400Y012133D01*
X033400Y012232D02*
X027274Y012232D01*
X027339Y012330D02*
X030419Y012330D01*
X030388Y012429D02*
X027379Y012429D01*
X025797Y013217D02*
X033400Y013217D01*
X033400Y013315D02*
X025797Y013315D01*
X025597Y013414D02*
X025521Y013414D01*
X025590Y013512D02*
X025597Y013512D01*
X025590Y013611D02*
X025597Y013611D01*
X025590Y013709D02*
X025597Y013709D01*
X025590Y013808D02*
X025597Y013808D01*
X025590Y013906D02*
X025597Y013906D01*
X025342Y014037D02*
X025342Y013702D01*
X025342Y014037D02*
X025322Y014057D01*
X025570Y014202D02*
X025597Y014202D01*
X025597Y014300D02*
X025479Y014300D01*
X025401Y015080D02*
X025460Y015139D01*
X025460Y015395D01*
X028156Y016537D02*
X028166Y016527D01*
X028629Y016527D01*
X030912Y016527D02*
X031493Y016527D01*
X031562Y016458D01*
X031562Y016242D01*
X031385Y016065D01*
X031916Y016163D02*
X032015Y016065D01*
X031995Y016084D01*
X031916Y016163D02*
X031916Y016458D01*
X027113Y019706D02*
X027094Y019687D01*
X027113Y019706D02*
X027113Y020041D01*
X024180Y021294D02*
X023944Y021294D01*
X024035Y021392D02*
X024089Y021392D01*
X023331Y018930D02*
X023299Y018930D01*
X030846Y012527D02*
X033400Y012527D01*
X033400Y012429D02*
X030846Y012429D01*
X030815Y012330D02*
X033400Y012330D01*
X032252Y009474D02*
X027561Y009474D01*
X027659Y009375D02*
X033400Y009375D01*
X033400Y009277D02*
X027758Y009277D01*
X027856Y009178D02*
X033400Y009178D01*
X033400Y009080D02*
X027955Y009080D01*
X028053Y008981D02*
X029483Y008981D01*
X029444Y008942D02*
X029444Y008660D01*
X029531Y008572D01*
X029852Y008572D01*
X029881Y008601D01*
X029882Y008601D01*
X029923Y008502D01*
X030003Y008421D01*
X030108Y008378D01*
X030221Y008378D01*
X030326Y008421D01*
X030406Y008502D01*
X030449Y008606D01*
X030449Y008720D01*
X030406Y008824D01*
X030326Y008905D01*
X030221Y008948D01*
X030162Y008948D01*
X030109Y009001D01*
X029881Y009001D01*
X029852Y009030D01*
X029531Y009030D01*
X029444Y008942D01*
X029444Y008883D02*
X028152Y008883D01*
X028250Y008784D02*
X029444Y008784D01*
X029444Y008686D02*
X028473Y008686D01*
X028595Y008587D02*
X029516Y008587D01*
X029692Y008801D02*
X030027Y008801D01*
X030164Y008663D01*
X030423Y008784D02*
X033400Y008784D01*
X033400Y008686D02*
X030449Y008686D01*
X030441Y008587D02*
X033400Y008587D01*
X033400Y008489D02*
X030393Y008489D01*
X030251Y008390D02*
X033400Y008390D01*
X033400Y008292D02*
X028606Y008292D01*
X028638Y008390D02*
X030078Y008390D01*
X029936Y008489D02*
X028636Y008489D01*
X028523Y008193D02*
X033400Y008193D01*
X033400Y008095D02*
X026723Y008095D01*
X026629Y008134D02*
X026825Y008053D01*
X026975Y007902D01*
X027056Y007706D01*
X027056Y007494D01*
X026975Y007298D01*
X026825Y007147D01*
X026629Y007066D01*
X026416Y007066D01*
X026220Y007147D01*
X026070Y007298D01*
X025989Y007494D01*
X025989Y007706D01*
X026070Y007902D01*
X026220Y008053D01*
X026416Y008134D01*
X026629Y008134D01*
X026881Y007996D02*
X033400Y007996D01*
X033400Y007898D02*
X026977Y007898D01*
X027018Y007799D02*
X033400Y007799D01*
X033400Y007701D02*
X027056Y007701D01*
X027056Y007602D02*
X033400Y007602D01*
X033400Y007504D02*
X027056Y007504D01*
X027020Y007405D02*
X033400Y007405D01*
X033400Y007307D02*
X026979Y007307D01*
X026886Y007208D02*
X033400Y007208D01*
X033400Y007110D02*
X026734Y007110D01*
X026311Y007110D02*
X025934Y007110D01*
X025934Y007208D02*
X026159Y007208D01*
X026066Y007307D02*
X025934Y007307D01*
X025934Y007405D02*
X026025Y007405D01*
X025989Y007504D02*
X025934Y007504D01*
X025916Y007602D02*
X025989Y007602D01*
X025989Y007701D02*
X025886Y007701D01*
X025886Y007799D02*
X026027Y007799D01*
X026068Y007898D02*
X025886Y007898D01*
X025886Y007996D02*
X026164Y007996D01*
X026322Y008095D02*
X025790Y008095D01*
X025692Y008193D02*
X028184Y008193D01*
X028101Y008292D02*
X025593Y008292D01*
X025649Y008390D02*
X028068Y008390D01*
X028037Y008489D02*
X025732Y008489D01*
X025764Y008587D02*
X027938Y008587D01*
X026582Y009057D02*
X026523Y009116D01*
X026188Y009116D01*
X025194Y008587D02*
X025174Y008587D01*
X025141Y008489D02*
X025227Y008489D01*
X025310Y008390D02*
X025058Y008390D01*
X024719Y008390D02*
X024468Y008390D01*
X024551Y008489D02*
X024636Y008489D01*
X024604Y008587D02*
X024583Y008587D01*
X024129Y008390D02*
X023877Y008390D01*
X023960Y008489D02*
X024046Y008489D01*
X024013Y008587D02*
X023993Y008587D01*
X023538Y008390D02*
X022385Y008390D01*
X022352Y008489D02*
X023455Y008489D01*
X023423Y008587D02*
X022352Y008587D01*
X022352Y008686D02*
X023203Y008686D01*
X023132Y008784D02*
X022352Y008784D01*
X022352Y008883D02*
X022392Y008883D01*
X022661Y008883D02*
X023108Y008883D01*
X023118Y008981D02*
X022771Y008981D01*
X022812Y009080D02*
X023170Y009080D01*
X023213Y009178D02*
X022824Y009178D01*
X022610Y009474D02*
X022352Y009474D01*
X022352Y009572D02*
X022662Y009572D01*
X022662Y009671D02*
X022352Y009671D01*
X022419Y009769D02*
X022662Y009769D01*
X022663Y009868D02*
X022560Y009868D01*
X022607Y009966D02*
X022879Y009966D01*
X022871Y010065D02*
X022615Y010065D01*
X022588Y010163D02*
X022899Y010163D01*
X022974Y010262D02*
X022512Y010262D01*
X022339Y010360D02*
X023147Y010360D01*
X023019Y010459D02*
X022320Y010459D01*
X022871Y010754D02*
X014273Y010754D01*
X014332Y010853D02*
X022907Y010853D01*
X022994Y010951D02*
X014347Y010951D01*
X013255Y008587D02*
X012837Y008587D01*
X012931Y008489D02*
X013162Y008489D01*
X013121Y008390D02*
X012972Y008390D01*
X012996Y008292D02*
X013096Y008292D01*
X013096Y008193D02*
X012996Y008193D01*
X012972Y008095D02*
X013120Y008095D01*
X013161Y007996D02*
X012932Y007996D01*
X012839Y007898D02*
X013254Y007898D01*
X017839Y007898D02*
X020359Y007898D01*
X020455Y007996D02*
X017932Y007996D01*
X017972Y008095D02*
X020613Y008095D01*
X021015Y008095D02*
X021362Y008095D01*
X021362Y008193D02*
X017996Y008193D01*
X017996Y008292D02*
X021362Y008292D01*
X021362Y008390D02*
X017972Y008390D01*
X017931Y008489D02*
X021362Y008489D01*
X021362Y008587D02*
X017837Y008587D01*
X017996Y008883D02*
X021362Y008883D01*
X021362Y008981D02*
X017996Y008981D01*
X017996Y009080D02*
X021362Y009080D01*
X021362Y009178D02*
X017996Y009178D01*
X017996Y009277D02*
X021362Y009277D01*
X021362Y009375D02*
X017996Y009375D01*
X017996Y009474D02*
X021304Y009474D01*
X021205Y009572D02*
X017996Y009572D01*
X017929Y009671D02*
X021107Y009671D01*
X022352Y009375D02*
X022363Y009375D01*
X023147Y009569D02*
X023147Y010031D01*
X023156Y010041D01*
X021362Y007996D02*
X021173Y007996D01*
X021268Y007898D02*
X021362Y007898D01*
X021362Y007799D02*
X021309Y007799D01*
X021348Y007701D02*
X021362Y007701D01*
X021348Y007602D02*
X021362Y007602D01*
X021348Y007504D02*
X021362Y007504D01*
X021362Y007405D02*
X021311Y007405D01*
X021270Y007307D02*
X021362Y007307D01*
X021362Y007208D02*
X021177Y007208D01*
X021025Y007110D02*
X021362Y007110D01*
X022684Y006813D02*
X022861Y006635D01*
X023078Y006635D01*
X023147Y006704D01*
X023147Y007285D01*
X023078Y006281D02*
X022782Y006281D01*
X022684Y006183D01*
X022704Y006202D01*
X024219Y005731D02*
X026225Y005731D01*
X026255Y005829D02*
X024317Y005829D01*
X024416Y005928D02*
X026296Y005928D01*
X026379Y006026D02*
X024514Y006026D01*
X024613Y006125D02*
X026507Y006125D01*
X027011Y006125D02*
X032003Y006125D01*
X032101Y006223D02*
X024711Y006223D01*
X024810Y006322D02*
X032274Y006322D01*
X032897Y006322D02*
X033400Y006322D01*
X033400Y006420D02*
X024908Y006420D01*
X025007Y006519D02*
X033400Y006519D01*
X033400Y006617D02*
X025105Y006617D01*
X025118Y006716D02*
X033400Y006716D01*
X033400Y006814D02*
X025118Y006814D01*
X024574Y006813D02*
X024426Y006960D01*
X024426Y007285D01*
X025861Y006913D02*
X033400Y006913D01*
X033400Y007011D02*
X025934Y007011D01*
X029868Y008587D02*
X029887Y008587D01*
X030348Y008883D02*
X033400Y008883D01*
X033400Y008981D02*
X030129Y008981D01*
X033070Y006223D02*
X033400Y006223D01*
X033400Y006125D02*
X033169Y006125D01*
X033253Y006026D02*
X033400Y006026D01*
X033400Y005928D02*
X033294Y005928D01*
X033334Y005829D02*
X033400Y005829D01*
X033400Y005731D02*
X033361Y005731D01*
X033361Y005632D02*
X033400Y005632D01*
X033400Y005534D02*
X033361Y005534D01*
X033351Y005435D02*
X033400Y005435D01*
X033400Y005337D02*
X033311Y005337D01*
X033270Y005238D02*
X033400Y005238D01*
X033400Y005140D02*
X033210Y005140D01*
X033111Y005041D02*
X033400Y005041D01*
X033400Y004943D02*
X032996Y004943D01*
X032758Y004844D02*
X033400Y004844D01*
D28*
X028353Y008427D03*
X029456Y009608D03*
X029928Y009608D03*
X029928Y010080D03*
X029456Y010080D03*
X030164Y008663D03*
X026582Y009057D03*
X025755Y009057D03*
X025479Y008624D03*
X025164Y008899D03*
X024889Y008624D03*
X024574Y008899D03*
X024298Y008624D03*
X023983Y008899D03*
X023708Y008624D03*
X023393Y008899D03*
X022527Y009135D03*
X022330Y010041D03*
X022054Y010356D03*
X021779Y010041D03*
X021503Y010356D03*
X021227Y010041D03*
X023156Y010041D03*
X023432Y010356D03*
X023668Y010041D03*
X023944Y010356D03*
X024180Y010041D03*
X024692Y010356D03*
X024928Y010041D03*
X025204Y010356D03*
X025440Y010041D03*
X025952Y010828D03*
X027094Y012482D03*
X028511Y012639D03*
X030164Y012088D03*
X030716Y012876D03*
X028156Y014608D03*
X027842Y014883D03*
X028156Y015159D03*
X027842Y015435D03*
X028156Y015710D03*
X028156Y016537D03*
X027842Y016813D03*
X028156Y017049D03*
X027842Y017324D03*
X028156Y017561D03*
X027842Y018072D03*
X028156Y018309D03*
X027842Y018584D03*
X028156Y018820D03*
X029141Y019135D03*
X029574Y018860D03*
X029298Y018545D03*
X029574Y018269D03*
X029298Y017954D03*
X029574Y017679D03*
X029298Y017364D03*
X029574Y017088D03*
X029298Y016773D03*
X029023Y015907D03*
X027487Y016537D03*
X025912Y016301D03*
X025440Y016025D03*
X025912Y015789D03*
X025401Y015080D03*
X025322Y014057D03*
X025912Y013112D03*
X024534Y012718D03*
X023826Y012206D03*
X023393Y012718D03*
X022684Y012206D03*
X022408Y012679D03*
X022251Y013230D03*
X021503Y012954D03*
X020912Y012797D03*
X021109Y012206D03*
X021897Y012206D03*
X023156Y010710D03*
X018944Y013624D03*
X018432Y013506D03*
X017054Y013506D03*
X016700Y013742D03*
X017054Y014017D03*
X016700Y014293D03*
X017054Y014569D03*
X016700Y014844D03*
X015676Y016261D03*
X014023Y016104D03*
X012212Y016222D03*
X013275Y014962D03*
X012448Y014490D03*
X010243Y012954D03*
X008747Y012954D03*
X005597Y014765D03*
X003786Y014962D03*
X003786Y017324D03*
X003078Y018939D03*
X005401Y019923D03*
X006542Y019647D03*
X008511Y018663D03*
X008944Y019332D03*
X009338Y019332D03*
X009377Y018624D03*
X010597Y019214D03*
X011306Y019608D03*
X011306Y020159D03*
X010912Y020907D03*
X011818Y021537D03*
X011542Y022836D03*
X014259Y023624D03*
X016227Y024883D03*
X017723Y023978D03*
X018235Y023978D03*
X018708Y023820D03*
X018196Y023112D03*
X019062Y022521D03*
X020007Y023072D03*
X020716Y023269D03*
X021031Y022994D03*
X021306Y023269D03*
X021621Y022994D03*
X021897Y023269D03*
X022212Y022994D03*
X022487Y023269D03*
X022802Y022994D03*
X023314Y022994D03*
X023511Y021852D03*
X023786Y021537D03*
X024062Y021852D03*
X024338Y021537D03*
X024613Y021852D03*
X026031Y021734D03*
X025125Y019687D03*
X024613Y019687D03*
X024495Y019175D03*
X025401Y018506D03*
X025912Y018387D03*
X025440Y017797D03*
X025007Y017324D03*
X024731Y016104D03*
X023432Y018663D03*
X022723Y019214D03*
X022448Y019687D03*
X021739Y019175D03*
X020637Y019175D03*
X020519Y019687D03*
X019574Y019096D03*
X019338Y019687D03*
X018432Y018781D03*
X019023Y018545D03*
X017133Y018860D03*
X016897Y018545D03*
X016660Y018230D03*
X016424Y017915D03*
X015834Y018663D03*
X014613Y017639D03*
X013668Y017639D03*
X012408Y018663D03*
X015834Y020946D03*
X016424Y021537D03*
X018353Y021380D03*
X020086Y020868D03*
X020991Y021537D03*
X020755Y021852D03*
X021267Y021852D03*
X021503Y021537D03*
X021779Y021183D03*
X022251Y021537D03*
X022015Y021852D03*
X022527Y021852D03*
X022763Y021537D03*
X023038Y021183D03*
X025912Y019372D03*
X027094Y019687D03*
X029062Y019883D03*
X031385Y020238D03*
X031385Y017954D03*
X031385Y017521D03*
X031700Y017285D03*
X031385Y017009D03*
X031385Y016065D03*
X031070Y015592D03*
X032015Y016065D03*
X020086Y016813D03*
X018944Y016773D03*
X018432Y016852D03*
X018432Y016025D03*
X018905Y016065D03*
X019023Y015238D03*
X016700Y013230D03*
X017054Y012954D03*
X017684Y012206D03*
X017684Y011261D03*
X014062Y010946D03*
X014062Y012443D03*
X015243Y006813D03*
X017487Y006813D03*
X022172Y007128D03*
X022684Y006813D03*
X022684Y006183D03*
X023629Y006813D03*
X023905Y006498D03*
X024141Y006813D03*
X024574Y006813D03*
X008590Y020671D03*
X014062Y025631D03*
X017172Y026222D03*
X020479Y025789D03*
X021621Y025080D03*
X022054Y025080D03*
X022290Y025395D03*
X022566Y025080D03*
X023432Y025159D03*
X023432Y025710D03*
X024180Y024805D03*
X026542Y025080D03*
X005597Y025868D03*
D29*
X005617Y025887D01*
X005939Y025887D01*
X005939Y025691D01*
X005939Y025494D01*
X005939Y025297D01*
X006391Y025297D02*
X006391Y025113D01*
X006936Y024569D01*
X007853Y024569D01*
X008326Y025080D01*
X009074Y024332D01*
X010282Y024332D01*
X010499Y024116D01*
X012605Y024116D01*
X012605Y024372D02*
X010597Y024372D01*
X010401Y024569D01*
X009838Y024569D01*
X009326Y025080D01*
X009062Y025080D01*
X008550Y025592D01*
X006818Y025592D01*
X006719Y025494D01*
X006391Y025494D01*
X006391Y025691D02*
X006562Y025691D01*
X006779Y025907D01*
X006779Y026340D01*
X007054Y026616D01*
X007814Y026616D01*
X008326Y026104D01*
X008590Y026104D01*
X009101Y025592D01*
X010755Y025592D01*
X011719Y024628D01*
X012605Y024628D01*
X012605Y024883D02*
X012094Y024883D01*
X011857Y025120D01*
X011857Y025474D01*
X010716Y026616D01*
X009838Y026616D01*
X009326Y026104D01*
X008578Y026852D01*
X006936Y026852D01*
X006391Y026307D01*
X006391Y025887D01*
X009338Y021836D02*
X009338Y019332D01*
X008511Y018663D02*
X007527Y019647D01*
X006542Y019647D01*
X013747Y014844D02*
X011109Y012206D01*
X008511Y012206D01*
X005546Y009242D01*
X006070Y009490D02*
X006070Y008765D01*
X005546Y008242D01*
X006546Y008242D02*
X007054Y008750D01*
X007054Y009923D01*
X008865Y011734D01*
X011464Y011734D01*
X013747Y014017D01*
X017054Y014017D01*
X016700Y013742D02*
X013747Y013742D01*
X011582Y011576D01*
X008983Y011576D01*
X007546Y010139D01*
X007546Y009242D01*
X008038Y008734D02*
X007546Y008242D01*
X008038Y008734D02*
X008038Y010356D01*
X009101Y011419D01*
X011700Y011419D01*
X013786Y013506D01*
X017054Y013506D01*
X016700Y013230D02*
X013786Y013230D01*
X011818Y011261D01*
X009219Y011261D01*
X008546Y010588D01*
X008546Y009242D01*
X009062Y008757D02*
X008546Y008242D01*
X009062Y008757D02*
X009062Y010828D01*
X009338Y011104D01*
X011936Y011104D01*
X013786Y012954D01*
X017054Y012954D01*
X016700Y014293D02*
X013747Y014293D01*
X011345Y011891D01*
X008747Y011891D01*
X006546Y009691D01*
X006546Y009242D01*
X006070Y009490D02*
X008629Y012049D01*
X011227Y012049D01*
X013747Y014569D01*
X017054Y014569D01*
X016700Y014844D02*
X013747Y014844D01*
X016424Y017915D02*
X016385Y017954D01*
X016385Y019057D01*
X016779Y019450D01*
X016779Y022521D01*
X015184Y024116D01*
X014810Y024116D01*
X014810Y024372D02*
X015204Y024372D01*
X016975Y022600D01*
X016975Y019372D01*
X016621Y019017D01*
X016621Y018269D01*
X016660Y018230D01*
X016897Y018545D02*
X016857Y018584D01*
X016857Y018978D01*
X017172Y019293D01*
X017172Y022679D01*
X015223Y024628D01*
X014810Y024628D01*
X014810Y024883D02*
X015243Y024883D01*
X017369Y022757D01*
X017369Y019214D01*
X017133Y018978D01*
X017133Y018860D01*
X019928Y020868D02*
X020086Y020868D01*
X019928Y020868D02*
X018471Y022324D01*
X018471Y023742D01*
X018235Y023978D01*
X018708Y023820D02*
X018708Y022364D01*
X019849Y021222D01*
X020204Y021222D01*
X021109Y020317D01*
X024495Y020317D01*
X025125Y019687D01*
X024338Y021537D02*
X024338Y021970D01*
X024062Y022246D01*
X024062Y023663D01*
X023471Y024254D01*
X023304Y024254D01*
X021582Y024254D01*
X021513Y024322D01*
X021513Y024608D01*
X021257Y024608D02*
X021257Y025228D01*
X022015Y025986D01*
X023629Y025986D01*
X024534Y025080D01*
X024534Y024017D01*
X024219Y023702D01*
X024219Y022443D01*
X024613Y022049D01*
X024613Y021852D01*
X024062Y021852D02*
X023905Y022009D01*
X023905Y023624D01*
X023432Y024096D01*
X021070Y024096D01*
X021001Y024165D01*
X021001Y024608D01*
X020745Y024608D02*
X020745Y024067D01*
X020873Y023939D01*
X023393Y023939D01*
X023747Y023584D01*
X023747Y021576D01*
X023786Y021537D01*
X023511Y021852D02*
X023590Y021931D01*
X023590Y023545D01*
X023353Y023781D01*
X020676Y023781D01*
X020489Y023968D01*
X020489Y024608D01*
X022025Y024608D02*
X022025Y025051D01*
X022054Y025080D01*
X022281Y025385D02*
X022290Y025395D01*
X022281Y025385D02*
X022281Y024608D01*
X022536Y024608D02*
X022536Y025051D01*
X022566Y025080D01*
X022792Y025346D02*
X022881Y025435D01*
X023550Y025435D01*
X024180Y024805D01*
X023304Y024608D02*
X023304Y024254D01*
X022792Y024608D02*
X022792Y025346D01*
X022487Y023269D02*
X022487Y022718D01*
X022536Y022669D01*
X022536Y022324D01*
X022536Y021862D01*
X022527Y021852D01*
X022281Y021567D02*
X022251Y021537D01*
X022281Y021567D02*
X022281Y022324D01*
X022281Y022925D01*
X022212Y022994D01*
X021897Y022797D02*
X022025Y022669D01*
X022025Y022324D01*
X022025Y021862D01*
X022015Y021852D01*
X021513Y021547D02*
X021503Y021537D01*
X021513Y021547D02*
X021513Y022324D01*
X021513Y022689D01*
X021621Y022797D01*
X021621Y022994D01*
X021897Y022797D02*
X021897Y023269D01*
X021306Y023269D02*
X021306Y022718D01*
X021257Y022669D01*
X021257Y022324D01*
X021257Y021862D01*
X021267Y021852D01*
X021001Y021547D02*
X020991Y021537D01*
X021001Y021547D02*
X021001Y022324D01*
X021001Y022689D01*
X021031Y022718D01*
X021031Y022994D01*
X020745Y022689D02*
X020716Y022718D01*
X020716Y023269D01*
X020745Y022689D02*
X020745Y022324D01*
X020745Y021862D01*
X020755Y021852D01*
X022763Y021537D02*
X022792Y021567D01*
X022792Y022324D01*
X022792Y022630D01*
X022802Y022639D01*
X022802Y022994D01*
X017172Y025317D02*
X017172Y026222D01*
X027842Y018584D02*
X027851Y018574D01*
X028629Y018574D01*
X028993Y018574D01*
X029023Y018545D01*
X029298Y018545D01*
X029023Y018269D02*
X028973Y018319D01*
X028629Y018319D01*
X028166Y018319D01*
X028156Y018309D01*
X027851Y018063D02*
X027842Y018072D01*
X027851Y018063D02*
X028629Y018063D01*
X028993Y018063D01*
X029101Y017954D01*
X029298Y017954D01*
X029101Y017679D02*
X028973Y017551D01*
X028629Y017551D01*
X028166Y017551D01*
X028156Y017561D01*
X027871Y017295D02*
X027842Y017324D01*
X027871Y017295D02*
X028629Y017295D01*
X029229Y017295D01*
X029298Y017364D01*
X029101Y017679D02*
X029574Y017679D01*
X029574Y018269D02*
X029023Y018269D01*
X028993Y018830D02*
X029023Y018860D01*
X029574Y018860D01*
X030086Y018899D02*
X030086Y015789D01*
X029849Y015553D01*
X028314Y015553D01*
X028156Y015710D01*
X027842Y015435D02*
X027881Y015395D01*
X029889Y015395D01*
X030243Y015750D01*
X030243Y018702D01*
X030371Y018830D01*
X030912Y018830D01*
X030912Y018574D02*
X030469Y018574D01*
X030401Y018506D01*
X030401Y015710D01*
X029928Y015238D01*
X028235Y015238D01*
X028156Y015159D01*
X028353Y014883D02*
X027842Y014883D01*
X028156Y014608D02*
X028393Y014608D01*
X028708Y014923D01*
X031267Y014923D01*
X032290Y015946D01*
X032290Y017521D01*
X031493Y018319D01*
X030912Y018319D01*
X030912Y018063D02*
X030627Y018063D01*
X030558Y017994D01*
X030558Y016261D01*
X030568Y016271D01*
X030912Y016271D01*
X030558Y016261D02*
X030558Y015671D01*
X029968Y015080D01*
X028550Y015080D01*
X028353Y014883D01*
X029023Y015907D02*
X028658Y016271D01*
X028629Y016271D01*
X028629Y016783D02*
X027871Y016783D01*
X027842Y016813D01*
X028156Y017049D02*
X028166Y017039D01*
X028629Y017039D01*
X028973Y017039D01*
X029023Y017088D01*
X029574Y017088D01*
X029298Y016773D02*
X028905Y016773D01*
X028895Y016783D01*
X028629Y016783D01*
X030912Y016783D02*
X030922Y016773D01*
X031660Y016773D01*
X031739Y016694D01*
X031739Y015868D01*
X031464Y015592D01*
X031070Y015592D01*
X031385Y017009D02*
X031355Y017039D01*
X030912Y017039D01*
X030912Y017295D02*
X031690Y017295D01*
X031700Y017285D01*
X031385Y017521D02*
X031355Y017551D01*
X030912Y017551D01*
X030912Y019086D02*
X030273Y019086D01*
X030086Y018899D01*
X028993Y018830D02*
X028629Y018830D01*
X028166Y018830D01*
X028156Y018820D01*
X027094Y012482D02*
X027094Y009687D01*
X028353Y008427D01*
X025706Y007925D02*
X025706Y007285D01*
X025450Y007285D02*
X025450Y007826D01*
X025322Y007954D01*
X022369Y007954D01*
X022015Y008309D01*
X022015Y010317D01*
X022054Y010356D01*
X021779Y010041D02*
X021857Y009962D01*
X021857Y008269D01*
X022330Y007797D01*
X025125Y007797D01*
X025194Y007728D01*
X025194Y007285D01*
X024938Y007285D02*
X024938Y006704D01*
X024141Y005907D01*
X022566Y005907D01*
X021542Y006931D01*
X021542Y009490D01*
X021227Y009805D01*
X021227Y010041D01*
X021503Y009844D02*
X021503Y010356D01*
X021503Y009844D02*
X021700Y009647D01*
X021700Y008230D01*
X022290Y007639D01*
X022881Y007639D01*
X022891Y007630D01*
X022891Y007285D01*
X022881Y007639D02*
X024613Y007639D01*
X024682Y007570D01*
X024682Y007285D01*
X024170Y007285D02*
X024170Y006842D01*
X024141Y006813D01*
X023914Y006507D02*
X023905Y006498D01*
X023914Y006507D02*
X023914Y007285D01*
X023658Y007285D02*
X023658Y006842D01*
X023629Y006813D01*
X023393Y006537D02*
X023314Y006458D01*
X022487Y006458D01*
X022172Y006773D01*
X022172Y007128D01*
X023393Y007275D02*
X023393Y006537D01*
X023393Y007275D02*
X023403Y007285D01*
X022408Y008112D02*
X022172Y008348D01*
X022172Y009883D01*
X022330Y010041D01*
X022891Y009569D02*
X022891Y009500D01*
X022527Y009135D01*
X023393Y009254D02*
X023393Y008899D01*
X023393Y009254D02*
X023403Y009263D01*
X023403Y009569D01*
X023403Y010326D01*
X023432Y010356D01*
X023668Y010041D02*
X023658Y010031D01*
X023658Y009569D01*
X023658Y009224D01*
X023708Y009175D01*
X023708Y008624D01*
X023983Y008899D02*
X023914Y008968D01*
X023914Y009569D01*
X023914Y010326D01*
X023944Y010356D01*
X024180Y010041D02*
X024170Y010031D01*
X024170Y009569D01*
X024170Y009224D01*
X024298Y009096D01*
X024298Y008624D01*
X024574Y008899D02*
X024574Y009096D01*
X024682Y009204D01*
X024682Y009569D01*
X024682Y010346D01*
X024692Y010356D01*
X024928Y010041D02*
X024938Y010031D01*
X024938Y009569D01*
X024938Y009224D01*
X024889Y009175D01*
X024889Y008624D01*
X025164Y008899D02*
X025164Y009175D01*
X025194Y009204D01*
X025194Y009569D01*
X025194Y010346D01*
X025204Y010356D01*
X025440Y010041D02*
X025450Y010031D01*
X025450Y009569D01*
X025450Y009204D01*
X025479Y009175D01*
X025479Y008624D01*
X025519Y008112D02*
X022408Y008112D01*
X025519Y008112D02*
X025706Y007925D01*
D30*
X014062Y010946D02*
X014062Y012443D01*
X012448Y014490D02*
X011306Y015631D01*
X011306Y019608D01*
X010912Y020907D02*
X010912Y022206D01*
X011542Y022836D01*
X009849Y021836D02*
X009338Y021836D01*
X005975Y021836D01*
X003078Y018939D01*
M02*
