G75*
%MOIN*%
%OFA0B0*%
%FSLAX24Y24*%
%IPPOS*%
%LPD*%
%AMOC8*
5,1,8,0,0,1.08239X$1,22.5*
%
%ADD10C,0.0000*%
%ADD11C,0.0050*%
%ADD12C,0.0060*%
%ADD13C,0.0110*%
%ADD14C,0.0080*%
%ADD15C,0.0100*%
%ADD16C,0.0070*%
%ADD17C,0.0040*%
%ADD18R,0.0079X0.0059*%
%ADD19R,0.0079X0.0118*%
%ADD20C,0.0079*%
%ADD21C,0.0157*%
%ADD22C,0.0059*%
D10*
X000873Y004647D02*
X000873Y027246D01*
X033550Y027246D01*
X033550Y004647D01*
X000873Y004647D01*
X001213Y005612D02*
X001215Y005662D01*
X001221Y005711D01*
X001231Y005760D01*
X001244Y005807D01*
X001262Y005854D01*
X001283Y005899D01*
X001307Y005942D01*
X001335Y005983D01*
X001366Y006022D01*
X001400Y006058D01*
X001437Y006092D01*
X001477Y006122D01*
X001518Y006149D01*
X001562Y006173D01*
X001607Y006193D01*
X001654Y006209D01*
X001702Y006222D01*
X001751Y006231D01*
X001801Y006236D01*
X001850Y006237D01*
X001900Y006234D01*
X001949Y006227D01*
X001998Y006216D01*
X002045Y006202D01*
X002091Y006183D01*
X002136Y006161D01*
X002179Y006136D01*
X002219Y006107D01*
X002257Y006075D01*
X002293Y006041D01*
X002326Y006003D01*
X002355Y005963D01*
X002381Y005921D01*
X002404Y005877D01*
X002423Y005831D01*
X002439Y005784D01*
X002451Y005735D01*
X002459Y005686D01*
X002463Y005637D01*
X002463Y005587D01*
X002459Y005538D01*
X002451Y005489D01*
X002439Y005440D01*
X002423Y005393D01*
X002404Y005347D01*
X002381Y005303D01*
X002355Y005261D01*
X002326Y005221D01*
X002293Y005183D01*
X002257Y005149D01*
X002219Y005117D01*
X002179Y005088D01*
X002136Y005063D01*
X002091Y005041D01*
X002045Y005022D01*
X001998Y005008D01*
X001949Y004997D01*
X001900Y004990D01*
X001850Y004987D01*
X001801Y004988D01*
X001751Y004993D01*
X001702Y005002D01*
X001654Y005015D01*
X001607Y005031D01*
X001562Y005051D01*
X001518Y005075D01*
X001477Y005102D01*
X001437Y005132D01*
X001400Y005166D01*
X001366Y005202D01*
X001335Y005241D01*
X001307Y005282D01*
X001283Y005325D01*
X001262Y005370D01*
X001244Y005417D01*
X001231Y005464D01*
X001221Y005513D01*
X001215Y005562D01*
X001213Y005612D01*
X001213Y026281D02*
X001215Y026331D01*
X001221Y026380D01*
X001231Y026429D01*
X001244Y026476D01*
X001262Y026523D01*
X001283Y026568D01*
X001307Y026611D01*
X001335Y026652D01*
X001366Y026691D01*
X001400Y026727D01*
X001437Y026761D01*
X001477Y026791D01*
X001518Y026818D01*
X001562Y026842D01*
X001607Y026862D01*
X001654Y026878D01*
X001702Y026891D01*
X001751Y026900D01*
X001801Y026905D01*
X001850Y026906D01*
X001900Y026903D01*
X001949Y026896D01*
X001998Y026885D01*
X002045Y026871D01*
X002091Y026852D01*
X002136Y026830D01*
X002179Y026805D01*
X002219Y026776D01*
X002257Y026744D01*
X002293Y026710D01*
X002326Y026672D01*
X002355Y026632D01*
X002381Y026590D01*
X002404Y026546D01*
X002423Y026500D01*
X002439Y026453D01*
X002451Y026404D01*
X002459Y026355D01*
X002463Y026306D01*
X002463Y026256D01*
X002459Y026207D01*
X002451Y026158D01*
X002439Y026109D01*
X002423Y026062D01*
X002404Y026016D01*
X002381Y025972D01*
X002355Y025930D01*
X002326Y025890D01*
X002293Y025852D01*
X002257Y025818D01*
X002219Y025786D01*
X002179Y025757D01*
X002136Y025732D01*
X002091Y025710D01*
X002045Y025691D01*
X001998Y025677D01*
X001949Y025666D01*
X001900Y025659D01*
X001850Y025656D01*
X001801Y025657D01*
X001751Y025662D01*
X001702Y025671D01*
X001654Y025684D01*
X001607Y025700D01*
X001562Y025720D01*
X001518Y025744D01*
X001477Y025771D01*
X001437Y025801D01*
X001400Y025835D01*
X001366Y025871D01*
X001335Y025910D01*
X001307Y025951D01*
X001283Y025994D01*
X001262Y026039D01*
X001244Y026086D01*
X001231Y026133D01*
X001221Y026182D01*
X001215Y026231D01*
X001213Y026281D01*
X031961Y026281D02*
X031963Y026331D01*
X031969Y026380D01*
X031979Y026429D01*
X031992Y026476D01*
X032010Y026523D01*
X032031Y026568D01*
X032055Y026611D01*
X032083Y026652D01*
X032114Y026691D01*
X032148Y026727D01*
X032185Y026761D01*
X032225Y026791D01*
X032266Y026818D01*
X032310Y026842D01*
X032355Y026862D01*
X032402Y026878D01*
X032450Y026891D01*
X032499Y026900D01*
X032549Y026905D01*
X032598Y026906D01*
X032648Y026903D01*
X032697Y026896D01*
X032746Y026885D01*
X032793Y026871D01*
X032839Y026852D01*
X032884Y026830D01*
X032927Y026805D01*
X032967Y026776D01*
X033005Y026744D01*
X033041Y026710D01*
X033074Y026672D01*
X033103Y026632D01*
X033129Y026590D01*
X033152Y026546D01*
X033171Y026500D01*
X033187Y026453D01*
X033199Y026404D01*
X033207Y026355D01*
X033211Y026306D01*
X033211Y026256D01*
X033207Y026207D01*
X033199Y026158D01*
X033187Y026109D01*
X033171Y026062D01*
X033152Y026016D01*
X033129Y025972D01*
X033103Y025930D01*
X033074Y025890D01*
X033041Y025852D01*
X033005Y025818D01*
X032967Y025786D01*
X032927Y025757D01*
X032884Y025732D01*
X032839Y025710D01*
X032793Y025691D01*
X032746Y025677D01*
X032697Y025666D01*
X032648Y025659D01*
X032598Y025656D01*
X032549Y025657D01*
X032499Y025662D01*
X032450Y025671D01*
X032402Y025684D01*
X032355Y025700D01*
X032310Y025720D01*
X032266Y025744D01*
X032225Y025771D01*
X032185Y025801D01*
X032148Y025835D01*
X032114Y025871D01*
X032083Y025910D01*
X032055Y025951D01*
X032031Y025994D01*
X032010Y026039D01*
X031992Y026086D01*
X031979Y026133D01*
X031969Y026182D01*
X031963Y026231D01*
X031961Y026281D01*
X031961Y005612D02*
X031963Y005662D01*
X031969Y005711D01*
X031979Y005760D01*
X031992Y005807D01*
X032010Y005854D01*
X032031Y005899D01*
X032055Y005942D01*
X032083Y005983D01*
X032114Y006022D01*
X032148Y006058D01*
X032185Y006092D01*
X032225Y006122D01*
X032266Y006149D01*
X032310Y006173D01*
X032355Y006193D01*
X032402Y006209D01*
X032450Y006222D01*
X032499Y006231D01*
X032549Y006236D01*
X032598Y006237D01*
X032648Y006234D01*
X032697Y006227D01*
X032746Y006216D01*
X032793Y006202D01*
X032839Y006183D01*
X032884Y006161D01*
X032927Y006136D01*
X032967Y006107D01*
X033005Y006075D01*
X033041Y006041D01*
X033074Y006003D01*
X033103Y005963D01*
X033129Y005921D01*
X033152Y005877D01*
X033171Y005831D01*
X033187Y005784D01*
X033199Y005735D01*
X033207Y005686D01*
X033211Y005637D01*
X033211Y005587D01*
X033207Y005538D01*
X033199Y005489D01*
X033187Y005440D01*
X033171Y005393D01*
X033152Y005347D01*
X033129Y005303D01*
X033103Y005261D01*
X033074Y005221D01*
X033041Y005183D01*
X033005Y005149D01*
X032967Y005117D01*
X032927Y005088D01*
X032884Y005063D01*
X032839Y005041D01*
X032793Y005022D01*
X032746Y005008D01*
X032697Y004997D01*
X032648Y004990D01*
X032598Y004987D01*
X032549Y004988D01*
X032499Y004993D01*
X032450Y005002D01*
X032402Y005015D01*
X032355Y005031D01*
X032310Y005051D01*
X032266Y005075D01*
X032225Y005102D01*
X032185Y005132D01*
X032148Y005166D01*
X032114Y005202D01*
X032083Y005241D01*
X032055Y005282D01*
X032031Y005325D01*
X032010Y005370D01*
X031992Y005417D01*
X031979Y005464D01*
X031969Y005513D01*
X031963Y005562D01*
X031961Y005612D01*
D11*
X030048Y008235D02*
X030048Y008505D01*
X029913Y008370D01*
X030093Y008370D01*
X029798Y008415D02*
X029798Y008460D01*
X029753Y008505D01*
X029663Y008505D01*
X029618Y008460D01*
X029503Y008460D02*
X029503Y008370D01*
X029458Y008325D01*
X029323Y008325D01*
X029323Y008235D02*
X029323Y008505D01*
X029458Y008505D01*
X029503Y008460D01*
X029413Y008325D02*
X029503Y008235D01*
X029618Y008235D02*
X029798Y008415D01*
X029798Y008235D02*
X029618Y008235D01*
X027408Y008840D02*
X033471Y008840D01*
X032161Y010184D02*
X031936Y010184D01*
X031936Y010364D02*
X032161Y010364D01*
X032206Y010319D01*
X032206Y010229D01*
X032161Y010184D01*
X032206Y010479D02*
X032206Y010659D01*
X032206Y010569D02*
X031936Y010569D01*
X032026Y010479D01*
X032026Y010773D02*
X031936Y010863D01*
X032206Y010863D01*
X032206Y010773D02*
X032206Y010954D01*
X033471Y012265D02*
X027408Y012265D01*
X027408Y008840D01*
X026412Y009357D02*
X026231Y009357D01*
X026322Y009357D02*
X026322Y009628D01*
X026231Y009537D01*
X026117Y009628D02*
X026117Y009357D01*
X025937Y009628D01*
X025937Y009357D01*
X025822Y009357D02*
X025732Y009447D01*
X025777Y009447D02*
X025642Y009447D01*
X025642Y009357D02*
X025642Y009628D01*
X025777Y009628D01*
X025822Y009582D01*
X025822Y009492D01*
X025777Y009447D01*
X025499Y009293D02*
X025499Y009687D01*
X024633Y009687D02*
X024633Y009293D01*
X024219Y009293D02*
X024219Y009687D01*
X023353Y009687D02*
X023353Y009293D01*
X023203Y009357D02*
X023023Y009357D01*
X023203Y009537D01*
X023203Y009582D01*
X023158Y009628D01*
X023068Y009628D01*
X023023Y009582D01*
X022908Y009628D02*
X022908Y009357D01*
X022728Y009628D01*
X022728Y009357D01*
X022614Y009357D02*
X022524Y009447D01*
X022569Y009447D02*
X022433Y009447D01*
X022433Y009357D02*
X022433Y009628D01*
X022569Y009628D01*
X022614Y009582D01*
X022614Y009492D01*
X022569Y009447D01*
X022582Y008939D02*
X022582Y008668D01*
X022492Y008668D02*
X022672Y008668D01*
X022787Y008713D02*
X022832Y008668D01*
X022922Y008668D01*
X022967Y008713D01*
X022967Y008803D01*
X022922Y008848D01*
X022877Y008848D01*
X022787Y008803D01*
X022787Y008939D01*
X022967Y008939D01*
X022582Y008939D02*
X022492Y008848D01*
X022377Y008803D02*
X022332Y008758D01*
X022197Y008758D01*
X022197Y008668D02*
X022197Y008939D01*
X022332Y008939D01*
X022377Y008893D01*
X022377Y008803D01*
X022287Y008758D02*
X022377Y008668D01*
X021662Y009141D02*
X021662Y009411D01*
X021527Y009276D01*
X021707Y009276D01*
X021412Y009141D02*
X021232Y009141D01*
X021322Y009141D02*
X021322Y009411D01*
X021232Y009321D01*
X021118Y009366D02*
X021118Y009276D01*
X021073Y009231D01*
X020937Y009231D01*
X020937Y009141D02*
X020937Y009411D01*
X021073Y009411D01*
X021118Y009366D01*
X021027Y009231D02*
X021118Y009141D01*
X018046Y007596D02*
X018046Y004998D01*
X018046Y007596D02*
X012046Y007596D01*
X012046Y004998D01*
X009046Y004998D02*
X009046Y007596D01*
X003046Y007596D01*
X003046Y004998D01*
X001866Y009924D02*
X001911Y009969D01*
X001911Y010014D01*
X001866Y010059D01*
X001641Y010059D01*
X001641Y010014D02*
X001641Y010104D01*
X001641Y010219D02*
X001641Y010354D01*
X001686Y010399D01*
X001776Y010399D01*
X001821Y010354D01*
X001821Y010219D01*
X001911Y010219D02*
X001641Y010219D01*
X001686Y010514D02*
X001641Y010559D01*
X001641Y010649D01*
X001686Y010694D01*
X001731Y010694D01*
X001776Y010649D01*
X001821Y010694D01*
X001866Y010694D01*
X001911Y010649D01*
X001911Y010559D01*
X001866Y010514D01*
X001776Y010604D02*
X001776Y010649D01*
X002183Y011011D02*
X002138Y011056D01*
X002183Y011011D02*
X002273Y011011D01*
X002318Y011056D01*
X002318Y011101D01*
X002273Y011146D01*
X002228Y011146D01*
X002273Y011146D02*
X002318Y011191D01*
X002318Y011236D01*
X002273Y011281D01*
X002183Y011281D01*
X002138Y011236D01*
X002433Y011281D02*
X002433Y011101D01*
X002523Y011011D01*
X002613Y011101D01*
X002613Y011281D01*
X002727Y011236D02*
X002773Y011281D01*
X002863Y011281D01*
X002908Y011236D01*
X002908Y011191D01*
X002863Y011146D01*
X002908Y011101D01*
X002908Y011056D01*
X002863Y011011D01*
X002773Y011011D01*
X002727Y011056D01*
X002818Y011146D02*
X002863Y011146D01*
X002912Y011995D02*
X003002Y011995D01*
X003047Y012040D01*
X003047Y012130D01*
X002957Y012130D01*
X003047Y012220D02*
X003002Y012265D01*
X002912Y012265D01*
X002867Y012220D01*
X002867Y012040D01*
X002912Y011995D01*
X003161Y011995D02*
X003161Y012265D01*
X003341Y011995D01*
X003341Y012265D01*
X003456Y012265D02*
X003456Y011995D01*
X003591Y011995D01*
X003636Y012040D01*
X003636Y012220D01*
X003591Y012265D01*
X003456Y012265D01*
X003851Y012265D02*
X004031Y012265D01*
X003941Y012265D02*
X003941Y011995D01*
X004145Y012040D02*
X004190Y011995D01*
X004281Y011995D01*
X004326Y012040D01*
X004440Y011995D02*
X004440Y012265D01*
X004326Y012220D02*
X004281Y012265D01*
X004190Y012265D01*
X004145Y012220D01*
X004145Y012040D01*
X004440Y012085D02*
X004620Y012265D01*
X004485Y012130D02*
X004620Y011995D01*
X004964Y011995D02*
X004964Y012265D01*
X004874Y012265D02*
X005055Y012265D01*
X005169Y012265D02*
X005304Y012265D01*
X005349Y012220D01*
X005349Y012040D01*
X005304Y011995D01*
X005169Y011995D01*
X005169Y012265D01*
X005464Y012220D02*
X005464Y012040D01*
X005509Y011995D01*
X005599Y011995D01*
X005644Y012040D01*
X005644Y012220D01*
X005599Y012265D01*
X005509Y012265D01*
X005464Y012220D01*
X005898Y012265D02*
X006078Y012265D01*
X005988Y012265D02*
X005988Y011995D01*
X006193Y011995D02*
X006193Y012265D01*
X006328Y012265D01*
X006373Y012220D01*
X006373Y012040D01*
X006328Y011995D01*
X006193Y011995D01*
X006487Y011995D02*
X006577Y011995D01*
X006532Y011995D02*
X006532Y012265D01*
X006487Y012265D02*
X006577Y012265D01*
X006843Y012265D02*
X007023Y012265D01*
X006933Y012265D02*
X006933Y011995D01*
X007138Y011995D02*
X007138Y012265D01*
X007228Y012175D01*
X007318Y012265D01*
X007318Y011995D01*
X007432Y012040D02*
X007477Y011995D01*
X007567Y011995D01*
X007612Y012040D01*
X007612Y012085D01*
X007567Y012130D01*
X007477Y012130D01*
X007432Y012175D01*
X007432Y012220D01*
X007477Y012265D01*
X007567Y012265D01*
X007612Y012220D01*
X008275Y012191D02*
X008410Y012191D01*
X008365Y012281D01*
X008365Y012326D01*
X008410Y012371D01*
X008500Y012371D01*
X008545Y012326D01*
X008545Y012236D01*
X008500Y012191D01*
X008545Y012076D02*
X008545Y011896D01*
X008365Y012076D01*
X008320Y012076D01*
X008275Y012031D01*
X008275Y011941D01*
X008320Y011896D01*
X008320Y011782D02*
X008275Y011736D01*
X008275Y011646D01*
X008320Y011601D01*
X008500Y011601D01*
X008545Y011646D01*
X008545Y011736D01*
X008500Y011782D01*
X008275Y012191D02*
X008275Y012371D01*
X010617Y010633D02*
X010617Y010543D01*
X010662Y010498D01*
X010662Y010383D02*
X010752Y010383D01*
X010797Y010338D01*
X010797Y010203D01*
X010887Y010203D02*
X010617Y010203D01*
X010617Y010338D01*
X010662Y010383D01*
X010887Y010498D02*
X010707Y010678D01*
X010662Y010678D01*
X010617Y010633D01*
X010887Y010678D02*
X010887Y010498D01*
X010842Y010044D02*
X010617Y010044D01*
X010617Y009999D02*
X010617Y010089D01*
X010842Y010044D02*
X010887Y009999D01*
X010887Y009954D01*
X010842Y009908D01*
X011179Y011011D02*
X011134Y011056D01*
X011179Y011011D02*
X011269Y011011D01*
X011314Y011056D01*
X011314Y011101D01*
X011269Y011146D01*
X011224Y011146D01*
X011269Y011146D02*
X011314Y011191D01*
X011314Y011236D01*
X011269Y011281D01*
X011179Y011281D01*
X011134Y011236D01*
X011429Y011281D02*
X011429Y011101D01*
X011519Y011011D01*
X011609Y011101D01*
X011609Y011281D01*
X011724Y011236D02*
X011769Y011281D01*
X011859Y011281D01*
X011904Y011236D01*
X011904Y011191D01*
X011859Y011146D01*
X011904Y011101D01*
X011904Y011056D01*
X011859Y011011D01*
X011769Y011011D01*
X011724Y011056D01*
X011814Y011146D02*
X011859Y011146D01*
X013260Y011146D02*
X013350Y011191D01*
X013395Y011191D01*
X013440Y011146D01*
X013440Y011056D01*
X013395Y011011D01*
X013305Y011011D01*
X013260Y011056D01*
X013260Y011146D02*
X013260Y011281D01*
X013440Y011281D01*
X013555Y011281D02*
X013555Y011101D01*
X013645Y011011D01*
X013735Y011101D01*
X013735Y011281D01*
X011065Y012434D02*
X011065Y012524D01*
X011020Y012569D01*
X011065Y012683D02*
X010884Y012864D01*
X010839Y012864D01*
X010794Y012819D01*
X010794Y012728D01*
X010839Y012683D01*
X010839Y012569D02*
X010794Y012524D01*
X010794Y012434D01*
X010839Y012389D01*
X011020Y012389D01*
X011065Y012434D01*
X011065Y012683D02*
X011065Y012864D01*
X010929Y012978D02*
X010929Y013158D01*
X010794Y013113D02*
X010929Y012978D01*
X010794Y013113D02*
X011065Y013113D01*
X012518Y015440D02*
X012608Y015440D01*
X012653Y015485D01*
X012767Y015440D02*
X012948Y015620D01*
X012948Y015665D01*
X012903Y015710D01*
X012813Y015710D01*
X012767Y015665D01*
X012653Y015665D02*
X012608Y015710D01*
X012518Y015710D01*
X012473Y015665D01*
X012473Y015485D01*
X012518Y015440D01*
X012767Y015440D02*
X012948Y015440D01*
X013062Y015485D02*
X013107Y015440D01*
X013197Y015440D01*
X013242Y015485D01*
X013242Y015665D01*
X013197Y015710D01*
X013107Y015710D01*
X013062Y015665D01*
X013062Y015620D01*
X013107Y015575D01*
X013242Y015575D01*
X013197Y016503D02*
X013242Y016548D01*
X013242Y016593D01*
X013197Y016638D01*
X013062Y016638D01*
X013062Y016548D01*
X013107Y016503D01*
X013197Y016503D01*
X013062Y016638D02*
X013152Y016728D01*
X013242Y016773D01*
X012948Y016728D02*
X012903Y016773D01*
X012813Y016773D01*
X012767Y016728D01*
X012653Y016728D02*
X012608Y016773D01*
X012518Y016773D01*
X012473Y016728D01*
X012473Y016548D01*
X012518Y016503D01*
X012608Y016503D01*
X012653Y016548D01*
X012767Y016503D02*
X012948Y016683D01*
X012948Y016728D01*
X012948Y016503D02*
X012767Y016503D01*
X013156Y017856D02*
X013393Y017856D01*
X013407Y018137D02*
X013137Y018137D01*
X013407Y018137D02*
X013407Y018317D01*
X013362Y018431D02*
X013407Y018477D01*
X013407Y018567D01*
X013362Y018612D01*
X013317Y018612D01*
X013272Y018567D01*
X013272Y018522D01*
X013272Y018567D02*
X013227Y018612D01*
X013182Y018612D01*
X013137Y018567D01*
X013137Y018477D01*
X013182Y018431D01*
X013156Y018919D02*
X013393Y018919D01*
X012809Y019205D02*
X012764Y019160D01*
X012674Y019160D01*
X012629Y019205D01*
X012629Y019251D01*
X012674Y019296D01*
X012764Y019296D01*
X012809Y019251D01*
X012809Y019205D01*
X012764Y019296D02*
X012809Y019341D01*
X012809Y019386D01*
X012764Y019431D01*
X012674Y019431D01*
X012629Y019386D01*
X012629Y019341D01*
X012674Y019296D01*
X012515Y019296D02*
X012515Y019205D01*
X012470Y019160D01*
X012379Y019160D01*
X012334Y019205D01*
X012334Y019296D02*
X012424Y019341D01*
X012470Y019341D01*
X012515Y019296D01*
X012515Y019431D02*
X012334Y019431D01*
X012334Y019296D01*
X012220Y019386D02*
X012175Y019431D01*
X012085Y019431D01*
X012040Y019386D01*
X012040Y019205D01*
X012085Y019160D01*
X012175Y019160D01*
X012220Y019205D01*
X012278Y019653D02*
X012098Y019653D01*
X012278Y019833D01*
X012278Y019878D01*
X012233Y019923D01*
X012143Y019923D01*
X012098Y019878D01*
X011984Y019878D02*
X011984Y019788D01*
X011939Y019743D01*
X011804Y019743D01*
X011894Y019743D02*
X011984Y019653D01*
X011804Y019653D02*
X011804Y019923D01*
X011939Y019923D01*
X011984Y019878D01*
X012393Y019923D02*
X012573Y019923D01*
X012573Y019878D01*
X012393Y019698D01*
X012393Y019653D01*
X013063Y019717D02*
X013108Y019672D01*
X013199Y019672D01*
X013244Y019717D01*
X013358Y019717D02*
X013403Y019672D01*
X013493Y019672D01*
X013538Y019717D01*
X013538Y019807D01*
X013493Y019852D01*
X013448Y019852D01*
X013358Y019807D01*
X013358Y019942D01*
X013538Y019942D01*
X013653Y019807D02*
X013788Y019807D01*
X013833Y019762D01*
X013833Y019717D01*
X013788Y019672D01*
X013698Y019672D01*
X013653Y019717D01*
X013653Y019807D01*
X013743Y019897D01*
X013833Y019942D01*
X013275Y020080D02*
X015007Y020080D01*
X015741Y019923D02*
X015741Y019653D01*
X015741Y019743D02*
X015876Y019743D01*
X015921Y019788D01*
X015921Y019878D01*
X015876Y019923D01*
X015741Y019923D01*
X015831Y019743D02*
X015921Y019653D01*
X016035Y019653D02*
X016215Y019833D01*
X016215Y019878D01*
X016170Y019923D01*
X016080Y019923D01*
X016035Y019878D01*
X016035Y019653D02*
X016215Y019653D01*
X016330Y019698D02*
X016330Y019743D01*
X016375Y019788D01*
X016465Y019788D01*
X016510Y019743D01*
X016510Y019698D01*
X016465Y019653D01*
X016375Y019653D01*
X016330Y019698D01*
X016375Y019788D02*
X016330Y019833D01*
X016330Y019878D01*
X016375Y019923D01*
X016465Y019923D01*
X016510Y019878D01*
X016510Y019833D01*
X016465Y019788D01*
X016189Y019431D02*
X016234Y019386D01*
X016054Y019205D01*
X016099Y019160D01*
X016189Y019160D01*
X016234Y019205D01*
X016234Y019386D01*
X016189Y019431D02*
X016099Y019431D01*
X016054Y019386D01*
X016054Y019205D01*
X015940Y019205D02*
X015940Y019251D01*
X015895Y019296D01*
X015760Y019296D01*
X015760Y019205D01*
X015805Y019160D01*
X015895Y019160D01*
X015940Y019205D01*
X015760Y019296D02*
X015850Y019386D01*
X015940Y019431D01*
X015645Y019386D02*
X015600Y019431D01*
X015510Y019431D01*
X015465Y019386D01*
X015465Y019205D01*
X015510Y019160D01*
X015600Y019160D01*
X015645Y019205D01*
X015125Y018919D02*
X014889Y018919D01*
X015004Y018651D02*
X015004Y018471D01*
X014869Y018606D01*
X015139Y018606D01*
X015139Y018356D02*
X015139Y018176D01*
X014869Y018176D01*
X014889Y017856D02*
X015125Y017856D01*
X016626Y016852D02*
X016626Y016627D01*
X016671Y016582D01*
X016761Y016582D01*
X016807Y016627D01*
X016807Y016852D01*
X016921Y016717D02*
X017056Y016717D01*
X017101Y016672D01*
X017101Y016627D01*
X017056Y016582D01*
X016966Y016582D01*
X016921Y016627D01*
X016921Y016717D01*
X017011Y016807D01*
X017101Y016852D01*
X017113Y016498D02*
X017231Y016498D01*
X017231Y016380D01*
X017231Y015986D02*
X017231Y015868D01*
X017113Y015868D01*
X016523Y015868D02*
X016405Y015868D01*
X016405Y015986D01*
X016405Y016380D02*
X016405Y016498D01*
X016523Y016498D01*
X015801Y015980D02*
X015621Y015800D01*
X015666Y015755D01*
X015756Y015755D01*
X015801Y015800D01*
X015801Y015980D01*
X015756Y016025D01*
X015666Y016025D01*
X015621Y015980D01*
X015621Y015800D01*
X015507Y015890D02*
X015327Y015890D01*
X015462Y016025D01*
X015462Y015755D01*
X015212Y015800D02*
X015167Y015755D01*
X015077Y015755D01*
X015032Y015800D01*
X015032Y015980D01*
X015077Y016025D01*
X015167Y016025D01*
X015212Y015980D01*
X011999Y018609D02*
X011999Y018654D01*
X012179Y018834D01*
X012179Y018879D01*
X011999Y018879D01*
X011885Y018834D02*
X011840Y018879D01*
X011750Y018879D01*
X011704Y018834D01*
X011590Y018834D02*
X011545Y018879D01*
X011455Y018879D01*
X011410Y018834D01*
X011410Y018654D01*
X011455Y018609D01*
X011545Y018609D01*
X011590Y018654D01*
X011704Y018609D02*
X011885Y018789D01*
X011885Y018834D01*
X011885Y018609D02*
X011704Y018609D01*
X011628Y019121D02*
X011448Y019121D01*
X011628Y019301D01*
X011628Y019346D01*
X011583Y019391D01*
X011493Y019391D01*
X011448Y019346D01*
X011333Y019346D02*
X011288Y019391D01*
X011198Y019391D01*
X011153Y019346D01*
X011039Y019346D02*
X010994Y019391D01*
X010904Y019391D01*
X010859Y019346D01*
X010859Y019166D01*
X010904Y019121D01*
X010994Y019121D01*
X011039Y019166D01*
X011153Y019121D02*
X011333Y019301D01*
X011333Y019346D01*
X011333Y019121D02*
X011153Y019121D01*
X010198Y019515D02*
X009928Y019515D01*
X009928Y019650D01*
X009973Y019695D01*
X010063Y019695D01*
X010108Y019650D01*
X010108Y019515D01*
X010108Y019605D02*
X010198Y019695D01*
X010198Y019809D02*
X010198Y019990D01*
X010198Y019899D02*
X009928Y019899D01*
X010018Y019809D01*
X010018Y020104D02*
X009928Y020194D01*
X010198Y020194D01*
X010198Y020104D02*
X010198Y020284D01*
X009975Y020367D02*
X009975Y020412D01*
X009930Y020457D01*
X009794Y020457D01*
X009794Y020367D01*
X009839Y020322D01*
X009930Y020322D01*
X009975Y020367D01*
X009884Y020547D02*
X009794Y020457D01*
X009884Y020547D02*
X009975Y020592D01*
X009590Y020592D02*
X009590Y020322D01*
X009500Y020322D02*
X009680Y020322D01*
X009680Y020198D02*
X009500Y020198D01*
X009500Y020063D01*
X009590Y020108D01*
X009635Y020108D01*
X009680Y020063D01*
X009680Y019973D01*
X009635Y019928D01*
X009545Y019928D01*
X009500Y019973D01*
X009385Y019928D02*
X009295Y020018D01*
X009340Y020018D02*
X009205Y020018D01*
X009205Y019928D02*
X009205Y020198D01*
X009340Y020198D01*
X009385Y020153D01*
X009385Y020063D01*
X009340Y020018D01*
X009340Y019805D02*
X009385Y019760D01*
X009385Y019670D01*
X009340Y019625D01*
X009205Y019625D01*
X009295Y019625D02*
X009385Y019534D01*
X009500Y019579D02*
X009545Y019534D01*
X009635Y019534D01*
X009680Y019579D01*
X009680Y019625D01*
X009635Y019670D01*
X009500Y019670D01*
X009500Y019579D01*
X009500Y019670D02*
X009590Y019760D01*
X009680Y019805D01*
X009340Y019805D02*
X009205Y019805D01*
X009205Y019534D01*
X009328Y019135D02*
X009283Y019090D01*
X009328Y019135D02*
X009418Y019135D01*
X009463Y019090D01*
X009463Y019045D01*
X009283Y018865D01*
X009463Y018865D01*
X009168Y018865D02*
X008988Y018865D01*
X009078Y018865D02*
X009078Y019135D01*
X008988Y019045D01*
X008873Y019000D02*
X008828Y018955D01*
X008693Y018955D01*
X008693Y018865D02*
X008693Y019135D01*
X008828Y019135D01*
X008873Y019090D01*
X008873Y019000D01*
X008783Y018955D02*
X008873Y018865D01*
X007906Y019392D02*
X007226Y019392D01*
X007428Y019790D02*
X007653Y019790D01*
X007698Y019835D01*
X007698Y019925D01*
X007653Y019971D01*
X007428Y019971D01*
X007473Y020085D02*
X007428Y020130D01*
X007428Y020220D01*
X007473Y020265D01*
X007518Y020265D01*
X007563Y020220D01*
X007608Y020265D01*
X007653Y020265D01*
X007698Y020220D01*
X007698Y020130D01*
X007653Y020085D01*
X007563Y020175D02*
X007563Y020220D01*
X007446Y020612D02*
X007448Y020591D01*
X007453Y020571D01*
X007462Y020552D01*
X007474Y020535D01*
X007489Y020520D01*
X007506Y020508D01*
X007525Y020499D01*
X007545Y020494D01*
X007566Y020492D01*
X007587Y020494D01*
X007607Y020499D01*
X007626Y020508D01*
X007643Y020520D01*
X007658Y020535D01*
X007670Y020552D01*
X007679Y020571D01*
X007684Y020591D01*
X007686Y020612D01*
X007446Y020612D01*
X007226Y020612D01*
X007686Y020612D02*
X007906Y020612D01*
X007685Y021838D02*
X007550Y021838D01*
X007550Y022108D01*
X007685Y022108D01*
X007730Y022063D01*
X007730Y021883D01*
X007685Y021838D01*
X007436Y021838D02*
X007436Y022108D01*
X007256Y022108D02*
X007436Y021838D01*
X007256Y021838D02*
X007256Y022108D01*
X007141Y022063D02*
X007096Y022108D01*
X007006Y022108D01*
X006961Y022063D01*
X006961Y021883D01*
X007006Y021838D01*
X007096Y021838D01*
X007141Y021883D01*
X007141Y021973D01*
X007051Y021973D01*
X005912Y022324D02*
X005912Y021537D01*
X001227Y021537D01*
X004456Y019097D02*
X004501Y019142D01*
X004546Y019142D01*
X004591Y019097D01*
X004591Y019007D01*
X004546Y018962D01*
X004501Y018962D01*
X004456Y019007D01*
X004456Y019097D01*
X004591Y019097D02*
X004636Y019142D01*
X004681Y019142D01*
X004726Y019097D01*
X004726Y019007D01*
X004681Y018962D01*
X004636Y018962D01*
X004591Y019007D01*
X004726Y018848D02*
X004726Y018668D01*
X004726Y018758D02*
X004456Y018758D01*
X004546Y018668D01*
X004501Y018553D02*
X004456Y018508D01*
X004456Y018418D01*
X004501Y018373D01*
X004681Y018373D01*
X004726Y018418D01*
X004726Y018508D01*
X004681Y018553D01*
X004352Y018231D02*
X004352Y018141D01*
X004307Y018096D01*
X004127Y018276D01*
X004307Y018276D01*
X004352Y018231D01*
X004307Y018096D02*
X004127Y018096D01*
X004082Y018141D01*
X004082Y018231D01*
X004127Y018276D01*
X004127Y017982D02*
X004082Y017937D01*
X004082Y017847D01*
X004127Y017802D01*
X004127Y017687D02*
X004082Y017642D01*
X004082Y017552D01*
X004127Y017507D01*
X004307Y017507D01*
X004352Y017552D01*
X004352Y017642D01*
X004307Y017687D01*
X004352Y017802D02*
X004172Y017982D01*
X004127Y017982D01*
X004352Y017982D02*
X004352Y017802D01*
X004889Y017659D02*
X004889Y017462D01*
X005086Y017462D01*
X005297Y017253D02*
X005297Y017073D01*
X005297Y017163D02*
X005027Y017163D01*
X005117Y017073D01*
X005117Y016958D02*
X005072Y016958D01*
X005027Y016913D01*
X005027Y016823D01*
X005072Y016778D01*
X005072Y016663D02*
X005027Y016618D01*
X005027Y016528D01*
X005072Y016483D01*
X005252Y016483D01*
X005297Y016528D01*
X005297Y016618D01*
X005252Y016663D01*
X005297Y016778D02*
X005117Y016958D01*
X005297Y016958D02*
X005297Y016778D01*
X005780Y016810D02*
X005915Y016810D01*
X005960Y016855D01*
X005960Y016945D01*
X005915Y016990D01*
X005780Y016990D01*
X005780Y016719D01*
X005870Y016810D02*
X005960Y016719D01*
X006075Y016765D02*
X006120Y016719D01*
X006210Y016719D01*
X006255Y016765D01*
X006255Y016945D01*
X006210Y016990D01*
X006120Y016990D01*
X006075Y016945D01*
X006075Y016900D01*
X006120Y016855D01*
X006255Y016855D01*
X005755Y017561D02*
X005440Y017561D01*
X004968Y017994D02*
X004968Y018112D01*
X005440Y018545D02*
X005755Y018545D01*
X006227Y018112D02*
X006227Y017994D01*
X006882Y018556D02*
X006927Y018511D01*
X007017Y018511D01*
X007062Y018556D01*
X007177Y018556D02*
X007222Y018511D01*
X007312Y018511D01*
X007357Y018556D01*
X007357Y018601D01*
X007312Y018646D01*
X007267Y018646D01*
X007312Y018646D02*
X007357Y018691D01*
X007357Y018736D01*
X007312Y018781D01*
X007222Y018781D01*
X007177Y018736D01*
X007062Y018736D02*
X007017Y018781D01*
X006927Y018781D01*
X006882Y018736D01*
X006882Y018556D01*
X007472Y018556D02*
X007472Y018736D01*
X007517Y018781D01*
X007607Y018781D01*
X007652Y018736D01*
X007472Y018556D01*
X007517Y018511D01*
X007607Y018511D01*
X007652Y018556D01*
X007652Y018736D01*
X006195Y019186D02*
X006150Y019141D01*
X006060Y019141D01*
X006015Y019186D01*
X005900Y019141D02*
X005720Y019141D01*
X005900Y019321D01*
X005900Y019366D01*
X005855Y019411D01*
X005765Y019411D01*
X005720Y019366D01*
X005606Y019366D02*
X005561Y019411D01*
X005471Y019411D01*
X005426Y019366D01*
X005426Y019186D01*
X005471Y019141D01*
X005561Y019141D01*
X005606Y019186D01*
X006015Y019366D02*
X006060Y019411D01*
X006150Y019411D01*
X006195Y019366D01*
X006195Y019321D01*
X006150Y019276D01*
X006195Y019231D01*
X006195Y019186D01*
X006150Y019276D02*
X006105Y019276D01*
X006093Y020499D02*
X006093Y020634D01*
X006048Y020679D01*
X005957Y020679D01*
X005912Y020634D01*
X005912Y020499D01*
X006183Y020499D01*
X006093Y020589D02*
X006183Y020679D01*
X006138Y020794D02*
X006093Y020794D01*
X006048Y020839D01*
X006048Y020929D01*
X006093Y020974D01*
X006138Y020974D01*
X006183Y020929D01*
X006183Y020839D01*
X006138Y020794D01*
X006048Y020839D02*
X006003Y020794D01*
X005957Y020794D01*
X005912Y020839D01*
X005912Y020929D01*
X005957Y020974D01*
X006003Y020974D01*
X006048Y020929D01*
X005828Y020794D02*
X005783Y020794D01*
X005603Y020974D01*
X005558Y020974D01*
X005558Y020794D01*
X005603Y020679D02*
X005693Y020679D01*
X005738Y020634D01*
X005738Y020499D01*
X005738Y020589D02*
X005828Y020679D01*
X005828Y020499D02*
X005558Y020499D01*
X005558Y020634D01*
X005603Y020679D01*
X008378Y021838D02*
X008513Y021838D01*
X008559Y021883D01*
X008559Y022063D01*
X008513Y022108D01*
X008378Y022108D01*
X008378Y021838D01*
X008673Y021838D02*
X008853Y021838D01*
X008763Y021838D02*
X008763Y022108D01*
X008673Y022018D01*
X009250Y020592D02*
X009205Y020547D01*
X009205Y020367D01*
X009250Y020322D01*
X009340Y020322D01*
X009385Y020367D01*
X009500Y020502D02*
X009590Y020592D01*
X009385Y020547D02*
X009340Y020592D01*
X009250Y020592D01*
X010775Y021922D02*
X010820Y021877D01*
X011000Y021877D01*
X011045Y021922D01*
X011045Y022012D01*
X011000Y022057D01*
X010910Y022172D02*
X010910Y022352D01*
X011045Y022307D02*
X010775Y022307D01*
X010910Y022172D01*
X010820Y022057D02*
X010775Y022012D01*
X010775Y021922D01*
X011449Y020986D02*
X011584Y020986D01*
X011629Y020941D01*
X011629Y020851D01*
X011584Y020806D01*
X011449Y020806D01*
X011539Y020806D02*
X011629Y020716D01*
X011744Y020716D02*
X011924Y020896D01*
X011924Y020941D01*
X011879Y020986D01*
X011789Y020986D01*
X011744Y020941D01*
X011744Y020716D02*
X011924Y020716D01*
X012039Y020761D02*
X012084Y020716D01*
X012174Y020716D01*
X012219Y020761D01*
X012219Y020806D01*
X012174Y020851D01*
X012039Y020851D01*
X012039Y020761D01*
X012039Y020851D02*
X012129Y020941D01*
X012219Y020986D01*
X011449Y020986D02*
X011449Y020716D01*
X013063Y019897D02*
X013063Y019717D01*
X013063Y019897D02*
X013108Y019942D01*
X013199Y019942D01*
X013244Y019897D01*
X013817Y021759D02*
X013907Y021759D01*
X013952Y021804D01*
X013952Y022029D01*
X014067Y021939D02*
X014157Y022029D01*
X014157Y021759D01*
X014067Y021759D02*
X014247Y021759D01*
X014361Y021759D02*
X014542Y021939D01*
X014542Y021984D01*
X014496Y022029D01*
X014406Y022029D01*
X014361Y021984D01*
X014361Y021759D02*
X014542Y021759D01*
X015007Y022206D02*
X013275Y022206D01*
X013196Y022206D02*
X013196Y022285D01*
X013393Y022285D01*
X013772Y022029D02*
X013772Y021804D01*
X013817Y021759D01*
X013709Y022940D02*
X013619Y022940D01*
X013574Y022985D01*
X013574Y023075D02*
X013664Y023120D01*
X013709Y023120D01*
X013754Y023075D01*
X013754Y022985D01*
X013709Y022940D01*
X013574Y023075D02*
X013574Y023210D01*
X013754Y023210D01*
X013459Y023210D02*
X013279Y023210D01*
X013279Y023075D01*
X013369Y023120D01*
X013414Y023120D01*
X013459Y023075D01*
X013459Y022985D01*
X013414Y022940D01*
X013324Y022940D01*
X013279Y022985D01*
X013165Y022985D02*
X013120Y022940D01*
X013030Y022940D01*
X012985Y022985D01*
X012985Y023165D01*
X013030Y023210D01*
X013120Y023210D01*
X013165Y023165D01*
X012586Y023407D02*
X012113Y023880D01*
X012113Y024746D01*
X012113Y025336D02*
X012113Y026202D01*
X012586Y026675D01*
X015125Y026675D01*
X015156Y026673D01*
X015186Y026668D01*
X015216Y026658D01*
X015244Y026646D01*
X015270Y026630D01*
X015295Y026611D01*
X015317Y026589D01*
X015336Y026564D01*
X015352Y026538D01*
X015364Y026510D01*
X015374Y026480D01*
X015379Y026450D01*
X015381Y026419D01*
X015381Y025336D01*
X015381Y024746D02*
X015381Y023663D01*
X015379Y023632D01*
X015374Y023602D01*
X015364Y023572D01*
X015352Y023544D01*
X015336Y023518D01*
X015317Y023493D01*
X015295Y023471D01*
X015270Y023452D01*
X015244Y023436D01*
X015216Y023424D01*
X015186Y023414D01*
X015156Y023409D01*
X015125Y023407D01*
X012586Y023407D01*
X012060Y022922D02*
X012240Y022742D01*
X012285Y022742D01*
X012240Y022627D02*
X012285Y022582D01*
X012285Y022492D01*
X012240Y022447D01*
X012150Y022447D02*
X012105Y022537D01*
X012105Y022582D01*
X012150Y022627D01*
X012240Y022627D01*
X012150Y022447D02*
X012015Y022447D01*
X012015Y022627D01*
X012015Y022742D02*
X012015Y022922D01*
X012060Y022922D01*
X012060Y022333D02*
X012015Y022288D01*
X012015Y022198D01*
X012060Y022153D01*
X012240Y022153D01*
X012285Y022198D01*
X012285Y022288D01*
X012240Y022333D01*
X011242Y023261D02*
X011242Y023351D01*
X011197Y023396D01*
X010972Y023396D01*
X011017Y023510D02*
X011062Y023510D01*
X011107Y023555D01*
X011107Y023645D01*
X011152Y023690D01*
X011197Y023690D01*
X011242Y023645D01*
X011242Y023555D01*
X011197Y023510D01*
X011017Y023510D02*
X010972Y023555D01*
X010972Y023645D01*
X011017Y023690D01*
X010972Y023805D02*
X010972Y023940D01*
X011017Y023985D01*
X011062Y023985D01*
X011107Y023940D01*
X011107Y023805D01*
X011242Y023805D02*
X011242Y023940D01*
X011197Y023985D01*
X011152Y023985D01*
X011107Y023940D01*
X011242Y023805D02*
X010972Y023805D01*
X010769Y023739D02*
X010724Y023784D01*
X010499Y023784D01*
X010499Y023739D02*
X010499Y023829D01*
X010499Y023943D02*
X010499Y024078D01*
X010544Y024123D01*
X010634Y024123D01*
X010679Y024078D01*
X010679Y023943D01*
X010769Y023943D02*
X010499Y023943D01*
X010589Y024238D02*
X010499Y024328D01*
X010769Y024328D01*
X010769Y024238D02*
X010769Y024418D01*
X011062Y024414D02*
X011107Y024459D01*
X011152Y024459D01*
X011152Y024279D01*
X011197Y024279D02*
X011107Y024279D01*
X011062Y024324D01*
X011062Y024414D01*
X011062Y024573D02*
X011242Y024753D01*
X011197Y024913D02*
X011242Y024958D01*
X011197Y024913D02*
X011017Y024913D01*
X011062Y024868D02*
X011062Y024958D01*
X011197Y025064D02*
X011197Y025109D01*
X011242Y025109D01*
X011242Y025064D01*
X011197Y025064D01*
X011062Y024753D02*
X011242Y024573D01*
X011242Y024414D02*
X011242Y024324D01*
X011197Y024279D01*
X010769Y023739D02*
X010769Y023694D01*
X010724Y023649D01*
X010972Y023216D02*
X011197Y023216D01*
X011242Y023261D01*
X014559Y023165D02*
X014559Y022985D01*
X014604Y022940D01*
X014695Y022940D01*
X014740Y022985D01*
X014854Y022985D02*
X014899Y022940D01*
X014989Y022940D01*
X015034Y022985D01*
X015034Y023075D01*
X014989Y023120D01*
X014944Y023120D01*
X014854Y023075D01*
X014854Y023210D01*
X015034Y023210D01*
X015149Y023075D02*
X015329Y023075D01*
X015284Y022940D02*
X015284Y023210D01*
X015149Y023075D01*
X014740Y023165D02*
X014695Y023210D01*
X014604Y023210D01*
X014559Y023165D01*
X015952Y022877D02*
X015952Y022787D01*
X015997Y022742D01*
X016042Y022742D01*
X016087Y022787D01*
X016087Y022922D01*
X016177Y022922D02*
X015997Y022922D01*
X015952Y022877D01*
X016177Y022922D02*
X016222Y022877D01*
X016222Y022787D01*
X016177Y022742D01*
X016177Y022627D02*
X016222Y022582D01*
X016222Y022492D01*
X016177Y022447D01*
X016087Y022447D02*
X016042Y022537D01*
X016042Y022582D01*
X016087Y022627D01*
X016177Y022627D01*
X016087Y022447D02*
X015952Y022447D01*
X015952Y022627D01*
X015997Y022333D02*
X015952Y022288D01*
X015952Y022198D01*
X015997Y022153D01*
X016177Y022153D01*
X016222Y022198D01*
X016222Y022288D01*
X016177Y022333D01*
X016995Y022777D02*
X016995Y024313D01*
X017473Y023683D02*
X017473Y023457D01*
X017518Y023412D01*
X017608Y023412D01*
X017653Y023457D01*
X017653Y023683D01*
X017767Y023638D02*
X017767Y023593D01*
X017813Y023548D01*
X017948Y023548D01*
X017948Y023638D02*
X017948Y023457D01*
X017903Y023412D01*
X017813Y023412D01*
X017767Y023457D01*
X017767Y023638D02*
X017813Y023683D01*
X017903Y023683D01*
X017948Y023638D01*
X018924Y024313D02*
X018924Y022777D01*
X018934Y021891D02*
X018889Y021846D01*
X018889Y021801D01*
X018934Y021756D01*
X019069Y021756D01*
X019069Y021666D02*
X019069Y021846D01*
X019024Y021891D01*
X018934Y021891D01*
X018889Y021666D02*
X018934Y021621D01*
X019024Y021621D01*
X019069Y021666D01*
X018774Y021621D02*
X018594Y021621D01*
X018684Y021621D02*
X018684Y021891D01*
X018594Y021801D01*
X018480Y021756D02*
X018435Y021711D01*
X018300Y021711D01*
X018390Y021711D02*
X018480Y021621D01*
X018480Y021756D02*
X018480Y021846D01*
X018435Y021891D01*
X018300Y021891D01*
X018300Y021621D01*
X018197Y021143D02*
X018242Y021098D01*
X018062Y020918D01*
X018107Y020873D01*
X018197Y020873D01*
X018242Y020918D01*
X018242Y021098D01*
X018197Y021143D02*
X018107Y021143D01*
X018062Y021098D01*
X018062Y020918D01*
X017948Y020873D02*
X017767Y020873D01*
X017948Y021053D01*
X017948Y021098D01*
X017903Y021143D01*
X017813Y021143D01*
X017767Y021098D01*
X017653Y021098D02*
X017653Y021008D01*
X017608Y020963D01*
X017473Y020963D01*
X017563Y020963D02*
X017653Y020873D01*
X017473Y020873D02*
X017473Y021143D01*
X017608Y021143D01*
X017653Y021098D01*
X016864Y020941D02*
X016864Y020761D01*
X016819Y020716D01*
X016729Y020716D01*
X016684Y020761D01*
X016729Y020851D02*
X016864Y020851D01*
X016864Y020941D02*
X016819Y020986D01*
X016729Y020986D01*
X016684Y020941D01*
X016684Y020896D01*
X016729Y020851D01*
X016570Y020896D02*
X016570Y020941D01*
X016525Y020986D01*
X016435Y020986D01*
X016390Y020941D01*
X016275Y020941D02*
X016275Y020851D01*
X016230Y020806D01*
X016095Y020806D01*
X016185Y020806D02*
X016275Y020716D01*
X016390Y020716D02*
X016570Y020896D01*
X016570Y020716D02*
X016390Y020716D01*
X016275Y020941D02*
X016230Y020986D01*
X016095Y020986D01*
X016095Y020716D01*
X018235Y019687D02*
X018235Y012206D01*
X018432Y012009D01*
X025912Y012009D01*
X026109Y012206D01*
X026109Y019687D01*
X025912Y019883D01*
X018432Y019883D01*
X018235Y019687D01*
X021961Y017147D02*
X021961Y016922D01*
X022006Y016877D01*
X022096Y016877D01*
X022141Y016922D01*
X022141Y017147D01*
X022256Y017102D02*
X022301Y017147D01*
X022391Y017147D01*
X022436Y017102D01*
X022436Y017057D01*
X022256Y016877D01*
X022436Y016877D01*
X024653Y020814D02*
X024653Y020949D01*
X024698Y020994D01*
X024788Y020994D01*
X024833Y020949D01*
X024833Y020814D01*
X024923Y020814D02*
X024653Y020814D01*
X024833Y020904D02*
X024923Y020994D01*
X024923Y021109D02*
X024923Y021289D01*
X024923Y021199D02*
X024653Y021199D01*
X024743Y021109D01*
X024788Y021403D02*
X024788Y021538D01*
X024833Y021583D01*
X024878Y021583D01*
X024923Y021538D01*
X024923Y021448D01*
X024878Y021403D01*
X024788Y021403D01*
X024698Y021493D01*
X024653Y021583D01*
X025440Y021641D02*
X025440Y021776D01*
X025485Y021821D01*
X025575Y021821D01*
X025620Y021776D01*
X025620Y021641D01*
X025620Y021731D02*
X025710Y021821D01*
X025710Y021935D02*
X025530Y022116D01*
X025485Y022116D01*
X025440Y022071D01*
X025440Y021980D01*
X025485Y021935D01*
X025710Y021935D02*
X025710Y022116D01*
X025710Y022230D02*
X025710Y022410D01*
X025710Y022320D02*
X025440Y022320D01*
X025530Y022230D01*
X024975Y022634D02*
X024794Y022454D01*
X024794Y022408D01*
X024680Y022408D02*
X024500Y022408D01*
X024590Y022408D02*
X024590Y022679D01*
X024500Y022589D01*
X024385Y022634D02*
X024385Y022544D01*
X024340Y022499D01*
X024205Y022499D01*
X024295Y022499D02*
X024385Y022408D01*
X024205Y022408D02*
X024205Y022679D01*
X024340Y022679D01*
X024385Y022634D01*
X024794Y022679D02*
X024975Y022679D01*
X024975Y022634D01*
X024950Y023393D02*
X024950Y023663D01*
X024815Y023528D01*
X024995Y023528D01*
X025109Y023528D02*
X025244Y023528D01*
X025290Y023483D01*
X025290Y023438D01*
X025244Y023393D01*
X025154Y023393D01*
X025109Y023438D01*
X025109Y023528D01*
X025199Y023618D01*
X025290Y023663D01*
X024700Y023618D02*
X024655Y023663D01*
X024565Y023663D01*
X024520Y023618D01*
X024520Y023438D01*
X024565Y023393D01*
X024655Y023393D01*
X024700Y023438D01*
X026312Y021662D02*
X026357Y021662D01*
X026402Y021617D01*
X026402Y021527D01*
X026357Y021482D01*
X026312Y021482D01*
X026267Y021527D01*
X026267Y021617D01*
X026312Y021662D01*
X026402Y021617D02*
X026447Y021662D01*
X026492Y021662D01*
X026537Y021617D01*
X026537Y021527D01*
X026492Y021482D01*
X026447Y021482D01*
X026402Y021527D01*
X026537Y021368D02*
X026537Y021187D01*
X026537Y021277D02*
X026267Y021277D01*
X026357Y021187D01*
X026312Y021073D02*
X026402Y021073D01*
X026447Y021028D01*
X026447Y020893D01*
X026447Y020983D02*
X026537Y021073D01*
X026537Y020893D02*
X026267Y020893D01*
X026267Y021028D01*
X026312Y021073D01*
X025710Y021641D02*
X025440Y021641D01*
X028570Y019747D02*
X028705Y019612D01*
X028705Y019792D01*
X028840Y019747D02*
X028570Y019747D01*
X028570Y019497D02*
X028840Y019497D01*
X028570Y019317D01*
X028840Y019317D01*
X028840Y019203D02*
X028750Y019113D01*
X028750Y019158D02*
X028750Y019023D01*
X028840Y019023D02*
X028570Y019023D01*
X028570Y019158D01*
X028615Y019203D01*
X028705Y019203D01*
X028750Y019158D01*
X028905Y018880D02*
X028511Y018880D01*
X028511Y018013D02*
X028905Y018013D01*
X028905Y017600D02*
X028511Y017600D01*
X028511Y016734D02*
X028905Y016734D01*
X028795Y016583D02*
X028840Y016538D01*
X028840Y016448D01*
X028795Y016403D01*
X028705Y016403D02*
X028660Y016493D01*
X028660Y016538D01*
X028705Y016583D01*
X028795Y016583D01*
X028705Y016403D02*
X028570Y016403D01*
X028570Y016583D01*
X028570Y016289D02*
X028840Y016289D01*
X028570Y016109D01*
X028840Y016109D01*
X028840Y015994D02*
X028750Y015904D01*
X028750Y015949D02*
X028750Y015814D01*
X028840Y015814D02*
X028570Y015814D01*
X028570Y015949D01*
X028615Y015994D01*
X028705Y015994D01*
X028750Y015949D01*
X029259Y015968D02*
X029259Y015878D01*
X029304Y015833D01*
X029304Y015719D02*
X029394Y015719D01*
X029439Y015674D01*
X029439Y015538D01*
X029529Y015538D02*
X029259Y015538D01*
X029259Y015674D01*
X029304Y015719D01*
X029439Y015628D02*
X029529Y015719D01*
X029529Y015833D02*
X029349Y016013D01*
X029304Y016013D01*
X029259Y015968D01*
X029304Y016128D02*
X029259Y016173D01*
X029259Y016263D01*
X029304Y016308D01*
X029349Y016308D01*
X029394Y016263D01*
X029439Y016308D01*
X029484Y016308D01*
X029529Y016263D01*
X029529Y016173D01*
X029484Y016128D01*
X029529Y016013D02*
X029529Y015833D01*
X029394Y016218D02*
X029394Y016263D01*
X029057Y015087D02*
X029057Y014907D01*
X028877Y015087D01*
X028832Y015087D01*
X028786Y015042D01*
X028786Y014952D01*
X028832Y014907D01*
X028832Y014793D02*
X028786Y014748D01*
X028786Y014658D01*
X028832Y014613D01*
X028832Y014498D02*
X028922Y014498D01*
X028967Y014453D01*
X028967Y014318D01*
X029057Y014318D02*
X028786Y014318D01*
X028786Y014453D01*
X028832Y014498D01*
X028967Y014408D02*
X029057Y014498D01*
X029057Y014613D02*
X028877Y014793D01*
X028832Y014793D01*
X029057Y014793D02*
X029057Y014613D01*
X029005Y013151D02*
X028915Y013151D01*
X028870Y013106D01*
X028755Y013106D02*
X028755Y013016D01*
X028710Y012971D01*
X028575Y012971D01*
X028575Y012881D02*
X028575Y013151D01*
X028710Y013151D01*
X028755Y013106D01*
X028665Y012971D02*
X028755Y012881D01*
X028870Y012881D02*
X029050Y013061D01*
X029050Y013106D01*
X029005Y013151D01*
X029165Y013151D02*
X029165Y013016D01*
X029255Y013061D01*
X029300Y013061D01*
X029345Y013016D01*
X029345Y012926D01*
X029300Y012881D01*
X029210Y012881D01*
X029165Y012926D01*
X029050Y012881D02*
X028870Y012881D01*
X029165Y013151D02*
X029345Y013151D01*
X027247Y012246D02*
X027247Y011975D01*
X027157Y011975D02*
X027337Y011975D01*
X027157Y012156D02*
X027247Y012246D01*
X027042Y012201D02*
X027042Y012110D01*
X026997Y012065D01*
X026862Y012065D01*
X026862Y011975D02*
X026862Y012246D01*
X026997Y012246D01*
X027042Y012201D01*
X026747Y012246D02*
X026567Y012246D01*
X026657Y012246D02*
X026657Y011975D01*
X026458Y011775D02*
X026458Y011685D01*
X026413Y011640D01*
X026458Y011525D02*
X026458Y011345D01*
X026458Y011435D02*
X026188Y011435D01*
X026278Y011345D01*
X026233Y011230D02*
X026323Y011230D01*
X026368Y011185D01*
X026368Y011050D01*
X026458Y011050D02*
X026188Y011050D01*
X026188Y011185D01*
X026233Y011230D01*
X026368Y011140D02*
X026458Y011230D01*
X026233Y011640D02*
X026188Y011685D01*
X026188Y011775D01*
X026233Y011820D01*
X026278Y011820D01*
X026323Y011775D01*
X026368Y011820D01*
X026413Y011820D01*
X026458Y011775D01*
X026323Y011775D02*
X026323Y011730D01*
X026528Y010789D02*
X026708Y010789D01*
X026618Y010789D02*
X026618Y010519D01*
X026823Y010519D02*
X026823Y010789D01*
X026958Y010789D01*
X027003Y010744D01*
X027003Y010654D01*
X026958Y010609D01*
X026823Y010609D01*
X027117Y010519D02*
X027297Y010699D01*
X027297Y010744D01*
X027252Y010789D01*
X027162Y010789D01*
X027117Y010744D01*
X027117Y010519D02*
X027297Y010519D01*
X025125Y012797D02*
X025127Y012824D01*
X025133Y012851D01*
X025142Y012877D01*
X025155Y012901D01*
X025171Y012924D01*
X025190Y012943D01*
X025212Y012960D01*
X025236Y012974D01*
X025261Y012984D01*
X025288Y012991D01*
X025315Y012994D01*
X025343Y012993D01*
X025370Y012988D01*
X025396Y012980D01*
X025420Y012968D01*
X025443Y012952D01*
X025464Y012934D01*
X025481Y012913D01*
X025496Y012889D01*
X025507Y012864D01*
X025515Y012838D01*
X025519Y012811D01*
X025519Y012783D01*
X025515Y012756D01*
X025507Y012730D01*
X025496Y012705D01*
X025481Y012681D01*
X025464Y012660D01*
X025443Y012642D01*
X025421Y012626D01*
X025396Y012614D01*
X025370Y012606D01*
X025343Y012601D01*
X025315Y012600D01*
X025288Y012603D01*
X025261Y012610D01*
X025236Y012620D01*
X025212Y012634D01*
X025190Y012651D01*
X025171Y012670D01*
X025155Y012693D01*
X025142Y012717D01*
X025133Y012743D01*
X025127Y012770D01*
X025125Y012797D01*
X017861Y009998D02*
X017681Y009998D01*
X017681Y009862D01*
X017771Y009908D01*
X017816Y009908D01*
X017861Y009862D01*
X017861Y009772D01*
X017816Y009727D01*
X017726Y009727D01*
X017681Y009772D01*
X017566Y009727D02*
X017386Y009998D01*
X017566Y009998D02*
X017386Y009727D01*
X023437Y005970D02*
X023618Y005700D01*
X023732Y005700D02*
X023912Y005880D01*
X023912Y005925D01*
X023867Y005970D01*
X023777Y005970D01*
X023732Y005925D01*
X023618Y005970D02*
X023437Y005700D01*
X023732Y005700D02*
X023912Y005700D01*
X008822Y009812D02*
X008822Y009857D01*
X008777Y009902D01*
X008642Y009902D01*
X008642Y009812D01*
X008687Y009767D01*
X008777Y009767D01*
X008822Y009812D01*
X008732Y009992D02*
X008822Y010037D01*
X008732Y009992D02*
X008642Y009902D01*
X008527Y010037D02*
X008347Y009767D01*
X008527Y009767D02*
X008347Y010037D01*
X004739Y011101D02*
X004739Y011281D01*
X004739Y011101D02*
X004649Y011011D01*
X004559Y011101D01*
X004559Y011281D01*
X004444Y011281D02*
X004264Y011281D01*
X004264Y011146D01*
X004354Y011191D01*
X004399Y011191D01*
X004444Y011146D01*
X004444Y011056D01*
X004399Y011011D01*
X004309Y011011D01*
X004264Y011056D01*
X002612Y012040D02*
X002567Y011995D01*
X002477Y011995D01*
X002432Y012040D01*
X002318Y012085D02*
X002318Y012265D01*
X002432Y012220D02*
X002477Y012265D01*
X002567Y012265D01*
X002612Y012220D01*
X002612Y012175D01*
X002567Y012130D01*
X002612Y012085D01*
X002612Y012040D01*
X002567Y012130D02*
X002522Y012130D01*
X002318Y012085D02*
X002228Y011995D01*
X002138Y012085D01*
X002138Y012265D01*
X002023Y012220D02*
X002023Y012175D01*
X001978Y012130D01*
X002023Y012085D01*
X002023Y012040D01*
X001978Y011995D01*
X001888Y011995D01*
X001843Y012040D01*
X001933Y012130D02*
X001978Y012130D01*
X002023Y012220D02*
X001978Y012265D01*
X001888Y012265D01*
X001843Y012220D01*
X004160Y014087D02*
X004206Y014042D01*
X004386Y014042D01*
X004431Y014087D01*
X004431Y014177D01*
X004386Y014222D01*
X004431Y014337D02*
X004431Y014517D01*
X004431Y014427D02*
X004160Y014427D01*
X004251Y014337D01*
X004206Y014222D02*
X004160Y014177D01*
X004160Y014087D01*
X004160Y014632D02*
X004160Y014812D01*
X004206Y014812D01*
X004386Y014632D01*
X004431Y014632D01*
X005027Y015150D02*
X005072Y015105D01*
X005252Y015105D01*
X005297Y015150D01*
X005297Y015240D01*
X005252Y015285D01*
X005297Y015400D02*
X005297Y015580D01*
X005297Y015490D02*
X005027Y015490D01*
X005117Y015400D01*
X005072Y015285D02*
X005027Y015240D01*
X005027Y015150D01*
X005701Y015505D02*
X005746Y015460D01*
X005836Y015460D01*
X005881Y015505D01*
X005996Y015460D02*
X006176Y015640D01*
X006176Y015685D01*
X006131Y015730D01*
X006041Y015730D01*
X005996Y015685D01*
X005881Y015685D02*
X005836Y015730D01*
X005746Y015730D01*
X005701Y015685D01*
X005701Y015505D01*
X005996Y015460D02*
X006176Y015460D01*
X006290Y015505D02*
X006290Y015550D01*
X006336Y015595D01*
X006426Y015595D01*
X006471Y015550D01*
X006471Y015505D01*
X006426Y015460D01*
X006336Y015460D01*
X006290Y015505D01*
X006336Y015595D02*
X006290Y015640D01*
X006290Y015685D01*
X006336Y015730D01*
X006426Y015730D01*
X006471Y015685D01*
X006471Y015640D01*
X006426Y015595D01*
X005297Y015740D02*
X005297Y015830D01*
X005252Y015875D01*
X005072Y015875D01*
X005027Y015830D01*
X005027Y015740D01*
X005072Y015695D01*
X005117Y015695D01*
X005162Y015740D01*
X005162Y015875D01*
X005297Y015740D02*
X005252Y015695D01*
X005701Y014529D02*
X005836Y014529D01*
X005881Y014484D01*
X005881Y014394D01*
X005836Y014349D01*
X005701Y014349D01*
X005701Y014259D02*
X005701Y014529D01*
X005791Y014349D02*
X005881Y014259D01*
X005996Y014259D02*
X006176Y014259D01*
X006086Y014259D02*
X006086Y014529D01*
X005996Y014439D01*
X006290Y014484D02*
X006290Y014304D01*
X006471Y014484D01*
X006471Y014304D01*
X006426Y014259D01*
X006336Y014259D01*
X006290Y014304D01*
X006290Y014484D02*
X006336Y014529D01*
X006426Y014529D01*
X006471Y014484D01*
X003486Y015105D02*
X003216Y015105D01*
X003216Y015285D01*
X003216Y015400D02*
X003216Y015535D01*
X003261Y015580D01*
X003306Y015580D01*
X003351Y015535D01*
X003351Y015400D01*
X003486Y015400D02*
X003216Y015400D01*
X003351Y015535D02*
X003396Y015580D01*
X003441Y015580D01*
X003486Y015535D01*
X003486Y015400D01*
X003351Y015195D02*
X003351Y015105D01*
X003261Y015695D02*
X003216Y015740D01*
X003216Y015830D01*
X003261Y015875D01*
X003306Y015875D01*
X003486Y015695D01*
X003486Y015875D01*
X003525Y016523D02*
X003255Y016523D01*
X003255Y016703D01*
X003255Y016817D02*
X003255Y016952D01*
X003300Y016997D01*
X003345Y016997D01*
X003390Y016952D01*
X003390Y016817D01*
X003525Y016817D02*
X003255Y016817D01*
X003390Y016952D02*
X003435Y016997D01*
X003480Y016997D01*
X003525Y016952D01*
X003525Y016817D01*
X003390Y016613D02*
X003390Y016523D01*
X003345Y017112D02*
X003255Y017202D01*
X003525Y017202D01*
X003525Y017112D02*
X003525Y017292D01*
X002554Y017802D02*
X002374Y017802D01*
X002464Y017802D02*
X002464Y018072D01*
X002374Y017982D01*
X002259Y018072D02*
X002079Y017802D01*
X002259Y017802D02*
X002079Y018072D01*
X009044Y017063D02*
X009044Y016837D01*
X009089Y016792D01*
X009179Y016792D01*
X009224Y016837D01*
X009224Y017063D01*
X009338Y016927D02*
X009473Y017063D01*
X009473Y016792D01*
X009519Y016927D02*
X009338Y016927D01*
X006716Y024200D02*
X006806Y024290D01*
X006806Y024470D01*
X006626Y024470D02*
X006626Y024290D01*
X006716Y024200D01*
X006511Y024245D02*
X006466Y024200D01*
X006376Y024200D01*
X006331Y024245D01*
X006331Y024335D02*
X006421Y024380D01*
X006466Y024380D01*
X006511Y024335D01*
X006511Y024245D01*
X006331Y024335D02*
X006331Y024470D01*
X006511Y024470D01*
X006455Y024712D02*
X006500Y024757D01*
X006500Y024847D01*
X006545Y024892D01*
X006590Y024892D01*
X006635Y024847D01*
X006635Y024757D01*
X006590Y024712D01*
X006455Y024712D02*
X006410Y024712D01*
X006365Y024757D01*
X006365Y024847D01*
X006410Y024892D01*
X006365Y025006D02*
X006545Y025006D01*
X006635Y025096D01*
X006545Y025186D01*
X006365Y025186D01*
X006500Y025301D02*
X006365Y025436D01*
X006635Y025436D01*
X006500Y025481D02*
X006500Y025301D01*
X006455Y025735D02*
X006500Y025780D01*
X006500Y025870D01*
X006545Y025915D01*
X006590Y025915D01*
X006635Y025870D01*
X006635Y025780D01*
X006590Y025735D01*
X006455Y025735D02*
X006410Y025735D01*
X006365Y025780D01*
X006365Y025870D01*
X006410Y025915D01*
X006365Y026030D02*
X006545Y026030D01*
X006635Y026120D01*
X006545Y026210D01*
X006365Y026210D01*
X006410Y026325D02*
X006365Y026370D01*
X006365Y026460D01*
X006410Y026505D01*
X006455Y026505D01*
X006500Y026460D01*
X006545Y026505D01*
X006590Y026505D01*
X006635Y026460D01*
X006635Y026370D01*
X006590Y026325D01*
X006500Y026415D02*
X006500Y026460D01*
X006922Y026804D02*
X006967Y026759D01*
X007057Y026759D01*
X007102Y026804D01*
X007102Y026894D01*
X007012Y026894D01*
X007102Y026984D02*
X007057Y027029D01*
X006967Y027029D01*
X006922Y026984D01*
X006922Y026804D01*
X007216Y026759D02*
X007216Y027029D01*
X007396Y026759D01*
X007396Y027029D01*
X007511Y027029D02*
X007646Y027029D01*
X007691Y026984D01*
X007691Y026804D01*
X007646Y026759D01*
X007511Y026759D01*
X007511Y027029D01*
X007945Y026984D02*
X007945Y026804D01*
X007990Y026759D01*
X008080Y026759D01*
X008125Y026804D01*
X008240Y026759D02*
X008420Y026759D01*
X008535Y026759D02*
X008535Y027029D01*
X008580Y026894D02*
X008715Y026759D01*
X008535Y026849D02*
X008715Y027029D01*
X008969Y027029D02*
X008969Y026759D01*
X009104Y026759D01*
X009149Y026804D01*
X009149Y026984D01*
X009104Y027029D01*
X008969Y027029D01*
X009264Y026939D02*
X009264Y026759D01*
X009264Y026894D02*
X009444Y026894D01*
X009444Y026939D02*
X009444Y026759D01*
X009444Y026939D02*
X009354Y027029D01*
X009264Y026939D01*
X009558Y027029D02*
X009738Y027029D01*
X009648Y027029D02*
X009648Y026759D01*
X010071Y026804D02*
X010116Y026759D01*
X010206Y026759D01*
X010251Y026804D01*
X010251Y026894D01*
X010206Y026939D01*
X010161Y026939D01*
X010071Y026894D01*
X010071Y027029D01*
X010251Y027029D01*
X010366Y027029D02*
X010366Y026849D01*
X010456Y026759D01*
X010546Y026849D01*
X010546Y027029D01*
X008240Y027029D02*
X008240Y026759D01*
X008125Y026984D02*
X008080Y027029D01*
X007990Y027029D01*
X007945Y026984D01*
X005912Y025080D02*
X005912Y024293D01*
X005912Y025080D02*
X001227Y025080D01*
X004205Y024363D02*
X004250Y024318D01*
X004295Y024318D01*
X004340Y024363D01*
X004340Y024588D01*
X004295Y024588D02*
X004385Y024588D01*
X004500Y024498D02*
X004590Y024588D01*
X004590Y024318D01*
X004500Y024318D02*
X004680Y024318D01*
X013536Y025898D02*
X013581Y025853D01*
X013671Y025853D01*
X013716Y025898D01*
X013830Y025898D02*
X013876Y025853D01*
X013966Y025853D01*
X014011Y025898D01*
X014011Y025943D01*
X013966Y025988D01*
X013921Y025988D01*
X013966Y025988D02*
X014011Y026034D01*
X014011Y026079D01*
X013966Y026124D01*
X013876Y026124D01*
X013830Y026079D01*
X013716Y026079D02*
X013671Y026124D01*
X013581Y026124D01*
X013536Y026079D01*
X013536Y025898D01*
X015755Y025834D02*
X016025Y025834D01*
X016025Y026014D01*
X016025Y026128D02*
X016025Y026308D01*
X016025Y026423D02*
X016025Y026558D01*
X015980Y026603D01*
X015800Y026603D01*
X015755Y026558D01*
X015755Y026423D01*
X016025Y026423D01*
X015890Y026218D02*
X015890Y026128D01*
X015755Y026128D02*
X016025Y026128D01*
X015755Y026128D02*
X015755Y026308D01*
X015845Y026718D02*
X015755Y026808D01*
X016025Y026808D01*
X016025Y026718D02*
X016025Y026898D01*
X016410Y025946D02*
X016545Y025946D01*
X016590Y025901D01*
X016590Y025811D01*
X016545Y025766D01*
X016410Y025766D01*
X016410Y025676D02*
X016410Y025946D01*
X016500Y025766D02*
X016590Y025676D01*
X016704Y025811D02*
X016885Y025811D01*
X016840Y025676D02*
X016840Y025946D01*
X016704Y025811D01*
X022296Y025936D02*
X022476Y026206D01*
X022590Y026161D02*
X022635Y026206D01*
X022725Y026206D01*
X022770Y026161D01*
X022770Y026116D01*
X022725Y026071D01*
X022770Y026026D01*
X022770Y025981D01*
X022725Y025936D01*
X022635Y025936D01*
X022590Y025981D01*
X022476Y025936D02*
X022296Y026206D01*
X022680Y026071D02*
X022725Y026071D01*
X032227Y017248D02*
X032363Y017113D01*
X032363Y017293D01*
X032498Y017248D02*
X032227Y017248D01*
X032227Y016998D02*
X032498Y016818D01*
X032498Y016998D02*
X032227Y016818D01*
D12*
X013944Y011419D02*
X012527Y011419D01*
X011109Y011419D01*
X011277Y010856D02*
X011027Y010606D01*
X011027Y010106D01*
X011277Y009856D01*
X011777Y009856D01*
X012027Y010106D01*
X012277Y009856D01*
X012777Y009856D01*
X013027Y010106D01*
X013277Y009856D01*
X013777Y009856D01*
X014027Y010106D01*
X014027Y010606D01*
X013777Y010856D01*
X013277Y010856D01*
X013027Y010606D01*
X012777Y010856D01*
X012277Y010856D01*
X012027Y010606D01*
X011777Y010856D01*
X011277Y010856D01*
X012527Y010946D02*
X012527Y011419D01*
X011109Y013899D02*
X011306Y014096D01*
X007731Y013165D02*
X007731Y012665D01*
X007481Y012415D01*
X006981Y012415D01*
X006731Y012665D01*
X006481Y012415D01*
X005981Y012415D01*
X005731Y012665D01*
X005481Y012415D01*
X004981Y012415D01*
X004731Y012665D01*
X004481Y012415D01*
X003981Y012415D01*
X003731Y012665D01*
X003481Y012415D01*
X002981Y012415D01*
X002731Y012665D01*
X002481Y012415D01*
X001981Y012415D01*
X001731Y012665D01*
X001731Y013165D01*
X001981Y013415D01*
X002481Y013415D01*
X002731Y013165D01*
X002981Y013415D01*
X003481Y013415D01*
X003731Y013165D01*
X003981Y013415D01*
X004481Y013415D01*
X004731Y013165D01*
X004981Y013415D01*
X005481Y013415D01*
X005731Y013165D01*
X005981Y013415D01*
X006481Y013415D01*
X006731Y013165D01*
X006981Y013415D01*
X007481Y013415D01*
X007731Y013165D01*
X007487Y013899D02*
X007290Y014096D01*
X004948Y011419D02*
X003531Y011419D01*
X002113Y011419D01*
X002277Y010856D02*
X002027Y010606D01*
X002027Y010106D01*
X002277Y009856D01*
X002777Y009856D01*
X003027Y010106D01*
X003277Y009856D01*
X003777Y009856D01*
X004027Y010106D01*
X004277Y009856D01*
X004777Y009856D01*
X005027Y010106D01*
X005027Y010606D01*
X004777Y010856D01*
X004277Y010856D01*
X004027Y010606D01*
X003777Y010856D01*
X003277Y010856D01*
X003027Y010606D01*
X002777Y010856D01*
X002277Y010856D01*
X003531Y010946D02*
X003531Y011419D01*
X007290Y017679D02*
X007527Y017915D01*
X007424Y017561D02*
X007426Y017584D01*
X007432Y017607D01*
X007441Y017629D01*
X007454Y017648D01*
X007470Y017665D01*
X007488Y017680D01*
X007509Y017691D01*
X007531Y017699D01*
X007554Y017703D01*
X007578Y017703D01*
X007601Y017699D01*
X007623Y017691D01*
X007644Y017680D01*
X007662Y017665D01*
X007678Y017648D01*
X007691Y017629D01*
X007700Y017607D01*
X007706Y017584D01*
X007708Y017561D01*
X007706Y017538D01*
X007700Y017515D01*
X007691Y017493D01*
X007678Y017474D01*
X007662Y017457D01*
X007644Y017442D01*
X007623Y017431D01*
X007601Y017423D01*
X007578Y017419D01*
X007554Y017419D01*
X007531Y017423D01*
X007509Y017431D01*
X007488Y017442D01*
X007470Y017457D01*
X007454Y017474D01*
X007441Y017493D01*
X007432Y017515D01*
X007426Y017538D01*
X007424Y017561D01*
X011070Y017915D02*
X011306Y017679D01*
X010099Y021336D02*
X009599Y021336D01*
X009349Y021586D01*
X009349Y022086D01*
X009599Y022336D01*
X009349Y022586D01*
X009349Y023086D01*
X009599Y023336D01*
X009349Y023586D01*
X009349Y024086D01*
X009599Y024336D01*
X010099Y024336D01*
X010349Y024086D01*
X010349Y023586D01*
X010099Y023336D01*
X010349Y023086D01*
X010349Y022586D01*
X010099Y022336D01*
X010349Y022086D01*
X010349Y021586D01*
X010099Y021336D01*
X009164Y022370D02*
X009164Y024169D01*
X009076Y024580D02*
X008826Y024830D01*
X008576Y024580D01*
X008076Y024580D01*
X007826Y024830D01*
X007576Y024580D01*
X007076Y024580D01*
X006826Y024830D01*
X006826Y025330D01*
X007076Y025580D01*
X007576Y025580D01*
X007826Y025330D01*
X008076Y025580D01*
X008576Y025580D01*
X008826Y025330D01*
X009076Y025580D01*
X009576Y025580D01*
X009826Y025330D01*
X010076Y025580D01*
X010576Y025580D01*
X010826Y025330D01*
X010826Y024830D01*
X010576Y024580D01*
X010076Y024580D01*
X009826Y024830D01*
X009576Y024580D01*
X009076Y024580D01*
X008015Y024169D02*
X008015Y022370D01*
X007830Y022519D02*
X007580Y022269D01*
X007080Y022269D01*
X006830Y022519D01*
X006830Y023019D01*
X007080Y023269D01*
X006830Y023519D01*
X006830Y024019D01*
X007080Y024269D01*
X007580Y024269D01*
X007830Y024019D01*
X007830Y023519D01*
X007580Y023269D01*
X007830Y023019D01*
X007830Y022519D01*
X008172Y023624D02*
X009007Y023624D01*
X010873Y024135D02*
X011385Y024135D01*
X011385Y023112D01*
X011385Y024135D02*
X011385Y025120D01*
X010826Y025854D02*
X010576Y025604D01*
X010076Y025604D01*
X009826Y025854D01*
X009576Y025604D01*
X009076Y025604D01*
X008826Y025854D01*
X008576Y025604D01*
X008076Y025604D01*
X007826Y025854D01*
X007576Y025604D01*
X007076Y025604D01*
X006826Y025854D01*
X006826Y026354D01*
X007076Y026604D01*
X007576Y026604D01*
X007826Y026354D01*
X008076Y026604D01*
X008576Y026604D01*
X008826Y026354D01*
X009076Y026604D01*
X009576Y026604D01*
X009826Y026354D01*
X010076Y026604D01*
X010576Y026604D01*
X010826Y026354D01*
X010826Y025854D01*
D13*
X026597Y023442D02*
X026597Y022852D01*
X026597Y023049D02*
X026893Y023049D01*
X026991Y023147D01*
X026991Y023344D01*
X026893Y023442D01*
X026597Y023442D01*
X027242Y023147D02*
X027340Y023246D01*
X027636Y023246D01*
X027636Y023344D02*
X027636Y023049D01*
X027340Y023049D01*
X027242Y023147D01*
X027340Y023442D02*
X027537Y023442D01*
X027636Y023344D01*
X027886Y023442D02*
X027886Y023049D01*
X027886Y023442D02*
X028182Y023442D01*
X028280Y023344D01*
X028280Y023049D01*
X028531Y023147D02*
X028531Y023344D01*
X028629Y023442D01*
X028925Y023442D01*
X028925Y023639D02*
X028925Y023049D01*
X028629Y023049D01*
X028531Y023147D01*
X029176Y023147D02*
X029274Y023246D01*
X029569Y023246D01*
X029569Y023344D02*
X029569Y023049D01*
X029274Y023049D01*
X029176Y023147D01*
X029274Y023442D02*
X029471Y023442D01*
X029569Y023344D01*
X029820Y023639D02*
X029820Y023049D01*
X030214Y023049D01*
X030465Y023049D02*
X030661Y023049D01*
X030563Y023049D02*
X030563Y023442D01*
X030465Y023442D01*
X030563Y023639D02*
X030563Y023738D01*
X030894Y023344D02*
X030894Y023147D01*
X030993Y023049D01*
X031288Y023049D01*
X031288Y022950D02*
X031288Y023442D01*
X030993Y023442D01*
X030894Y023344D01*
X031091Y022852D02*
X031190Y022852D01*
X031288Y022950D01*
X031539Y023049D02*
X031539Y023639D01*
X031637Y023442D02*
X031834Y023442D01*
X031933Y023344D01*
X031933Y023049D01*
X032282Y023147D02*
X032282Y023541D01*
X032380Y023442D02*
X032183Y023442D01*
X032282Y023147D02*
X032380Y023049D01*
X031637Y023442D02*
X031539Y023344D01*
D14*
X032233Y022588D02*
X032233Y022168D01*
X032093Y022168D02*
X032374Y022168D01*
X032093Y022448D02*
X032233Y022588D01*
X031933Y022238D02*
X031933Y022168D01*
X031863Y022168D01*
X031863Y022238D01*
X031933Y022238D01*
X031683Y022448D02*
X031543Y022168D01*
X031403Y022448D01*
X031223Y022378D02*
X031223Y022308D01*
X030942Y022308D01*
X030942Y022378D02*
X031012Y022448D01*
X031153Y022448D01*
X031223Y022378D01*
X031153Y022168D02*
X031012Y022168D01*
X030942Y022238D01*
X030942Y022378D01*
X030769Y022448D02*
X030699Y022448D01*
X030559Y022308D01*
X030559Y022168D02*
X030559Y022448D01*
D15*
X030912Y022836D02*
X026818Y022836D01*
X031424Y022836D02*
X032448Y022836D01*
X033117Y013702D02*
X032881Y013112D01*
X033117Y012521D01*
X033117Y013702D01*
X033117Y013611D02*
X033080Y013611D01*
X033117Y013512D02*
X033041Y013512D01*
X033002Y013414D02*
X033117Y013414D01*
X033117Y013315D02*
X032962Y013315D01*
X032923Y013217D02*
X033117Y013217D01*
X033117Y013118D02*
X032883Y013118D01*
X032918Y013020D02*
X033117Y013020D01*
X033117Y012921D02*
X032957Y012921D01*
X032997Y012823D02*
X033117Y012823D01*
X033117Y012724D02*
X033036Y012724D01*
X033075Y012626D02*
X033117Y012626D01*
X033115Y012527D02*
X033117Y012527D01*
X032705Y012926D02*
X032438Y012926D01*
X032705Y013192D01*
X032705Y013259D01*
X032639Y013326D01*
X032505Y013326D01*
X032438Y013259D01*
X032245Y013326D02*
X032245Y012926D01*
X031978Y013326D01*
X031978Y012926D01*
X031805Y012926D02*
X031671Y012926D01*
X031738Y012926D02*
X031738Y013326D01*
X031671Y013326D02*
X031805Y013326D01*
X019949Y005485D02*
X019682Y005485D01*
X019816Y005485D02*
X019816Y005885D01*
X019682Y005752D01*
X019489Y005885D02*
X019489Y005485D01*
X019222Y005885D01*
X019222Y005485D01*
X019049Y005485D02*
X018915Y005485D01*
X018982Y005485D02*
X018982Y005885D01*
X018915Y005885D02*
X019049Y005885D01*
X019416Y005317D02*
X018826Y005080D01*
X020007Y005080D01*
X019416Y005317D01*
X019221Y005238D02*
X019612Y005238D01*
X019858Y005140D02*
X018974Y005140D01*
X011741Y005394D02*
X011674Y005327D01*
X011541Y005327D01*
X011474Y005394D01*
X011608Y005527D02*
X011674Y005527D01*
X011741Y005461D01*
X011741Y005394D01*
X011674Y005527D02*
X011741Y005594D01*
X011741Y005661D01*
X011674Y005728D01*
X011541Y005728D01*
X011474Y005661D01*
X011474Y006036D02*
X011741Y006303D01*
X011741Y006369D01*
X011674Y006436D01*
X011541Y006436D01*
X011474Y006369D01*
X011474Y006036D02*
X011741Y006036D01*
X011363Y007020D02*
X011429Y007087D01*
X011429Y007354D01*
X011363Y007420D01*
X011162Y007420D01*
X011162Y007020D01*
X011363Y007020D01*
X010969Y007087D02*
X010969Y007354D01*
X010902Y007420D01*
X010769Y007420D01*
X010702Y007354D01*
X010702Y007087D01*
X010769Y007020D01*
X010902Y007020D01*
X010969Y007087D01*
X010509Y007020D02*
X010509Y007420D01*
X010375Y007287D01*
X010242Y007420D01*
X010242Y007020D01*
X010048Y007220D02*
X009981Y007154D01*
X009781Y007154D01*
X009781Y007020D02*
X009781Y007420D01*
X009981Y007420D01*
X010048Y007354D01*
X010048Y007220D01*
X009627Y006436D02*
X009494Y006436D01*
X009427Y006369D01*
X009427Y006103D01*
X009694Y006369D01*
X009694Y006103D01*
X009627Y006036D01*
X009494Y006036D01*
X009427Y006103D01*
X009694Y006369D02*
X009627Y006436D01*
X009560Y005728D02*
X009427Y005594D01*
X009560Y005728D02*
X009560Y005327D01*
X009427Y005327D02*
X009694Y005327D01*
X017761Y025996D02*
X017895Y025996D01*
X017962Y026063D01*
X017962Y026330D01*
X017895Y026397D01*
X017761Y026397D01*
X017695Y026330D01*
X017695Y026063D01*
X017761Y025996D01*
X018155Y026063D02*
X018222Y025996D01*
X018355Y025996D01*
X018422Y026063D01*
X018422Y026397D01*
X018615Y026397D02*
X018882Y026397D01*
X018749Y026397D02*
X018749Y025996D01*
X018865Y026576D02*
X018275Y026813D01*
X017684Y026576D01*
X018865Y026576D01*
X018774Y026613D02*
X017775Y026613D01*
X018021Y026711D02*
X018528Y026711D01*
X018282Y026810D02*
X018268Y026810D01*
X018155Y026397D02*
X018155Y026063D01*
D16*
X030243Y023702D02*
X030401Y023702D01*
X030401Y023860D02*
X030322Y023939D01*
X030558Y023899D02*
X030558Y024057D01*
X030716Y023860D02*
X030794Y023939D01*
X030716Y023702D02*
X030873Y023702D01*
D17*
X005735Y018298D02*
X005735Y018112D01*
X005735Y018205D02*
X005455Y018205D01*
X005548Y018112D01*
X005501Y018004D02*
X005455Y018004D01*
X005501Y018004D02*
X005595Y017910D01*
X005735Y017910D01*
X005595Y017910D02*
X005501Y017817D01*
X005455Y017817D01*
D18*
X016700Y026547D03*
X016700Y026842D03*
D19*
X016700Y026694D03*
D20*
X016601Y015848D03*
D21*
X018708Y024096D03*
D22*
X028863Y007514D02*
X028831Y007196D01*
X028724Y007162D01*
X028625Y007111D01*
X028377Y007313D01*
X028208Y007143D01*
X028409Y006896D01*
X028358Y006796D01*
X028324Y006689D01*
X028006Y006657D01*
X028006Y006417D01*
X028324Y006385D01*
X028358Y006278D01*
X028409Y006178D01*
X028208Y005931D01*
X028377Y005761D01*
X028625Y005963D01*
X028724Y005912D01*
X028866Y006253D01*
X028812Y006281D01*
X028766Y006320D01*
X028728Y006366D01*
X028699Y006419D01*
X028682Y006477D01*
X028676Y006537D01*
X028682Y006600D01*
X028701Y006660D01*
X028732Y006715D01*
X028774Y006762D01*
X028825Y006800D01*
X028882Y006827D01*
X028943Y006842D01*
X029006Y006844D01*
X029068Y006833D01*
X029127Y006809D01*
X029180Y006774D01*
X029224Y006729D01*
X029258Y006676D01*
X029280Y006617D01*
X029290Y006554D01*
X029287Y006491D01*
X029272Y006430D01*
X029244Y006373D01*
X029205Y006324D01*
X029157Y006283D01*
X029101Y006253D01*
X029242Y005912D01*
X029342Y005963D01*
X029589Y005761D01*
X029759Y005931D01*
X029557Y006178D01*
X029608Y006278D01*
X029643Y006385D01*
X029960Y006417D01*
X029960Y006657D01*
X029643Y006689D01*
X029608Y006796D01*
X029557Y006896D01*
X029759Y007143D01*
X029589Y007313D01*
X029342Y007111D01*
X029242Y007162D01*
X029135Y007196D01*
X029103Y007514D01*
X028863Y007514D01*
X028859Y007467D02*
X029108Y007467D01*
X029114Y007410D02*
X028853Y007410D01*
X028847Y007352D02*
X029120Y007352D01*
X029125Y007295D02*
X028841Y007295D01*
X028835Y007237D02*
X029131Y007237D01*
X029188Y007180D02*
X028779Y007180D01*
X028647Y007122D02*
X029320Y007122D01*
X029356Y007122D02*
X029742Y007122D01*
X029722Y007180D02*
X029426Y007180D01*
X029497Y007237D02*
X029665Y007237D01*
X029607Y007295D02*
X029567Y007295D01*
X029695Y007065D02*
X028272Y007065D01*
X028225Y007122D02*
X028611Y007122D01*
X028540Y007180D02*
X028244Y007180D01*
X028302Y007237D02*
X028470Y007237D01*
X028399Y007295D02*
X028359Y007295D01*
X028319Y007007D02*
X029648Y007007D01*
X029601Y006949D02*
X028365Y006949D01*
X028408Y006892D02*
X029559Y006892D01*
X029589Y006834D02*
X029059Y006834D01*
X029175Y006777D02*
X029615Y006777D01*
X029633Y006719D02*
X029230Y006719D01*
X029263Y006662D02*
X029914Y006662D01*
X029960Y006604D02*
X029282Y006604D01*
X029290Y006547D02*
X029960Y006547D01*
X029960Y006489D02*
X029287Y006489D01*
X029272Y006431D02*
X029960Y006431D01*
X029639Y006374D02*
X029244Y006374D01*
X029196Y006316D02*
X029621Y006316D01*
X029599Y006259D02*
X029112Y006259D01*
X029122Y006201D02*
X029569Y006201D01*
X029585Y006144D02*
X029146Y006144D01*
X029170Y006086D02*
X029632Y006086D01*
X029679Y006029D02*
X029194Y006029D01*
X029218Y005971D02*
X029726Y005971D01*
X029741Y005913D02*
X029403Y005913D01*
X029473Y005856D02*
X029684Y005856D01*
X029626Y005798D02*
X029544Y005798D01*
X029245Y005913D02*
X029242Y005913D01*
X028796Y006086D02*
X028334Y006086D01*
X028287Y006029D02*
X028773Y006029D01*
X028749Y005971D02*
X028240Y005971D01*
X028225Y005913D02*
X028564Y005913D01*
X028493Y005856D02*
X028283Y005856D01*
X028340Y005798D02*
X028423Y005798D01*
X028721Y005913D02*
X028725Y005913D01*
X028820Y006144D02*
X028381Y006144D01*
X028398Y006201D02*
X028844Y006201D01*
X028854Y006259D02*
X028368Y006259D01*
X028346Y006316D02*
X028770Y006316D01*
X028723Y006374D02*
X028327Y006374D01*
X028006Y006431D02*
X028695Y006431D01*
X028680Y006489D02*
X028006Y006489D01*
X028006Y006547D02*
X028677Y006547D01*
X028684Y006604D02*
X028006Y006604D01*
X028053Y006662D02*
X028702Y006662D01*
X028736Y006719D02*
X028334Y006719D01*
X028352Y006777D02*
X028793Y006777D01*
X028911Y006834D02*
X028378Y006834D01*
M02*
