G75*
%MOIN*%
%OFA0B0*%
%FSLAX25Y25*%
%IPPOS*%
%LPD*%
%AMOC8*
5,1,8,0,0,1.08239X$1,22.5*
%
%ADD10C,0.00000*%
%ADD11R,0.01181X0.07480*%
%ADD12R,0.01575X0.01969*%
%ADD13R,0.01181X0.02559*%
%ADD14R,0.05709X0.01063*%
%ADD15R,0.01063X0.05709*%
%ADD16R,0.05315X0.01575*%
%ADD17R,0.07480X0.07087*%
%ADD18R,0.07480X0.07480*%
%ADD19R,0.06299X0.08268*%
%ADD20R,0.03937X0.03543*%
%ADD21R,0.01969X0.01575*%
%ADD22R,0.05000X0.02200*%
%ADD23R,0.03150X0.01969*%
%ADD24R,0.01969X0.03150*%
%ADD25R,0.03150X0.03150*%
%ADD26R,0.06299X0.03346*%
%ADD27R,0.02362X0.01969*%
%ADD28R,0.13780X0.03937*%
%ADD29R,0.06299X0.01181*%
%ADD30R,0.01181X0.06299*%
%ADD31R,0.02165X0.05315*%
%ADD32R,0.08268X0.05000*%
%ADD33R,0.07480X0.01181*%
%ADD34R,0.02559X0.01181*%
%ADD35R,0.09685X0.09094*%
%ADD36R,0.03937X0.10630*%
%ADD37R,0.15748X0.15748*%
%ADD38R,0.02362X0.07087*%
%ADD39R,0.07087X0.02362*%
D10*
X0008730Y0046472D02*
X0008730Y0272457D01*
X0384715Y0272457D01*
X0384715Y0046472D01*
X0008730Y0046472D01*
X0012126Y0056118D02*
X0012128Y0056276D01*
X0012134Y0056433D01*
X0012144Y0056591D01*
X0012158Y0056748D01*
X0012176Y0056904D01*
X0012197Y0057061D01*
X0012223Y0057216D01*
X0012253Y0057371D01*
X0012286Y0057525D01*
X0012324Y0057678D01*
X0012365Y0057831D01*
X0012410Y0057982D01*
X0012459Y0058132D01*
X0012512Y0058280D01*
X0012568Y0058428D01*
X0012629Y0058573D01*
X0012692Y0058718D01*
X0012760Y0058860D01*
X0012831Y0059001D01*
X0012905Y0059140D01*
X0012983Y0059277D01*
X0013065Y0059412D01*
X0013149Y0059545D01*
X0013238Y0059676D01*
X0013329Y0059804D01*
X0013424Y0059931D01*
X0013521Y0060054D01*
X0013622Y0060176D01*
X0013726Y0060294D01*
X0013833Y0060410D01*
X0013943Y0060523D01*
X0014055Y0060634D01*
X0014171Y0060741D01*
X0014289Y0060846D01*
X0014409Y0060948D01*
X0014532Y0061046D01*
X0014658Y0061142D01*
X0014786Y0061234D01*
X0014916Y0061323D01*
X0015048Y0061409D01*
X0015183Y0061491D01*
X0015320Y0061570D01*
X0015458Y0061645D01*
X0015598Y0061717D01*
X0015741Y0061785D01*
X0015884Y0061850D01*
X0016030Y0061911D01*
X0016177Y0061968D01*
X0016325Y0062022D01*
X0016475Y0062072D01*
X0016625Y0062118D01*
X0016777Y0062160D01*
X0016930Y0062199D01*
X0017084Y0062233D01*
X0017239Y0062264D01*
X0017394Y0062290D01*
X0017550Y0062313D01*
X0017707Y0062332D01*
X0017864Y0062347D01*
X0018021Y0062358D01*
X0018179Y0062365D01*
X0018337Y0062368D01*
X0018494Y0062367D01*
X0018652Y0062362D01*
X0018809Y0062353D01*
X0018967Y0062340D01*
X0019123Y0062323D01*
X0019280Y0062302D01*
X0019435Y0062278D01*
X0019590Y0062249D01*
X0019745Y0062216D01*
X0019898Y0062180D01*
X0020051Y0062139D01*
X0020202Y0062095D01*
X0020352Y0062047D01*
X0020501Y0061996D01*
X0020649Y0061940D01*
X0020795Y0061881D01*
X0020940Y0061818D01*
X0021083Y0061751D01*
X0021224Y0061681D01*
X0021363Y0061608D01*
X0021501Y0061531D01*
X0021637Y0061450D01*
X0021770Y0061366D01*
X0021901Y0061279D01*
X0022030Y0061188D01*
X0022157Y0061094D01*
X0022282Y0060997D01*
X0022403Y0060897D01*
X0022523Y0060794D01*
X0022639Y0060688D01*
X0022753Y0060579D01*
X0022865Y0060467D01*
X0022973Y0060353D01*
X0023078Y0060235D01*
X0023181Y0060115D01*
X0023280Y0059993D01*
X0023376Y0059868D01*
X0023469Y0059740D01*
X0023559Y0059611D01*
X0023645Y0059479D01*
X0023729Y0059345D01*
X0023808Y0059209D01*
X0023885Y0059071D01*
X0023957Y0058931D01*
X0024026Y0058789D01*
X0024092Y0058646D01*
X0024154Y0058501D01*
X0024212Y0058354D01*
X0024267Y0058206D01*
X0024318Y0058057D01*
X0024365Y0057906D01*
X0024408Y0057755D01*
X0024447Y0057602D01*
X0024483Y0057448D01*
X0024514Y0057294D01*
X0024542Y0057139D01*
X0024566Y0056983D01*
X0024586Y0056826D01*
X0024602Y0056669D01*
X0024614Y0056512D01*
X0024622Y0056355D01*
X0024626Y0056197D01*
X0024626Y0056039D01*
X0024622Y0055881D01*
X0024614Y0055724D01*
X0024602Y0055567D01*
X0024586Y0055410D01*
X0024566Y0055253D01*
X0024542Y0055097D01*
X0024514Y0054942D01*
X0024483Y0054788D01*
X0024447Y0054634D01*
X0024408Y0054481D01*
X0024365Y0054330D01*
X0024318Y0054179D01*
X0024267Y0054030D01*
X0024212Y0053882D01*
X0024154Y0053735D01*
X0024092Y0053590D01*
X0024026Y0053447D01*
X0023957Y0053305D01*
X0023885Y0053165D01*
X0023808Y0053027D01*
X0023729Y0052891D01*
X0023645Y0052757D01*
X0023559Y0052625D01*
X0023469Y0052496D01*
X0023376Y0052368D01*
X0023280Y0052243D01*
X0023181Y0052121D01*
X0023078Y0052001D01*
X0022973Y0051883D01*
X0022865Y0051769D01*
X0022753Y0051657D01*
X0022639Y0051548D01*
X0022523Y0051442D01*
X0022403Y0051339D01*
X0022282Y0051239D01*
X0022157Y0051142D01*
X0022030Y0051048D01*
X0021901Y0050957D01*
X0021770Y0050870D01*
X0021637Y0050786D01*
X0021501Y0050705D01*
X0021363Y0050628D01*
X0021224Y0050555D01*
X0021083Y0050485D01*
X0020940Y0050418D01*
X0020795Y0050355D01*
X0020649Y0050296D01*
X0020501Y0050240D01*
X0020352Y0050189D01*
X0020202Y0050141D01*
X0020051Y0050097D01*
X0019898Y0050056D01*
X0019745Y0050020D01*
X0019590Y0049987D01*
X0019435Y0049958D01*
X0019280Y0049934D01*
X0019123Y0049913D01*
X0018967Y0049896D01*
X0018809Y0049883D01*
X0018652Y0049874D01*
X0018494Y0049869D01*
X0018337Y0049868D01*
X0018179Y0049871D01*
X0018021Y0049878D01*
X0017864Y0049889D01*
X0017707Y0049904D01*
X0017550Y0049923D01*
X0017394Y0049946D01*
X0017239Y0049972D01*
X0017084Y0050003D01*
X0016930Y0050037D01*
X0016777Y0050076D01*
X0016625Y0050118D01*
X0016475Y0050164D01*
X0016325Y0050214D01*
X0016177Y0050268D01*
X0016030Y0050325D01*
X0015884Y0050386D01*
X0015741Y0050451D01*
X0015598Y0050519D01*
X0015458Y0050591D01*
X0015320Y0050666D01*
X0015183Y0050745D01*
X0015048Y0050827D01*
X0014916Y0050913D01*
X0014786Y0051002D01*
X0014658Y0051094D01*
X0014532Y0051190D01*
X0014409Y0051288D01*
X0014289Y0051390D01*
X0014171Y0051495D01*
X0014055Y0051602D01*
X0013943Y0051713D01*
X0013833Y0051826D01*
X0013726Y0051942D01*
X0013622Y0052060D01*
X0013521Y0052182D01*
X0013424Y0052305D01*
X0013329Y0052432D01*
X0013238Y0052560D01*
X0013149Y0052691D01*
X0013065Y0052824D01*
X0012983Y0052959D01*
X0012905Y0053096D01*
X0012831Y0053235D01*
X0012760Y0053376D01*
X0012692Y0053518D01*
X0012629Y0053663D01*
X0012568Y0053808D01*
X0012512Y0053956D01*
X0012459Y0054104D01*
X0012410Y0054254D01*
X0012365Y0054405D01*
X0012324Y0054558D01*
X0012286Y0054711D01*
X0012253Y0054865D01*
X0012223Y0055020D01*
X0012197Y0055175D01*
X0012176Y0055332D01*
X0012158Y0055488D01*
X0012144Y0055645D01*
X0012134Y0055803D01*
X0012128Y0055960D01*
X0012126Y0056118D01*
X0012126Y0262811D02*
X0012128Y0262969D01*
X0012134Y0263126D01*
X0012144Y0263284D01*
X0012158Y0263441D01*
X0012176Y0263597D01*
X0012197Y0263754D01*
X0012223Y0263909D01*
X0012253Y0264064D01*
X0012286Y0264218D01*
X0012324Y0264371D01*
X0012365Y0264524D01*
X0012410Y0264675D01*
X0012459Y0264825D01*
X0012512Y0264973D01*
X0012568Y0265121D01*
X0012629Y0265266D01*
X0012692Y0265411D01*
X0012760Y0265553D01*
X0012831Y0265694D01*
X0012905Y0265833D01*
X0012983Y0265970D01*
X0013065Y0266105D01*
X0013149Y0266238D01*
X0013238Y0266369D01*
X0013329Y0266497D01*
X0013424Y0266624D01*
X0013521Y0266747D01*
X0013622Y0266869D01*
X0013726Y0266987D01*
X0013833Y0267103D01*
X0013943Y0267216D01*
X0014055Y0267327D01*
X0014171Y0267434D01*
X0014289Y0267539D01*
X0014409Y0267641D01*
X0014532Y0267739D01*
X0014658Y0267835D01*
X0014786Y0267927D01*
X0014916Y0268016D01*
X0015048Y0268102D01*
X0015183Y0268184D01*
X0015320Y0268263D01*
X0015458Y0268338D01*
X0015598Y0268410D01*
X0015741Y0268478D01*
X0015884Y0268543D01*
X0016030Y0268604D01*
X0016177Y0268661D01*
X0016325Y0268715D01*
X0016475Y0268765D01*
X0016625Y0268811D01*
X0016777Y0268853D01*
X0016930Y0268892D01*
X0017084Y0268926D01*
X0017239Y0268957D01*
X0017394Y0268983D01*
X0017550Y0269006D01*
X0017707Y0269025D01*
X0017864Y0269040D01*
X0018021Y0269051D01*
X0018179Y0269058D01*
X0018337Y0269061D01*
X0018494Y0269060D01*
X0018652Y0269055D01*
X0018809Y0269046D01*
X0018967Y0269033D01*
X0019123Y0269016D01*
X0019280Y0268995D01*
X0019435Y0268971D01*
X0019590Y0268942D01*
X0019745Y0268909D01*
X0019898Y0268873D01*
X0020051Y0268832D01*
X0020202Y0268788D01*
X0020352Y0268740D01*
X0020501Y0268689D01*
X0020649Y0268633D01*
X0020795Y0268574D01*
X0020940Y0268511D01*
X0021083Y0268444D01*
X0021224Y0268374D01*
X0021363Y0268301D01*
X0021501Y0268224D01*
X0021637Y0268143D01*
X0021770Y0268059D01*
X0021901Y0267972D01*
X0022030Y0267881D01*
X0022157Y0267787D01*
X0022282Y0267690D01*
X0022403Y0267590D01*
X0022523Y0267487D01*
X0022639Y0267381D01*
X0022753Y0267272D01*
X0022865Y0267160D01*
X0022973Y0267046D01*
X0023078Y0266928D01*
X0023181Y0266808D01*
X0023280Y0266686D01*
X0023376Y0266561D01*
X0023469Y0266433D01*
X0023559Y0266304D01*
X0023645Y0266172D01*
X0023729Y0266038D01*
X0023808Y0265902D01*
X0023885Y0265764D01*
X0023957Y0265624D01*
X0024026Y0265482D01*
X0024092Y0265339D01*
X0024154Y0265194D01*
X0024212Y0265047D01*
X0024267Y0264899D01*
X0024318Y0264750D01*
X0024365Y0264599D01*
X0024408Y0264448D01*
X0024447Y0264295D01*
X0024483Y0264141D01*
X0024514Y0263987D01*
X0024542Y0263832D01*
X0024566Y0263676D01*
X0024586Y0263519D01*
X0024602Y0263362D01*
X0024614Y0263205D01*
X0024622Y0263048D01*
X0024626Y0262890D01*
X0024626Y0262732D01*
X0024622Y0262574D01*
X0024614Y0262417D01*
X0024602Y0262260D01*
X0024586Y0262103D01*
X0024566Y0261946D01*
X0024542Y0261790D01*
X0024514Y0261635D01*
X0024483Y0261481D01*
X0024447Y0261327D01*
X0024408Y0261174D01*
X0024365Y0261023D01*
X0024318Y0260872D01*
X0024267Y0260723D01*
X0024212Y0260575D01*
X0024154Y0260428D01*
X0024092Y0260283D01*
X0024026Y0260140D01*
X0023957Y0259998D01*
X0023885Y0259858D01*
X0023808Y0259720D01*
X0023729Y0259584D01*
X0023645Y0259450D01*
X0023559Y0259318D01*
X0023469Y0259189D01*
X0023376Y0259061D01*
X0023280Y0258936D01*
X0023181Y0258814D01*
X0023078Y0258694D01*
X0022973Y0258576D01*
X0022865Y0258462D01*
X0022753Y0258350D01*
X0022639Y0258241D01*
X0022523Y0258135D01*
X0022403Y0258032D01*
X0022282Y0257932D01*
X0022157Y0257835D01*
X0022030Y0257741D01*
X0021901Y0257650D01*
X0021770Y0257563D01*
X0021637Y0257479D01*
X0021501Y0257398D01*
X0021363Y0257321D01*
X0021224Y0257248D01*
X0021083Y0257178D01*
X0020940Y0257111D01*
X0020795Y0257048D01*
X0020649Y0256989D01*
X0020501Y0256933D01*
X0020352Y0256882D01*
X0020202Y0256834D01*
X0020051Y0256790D01*
X0019898Y0256749D01*
X0019745Y0256713D01*
X0019590Y0256680D01*
X0019435Y0256651D01*
X0019280Y0256627D01*
X0019123Y0256606D01*
X0018967Y0256589D01*
X0018809Y0256576D01*
X0018652Y0256567D01*
X0018494Y0256562D01*
X0018337Y0256561D01*
X0018179Y0256564D01*
X0018021Y0256571D01*
X0017864Y0256582D01*
X0017707Y0256597D01*
X0017550Y0256616D01*
X0017394Y0256639D01*
X0017239Y0256665D01*
X0017084Y0256696D01*
X0016930Y0256730D01*
X0016777Y0256769D01*
X0016625Y0256811D01*
X0016475Y0256857D01*
X0016325Y0256907D01*
X0016177Y0256961D01*
X0016030Y0257018D01*
X0015884Y0257079D01*
X0015741Y0257144D01*
X0015598Y0257212D01*
X0015458Y0257284D01*
X0015320Y0257359D01*
X0015183Y0257438D01*
X0015048Y0257520D01*
X0014916Y0257606D01*
X0014786Y0257695D01*
X0014658Y0257787D01*
X0014532Y0257883D01*
X0014409Y0257981D01*
X0014289Y0258083D01*
X0014171Y0258188D01*
X0014055Y0258295D01*
X0013943Y0258406D01*
X0013833Y0258519D01*
X0013726Y0258635D01*
X0013622Y0258753D01*
X0013521Y0258875D01*
X0013424Y0258998D01*
X0013329Y0259125D01*
X0013238Y0259253D01*
X0013149Y0259384D01*
X0013065Y0259517D01*
X0012983Y0259652D01*
X0012905Y0259789D01*
X0012831Y0259928D01*
X0012760Y0260069D01*
X0012692Y0260211D01*
X0012629Y0260356D01*
X0012568Y0260501D01*
X0012512Y0260649D01*
X0012459Y0260797D01*
X0012410Y0260947D01*
X0012365Y0261098D01*
X0012324Y0261251D01*
X0012286Y0261404D01*
X0012253Y0261558D01*
X0012223Y0261713D01*
X0012197Y0261868D01*
X0012176Y0262025D01*
X0012158Y0262181D01*
X0012144Y0262338D01*
X0012134Y0262496D01*
X0012128Y0262653D01*
X0012126Y0262811D01*
X0368819Y0262811D02*
X0368821Y0262969D01*
X0368827Y0263126D01*
X0368837Y0263284D01*
X0368851Y0263441D01*
X0368869Y0263597D01*
X0368890Y0263754D01*
X0368916Y0263909D01*
X0368946Y0264064D01*
X0368979Y0264218D01*
X0369017Y0264371D01*
X0369058Y0264524D01*
X0369103Y0264675D01*
X0369152Y0264825D01*
X0369205Y0264973D01*
X0369261Y0265121D01*
X0369322Y0265266D01*
X0369385Y0265411D01*
X0369453Y0265553D01*
X0369524Y0265694D01*
X0369598Y0265833D01*
X0369676Y0265970D01*
X0369758Y0266105D01*
X0369842Y0266238D01*
X0369931Y0266369D01*
X0370022Y0266497D01*
X0370117Y0266624D01*
X0370214Y0266747D01*
X0370315Y0266869D01*
X0370419Y0266987D01*
X0370526Y0267103D01*
X0370636Y0267216D01*
X0370748Y0267327D01*
X0370864Y0267434D01*
X0370982Y0267539D01*
X0371102Y0267641D01*
X0371225Y0267739D01*
X0371351Y0267835D01*
X0371479Y0267927D01*
X0371609Y0268016D01*
X0371741Y0268102D01*
X0371876Y0268184D01*
X0372013Y0268263D01*
X0372151Y0268338D01*
X0372291Y0268410D01*
X0372434Y0268478D01*
X0372577Y0268543D01*
X0372723Y0268604D01*
X0372870Y0268661D01*
X0373018Y0268715D01*
X0373168Y0268765D01*
X0373318Y0268811D01*
X0373470Y0268853D01*
X0373623Y0268892D01*
X0373777Y0268926D01*
X0373932Y0268957D01*
X0374087Y0268983D01*
X0374243Y0269006D01*
X0374400Y0269025D01*
X0374557Y0269040D01*
X0374714Y0269051D01*
X0374872Y0269058D01*
X0375030Y0269061D01*
X0375187Y0269060D01*
X0375345Y0269055D01*
X0375502Y0269046D01*
X0375660Y0269033D01*
X0375816Y0269016D01*
X0375973Y0268995D01*
X0376128Y0268971D01*
X0376283Y0268942D01*
X0376438Y0268909D01*
X0376591Y0268873D01*
X0376744Y0268832D01*
X0376895Y0268788D01*
X0377045Y0268740D01*
X0377194Y0268689D01*
X0377342Y0268633D01*
X0377488Y0268574D01*
X0377633Y0268511D01*
X0377776Y0268444D01*
X0377917Y0268374D01*
X0378056Y0268301D01*
X0378194Y0268224D01*
X0378330Y0268143D01*
X0378463Y0268059D01*
X0378594Y0267972D01*
X0378723Y0267881D01*
X0378850Y0267787D01*
X0378975Y0267690D01*
X0379096Y0267590D01*
X0379216Y0267487D01*
X0379332Y0267381D01*
X0379446Y0267272D01*
X0379558Y0267160D01*
X0379666Y0267046D01*
X0379771Y0266928D01*
X0379874Y0266808D01*
X0379973Y0266686D01*
X0380069Y0266561D01*
X0380162Y0266433D01*
X0380252Y0266304D01*
X0380338Y0266172D01*
X0380422Y0266038D01*
X0380501Y0265902D01*
X0380578Y0265764D01*
X0380650Y0265624D01*
X0380719Y0265482D01*
X0380785Y0265339D01*
X0380847Y0265194D01*
X0380905Y0265047D01*
X0380960Y0264899D01*
X0381011Y0264750D01*
X0381058Y0264599D01*
X0381101Y0264448D01*
X0381140Y0264295D01*
X0381176Y0264141D01*
X0381207Y0263987D01*
X0381235Y0263832D01*
X0381259Y0263676D01*
X0381279Y0263519D01*
X0381295Y0263362D01*
X0381307Y0263205D01*
X0381315Y0263048D01*
X0381319Y0262890D01*
X0381319Y0262732D01*
X0381315Y0262574D01*
X0381307Y0262417D01*
X0381295Y0262260D01*
X0381279Y0262103D01*
X0381259Y0261946D01*
X0381235Y0261790D01*
X0381207Y0261635D01*
X0381176Y0261481D01*
X0381140Y0261327D01*
X0381101Y0261174D01*
X0381058Y0261023D01*
X0381011Y0260872D01*
X0380960Y0260723D01*
X0380905Y0260575D01*
X0380847Y0260428D01*
X0380785Y0260283D01*
X0380719Y0260140D01*
X0380650Y0259998D01*
X0380578Y0259858D01*
X0380501Y0259720D01*
X0380422Y0259584D01*
X0380338Y0259450D01*
X0380252Y0259318D01*
X0380162Y0259189D01*
X0380069Y0259061D01*
X0379973Y0258936D01*
X0379874Y0258814D01*
X0379771Y0258694D01*
X0379666Y0258576D01*
X0379558Y0258462D01*
X0379446Y0258350D01*
X0379332Y0258241D01*
X0379216Y0258135D01*
X0379096Y0258032D01*
X0378975Y0257932D01*
X0378850Y0257835D01*
X0378723Y0257741D01*
X0378594Y0257650D01*
X0378463Y0257563D01*
X0378330Y0257479D01*
X0378194Y0257398D01*
X0378056Y0257321D01*
X0377917Y0257248D01*
X0377776Y0257178D01*
X0377633Y0257111D01*
X0377488Y0257048D01*
X0377342Y0256989D01*
X0377194Y0256933D01*
X0377045Y0256882D01*
X0376895Y0256834D01*
X0376744Y0256790D01*
X0376591Y0256749D01*
X0376438Y0256713D01*
X0376283Y0256680D01*
X0376128Y0256651D01*
X0375973Y0256627D01*
X0375816Y0256606D01*
X0375660Y0256589D01*
X0375502Y0256576D01*
X0375345Y0256567D01*
X0375187Y0256562D01*
X0375030Y0256561D01*
X0374872Y0256564D01*
X0374714Y0256571D01*
X0374557Y0256582D01*
X0374400Y0256597D01*
X0374243Y0256616D01*
X0374087Y0256639D01*
X0373932Y0256665D01*
X0373777Y0256696D01*
X0373623Y0256730D01*
X0373470Y0256769D01*
X0373318Y0256811D01*
X0373168Y0256857D01*
X0373018Y0256907D01*
X0372870Y0256961D01*
X0372723Y0257018D01*
X0372577Y0257079D01*
X0372434Y0257144D01*
X0372291Y0257212D01*
X0372151Y0257284D01*
X0372013Y0257359D01*
X0371876Y0257438D01*
X0371741Y0257520D01*
X0371609Y0257606D01*
X0371479Y0257695D01*
X0371351Y0257787D01*
X0371225Y0257883D01*
X0371102Y0257981D01*
X0370982Y0258083D01*
X0370864Y0258188D01*
X0370748Y0258295D01*
X0370636Y0258406D01*
X0370526Y0258519D01*
X0370419Y0258635D01*
X0370315Y0258753D01*
X0370214Y0258875D01*
X0370117Y0258998D01*
X0370022Y0259125D01*
X0369931Y0259253D01*
X0369842Y0259384D01*
X0369758Y0259517D01*
X0369676Y0259652D01*
X0369598Y0259789D01*
X0369524Y0259928D01*
X0369453Y0260069D01*
X0369385Y0260211D01*
X0369322Y0260356D01*
X0369261Y0260501D01*
X0369205Y0260649D01*
X0369152Y0260797D01*
X0369103Y0260947D01*
X0369058Y0261098D01*
X0369017Y0261251D01*
X0368979Y0261404D01*
X0368946Y0261558D01*
X0368916Y0261713D01*
X0368890Y0261868D01*
X0368869Y0262025D01*
X0368851Y0262181D01*
X0368837Y0262338D01*
X0368827Y0262496D01*
X0368821Y0262653D01*
X0368819Y0262811D01*
X0368819Y0056118D02*
X0368821Y0056276D01*
X0368827Y0056433D01*
X0368837Y0056591D01*
X0368851Y0056748D01*
X0368869Y0056904D01*
X0368890Y0057061D01*
X0368916Y0057216D01*
X0368946Y0057371D01*
X0368979Y0057525D01*
X0369017Y0057678D01*
X0369058Y0057831D01*
X0369103Y0057982D01*
X0369152Y0058132D01*
X0369205Y0058280D01*
X0369261Y0058428D01*
X0369322Y0058573D01*
X0369385Y0058718D01*
X0369453Y0058860D01*
X0369524Y0059001D01*
X0369598Y0059140D01*
X0369676Y0059277D01*
X0369758Y0059412D01*
X0369842Y0059545D01*
X0369931Y0059676D01*
X0370022Y0059804D01*
X0370117Y0059931D01*
X0370214Y0060054D01*
X0370315Y0060176D01*
X0370419Y0060294D01*
X0370526Y0060410D01*
X0370636Y0060523D01*
X0370748Y0060634D01*
X0370864Y0060741D01*
X0370982Y0060846D01*
X0371102Y0060948D01*
X0371225Y0061046D01*
X0371351Y0061142D01*
X0371479Y0061234D01*
X0371609Y0061323D01*
X0371741Y0061409D01*
X0371876Y0061491D01*
X0372013Y0061570D01*
X0372151Y0061645D01*
X0372291Y0061717D01*
X0372434Y0061785D01*
X0372577Y0061850D01*
X0372723Y0061911D01*
X0372870Y0061968D01*
X0373018Y0062022D01*
X0373168Y0062072D01*
X0373318Y0062118D01*
X0373470Y0062160D01*
X0373623Y0062199D01*
X0373777Y0062233D01*
X0373932Y0062264D01*
X0374087Y0062290D01*
X0374243Y0062313D01*
X0374400Y0062332D01*
X0374557Y0062347D01*
X0374714Y0062358D01*
X0374872Y0062365D01*
X0375030Y0062368D01*
X0375187Y0062367D01*
X0375345Y0062362D01*
X0375502Y0062353D01*
X0375660Y0062340D01*
X0375816Y0062323D01*
X0375973Y0062302D01*
X0376128Y0062278D01*
X0376283Y0062249D01*
X0376438Y0062216D01*
X0376591Y0062180D01*
X0376744Y0062139D01*
X0376895Y0062095D01*
X0377045Y0062047D01*
X0377194Y0061996D01*
X0377342Y0061940D01*
X0377488Y0061881D01*
X0377633Y0061818D01*
X0377776Y0061751D01*
X0377917Y0061681D01*
X0378056Y0061608D01*
X0378194Y0061531D01*
X0378330Y0061450D01*
X0378463Y0061366D01*
X0378594Y0061279D01*
X0378723Y0061188D01*
X0378850Y0061094D01*
X0378975Y0060997D01*
X0379096Y0060897D01*
X0379216Y0060794D01*
X0379332Y0060688D01*
X0379446Y0060579D01*
X0379558Y0060467D01*
X0379666Y0060353D01*
X0379771Y0060235D01*
X0379874Y0060115D01*
X0379973Y0059993D01*
X0380069Y0059868D01*
X0380162Y0059740D01*
X0380252Y0059611D01*
X0380338Y0059479D01*
X0380422Y0059345D01*
X0380501Y0059209D01*
X0380578Y0059071D01*
X0380650Y0058931D01*
X0380719Y0058789D01*
X0380785Y0058646D01*
X0380847Y0058501D01*
X0380905Y0058354D01*
X0380960Y0058206D01*
X0381011Y0058057D01*
X0381058Y0057906D01*
X0381101Y0057755D01*
X0381140Y0057602D01*
X0381176Y0057448D01*
X0381207Y0057294D01*
X0381235Y0057139D01*
X0381259Y0056983D01*
X0381279Y0056826D01*
X0381295Y0056669D01*
X0381307Y0056512D01*
X0381315Y0056355D01*
X0381319Y0056197D01*
X0381319Y0056039D01*
X0381315Y0055881D01*
X0381307Y0055724D01*
X0381295Y0055567D01*
X0381279Y0055410D01*
X0381259Y0055253D01*
X0381235Y0055097D01*
X0381207Y0054942D01*
X0381176Y0054788D01*
X0381140Y0054634D01*
X0381101Y0054481D01*
X0381058Y0054330D01*
X0381011Y0054179D01*
X0380960Y0054030D01*
X0380905Y0053882D01*
X0380847Y0053735D01*
X0380785Y0053590D01*
X0380719Y0053447D01*
X0380650Y0053305D01*
X0380578Y0053165D01*
X0380501Y0053027D01*
X0380422Y0052891D01*
X0380338Y0052757D01*
X0380252Y0052625D01*
X0380162Y0052496D01*
X0380069Y0052368D01*
X0379973Y0052243D01*
X0379874Y0052121D01*
X0379771Y0052001D01*
X0379666Y0051883D01*
X0379558Y0051769D01*
X0379446Y0051657D01*
X0379332Y0051548D01*
X0379216Y0051442D01*
X0379096Y0051339D01*
X0378975Y0051239D01*
X0378850Y0051142D01*
X0378723Y0051048D01*
X0378594Y0050957D01*
X0378463Y0050870D01*
X0378330Y0050786D01*
X0378194Y0050705D01*
X0378056Y0050628D01*
X0377917Y0050555D01*
X0377776Y0050485D01*
X0377633Y0050418D01*
X0377488Y0050355D01*
X0377342Y0050296D01*
X0377194Y0050240D01*
X0377045Y0050189D01*
X0376895Y0050141D01*
X0376744Y0050097D01*
X0376591Y0050056D01*
X0376438Y0050020D01*
X0376283Y0049987D01*
X0376128Y0049958D01*
X0375973Y0049934D01*
X0375816Y0049913D01*
X0375660Y0049896D01*
X0375502Y0049883D01*
X0375345Y0049874D01*
X0375187Y0049869D01*
X0375030Y0049868D01*
X0374872Y0049871D01*
X0374714Y0049878D01*
X0374557Y0049889D01*
X0374400Y0049904D01*
X0374243Y0049923D01*
X0374087Y0049946D01*
X0373932Y0049972D01*
X0373777Y0050003D01*
X0373623Y0050037D01*
X0373470Y0050076D01*
X0373318Y0050118D01*
X0373168Y0050164D01*
X0373018Y0050214D01*
X0372870Y0050268D01*
X0372723Y0050325D01*
X0372577Y0050386D01*
X0372434Y0050451D01*
X0372291Y0050519D01*
X0372151Y0050591D01*
X0372013Y0050666D01*
X0371876Y0050745D01*
X0371741Y0050827D01*
X0371609Y0050913D01*
X0371479Y0051002D01*
X0371351Y0051094D01*
X0371225Y0051190D01*
X0371102Y0051288D01*
X0370982Y0051390D01*
X0370864Y0051495D01*
X0370748Y0051602D01*
X0370636Y0051713D01*
X0370526Y0051826D01*
X0370419Y0051942D01*
X0370315Y0052060D01*
X0370214Y0052182D01*
X0370117Y0052305D01*
X0370022Y0052432D01*
X0369931Y0052560D01*
X0369842Y0052691D01*
X0369758Y0052824D01*
X0369676Y0052959D01*
X0369598Y0053096D01*
X0369524Y0053235D01*
X0369453Y0053376D01*
X0369385Y0053518D01*
X0369322Y0053663D01*
X0369261Y0053808D01*
X0369205Y0053956D01*
X0369152Y0054104D01*
X0369103Y0054254D01*
X0369058Y0054405D01*
X0369017Y0054558D01*
X0368979Y0054711D01*
X0368946Y0054865D01*
X0368916Y0055020D01*
X0368890Y0055175D01*
X0368869Y0055332D01*
X0368851Y0055488D01*
X0368837Y0055645D01*
X0368827Y0055803D01*
X0368821Y0055960D01*
X0368819Y0056118D01*
D11*
X0255384Y0079543D03*
X0253415Y0079543D03*
X0251447Y0079543D03*
X0249478Y0079543D03*
X0247510Y0079543D03*
X0245541Y0079543D03*
X0243573Y0079543D03*
X0241604Y0079543D03*
X0239636Y0079543D03*
X0237667Y0079543D03*
X0235699Y0079543D03*
X0233730Y0079543D03*
X0231762Y0079543D03*
X0229793Y0079543D03*
X0227825Y0079543D03*
X0225856Y0079543D03*
X0223888Y0079543D03*
X0221919Y0079543D03*
X0219951Y0079543D03*
X0220344Y0239386D03*
X0218376Y0239386D03*
X0216407Y0239386D03*
X0214439Y0239386D03*
X0212470Y0239386D03*
X0210502Y0239386D03*
X0208533Y0239386D03*
X0206565Y0239386D03*
X0222313Y0239386D03*
X0224281Y0239386D03*
X0226250Y0239386D03*
X0228219Y0239386D03*
X0230187Y0239386D03*
X0232156Y0239386D03*
X0234124Y0239386D03*
X0236093Y0239386D03*
X0238061Y0239386D03*
X0240030Y0239386D03*
X0241998Y0239386D03*
D12*
X0244360Y0231512D03*
X0247904Y0231512D03*
X0247116Y0222063D03*
X0243573Y0222063D03*
X0180581Y0217732D03*
X0177037Y0217732D03*
X0177037Y0213795D03*
X0180581Y0213795D03*
X0168376Y0262220D03*
X0164833Y0262220D03*
X0089636Y0203559D03*
X0089636Y0200016D03*
X0086093Y0200016D03*
X0086093Y0203559D03*
X0086093Y0196472D03*
X0089636Y0196472D03*
X0074281Y0182693D03*
X0070738Y0182693D03*
X0059715Y0188992D03*
X0056171Y0188992D03*
X0058533Y0164583D03*
X0062077Y0164583D03*
X0062470Y0151984D03*
X0058927Y0151984D03*
X0058927Y0147654D03*
X0062470Y0147654D03*
X0126644Y0151984D03*
X0130187Y0151984D03*
X0130187Y0162614D03*
X0126644Y0162614D03*
X0211289Y0096472D03*
X0214833Y0096472D03*
X0340423Y0176787D03*
X0343967Y0176787D03*
X0349478Y0148047D03*
X0353022Y0148047D03*
D13*
X0253612Y0097161D03*
X0251644Y0097161D03*
X0249675Y0097161D03*
X0247707Y0097161D03*
X0247707Y0092634D03*
X0249675Y0092634D03*
X0251644Y0092634D03*
X0253612Y0092634D03*
X0240817Y0092634D03*
X0238848Y0092634D03*
X0236880Y0092634D03*
X0234911Y0092634D03*
X0234911Y0097161D03*
X0236880Y0097161D03*
X0238848Y0097161D03*
X0240817Y0097161D03*
D14*
X0115128Y0144307D03*
X0115128Y0146276D03*
X0115128Y0148244D03*
X0115128Y0150213D03*
X0115128Y0152181D03*
X0115128Y0154150D03*
X0115128Y0156118D03*
X0115128Y0158087D03*
X0115128Y0160055D03*
X0115128Y0162024D03*
X0115128Y0163992D03*
X0115128Y0165961D03*
X0115128Y0167929D03*
X0115128Y0169898D03*
X0115128Y0171866D03*
X0115128Y0173835D03*
X0070837Y0173835D03*
X0070837Y0171866D03*
X0070837Y0169898D03*
X0070837Y0167929D03*
X0070837Y0165961D03*
X0070837Y0163992D03*
X0070837Y0162024D03*
X0070837Y0160055D03*
X0070837Y0158087D03*
X0070837Y0156118D03*
X0070837Y0154150D03*
X0070837Y0152181D03*
X0070837Y0150213D03*
X0070837Y0148244D03*
X0070837Y0146276D03*
X0070837Y0144307D03*
D15*
X0078219Y0136925D03*
X0080187Y0136925D03*
X0082156Y0136925D03*
X0084124Y0136925D03*
X0086093Y0136925D03*
X0088061Y0136925D03*
X0090030Y0136925D03*
X0091998Y0136925D03*
X0093967Y0136925D03*
X0095935Y0136925D03*
X0097904Y0136925D03*
X0099872Y0136925D03*
X0101841Y0136925D03*
X0103809Y0136925D03*
X0105778Y0136925D03*
X0107746Y0136925D03*
X0107746Y0181217D03*
X0105778Y0181217D03*
X0103809Y0181217D03*
X0101841Y0181217D03*
X0099872Y0181217D03*
X0097904Y0181217D03*
X0095935Y0181217D03*
X0093967Y0181217D03*
X0091998Y0181217D03*
X0090030Y0181217D03*
X0088061Y0181217D03*
X0086093Y0181217D03*
X0084124Y0181217D03*
X0082156Y0181217D03*
X0080187Y0181217D03*
X0078219Y0181217D03*
D16*
X0025167Y0164976D03*
X0025167Y0162417D03*
X0025167Y0159858D03*
X0025167Y0157299D03*
X0025167Y0154740D03*
D17*
X0014636Y0144898D03*
X0014636Y0174819D03*
D18*
X0014636Y0164583D03*
X0014636Y0155134D03*
D19*
X0024675Y0147654D03*
X0024675Y0172063D03*
D20*
X0051644Y0177181D03*
X0060305Y0177181D03*
X0060305Y0183874D03*
X0051644Y0183874D03*
D21*
X0046132Y0181315D03*
X0046132Y0177772D03*
X0047707Y0170291D03*
X0047707Y0166748D03*
X0037864Y0166748D03*
X0037864Y0170291D03*
X0037864Y0156512D03*
X0037864Y0152969D03*
X0047707Y0152969D03*
X0047707Y0156512D03*
X0084321Y0129346D03*
X0084321Y0125803D03*
X0105581Y0125803D03*
X0105581Y0129346D03*
X0160305Y0159268D03*
X0160305Y0162811D03*
X0161093Y0201394D03*
X0161093Y0204937D03*
X0165030Y0204937D03*
X0165030Y0201394D03*
X0161093Y0215567D03*
X0161093Y0219110D03*
X0121722Y0219110D03*
X0121722Y0215567D03*
X0121722Y0204937D03*
X0121722Y0201394D03*
X0117785Y0201394D03*
X0117785Y0204937D03*
X0100463Y0193126D03*
X0100463Y0189583D03*
X0096919Y0189583D03*
X0096919Y0193126D03*
X0060699Y0199031D03*
X0060699Y0202575D03*
X0056762Y0202575D03*
X0056762Y0199031D03*
X0219360Y0090764D03*
X0219360Y0087220D03*
X0259518Y0111236D03*
X0259518Y0114780D03*
X0334715Y0168717D03*
X0334715Y0172260D03*
X0344557Y0149819D03*
X0344557Y0146276D03*
X0260305Y0210843D03*
X0255974Y0210843D03*
X0251644Y0210843D03*
X0251644Y0214386D03*
X0255974Y0214386D03*
X0260305Y0214386D03*
D22*
X0080459Y0203716D03*
X0080459Y0200016D03*
X0080459Y0196316D03*
X0070859Y0196316D03*
X0070859Y0200016D03*
X0070859Y0203716D03*
D23*
X0042982Y0172654D03*
X0042982Y0166748D03*
X0042982Y0156512D03*
X0042982Y0150606D03*
D24*
X0105778Y0188598D03*
X0111683Y0188598D03*
X0111683Y0183087D03*
X0117589Y0183087D03*
X0130581Y0192929D03*
X0136486Y0192929D03*
X0140423Y0198047D03*
X0146329Y0198047D03*
X0146329Y0192929D03*
X0152234Y0192929D03*
X0152234Y0226394D03*
X0146329Y0226394D03*
X0136486Y0226394D03*
X0130581Y0226394D03*
X0349478Y0153165D03*
X0355384Y0153165D03*
D25*
X0169557Y0266945D03*
X0163652Y0266945D03*
D26*
X0109124Y0227280D03*
X0109124Y0215272D03*
D27*
X0166014Y0163205D03*
X0166014Y0160449D03*
X0170344Y0160449D03*
X0170344Y0163205D03*
D28*
X0150659Y0250409D03*
X0124281Y0250409D03*
D29*
X0130384Y0220390D03*
X0130384Y0217831D03*
X0130384Y0215272D03*
X0130384Y0212713D03*
X0130384Y0210154D03*
X0130384Y0207594D03*
X0130384Y0205035D03*
X0130384Y0202476D03*
X0152431Y0202476D03*
X0152431Y0205035D03*
X0152431Y0207594D03*
X0152431Y0210154D03*
X0152431Y0212713D03*
X0152431Y0215272D03*
X0152431Y0217831D03*
X0152431Y0220390D03*
X0178022Y0193913D03*
X0178022Y0191945D03*
X0178022Y0189976D03*
X0178022Y0188008D03*
X0178022Y0186039D03*
X0178022Y0184071D03*
X0178022Y0182102D03*
X0178022Y0180134D03*
X0178022Y0178165D03*
X0178022Y0176197D03*
X0178022Y0174228D03*
X0178022Y0172260D03*
X0178022Y0170291D03*
X0178022Y0168323D03*
X0178022Y0166354D03*
X0178022Y0164386D03*
X0178022Y0162417D03*
X0178022Y0160449D03*
X0178022Y0158480D03*
X0178022Y0156512D03*
X0178022Y0154543D03*
X0178022Y0152575D03*
X0178022Y0150606D03*
X0178022Y0148638D03*
X0178022Y0146669D03*
X0178022Y0144701D03*
X0178022Y0142732D03*
X0178022Y0140764D03*
X0178022Y0138795D03*
X0178022Y0136827D03*
X0178022Y0134858D03*
X0178022Y0132890D03*
X0178022Y0130921D03*
X0178022Y0128953D03*
X0178022Y0126984D03*
X0178022Y0125016D03*
X0265423Y0125016D03*
X0265423Y0126984D03*
X0265423Y0128953D03*
X0265423Y0130921D03*
X0265423Y0132890D03*
X0265423Y0134858D03*
X0265423Y0136827D03*
X0265423Y0138795D03*
X0265423Y0140764D03*
X0265423Y0142732D03*
X0265423Y0144701D03*
X0265423Y0146669D03*
X0265423Y0148638D03*
X0265423Y0150606D03*
X0265423Y0152575D03*
X0265423Y0154543D03*
X0265423Y0156512D03*
X0265423Y0158480D03*
X0265423Y0160449D03*
X0265423Y0162417D03*
X0265423Y0164386D03*
X0265423Y0166354D03*
X0265423Y0168323D03*
X0265423Y0170291D03*
X0265423Y0172260D03*
X0265423Y0174228D03*
X0265423Y0176197D03*
X0265423Y0178165D03*
X0265423Y0180134D03*
X0265423Y0182102D03*
X0265423Y0184071D03*
X0265423Y0186039D03*
X0265423Y0188008D03*
X0265423Y0189976D03*
X0265423Y0191945D03*
X0265423Y0193913D03*
D30*
X0256171Y0203165D03*
X0254203Y0203165D03*
X0252234Y0203165D03*
X0250266Y0203165D03*
X0248297Y0203165D03*
X0246329Y0203165D03*
X0244360Y0203165D03*
X0242392Y0203165D03*
X0240423Y0203165D03*
X0238455Y0203165D03*
X0236486Y0203165D03*
X0234518Y0203165D03*
X0232549Y0203165D03*
X0230581Y0203165D03*
X0228612Y0203165D03*
X0226644Y0203165D03*
X0224675Y0203165D03*
X0222707Y0203165D03*
X0220738Y0203165D03*
X0218770Y0203165D03*
X0216801Y0203165D03*
X0214833Y0203165D03*
X0212864Y0203165D03*
X0210896Y0203165D03*
X0208927Y0203165D03*
X0206959Y0203165D03*
X0204990Y0203165D03*
X0203022Y0203165D03*
X0201053Y0203165D03*
X0199085Y0203165D03*
X0197116Y0203165D03*
X0195148Y0203165D03*
X0193179Y0203165D03*
X0191211Y0203165D03*
X0189242Y0203165D03*
X0187274Y0203165D03*
X0187274Y0115764D03*
X0189242Y0115764D03*
X0191211Y0115764D03*
X0193179Y0115764D03*
X0195148Y0115764D03*
X0197116Y0115764D03*
X0199085Y0115764D03*
X0201053Y0115764D03*
X0203022Y0115764D03*
X0204990Y0115764D03*
X0206959Y0115764D03*
X0208927Y0115764D03*
X0210896Y0115764D03*
X0212864Y0115764D03*
X0214833Y0115764D03*
X0216801Y0115764D03*
X0218770Y0115764D03*
X0220738Y0115764D03*
X0222707Y0115764D03*
X0224675Y0115764D03*
X0226644Y0115764D03*
X0228612Y0115764D03*
X0230581Y0115764D03*
X0232549Y0115764D03*
X0234518Y0115764D03*
X0236486Y0115764D03*
X0238455Y0115764D03*
X0240423Y0115764D03*
X0242392Y0115764D03*
X0244360Y0115764D03*
X0246329Y0115764D03*
X0248297Y0115764D03*
X0250266Y0115764D03*
X0252234Y0115764D03*
X0254203Y0115764D03*
X0256171Y0115764D03*
D31*
X0187096Y0225213D03*
X0182096Y0225213D03*
X0177096Y0225213D03*
X0172096Y0225213D03*
X0172096Y0245685D03*
X0177096Y0245685D03*
X0182096Y0245685D03*
X0187096Y0245685D03*
D32*
X0085896Y0240488D03*
X0085896Y0224898D03*
D33*
X0351644Y0212811D03*
X0351644Y0210843D03*
X0351644Y0208874D03*
X0351644Y0206906D03*
X0351644Y0204937D03*
X0351644Y0202969D03*
X0351644Y0201000D03*
X0351644Y0199031D03*
X0351644Y0197063D03*
X0351644Y0195094D03*
X0351644Y0193126D03*
X0351644Y0191157D03*
X0351644Y0189189D03*
X0351644Y0187220D03*
X0351644Y0185252D03*
X0351644Y0183283D03*
X0351644Y0181315D03*
X0351644Y0179346D03*
X0351644Y0177378D03*
D34*
X0338553Y0192339D03*
X0338553Y0194307D03*
X0338553Y0196276D03*
X0338553Y0198244D03*
X0334026Y0198244D03*
X0334026Y0196276D03*
X0334026Y0194307D03*
X0334026Y0192339D03*
X0334026Y0205134D03*
X0334026Y0207102D03*
X0334026Y0209071D03*
X0334026Y0211039D03*
X0338553Y0211039D03*
X0338553Y0209071D03*
X0338553Y0207102D03*
X0338553Y0205134D03*
D35*
X0141407Y0211433D03*
D36*
X0136683Y0183874D03*
X0128809Y0183874D03*
X0146132Y0183874D03*
X0154006Y0183874D03*
D37*
X0320148Y0106709D03*
D38*
X0319400Y0139386D03*
X0324400Y0139386D03*
X0329400Y0139386D03*
X0334400Y0139386D03*
X0339400Y0139386D03*
X0344400Y0139386D03*
X0349400Y0139386D03*
X0354400Y0139386D03*
X0314400Y0139386D03*
X0309400Y0139386D03*
X0304400Y0139386D03*
X0299400Y0139386D03*
X0294400Y0139386D03*
X0289400Y0139386D03*
X0289400Y0068520D03*
X0294400Y0068520D03*
X0299400Y0068520D03*
X0304400Y0068520D03*
X0309400Y0068520D03*
X0314400Y0068520D03*
X0319400Y0068520D03*
X0324400Y0068520D03*
X0329400Y0068520D03*
X0334400Y0068520D03*
X0339400Y0068520D03*
X0344400Y0068520D03*
X0349400Y0068520D03*
X0354400Y0068520D03*
D39*
X0283533Y0081453D03*
X0283533Y0086453D03*
X0283533Y0091453D03*
X0283533Y0096453D03*
X0283533Y0101453D03*
X0283533Y0106453D03*
X0283533Y0111453D03*
X0283533Y0116453D03*
X0283533Y0121453D03*
X0283533Y0126453D03*
M02*
