G75*
%MOIN*%
%OFA0B0*%
%FSLAX25Y25*%
%IPPOS*%
%LPD*%
%AMOC8*
5,1,8,0,0,1.08239X$1,22.5*
%
%ADD10C,0.00000*%
%ADD11C,0.00500*%
%ADD12C,0.00600*%
%ADD13C,0.01100*%
%ADD14C,0.00800*%
%ADD15C,0.01000*%
%ADD16C,0.00400*%
%ADD17R,0.00787X0.00591*%
%ADD18R,0.00787X0.01181*%
%ADD19C,0.00787*%
%ADD20C,0.01575*%
%ADD21C,0.00591*%
D10*
X0008730Y0046472D02*
X0008730Y0272457D01*
X0384715Y0272457D01*
X0384715Y0046472D01*
X0008730Y0046472D01*
X0012126Y0056118D02*
X0012128Y0056276D01*
X0012134Y0056433D01*
X0012144Y0056591D01*
X0012158Y0056748D01*
X0012176Y0056904D01*
X0012197Y0057061D01*
X0012223Y0057216D01*
X0012253Y0057371D01*
X0012286Y0057525D01*
X0012324Y0057678D01*
X0012365Y0057831D01*
X0012410Y0057982D01*
X0012459Y0058132D01*
X0012512Y0058280D01*
X0012568Y0058428D01*
X0012629Y0058573D01*
X0012692Y0058718D01*
X0012760Y0058860D01*
X0012831Y0059001D01*
X0012905Y0059140D01*
X0012983Y0059277D01*
X0013065Y0059412D01*
X0013149Y0059545D01*
X0013238Y0059676D01*
X0013329Y0059804D01*
X0013424Y0059931D01*
X0013521Y0060054D01*
X0013622Y0060176D01*
X0013726Y0060294D01*
X0013833Y0060410D01*
X0013943Y0060523D01*
X0014055Y0060634D01*
X0014171Y0060741D01*
X0014289Y0060846D01*
X0014409Y0060948D01*
X0014532Y0061046D01*
X0014658Y0061142D01*
X0014786Y0061234D01*
X0014916Y0061323D01*
X0015048Y0061409D01*
X0015183Y0061491D01*
X0015320Y0061570D01*
X0015458Y0061645D01*
X0015598Y0061717D01*
X0015741Y0061785D01*
X0015884Y0061850D01*
X0016030Y0061911D01*
X0016177Y0061968D01*
X0016325Y0062022D01*
X0016475Y0062072D01*
X0016625Y0062118D01*
X0016777Y0062160D01*
X0016930Y0062199D01*
X0017084Y0062233D01*
X0017239Y0062264D01*
X0017394Y0062290D01*
X0017550Y0062313D01*
X0017707Y0062332D01*
X0017864Y0062347D01*
X0018021Y0062358D01*
X0018179Y0062365D01*
X0018337Y0062368D01*
X0018494Y0062367D01*
X0018652Y0062362D01*
X0018809Y0062353D01*
X0018967Y0062340D01*
X0019123Y0062323D01*
X0019280Y0062302D01*
X0019435Y0062278D01*
X0019590Y0062249D01*
X0019745Y0062216D01*
X0019898Y0062180D01*
X0020051Y0062139D01*
X0020202Y0062095D01*
X0020352Y0062047D01*
X0020501Y0061996D01*
X0020649Y0061940D01*
X0020795Y0061881D01*
X0020940Y0061818D01*
X0021083Y0061751D01*
X0021224Y0061681D01*
X0021363Y0061608D01*
X0021501Y0061531D01*
X0021637Y0061450D01*
X0021770Y0061366D01*
X0021901Y0061279D01*
X0022030Y0061188D01*
X0022157Y0061094D01*
X0022282Y0060997D01*
X0022403Y0060897D01*
X0022523Y0060794D01*
X0022639Y0060688D01*
X0022753Y0060579D01*
X0022865Y0060467D01*
X0022973Y0060353D01*
X0023078Y0060235D01*
X0023181Y0060115D01*
X0023280Y0059993D01*
X0023376Y0059868D01*
X0023469Y0059740D01*
X0023559Y0059611D01*
X0023645Y0059479D01*
X0023729Y0059345D01*
X0023808Y0059209D01*
X0023885Y0059071D01*
X0023957Y0058931D01*
X0024026Y0058789D01*
X0024092Y0058646D01*
X0024154Y0058501D01*
X0024212Y0058354D01*
X0024267Y0058206D01*
X0024318Y0058057D01*
X0024365Y0057906D01*
X0024408Y0057755D01*
X0024447Y0057602D01*
X0024483Y0057448D01*
X0024514Y0057294D01*
X0024542Y0057139D01*
X0024566Y0056983D01*
X0024586Y0056826D01*
X0024602Y0056669D01*
X0024614Y0056512D01*
X0024622Y0056355D01*
X0024626Y0056197D01*
X0024626Y0056039D01*
X0024622Y0055881D01*
X0024614Y0055724D01*
X0024602Y0055567D01*
X0024586Y0055410D01*
X0024566Y0055253D01*
X0024542Y0055097D01*
X0024514Y0054942D01*
X0024483Y0054788D01*
X0024447Y0054634D01*
X0024408Y0054481D01*
X0024365Y0054330D01*
X0024318Y0054179D01*
X0024267Y0054030D01*
X0024212Y0053882D01*
X0024154Y0053735D01*
X0024092Y0053590D01*
X0024026Y0053447D01*
X0023957Y0053305D01*
X0023885Y0053165D01*
X0023808Y0053027D01*
X0023729Y0052891D01*
X0023645Y0052757D01*
X0023559Y0052625D01*
X0023469Y0052496D01*
X0023376Y0052368D01*
X0023280Y0052243D01*
X0023181Y0052121D01*
X0023078Y0052001D01*
X0022973Y0051883D01*
X0022865Y0051769D01*
X0022753Y0051657D01*
X0022639Y0051548D01*
X0022523Y0051442D01*
X0022403Y0051339D01*
X0022282Y0051239D01*
X0022157Y0051142D01*
X0022030Y0051048D01*
X0021901Y0050957D01*
X0021770Y0050870D01*
X0021637Y0050786D01*
X0021501Y0050705D01*
X0021363Y0050628D01*
X0021224Y0050555D01*
X0021083Y0050485D01*
X0020940Y0050418D01*
X0020795Y0050355D01*
X0020649Y0050296D01*
X0020501Y0050240D01*
X0020352Y0050189D01*
X0020202Y0050141D01*
X0020051Y0050097D01*
X0019898Y0050056D01*
X0019745Y0050020D01*
X0019590Y0049987D01*
X0019435Y0049958D01*
X0019280Y0049934D01*
X0019123Y0049913D01*
X0018967Y0049896D01*
X0018809Y0049883D01*
X0018652Y0049874D01*
X0018494Y0049869D01*
X0018337Y0049868D01*
X0018179Y0049871D01*
X0018021Y0049878D01*
X0017864Y0049889D01*
X0017707Y0049904D01*
X0017550Y0049923D01*
X0017394Y0049946D01*
X0017239Y0049972D01*
X0017084Y0050003D01*
X0016930Y0050037D01*
X0016777Y0050076D01*
X0016625Y0050118D01*
X0016475Y0050164D01*
X0016325Y0050214D01*
X0016177Y0050268D01*
X0016030Y0050325D01*
X0015884Y0050386D01*
X0015741Y0050451D01*
X0015598Y0050519D01*
X0015458Y0050591D01*
X0015320Y0050666D01*
X0015183Y0050745D01*
X0015048Y0050827D01*
X0014916Y0050913D01*
X0014786Y0051002D01*
X0014658Y0051094D01*
X0014532Y0051190D01*
X0014409Y0051288D01*
X0014289Y0051390D01*
X0014171Y0051495D01*
X0014055Y0051602D01*
X0013943Y0051713D01*
X0013833Y0051826D01*
X0013726Y0051942D01*
X0013622Y0052060D01*
X0013521Y0052182D01*
X0013424Y0052305D01*
X0013329Y0052432D01*
X0013238Y0052560D01*
X0013149Y0052691D01*
X0013065Y0052824D01*
X0012983Y0052959D01*
X0012905Y0053096D01*
X0012831Y0053235D01*
X0012760Y0053376D01*
X0012692Y0053518D01*
X0012629Y0053663D01*
X0012568Y0053808D01*
X0012512Y0053956D01*
X0012459Y0054104D01*
X0012410Y0054254D01*
X0012365Y0054405D01*
X0012324Y0054558D01*
X0012286Y0054711D01*
X0012253Y0054865D01*
X0012223Y0055020D01*
X0012197Y0055175D01*
X0012176Y0055332D01*
X0012158Y0055488D01*
X0012144Y0055645D01*
X0012134Y0055803D01*
X0012128Y0055960D01*
X0012126Y0056118D01*
X0012126Y0262811D02*
X0012128Y0262969D01*
X0012134Y0263126D01*
X0012144Y0263284D01*
X0012158Y0263441D01*
X0012176Y0263597D01*
X0012197Y0263754D01*
X0012223Y0263909D01*
X0012253Y0264064D01*
X0012286Y0264218D01*
X0012324Y0264371D01*
X0012365Y0264524D01*
X0012410Y0264675D01*
X0012459Y0264825D01*
X0012512Y0264973D01*
X0012568Y0265121D01*
X0012629Y0265266D01*
X0012692Y0265411D01*
X0012760Y0265553D01*
X0012831Y0265694D01*
X0012905Y0265833D01*
X0012983Y0265970D01*
X0013065Y0266105D01*
X0013149Y0266238D01*
X0013238Y0266369D01*
X0013329Y0266497D01*
X0013424Y0266624D01*
X0013521Y0266747D01*
X0013622Y0266869D01*
X0013726Y0266987D01*
X0013833Y0267103D01*
X0013943Y0267216D01*
X0014055Y0267327D01*
X0014171Y0267434D01*
X0014289Y0267539D01*
X0014409Y0267641D01*
X0014532Y0267739D01*
X0014658Y0267835D01*
X0014786Y0267927D01*
X0014916Y0268016D01*
X0015048Y0268102D01*
X0015183Y0268184D01*
X0015320Y0268263D01*
X0015458Y0268338D01*
X0015598Y0268410D01*
X0015741Y0268478D01*
X0015884Y0268543D01*
X0016030Y0268604D01*
X0016177Y0268661D01*
X0016325Y0268715D01*
X0016475Y0268765D01*
X0016625Y0268811D01*
X0016777Y0268853D01*
X0016930Y0268892D01*
X0017084Y0268926D01*
X0017239Y0268957D01*
X0017394Y0268983D01*
X0017550Y0269006D01*
X0017707Y0269025D01*
X0017864Y0269040D01*
X0018021Y0269051D01*
X0018179Y0269058D01*
X0018337Y0269061D01*
X0018494Y0269060D01*
X0018652Y0269055D01*
X0018809Y0269046D01*
X0018967Y0269033D01*
X0019123Y0269016D01*
X0019280Y0268995D01*
X0019435Y0268971D01*
X0019590Y0268942D01*
X0019745Y0268909D01*
X0019898Y0268873D01*
X0020051Y0268832D01*
X0020202Y0268788D01*
X0020352Y0268740D01*
X0020501Y0268689D01*
X0020649Y0268633D01*
X0020795Y0268574D01*
X0020940Y0268511D01*
X0021083Y0268444D01*
X0021224Y0268374D01*
X0021363Y0268301D01*
X0021501Y0268224D01*
X0021637Y0268143D01*
X0021770Y0268059D01*
X0021901Y0267972D01*
X0022030Y0267881D01*
X0022157Y0267787D01*
X0022282Y0267690D01*
X0022403Y0267590D01*
X0022523Y0267487D01*
X0022639Y0267381D01*
X0022753Y0267272D01*
X0022865Y0267160D01*
X0022973Y0267046D01*
X0023078Y0266928D01*
X0023181Y0266808D01*
X0023280Y0266686D01*
X0023376Y0266561D01*
X0023469Y0266433D01*
X0023559Y0266304D01*
X0023645Y0266172D01*
X0023729Y0266038D01*
X0023808Y0265902D01*
X0023885Y0265764D01*
X0023957Y0265624D01*
X0024026Y0265482D01*
X0024092Y0265339D01*
X0024154Y0265194D01*
X0024212Y0265047D01*
X0024267Y0264899D01*
X0024318Y0264750D01*
X0024365Y0264599D01*
X0024408Y0264448D01*
X0024447Y0264295D01*
X0024483Y0264141D01*
X0024514Y0263987D01*
X0024542Y0263832D01*
X0024566Y0263676D01*
X0024586Y0263519D01*
X0024602Y0263362D01*
X0024614Y0263205D01*
X0024622Y0263048D01*
X0024626Y0262890D01*
X0024626Y0262732D01*
X0024622Y0262574D01*
X0024614Y0262417D01*
X0024602Y0262260D01*
X0024586Y0262103D01*
X0024566Y0261946D01*
X0024542Y0261790D01*
X0024514Y0261635D01*
X0024483Y0261481D01*
X0024447Y0261327D01*
X0024408Y0261174D01*
X0024365Y0261023D01*
X0024318Y0260872D01*
X0024267Y0260723D01*
X0024212Y0260575D01*
X0024154Y0260428D01*
X0024092Y0260283D01*
X0024026Y0260140D01*
X0023957Y0259998D01*
X0023885Y0259858D01*
X0023808Y0259720D01*
X0023729Y0259584D01*
X0023645Y0259450D01*
X0023559Y0259318D01*
X0023469Y0259189D01*
X0023376Y0259061D01*
X0023280Y0258936D01*
X0023181Y0258814D01*
X0023078Y0258694D01*
X0022973Y0258576D01*
X0022865Y0258462D01*
X0022753Y0258350D01*
X0022639Y0258241D01*
X0022523Y0258135D01*
X0022403Y0258032D01*
X0022282Y0257932D01*
X0022157Y0257835D01*
X0022030Y0257741D01*
X0021901Y0257650D01*
X0021770Y0257563D01*
X0021637Y0257479D01*
X0021501Y0257398D01*
X0021363Y0257321D01*
X0021224Y0257248D01*
X0021083Y0257178D01*
X0020940Y0257111D01*
X0020795Y0257048D01*
X0020649Y0256989D01*
X0020501Y0256933D01*
X0020352Y0256882D01*
X0020202Y0256834D01*
X0020051Y0256790D01*
X0019898Y0256749D01*
X0019745Y0256713D01*
X0019590Y0256680D01*
X0019435Y0256651D01*
X0019280Y0256627D01*
X0019123Y0256606D01*
X0018967Y0256589D01*
X0018809Y0256576D01*
X0018652Y0256567D01*
X0018494Y0256562D01*
X0018337Y0256561D01*
X0018179Y0256564D01*
X0018021Y0256571D01*
X0017864Y0256582D01*
X0017707Y0256597D01*
X0017550Y0256616D01*
X0017394Y0256639D01*
X0017239Y0256665D01*
X0017084Y0256696D01*
X0016930Y0256730D01*
X0016777Y0256769D01*
X0016625Y0256811D01*
X0016475Y0256857D01*
X0016325Y0256907D01*
X0016177Y0256961D01*
X0016030Y0257018D01*
X0015884Y0257079D01*
X0015741Y0257144D01*
X0015598Y0257212D01*
X0015458Y0257284D01*
X0015320Y0257359D01*
X0015183Y0257438D01*
X0015048Y0257520D01*
X0014916Y0257606D01*
X0014786Y0257695D01*
X0014658Y0257787D01*
X0014532Y0257883D01*
X0014409Y0257981D01*
X0014289Y0258083D01*
X0014171Y0258188D01*
X0014055Y0258295D01*
X0013943Y0258406D01*
X0013833Y0258519D01*
X0013726Y0258635D01*
X0013622Y0258753D01*
X0013521Y0258875D01*
X0013424Y0258998D01*
X0013329Y0259125D01*
X0013238Y0259253D01*
X0013149Y0259384D01*
X0013065Y0259517D01*
X0012983Y0259652D01*
X0012905Y0259789D01*
X0012831Y0259928D01*
X0012760Y0260069D01*
X0012692Y0260211D01*
X0012629Y0260356D01*
X0012568Y0260501D01*
X0012512Y0260649D01*
X0012459Y0260797D01*
X0012410Y0260947D01*
X0012365Y0261098D01*
X0012324Y0261251D01*
X0012286Y0261404D01*
X0012253Y0261558D01*
X0012223Y0261713D01*
X0012197Y0261868D01*
X0012176Y0262025D01*
X0012158Y0262181D01*
X0012144Y0262338D01*
X0012134Y0262496D01*
X0012128Y0262653D01*
X0012126Y0262811D01*
X0368819Y0262811D02*
X0368821Y0262969D01*
X0368827Y0263126D01*
X0368837Y0263284D01*
X0368851Y0263441D01*
X0368869Y0263597D01*
X0368890Y0263754D01*
X0368916Y0263909D01*
X0368946Y0264064D01*
X0368979Y0264218D01*
X0369017Y0264371D01*
X0369058Y0264524D01*
X0369103Y0264675D01*
X0369152Y0264825D01*
X0369205Y0264973D01*
X0369261Y0265121D01*
X0369322Y0265266D01*
X0369385Y0265411D01*
X0369453Y0265553D01*
X0369524Y0265694D01*
X0369598Y0265833D01*
X0369676Y0265970D01*
X0369758Y0266105D01*
X0369842Y0266238D01*
X0369931Y0266369D01*
X0370022Y0266497D01*
X0370117Y0266624D01*
X0370214Y0266747D01*
X0370315Y0266869D01*
X0370419Y0266987D01*
X0370526Y0267103D01*
X0370636Y0267216D01*
X0370748Y0267327D01*
X0370864Y0267434D01*
X0370982Y0267539D01*
X0371102Y0267641D01*
X0371225Y0267739D01*
X0371351Y0267835D01*
X0371479Y0267927D01*
X0371609Y0268016D01*
X0371741Y0268102D01*
X0371876Y0268184D01*
X0372013Y0268263D01*
X0372151Y0268338D01*
X0372291Y0268410D01*
X0372434Y0268478D01*
X0372577Y0268543D01*
X0372723Y0268604D01*
X0372870Y0268661D01*
X0373018Y0268715D01*
X0373168Y0268765D01*
X0373318Y0268811D01*
X0373470Y0268853D01*
X0373623Y0268892D01*
X0373777Y0268926D01*
X0373932Y0268957D01*
X0374087Y0268983D01*
X0374243Y0269006D01*
X0374400Y0269025D01*
X0374557Y0269040D01*
X0374714Y0269051D01*
X0374872Y0269058D01*
X0375030Y0269061D01*
X0375187Y0269060D01*
X0375345Y0269055D01*
X0375502Y0269046D01*
X0375660Y0269033D01*
X0375816Y0269016D01*
X0375973Y0268995D01*
X0376128Y0268971D01*
X0376283Y0268942D01*
X0376438Y0268909D01*
X0376591Y0268873D01*
X0376744Y0268832D01*
X0376895Y0268788D01*
X0377045Y0268740D01*
X0377194Y0268689D01*
X0377342Y0268633D01*
X0377488Y0268574D01*
X0377633Y0268511D01*
X0377776Y0268444D01*
X0377917Y0268374D01*
X0378056Y0268301D01*
X0378194Y0268224D01*
X0378330Y0268143D01*
X0378463Y0268059D01*
X0378594Y0267972D01*
X0378723Y0267881D01*
X0378850Y0267787D01*
X0378975Y0267690D01*
X0379096Y0267590D01*
X0379216Y0267487D01*
X0379332Y0267381D01*
X0379446Y0267272D01*
X0379558Y0267160D01*
X0379666Y0267046D01*
X0379771Y0266928D01*
X0379874Y0266808D01*
X0379973Y0266686D01*
X0380069Y0266561D01*
X0380162Y0266433D01*
X0380252Y0266304D01*
X0380338Y0266172D01*
X0380422Y0266038D01*
X0380501Y0265902D01*
X0380578Y0265764D01*
X0380650Y0265624D01*
X0380719Y0265482D01*
X0380785Y0265339D01*
X0380847Y0265194D01*
X0380905Y0265047D01*
X0380960Y0264899D01*
X0381011Y0264750D01*
X0381058Y0264599D01*
X0381101Y0264448D01*
X0381140Y0264295D01*
X0381176Y0264141D01*
X0381207Y0263987D01*
X0381235Y0263832D01*
X0381259Y0263676D01*
X0381279Y0263519D01*
X0381295Y0263362D01*
X0381307Y0263205D01*
X0381315Y0263048D01*
X0381319Y0262890D01*
X0381319Y0262732D01*
X0381315Y0262574D01*
X0381307Y0262417D01*
X0381295Y0262260D01*
X0381279Y0262103D01*
X0381259Y0261946D01*
X0381235Y0261790D01*
X0381207Y0261635D01*
X0381176Y0261481D01*
X0381140Y0261327D01*
X0381101Y0261174D01*
X0381058Y0261023D01*
X0381011Y0260872D01*
X0380960Y0260723D01*
X0380905Y0260575D01*
X0380847Y0260428D01*
X0380785Y0260283D01*
X0380719Y0260140D01*
X0380650Y0259998D01*
X0380578Y0259858D01*
X0380501Y0259720D01*
X0380422Y0259584D01*
X0380338Y0259450D01*
X0380252Y0259318D01*
X0380162Y0259189D01*
X0380069Y0259061D01*
X0379973Y0258936D01*
X0379874Y0258814D01*
X0379771Y0258694D01*
X0379666Y0258576D01*
X0379558Y0258462D01*
X0379446Y0258350D01*
X0379332Y0258241D01*
X0379216Y0258135D01*
X0379096Y0258032D01*
X0378975Y0257932D01*
X0378850Y0257835D01*
X0378723Y0257741D01*
X0378594Y0257650D01*
X0378463Y0257563D01*
X0378330Y0257479D01*
X0378194Y0257398D01*
X0378056Y0257321D01*
X0377917Y0257248D01*
X0377776Y0257178D01*
X0377633Y0257111D01*
X0377488Y0257048D01*
X0377342Y0256989D01*
X0377194Y0256933D01*
X0377045Y0256882D01*
X0376895Y0256834D01*
X0376744Y0256790D01*
X0376591Y0256749D01*
X0376438Y0256713D01*
X0376283Y0256680D01*
X0376128Y0256651D01*
X0375973Y0256627D01*
X0375816Y0256606D01*
X0375660Y0256589D01*
X0375502Y0256576D01*
X0375345Y0256567D01*
X0375187Y0256562D01*
X0375030Y0256561D01*
X0374872Y0256564D01*
X0374714Y0256571D01*
X0374557Y0256582D01*
X0374400Y0256597D01*
X0374243Y0256616D01*
X0374087Y0256639D01*
X0373932Y0256665D01*
X0373777Y0256696D01*
X0373623Y0256730D01*
X0373470Y0256769D01*
X0373318Y0256811D01*
X0373168Y0256857D01*
X0373018Y0256907D01*
X0372870Y0256961D01*
X0372723Y0257018D01*
X0372577Y0257079D01*
X0372434Y0257144D01*
X0372291Y0257212D01*
X0372151Y0257284D01*
X0372013Y0257359D01*
X0371876Y0257438D01*
X0371741Y0257520D01*
X0371609Y0257606D01*
X0371479Y0257695D01*
X0371351Y0257787D01*
X0371225Y0257883D01*
X0371102Y0257981D01*
X0370982Y0258083D01*
X0370864Y0258188D01*
X0370748Y0258295D01*
X0370636Y0258406D01*
X0370526Y0258519D01*
X0370419Y0258635D01*
X0370315Y0258753D01*
X0370214Y0258875D01*
X0370117Y0258998D01*
X0370022Y0259125D01*
X0369931Y0259253D01*
X0369842Y0259384D01*
X0369758Y0259517D01*
X0369676Y0259652D01*
X0369598Y0259789D01*
X0369524Y0259928D01*
X0369453Y0260069D01*
X0369385Y0260211D01*
X0369322Y0260356D01*
X0369261Y0260501D01*
X0369205Y0260649D01*
X0369152Y0260797D01*
X0369103Y0260947D01*
X0369058Y0261098D01*
X0369017Y0261251D01*
X0368979Y0261404D01*
X0368946Y0261558D01*
X0368916Y0261713D01*
X0368890Y0261868D01*
X0368869Y0262025D01*
X0368851Y0262181D01*
X0368837Y0262338D01*
X0368827Y0262496D01*
X0368821Y0262653D01*
X0368819Y0262811D01*
X0368819Y0056118D02*
X0368821Y0056276D01*
X0368827Y0056433D01*
X0368837Y0056591D01*
X0368851Y0056748D01*
X0368869Y0056904D01*
X0368890Y0057061D01*
X0368916Y0057216D01*
X0368946Y0057371D01*
X0368979Y0057525D01*
X0369017Y0057678D01*
X0369058Y0057831D01*
X0369103Y0057982D01*
X0369152Y0058132D01*
X0369205Y0058280D01*
X0369261Y0058428D01*
X0369322Y0058573D01*
X0369385Y0058718D01*
X0369453Y0058860D01*
X0369524Y0059001D01*
X0369598Y0059140D01*
X0369676Y0059277D01*
X0369758Y0059412D01*
X0369842Y0059545D01*
X0369931Y0059676D01*
X0370022Y0059804D01*
X0370117Y0059931D01*
X0370214Y0060054D01*
X0370315Y0060176D01*
X0370419Y0060294D01*
X0370526Y0060410D01*
X0370636Y0060523D01*
X0370748Y0060634D01*
X0370864Y0060741D01*
X0370982Y0060846D01*
X0371102Y0060948D01*
X0371225Y0061046D01*
X0371351Y0061142D01*
X0371479Y0061234D01*
X0371609Y0061323D01*
X0371741Y0061409D01*
X0371876Y0061491D01*
X0372013Y0061570D01*
X0372151Y0061645D01*
X0372291Y0061717D01*
X0372434Y0061785D01*
X0372577Y0061850D01*
X0372723Y0061911D01*
X0372870Y0061968D01*
X0373018Y0062022D01*
X0373168Y0062072D01*
X0373318Y0062118D01*
X0373470Y0062160D01*
X0373623Y0062199D01*
X0373777Y0062233D01*
X0373932Y0062264D01*
X0374087Y0062290D01*
X0374243Y0062313D01*
X0374400Y0062332D01*
X0374557Y0062347D01*
X0374714Y0062358D01*
X0374872Y0062365D01*
X0375030Y0062368D01*
X0375187Y0062367D01*
X0375345Y0062362D01*
X0375502Y0062353D01*
X0375660Y0062340D01*
X0375816Y0062323D01*
X0375973Y0062302D01*
X0376128Y0062278D01*
X0376283Y0062249D01*
X0376438Y0062216D01*
X0376591Y0062180D01*
X0376744Y0062139D01*
X0376895Y0062095D01*
X0377045Y0062047D01*
X0377194Y0061996D01*
X0377342Y0061940D01*
X0377488Y0061881D01*
X0377633Y0061818D01*
X0377776Y0061751D01*
X0377917Y0061681D01*
X0378056Y0061608D01*
X0378194Y0061531D01*
X0378330Y0061450D01*
X0378463Y0061366D01*
X0378594Y0061279D01*
X0378723Y0061188D01*
X0378850Y0061094D01*
X0378975Y0060997D01*
X0379096Y0060897D01*
X0379216Y0060794D01*
X0379332Y0060688D01*
X0379446Y0060579D01*
X0379558Y0060467D01*
X0379666Y0060353D01*
X0379771Y0060235D01*
X0379874Y0060115D01*
X0379973Y0059993D01*
X0380069Y0059868D01*
X0380162Y0059740D01*
X0380252Y0059611D01*
X0380338Y0059479D01*
X0380422Y0059345D01*
X0380501Y0059209D01*
X0380578Y0059071D01*
X0380650Y0058931D01*
X0380719Y0058789D01*
X0380785Y0058646D01*
X0380847Y0058501D01*
X0380905Y0058354D01*
X0380960Y0058206D01*
X0381011Y0058057D01*
X0381058Y0057906D01*
X0381101Y0057755D01*
X0381140Y0057602D01*
X0381176Y0057448D01*
X0381207Y0057294D01*
X0381235Y0057139D01*
X0381259Y0056983D01*
X0381279Y0056826D01*
X0381295Y0056669D01*
X0381307Y0056512D01*
X0381315Y0056355D01*
X0381319Y0056197D01*
X0381319Y0056039D01*
X0381315Y0055881D01*
X0381307Y0055724D01*
X0381295Y0055567D01*
X0381279Y0055410D01*
X0381259Y0055253D01*
X0381235Y0055097D01*
X0381207Y0054942D01*
X0381176Y0054788D01*
X0381140Y0054634D01*
X0381101Y0054481D01*
X0381058Y0054330D01*
X0381011Y0054179D01*
X0380960Y0054030D01*
X0380905Y0053882D01*
X0380847Y0053735D01*
X0380785Y0053590D01*
X0380719Y0053447D01*
X0380650Y0053305D01*
X0380578Y0053165D01*
X0380501Y0053027D01*
X0380422Y0052891D01*
X0380338Y0052757D01*
X0380252Y0052625D01*
X0380162Y0052496D01*
X0380069Y0052368D01*
X0379973Y0052243D01*
X0379874Y0052121D01*
X0379771Y0052001D01*
X0379666Y0051883D01*
X0379558Y0051769D01*
X0379446Y0051657D01*
X0379332Y0051548D01*
X0379216Y0051442D01*
X0379096Y0051339D01*
X0378975Y0051239D01*
X0378850Y0051142D01*
X0378723Y0051048D01*
X0378594Y0050957D01*
X0378463Y0050870D01*
X0378330Y0050786D01*
X0378194Y0050705D01*
X0378056Y0050628D01*
X0377917Y0050555D01*
X0377776Y0050485D01*
X0377633Y0050418D01*
X0377488Y0050355D01*
X0377342Y0050296D01*
X0377194Y0050240D01*
X0377045Y0050189D01*
X0376895Y0050141D01*
X0376744Y0050097D01*
X0376591Y0050056D01*
X0376438Y0050020D01*
X0376283Y0049987D01*
X0376128Y0049958D01*
X0375973Y0049934D01*
X0375816Y0049913D01*
X0375660Y0049896D01*
X0375502Y0049883D01*
X0375345Y0049874D01*
X0375187Y0049869D01*
X0375030Y0049868D01*
X0374872Y0049871D01*
X0374714Y0049878D01*
X0374557Y0049889D01*
X0374400Y0049904D01*
X0374243Y0049923D01*
X0374087Y0049946D01*
X0373932Y0049972D01*
X0373777Y0050003D01*
X0373623Y0050037D01*
X0373470Y0050076D01*
X0373318Y0050118D01*
X0373168Y0050164D01*
X0373018Y0050214D01*
X0372870Y0050268D01*
X0372723Y0050325D01*
X0372577Y0050386D01*
X0372434Y0050451D01*
X0372291Y0050519D01*
X0372151Y0050591D01*
X0372013Y0050666D01*
X0371876Y0050745D01*
X0371741Y0050827D01*
X0371609Y0050913D01*
X0371479Y0051002D01*
X0371351Y0051094D01*
X0371225Y0051190D01*
X0371102Y0051288D01*
X0370982Y0051390D01*
X0370864Y0051495D01*
X0370748Y0051602D01*
X0370636Y0051713D01*
X0370526Y0051826D01*
X0370419Y0051942D01*
X0370315Y0052060D01*
X0370214Y0052182D01*
X0370117Y0052305D01*
X0370022Y0052432D01*
X0369931Y0052560D01*
X0369842Y0052691D01*
X0369758Y0052824D01*
X0369676Y0052959D01*
X0369598Y0053096D01*
X0369524Y0053235D01*
X0369453Y0053376D01*
X0369385Y0053518D01*
X0369322Y0053663D01*
X0369261Y0053808D01*
X0369205Y0053956D01*
X0369152Y0054104D01*
X0369103Y0054254D01*
X0369058Y0054405D01*
X0369017Y0054558D01*
X0368979Y0054711D01*
X0368946Y0054865D01*
X0368916Y0055020D01*
X0368890Y0055175D01*
X0368869Y0055332D01*
X0368851Y0055488D01*
X0368837Y0055645D01*
X0368827Y0055803D01*
X0368821Y0055960D01*
X0368819Y0056118D01*
D11*
X0359911Y0068520D02*
X0356368Y0068520D01*
X0294557Y0063008D02*
X0294557Y0059858D01*
X0288258Y0059858D01*
X0288258Y0063008D01*
X0294557Y0063008D01*
X0293199Y0058677D02*
X0292298Y0058677D01*
X0291848Y0058226D01*
X0290703Y0058226D02*
X0290703Y0057326D01*
X0290253Y0056875D01*
X0288902Y0056875D01*
X0289802Y0056875D02*
X0290703Y0055974D01*
X0291848Y0055974D02*
X0293650Y0057776D01*
X0293650Y0058226D01*
X0293199Y0058677D01*
X0290703Y0058226D02*
X0290253Y0058677D01*
X0288902Y0058677D01*
X0288902Y0055974D01*
X0291848Y0055974D02*
X0293650Y0055974D01*
X0287470Y0068520D02*
X0283533Y0068520D01*
X0283533Y0079543D01*
X0264116Y0093573D02*
X0262314Y0093573D01*
X0263215Y0093573D02*
X0263215Y0096275D01*
X0262314Y0095374D01*
X0261169Y0096275D02*
X0261169Y0093573D01*
X0259368Y0096275D01*
X0259368Y0093573D01*
X0258223Y0093573D02*
X0257322Y0094474D01*
X0257772Y0094474D02*
X0256421Y0094474D01*
X0256421Y0093573D02*
X0256421Y0096275D01*
X0257772Y0096275D01*
X0258223Y0095825D01*
X0258223Y0094924D01*
X0257772Y0094474D01*
X0254990Y0092929D02*
X0254990Y0096866D01*
X0246329Y0096866D02*
X0246329Y0092929D01*
X0242195Y0092929D02*
X0242195Y0096866D01*
X0233533Y0096866D02*
X0233533Y0092929D01*
X0232029Y0093573D02*
X0230228Y0093573D01*
X0232029Y0095374D01*
X0232029Y0095825D01*
X0231579Y0096275D01*
X0230678Y0096275D01*
X0230228Y0095825D01*
X0229083Y0096275D02*
X0229083Y0093573D01*
X0227281Y0096275D01*
X0227281Y0093573D01*
X0226136Y0093573D02*
X0225235Y0094474D01*
X0225686Y0094474D02*
X0224335Y0094474D01*
X0224335Y0093573D02*
X0224335Y0096275D01*
X0225686Y0096275D01*
X0226136Y0095825D01*
X0226136Y0094924D01*
X0225686Y0094474D01*
X0220935Y0092142D02*
X0217785Y0092142D01*
X0217785Y0085843D01*
X0220935Y0085843D01*
X0220935Y0092142D01*
X0222366Y0088992D02*
X0223717Y0088992D01*
X0224168Y0088541D01*
X0224168Y0087641D01*
X0223717Y0087190D01*
X0222366Y0087190D01*
X0222366Y0086289D02*
X0222366Y0088992D01*
X0223267Y0087190D02*
X0224168Y0086289D01*
X0225313Y0086289D02*
X0227114Y0086289D01*
X0226213Y0086289D02*
X0226213Y0088992D01*
X0225313Y0088091D01*
X0228259Y0087641D02*
X0229160Y0088091D01*
X0229610Y0088091D01*
X0230061Y0087641D01*
X0230061Y0086740D01*
X0229610Y0086289D01*
X0228710Y0086289D01*
X0228259Y0086740D01*
X0228259Y0087641D02*
X0228259Y0088992D01*
X0230061Y0088992D01*
X0216675Y0092365D02*
X0214873Y0092365D01*
X0216224Y0093716D01*
X0216224Y0091014D01*
X0213728Y0091014D02*
X0211927Y0091014D01*
X0212828Y0091014D02*
X0212828Y0093716D01*
X0211927Y0092815D01*
X0210782Y0092365D02*
X0210331Y0091915D01*
X0208980Y0091915D01*
X0209881Y0091915D02*
X0210782Y0091014D01*
X0210782Y0092365D02*
X0210782Y0093266D01*
X0210331Y0093716D01*
X0208980Y0093716D01*
X0208980Y0091014D01*
X0209911Y0094898D02*
X0209911Y0098047D01*
X0216211Y0098047D01*
X0216211Y0094898D01*
X0209911Y0094898D01*
X0178610Y0097724D02*
X0178160Y0097274D01*
X0177259Y0097274D01*
X0176809Y0097724D01*
X0176809Y0098625D02*
X0177709Y0099075D01*
X0178160Y0099075D01*
X0178610Y0098625D01*
X0178610Y0097724D01*
X0176809Y0098625D02*
X0176809Y0099976D01*
X0178610Y0099976D01*
X0175664Y0099976D02*
X0173862Y0097274D01*
X0175664Y0097274D02*
X0173862Y0099976D01*
X0184321Y0120094D02*
X0182352Y0122063D01*
X0182352Y0196866D01*
X0184321Y0198835D01*
X0259124Y0198835D01*
X0261093Y0196866D01*
X0261093Y0122063D01*
X0259124Y0120094D01*
X0184321Y0120094D01*
X0137350Y0112811D02*
X0137350Y0111009D01*
X0136450Y0110108D01*
X0135549Y0111009D01*
X0135549Y0112811D01*
X0134404Y0112811D02*
X0132602Y0112811D01*
X0132602Y0111459D01*
X0133503Y0111910D01*
X0133954Y0111910D01*
X0134404Y0111459D01*
X0134404Y0110559D01*
X0133954Y0110108D01*
X0133053Y0110108D01*
X0132602Y0110559D01*
X0119037Y0110559D02*
X0118587Y0110108D01*
X0117686Y0110108D01*
X0117236Y0110559D01*
X0116091Y0111009D02*
X0116091Y0112811D01*
X0117236Y0112360D02*
X0117686Y0112811D01*
X0118587Y0112811D01*
X0119037Y0112360D01*
X0119037Y0111910D01*
X0118587Y0111459D01*
X0119037Y0111009D01*
X0119037Y0110559D01*
X0118587Y0111459D02*
X0118136Y0111459D01*
X0116091Y0111009D02*
X0115190Y0110108D01*
X0114289Y0111009D01*
X0114289Y0112811D01*
X0113144Y0112360D02*
X0113144Y0111910D01*
X0112694Y0111459D01*
X0113144Y0111009D01*
X0113144Y0110559D01*
X0112694Y0110108D01*
X0111793Y0110108D01*
X0111343Y0110559D01*
X0112243Y0111459D02*
X0112694Y0111459D01*
X0113144Y0112360D02*
X0112694Y0112811D01*
X0111793Y0112811D01*
X0111343Y0112360D01*
X0108874Y0106779D02*
X0108874Y0104978D01*
X0107072Y0106779D01*
X0106622Y0106779D01*
X0106172Y0106329D01*
X0106172Y0105428D01*
X0106622Y0104978D01*
X0106622Y0103833D02*
X0107523Y0103833D01*
X0107973Y0103382D01*
X0107973Y0102031D01*
X0108874Y0102031D02*
X0106172Y0102031D01*
X0106172Y0103382D01*
X0106622Y0103833D01*
X0106172Y0100886D02*
X0106172Y0099985D01*
X0106172Y0100436D02*
X0108424Y0100436D01*
X0108874Y0099985D01*
X0108874Y0099535D01*
X0108424Y0099085D01*
X0088217Y0098568D02*
X0087766Y0099018D01*
X0086415Y0099018D01*
X0086415Y0098118D01*
X0086865Y0097667D01*
X0087766Y0097667D01*
X0088217Y0098118D01*
X0088217Y0098568D01*
X0087316Y0099919D02*
X0086415Y0099018D01*
X0087316Y0099919D02*
X0088217Y0100370D01*
X0085270Y0100370D02*
X0083469Y0097667D01*
X0085270Y0097667D02*
X0083469Y0100370D01*
X0083591Y0115620D02*
X0085392Y0115620D01*
X0085843Y0116070D01*
X0085843Y0116971D01*
X0085392Y0117422D01*
X0085843Y0118567D02*
X0084041Y0120368D01*
X0083591Y0120368D01*
X0083140Y0119918D01*
X0083140Y0119017D01*
X0083591Y0118567D01*
X0083591Y0117422D02*
X0083140Y0116971D01*
X0083140Y0116070D01*
X0083591Y0115620D01*
X0085843Y0118567D02*
X0085843Y0120368D01*
X0085392Y0121513D02*
X0085843Y0121963D01*
X0085843Y0122864D01*
X0085392Y0123315D01*
X0084491Y0123315D01*
X0084041Y0122864D01*
X0084041Y0122414D01*
X0084491Y0121513D01*
X0083140Y0121513D01*
X0083140Y0123315D01*
X0082746Y0124425D02*
X0082746Y0130724D01*
X0085896Y0130724D01*
X0085896Y0124425D01*
X0082746Y0124425D01*
X0076124Y0122203D02*
X0075673Y0122653D01*
X0074773Y0122653D01*
X0074322Y0122203D01*
X0074322Y0121752D01*
X0074773Y0121302D01*
X0075673Y0121302D01*
X0076124Y0120852D01*
X0076124Y0120401D01*
X0075673Y0119951D01*
X0074773Y0119951D01*
X0074322Y0120401D01*
X0073177Y0119951D02*
X0073177Y0122653D01*
X0072276Y0121752D01*
X0071376Y0122653D01*
X0071376Y0119951D01*
X0069330Y0119951D02*
X0069330Y0122653D01*
X0068429Y0122653D02*
X0070231Y0122653D01*
X0065774Y0122653D02*
X0064873Y0122653D01*
X0065324Y0122653D02*
X0065324Y0119951D01*
X0065774Y0119951D02*
X0064873Y0119951D01*
X0063728Y0120401D02*
X0063728Y0122203D01*
X0063278Y0122653D01*
X0061927Y0122653D01*
X0061927Y0119951D01*
X0063278Y0119951D01*
X0063728Y0120401D01*
X0060782Y0122653D02*
X0058980Y0122653D01*
X0059881Y0122653D02*
X0059881Y0119951D01*
X0056439Y0120401D02*
X0056439Y0122203D01*
X0055988Y0122653D01*
X0055088Y0122653D01*
X0054637Y0122203D01*
X0054637Y0120401D01*
X0055088Y0119951D01*
X0055988Y0119951D01*
X0056439Y0120401D01*
X0053492Y0120401D02*
X0053492Y0122203D01*
X0053042Y0122653D01*
X0051691Y0122653D01*
X0051691Y0119951D01*
X0053042Y0119951D01*
X0053492Y0120401D01*
X0050546Y0122653D02*
X0048744Y0122653D01*
X0049645Y0122653D02*
X0049645Y0119951D01*
X0046202Y0119951D02*
X0044851Y0121302D01*
X0044401Y0120852D02*
X0046202Y0122653D01*
X0044401Y0122653D02*
X0044401Y0119951D01*
X0043256Y0120401D02*
X0042806Y0119951D01*
X0041905Y0119951D01*
X0041454Y0120401D01*
X0041454Y0122203D01*
X0041905Y0122653D01*
X0042806Y0122653D01*
X0043256Y0122203D01*
X0040309Y0122653D02*
X0038508Y0122653D01*
X0039409Y0122653D02*
X0039409Y0119951D01*
X0036360Y0120401D02*
X0036360Y0122203D01*
X0035910Y0122653D01*
X0034558Y0122653D01*
X0034558Y0119951D01*
X0035910Y0119951D01*
X0036360Y0120401D01*
X0033413Y0119951D02*
X0033413Y0122653D01*
X0031612Y0122653D02*
X0033413Y0119951D01*
X0031612Y0119951D02*
X0031612Y0122653D01*
X0030467Y0122203D02*
X0030016Y0122653D01*
X0029116Y0122653D01*
X0028665Y0122203D01*
X0028665Y0120401D01*
X0029116Y0119951D01*
X0030016Y0119951D01*
X0030467Y0120401D01*
X0030467Y0121302D01*
X0029566Y0121302D01*
X0026124Y0121752D02*
X0025673Y0121302D01*
X0026124Y0120852D01*
X0026124Y0120401D01*
X0025673Y0119951D01*
X0024773Y0119951D01*
X0024322Y0120401D01*
X0023177Y0120852D02*
X0023177Y0122653D01*
X0024322Y0122203D02*
X0024773Y0122653D01*
X0025673Y0122653D01*
X0026124Y0122203D01*
X0026124Y0121752D01*
X0025673Y0121302D02*
X0025223Y0121302D01*
X0023177Y0120852D02*
X0022276Y0119951D01*
X0021376Y0120852D01*
X0021376Y0122653D01*
X0020231Y0122203D02*
X0020231Y0121752D01*
X0019780Y0121302D01*
X0020231Y0120852D01*
X0020231Y0120401D01*
X0019780Y0119951D01*
X0018880Y0119951D01*
X0018429Y0120401D01*
X0019330Y0121302D02*
X0019780Y0121302D01*
X0020231Y0122203D02*
X0019780Y0122653D01*
X0018880Y0122653D01*
X0018429Y0122203D01*
X0021832Y0112811D02*
X0022733Y0112811D01*
X0023183Y0112360D01*
X0023183Y0111910D01*
X0022733Y0111459D01*
X0023183Y0111009D01*
X0023183Y0110559D01*
X0022733Y0110108D01*
X0021832Y0110108D01*
X0021382Y0110559D01*
X0022283Y0111459D02*
X0022733Y0111459D01*
X0021382Y0112360D02*
X0021832Y0112811D01*
X0024328Y0112811D02*
X0024328Y0111009D01*
X0025229Y0110108D01*
X0026130Y0111009D01*
X0026130Y0112811D01*
X0027275Y0112360D02*
X0027725Y0112811D01*
X0028626Y0112811D01*
X0029076Y0112360D01*
X0029076Y0111910D01*
X0028626Y0111459D01*
X0029076Y0111009D01*
X0029076Y0110559D01*
X0028626Y0110108D01*
X0027725Y0110108D01*
X0027275Y0110559D01*
X0028176Y0111459D02*
X0028626Y0111459D01*
X0019110Y0106486D02*
X0019110Y0105586D01*
X0018660Y0105135D01*
X0017759Y0106036D02*
X0017759Y0106486D01*
X0018209Y0106937D01*
X0018660Y0106937D01*
X0019110Y0106486D01*
X0017759Y0106486D02*
X0017309Y0106937D01*
X0016858Y0106937D01*
X0016408Y0106486D01*
X0016408Y0105586D01*
X0016858Y0105135D01*
X0016858Y0103990D02*
X0017759Y0103990D01*
X0018209Y0103540D01*
X0018209Y0102189D01*
X0019110Y0102189D02*
X0016408Y0102189D01*
X0016408Y0103540D01*
X0016858Y0103990D01*
X0016408Y0101044D02*
X0016408Y0100143D01*
X0016408Y0100593D02*
X0018660Y0100593D01*
X0019110Y0100143D01*
X0019110Y0099693D01*
X0018660Y0099242D01*
X0042642Y0110559D02*
X0043092Y0110108D01*
X0043993Y0110108D01*
X0044443Y0110559D01*
X0044443Y0111459D01*
X0043993Y0111910D01*
X0043542Y0111910D01*
X0042642Y0111459D01*
X0042642Y0112811D01*
X0044443Y0112811D01*
X0045588Y0112811D02*
X0045588Y0111009D01*
X0046489Y0110108D01*
X0047390Y0111009D01*
X0047390Y0112811D01*
X0043857Y0140423D02*
X0042055Y0140423D01*
X0041605Y0140874D01*
X0041605Y0141774D01*
X0042055Y0142225D01*
X0042506Y0143370D02*
X0041605Y0144271D01*
X0044307Y0144271D01*
X0044307Y0145171D02*
X0044307Y0143370D01*
X0043857Y0142225D02*
X0044307Y0141774D01*
X0044307Y0140874D01*
X0043857Y0140423D01*
X0043857Y0146316D02*
X0044307Y0146316D01*
X0043857Y0146316D02*
X0042055Y0148118D01*
X0041605Y0148118D01*
X0041605Y0146316D01*
X0040620Y0148835D02*
X0040620Y0158283D01*
X0045344Y0158283D01*
X0045344Y0148835D01*
X0040620Y0148835D01*
X0039439Y0151591D02*
X0036289Y0151591D01*
X0036289Y0157890D01*
X0039439Y0157890D01*
X0039439Y0151591D01*
X0034858Y0151053D02*
X0032156Y0151053D01*
X0032156Y0152855D01*
X0032156Y0154000D02*
X0032156Y0155351D01*
X0032606Y0155801D01*
X0033057Y0155801D01*
X0033507Y0155351D01*
X0033507Y0154000D01*
X0033507Y0155351D02*
X0033958Y0155801D01*
X0034408Y0155801D01*
X0034858Y0155351D01*
X0034858Y0154000D01*
X0032156Y0154000D01*
X0033507Y0151954D02*
X0033507Y0151053D01*
X0032606Y0156946D02*
X0032156Y0157397D01*
X0032156Y0158297D01*
X0032606Y0158748D01*
X0033057Y0158748D01*
X0034858Y0156946D01*
X0034858Y0158748D01*
X0035252Y0165226D02*
X0032550Y0165226D01*
X0032550Y0167028D01*
X0032550Y0168173D02*
X0032550Y0169524D01*
X0033000Y0169974D01*
X0033450Y0169974D01*
X0033901Y0169524D01*
X0033901Y0168173D01*
X0035252Y0168173D02*
X0032550Y0168173D01*
X0033901Y0169524D02*
X0034351Y0169974D01*
X0034802Y0169974D01*
X0035252Y0169524D01*
X0035252Y0168173D01*
X0033901Y0166127D02*
X0033901Y0165226D01*
X0036289Y0165370D02*
X0036289Y0171669D01*
X0039439Y0171669D01*
X0039439Y0165370D01*
X0036289Y0165370D01*
X0040620Y0164976D02*
X0045344Y0164976D01*
X0045344Y0174425D01*
X0040620Y0174425D01*
X0040620Y0164976D01*
X0046132Y0165370D02*
X0049281Y0165370D01*
X0049281Y0171669D01*
X0046132Y0171669D01*
X0046132Y0165370D01*
X0050266Y0165283D02*
X0050717Y0164833D01*
X0052518Y0164833D01*
X0052969Y0165283D01*
X0052969Y0166184D01*
X0052518Y0166634D01*
X0052969Y0167779D02*
X0051167Y0169581D01*
X0050717Y0169581D01*
X0050266Y0169130D01*
X0050266Y0168230D01*
X0050717Y0167779D01*
X0050717Y0166634D02*
X0050266Y0166184D01*
X0050266Y0165283D01*
X0052969Y0167779D02*
X0052969Y0169581D01*
X0052969Y0170726D02*
X0052969Y0172527D01*
X0052969Y0171626D02*
X0050266Y0171626D01*
X0051167Y0170726D01*
X0050856Y0174622D02*
X0048888Y0174622D01*
X0048888Y0176591D01*
X0047707Y0176394D02*
X0044557Y0176394D01*
X0044557Y0182693D01*
X0047707Y0182693D01*
X0047707Y0176394D01*
X0049675Y0179937D02*
X0049675Y0181118D01*
X0046809Y0183730D02*
X0045008Y0183730D01*
X0044558Y0184181D01*
X0044558Y0185081D01*
X0045008Y0185532D01*
X0045458Y0186677D02*
X0044558Y0187578D01*
X0047260Y0187578D01*
X0047260Y0188478D02*
X0047260Y0186677D01*
X0046809Y0185532D02*
X0047260Y0185081D01*
X0047260Y0184181D01*
X0046809Y0183730D01*
X0043520Y0182707D02*
X0043520Y0181806D01*
X0043069Y0181356D01*
X0041268Y0183157D01*
X0043069Y0183157D01*
X0043520Y0182707D01*
X0043069Y0181356D02*
X0041268Y0181356D01*
X0040817Y0181806D01*
X0040817Y0182707D01*
X0041268Y0183157D01*
X0041268Y0180211D02*
X0040817Y0179760D01*
X0040817Y0178859D01*
X0041268Y0178409D01*
X0041268Y0177264D02*
X0040817Y0176814D01*
X0040817Y0175913D01*
X0041268Y0175463D01*
X0043069Y0175463D01*
X0043520Y0175913D01*
X0043520Y0176814D01*
X0043069Y0177264D01*
X0043520Y0178409D02*
X0041718Y0180211D01*
X0041268Y0180211D01*
X0043520Y0180211D02*
X0043520Y0178409D01*
X0035252Y0172921D02*
X0035252Y0171119D01*
X0035252Y0172020D02*
X0032550Y0172020D01*
X0033450Y0171119D01*
X0025539Y0178022D02*
X0023738Y0178022D01*
X0024639Y0178022D02*
X0024639Y0180724D01*
X0023738Y0179823D01*
X0022593Y0180724D02*
X0020791Y0178022D01*
X0022593Y0178022D02*
X0020791Y0180724D01*
X0044558Y0190074D02*
X0044558Y0190974D01*
X0045008Y0191425D01*
X0045458Y0191425D01*
X0045909Y0190974D01*
X0045909Y0190074D01*
X0045458Y0189623D01*
X0045008Y0189623D01*
X0044558Y0190074D01*
X0045909Y0190074D02*
X0046359Y0189623D01*
X0046809Y0189623D01*
X0047260Y0190074D01*
X0047260Y0190974D01*
X0046809Y0191425D01*
X0046359Y0191425D01*
X0045909Y0190974D01*
X0054256Y0191858D02*
X0054706Y0191407D01*
X0055607Y0191407D01*
X0056057Y0191858D01*
X0057202Y0191407D02*
X0059004Y0193209D01*
X0059004Y0193659D01*
X0058554Y0194110D01*
X0057653Y0194110D01*
X0057202Y0193659D01*
X0056057Y0193659D02*
X0055607Y0194110D01*
X0054706Y0194110D01*
X0054256Y0193659D01*
X0054256Y0191858D01*
X0054793Y0190567D02*
X0061093Y0190567D01*
X0061093Y0187417D01*
X0054793Y0187417D01*
X0054793Y0190567D01*
X0057202Y0191407D02*
X0059004Y0191407D01*
X0060149Y0191858D02*
X0060599Y0191407D01*
X0061500Y0191407D01*
X0061950Y0191858D01*
X0061950Y0192308D01*
X0061500Y0192759D01*
X0061050Y0192759D01*
X0061500Y0192759D02*
X0061950Y0193209D01*
X0061950Y0193659D01*
X0061500Y0194110D01*
X0060599Y0194110D01*
X0060149Y0193659D01*
X0059124Y0197654D02*
X0059124Y0203953D01*
X0062274Y0203953D01*
X0062274Y0197654D01*
X0059124Y0197654D01*
X0058337Y0197654D02*
X0055187Y0197654D01*
X0055187Y0203953D01*
X0058337Y0203953D01*
X0058337Y0197654D01*
X0057890Y0204990D02*
X0055187Y0204990D01*
X0055187Y0206341D01*
X0055638Y0206792D01*
X0056539Y0206792D01*
X0056989Y0206341D01*
X0056989Y0204990D01*
X0056989Y0205891D02*
X0057890Y0206792D01*
X0057890Y0207937D02*
X0057439Y0207937D01*
X0055638Y0209738D01*
X0055187Y0209738D01*
X0055187Y0207937D01*
X0059124Y0208387D02*
X0059124Y0209288D01*
X0059575Y0209738D01*
X0060025Y0209738D01*
X0060476Y0209288D01*
X0060476Y0208387D01*
X0060025Y0207937D01*
X0059575Y0207937D01*
X0059124Y0208387D01*
X0060476Y0208387D02*
X0060926Y0207937D01*
X0061376Y0207937D01*
X0061827Y0208387D01*
X0061827Y0209288D01*
X0061376Y0209738D01*
X0060926Y0209738D01*
X0060476Y0209288D01*
X0060476Y0206792D02*
X0060926Y0206341D01*
X0060926Y0204990D01*
X0061827Y0204990D02*
X0059124Y0204990D01*
X0059124Y0206341D01*
X0059575Y0206792D01*
X0060476Y0206792D01*
X0060926Y0205891D02*
X0061827Y0206792D01*
X0059124Y0215370D02*
X0059124Y0223244D01*
X0059124Y0215370D02*
X0012274Y0215370D01*
X0042051Y0243630D02*
X0042502Y0243179D01*
X0042952Y0243179D01*
X0043402Y0243630D01*
X0043402Y0245881D01*
X0042952Y0245881D02*
X0043853Y0245881D01*
X0044998Y0244981D02*
X0045898Y0245881D01*
X0045898Y0243179D01*
X0044998Y0243179D02*
X0046799Y0243179D01*
X0059124Y0242929D02*
X0059124Y0250803D01*
X0012274Y0250803D01*
X0063652Y0250063D02*
X0065454Y0250063D01*
X0066354Y0250963D01*
X0065454Y0251864D01*
X0063652Y0251864D01*
X0065003Y0253009D02*
X0063652Y0254360D01*
X0066354Y0254360D01*
X0065003Y0254811D02*
X0065003Y0253009D01*
X0064553Y0257352D02*
X0065003Y0257803D01*
X0065003Y0258704D01*
X0065454Y0259154D01*
X0065904Y0259154D01*
X0066354Y0258704D01*
X0066354Y0257803D01*
X0065904Y0257352D01*
X0064553Y0257352D02*
X0064102Y0257352D01*
X0063652Y0257803D01*
X0063652Y0258704D01*
X0064102Y0259154D01*
X0063652Y0260299D02*
X0065454Y0260299D01*
X0066354Y0261200D01*
X0065454Y0262100D01*
X0063652Y0262100D01*
X0064102Y0263245D02*
X0063652Y0263696D01*
X0063652Y0264597D01*
X0064102Y0265047D01*
X0064553Y0265047D01*
X0065003Y0264597D01*
X0065454Y0265047D01*
X0065904Y0265047D01*
X0066354Y0264597D01*
X0066354Y0263696D01*
X0065904Y0263245D01*
X0065003Y0264146D02*
X0065003Y0264597D01*
X0069217Y0268039D02*
X0069667Y0267589D01*
X0070568Y0267589D01*
X0071018Y0268039D01*
X0071018Y0268940D01*
X0070117Y0268940D01*
X0069217Y0269841D02*
X0069217Y0268039D01*
X0069217Y0269841D02*
X0069667Y0270291D01*
X0070568Y0270291D01*
X0071018Y0269841D01*
X0072163Y0270291D02*
X0073965Y0267589D01*
X0073965Y0270291D01*
X0075110Y0270291D02*
X0076461Y0270291D01*
X0076911Y0269841D01*
X0076911Y0268039D01*
X0076461Y0267589D01*
X0075110Y0267589D01*
X0075110Y0270291D01*
X0072163Y0270291D02*
X0072163Y0267589D01*
X0079453Y0268039D02*
X0079903Y0267589D01*
X0080804Y0267589D01*
X0081254Y0268039D01*
X0082399Y0267589D02*
X0084201Y0267589D01*
X0085346Y0267589D02*
X0085346Y0270291D01*
X0085796Y0268940D02*
X0087147Y0267589D01*
X0085346Y0268489D02*
X0087147Y0270291D01*
X0089689Y0270291D02*
X0089689Y0267589D01*
X0091040Y0267589D01*
X0091491Y0268039D01*
X0091491Y0269841D01*
X0091040Y0270291D01*
X0089689Y0270291D01*
X0092635Y0269390D02*
X0093536Y0270291D01*
X0094437Y0269390D01*
X0094437Y0267589D01*
X0094437Y0268940D02*
X0092635Y0268940D01*
X0092635Y0269390D02*
X0092635Y0267589D01*
X0096483Y0267589D02*
X0096483Y0270291D01*
X0095582Y0270291D02*
X0097384Y0270291D01*
X0100713Y0270291D02*
X0100713Y0268940D01*
X0101613Y0269390D01*
X0102064Y0269390D01*
X0102514Y0268940D01*
X0102514Y0268039D01*
X0102064Y0267589D01*
X0101163Y0267589D01*
X0100713Y0268039D01*
X0100713Y0270291D02*
X0102514Y0270291D01*
X0103659Y0270291D02*
X0103659Y0268489D01*
X0104560Y0267589D01*
X0105461Y0268489D01*
X0105461Y0270291D01*
X0121132Y0262024D02*
X0125856Y0266748D01*
X0151250Y0266748D01*
X0151350Y0266746D01*
X0151451Y0266740D01*
X0151551Y0266730D01*
X0151650Y0266716D01*
X0151749Y0266699D01*
X0151847Y0266677D01*
X0151945Y0266652D01*
X0152041Y0266623D01*
X0152136Y0266590D01*
X0152229Y0266553D01*
X0152321Y0266513D01*
X0152412Y0266469D01*
X0152500Y0266422D01*
X0152587Y0266371D01*
X0152672Y0266317D01*
X0152754Y0266259D01*
X0152834Y0266199D01*
X0152912Y0266135D01*
X0152987Y0266068D01*
X0153059Y0265998D01*
X0153129Y0265926D01*
X0153196Y0265851D01*
X0153260Y0265773D01*
X0153320Y0265693D01*
X0153378Y0265611D01*
X0153432Y0265526D01*
X0153483Y0265439D01*
X0153530Y0265351D01*
X0153574Y0265260D01*
X0153614Y0265168D01*
X0153651Y0265075D01*
X0153684Y0264980D01*
X0153713Y0264884D01*
X0153738Y0264786D01*
X0153760Y0264688D01*
X0153777Y0264589D01*
X0153791Y0264490D01*
X0153801Y0264390D01*
X0153807Y0264289D01*
X0153809Y0264189D01*
X0153809Y0253362D01*
X0153809Y0247457D02*
X0153809Y0236630D01*
X0153807Y0236530D01*
X0153801Y0236429D01*
X0153791Y0236329D01*
X0153777Y0236230D01*
X0153760Y0236131D01*
X0153738Y0236033D01*
X0153713Y0235935D01*
X0153684Y0235839D01*
X0153651Y0235744D01*
X0153614Y0235651D01*
X0153574Y0235559D01*
X0153530Y0235468D01*
X0153483Y0235380D01*
X0153432Y0235293D01*
X0153378Y0235208D01*
X0153320Y0235126D01*
X0153260Y0235046D01*
X0153196Y0234968D01*
X0153129Y0234893D01*
X0153059Y0234821D01*
X0152987Y0234751D01*
X0152912Y0234684D01*
X0152834Y0234620D01*
X0152754Y0234560D01*
X0152672Y0234502D01*
X0152587Y0234448D01*
X0152500Y0234397D01*
X0152412Y0234350D01*
X0152321Y0234306D01*
X0152229Y0234266D01*
X0152136Y0234229D01*
X0152041Y0234196D01*
X0151945Y0234167D01*
X0151847Y0234142D01*
X0151749Y0234120D01*
X0151650Y0234103D01*
X0151551Y0234089D01*
X0151451Y0234079D01*
X0151350Y0234073D01*
X0151250Y0234071D01*
X0125856Y0234071D01*
X0121132Y0238795D01*
X0121132Y0247457D01*
X0121132Y0253362D02*
X0121132Y0262024D01*
X0135358Y0260785D02*
X0135358Y0258984D01*
X0135809Y0258533D01*
X0136709Y0258533D01*
X0137160Y0258984D01*
X0138305Y0258984D02*
X0138755Y0258533D01*
X0139656Y0258533D01*
X0140106Y0258984D01*
X0140106Y0259434D01*
X0139656Y0259885D01*
X0139206Y0259885D01*
X0139656Y0259885D02*
X0140106Y0260335D01*
X0140106Y0260785D01*
X0139656Y0261236D01*
X0138755Y0261236D01*
X0138305Y0260785D01*
X0137160Y0260785D02*
X0136709Y0261236D01*
X0135809Y0261236D01*
X0135358Y0260785D01*
X0112417Y0251093D02*
X0112417Y0250643D01*
X0111967Y0250643D01*
X0111967Y0251093D01*
X0112417Y0251093D01*
X0112417Y0249579D02*
X0111967Y0249129D01*
X0110165Y0249129D01*
X0110616Y0248678D02*
X0110616Y0249579D01*
X0110616Y0247533D02*
X0112417Y0245732D01*
X0111517Y0244587D02*
X0111517Y0242785D01*
X0111967Y0242785D02*
X0111066Y0242785D01*
X0110616Y0243236D01*
X0110616Y0244137D01*
X0111066Y0244587D01*
X0111517Y0244587D01*
X0112417Y0244137D02*
X0112417Y0243236D01*
X0111967Y0242785D01*
X0111967Y0239850D02*
X0112417Y0239400D01*
X0112417Y0238049D01*
X0109715Y0238049D01*
X0109715Y0239400D01*
X0110165Y0239850D01*
X0110616Y0239850D01*
X0111066Y0239400D01*
X0111066Y0238049D01*
X0111517Y0236904D02*
X0111967Y0236904D01*
X0112417Y0236453D01*
X0112417Y0235552D01*
X0111967Y0235102D01*
X0111066Y0235552D02*
X0111066Y0236453D01*
X0111517Y0236904D01*
X0110165Y0236904D02*
X0109715Y0236453D01*
X0109715Y0235552D01*
X0110165Y0235102D01*
X0110616Y0235102D01*
X0111066Y0235552D01*
X0111967Y0233957D02*
X0109715Y0233957D01*
X0109715Y0232156D02*
X0111967Y0232156D01*
X0112417Y0232606D01*
X0112417Y0233507D01*
X0111967Y0233957D01*
X0107693Y0236937D02*
X0107693Y0237387D01*
X0107243Y0237837D01*
X0104991Y0237837D01*
X0104991Y0237387D02*
X0104991Y0238288D01*
X0104991Y0239433D02*
X0104991Y0240784D01*
X0105441Y0241234D01*
X0106342Y0241234D01*
X0106792Y0240784D01*
X0106792Y0239433D01*
X0107693Y0239433D02*
X0104991Y0239433D01*
X0105891Y0242379D02*
X0104991Y0243280D01*
X0107693Y0243280D01*
X0107693Y0242379D02*
X0107693Y0244181D01*
X0110616Y0245732D02*
X0112417Y0247533D01*
X0111967Y0239850D02*
X0111517Y0239850D01*
X0111066Y0239400D01*
X0107693Y0236937D02*
X0107243Y0236486D01*
X0105187Y0229937D02*
X0113061Y0229937D01*
X0113061Y0212614D01*
X0105187Y0212614D01*
X0105187Y0229937D01*
X0107747Y0223067D02*
X0109098Y0221716D01*
X0109098Y0223518D01*
X0110449Y0223067D02*
X0107747Y0223067D01*
X0108197Y0220571D02*
X0107747Y0220121D01*
X0107747Y0219220D01*
X0108197Y0218770D01*
X0109998Y0218770D01*
X0110449Y0219220D01*
X0110449Y0220121D01*
X0109998Y0220571D01*
X0120148Y0220488D02*
X0120148Y0214189D01*
X0123297Y0214189D01*
X0123297Y0220488D01*
X0120148Y0220488D01*
X0120598Y0221526D02*
X0122400Y0221526D01*
X0122850Y0221976D01*
X0122850Y0222877D01*
X0122400Y0223327D01*
X0122400Y0224472D02*
X0122850Y0224922D01*
X0122850Y0225823D01*
X0122400Y0226274D01*
X0121499Y0226274D01*
X0121049Y0225823D01*
X0121049Y0225373D01*
X0121499Y0224472D01*
X0120148Y0224472D01*
X0120148Y0226274D01*
X0120148Y0227419D02*
X0120148Y0229220D01*
X0120598Y0229220D01*
X0122400Y0227419D01*
X0122850Y0227419D01*
X0120598Y0223327D02*
X0120148Y0222877D01*
X0120148Y0221976D01*
X0120598Y0221526D01*
X0128809Y0224031D02*
X0128809Y0228756D01*
X0138258Y0228756D01*
X0138258Y0224031D01*
X0128809Y0224031D01*
X0131959Y0222850D02*
X0131959Y0222063D01*
X0132746Y0222063D02*
X0150069Y0222063D01*
X0154006Y0224031D02*
X0144557Y0224031D01*
X0144557Y0228756D01*
X0154006Y0228756D01*
X0154006Y0224031D01*
X0157406Y0223974D02*
X0157406Y0222173D01*
X0157856Y0221722D01*
X0158757Y0221722D01*
X0159207Y0222173D01*
X0160352Y0222173D02*
X0160802Y0221722D01*
X0161703Y0221722D01*
X0162154Y0222173D01*
X0162154Y0223074D01*
X0161703Y0223524D01*
X0161253Y0223524D01*
X0160352Y0223074D01*
X0160352Y0224425D01*
X0162154Y0224425D01*
X0163299Y0223974D02*
X0163299Y0223524D01*
X0163749Y0223074D01*
X0165100Y0223074D01*
X0165100Y0223974D02*
X0164650Y0224425D01*
X0163749Y0224425D01*
X0163299Y0223974D01*
X0165100Y0223974D02*
X0165100Y0222173D01*
X0164650Y0221722D01*
X0163749Y0221722D01*
X0163299Y0222173D01*
X0162667Y0220488D02*
X0159518Y0220488D01*
X0159518Y0214189D01*
X0162667Y0214189D01*
X0162667Y0220488D01*
X0159207Y0223974D02*
X0158757Y0224425D01*
X0157856Y0224425D01*
X0157406Y0223974D01*
X0152839Y0229793D02*
X0152839Y0232496D01*
X0151488Y0231144D01*
X0153289Y0231144D01*
X0150343Y0231144D02*
X0150343Y0230244D01*
X0149892Y0229793D01*
X0148991Y0229793D01*
X0148541Y0230244D01*
X0148541Y0231144D02*
X0149442Y0231595D01*
X0149892Y0231595D01*
X0150343Y0231144D01*
X0150343Y0232496D02*
X0148541Y0232496D01*
X0148541Y0231144D01*
X0147396Y0230244D02*
X0146946Y0229793D01*
X0146045Y0229793D01*
X0145594Y0230244D01*
X0145594Y0232045D01*
X0146045Y0232496D01*
X0146946Y0232496D01*
X0147396Y0232045D01*
X0137541Y0232496D02*
X0135739Y0232496D01*
X0135739Y0231144D01*
X0136640Y0231595D01*
X0137091Y0231595D01*
X0137541Y0231144D01*
X0137541Y0230244D01*
X0137091Y0229793D01*
X0136190Y0229793D01*
X0135739Y0230244D01*
X0134595Y0230244D02*
X0134144Y0229793D01*
X0133243Y0229793D01*
X0132793Y0230244D01*
X0132793Y0231144D02*
X0133694Y0231595D01*
X0134144Y0231595D01*
X0134595Y0231144D01*
X0134595Y0230244D01*
X0132793Y0231144D02*
X0132793Y0232496D01*
X0134595Y0232496D01*
X0131648Y0232045D02*
X0131198Y0232496D01*
X0130297Y0232496D01*
X0129846Y0232045D01*
X0129846Y0230244D01*
X0130297Y0229793D01*
X0131198Y0229793D01*
X0131648Y0230244D01*
X0131959Y0222850D02*
X0133927Y0222850D01*
X0137720Y0220291D02*
X0137720Y0218039D01*
X0138171Y0217589D01*
X0139072Y0217589D01*
X0139522Y0218039D01*
X0139522Y0220291D01*
X0140667Y0219390D02*
X0141568Y0220291D01*
X0141568Y0217589D01*
X0140667Y0217589D02*
X0142469Y0217589D01*
X0143614Y0217589D02*
X0145415Y0219390D01*
X0145415Y0219841D01*
X0144965Y0220291D01*
X0144064Y0220291D01*
X0143614Y0219841D01*
X0143614Y0217589D02*
X0145415Y0217589D01*
X0161343Y0210252D02*
X0161343Y0207549D01*
X0161343Y0208450D02*
X0162694Y0208450D01*
X0163144Y0208900D01*
X0163144Y0209801D01*
X0162694Y0210252D01*
X0161343Y0210252D01*
X0162243Y0208450D02*
X0163144Y0207549D01*
X0164289Y0207549D02*
X0166091Y0209351D01*
X0166091Y0209801D01*
X0165640Y0210252D01*
X0164739Y0210252D01*
X0164289Y0209801D01*
X0164289Y0207549D02*
X0166091Y0207549D01*
X0167236Y0208000D02*
X0167686Y0207549D01*
X0168587Y0207549D01*
X0169037Y0208000D01*
X0169037Y0209801D01*
X0168587Y0210252D01*
X0167686Y0210252D01*
X0167236Y0209801D01*
X0167236Y0209351D01*
X0167686Y0208900D01*
X0169037Y0208900D01*
X0166604Y0206315D02*
X0163455Y0206315D01*
X0163455Y0200016D01*
X0166604Y0200016D01*
X0166604Y0206315D01*
X0162667Y0206315D02*
X0159518Y0206315D01*
X0159518Y0200016D01*
X0162667Y0200016D01*
X0162667Y0206315D01*
X0161703Y0198834D02*
X0160802Y0198834D01*
X0160352Y0198384D01*
X0159207Y0198384D02*
X0159207Y0197483D01*
X0158757Y0197033D01*
X0157406Y0197033D01*
X0158306Y0197033D02*
X0159207Y0196132D01*
X0160352Y0196132D02*
X0162154Y0197933D01*
X0162154Y0198384D01*
X0161703Y0198834D01*
X0163299Y0198384D02*
X0163299Y0197933D01*
X0163749Y0197483D01*
X0164650Y0197483D01*
X0165100Y0197033D01*
X0165100Y0196582D01*
X0164650Y0196132D01*
X0163749Y0196132D01*
X0163299Y0196582D01*
X0163299Y0197033D01*
X0163749Y0197483D01*
X0164650Y0197483D02*
X0165100Y0197933D01*
X0165100Y0198384D01*
X0164650Y0198834D01*
X0163749Y0198834D01*
X0163299Y0198384D01*
X0162154Y0196132D02*
X0160352Y0196132D01*
X0159791Y0194307D02*
X0158891Y0193856D01*
X0157990Y0192955D01*
X0159341Y0192955D01*
X0159791Y0192505D01*
X0159791Y0192055D01*
X0159341Y0191604D01*
X0158440Y0191604D01*
X0157990Y0192055D01*
X0157990Y0192955D01*
X0156845Y0192055D02*
X0156394Y0191604D01*
X0155494Y0191604D01*
X0155043Y0192055D01*
X0155043Y0193856D01*
X0155494Y0194307D01*
X0156394Y0194307D01*
X0156845Y0193856D01*
X0157406Y0196132D02*
X0157406Y0198834D01*
X0158757Y0198834D01*
X0159207Y0198384D01*
X0154006Y0195291D02*
X0154006Y0190567D01*
X0144557Y0190567D01*
X0144557Y0195291D01*
X0154006Y0195291D01*
X0160936Y0193856D02*
X0161387Y0194307D01*
X0162287Y0194307D01*
X0162738Y0193856D01*
X0160936Y0192055D01*
X0161387Y0191604D01*
X0162287Y0191604D01*
X0162738Y0192055D01*
X0162738Y0193856D01*
X0160936Y0193856D02*
X0160936Y0192055D01*
X0151250Y0189189D02*
X0148888Y0189189D01*
X0150043Y0186510D02*
X0150043Y0184708D01*
X0148691Y0186059D01*
X0151394Y0186059D01*
X0151394Y0183563D02*
X0151394Y0181762D01*
X0148691Y0181762D01*
X0148888Y0178559D02*
X0151250Y0178559D01*
X0133927Y0178559D02*
X0131565Y0178559D01*
X0131369Y0181368D02*
X0134071Y0181368D01*
X0134071Y0183170D01*
X0133620Y0184315D02*
X0134071Y0184765D01*
X0134071Y0185666D01*
X0133620Y0186116D01*
X0133170Y0186116D01*
X0132720Y0185666D01*
X0132720Y0185215D01*
X0132720Y0185666D02*
X0132269Y0186116D01*
X0131819Y0186116D01*
X0131369Y0185666D01*
X0131369Y0184765D01*
X0131819Y0184315D01*
X0131565Y0189189D02*
X0133927Y0189189D01*
X0138258Y0190567D02*
X0128809Y0190567D01*
X0128809Y0195291D01*
X0138258Y0195291D01*
X0138258Y0190567D01*
X0138652Y0195685D02*
X0138652Y0200409D01*
X0148100Y0200409D01*
X0148100Y0195685D01*
X0138652Y0195685D01*
X0137541Y0197173D02*
X0137091Y0196722D01*
X0136190Y0196722D01*
X0135739Y0197173D01*
X0135739Y0198074D01*
X0137091Y0198074D01*
X0137541Y0197623D01*
X0137541Y0197173D01*
X0136640Y0198974D02*
X0135739Y0198074D01*
X0134595Y0198074D02*
X0134595Y0197173D01*
X0134144Y0196722D01*
X0133243Y0196722D01*
X0132793Y0197173D01*
X0132793Y0198074D02*
X0133694Y0198524D01*
X0134144Y0198524D01*
X0134595Y0198074D01*
X0134595Y0199425D02*
X0132793Y0199425D01*
X0132793Y0198074D01*
X0131648Y0198974D02*
X0131198Y0199425D01*
X0130297Y0199425D01*
X0129846Y0198974D01*
X0129846Y0197173D01*
X0130297Y0196722D01*
X0131198Y0196722D01*
X0131648Y0197173D01*
X0132746Y0200803D02*
X0150069Y0200803D01*
X0137541Y0199425D02*
X0136640Y0198974D01*
X0127699Y0193856D02*
X0127699Y0193406D01*
X0127248Y0192955D01*
X0126347Y0192955D01*
X0125897Y0193406D01*
X0125897Y0193856D01*
X0126347Y0194307D01*
X0127248Y0194307D01*
X0127699Y0193856D01*
X0127248Y0192955D02*
X0127699Y0192505D01*
X0127699Y0192055D01*
X0127248Y0191604D01*
X0126347Y0191604D01*
X0125897Y0192055D01*
X0125897Y0192505D01*
X0126347Y0192955D01*
X0124752Y0192955D02*
X0124752Y0192055D01*
X0124302Y0191604D01*
X0123401Y0191604D01*
X0122950Y0192055D01*
X0122950Y0192955D02*
X0123851Y0193406D01*
X0124302Y0193406D01*
X0124752Y0192955D01*
X0124752Y0194307D02*
X0122950Y0194307D01*
X0122950Y0192955D01*
X0121805Y0192055D02*
X0121355Y0191604D01*
X0120454Y0191604D01*
X0120004Y0192055D01*
X0120004Y0193856D01*
X0120454Y0194307D01*
X0121355Y0194307D01*
X0121805Y0193856D01*
X0120982Y0196526D02*
X0122783Y0198327D01*
X0122783Y0198778D01*
X0122333Y0199228D01*
X0121432Y0199228D01*
X0120982Y0198778D01*
X0119837Y0198778D02*
X0119837Y0197877D01*
X0119387Y0197426D01*
X0118035Y0197426D01*
X0118035Y0196526D02*
X0118035Y0199228D01*
X0119387Y0199228D01*
X0119837Y0198778D01*
X0120148Y0200016D02*
X0120148Y0206315D01*
X0123297Y0206315D01*
X0123297Y0200016D01*
X0120148Y0200016D01*
X0119360Y0200016D02*
X0116211Y0200016D01*
X0116211Y0206315D01*
X0119360Y0206315D01*
X0119360Y0200016D01*
X0118936Y0197426D02*
X0119837Y0196526D01*
X0120982Y0196526D02*
X0122783Y0196526D01*
X0123928Y0196526D02*
X0123928Y0196976D01*
X0125730Y0198778D01*
X0125730Y0199228D01*
X0123928Y0199228D01*
X0121343Y0207156D02*
X0121793Y0207606D01*
X0121793Y0208056D01*
X0121343Y0208507D01*
X0119991Y0208507D01*
X0119991Y0207606D01*
X0120442Y0207156D01*
X0121343Y0207156D01*
X0119991Y0208507D02*
X0120892Y0209407D01*
X0121793Y0209858D01*
X0118846Y0209407D02*
X0118396Y0209858D01*
X0117495Y0209858D01*
X0117045Y0209407D01*
X0115900Y0209407D02*
X0115900Y0208507D01*
X0115450Y0208056D01*
X0114098Y0208056D01*
X0114098Y0207156D02*
X0114098Y0209858D01*
X0115450Y0209858D01*
X0115900Y0209407D01*
X0114999Y0208056D02*
X0115900Y0207156D01*
X0117045Y0207156D02*
X0118846Y0208957D01*
X0118846Y0209407D01*
X0118846Y0207156D02*
X0117045Y0207156D01*
X0106325Y0198440D02*
X0105425Y0197540D01*
X0106325Y0198440D02*
X0106325Y0195738D01*
X0105425Y0195738D02*
X0107226Y0195738D01*
X0104280Y0195738D02*
X0102478Y0195738D01*
X0103379Y0195738D02*
X0103379Y0198440D01*
X0102478Y0197540D01*
X0101333Y0197990D02*
X0101333Y0197089D01*
X0100883Y0196639D01*
X0099531Y0196639D01*
X0099531Y0195738D02*
X0099531Y0198440D01*
X0100883Y0198440D01*
X0101333Y0197990D01*
X0100432Y0196639D02*
X0101333Y0195738D01*
X0102037Y0194504D02*
X0098888Y0194504D01*
X0098888Y0188205D01*
X0102037Y0188205D01*
X0102037Y0194504D01*
X0098494Y0194504D02*
X0095344Y0194504D01*
X0095344Y0188205D01*
X0098494Y0188205D01*
X0098494Y0194504D01*
X0096799Y0195795D02*
X0096799Y0196245D01*
X0096349Y0196696D01*
X0094998Y0196696D01*
X0094998Y0195795D01*
X0095448Y0195344D01*
X0096349Y0195344D01*
X0096799Y0195795D01*
X0095898Y0197596D02*
X0094998Y0196696D01*
X0093853Y0196696D02*
X0093402Y0196245D01*
X0092051Y0196245D01*
X0092051Y0195344D02*
X0092051Y0198047D01*
X0093402Y0198047D01*
X0093853Y0197596D01*
X0093853Y0196696D01*
X0092952Y0196245D02*
X0093853Y0195344D01*
X0091014Y0194898D02*
X0091014Y0198047D01*
X0084715Y0198047D01*
X0084715Y0194898D01*
X0091014Y0194898D01*
X0091014Y0198441D02*
X0084715Y0198441D01*
X0084715Y0201591D01*
X0091014Y0201591D01*
X0091014Y0198441D01*
X0092051Y0199281D02*
X0092051Y0201984D01*
X0093402Y0201984D01*
X0093853Y0201533D01*
X0093853Y0200633D01*
X0093402Y0200182D01*
X0092051Y0200182D01*
X0092952Y0200182D02*
X0093853Y0199281D01*
X0094998Y0199732D02*
X0095448Y0199281D01*
X0096349Y0199281D01*
X0096799Y0199732D01*
X0096799Y0200633D01*
X0096349Y0201083D01*
X0095898Y0201083D01*
X0094998Y0200633D01*
X0094998Y0201984D01*
X0096799Y0201984D01*
X0096799Y0203219D02*
X0094998Y0203219D01*
X0095898Y0203219D02*
X0095898Y0205921D01*
X0094998Y0205020D01*
X0093853Y0205470D02*
X0093402Y0205921D01*
X0092502Y0205921D01*
X0092051Y0205470D01*
X0092051Y0203669D01*
X0092502Y0203219D01*
X0093402Y0203219D01*
X0093853Y0203669D01*
X0091014Y0205134D02*
X0091014Y0201984D01*
X0084715Y0201984D01*
X0084715Y0205134D01*
X0091014Y0205134D01*
X0097944Y0204570D02*
X0099295Y0204570D01*
X0099746Y0204119D01*
X0099746Y0203669D01*
X0099295Y0203219D01*
X0098395Y0203219D01*
X0097944Y0203669D01*
X0097944Y0204570D01*
X0098845Y0205470D01*
X0099746Y0205921D01*
X0096799Y0198047D02*
X0095898Y0197596D01*
X0093784Y0191354D02*
X0092883Y0191354D01*
X0092432Y0190903D01*
X0093784Y0191354D02*
X0094234Y0190903D01*
X0094234Y0190453D01*
X0092432Y0188652D01*
X0094234Y0188652D01*
X0091287Y0188652D02*
X0089486Y0188652D01*
X0090387Y0188652D02*
X0090387Y0191354D01*
X0089486Y0190453D01*
X0088341Y0190003D02*
X0087891Y0189552D01*
X0086539Y0189552D01*
X0086539Y0188652D02*
X0086539Y0191354D01*
X0087891Y0191354D01*
X0088341Y0190903D01*
X0088341Y0190003D01*
X0087440Y0189552D02*
X0088341Y0188652D01*
X0079059Y0193916D02*
X0072259Y0193916D01*
X0074282Y0197904D02*
X0076534Y0197904D01*
X0076984Y0198354D01*
X0076984Y0199255D01*
X0076534Y0199705D01*
X0074282Y0199705D01*
X0074732Y0200850D02*
X0074282Y0201300D01*
X0074282Y0202201D01*
X0074732Y0202652D01*
X0075183Y0202652D01*
X0075633Y0202201D01*
X0076083Y0202652D01*
X0076534Y0202652D01*
X0076984Y0202201D01*
X0076984Y0201300D01*
X0076534Y0200850D01*
X0075633Y0201751D02*
X0075633Y0202201D01*
X0074459Y0206116D02*
X0074461Y0206047D01*
X0074467Y0205979D01*
X0074477Y0205911D01*
X0074490Y0205844D01*
X0074508Y0205778D01*
X0074529Y0205713D01*
X0074554Y0205649D01*
X0074582Y0205587D01*
X0074614Y0205526D01*
X0074649Y0205467D01*
X0074688Y0205411D01*
X0074730Y0205356D01*
X0074775Y0205305D01*
X0074823Y0205255D01*
X0074873Y0205209D01*
X0074926Y0205166D01*
X0074982Y0205125D01*
X0075039Y0205088D01*
X0075099Y0205055D01*
X0075161Y0205024D01*
X0075224Y0204998D01*
X0075288Y0204975D01*
X0075354Y0204955D01*
X0075421Y0204940D01*
X0075488Y0204928D01*
X0075556Y0204920D01*
X0075625Y0204916D01*
X0075693Y0204916D01*
X0075762Y0204920D01*
X0075830Y0204928D01*
X0075897Y0204940D01*
X0075964Y0204955D01*
X0076030Y0204975D01*
X0076094Y0204998D01*
X0076157Y0205024D01*
X0076219Y0205055D01*
X0076279Y0205088D01*
X0076336Y0205125D01*
X0076392Y0205166D01*
X0076445Y0205209D01*
X0076495Y0205255D01*
X0076543Y0205305D01*
X0076588Y0205356D01*
X0076630Y0205411D01*
X0076669Y0205467D01*
X0076704Y0205526D01*
X0076736Y0205587D01*
X0076764Y0205649D01*
X0076789Y0205713D01*
X0076810Y0205778D01*
X0076828Y0205844D01*
X0076841Y0205911D01*
X0076851Y0205979D01*
X0076857Y0206047D01*
X0076859Y0206116D01*
X0074459Y0206116D01*
X0072259Y0206116D01*
X0076859Y0206116D02*
X0079059Y0206116D01*
X0076854Y0218376D02*
X0075503Y0218376D01*
X0075503Y0221078D01*
X0076854Y0221078D01*
X0077305Y0220628D01*
X0077305Y0218826D01*
X0076854Y0218376D01*
X0074358Y0218376D02*
X0074358Y0221078D01*
X0072557Y0221078D02*
X0074358Y0218376D01*
X0072557Y0218376D02*
X0072557Y0221078D01*
X0071412Y0220628D02*
X0070961Y0221078D01*
X0070061Y0221078D01*
X0069610Y0220628D01*
X0069610Y0218826D01*
X0070061Y0218376D01*
X0070961Y0218376D01*
X0071412Y0218826D01*
X0071412Y0219727D01*
X0070511Y0219727D01*
X0083783Y0218376D02*
X0085135Y0218376D01*
X0085585Y0218826D01*
X0085585Y0220628D01*
X0085135Y0221078D01*
X0083783Y0221078D01*
X0083783Y0218376D01*
X0086730Y0218376D02*
X0088532Y0218376D01*
X0087631Y0218376D02*
X0087631Y0221078D01*
X0086730Y0220178D01*
X0067158Y0241998D02*
X0068059Y0242899D01*
X0068059Y0244700D01*
X0066258Y0244700D02*
X0066258Y0242899D01*
X0067158Y0241998D01*
X0065113Y0242448D02*
X0064662Y0241998D01*
X0063761Y0241998D01*
X0063311Y0242448D01*
X0063311Y0243349D02*
X0064212Y0243800D01*
X0064662Y0243800D01*
X0065113Y0243349D01*
X0065113Y0242448D01*
X0063311Y0243349D02*
X0063311Y0244700D01*
X0065113Y0244700D01*
X0064553Y0247116D02*
X0065003Y0247567D01*
X0065003Y0248467D01*
X0065454Y0248918D01*
X0065904Y0248918D01*
X0066354Y0248467D01*
X0066354Y0247567D01*
X0065904Y0247116D01*
X0064553Y0247116D02*
X0064102Y0247116D01*
X0063652Y0247567D01*
X0063652Y0248467D01*
X0064102Y0248918D01*
X0079453Y0268039D02*
X0079453Y0269841D01*
X0079903Y0270291D01*
X0080804Y0270291D01*
X0081254Y0269841D01*
X0082399Y0270291D02*
X0082399Y0267589D01*
X0157550Y0268077D02*
X0160252Y0268077D01*
X0160252Y0267176D02*
X0160252Y0268978D01*
X0158450Y0267176D02*
X0157550Y0268077D01*
X0158000Y0266031D02*
X0157550Y0265581D01*
X0157550Y0264230D01*
X0160252Y0264230D01*
X0160252Y0265581D01*
X0159802Y0266031D01*
X0158000Y0266031D01*
X0157550Y0263085D02*
X0157550Y0261283D01*
X0160252Y0261283D01*
X0160252Y0263085D01*
X0158901Y0262184D02*
X0158901Y0261283D01*
X0160252Y0260138D02*
X0160252Y0258337D01*
X0157550Y0258337D01*
X0163455Y0260646D02*
X0163455Y0263795D01*
X0169754Y0263795D01*
X0169754Y0260646D01*
X0163455Y0260646D01*
X0164098Y0259464D02*
X0165450Y0259464D01*
X0165900Y0259014D01*
X0165900Y0258113D01*
X0165450Y0257663D01*
X0164098Y0257663D01*
X0164999Y0257663D02*
X0165900Y0256762D01*
X0167045Y0258113D02*
X0168846Y0258113D01*
X0168396Y0259464D02*
X0167045Y0258113D01*
X0168396Y0256762D02*
X0168396Y0259464D01*
X0164098Y0259464D02*
X0164098Y0256762D01*
X0169951Y0243126D02*
X0169951Y0227772D01*
X0175179Y0234124D02*
X0176079Y0234124D01*
X0176530Y0234574D01*
X0176530Y0236826D01*
X0177675Y0236376D02*
X0177675Y0235926D01*
X0178125Y0235475D01*
X0179476Y0235475D01*
X0179476Y0234574D02*
X0179476Y0236376D01*
X0179026Y0236826D01*
X0178125Y0236826D01*
X0177675Y0236376D01*
X0177675Y0234574D02*
X0178125Y0234124D01*
X0179026Y0234124D01*
X0179476Y0234574D01*
X0175179Y0234124D02*
X0174728Y0234574D01*
X0174728Y0236826D01*
X0189242Y0243126D02*
X0189242Y0227772D01*
X0189733Y0219307D02*
X0189283Y0218856D01*
X0189283Y0218406D01*
X0189733Y0217955D01*
X0191084Y0217955D01*
X0191084Y0217055D02*
X0191084Y0218856D01*
X0190634Y0219307D01*
X0189733Y0219307D01*
X0189283Y0217055D02*
X0189733Y0216604D01*
X0190634Y0216604D01*
X0191084Y0217055D01*
X0188138Y0216604D02*
X0186336Y0216604D01*
X0187237Y0216604D02*
X0187237Y0219307D01*
X0186336Y0218406D01*
X0185191Y0218856D02*
X0185191Y0217955D01*
X0184741Y0217505D01*
X0183390Y0217505D01*
X0184291Y0217505D02*
X0185191Y0216604D01*
X0183390Y0216604D02*
X0183390Y0219307D01*
X0184741Y0219307D01*
X0185191Y0218856D01*
X0181959Y0219307D02*
X0181959Y0216157D01*
X0175659Y0216157D01*
X0175659Y0219307D01*
X0181959Y0219307D01*
X0181959Y0215370D02*
X0175659Y0215370D01*
X0175659Y0212220D01*
X0181959Y0212220D01*
X0181959Y0215370D01*
X0181973Y0211039D02*
X0182423Y0210589D01*
X0180621Y0208787D01*
X0181072Y0208337D01*
X0181973Y0208337D01*
X0182423Y0208787D01*
X0182423Y0210589D01*
X0181973Y0211039D02*
X0181072Y0211039D01*
X0180621Y0210589D01*
X0180621Y0208787D01*
X0179476Y0208337D02*
X0177675Y0208337D01*
X0179476Y0210138D01*
X0179476Y0210589D01*
X0179026Y0211039D01*
X0178125Y0211039D01*
X0177675Y0210589D01*
X0176530Y0210589D02*
X0176530Y0209688D01*
X0176079Y0209237D01*
X0174728Y0209237D01*
X0174728Y0208337D02*
X0174728Y0211039D01*
X0176079Y0211039D01*
X0176530Y0210589D01*
X0175629Y0209237D02*
X0176530Y0208337D01*
X0122187Y0189919D02*
X0121736Y0190370D01*
X0120836Y0190370D01*
X0120385Y0189919D01*
X0119240Y0189919D02*
X0118790Y0190370D01*
X0117889Y0190370D01*
X0117439Y0189919D01*
X0116294Y0189919D02*
X0115843Y0190370D01*
X0114943Y0190370D01*
X0114492Y0189919D01*
X0114492Y0188118D01*
X0114943Y0187667D01*
X0115843Y0187667D01*
X0116294Y0188118D01*
X0117439Y0187667D02*
X0119240Y0189469D01*
X0119240Y0189919D01*
X0119240Y0187667D02*
X0117439Y0187667D01*
X0119360Y0185449D02*
X0119360Y0180724D01*
X0109911Y0180724D01*
X0109911Y0185449D01*
X0119360Y0185449D01*
X0120385Y0187667D02*
X0122187Y0189469D01*
X0122187Y0189919D01*
X0122187Y0187667D02*
X0120385Y0187667D01*
X0113455Y0186236D02*
X0104006Y0186236D01*
X0104006Y0190961D01*
X0113455Y0190961D01*
X0113455Y0186236D01*
X0115336Y0179740D02*
X0114886Y0179289D01*
X0114886Y0177488D01*
X0115336Y0177037D01*
X0116237Y0177037D01*
X0116687Y0177488D01*
X0117832Y0177037D02*
X0119634Y0178839D01*
X0119634Y0179289D01*
X0119183Y0179740D01*
X0118283Y0179740D01*
X0117832Y0179289D01*
X0116687Y0179289D02*
X0116237Y0179740D01*
X0115336Y0179740D01*
X0117832Y0177037D02*
X0119634Y0177037D01*
X0120779Y0177037D02*
X0120779Y0177488D01*
X0122580Y0179289D01*
X0122580Y0179740D01*
X0120779Y0179740D01*
X0125179Y0168126D02*
X0124728Y0167675D01*
X0124728Y0165874D01*
X0125179Y0165423D01*
X0126079Y0165423D01*
X0126530Y0165874D01*
X0127675Y0165423D02*
X0129476Y0167225D01*
X0129476Y0167675D01*
X0129026Y0168126D01*
X0128125Y0168126D01*
X0127675Y0167675D01*
X0126530Y0167675D02*
X0126079Y0168126D01*
X0125179Y0168126D01*
X0127675Y0165423D02*
X0129476Y0165423D01*
X0130621Y0165874D02*
X0131072Y0165423D01*
X0131973Y0165423D01*
X0132423Y0165874D01*
X0132423Y0166324D01*
X0131973Y0166774D01*
X0130621Y0166774D01*
X0130621Y0165874D01*
X0130621Y0166774D02*
X0131522Y0167675D01*
X0132423Y0168126D01*
X0131565Y0164189D02*
X0131565Y0161039D01*
X0125266Y0161039D01*
X0125266Y0164189D01*
X0131565Y0164189D01*
X0131973Y0157496D02*
X0131072Y0157496D01*
X0130621Y0157045D01*
X0130621Y0156595D01*
X0131072Y0156144D01*
X0132423Y0156144D01*
X0132423Y0155244D02*
X0132423Y0157045D01*
X0131973Y0157496D01*
X0132423Y0155244D02*
X0131973Y0154793D01*
X0131072Y0154793D01*
X0130621Y0155244D01*
X0129476Y0154793D02*
X0127675Y0154793D01*
X0129476Y0156595D01*
X0129476Y0157045D01*
X0129026Y0157496D01*
X0128125Y0157496D01*
X0127675Y0157045D01*
X0126530Y0157045D02*
X0126079Y0157496D01*
X0125179Y0157496D01*
X0124728Y0157045D01*
X0124728Y0155244D01*
X0125179Y0154793D01*
X0126079Y0154793D01*
X0126530Y0155244D01*
X0125266Y0153559D02*
X0125266Y0150409D01*
X0131565Y0150409D01*
X0131565Y0153559D01*
X0125266Y0153559D01*
X0156618Y0154063D02*
X0157068Y0153612D01*
X0157969Y0153612D01*
X0158420Y0154063D01*
X0159565Y0154963D02*
X0161366Y0154963D01*
X0160916Y0153612D02*
X0160916Y0156315D01*
X0159565Y0154963D01*
X0158420Y0155864D02*
X0157969Y0156315D01*
X0157068Y0156315D01*
X0156618Y0155864D01*
X0156618Y0154063D01*
X0158730Y0157890D02*
X0158730Y0164189D01*
X0161880Y0164189D01*
X0161880Y0157890D01*
X0158730Y0157890D01*
X0162511Y0155864D02*
X0162511Y0154063D01*
X0164313Y0155864D01*
X0164313Y0154063D01*
X0163862Y0153612D01*
X0162962Y0153612D01*
X0162511Y0154063D01*
X0162511Y0155864D02*
X0162962Y0156315D01*
X0163862Y0156315D01*
X0164313Y0155864D01*
X0164045Y0158677D02*
X0165226Y0158677D01*
X0164045Y0158677D02*
X0164045Y0159858D01*
X0164045Y0163795D02*
X0164045Y0164976D01*
X0165226Y0164976D01*
X0166264Y0166267D02*
X0166264Y0168519D01*
X0168065Y0168519D02*
X0168065Y0166267D01*
X0167615Y0165817D01*
X0166714Y0165817D01*
X0166264Y0166267D01*
X0169210Y0166267D02*
X0169661Y0165817D01*
X0170561Y0165817D01*
X0171012Y0166267D01*
X0171012Y0166718D01*
X0170561Y0167168D01*
X0169210Y0167168D01*
X0169210Y0166267D01*
X0169210Y0167168D02*
X0170111Y0168069D01*
X0171012Y0168519D01*
X0171132Y0164976D02*
X0172313Y0164976D01*
X0172313Y0163795D01*
X0172313Y0159858D02*
X0172313Y0158677D01*
X0171132Y0158677D01*
X0219610Y0169220D02*
X0220061Y0168770D01*
X0220961Y0168770D01*
X0221412Y0169220D01*
X0221412Y0171472D01*
X0222557Y0171022D02*
X0223007Y0171472D01*
X0223908Y0171472D01*
X0224358Y0171022D01*
X0224358Y0170571D01*
X0222557Y0168770D01*
X0224358Y0168770D01*
X0219610Y0169220D02*
X0219610Y0171472D01*
X0246132Y0208140D02*
X0246132Y0209491D01*
X0246583Y0209941D01*
X0247484Y0209941D01*
X0247934Y0209491D01*
X0247934Y0208140D01*
X0247934Y0209041D02*
X0248835Y0209941D01*
X0248835Y0211086D02*
X0248835Y0212888D01*
X0248835Y0211987D02*
X0246132Y0211987D01*
X0247033Y0211086D01*
X0247484Y0214033D02*
X0247484Y0215384D01*
X0247934Y0215834D01*
X0248384Y0215834D01*
X0248835Y0215384D01*
X0248835Y0214483D01*
X0248384Y0214033D01*
X0247484Y0214033D01*
X0246583Y0214934D01*
X0246132Y0215834D01*
X0250069Y0215764D02*
X0253219Y0215764D01*
X0253219Y0209465D01*
X0250069Y0209465D01*
X0250069Y0215764D01*
X0254400Y0215764D02*
X0257549Y0215764D01*
X0257549Y0209465D01*
X0254400Y0209465D01*
X0254400Y0215764D01*
X0254400Y0216801D02*
X0254400Y0218152D01*
X0254850Y0218603D01*
X0255751Y0218603D01*
X0256202Y0218152D01*
X0256202Y0216801D01*
X0257102Y0216801D02*
X0254400Y0216801D01*
X0256202Y0217702D02*
X0257102Y0218603D01*
X0257102Y0219748D02*
X0255301Y0221549D01*
X0254850Y0221549D01*
X0254400Y0221099D01*
X0254400Y0220198D01*
X0254850Y0219748D01*
X0257102Y0219748D02*
X0257102Y0221549D01*
X0257102Y0222694D02*
X0257102Y0224496D01*
X0257102Y0223595D02*
X0254400Y0223595D01*
X0255301Y0222694D01*
X0248494Y0223638D02*
X0248494Y0220488D01*
X0242195Y0220488D01*
X0242195Y0223638D01*
X0248494Y0223638D01*
X0247944Y0224872D02*
X0247944Y0225322D01*
X0249746Y0227124D01*
X0249746Y0227574D01*
X0247944Y0227574D01*
X0245898Y0227574D02*
X0245898Y0224872D01*
X0244998Y0224872D02*
X0246799Y0224872D01*
X0244998Y0226674D02*
X0245898Y0227574D01*
X0243853Y0227124D02*
X0243853Y0226223D01*
X0243402Y0225773D01*
X0242051Y0225773D01*
X0242952Y0225773D02*
X0243853Y0224872D01*
X0242051Y0224872D02*
X0242051Y0227574D01*
X0243402Y0227574D01*
X0243853Y0227124D01*
X0242982Y0229937D02*
X0242982Y0233087D01*
X0249281Y0233087D01*
X0249281Y0229937D01*
X0242982Y0229937D01*
X0244864Y0234321D02*
X0245765Y0234321D01*
X0246215Y0234771D01*
X0244864Y0234321D02*
X0244413Y0234771D01*
X0244413Y0236573D01*
X0244864Y0237023D01*
X0245765Y0237023D01*
X0246215Y0236573D01*
X0247360Y0235672D02*
X0248711Y0237023D01*
X0248711Y0234321D01*
X0249161Y0235672D02*
X0247360Y0235672D01*
X0250306Y0235672D02*
X0251658Y0235672D01*
X0252108Y0235222D01*
X0252108Y0234771D01*
X0251658Y0234321D01*
X0250757Y0234321D01*
X0250306Y0234771D01*
X0250306Y0235672D01*
X0251207Y0236573D01*
X0252108Y0237023D01*
X0263512Y0216622D02*
X0263962Y0216622D01*
X0264413Y0216171D01*
X0264413Y0215271D01*
X0263962Y0214820D01*
X0263512Y0214820D01*
X0263061Y0215271D01*
X0263061Y0216171D01*
X0263512Y0216622D01*
X0264413Y0216171D02*
X0264863Y0216622D01*
X0265313Y0216622D01*
X0265764Y0216171D01*
X0265764Y0215271D01*
X0265313Y0214820D01*
X0264863Y0214820D01*
X0264413Y0215271D01*
X0265764Y0213675D02*
X0265764Y0211874D01*
X0265764Y0212774D02*
X0263061Y0212774D01*
X0263962Y0211874D01*
X0263512Y0210729D02*
X0263061Y0210278D01*
X0263061Y0208927D01*
X0265764Y0208927D01*
X0264863Y0208927D02*
X0264863Y0210278D01*
X0264413Y0210729D01*
X0263512Y0210729D01*
X0264863Y0209828D02*
X0265764Y0210729D01*
X0261880Y0209465D02*
X0258730Y0209465D01*
X0258730Y0215764D01*
X0261880Y0215764D01*
X0261880Y0209465D01*
X0248835Y0208140D02*
X0246132Y0208140D01*
X0227254Y0259360D02*
X0226354Y0259360D01*
X0225903Y0259811D01*
X0224758Y0259360D02*
X0222957Y0262063D01*
X0224758Y0262063D02*
X0222957Y0259360D01*
X0225903Y0261612D02*
X0226354Y0262063D01*
X0227254Y0262063D01*
X0227705Y0261612D01*
X0227705Y0261162D01*
X0227254Y0260711D01*
X0227705Y0260261D01*
X0227705Y0259811D01*
X0227254Y0259360D01*
X0227254Y0260711D02*
X0226804Y0260711D01*
X0334912Y0221093D02*
X0336263Y0219741D01*
X0336263Y0221543D01*
X0337614Y0221093D02*
X0334912Y0221093D01*
X0334912Y0218596D02*
X0337614Y0218596D01*
X0334912Y0216795D01*
X0337614Y0216795D01*
X0337614Y0215650D02*
X0336713Y0214749D01*
X0336713Y0215200D02*
X0336713Y0213848D01*
X0337614Y0213848D02*
X0334912Y0213848D01*
X0334912Y0215200D01*
X0335362Y0215650D01*
X0336263Y0215650D01*
X0336713Y0215200D01*
X0338258Y0212417D02*
X0334321Y0212417D01*
X0334321Y0203756D02*
X0338258Y0203756D01*
X0338258Y0199622D02*
X0334321Y0199622D01*
X0334321Y0190961D02*
X0338258Y0190961D01*
X0337164Y0189456D02*
X0337614Y0189006D01*
X0337614Y0188105D01*
X0337164Y0187655D01*
X0336263Y0187655D02*
X0335813Y0188556D01*
X0335813Y0189006D01*
X0336263Y0189456D01*
X0337164Y0189456D01*
X0336263Y0187655D02*
X0334912Y0187655D01*
X0334912Y0189456D01*
X0334912Y0186510D02*
X0337614Y0186510D01*
X0334912Y0184708D01*
X0337614Y0184708D01*
X0337614Y0183563D02*
X0336713Y0182663D01*
X0336713Y0183113D02*
X0336713Y0181762D01*
X0337614Y0181762D02*
X0334912Y0181762D01*
X0334912Y0183113D01*
X0335362Y0183563D01*
X0336263Y0183563D01*
X0336713Y0183113D01*
X0339045Y0178362D02*
X0339045Y0175213D01*
X0345344Y0175213D01*
X0345344Y0178362D01*
X0339045Y0178362D01*
X0342195Y0179793D02*
X0342195Y0181144D01*
X0342646Y0181595D01*
X0343546Y0181595D01*
X0343997Y0181144D01*
X0343997Y0179793D01*
X0344898Y0179793D02*
X0342195Y0179793D01*
X0343997Y0180694D02*
X0344898Y0181595D01*
X0344898Y0182740D02*
X0343096Y0184541D01*
X0342646Y0184541D01*
X0342195Y0184091D01*
X0342195Y0183190D01*
X0342646Y0182740D01*
X0344898Y0182740D02*
X0344898Y0184541D01*
X0344447Y0185686D02*
X0344898Y0186137D01*
X0344898Y0187037D01*
X0344447Y0187488D01*
X0343997Y0187488D01*
X0343546Y0187037D01*
X0343546Y0186587D01*
X0343546Y0187037D02*
X0343096Y0187488D01*
X0342646Y0187488D01*
X0342195Y0187037D01*
X0342195Y0186137D01*
X0342646Y0185686D01*
X0340173Y0174102D02*
X0340173Y0172301D01*
X0338372Y0174102D01*
X0337921Y0174102D01*
X0337471Y0173652D01*
X0337471Y0172751D01*
X0337921Y0172301D01*
X0337921Y0171156D02*
X0337471Y0170705D01*
X0337471Y0169804D01*
X0337921Y0169354D01*
X0337921Y0168209D02*
X0338822Y0168209D01*
X0339272Y0167759D01*
X0339272Y0166407D01*
X0340173Y0166407D02*
X0337471Y0166407D01*
X0337471Y0167759D01*
X0337921Y0168209D01*
X0339272Y0167308D02*
X0340173Y0168209D01*
X0340173Y0169354D02*
X0338372Y0171156D01*
X0337921Y0171156D01*
X0340173Y0171156D02*
X0340173Y0169354D01*
X0336289Y0167339D02*
X0333140Y0167339D01*
X0333140Y0173638D01*
X0336289Y0173638D01*
X0336289Y0167339D01*
X0348350Y0158817D02*
X0348350Y0157015D01*
X0348801Y0156565D01*
X0349702Y0156565D01*
X0350152Y0157015D01*
X0351297Y0156565D02*
X0353098Y0156565D01*
X0352198Y0156565D02*
X0352198Y0159267D01*
X0351297Y0158366D01*
X0350152Y0158817D02*
X0349702Y0159267D01*
X0348801Y0159267D01*
X0348350Y0158817D01*
X0347707Y0155528D02*
X0347707Y0150803D01*
X0357156Y0150803D01*
X0357156Y0155528D01*
X0347707Y0155528D01*
X0346132Y0151197D02*
X0342982Y0151197D01*
X0342982Y0144898D01*
X0346132Y0144898D01*
X0346132Y0151197D01*
X0348100Y0149622D02*
X0348100Y0146472D01*
X0354400Y0146472D01*
X0354400Y0149622D01*
X0348100Y0149622D01*
X0355437Y0149171D02*
X0355437Y0147370D01*
X0355887Y0146919D01*
X0356788Y0146919D01*
X0357239Y0147370D01*
X0358384Y0146919D02*
X0360185Y0148721D01*
X0360185Y0149171D01*
X0359735Y0149622D01*
X0358834Y0149622D01*
X0358384Y0149171D01*
X0357239Y0149171D02*
X0356788Y0149622D01*
X0355887Y0149622D01*
X0355437Y0149171D01*
X0358384Y0146919D02*
X0360185Y0146919D01*
X0359911Y0139386D02*
X0356368Y0139386D01*
X0341748Y0145935D02*
X0339046Y0145935D01*
X0339046Y0147286D01*
X0339496Y0147737D01*
X0340397Y0147737D01*
X0340847Y0147286D01*
X0340847Y0145935D01*
X0340847Y0146836D02*
X0341748Y0147737D01*
X0341748Y0148882D02*
X0341748Y0150683D01*
X0341748Y0149782D02*
X0339046Y0149782D01*
X0339946Y0148882D01*
X0327262Y0127236D02*
X0326362Y0126335D01*
X0327262Y0127236D02*
X0327262Y0124533D01*
X0326362Y0124533D02*
X0328163Y0124533D01*
X0325217Y0124533D02*
X0323415Y0124533D01*
X0324316Y0124533D02*
X0324316Y0127236D01*
X0323415Y0126335D01*
X0322270Y0127236D02*
X0322270Y0124984D01*
X0321820Y0124533D01*
X0320919Y0124533D01*
X0320469Y0124984D01*
X0320469Y0127236D01*
X0287470Y0139386D02*
X0283533Y0139386D01*
X0283533Y0128362D01*
X0264583Y0117746D02*
X0264583Y0116845D01*
X0264132Y0116395D01*
X0264583Y0115250D02*
X0264583Y0113448D01*
X0264583Y0114349D02*
X0261880Y0114349D01*
X0262781Y0113448D01*
X0262331Y0112304D02*
X0263232Y0112304D01*
X0263682Y0111853D01*
X0263682Y0110502D01*
X0264583Y0110502D02*
X0261880Y0110502D01*
X0261880Y0111853D01*
X0262331Y0112304D01*
X0263682Y0111403D02*
X0264583Y0112304D01*
X0261093Y0109858D02*
X0257943Y0109858D01*
X0257943Y0116157D01*
X0261093Y0116157D01*
X0261093Y0109858D01*
X0262331Y0116395D02*
X0261880Y0116845D01*
X0261880Y0117746D01*
X0262331Y0118197D01*
X0262781Y0118197D01*
X0263232Y0117746D01*
X0263682Y0118197D01*
X0264132Y0118197D01*
X0264583Y0117746D01*
X0263232Y0117746D02*
X0263232Y0117296D01*
X0251250Y0127969D02*
X0251252Y0128057D01*
X0251258Y0128145D01*
X0251268Y0128233D01*
X0251282Y0128321D01*
X0251299Y0128407D01*
X0251321Y0128493D01*
X0251346Y0128577D01*
X0251376Y0128661D01*
X0251408Y0128743D01*
X0251445Y0128823D01*
X0251485Y0128902D01*
X0251529Y0128979D01*
X0251576Y0129054D01*
X0251626Y0129126D01*
X0251680Y0129197D01*
X0251736Y0129264D01*
X0251796Y0129330D01*
X0251858Y0129392D01*
X0251924Y0129452D01*
X0251991Y0129508D01*
X0252062Y0129562D01*
X0252134Y0129612D01*
X0252209Y0129659D01*
X0252286Y0129703D01*
X0252365Y0129743D01*
X0252445Y0129780D01*
X0252527Y0129812D01*
X0252611Y0129842D01*
X0252695Y0129867D01*
X0252781Y0129889D01*
X0252867Y0129906D01*
X0252955Y0129920D01*
X0253043Y0129930D01*
X0253131Y0129936D01*
X0253219Y0129938D01*
X0253307Y0129936D01*
X0253395Y0129930D01*
X0253483Y0129920D01*
X0253571Y0129906D01*
X0253657Y0129889D01*
X0253743Y0129867D01*
X0253827Y0129842D01*
X0253911Y0129812D01*
X0253993Y0129780D01*
X0254073Y0129743D01*
X0254152Y0129703D01*
X0254229Y0129659D01*
X0254304Y0129612D01*
X0254376Y0129562D01*
X0254447Y0129508D01*
X0254514Y0129452D01*
X0254580Y0129392D01*
X0254642Y0129330D01*
X0254702Y0129264D01*
X0254758Y0129197D01*
X0254812Y0129126D01*
X0254862Y0129054D01*
X0254909Y0128979D01*
X0254953Y0128902D01*
X0254993Y0128823D01*
X0255030Y0128743D01*
X0255062Y0128661D01*
X0255092Y0128577D01*
X0255117Y0128493D01*
X0255139Y0128407D01*
X0255156Y0128321D01*
X0255170Y0128233D01*
X0255180Y0128145D01*
X0255186Y0128057D01*
X0255188Y0127969D01*
X0255186Y0127881D01*
X0255180Y0127793D01*
X0255170Y0127705D01*
X0255156Y0127617D01*
X0255139Y0127531D01*
X0255117Y0127445D01*
X0255092Y0127361D01*
X0255062Y0127277D01*
X0255030Y0127195D01*
X0254993Y0127115D01*
X0254953Y0127036D01*
X0254909Y0126959D01*
X0254862Y0126884D01*
X0254812Y0126812D01*
X0254758Y0126741D01*
X0254702Y0126674D01*
X0254642Y0126608D01*
X0254580Y0126546D01*
X0254514Y0126486D01*
X0254447Y0126430D01*
X0254376Y0126376D01*
X0254304Y0126326D01*
X0254229Y0126279D01*
X0254152Y0126235D01*
X0254073Y0126195D01*
X0253993Y0126158D01*
X0253911Y0126126D01*
X0253827Y0126096D01*
X0253743Y0126071D01*
X0253657Y0126049D01*
X0253571Y0126032D01*
X0253483Y0126018D01*
X0253395Y0126008D01*
X0253307Y0126002D01*
X0253219Y0126000D01*
X0253131Y0126002D01*
X0253043Y0126008D01*
X0252955Y0126018D01*
X0252867Y0126032D01*
X0252781Y0126049D01*
X0252695Y0126071D01*
X0252611Y0126096D01*
X0252527Y0126126D01*
X0252445Y0126158D01*
X0252365Y0126195D01*
X0252286Y0126235D01*
X0252209Y0126279D01*
X0252134Y0126326D01*
X0252062Y0126376D01*
X0251991Y0126430D01*
X0251924Y0126486D01*
X0251858Y0126546D01*
X0251796Y0126608D01*
X0251736Y0126674D01*
X0251680Y0126741D01*
X0251626Y0126812D01*
X0251576Y0126884D01*
X0251529Y0126959D01*
X0251485Y0127036D01*
X0251445Y0127115D01*
X0251408Y0127195D01*
X0251376Y0127277D01*
X0251346Y0127361D01*
X0251321Y0127445D01*
X0251299Y0127531D01*
X0251282Y0127617D01*
X0251268Y0127705D01*
X0251258Y0127793D01*
X0251252Y0127881D01*
X0251250Y0127969D01*
X0180463Y0075965D02*
X0180463Y0049976D01*
X0180463Y0075965D02*
X0120463Y0075965D01*
X0120463Y0049976D01*
X0090463Y0049976D02*
X0090463Y0075965D01*
X0030463Y0075965D01*
X0030463Y0049976D01*
X0104006Y0124425D02*
X0104006Y0130724D01*
X0107156Y0130724D01*
X0107156Y0124425D01*
X0104006Y0124425D01*
X0108337Y0124338D02*
X0108337Y0125239D01*
X0108787Y0125689D01*
X0108787Y0126834D02*
X0108337Y0127285D01*
X0108337Y0128185D01*
X0108787Y0128636D01*
X0109238Y0128636D01*
X0111039Y0126834D01*
X0111039Y0128636D01*
X0109688Y0129781D02*
X0109688Y0131582D01*
X0108337Y0131132D02*
X0109688Y0129781D01*
X0111039Y0131132D02*
X0108337Y0131132D01*
X0110589Y0125689D02*
X0111039Y0125239D01*
X0111039Y0124338D01*
X0110589Y0123888D01*
X0108787Y0123888D01*
X0108337Y0124338D01*
X0064706Y0142645D02*
X0064256Y0142195D01*
X0063355Y0142195D01*
X0062905Y0142645D01*
X0064706Y0144447D01*
X0064706Y0142645D01*
X0062905Y0142645D02*
X0062905Y0144447D01*
X0063355Y0144897D01*
X0064256Y0144897D01*
X0064706Y0144447D01*
X0063848Y0146079D02*
X0057549Y0146079D01*
X0057549Y0149228D01*
X0063848Y0149228D01*
X0063848Y0146079D01*
X0060859Y0144897D02*
X0060859Y0142195D01*
X0059958Y0142195D02*
X0061760Y0142195D01*
X0059958Y0143996D02*
X0060859Y0144897D01*
X0058813Y0144447D02*
X0058813Y0143546D01*
X0058363Y0143096D01*
X0057012Y0143096D01*
X0057913Y0143096D02*
X0058813Y0142195D01*
X0057012Y0142195D02*
X0057012Y0144897D01*
X0058363Y0144897D01*
X0058813Y0144447D01*
X0057549Y0150409D02*
X0057549Y0153559D01*
X0063848Y0153559D01*
X0063848Y0150409D01*
X0057549Y0150409D01*
X0057462Y0154596D02*
X0058363Y0154596D01*
X0058813Y0155047D01*
X0059958Y0154596D02*
X0061760Y0156398D01*
X0061760Y0156848D01*
X0061309Y0157299D01*
X0060409Y0157299D01*
X0059958Y0156848D01*
X0058813Y0156848D02*
X0058363Y0157299D01*
X0057462Y0157299D01*
X0057012Y0156848D01*
X0057012Y0155047D01*
X0057462Y0154596D01*
X0059958Y0154596D02*
X0061760Y0154596D01*
X0062905Y0155047D02*
X0062905Y0155497D01*
X0063355Y0155948D01*
X0064256Y0155948D01*
X0064706Y0155497D01*
X0064706Y0155047D01*
X0064256Y0154596D01*
X0063355Y0154596D01*
X0062905Y0155047D01*
X0063355Y0155948D02*
X0062905Y0156398D01*
X0062905Y0156848D01*
X0063355Y0157299D01*
X0064256Y0157299D01*
X0064706Y0156848D01*
X0064706Y0156398D01*
X0064256Y0155948D01*
X0063455Y0163008D02*
X0057156Y0163008D01*
X0057156Y0166157D01*
X0063455Y0166157D01*
X0063455Y0163008D01*
X0062097Y0167195D02*
X0062547Y0167645D01*
X0062547Y0169447D01*
X0062097Y0169897D01*
X0061196Y0169897D01*
X0060746Y0169447D01*
X0060746Y0168996D01*
X0061196Y0168546D01*
X0062547Y0168546D01*
X0062097Y0167195D02*
X0061196Y0167195D01*
X0060746Y0167645D01*
X0059601Y0167195D02*
X0058700Y0168096D01*
X0059150Y0168096D02*
X0057799Y0168096D01*
X0057799Y0167195D02*
X0057799Y0169897D01*
X0059150Y0169897D01*
X0059601Y0169447D01*
X0059601Y0168546D01*
X0059150Y0168096D01*
X0057549Y0175606D02*
X0054400Y0175606D01*
X0062274Y0179937D02*
X0062274Y0181118D01*
X0057549Y0185449D02*
X0054400Y0185449D01*
X0068823Y0185559D02*
X0069273Y0185108D01*
X0070174Y0185108D01*
X0070624Y0185559D01*
X0071769Y0185559D02*
X0072220Y0185108D01*
X0073120Y0185108D01*
X0073571Y0185559D01*
X0073571Y0186009D01*
X0073120Y0186459D01*
X0072670Y0186459D01*
X0073120Y0186459D02*
X0073571Y0186910D01*
X0073571Y0187360D01*
X0073120Y0187811D01*
X0072220Y0187811D01*
X0071769Y0187360D01*
X0070624Y0187360D02*
X0070174Y0187811D01*
X0069273Y0187811D01*
X0068823Y0187360D01*
X0068823Y0185559D01*
X0069360Y0184268D02*
X0075659Y0184268D01*
X0075659Y0181118D01*
X0069360Y0181118D01*
X0069360Y0184268D01*
X0074716Y0185559D02*
X0074716Y0187360D01*
X0075166Y0187811D01*
X0076067Y0187811D01*
X0076517Y0187360D01*
X0074716Y0185559D01*
X0075166Y0185108D01*
X0076067Y0185108D01*
X0076517Y0185559D01*
X0076517Y0187360D01*
X0090437Y0170626D02*
X0090437Y0168374D01*
X0090887Y0167923D01*
X0091788Y0167923D01*
X0092239Y0168374D01*
X0092239Y0170626D01*
X0093384Y0169274D02*
X0095185Y0169274D01*
X0094735Y0167923D02*
X0094735Y0170626D01*
X0093384Y0169274D01*
X0052969Y0158297D02*
X0052969Y0157397D01*
X0052518Y0156946D01*
X0051617Y0157397D02*
X0051617Y0158748D01*
X0050717Y0158748D02*
X0052518Y0158748D01*
X0052969Y0158297D01*
X0051617Y0157397D02*
X0051167Y0156946D01*
X0050717Y0156946D01*
X0050266Y0157397D01*
X0050266Y0158297D01*
X0050717Y0158748D01*
X0049281Y0157890D02*
X0046132Y0157890D01*
X0046132Y0151591D01*
X0049281Y0151591D01*
X0049281Y0157890D01*
X0050266Y0154900D02*
X0052969Y0154900D01*
X0052969Y0154000D02*
X0052969Y0155801D01*
X0051167Y0154000D02*
X0050266Y0154900D01*
X0050717Y0152855D02*
X0050266Y0152404D01*
X0050266Y0151504D01*
X0050717Y0151053D01*
X0052518Y0151053D01*
X0052969Y0151504D01*
X0052969Y0152404D01*
X0052518Y0152855D01*
X0234374Y0059700D02*
X0236176Y0056998D01*
X0237321Y0056998D02*
X0239122Y0058800D01*
X0239122Y0059250D01*
X0238672Y0059700D01*
X0237771Y0059700D01*
X0237321Y0059250D01*
X0236176Y0059700D02*
X0234374Y0056998D01*
X0237321Y0056998D02*
X0239122Y0056998D01*
X0371487Y0191801D02*
X0374189Y0193603D01*
X0372838Y0194748D02*
X0372838Y0196549D01*
X0374189Y0196099D02*
X0371487Y0196099D01*
X0372838Y0194748D01*
X0371487Y0193603D02*
X0374189Y0191801D01*
D12*
X0140266Y0106059D02*
X0140266Y0101059D01*
X0137766Y0098559D01*
X0132766Y0098559D01*
X0130266Y0101059D01*
X0127766Y0098559D01*
X0122766Y0098559D01*
X0120266Y0101059D01*
X0117766Y0098559D01*
X0112766Y0098559D01*
X0110266Y0101059D01*
X0110266Y0106059D01*
X0112766Y0108559D01*
X0117766Y0108559D01*
X0120266Y0106059D01*
X0122766Y0108559D01*
X0127766Y0108559D01*
X0130266Y0106059D01*
X0132766Y0108559D01*
X0137766Y0108559D01*
X0140266Y0106059D01*
X0139439Y0114189D02*
X0125266Y0114189D01*
X0111093Y0114189D01*
X0125266Y0114189D02*
X0125266Y0109465D01*
X0111093Y0138992D02*
X0113061Y0140961D01*
X0077313Y0131650D02*
X0077313Y0126650D01*
X0074813Y0124150D01*
X0069813Y0124150D01*
X0067313Y0126650D01*
X0064813Y0124150D01*
X0059813Y0124150D01*
X0057313Y0126650D01*
X0054813Y0124150D01*
X0049813Y0124150D01*
X0047313Y0126650D01*
X0044813Y0124150D01*
X0039813Y0124150D01*
X0037313Y0126650D01*
X0034813Y0124150D01*
X0029813Y0124150D01*
X0027313Y0126650D01*
X0024813Y0124150D01*
X0019813Y0124150D01*
X0017313Y0126650D01*
X0017313Y0131650D01*
X0019813Y0134150D01*
X0024813Y0134150D01*
X0027313Y0131650D01*
X0029813Y0134150D01*
X0034813Y0134150D01*
X0037313Y0131650D01*
X0039813Y0134150D01*
X0044813Y0134150D01*
X0047313Y0131650D01*
X0049813Y0134150D01*
X0054813Y0134150D01*
X0057313Y0131650D01*
X0059813Y0134150D01*
X0064813Y0134150D01*
X0067313Y0131650D01*
X0069813Y0134150D01*
X0074813Y0134150D01*
X0077313Y0131650D01*
X0074872Y0138992D02*
X0072904Y0140961D01*
X0049478Y0114189D02*
X0035305Y0114189D01*
X0021132Y0114189D01*
X0022766Y0108559D02*
X0020266Y0106059D01*
X0020266Y0101059D01*
X0022766Y0098559D01*
X0027766Y0098559D01*
X0030266Y0101059D01*
X0032766Y0098559D01*
X0037766Y0098559D01*
X0040266Y0101059D01*
X0042766Y0098559D01*
X0047766Y0098559D01*
X0050266Y0101059D01*
X0050266Y0106059D01*
X0047766Y0108559D01*
X0042766Y0108559D01*
X0040266Y0106059D01*
X0037766Y0108559D01*
X0032766Y0108559D01*
X0030266Y0106059D01*
X0027766Y0108559D01*
X0022766Y0108559D01*
X0035305Y0109465D02*
X0035305Y0114189D01*
X0072904Y0176787D02*
X0075266Y0179150D01*
X0074240Y0175606D02*
X0074242Y0175681D01*
X0074248Y0175756D01*
X0074258Y0175830D01*
X0074272Y0175903D01*
X0074289Y0175976D01*
X0074311Y0176048D01*
X0074336Y0176119D01*
X0074365Y0176188D01*
X0074397Y0176255D01*
X0074433Y0176321D01*
X0074473Y0176385D01*
X0074515Y0176446D01*
X0074561Y0176505D01*
X0074610Y0176562D01*
X0074662Y0176616D01*
X0074717Y0176667D01*
X0074774Y0176715D01*
X0074834Y0176761D01*
X0074896Y0176802D01*
X0074960Y0176841D01*
X0075026Y0176876D01*
X0075094Y0176908D01*
X0075164Y0176936D01*
X0075235Y0176960D01*
X0075307Y0176981D01*
X0075380Y0176997D01*
X0075454Y0177010D01*
X0075528Y0177019D01*
X0075603Y0177024D01*
X0075678Y0177025D01*
X0075753Y0177022D01*
X0075827Y0177015D01*
X0075901Y0177004D01*
X0075975Y0176989D01*
X0076047Y0176971D01*
X0076119Y0176948D01*
X0076189Y0176922D01*
X0076258Y0176892D01*
X0076325Y0176859D01*
X0076390Y0176822D01*
X0076453Y0176782D01*
X0076514Y0176738D01*
X0076573Y0176692D01*
X0076629Y0176642D01*
X0076682Y0176589D01*
X0076733Y0176534D01*
X0076780Y0176476D01*
X0076824Y0176416D01*
X0076865Y0176353D01*
X0076903Y0176288D01*
X0076937Y0176222D01*
X0076968Y0176153D01*
X0076995Y0176083D01*
X0077019Y0176012D01*
X0077038Y0175940D01*
X0077054Y0175867D01*
X0077066Y0175793D01*
X0077074Y0175718D01*
X0077078Y0175643D01*
X0077078Y0175569D01*
X0077074Y0175494D01*
X0077066Y0175419D01*
X0077054Y0175345D01*
X0077038Y0175272D01*
X0077019Y0175200D01*
X0076995Y0175129D01*
X0076968Y0175059D01*
X0076937Y0174990D01*
X0076903Y0174924D01*
X0076865Y0174859D01*
X0076824Y0174796D01*
X0076780Y0174736D01*
X0076733Y0174678D01*
X0076682Y0174623D01*
X0076629Y0174570D01*
X0076573Y0174520D01*
X0076514Y0174474D01*
X0076453Y0174430D01*
X0076390Y0174390D01*
X0076325Y0174353D01*
X0076258Y0174320D01*
X0076189Y0174290D01*
X0076119Y0174264D01*
X0076047Y0174241D01*
X0075975Y0174223D01*
X0075901Y0174208D01*
X0075827Y0174197D01*
X0075753Y0174190D01*
X0075678Y0174187D01*
X0075603Y0174188D01*
X0075528Y0174193D01*
X0075454Y0174202D01*
X0075380Y0174215D01*
X0075307Y0174231D01*
X0075235Y0174252D01*
X0075164Y0174276D01*
X0075094Y0174304D01*
X0075026Y0174336D01*
X0074960Y0174371D01*
X0074896Y0174410D01*
X0074834Y0174451D01*
X0074774Y0174497D01*
X0074717Y0174545D01*
X0074662Y0174596D01*
X0074610Y0174650D01*
X0074561Y0174707D01*
X0074515Y0174766D01*
X0074473Y0174827D01*
X0074433Y0174891D01*
X0074397Y0174957D01*
X0074365Y0175024D01*
X0074336Y0175093D01*
X0074311Y0175164D01*
X0074289Y0175236D01*
X0074272Y0175309D01*
X0074258Y0175382D01*
X0074248Y0175456D01*
X0074242Y0175531D01*
X0074240Y0175606D01*
X0110699Y0179150D02*
X0113061Y0176787D01*
X0100994Y0213362D02*
X0095994Y0213362D01*
X0093494Y0215862D01*
X0093494Y0220862D01*
X0095994Y0223362D01*
X0093494Y0225862D01*
X0093494Y0230862D01*
X0095994Y0233362D01*
X0093494Y0235862D01*
X0093494Y0240862D01*
X0095994Y0243362D01*
X0100994Y0243362D01*
X0103494Y0240862D01*
X0103494Y0235862D01*
X0100994Y0233362D01*
X0103494Y0230862D01*
X0103494Y0225862D01*
X0100994Y0223362D01*
X0103494Y0220862D01*
X0103494Y0215862D01*
X0100994Y0213362D01*
X0091644Y0223697D02*
X0091644Y0241689D01*
X0090758Y0245803D02*
X0088258Y0248303D01*
X0085758Y0245803D01*
X0080758Y0245803D01*
X0078258Y0248303D01*
X0075758Y0245803D01*
X0070758Y0245803D01*
X0068258Y0248303D01*
X0068258Y0253303D01*
X0070758Y0255803D01*
X0075758Y0255803D01*
X0078258Y0253303D01*
X0080758Y0255803D01*
X0085758Y0255803D01*
X0088258Y0253303D01*
X0090758Y0255803D01*
X0095758Y0255803D01*
X0098258Y0253303D01*
X0100758Y0255803D01*
X0105758Y0255803D01*
X0108258Y0253303D01*
X0108258Y0248303D01*
X0105758Y0245803D01*
X0100758Y0245803D01*
X0098258Y0248303D01*
X0095758Y0245803D01*
X0090758Y0245803D01*
X0090072Y0236236D02*
X0081720Y0236236D01*
X0078297Y0235193D02*
X0075797Y0232693D01*
X0078297Y0230193D01*
X0078297Y0225193D01*
X0075797Y0222693D01*
X0070797Y0222693D01*
X0068297Y0225193D01*
X0068297Y0230193D01*
X0070797Y0232693D01*
X0068297Y0235193D01*
X0068297Y0240193D01*
X0070797Y0242693D01*
X0075797Y0242693D01*
X0078297Y0240193D01*
X0078297Y0235193D01*
X0080148Y0241689D02*
X0080148Y0223697D01*
X0108730Y0241354D02*
X0113848Y0241354D01*
X0113848Y0231118D01*
X0113848Y0241354D02*
X0113848Y0251197D01*
X0108258Y0258539D02*
X0105758Y0256039D01*
X0100758Y0256039D01*
X0098258Y0258539D01*
X0095758Y0256039D01*
X0090758Y0256039D01*
X0088258Y0258539D01*
X0085758Y0256039D01*
X0080758Y0256039D01*
X0078258Y0258539D01*
X0075758Y0256039D01*
X0070758Y0256039D01*
X0068258Y0258539D01*
X0068258Y0263539D01*
X0070758Y0266039D01*
X0075758Y0266039D01*
X0078258Y0263539D01*
X0080758Y0266039D01*
X0085758Y0266039D01*
X0088258Y0263539D01*
X0090758Y0266039D01*
X0095758Y0266039D01*
X0098258Y0263539D01*
X0100758Y0266039D01*
X0105758Y0266039D01*
X0108258Y0263539D01*
X0108258Y0258539D01*
D13*
X0265973Y0234424D02*
X0265973Y0228519D01*
X0265973Y0230487D02*
X0268926Y0230487D01*
X0269910Y0231471D01*
X0269910Y0233440D01*
X0268926Y0234424D01*
X0265973Y0234424D01*
X0272419Y0231471D02*
X0273403Y0232455D01*
X0276355Y0232455D01*
X0276355Y0233440D02*
X0276355Y0230487D01*
X0273403Y0230487D01*
X0272419Y0231471D01*
X0273403Y0234424D02*
X0275371Y0234424D01*
X0276355Y0233440D01*
X0278864Y0234424D02*
X0281817Y0234424D01*
X0282801Y0233440D01*
X0282801Y0230487D01*
X0285310Y0231471D02*
X0285310Y0233440D01*
X0286294Y0234424D01*
X0289246Y0234424D01*
X0289246Y0236392D02*
X0289246Y0230487D01*
X0286294Y0230487D01*
X0285310Y0231471D01*
X0291755Y0231471D02*
X0292739Y0232455D01*
X0295692Y0232455D01*
X0295692Y0233440D02*
X0295692Y0230487D01*
X0292739Y0230487D01*
X0291755Y0231471D01*
X0292739Y0234424D02*
X0294708Y0234424D01*
X0295692Y0233440D01*
X0298201Y0236392D02*
X0298201Y0230487D01*
X0302137Y0230487D01*
X0304646Y0230487D02*
X0306615Y0230487D01*
X0305630Y0230487D02*
X0305630Y0234424D01*
X0304646Y0234424D01*
X0305630Y0236392D02*
X0305630Y0237376D01*
X0308943Y0233440D02*
X0308943Y0231471D01*
X0309927Y0230487D01*
X0312880Y0230487D01*
X0312880Y0229503D02*
X0312880Y0234424D01*
X0309927Y0234424D01*
X0308943Y0233440D01*
X0310912Y0228519D02*
X0311896Y0228519D01*
X0312880Y0229503D01*
X0315389Y0230487D02*
X0315389Y0236392D01*
X0316373Y0234424D02*
X0318341Y0234424D01*
X0319325Y0233440D01*
X0319325Y0230487D01*
X0322818Y0231471D02*
X0322818Y0235408D01*
X0321834Y0234424D02*
X0323803Y0234424D01*
X0322818Y0231471D02*
X0323803Y0230487D01*
X0316373Y0234424D02*
X0315389Y0233440D01*
X0278864Y0234424D02*
X0278864Y0230487D01*
D14*
X0305587Y0224478D02*
X0305587Y0221676D01*
X0305587Y0223077D02*
X0306988Y0224478D01*
X0307689Y0224478D01*
X0309424Y0223777D02*
X0310124Y0224478D01*
X0311525Y0224478D01*
X0312226Y0223777D01*
X0312226Y0223077D01*
X0309424Y0223077D01*
X0309424Y0223777D02*
X0309424Y0222376D01*
X0310124Y0221676D01*
X0311525Y0221676D01*
X0314028Y0224478D02*
X0315429Y0221676D01*
X0316830Y0224478D01*
X0318631Y0222376D02*
X0318631Y0221676D01*
X0319332Y0221676D01*
X0319332Y0222376D01*
X0318631Y0222376D01*
X0320933Y0221676D02*
X0323736Y0224478D01*
X0323736Y0225179D01*
X0323035Y0225879D01*
X0321634Y0225879D01*
X0320933Y0225179D01*
X0320933Y0221676D02*
X0323736Y0221676D01*
D15*
X0324478Y0228362D02*
X0314242Y0228362D01*
X0309124Y0228362D02*
X0268179Y0228362D01*
X0187489Y0259965D02*
X0187489Y0263968D01*
X0186155Y0263968D02*
X0188824Y0263968D01*
X0188652Y0265764D02*
X0182746Y0268126D01*
X0176841Y0265764D01*
X0188652Y0265764D01*
X0187699Y0266145D02*
X0177793Y0266145D01*
X0177614Y0263968D02*
X0176947Y0263301D01*
X0176947Y0260632D01*
X0177614Y0259965D01*
X0178949Y0259965D01*
X0179616Y0260632D01*
X0179616Y0263301D01*
X0178949Y0263968D01*
X0177614Y0263968D01*
X0181551Y0263968D02*
X0181551Y0260632D01*
X0182218Y0259965D01*
X0183552Y0259965D01*
X0184220Y0260632D01*
X0184220Y0263968D01*
X0185202Y0267143D02*
X0180290Y0267143D01*
X0365923Y0155700D02*
X0367258Y0155700D01*
X0366590Y0155700D02*
X0366590Y0151697D01*
X0365923Y0151697D02*
X0367258Y0151697D01*
X0368993Y0151697D02*
X0368993Y0155700D01*
X0371661Y0151697D01*
X0371661Y0155700D01*
X0373596Y0155033D02*
X0374264Y0155700D01*
X0375598Y0155700D01*
X0376265Y0155033D01*
X0376265Y0154366D01*
X0373596Y0151697D01*
X0376265Y0151697D01*
X0378519Y0152315D02*
X0380384Y0152315D01*
X0380384Y0153313D02*
X0378120Y0153313D01*
X0378022Y0153559D02*
X0380384Y0147654D01*
X0380384Y0159465D01*
X0378022Y0153559D01*
X0378323Y0154312D02*
X0380384Y0154312D01*
X0380384Y0155310D02*
X0378722Y0155310D01*
X0379122Y0156309D02*
X0380384Y0156309D01*
X0380384Y0157307D02*
X0379521Y0157307D01*
X0379920Y0158306D02*
X0380384Y0158306D01*
X0380384Y0159304D02*
X0380320Y0159304D01*
X0380384Y0151316D02*
X0378919Y0151316D01*
X0379318Y0150318D02*
X0380384Y0150318D01*
X0380384Y0149319D02*
X0379718Y0149319D01*
X0380117Y0148321D02*
X0380384Y0148321D01*
X0200069Y0050803D02*
X0194163Y0053165D01*
X0188258Y0050803D01*
X0200069Y0050803D01*
X0198414Y0051465D02*
X0189912Y0051465D01*
X0192409Y0052464D02*
X0195918Y0052464D01*
X0196825Y0054846D02*
X0199494Y0054846D01*
X0198159Y0054846D02*
X0198159Y0058850D01*
X0196825Y0057515D01*
X0194890Y0058850D02*
X0194890Y0054846D01*
X0192221Y0058850D01*
X0192221Y0054846D01*
X0190486Y0054846D02*
X0189152Y0054846D01*
X0189819Y0054846D02*
X0189819Y0058850D01*
X0189152Y0058850D02*
X0190486Y0058850D01*
X0117411Y0060358D02*
X0114742Y0060358D01*
X0117411Y0063027D01*
X0117411Y0063694D01*
X0116744Y0064362D01*
X0115409Y0064362D01*
X0114742Y0063694D01*
X0115409Y0057275D02*
X0116744Y0057275D01*
X0117411Y0056608D01*
X0117411Y0055941D01*
X0116744Y0055273D01*
X0117411Y0054606D01*
X0117411Y0053939D01*
X0116744Y0053272D01*
X0115409Y0053272D01*
X0114742Y0053939D01*
X0116077Y0055273D02*
X0116744Y0055273D01*
X0114742Y0056608D02*
X0115409Y0057275D01*
X0113626Y0070201D02*
X0114294Y0070868D01*
X0114294Y0073537D01*
X0113626Y0074204D01*
X0111625Y0074204D01*
X0111625Y0070201D01*
X0113626Y0070201D01*
X0109690Y0070868D02*
X0109690Y0073537D01*
X0109023Y0074204D01*
X0107688Y0074204D01*
X0107021Y0073537D01*
X0107021Y0070868D01*
X0107688Y0070201D01*
X0109023Y0070201D01*
X0109690Y0070868D01*
X0105086Y0070201D02*
X0105086Y0074204D01*
X0103751Y0072870D01*
X0102417Y0074204D01*
X0102417Y0070201D01*
X0100482Y0072202D02*
X0099815Y0071535D01*
X0097813Y0071535D01*
X0097813Y0070201D02*
X0097813Y0074204D01*
X0099815Y0074204D01*
X0100482Y0073537D01*
X0100482Y0072202D01*
X0096271Y0064362D02*
X0096939Y0063694D01*
X0094270Y0061026D01*
X0094937Y0060358D01*
X0096271Y0060358D01*
X0096939Y0061026D01*
X0096939Y0063694D01*
X0096271Y0064362D02*
X0094937Y0064362D01*
X0094270Y0063694D01*
X0094270Y0061026D01*
X0095604Y0057275D02*
X0095604Y0053272D01*
X0094270Y0053272D02*
X0096939Y0053272D01*
X0094270Y0055941D02*
X0095604Y0057275D01*
D16*
X0055014Y0178169D02*
X0055948Y0179103D01*
X0057349Y0179103D01*
X0055948Y0179103D02*
X0055014Y0180037D01*
X0054547Y0180037D01*
X0055481Y0181115D02*
X0054547Y0182049D01*
X0057349Y0182049D01*
X0057349Y0181115D02*
X0057349Y0182983D01*
X0055014Y0178169D02*
X0054547Y0178169D01*
D17*
X0166998Y0265469D03*
X0166998Y0268421D03*
D18*
X0166998Y0266945D03*
D19*
X0166014Y0158480D03*
D20*
X0187077Y0240961D03*
D21*
X0279670Y0211058D02*
X0279670Y0208659D01*
X0282846Y0208336D01*
X0283187Y0207269D01*
X0283700Y0206272D01*
X0281683Y0203798D01*
X0283379Y0202102D01*
X0285853Y0204120D01*
X0286849Y0203606D01*
X0288262Y0207017D01*
X0287730Y0207301D01*
X0287264Y0207683D01*
X0286881Y0208149D01*
X0286597Y0208681D01*
X0286422Y0209258D01*
X0286363Y0209858D01*
X0286428Y0210487D01*
X0286620Y0211088D01*
X0286930Y0211638D01*
X0287347Y0212113D01*
X0287851Y0212493D01*
X0288423Y0212762D01*
X0289037Y0212908D01*
X0289669Y0212926D01*
X0290290Y0212814D01*
X0290876Y0212578D01*
X0291401Y0212227D01*
X0291844Y0211776D01*
X0292185Y0211245D01*
X0292410Y0210654D01*
X0292510Y0210031D01*
X0292480Y0209400D01*
X0292323Y0208788D01*
X0292043Y0208222D01*
X0291654Y0207724D01*
X0291172Y0207317D01*
X0290616Y0207017D01*
X0292029Y0203606D01*
X0293025Y0204120D01*
X0295499Y0202102D01*
X0297195Y0203798D01*
X0295178Y0206272D01*
X0295691Y0207269D01*
X0296032Y0208336D01*
X0299208Y0208659D01*
X0299208Y0211058D01*
X0296032Y0211380D01*
X0295691Y0212448D01*
X0295178Y0213444D01*
X0297195Y0215918D01*
X0295499Y0217614D01*
X0293025Y0215597D01*
X0292028Y0216110D01*
X0290961Y0216452D01*
X0290639Y0219628D01*
X0288239Y0219628D01*
X0287917Y0216452D01*
X0286850Y0216110D01*
X0285853Y0215597D01*
X0283379Y0217614D01*
X0281683Y0215918D01*
X0283700Y0213444D01*
X0283187Y0212448D01*
X0282846Y0211380D01*
X0279670Y0211058D01*
X0279670Y0210821D02*
X0286534Y0210821D01*
X0286402Y0210232D02*
X0279670Y0210232D01*
X0279670Y0209643D02*
X0286384Y0209643D01*
X0286484Y0209054D02*
X0279670Y0209054D01*
X0281581Y0208465D02*
X0286713Y0208465D01*
X0287106Y0207876D02*
X0282993Y0207876D01*
X0283182Y0207287D02*
X0287757Y0207287D01*
X0288130Y0206697D02*
X0283482Y0206697D01*
X0283567Y0206108D02*
X0287886Y0206108D01*
X0287642Y0205519D02*
X0283086Y0205519D01*
X0282606Y0204930D02*
X0287398Y0204930D01*
X0287154Y0204341D02*
X0282126Y0204341D01*
X0281729Y0203752D02*
X0285402Y0203752D01*
X0284680Y0203163D02*
X0282318Y0203163D01*
X0282907Y0202574D02*
X0283958Y0202574D01*
X0286566Y0203752D02*
X0286910Y0203752D01*
X0291236Y0205519D02*
X0295792Y0205519D01*
X0296272Y0204930D02*
X0291480Y0204930D01*
X0291724Y0204341D02*
X0296752Y0204341D01*
X0297149Y0203752D02*
X0293476Y0203752D01*
X0294198Y0203163D02*
X0296560Y0203163D01*
X0295970Y0202574D02*
X0294920Y0202574D01*
X0292312Y0203752D02*
X0291968Y0203752D01*
X0290992Y0206108D02*
X0295311Y0206108D01*
X0295396Y0206697D02*
X0290748Y0206697D01*
X0291116Y0207287D02*
X0295696Y0207287D01*
X0295885Y0207876D02*
X0291773Y0207876D01*
X0292163Y0208465D02*
X0297297Y0208465D01*
X0299208Y0209054D02*
X0292391Y0209054D01*
X0292492Y0209643D02*
X0299208Y0209643D01*
X0299208Y0210232D02*
X0292478Y0210232D01*
X0292346Y0210821D02*
X0299208Y0210821D01*
X0296023Y0211410D02*
X0292079Y0211410D01*
X0291625Y0211999D02*
X0295834Y0211999D01*
X0295618Y0212588D02*
X0290851Y0212588D01*
X0288054Y0212588D02*
X0283260Y0212588D01*
X0283044Y0211999D02*
X0287247Y0211999D01*
X0286801Y0211410D02*
X0282855Y0211410D01*
X0283563Y0213177D02*
X0295315Y0213177D01*
X0295440Y0213766D02*
X0283438Y0213766D01*
X0282957Y0214355D02*
X0295921Y0214355D01*
X0296401Y0214944D02*
X0282477Y0214944D01*
X0281997Y0215533D02*
X0296881Y0215533D01*
X0296991Y0216122D02*
X0293669Y0216122D01*
X0294392Y0216712D02*
X0296401Y0216712D01*
X0295812Y0217301D02*
X0295114Y0217301D01*
X0291989Y0216122D02*
X0286889Y0216122D01*
X0287943Y0216712D02*
X0290935Y0216712D01*
X0290875Y0217301D02*
X0288003Y0217301D01*
X0288063Y0217890D02*
X0290815Y0217890D01*
X0290755Y0218479D02*
X0288123Y0218479D01*
X0288183Y0219068D02*
X0290695Y0219068D01*
X0285209Y0216122D02*
X0281887Y0216122D01*
X0282476Y0216712D02*
X0284486Y0216712D01*
X0283764Y0217301D02*
X0283066Y0217301D01*
M02*
