%
M48
M72
T01C0.01300
T02C0.03600
T03C0.04000
T04C0.05118
T05C0.11811
T06C0.12500
T07C0.13780
%
T01
X87470Y129543
X102431Y129543
X124478Y144898
X132746Y149622
X140226Y161039
X156762Y162614
X146132Y176394
X136683Y176394
X124085Y186630
X113061Y196079
X113061Y201591
X109124Y209071
X118179Y215370
X115423Y228362
X142589Y236236
X162274Y248835
X177234Y239780
X182352Y239780
X187077Y238205
X181959Y231118
X190620Y225213
X200069Y230724
X207156Y232693
X210305Y229937
X213061Y232693
X216211Y229937
X218967Y232693
X222116Y229937
X224872Y232693
X228022Y229937
X233140Y229937
X235108Y218520
X237864Y215370
X240620Y218520
X243376Y215370
X246132Y218520
X230384Y211827
X227628Y215370
X225266Y218520
X222510Y215370
X220148Y218520
X215030Y215370
X212667Y218520
X209911Y215370
X207549Y218520
X200856Y208677
X217785Y211827
X224478Y196866
X227234Y192142
X234321Y186630
X244951Y191748
X246132Y196866
X251250Y196866
X259124Y193717
X270935Y196866
X259124Y183874
X254006Y185055
X254400Y177969
X250069Y173244
X259124Y167732
X259124Y163008
X259124Y157890
X254400Y160252
X247313Y161039
X254006Y150803
X253219Y140567
X243770Y137024
X241014Y140173
X222510Y132299
X224085Y126787
X226841Y122063
X218967Y122063
X211093Y122063
X209124Y127969
X215030Y129543
X233927Y127181
X238258Y122063
X245344Y127181
X259124Y131118
X277628Y121276
X289833Y121276
X300069Y121276
X289833Y146472
X285108Y146472
X272116Y164976
X324085Y188992
X327628Y191748
X330778Y194110
X327628Y196866
X330778Y199228
X327628Y204346
X330778Y206709
X327628Y209465
X330778Y211827
X340620Y214976
X344951Y212220
X342195Y209071
X344951Y206315
X342195Y203165
X344951Y200409
X342195Y197260
X344951Y194504
X342195Y191354
X339439Y182693
X330778Y180724
X327628Y177969
X330778Y175213
X327628Y172457
X330778Y169701
X344557Y153953
X359911Y179543
X363061Y184268
X369360Y184268
X363061Y193717
X366211Y196472
X363061Y198835
X363061Y203165
X339833Y222457
X363061Y226000
X338258Y250803
X260305Y217339
X217392Y191748
X206368Y191748
X205187Y196866
X195738Y190961
X193376Y196866
X184321Y187811
X190226Y185449
X171329Y188598
X168967Y185449
X166604Y182299
X164242Y179150
X158337Y186630
X184321Y168520
X189439Y167732
X189045Y160646
X184321Y160252
X190226Y152378
X170541Y145685
X166998Y142929
X170541Y140173
X166998Y137417
X170541Y135055
X166998Y132299
X170541Y129543
X176841Y122063
X176841Y112614
X182746Y112614
X212274Y100409
X215030Y103559
X217785Y100409
X220541Y103559
X223297Y100409
X231565Y100409
X234321Y103559
X236683Y100409
X239439Y103559
X241801Y100409
X246919Y103559
X249281Y100409
X252037Y103559
X254400Y100409
X259518Y108283
X257549Y90567
X254793Y86236
X251644Y88992
X248888Y86236
X245738Y88992
X242982Y86236
X239833Y88992
X237077Y86236
X233927Y88992
X225266Y91354
X231565Y107102
X265817Y90567
X245738Y68126
X241407Y68126
X239045Y64976
X236289Y68126
X226841Y68126
X221722Y71276
X226841Y61827
X174872Y68126
X152431Y68126
X140620Y124425
X166998Y148441
X184321Y135055
X189439Y136236
X200856Y168126
X158337Y209465
X164242Y215370
X183533Y213795
X216211Y250803
X220541Y250803
X222904Y253953
X225659Y250803
X234321Y251591
X241801Y248047
X234321Y257102
X203612Y257890
X171722Y262220
X140620Y256315
X85896Y206709
X89439Y193323
X93376Y193323
X93770Y186236
X85108Y186630
X105974Y192535
X65423Y196472
X53612Y199228
X30778Y189386
X37864Y173244
X37864Y149622
X55974Y147654
X122116Y162220
X55974Y258677
X296919Y61433
X330778Y188992
T02
X98494Y238362
X98494Y228362
X98494Y218362
X115266Y103559
X125266Y103559
X135266Y103559
X45266Y103559
X35266Y103559
X25266Y103559
T03
X73258Y261039
X83258Y261039
X93258Y261039
X103258Y261039
X103258Y250803
X93258Y250803
X83258Y250803
X73258Y250803
X73297Y237693
X73297Y227693
X72313Y129150
X62313Y129150
X52313Y129150
X42313Y129150
X32313Y129150
X22313Y129150
X35463Y92417
X45463Y92417
X55463Y92417
X65463Y92417
X75463Y92417
X85463Y92417
X85463Y82417
X75463Y82417
X65463Y82417
X55463Y82417
X45463Y82417
X35463Y82417
X125463Y82417
X135463Y82417
X145463Y82417
X155463Y82417
X165463Y82417
X175463Y82417
X175463Y92417
X165463Y92417
X155463Y92417
X145463Y92417
X135463Y92417
X125463Y92417
T04
X194360Y262417
X196722Y242929
X253809Y242929
X256171Y262417
X355187Y222654
X374675Y225016
X355187Y165567
X374675Y163205
X265226Y76000
X267589Y56512
X208140Y76000
X205778Y56512
T05
X32352Y233087
T06
X18376Y56118
X18376Y262811
X375069Y262811
X375069Y56118
T07
X55974Y233087
M30
