G75*
%MOIN*%
%OFA0B0*%
%FSLAX25Y25*%
%IPPOS*%
%LPD*%
%AMOC8*
5,1,8,0,0,1.08239X$1,22.5*
%
%ADD10C,0.00000*%
%ADD11R,0.01969X0.03150*%
%ADD12R,0.01575X0.01969*%
%ADD13R,0.03150X0.01969*%
%ADD14R,0.01969X0.01575*%
%ADD15R,0.01575X0.04724*%
%ADD16R,0.06299X0.01378*%
%ADD17R,0.02559X0.01181*%
%ADD18R,0.04724X0.01575*%
D10*
X0008730Y0046472D02*
X0008730Y0272457D01*
X0384715Y0272457D01*
X0384715Y0046472D01*
X0008730Y0046472D01*
X0012126Y0056118D02*
X0012128Y0056276D01*
X0012134Y0056433D01*
X0012144Y0056591D01*
X0012158Y0056748D01*
X0012176Y0056904D01*
X0012197Y0057061D01*
X0012223Y0057216D01*
X0012253Y0057371D01*
X0012286Y0057525D01*
X0012324Y0057678D01*
X0012365Y0057831D01*
X0012410Y0057982D01*
X0012459Y0058132D01*
X0012512Y0058280D01*
X0012568Y0058428D01*
X0012629Y0058573D01*
X0012692Y0058718D01*
X0012760Y0058860D01*
X0012831Y0059001D01*
X0012905Y0059140D01*
X0012983Y0059277D01*
X0013065Y0059412D01*
X0013149Y0059545D01*
X0013238Y0059676D01*
X0013329Y0059804D01*
X0013424Y0059931D01*
X0013521Y0060054D01*
X0013622Y0060176D01*
X0013726Y0060294D01*
X0013833Y0060410D01*
X0013943Y0060523D01*
X0014055Y0060634D01*
X0014171Y0060741D01*
X0014289Y0060846D01*
X0014409Y0060948D01*
X0014532Y0061046D01*
X0014658Y0061142D01*
X0014786Y0061234D01*
X0014916Y0061323D01*
X0015048Y0061409D01*
X0015183Y0061491D01*
X0015320Y0061570D01*
X0015458Y0061645D01*
X0015598Y0061717D01*
X0015741Y0061785D01*
X0015884Y0061850D01*
X0016030Y0061911D01*
X0016177Y0061968D01*
X0016325Y0062022D01*
X0016475Y0062072D01*
X0016625Y0062118D01*
X0016777Y0062160D01*
X0016930Y0062199D01*
X0017084Y0062233D01*
X0017239Y0062264D01*
X0017394Y0062290D01*
X0017550Y0062313D01*
X0017707Y0062332D01*
X0017864Y0062347D01*
X0018021Y0062358D01*
X0018179Y0062365D01*
X0018337Y0062368D01*
X0018494Y0062367D01*
X0018652Y0062362D01*
X0018809Y0062353D01*
X0018967Y0062340D01*
X0019123Y0062323D01*
X0019280Y0062302D01*
X0019435Y0062278D01*
X0019590Y0062249D01*
X0019745Y0062216D01*
X0019898Y0062180D01*
X0020051Y0062139D01*
X0020202Y0062095D01*
X0020352Y0062047D01*
X0020501Y0061996D01*
X0020649Y0061940D01*
X0020795Y0061881D01*
X0020940Y0061818D01*
X0021083Y0061751D01*
X0021224Y0061681D01*
X0021363Y0061608D01*
X0021501Y0061531D01*
X0021637Y0061450D01*
X0021770Y0061366D01*
X0021901Y0061279D01*
X0022030Y0061188D01*
X0022157Y0061094D01*
X0022282Y0060997D01*
X0022403Y0060897D01*
X0022523Y0060794D01*
X0022639Y0060688D01*
X0022753Y0060579D01*
X0022865Y0060467D01*
X0022973Y0060353D01*
X0023078Y0060235D01*
X0023181Y0060115D01*
X0023280Y0059993D01*
X0023376Y0059868D01*
X0023469Y0059740D01*
X0023559Y0059611D01*
X0023645Y0059479D01*
X0023729Y0059345D01*
X0023808Y0059209D01*
X0023885Y0059071D01*
X0023957Y0058931D01*
X0024026Y0058789D01*
X0024092Y0058646D01*
X0024154Y0058501D01*
X0024212Y0058354D01*
X0024267Y0058206D01*
X0024318Y0058057D01*
X0024365Y0057906D01*
X0024408Y0057755D01*
X0024447Y0057602D01*
X0024483Y0057448D01*
X0024514Y0057294D01*
X0024542Y0057139D01*
X0024566Y0056983D01*
X0024586Y0056826D01*
X0024602Y0056669D01*
X0024614Y0056512D01*
X0024622Y0056355D01*
X0024626Y0056197D01*
X0024626Y0056039D01*
X0024622Y0055881D01*
X0024614Y0055724D01*
X0024602Y0055567D01*
X0024586Y0055410D01*
X0024566Y0055253D01*
X0024542Y0055097D01*
X0024514Y0054942D01*
X0024483Y0054788D01*
X0024447Y0054634D01*
X0024408Y0054481D01*
X0024365Y0054330D01*
X0024318Y0054179D01*
X0024267Y0054030D01*
X0024212Y0053882D01*
X0024154Y0053735D01*
X0024092Y0053590D01*
X0024026Y0053447D01*
X0023957Y0053305D01*
X0023885Y0053165D01*
X0023808Y0053027D01*
X0023729Y0052891D01*
X0023645Y0052757D01*
X0023559Y0052625D01*
X0023469Y0052496D01*
X0023376Y0052368D01*
X0023280Y0052243D01*
X0023181Y0052121D01*
X0023078Y0052001D01*
X0022973Y0051883D01*
X0022865Y0051769D01*
X0022753Y0051657D01*
X0022639Y0051548D01*
X0022523Y0051442D01*
X0022403Y0051339D01*
X0022282Y0051239D01*
X0022157Y0051142D01*
X0022030Y0051048D01*
X0021901Y0050957D01*
X0021770Y0050870D01*
X0021637Y0050786D01*
X0021501Y0050705D01*
X0021363Y0050628D01*
X0021224Y0050555D01*
X0021083Y0050485D01*
X0020940Y0050418D01*
X0020795Y0050355D01*
X0020649Y0050296D01*
X0020501Y0050240D01*
X0020352Y0050189D01*
X0020202Y0050141D01*
X0020051Y0050097D01*
X0019898Y0050056D01*
X0019745Y0050020D01*
X0019590Y0049987D01*
X0019435Y0049958D01*
X0019280Y0049934D01*
X0019123Y0049913D01*
X0018967Y0049896D01*
X0018809Y0049883D01*
X0018652Y0049874D01*
X0018494Y0049869D01*
X0018337Y0049868D01*
X0018179Y0049871D01*
X0018021Y0049878D01*
X0017864Y0049889D01*
X0017707Y0049904D01*
X0017550Y0049923D01*
X0017394Y0049946D01*
X0017239Y0049972D01*
X0017084Y0050003D01*
X0016930Y0050037D01*
X0016777Y0050076D01*
X0016625Y0050118D01*
X0016475Y0050164D01*
X0016325Y0050214D01*
X0016177Y0050268D01*
X0016030Y0050325D01*
X0015884Y0050386D01*
X0015741Y0050451D01*
X0015598Y0050519D01*
X0015458Y0050591D01*
X0015320Y0050666D01*
X0015183Y0050745D01*
X0015048Y0050827D01*
X0014916Y0050913D01*
X0014786Y0051002D01*
X0014658Y0051094D01*
X0014532Y0051190D01*
X0014409Y0051288D01*
X0014289Y0051390D01*
X0014171Y0051495D01*
X0014055Y0051602D01*
X0013943Y0051713D01*
X0013833Y0051826D01*
X0013726Y0051942D01*
X0013622Y0052060D01*
X0013521Y0052182D01*
X0013424Y0052305D01*
X0013329Y0052432D01*
X0013238Y0052560D01*
X0013149Y0052691D01*
X0013065Y0052824D01*
X0012983Y0052959D01*
X0012905Y0053096D01*
X0012831Y0053235D01*
X0012760Y0053376D01*
X0012692Y0053518D01*
X0012629Y0053663D01*
X0012568Y0053808D01*
X0012512Y0053956D01*
X0012459Y0054104D01*
X0012410Y0054254D01*
X0012365Y0054405D01*
X0012324Y0054558D01*
X0012286Y0054711D01*
X0012253Y0054865D01*
X0012223Y0055020D01*
X0012197Y0055175D01*
X0012176Y0055332D01*
X0012158Y0055488D01*
X0012144Y0055645D01*
X0012134Y0055803D01*
X0012128Y0055960D01*
X0012126Y0056118D01*
X0012126Y0262811D02*
X0012128Y0262969D01*
X0012134Y0263126D01*
X0012144Y0263284D01*
X0012158Y0263441D01*
X0012176Y0263597D01*
X0012197Y0263754D01*
X0012223Y0263909D01*
X0012253Y0264064D01*
X0012286Y0264218D01*
X0012324Y0264371D01*
X0012365Y0264524D01*
X0012410Y0264675D01*
X0012459Y0264825D01*
X0012512Y0264973D01*
X0012568Y0265121D01*
X0012629Y0265266D01*
X0012692Y0265411D01*
X0012760Y0265553D01*
X0012831Y0265694D01*
X0012905Y0265833D01*
X0012983Y0265970D01*
X0013065Y0266105D01*
X0013149Y0266238D01*
X0013238Y0266369D01*
X0013329Y0266497D01*
X0013424Y0266624D01*
X0013521Y0266747D01*
X0013622Y0266869D01*
X0013726Y0266987D01*
X0013833Y0267103D01*
X0013943Y0267216D01*
X0014055Y0267327D01*
X0014171Y0267434D01*
X0014289Y0267539D01*
X0014409Y0267641D01*
X0014532Y0267739D01*
X0014658Y0267835D01*
X0014786Y0267927D01*
X0014916Y0268016D01*
X0015048Y0268102D01*
X0015183Y0268184D01*
X0015320Y0268263D01*
X0015458Y0268338D01*
X0015598Y0268410D01*
X0015741Y0268478D01*
X0015884Y0268543D01*
X0016030Y0268604D01*
X0016177Y0268661D01*
X0016325Y0268715D01*
X0016475Y0268765D01*
X0016625Y0268811D01*
X0016777Y0268853D01*
X0016930Y0268892D01*
X0017084Y0268926D01*
X0017239Y0268957D01*
X0017394Y0268983D01*
X0017550Y0269006D01*
X0017707Y0269025D01*
X0017864Y0269040D01*
X0018021Y0269051D01*
X0018179Y0269058D01*
X0018337Y0269061D01*
X0018494Y0269060D01*
X0018652Y0269055D01*
X0018809Y0269046D01*
X0018967Y0269033D01*
X0019123Y0269016D01*
X0019280Y0268995D01*
X0019435Y0268971D01*
X0019590Y0268942D01*
X0019745Y0268909D01*
X0019898Y0268873D01*
X0020051Y0268832D01*
X0020202Y0268788D01*
X0020352Y0268740D01*
X0020501Y0268689D01*
X0020649Y0268633D01*
X0020795Y0268574D01*
X0020940Y0268511D01*
X0021083Y0268444D01*
X0021224Y0268374D01*
X0021363Y0268301D01*
X0021501Y0268224D01*
X0021637Y0268143D01*
X0021770Y0268059D01*
X0021901Y0267972D01*
X0022030Y0267881D01*
X0022157Y0267787D01*
X0022282Y0267690D01*
X0022403Y0267590D01*
X0022523Y0267487D01*
X0022639Y0267381D01*
X0022753Y0267272D01*
X0022865Y0267160D01*
X0022973Y0267046D01*
X0023078Y0266928D01*
X0023181Y0266808D01*
X0023280Y0266686D01*
X0023376Y0266561D01*
X0023469Y0266433D01*
X0023559Y0266304D01*
X0023645Y0266172D01*
X0023729Y0266038D01*
X0023808Y0265902D01*
X0023885Y0265764D01*
X0023957Y0265624D01*
X0024026Y0265482D01*
X0024092Y0265339D01*
X0024154Y0265194D01*
X0024212Y0265047D01*
X0024267Y0264899D01*
X0024318Y0264750D01*
X0024365Y0264599D01*
X0024408Y0264448D01*
X0024447Y0264295D01*
X0024483Y0264141D01*
X0024514Y0263987D01*
X0024542Y0263832D01*
X0024566Y0263676D01*
X0024586Y0263519D01*
X0024602Y0263362D01*
X0024614Y0263205D01*
X0024622Y0263048D01*
X0024626Y0262890D01*
X0024626Y0262732D01*
X0024622Y0262574D01*
X0024614Y0262417D01*
X0024602Y0262260D01*
X0024586Y0262103D01*
X0024566Y0261946D01*
X0024542Y0261790D01*
X0024514Y0261635D01*
X0024483Y0261481D01*
X0024447Y0261327D01*
X0024408Y0261174D01*
X0024365Y0261023D01*
X0024318Y0260872D01*
X0024267Y0260723D01*
X0024212Y0260575D01*
X0024154Y0260428D01*
X0024092Y0260283D01*
X0024026Y0260140D01*
X0023957Y0259998D01*
X0023885Y0259858D01*
X0023808Y0259720D01*
X0023729Y0259584D01*
X0023645Y0259450D01*
X0023559Y0259318D01*
X0023469Y0259189D01*
X0023376Y0259061D01*
X0023280Y0258936D01*
X0023181Y0258814D01*
X0023078Y0258694D01*
X0022973Y0258576D01*
X0022865Y0258462D01*
X0022753Y0258350D01*
X0022639Y0258241D01*
X0022523Y0258135D01*
X0022403Y0258032D01*
X0022282Y0257932D01*
X0022157Y0257835D01*
X0022030Y0257741D01*
X0021901Y0257650D01*
X0021770Y0257563D01*
X0021637Y0257479D01*
X0021501Y0257398D01*
X0021363Y0257321D01*
X0021224Y0257248D01*
X0021083Y0257178D01*
X0020940Y0257111D01*
X0020795Y0257048D01*
X0020649Y0256989D01*
X0020501Y0256933D01*
X0020352Y0256882D01*
X0020202Y0256834D01*
X0020051Y0256790D01*
X0019898Y0256749D01*
X0019745Y0256713D01*
X0019590Y0256680D01*
X0019435Y0256651D01*
X0019280Y0256627D01*
X0019123Y0256606D01*
X0018967Y0256589D01*
X0018809Y0256576D01*
X0018652Y0256567D01*
X0018494Y0256562D01*
X0018337Y0256561D01*
X0018179Y0256564D01*
X0018021Y0256571D01*
X0017864Y0256582D01*
X0017707Y0256597D01*
X0017550Y0256616D01*
X0017394Y0256639D01*
X0017239Y0256665D01*
X0017084Y0256696D01*
X0016930Y0256730D01*
X0016777Y0256769D01*
X0016625Y0256811D01*
X0016475Y0256857D01*
X0016325Y0256907D01*
X0016177Y0256961D01*
X0016030Y0257018D01*
X0015884Y0257079D01*
X0015741Y0257144D01*
X0015598Y0257212D01*
X0015458Y0257284D01*
X0015320Y0257359D01*
X0015183Y0257438D01*
X0015048Y0257520D01*
X0014916Y0257606D01*
X0014786Y0257695D01*
X0014658Y0257787D01*
X0014532Y0257883D01*
X0014409Y0257981D01*
X0014289Y0258083D01*
X0014171Y0258188D01*
X0014055Y0258295D01*
X0013943Y0258406D01*
X0013833Y0258519D01*
X0013726Y0258635D01*
X0013622Y0258753D01*
X0013521Y0258875D01*
X0013424Y0258998D01*
X0013329Y0259125D01*
X0013238Y0259253D01*
X0013149Y0259384D01*
X0013065Y0259517D01*
X0012983Y0259652D01*
X0012905Y0259789D01*
X0012831Y0259928D01*
X0012760Y0260069D01*
X0012692Y0260211D01*
X0012629Y0260356D01*
X0012568Y0260501D01*
X0012512Y0260649D01*
X0012459Y0260797D01*
X0012410Y0260947D01*
X0012365Y0261098D01*
X0012324Y0261251D01*
X0012286Y0261404D01*
X0012253Y0261558D01*
X0012223Y0261713D01*
X0012197Y0261868D01*
X0012176Y0262025D01*
X0012158Y0262181D01*
X0012144Y0262338D01*
X0012134Y0262496D01*
X0012128Y0262653D01*
X0012126Y0262811D01*
X0368819Y0262811D02*
X0368821Y0262969D01*
X0368827Y0263126D01*
X0368837Y0263284D01*
X0368851Y0263441D01*
X0368869Y0263597D01*
X0368890Y0263754D01*
X0368916Y0263909D01*
X0368946Y0264064D01*
X0368979Y0264218D01*
X0369017Y0264371D01*
X0369058Y0264524D01*
X0369103Y0264675D01*
X0369152Y0264825D01*
X0369205Y0264973D01*
X0369261Y0265121D01*
X0369322Y0265266D01*
X0369385Y0265411D01*
X0369453Y0265553D01*
X0369524Y0265694D01*
X0369598Y0265833D01*
X0369676Y0265970D01*
X0369758Y0266105D01*
X0369842Y0266238D01*
X0369931Y0266369D01*
X0370022Y0266497D01*
X0370117Y0266624D01*
X0370214Y0266747D01*
X0370315Y0266869D01*
X0370419Y0266987D01*
X0370526Y0267103D01*
X0370636Y0267216D01*
X0370748Y0267327D01*
X0370864Y0267434D01*
X0370982Y0267539D01*
X0371102Y0267641D01*
X0371225Y0267739D01*
X0371351Y0267835D01*
X0371479Y0267927D01*
X0371609Y0268016D01*
X0371741Y0268102D01*
X0371876Y0268184D01*
X0372013Y0268263D01*
X0372151Y0268338D01*
X0372291Y0268410D01*
X0372434Y0268478D01*
X0372577Y0268543D01*
X0372723Y0268604D01*
X0372870Y0268661D01*
X0373018Y0268715D01*
X0373168Y0268765D01*
X0373318Y0268811D01*
X0373470Y0268853D01*
X0373623Y0268892D01*
X0373777Y0268926D01*
X0373932Y0268957D01*
X0374087Y0268983D01*
X0374243Y0269006D01*
X0374400Y0269025D01*
X0374557Y0269040D01*
X0374714Y0269051D01*
X0374872Y0269058D01*
X0375030Y0269061D01*
X0375187Y0269060D01*
X0375345Y0269055D01*
X0375502Y0269046D01*
X0375660Y0269033D01*
X0375816Y0269016D01*
X0375973Y0268995D01*
X0376128Y0268971D01*
X0376283Y0268942D01*
X0376438Y0268909D01*
X0376591Y0268873D01*
X0376744Y0268832D01*
X0376895Y0268788D01*
X0377045Y0268740D01*
X0377194Y0268689D01*
X0377342Y0268633D01*
X0377488Y0268574D01*
X0377633Y0268511D01*
X0377776Y0268444D01*
X0377917Y0268374D01*
X0378056Y0268301D01*
X0378194Y0268224D01*
X0378330Y0268143D01*
X0378463Y0268059D01*
X0378594Y0267972D01*
X0378723Y0267881D01*
X0378850Y0267787D01*
X0378975Y0267690D01*
X0379096Y0267590D01*
X0379216Y0267487D01*
X0379332Y0267381D01*
X0379446Y0267272D01*
X0379558Y0267160D01*
X0379666Y0267046D01*
X0379771Y0266928D01*
X0379874Y0266808D01*
X0379973Y0266686D01*
X0380069Y0266561D01*
X0380162Y0266433D01*
X0380252Y0266304D01*
X0380338Y0266172D01*
X0380422Y0266038D01*
X0380501Y0265902D01*
X0380578Y0265764D01*
X0380650Y0265624D01*
X0380719Y0265482D01*
X0380785Y0265339D01*
X0380847Y0265194D01*
X0380905Y0265047D01*
X0380960Y0264899D01*
X0381011Y0264750D01*
X0381058Y0264599D01*
X0381101Y0264448D01*
X0381140Y0264295D01*
X0381176Y0264141D01*
X0381207Y0263987D01*
X0381235Y0263832D01*
X0381259Y0263676D01*
X0381279Y0263519D01*
X0381295Y0263362D01*
X0381307Y0263205D01*
X0381315Y0263048D01*
X0381319Y0262890D01*
X0381319Y0262732D01*
X0381315Y0262574D01*
X0381307Y0262417D01*
X0381295Y0262260D01*
X0381279Y0262103D01*
X0381259Y0261946D01*
X0381235Y0261790D01*
X0381207Y0261635D01*
X0381176Y0261481D01*
X0381140Y0261327D01*
X0381101Y0261174D01*
X0381058Y0261023D01*
X0381011Y0260872D01*
X0380960Y0260723D01*
X0380905Y0260575D01*
X0380847Y0260428D01*
X0380785Y0260283D01*
X0380719Y0260140D01*
X0380650Y0259998D01*
X0380578Y0259858D01*
X0380501Y0259720D01*
X0380422Y0259584D01*
X0380338Y0259450D01*
X0380252Y0259318D01*
X0380162Y0259189D01*
X0380069Y0259061D01*
X0379973Y0258936D01*
X0379874Y0258814D01*
X0379771Y0258694D01*
X0379666Y0258576D01*
X0379558Y0258462D01*
X0379446Y0258350D01*
X0379332Y0258241D01*
X0379216Y0258135D01*
X0379096Y0258032D01*
X0378975Y0257932D01*
X0378850Y0257835D01*
X0378723Y0257741D01*
X0378594Y0257650D01*
X0378463Y0257563D01*
X0378330Y0257479D01*
X0378194Y0257398D01*
X0378056Y0257321D01*
X0377917Y0257248D01*
X0377776Y0257178D01*
X0377633Y0257111D01*
X0377488Y0257048D01*
X0377342Y0256989D01*
X0377194Y0256933D01*
X0377045Y0256882D01*
X0376895Y0256834D01*
X0376744Y0256790D01*
X0376591Y0256749D01*
X0376438Y0256713D01*
X0376283Y0256680D01*
X0376128Y0256651D01*
X0375973Y0256627D01*
X0375816Y0256606D01*
X0375660Y0256589D01*
X0375502Y0256576D01*
X0375345Y0256567D01*
X0375187Y0256562D01*
X0375030Y0256561D01*
X0374872Y0256564D01*
X0374714Y0256571D01*
X0374557Y0256582D01*
X0374400Y0256597D01*
X0374243Y0256616D01*
X0374087Y0256639D01*
X0373932Y0256665D01*
X0373777Y0256696D01*
X0373623Y0256730D01*
X0373470Y0256769D01*
X0373318Y0256811D01*
X0373168Y0256857D01*
X0373018Y0256907D01*
X0372870Y0256961D01*
X0372723Y0257018D01*
X0372577Y0257079D01*
X0372434Y0257144D01*
X0372291Y0257212D01*
X0372151Y0257284D01*
X0372013Y0257359D01*
X0371876Y0257438D01*
X0371741Y0257520D01*
X0371609Y0257606D01*
X0371479Y0257695D01*
X0371351Y0257787D01*
X0371225Y0257883D01*
X0371102Y0257981D01*
X0370982Y0258083D01*
X0370864Y0258188D01*
X0370748Y0258295D01*
X0370636Y0258406D01*
X0370526Y0258519D01*
X0370419Y0258635D01*
X0370315Y0258753D01*
X0370214Y0258875D01*
X0370117Y0258998D01*
X0370022Y0259125D01*
X0369931Y0259253D01*
X0369842Y0259384D01*
X0369758Y0259517D01*
X0369676Y0259652D01*
X0369598Y0259789D01*
X0369524Y0259928D01*
X0369453Y0260069D01*
X0369385Y0260211D01*
X0369322Y0260356D01*
X0369261Y0260501D01*
X0369205Y0260649D01*
X0369152Y0260797D01*
X0369103Y0260947D01*
X0369058Y0261098D01*
X0369017Y0261251D01*
X0368979Y0261404D01*
X0368946Y0261558D01*
X0368916Y0261713D01*
X0368890Y0261868D01*
X0368869Y0262025D01*
X0368851Y0262181D01*
X0368837Y0262338D01*
X0368827Y0262496D01*
X0368821Y0262653D01*
X0368819Y0262811D01*
X0368819Y0056118D02*
X0368821Y0056276D01*
X0368827Y0056433D01*
X0368837Y0056591D01*
X0368851Y0056748D01*
X0368869Y0056904D01*
X0368890Y0057061D01*
X0368916Y0057216D01*
X0368946Y0057371D01*
X0368979Y0057525D01*
X0369017Y0057678D01*
X0369058Y0057831D01*
X0369103Y0057982D01*
X0369152Y0058132D01*
X0369205Y0058280D01*
X0369261Y0058428D01*
X0369322Y0058573D01*
X0369385Y0058718D01*
X0369453Y0058860D01*
X0369524Y0059001D01*
X0369598Y0059140D01*
X0369676Y0059277D01*
X0369758Y0059412D01*
X0369842Y0059545D01*
X0369931Y0059676D01*
X0370022Y0059804D01*
X0370117Y0059931D01*
X0370214Y0060054D01*
X0370315Y0060176D01*
X0370419Y0060294D01*
X0370526Y0060410D01*
X0370636Y0060523D01*
X0370748Y0060634D01*
X0370864Y0060741D01*
X0370982Y0060846D01*
X0371102Y0060948D01*
X0371225Y0061046D01*
X0371351Y0061142D01*
X0371479Y0061234D01*
X0371609Y0061323D01*
X0371741Y0061409D01*
X0371876Y0061491D01*
X0372013Y0061570D01*
X0372151Y0061645D01*
X0372291Y0061717D01*
X0372434Y0061785D01*
X0372577Y0061850D01*
X0372723Y0061911D01*
X0372870Y0061968D01*
X0373018Y0062022D01*
X0373168Y0062072D01*
X0373318Y0062118D01*
X0373470Y0062160D01*
X0373623Y0062199D01*
X0373777Y0062233D01*
X0373932Y0062264D01*
X0374087Y0062290D01*
X0374243Y0062313D01*
X0374400Y0062332D01*
X0374557Y0062347D01*
X0374714Y0062358D01*
X0374872Y0062365D01*
X0375030Y0062368D01*
X0375187Y0062367D01*
X0375345Y0062362D01*
X0375502Y0062353D01*
X0375660Y0062340D01*
X0375816Y0062323D01*
X0375973Y0062302D01*
X0376128Y0062278D01*
X0376283Y0062249D01*
X0376438Y0062216D01*
X0376591Y0062180D01*
X0376744Y0062139D01*
X0376895Y0062095D01*
X0377045Y0062047D01*
X0377194Y0061996D01*
X0377342Y0061940D01*
X0377488Y0061881D01*
X0377633Y0061818D01*
X0377776Y0061751D01*
X0377917Y0061681D01*
X0378056Y0061608D01*
X0378194Y0061531D01*
X0378330Y0061450D01*
X0378463Y0061366D01*
X0378594Y0061279D01*
X0378723Y0061188D01*
X0378850Y0061094D01*
X0378975Y0060997D01*
X0379096Y0060897D01*
X0379216Y0060794D01*
X0379332Y0060688D01*
X0379446Y0060579D01*
X0379558Y0060467D01*
X0379666Y0060353D01*
X0379771Y0060235D01*
X0379874Y0060115D01*
X0379973Y0059993D01*
X0380069Y0059868D01*
X0380162Y0059740D01*
X0380252Y0059611D01*
X0380338Y0059479D01*
X0380422Y0059345D01*
X0380501Y0059209D01*
X0380578Y0059071D01*
X0380650Y0058931D01*
X0380719Y0058789D01*
X0380785Y0058646D01*
X0380847Y0058501D01*
X0380905Y0058354D01*
X0380960Y0058206D01*
X0381011Y0058057D01*
X0381058Y0057906D01*
X0381101Y0057755D01*
X0381140Y0057602D01*
X0381176Y0057448D01*
X0381207Y0057294D01*
X0381235Y0057139D01*
X0381259Y0056983D01*
X0381279Y0056826D01*
X0381295Y0056669D01*
X0381307Y0056512D01*
X0381315Y0056355D01*
X0381319Y0056197D01*
X0381319Y0056039D01*
X0381315Y0055881D01*
X0381307Y0055724D01*
X0381295Y0055567D01*
X0381279Y0055410D01*
X0381259Y0055253D01*
X0381235Y0055097D01*
X0381207Y0054942D01*
X0381176Y0054788D01*
X0381140Y0054634D01*
X0381101Y0054481D01*
X0381058Y0054330D01*
X0381011Y0054179D01*
X0380960Y0054030D01*
X0380905Y0053882D01*
X0380847Y0053735D01*
X0380785Y0053590D01*
X0380719Y0053447D01*
X0380650Y0053305D01*
X0380578Y0053165D01*
X0380501Y0053027D01*
X0380422Y0052891D01*
X0380338Y0052757D01*
X0380252Y0052625D01*
X0380162Y0052496D01*
X0380069Y0052368D01*
X0379973Y0052243D01*
X0379874Y0052121D01*
X0379771Y0052001D01*
X0379666Y0051883D01*
X0379558Y0051769D01*
X0379446Y0051657D01*
X0379332Y0051548D01*
X0379216Y0051442D01*
X0379096Y0051339D01*
X0378975Y0051239D01*
X0378850Y0051142D01*
X0378723Y0051048D01*
X0378594Y0050957D01*
X0378463Y0050870D01*
X0378330Y0050786D01*
X0378194Y0050705D01*
X0378056Y0050628D01*
X0377917Y0050555D01*
X0377776Y0050485D01*
X0377633Y0050418D01*
X0377488Y0050355D01*
X0377342Y0050296D01*
X0377194Y0050240D01*
X0377045Y0050189D01*
X0376895Y0050141D01*
X0376744Y0050097D01*
X0376591Y0050056D01*
X0376438Y0050020D01*
X0376283Y0049987D01*
X0376128Y0049958D01*
X0375973Y0049934D01*
X0375816Y0049913D01*
X0375660Y0049896D01*
X0375502Y0049883D01*
X0375345Y0049874D01*
X0375187Y0049869D01*
X0375030Y0049868D01*
X0374872Y0049871D01*
X0374714Y0049878D01*
X0374557Y0049889D01*
X0374400Y0049904D01*
X0374243Y0049923D01*
X0374087Y0049946D01*
X0373932Y0049972D01*
X0373777Y0050003D01*
X0373623Y0050037D01*
X0373470Y0050076D01*
X0373318Y0050118D01*
X0373168Y0050164D01*
X0373018Y0050214D01*
X0372870Y0050268D01*
X0372723Y0050325D01*
X0372577Y0050386D01*
X0372434Y0050451D01*
X0372291Y0050519D01*
X0372151Y0050591D01*
X0372013Y0050666D01*
X0371876Y0050745D01*
X0371741Y0050827D01*
X0371609Y0050913D01*
X0371479Y0051002D01*
X0371351Y0051094D01*
X0371225Y0051190D01*
X0371102Y0051288D01*
X0370982Y0051390D01*
X0370864Y0051495D01*
X0370748Y0051602D01*
X0370636Y0051713D01*
X0370526Y0051826D01*
X0370419Y0051942D01*
X0370315Y0052060D01*
X0370214Y0052182D01*
X0370117Y0052305D01*
X0370022Y0052432D01*
X0369931Y0052560D01*
X0369842Y0052691D01*
X0369758Y0052824D01*
X0369676Y0052959D01*
X0369598Y0053096D01*
X0369524Y0053235D01*
X0369453Y0053376D01*
X0369385Y0053518D01*
X0369322Y0053663D01*
X0369261Y0053808D01*
X0369205Y0053956D01*
X0369152Y0054104D01*
X0369103Y0054254D01*
X0369058Y0054405D01*
X0369017Y0054558D01*
X0368979Y0054711D01*
X0368946Y0054865D01*
X0368916Y0055020D01*
X0368890Y0055175D01*
X0368869Y0055332D01*
X0368851Y0055488D01*
X0368837Y0055645D01*
X0368827Y0055803D01*
X0368821Y0055960D01*
X0368819Y0056118D01*
D11*
X0259321Y0137024D03*
X0253415Y0137024D03*
X0253415Y0164976D03*
X0247510Y0164976D03*
X0253415Y0173244D03*
X0259321Y0173244D03*
X0265226Y0200409D03*
X0271132Y0200409D03*
X0190030Y0181906D03*
X0184124Y0181906D03*
X0184124Y0155921D03*
X0190030Y0155921D03*
D12*
X0188848Y0164583D03*
X0185305Y0164583D03*
X0185305Y0139386D03*
X0188848Y0139386D03*
X0254596Y0153953D03*
X0258140Y0153953D03*
X0258140Y0188205D03*
X0254596Y0188205D03*
X0336486Y0219307D03*
X0340030Y0219307D03*
X0364833Y0188205D03*
X0368376Y0188205D03*
X0135305Y0256315D03*
X0131762Y0256315D03*
D13*
X0199281Y0197063D03*
X0199281Y0191157D03*
X0197313Y0167929D03*
X0197313Y0162024D03*
X0205581Y0127772D03*
X0205581Y0121866D03*
D14*
X0215030Y0123047D03*
X0215030Y0126591D03*
X0219360Y0128165D03*
X0219360Y0131709D03*
X0230778Y0126591D03*
X0230778Y0123047D03*
X0242195Y0123047D03*
X0242195Y0126591D03*
X0261880Y0094701D03*
X0261880Y0091157D03*
X0230778Y0066354D03*
X0230778Y0062811D03*
X0231171Y0187220D03*
X0231171Y0190764D03*
X0241801Y0192339D03*
X0241801Y0195882D03*
X0220541Y0195882D03*
X0220541Y0192339D03*
X0209518Y0192339D03*
X0209518Y0195882D03*
X0200069Y0224228D03*
X0200069Y0227772D03*
X0231171Y0252575D03*
X0231171Y0256118D03*
D15*
X0230482Y0246079D03*
X0227923Y0246079D03*
X0225364Y0246079D03*
X0222805Y0246079D03*
X0220246Y0246079D03*
X0217687Y0246079D03*
X0215128Y0246079D03*
X0212569Y0246079D03*
X0210010Y0246079D03*
X0207451Y0246079D03*
X0204892Y0246079D03*
X0233041Y0246079D03*
X0233041Y0223244D03*
X0230482Y0223244D03*
X0227923Y0223244D03*
X0225364Y0223244D03*
X0222805Y0223244D03*
X0220246Y0223244D03*
X0217687Y0223244D03*
X0215128Y0223244D03*
X0212569Y0223244D03*
X0210010Y0223244D03*
X0207451Y0223244D03*
X0204892Y0223244D03*
X0228907Y0095685D03*
X0231467Y0095685D03*
X0234026Y0095685D03*
X0236585Y0095685D03*
X0239144Y0095685D03*
X0241703Y0095685D03*
X0244262Y0095685D03*
X0246821Y0095685D03*
X0249380Y0095685D03*
X0251939Y0095685D03*
X0254498Y0095685D03*
X0257057Y0095685D03*
X0257057Y0072850D03*
X0254498Y0072850D03*
X0251939Y0072850D03*
X0249380Y0072850D03*
X0246821Y0072850D03*
X0244262Y0072850D03*
X0241703Y0072850D03*
X0239144Y0072850D03*
X0236585Y0072850D03*
X0234026Y0072850D03*
X0231467Y0072850D03*
X0228907Y0072850D03*
D16*
X0148100Y0236039D03*
X0148100Y0238598D03*
X0148100Y0241157D03*
X0148100Y0243717D03*
X0148100Y0246276D03*
X0148100Y0248835D03*
X0148100Y0251394D03*
X0126053Y0251394D03*
X0126053Y0248835D03*
X0126053Y0246276D03*
X0126053Y0243717D03*
X0126053Y0241157D03*
X0126053Y0238598D03*
X0126053Y0236039D03*
D17*
X0063913Y0252969D03*
X0063913Y0254937D03*
X0063913Y0256906D03*
X0063913Y0258874D03*
X0059386Y0258874D03*
X0059386Y0256906D03*
X0059386Y0254937D03*
X0059386Y0252969D03*
D18*
X0335502Y0214484D03*
X0335502Y0211925D03*
X0335502Y0209366D03*
X0335502Y0206807D03*
X0335502Y0204248D03*
X0335502Y0201689D03*
X0335502Y0199130D03*
X0335502Y0196571D03*
X0335502Y0194012D03*
X0335502Y0191453D03*
X0335502Y0188894D03*
X0335502Y0186335D03*
X0358337Y0186335D03*
X0358337Y0188894D03*
X0358337Y0191453D03*
X0358337Y0194012D03*
X0358337Y0196571D03*
X0358337Y0199130D03*
X0358337Y0201689D03*
X0358337Y0204248D03*
X0358337Y0206807D03*
X0358337Y0209366D03*
X0358337Y0211925D03*
X0358337Y0214484D03*
M02*
